# Blender 3.4.0
# www.blender.org
mtllib buttons_etx_blue_1.mtl
o buttons_etx_blue_1
v 0.072000 -0.081000 0.000000
v 0.054000 -0.099000 0.000000
v -0.072000 -0.081000 0.000000
v 0.054000 0.099000 0.000000
v 0.072000 0.081000 0.000000
v -0.072000 0.081000 0.000000
v -0.054000 0.099000 0.000000
v 0.072000 -0.081000 0.018000
v 0.054000 -0.099000 0.018000
v -0.054000 -0.099000 0.018000
v -0.072000 -0.081000 0.018000
v 0.054000 0.099000 0.018000
v 0.072000 0.081000 0.018000
v -0.072000 0.081000 0.018000
v -0.054000 0.099000 0.018000
v -0.054000 -0.099000 -0.000000
v -0.050111 0.019574 0.027000
v -0.046800 0.012600 0.027000
v 0.005689 0.074026 0.027000
v -0.005689 0.074026 0.027000
v -0.046800 0.012600 0.018000
v -0.050111 0.019574 0.018000
v -0.005689 0.074026 0.018000
v 0.005689 0.074026 0.018000
v 0.046800 0.012600 0.027000
v 0.050111 0.019574 0.027000
v 0.050111 0.019574 0.018000
v 0.046800 0.012600 0.018000
v 0.050111 -0.019574 0.027000
v 0.046800 -0.012600 0.027000
v -0.005689 -0.074026 0.027000
v 0.005689 -0.074026 0.027000
v 0.046800 -0.012600 0.018000
v 0.050111 -0.019574 0.018000
v 0.005689 -0.074026 0.018000
v -0.005689 -0.074026 0.018000
v -0.046800 -0.012600 0.027000
v -0.050111 -0.019574 0.027000
v -0.050111 -0.019574 0.018000
v -0.046800 -0.012600 0.018000
v 0.036524 -0.070060 0.022293
v 0.036890 -0.078421 0.022293
v 0.042179 -0.063889 0.022293
v 0.043060 -0.084075 0.022293
v 0.051421 -0.083710 0.022293
v 0.057076 -0.077540 0.022293
v 0.050540 -0.063524 0.022293
v 0.056711 -0.069179 0.022293
v 0.036524 -0.070060 0.017919
v 0.036890 -0.078421 0.017919
v 0.042179 -0.063889 0.017919
v 0.043060 -0.084075 0.017919
v 0.051421 -0.083710 0.017919
v 0.050540 -0.063524 0.017919
v 0.057076 -0.077540 0.017919
v 0.056711 -0.069179 0.017919
v 0.039068 0.081533 0.022293
v 0.035865 0.073800 0.022293
v 0.046800 0.084735 0.022293
v 0.039068 0.066068 0.022293
v 0.046800 0.062865 0.022293
v 0.054532 0.066068 0.022293
v 0.054532 0.081532 0.022293
v 0.057735 0.073800 0.022293
v 0.039068 0.081533 0.017919
v 0.035865 0.073800 0.017919
v 0.046800 0.084735 0.017919
v 0.039068 0.066068 0.017919
v 0.046800 0.062865 0.017919
v 0.054532 0.081532 0.017919
v 0.054532 0.066068 0.017919
v 0.057735 0.073800 0.017919
v -0.050540 0.063524 0.022293
v -0.042179 0.063889 0.022293
v -0.056710 0.069178 0.022293
v -0.036524 0.070060 0.022293
v -0.036889 0.078421 0.022293
v -0.043060 0.084075 0.022293
v -0.057075 0.077540 0.022293
v -0.051421 0.083710 0.022293
v -0.050540 0.063524 0.017919
v -0.042179 0.063889 0.017919
v -0.056710 0.069178 0.017919
v -0.036524 0.070060 0.017919
v -0.036889 0.078421 0.017919
v -0.057075 0.077540 0.017919
v -0.043060 0.084075 0.017919
v -0.051421 0.083710 0.017919
v -0.056270 -0.068332 0.022293
v -0.057362 -0.076630 0.022293
v -0.049630 -0.063237 0.022293
v -0.052267 -0.083270 0.022293
v -0.043970 -0.084362 0.022293
v -0.037330 -0.079267 0.022293
v -0.041332 -0.064330 0.022293
v -0.036237 -0.070970 0.022293
v -0.056270 -0.068332 0.017919
v -0.057362 -0.076630 0.017919
v -0.049630 -0.063237 0.017919
v -0.052267 -0.083270 0.017919
v -0.043970 -0.084362 0.017919
v -0.041332 -0.064330 0.017919
v -0.037330 -0.079267 0.017919
v -0.036237 -0.070970 0.017919
vn -0.0000 1.0000 -0.0000
vn -0.0000 -1.0000 -0.0000
vn 0.7071 -0.7071 -0.0000
vn -0.7071 -0.7071 -0.0000
vn 0.7071 0.7071 -0.0000
vn -0.7071 0.7071 -0.0000
vn -0.0000 -0.0000 -1.0000
vn -0.0000 -0.0000 1.0000
vn 1.0000 -0.0000 -0.0000
vn -1.0000 -0.0000 -0.0000
vn 0.7749 0.6321 -0.0000
vn -0.7749 0.6321 -0.0000
vn -0.9034 -0.4289 -0.0000
vn 0.9034 -0.4289 -0.0000
vn -0.7749 -0.6321 -0.0000
vn 0.7749 -0.6321 -0.0000
vn 0.9034 0.4289 -0.0000
vn -0.9034 0.4289 -0.0000
vn 0.2655 0.7296 0.6303
vn -0.3281 0.7036 0.6303
vn -0.7296 0.2655 0.6303
vn -0.7036 -0.3281 0.6303
vn -0.2655 -0.7296 0.6303
vn 0.3281 -0.7036 0.6303
vn 0.7296 -0.2655 0.6303
vn 0.7036 0.3281 0.6303
vn 0.3420 0.9397 -0.0000
vn 0.9063 0.4226 -0.0000
vn 0.9397 -0.3420 -0.0000
vn -0.4226 0.9063 -0.0000
vn -0.9397 0.3420 -0.0000
vn 0.4226 -0.9063 -0.0000
vn -0.3420 -0.9397 -0.0000
vn -0.9063 -0.4226 -0.0000
vn 0.5490 0.5490 0.6303
vn -0.0000 0.7764 0.6303
vn -0.5490 0.5490 0.6303
vn -0.7764 -0.0000 0.6303
vn -0.5490 -0.5490 0.6303
vn -0.0000 -0.7764 0.6303
vn 0.5490 -0.5490 0.6303
vn 0.7764 -0.0000 0.6303
vn 0.3882 0.6724 0.6303
vn -0.2009 0.7499 0.6303
vn -0.6724 0.3882 0.6303
vn -0.7499 -0.2009 0.6303
vn -0.3882 -0.6724 0.6303
vn 0.2009 -0.7499 0.6303
vn 0.6724 -0.3882 0.6303
vn 0.7499 0.2009 0.6303
vn 0.5000 0.8660 -0.0000
vn 0.9659 0.2588 -0.0000
vn 0.8660 -0.5000 -0.0000
vn -0.2588 0.9659 -0.0000
vn -0.8660 0.5000 -0.0000
vn 0.2588 -0.9659 -0.0000
vn -0.5000 -0.8660 -0.0000
vn -0.9659 -0.2588 -0.0000
vt 0.402344 0.345703
vt 0.391926 0.121514
vt 0.402344 0.115234
vt 0.402344 0.337891
vt 0.385561 0.115148
vt 0.341001 0.121514
vt 0.402344 0.289062
vt 0.402344 0.181641
vt 0.385561 0.185170
vt 0.391926 0.178805
vt 0.402344 0.173828
vt 0.341001 0.178805
vt 0.402344 0.230469
vt 0.402344 0.222656
vt 0.347366 0.185170
vt 0.394531 0.345703
vt 0.391926 0.121514
vt 0.394531 0.115234
vt 0.394531 0.337891
vt 0.385561 0.115148
vt 0.394531 0.296875
vt 0.347367 0.115148
vt 0.341001 0.121514
vt 0.394531 0.289062
vt 0.394531 0.181641
vt 0.385560 0.185170
vt 0.391926 0.178805
vt 0.394531 0.173828
vt 0.341001 0.178805
vt 0.394531 0.230469
vt 0.394531 0.222656
vt 0.347366 0.185170
vt 0.402344 0.296875
vt 0.347367 0.115148
vt 0.178895 0.177682
vt 0.182872 0.204932
vt 0.181365 0.178855
vt 0.182872 0.208096
vt 0.179568 0.178965
vt 0.159604 0.197450
vt 0.189365 0.180243
vt 0.182872 0.177058
vt 0.159604 0.193419
vt 0.182872 0.180222
vt 0.186061 0.208096
vt 0.182757 0.178965
vt 0.186061 0.204932
vt 0.186061 0.180222
vt 0.186176 0.180243
vt 0.186061 0.177058
vt 0.181365 0.212014
vt 0.179568 0.212018
vt 0.178895 0.213187
vt 0.189365 0.205014
vt 0.179568 0.215197
vt 0.186176 0.205014
vt 0.182757 0.215197
vt 0.182757 0.212019
vt 0.178895 0.177682
vt 0.182872 0.204932
vt 0.181365 0.178855
vt 0.182872 0.208096
vt 0.179568 0.178965
vt 0.159604 0.197450
vt 0.189365 0.180243
vt 0.182872 0.177058
vt 0.159604 0.193419
vt 0.182872 0.180222
vt 0.186061 0.208096
vt 0.182757 0.178965
vt 0.186061 0.204932
vt 0.186061 0.180222
vt 0.186176 0.180243
vt 0.186061 0.177058
vt 0.181365 0.212014
vt 0.179568 0.212018
vt 0.178895 0.213187
vt 0.189365 0.205014
vt 0.179568 0.215197
vt 0.186176 0.205014
vt 0.182757 0.215197
vt 0.182757 0.212019
vt 0.450919 0.205078
vt 0.453549 0.205078
vt 0.448705 0.199732
vt 0.453549 0.199732
vt 0.453549 0.210424
vt 0.448705 0.210424
vt 0.453549 0.210424
vt 0.443359 0.197518
vt 0.453549 0.205078
vt 0.438014 0.199732
vt 0.453549 0.199732
vt 0.435799 0.205078
vt 0.453549 0.205078
vt 0.443359 0.212638
vt 0.453549 0.205078
vt 0.438014 0.210424
vt 0.453549 0.199732
vt 0.453549 0.210424
vt 0.456573 0.205078
vt 0.456573 0.199732
vt 0.456573 0.210424
vt 0.456573 0.210424
vt 0.456573 0.205078
vt 0.456573 0.199732
vt 0.456573 0.205078
vt 0.456573 0.205078
vt 0.456573 0.199732
vt 0.456573 0.210424
vt 0.450919 0.220703
vt 0.453549 0.220703
vt 0.448705 0.215357
vt 0.453549 0.215357
vt 0.453549 0.226049
vt 0.448705 0.226049
vt 0.453549 0.226049
vt 0.443359 0.213143
vt 0.453549 0.220703
vt 0.438014 0.215357
vt 0.453549 0.215357
vt 0.435799 0.220703
vt 0.453549 0.220703
vt 0.443359 0.228263
vt 0.453549 0.220703
vt 0.438014 0.226049
vt 0.453549 0.215357
vt 0.453549 0.226049
vt 0.456573 0.220703
vt 0.456573 0.215357
vt 0.456573 0.226049
vt 0.456573 0.226049
vt 0.456573 0.220703
vt 0.456573 0.215357
vt 0.456573 0.220703
vt 0.456573 0.220703
vt 0.456573 0.215357
vt 0.456573 0.226049
vt 0.450919 0.205078
vt 0.453549 0.205078
vt 0.448705 0.199732
vt 0.453549 0.199732
vt 0.453549 0.210424
vt 0.448705 0.210424
vt 0.453549 0.210424
vt 0.443359 0.197518
vt 0.453549 0.205078
vt 0.438014 0.199732
vt 0.453549 0.199732
vt 0.435799 0.205078
vt 0.453549 0.205078
vt 0.443359 0.212638
vt 0.453549 0.205078
vt 0.438014 0.210424
vt 0.453549 0.199732
vt 0.453549 0.210424
vt 0.456573 0.205078
vt 0.456573 0.199732
vt 0.456573 0.210424
vt 0.456573 0.210424
vt 0.456573 0.205078
vt 0.456573 0.199732
vt 0.456573 0.205078
vt 0.456573 0.205078
vt 0.456573 0.199732
vt 0.456573 0.210424
vt 0.450919 0.220703
vt 0.453549 0.220703
vt 0.448705 0.215357
vt 0.453549 0.215357
vt 0.453549 0.226049
vt 0.448705 0.226049
vt 0.453549 0.226049
vt 0.443359 0.213143
vt 0.453549 0.220703
vt 0.438014 0.215357
vt 0.453549 0.215357
vt 0.435799 0.220703
vt 0.453549 0.220703
vt 0.443359 0.228263
vt 0.453549 0.220703
vt 0.438014 0.226049
vt 0.453549 0.215357
vt 0.453549 0.226049
vt 0.456573 0.220703
vt 0.456573 0.215357
vt 0.456573 0.226049
vt 0.456573 0.226049
vt 0.456573 0.220703
vt 0.456573 0.215357
vt 0.456573 0.220703
vt 0.456573 0.220703
vt 0.456573 0.215357
vt 0.456573 0.226049
s 1
usemtl electronics_etx_part_1
f 4/8/1 7/14/1 15/31/1 12/25/1
f 9/19/2 10/21/2 16/33/2 2/4/2
f 1/1/3 8/16/3 9/19/3 2/4/3
f 11/24/4 3/7/4 16/33/4 10/21/4
f 13/28/5 5/11/5 4/8/5 12/25/5
f 6/13/6 14/30/6 15/31/6 7/14/6
f 6/12/7 5/10/7 1/2/7 3/6/7
f 14/29/8 13/27/8 12/26/8 15/32/8
f 5/10/7 6/12/7 7/15/7 4/9/7
f 9/20/8 8/17/8 11/23/8 10/22/8
f 2/5/7 16/34/7 3/6/7 1/2/7
f 13/27/8 14/29/8 11/23/8 8/17/8
f 1/3/9 5/11/9 13/28/9 8/18/9
f 6/13/10 3/7/10 11/24/10 14/30/10
f 25/51/8 26/53/8 19/40/8 20/43/8 17/35/8 18/37/8
f 27/56/11 24/49/11 19/41/11 26/54/11
f 17/36/12 20/44/12 23/48/12 22/47/12
f 21/45/13 18/38/13 17/36/13 22/47/13
f 19/42/1 24/50/1 23/48/1 20/44/1
f 25/52/14 28/58/14 27/57/14 26/55/14
f 21/46/2 28/58/2 25/52/2 18/39/2
f 37/75/8 38/77/8 31/64/8 32/67/8 29/59/8 30/61/8
f 39/80/15 36/73/15 31/65/15 38/78/15
f 29/60/16 32/68/16 35/72/16 34/71/16
f 33/69/17 30/62/17 29/60/17 34/71/17
f 31/66/2 36/74/2 35/72/2 32/68/2
f 37/76/18 40/82/18 39/81/18 38/79/18
f 33/70/1 40/82/1 37/76/1 30/63/1
f 47/96/19 43/88/20 41/83/21 42/85/22 44/90/23 45/92/24 46/94/25 48/98/26
f 54/107/27 47/97/19 48/99/26 56/109/28
f 56/110/28 48/100/26 46/95/25 55/108/29
f 47/97/19 54/107/27 51/104/30 43/89/20
f 43/89/20 51/104/30 49/101/31 41/84/21
f 55/108/29 46/95/25 45/93/24 53/106/32
f 53/106/32 45/93/24 44/91/23 52/105/33
f 41/84/21 49/101/31 50/102/34 42/86/22
f 42/87/22 50/103/34 52/105/33 44/91/23
f 63/124/35 59/116/36 57/111/37 58/113/38 60/118/39 61/120/40 62/122/41 64/126/42
f 70/135/5 63/125/35 64/127/42 72/137/9
f 72/138/9 64/128/42 62/123/41 71/136/3
f 63/125/35 70/135/5 67/132/1 59/117/36
f 59/117/36 67/132/1 65/129/6 57/112/37
f 71/136/3 62/123/41 61/121/40 69/134/2
f 69/134/2 61/121/40 60/119/39 68/133/4
f 57/112/37 65/129/6 66/130/10 58/114/38
f 58/115/38 66/131/10 68/133/4 60/119/39
f 79/152/21 75/144/22 73/139/23 74/141/24 76/146/25 77/148/26 78/150/19 80/154/20
f 86/163/31 79/153/21 80/155/20 88/165/30
f 88/166/30 80/156/20 78/151/19 87/164/27
f 79/153/21 86/163/31 83/160/34 75/145/22
f 75/145/22 83/160/34 81/157/33 73/140/23
f 87/164/27 78/151/19 77/149/26 85/162/28
f 85/162/28 77/149/26 76/147/25 84/161/29
f 73/140/23 81/157/33 82/158/32 74/142/24
f 74/143/24 82/159/32 84/161/29 76/147/25
f 95/180/43 91/172/44 89/167/45 90/169/46 92/174/47 93/176/48 94/178/49 96/182/50
f 102/191/51 95/181/43 96/183/50 104/193/52
f 104/194/52 96/184/50 94/179/49 103/192/53
f 95/181/43 102/191/51 99/188/54 91/173/44
f 91/173/44 99/188/54 97/185/55 89/168/45
f 103/192/53 94/179/49 93/177/48 101/190/56
f 101/190/56 93/177/48 92/175/47 100/189/57
f 89/168/45 97/185/55 98/186/58 90/170/46
f 90/171/46 98/187/58 100/189/57 92/175/47
o buttons_etx_blue_1_child_1
v -0.039240 0.024914 0.036000
v -0.036002 0.018000 0.036000
v 0.005760 0.065086 0.036000
v -0.005764 0.065086 0.036000
v -0.036002 0.018000 0.027000
v -0.039240 0.024914 0.027000
v -0.005764 0.065086 0.027000
v 0.005760 0.065086 0.027000
v 0.035998 0.018000 0.036000
v 0.039236 0.024914 0.036000
v 0.039236 0.024914 0.027000
v 0.035998 0.018000 0.027000
vn -0.0000 -0.0000 1.0000
vn 0.7682 0.6402 -0.0000
vn -0.7682 0.6402 -0.0000
vn -0.9056 -0.4242 -0.0000
vn -0.0000 1.0000 -0.0000
vn 0.9056 -0.4242 -0.0000
vn -0.0000 -1.0000 -0.0000
vt 0.102784 0.363174
vt 0.091075 0.400425
vt 0.105234 0.364321
vt 0.091075 0.403614
vt 0.087771 0.381900
vt 0.088553 0.379116
vt 0.097568 0.381900
vt 0.091075 0.378711
vt 0.088553 0.375034
vt 0.091075 0.381900
vt 0.094264 0.403614
vt 0.090960 0.381900
vt 0.094264 0.400425
vt 0.094264 0.381900
vt 0.094380 0.381900
vt 0.094264 0.378711
vt 0.105234 0.389829
vt 0.087771 0.407407
vt 0.102784 0.390976
vt 0.097568 0.400425
vt 0.087771 0.410595
vt 0.094380 0.400425
vt 0.090960 0.410595
vt 0.090960 0.407407
s 0
usemtl electronics_etx_part_1
f 113/211/59 114/213/59 107/200/59 108/203/59 105/195/59 106/197/59
f 115/216/60 112/209/60 107/201/60 114/214/60
f 105/196/61 108/204/61 111/208/61 110/207/61
f 109/205/62 106/198/62 105/196/62 110/207/62
f 107/202/63 112/210/63 111/208/63 108/204/63
f 113/212/64 116/218/64 115/217/64 114/215/64
f 109/206/65 116/218/65 113/212/65 106/199/65
o buttons_etx_blue_1_child_2
v 0.039236 -0.024914 0.036000
v 0.035998 -0.018000 0.036000
v -0.005764 -0.065086 0.036000
v 0.005760 -0.065086 0.036000
v 0.035998 -0.018000 0.027000
v 0.039236 -0.024914 0.027000
v 0.005760 -0.065086 0.027000
v -0.005764 -0.065086 0.027000
v -0.036002 -0.018000 0.036000
v -0.039240 -0.024914 0.036000
v -0.039240 -0.024914 0.027000
v -0.036002 -0.018000 0.027000
vn -0.0000 -0.0000 1.0000
vn -0.7682 -0.6402 -0.0000
vn 0.7682 -0.6402 -0.0000
vn 0.9056 0.4242 -0.0000
vn -0.0000 -1.0000 -0.0000
vn -0.9056 0.4242 -0.0000
vn -0.0000 1.0000 -0.0000
vt 0.102784 0.363174
vt 0.091075 0.400425
vt 0.105234 0.364321
vt 0.091075 0.403614
vt 0.087771 0.381900
vt 0.088553 0.379116
vt 0.097568 0.381900
vt 0.091075 0.378711
vt 0.088553 0.375034
vt 0.091075 0.381900
vt 0.094264 0.403614
vt 0.090960 0.381900
vt 0.094264 0.400425
vt 0.094264 0.381900
vt 0.094380 0.381900
vt 0.094264 0.378711
vt 0.105234 0.389829
vt 0.087771 0.407407
vt 0.102784 0.390976
vt 0.097568 0.400425
vt 0.087771 0.410595
vt 0.094380 0.400425
vt 0.090960 0.410595
vt 0.090960 0.407407
s 0
usemtl electronics_etx_part_1
f 125/235/66 126/237/66 119/224/66 120/227/66 117/219/66 118/221/66
f 127/240/67 124/233/67 119/225/67 126/238/67
f 117/220/68 120/228/68 123/232/68 122/231/68
f 121/229/69 118/222/69 117/220/69 122/231/69
f 119/226/70 124/234/70 123/232/70 120/228/70
f 125/236/71 128/242/71 127/241/71 126/239/71
f 121/230/72 128/242/72 125/236/72 118/223/72
