# Blender 3.4.0
# www.blender.org
mtllib button_etx_green_1.mtl
o button_etx_green_1
v -0.090000 -0.072000 0.054000
v -0.072000 -0.090000 0.054000
v -0.072000 0.090000 0.054000
v -0.090000 0.072000 0.054000
v -0.072000 -0.090000 0.000000
v -0.090000 -0.072000 0.000000
v -0.090000 0.072000 0.000000
v -0.072000 0.090000 0.000000
v 0.072000 -0.090000 0.054000
v 0.090000 -0.072000 0.054000
v 0.090000 0.072000 0.054000
v 0.072000 0.090000 0.054000
v 0.090000 -0.072000 0.000000
v 0.072000 -0.090000 0.000000
v 0.072000 0.090000 0.000000
v 0.090000 0.072000 0.000000
v -0.027000 -0.046765 0.054000
v -0.046765 -0.027000 0.054000
v -0.054000 -0.000000 0.054000
v -0.046765 0.027000 0.054000
v -0.027000 0.046765 0.054000
v 0.000000 -0.054000 0.054000
v 0.046765 -0.027000 0.054000
v 0.027000 -0.046765 0.054000
v 0.000000 0.054000 0.054000
v 0.054000 0.000000 0.054000
v 0.027000 0.046765 0.054000
v 0.046765 0.027000 0.054000
v 0.054000 -0.000000 0.063000
v 0.046765 -0.027000 0.063000
v -0.027000 0.046765 0.063000
v 0.000000 0.054000 0.063000
v -0.046765 -0.027000 0.063000
v -0.054000 0.000000 0.063000
v 0.000000 -0.054000 0.063000
v -0.027000 -0.046765 0.063000
v -0.046765 0.027000 0.063000
v 0.027000 -0.046765 0.063000
v 0.027000 0.046765 0.063000
v 0.046765 0.027000 0.063000
v -0.060397 -0.053119 0.054000
v -0.060397 -0.053119 0.066579
v -0.051650 -0.063543 0.054000
v -0.051650 -0.063543 0.066579
v -0.056305 -0.076330 0.054000
v -0.056305 -0.076330 0.066579
v -0.069706 -0.078693 0.054000
v -0.069706 -0.078693 0.066579
v -0.078453 -0.068269 0.054000
v -0.078453 -0.068269 0.066579
v -0.073799 -0.055482 0.054000
v -0.073799 -0.055482 0.066579
v 0.058797 0.079627 0.054000
v 0.058797 0.079627 0.066579
v 0.072354 0.078441 0.054000
v 0.072354 0.078441 0.066579
v 0.078104 0.066108 0.054000
v 0.078104 0.066108 0.066579
v 0.070299 0.054961 0.054000
v 0.070299 0.054961 0.066579
v 0.056743 0.056147 0.054000
v 0.056743 0.056147 0.066579
v 0.050992 0.068480 0.054000
v 0.050992 0.068480 0.066579
v -0.075476 0.076041 0.054000
v -0.075476 0.076041 0.066579
v -0.062689 0.080695 0.054000
v -0.062689 0.080695 0.066579
v -0.052264 0.071948 0.054000
v -0.052264 0.071948 0.066579
v -0.054627 0.058547 0.054000
v -0.054627 0.058547 0.066579
v -0.067415 0.053893 0.054000
v -0.067415 0.053893 0.066579
v -0.077839 0.062640 0.054000
v -0.077839 0.062640 0.066579
v 0.062185 -0.052505 0.054000
v 0.062185 -0.052505 0.066579
v 0.074973 -0.057159 0.054000
v 0.074973 -0.057159 0.066579
v 0.077336 -0.070560 0.054000
v 0.077336 -0.070560 0.066579
v 0.066911 -0.079307 0.054000
v 0.066911 -0.079307 0.066579
v 0.054124 -0.074653 0.054000
v 0.054124 -0.074653 0.066579
v 0.051761 -0.061252 0.054000
v 0.051761 -0.061252 0.066579
vn -0.0000 -0.0000 1.0000
vn 1.0000 -0.0000 -0.0000
vn -0.0000 1.0000 -0.0000
vn -1.0000 -0.0000 -0.0000
vn -0.7071 -0.7071 -0.0000
vn -0.7071 0.7071 -0.0000
vn 0.7071 -0.7071 -0.0000
vn 0.7071 0.7071 -0.0000
vn -0.0000 -1.0000 -0.0000
vn -0.5000 -0.8660 -0.0000
vn -0.8660 -0.5000 -0.0000
vn -0.5000 0.8660 -0.0000
vn -0.8660 0.5000 -0.0000
vn 0.5000 -0.8660 -0.0000
vn 0.8660 -0.5000 -0.0000
vn 0.5000 0.8660 -0.0000
vn 0.8660 0.5000 -0.0000
vn -0.7660 -0.6428 -0.0000
vn -0.1736 0.9848 -0.0000
vn 0.7660 0.6428 -0.0000
vn 0.9397 -0.3420 -0.0000
vn -0.9397 0.3420 -0.0000
vn 0.1737 -0.9848 -0.0000
vn -0.0871 -0.9962 -0.0000
vn -0.8191 0.5736 -0.0000
vn 0.0872 0.9962 -0.0000
vn 0.9063 0.4226 -0.0000
vn -0.9063 -0.4226 -0.0000
vn 0.8192 -0.5736 -0.0000
vn 0.3420 -0.9397 -0.0000
vn -0.9848 0.1737 -0.0000
vn -0.3420 0.9397 -0.0000
vn 0.6428 0.7660 -0.0000
vn -0.6428 -0.7660 -0.0000
vn 0.9848 -0.1736 -0.0000
vn -0.3420 -0.9397 -0.0000
vn -0.6428 0.7661 -0.0000
vn 0.3420 0.9397 -0.0000
vn 0.9848 0.1736 -0.0000
vn -0.9848 -0.1736 -0.0000
vn 0.6428 -0.7660 -0.0000
vt 0.117547 0.070963
vt 0.201172 0.074219
vt 0.123912 0.064598
vt 0.201172 0.064453
vt 0.201172 0.125000
vt 0.123912 0.128254
vt 0.201172 0.074219
vt 0.117547 0.121889
vt 0.201172 0.125000
vt 0.201172 0.064453
vt 0.181641 0.064453
vt 0.181641 0.125000
vt 0.181641 0.074219
vt 0.181641 0.125000
vt 0.181641 0.064453
vt 0.181641 0.074219
vt 0.174838 0.064598
vt 0.201172 0.074219
vt 0.181203 0.070963
vt 0.201172 0.125000
vt 0.201172 0.064453
vt 0.181203 0.121889
vt 0.201172 0.074219
vt 0.174838 0.128254
vt 0.201172 0.125000
vt 0.201172 0.064453
vt 0.181641 0.125000
vt 0.181641 0.064453
vt 0.181641 0.074219
vt 0.181641 0.125000
vt 0.181641 0.064453
vt 0.181641 0.074219
vt 0.173761 0.173725
vt 0.166440 0.173725
vt 0.193752 0.173750
vt 0.183752 0.173750
vt 0.166440 0.173725
vt 0.173752 0.173750
vt 0.173761 0.173725
vt 0.183761 0.173725
vt 0.201082 0.173725
vt 0.193752 0.173750
vt 0.193761 0.173725
vt 0.183761 0.173725
vt 0.183752 0.173750
vt 0.193761 0.173725
vt 0.201082 0.173725
vt 0.173752 0.173750
vt 0.183752 0.170416
vt 0.201808 0.152344
vt 0.201082 0.170392
vt 0.193752 0.170416
vt 0.199128 0.142344
vt 0.173761 0.170392
vt 0.171808 0.169664
vt 0.183761 0.170392
vt 0.181808 0.172344
vt 0.166440 0.170392
vt 0.193752 0.170416
vt 0.164487 0.142344
vt 0.183752 0.170416
vt 0.161808 0.152344
vt 0.183761 0.170392
vt 0.181808 0.132344
vt 0.173761 0.170392
vt 0.171808 0.135023
vt 0.166440 0.170392
vt 0.173752 0.170416
vt 0.164487 0.162344
vt 0.193761 0.170392
vt 0.191808 0.135023
vt 0.193761 0.170392
vt 0.191808 0.169664
vt 0.201082 0.170392
vt 0.173752 0.170416
vt 0.199128 0.162344
vt 0.161478 0.164242
vt 0.153812 0.164242
vt 0.161478 0.169832
vt 0.153812 0.173196
vt 0.153812 0.169832
vt 0.159837 0.164242
vt 0.160950 0.164242
vt 0.159837 0.172669
vt 0.159837 0.169832
vt 0.160950 0.169832
vt 0.155469 0.164242
vt 0.162393 0.167188
vt 0.155469 0.169832
vt 0.158924 0.164242
vt 0.150515 0.164242
vt 0.158924 0.169832
vt 0.158924 0.162234
vt 0.150515 0.169832
vt 0.152899 0.164242
vt 0.151042 0.164242
vt 0.152899 0.169832
vt 0.152899 0.162761
vt 0.151042 0.169832
vt 0.156523 0.164242
vt 0.150343 0.168242
vt 0.156523 0.169832
vt 0.161478 0.164242
vt 0.153812 0.164242
vt 0.161478 0.169832
vt 0.153812 0.173196
vt 0.153812 0.169832
vt 0.159837 0.164242
vt 0.160950 0.164242
vt 0.159837 0.172669
vt 0.159837 0.169832
vt 0.160950 0.169832
vt 0.155469 0.164242
vt 0.162393 0.167188
vt 0.155469 0.169832
vt 0.158924 0.164242
vt 0.150515 0.164242
vt 0.158924 0.169832
vt 0.158924 0.162234
vt 0.150515 0.169832
vt 0.152899 0.164242
vt 0.151042 0.164242
vt 0.152899 0.169832
vt 0.152899 0.162761
vt 0.151042 0.169832
vt 0.156523 0.164242
vt 0.150343 0.168242
vt 0.156523 0.169832
vt 0.161478 0.164242
vt 0.153812 0.164242
vt 0.161478 0.169832
vt 0.153812 0.173196
vt 0.153812 0.169832
vt 0.159837 0.164242
vt 0.160950 0.164242
vt 0.159837 0.172669
vt 0.159837 0.169832
vt 0.160950 0.169832
vt 0.155469 0.164242
vt 0.162393 0.167188
vt 0.155469 0.169832
vt 0.158924 0.164242
vt 0.150515 0.164242
vt 0.158924 0.169832
vt 0.158924 0.162234
vt 0.150515 0.169832
vt 0.152899 0.164242
vt 0.151042 0.164242
vt 0.152899 0.169832
vt 0.152899 0.162761
vt 0.151042 0.169832
vt 0.156523 0.164242
vt 0.150343 0.168242
vt 0.156523 0.169832
vt 0.161478 0.164242
vt 0.153812 0.164242
vt 0.161478 0.169832
vt 0.153812 0.173196
vt 0.153812 0.169832
vt 0.159837 0.164242
vt 0.160950 0.164242
vt 0.159837 0.172669
vt 0.159837 0.169832
vt 0.160950 0.169832
vt 0.155469 0.164242
vt 0.162393 0.167188
vt 0.155469 0.169832
vt 0.158924 0.164242
vt 0.150515 0.164242
vt 0.158924 0.169832
vt 0.158924 0.162234
vt 0.150515 0.169832
vt 0.152899 0.164242
vt 0.151042 0.164242
vt 0.152899 0.169832
vt 0.152899 0.162761
vt 0.151042 0.169832
vt 0.156523 0.164242
vt 0.150343 0.168242
vt 0.156523 0.169832
s 0
usemtl electronics_etx_part_1
f 9/17/1 10/19/1 11/22/1 12/24/1 3/6/1 4/8/1 1/1/1 2/3/1
f 13/27/2 16/32/2 11/23/2 10/20/2
f 15/30/3 8/16/3 3/7/3 12/25/3
f 1/2/4 4/9/4 7/14/4 6/13/4
f 5/11/5 2/4/5 1/2/5 6/13/5
f 3/7/6 8/16/6 7/15/6 4/10/6
f 9/18/7 14/29/7 13/28/7 10/21/7
f 15/31/8 12/26/8 11/23/8 16/32/8
f 5/12/9 14/29/9 9/18/9 2/5/9
s 1
f 22/40/9 35/63/9 36/65/10 17/33/10
f 17/33/10 36/65/10 33/58/11 18/34/11
f 18/35/11 33/59/11 34/61/4 19/36/4
f 32/56/3 25/44/3 21/39/12 31/54/12
f 31/54/12 21/39/12 20/37/13 37/67/13
f 37/68/13 20/38/13 19/36/4 34/61/4
f 35/63/9 22/40/9 24/43/14 38/70/14
f 38/70/14 24/43/14 23/41/15 30/51/15
f 30/52/15 23/42/15 26/45/2 29/49/2
f 25/44/3 32/56/3 39/72/16 27/46/16
f 27/46/16 39/72/16 40/74/17 28/47/17
f 28/48/17 40/75/17 29/49/2 26/45/2
f 39/73/1 32/57/1 31/55/1 37/69/1 34/62/1 33/60/1 36/66/1 35/64/1 38/71/1 30/53/1 29/50/1 40/76/1
f 49/95/18 47/90/18 48/92/18 50/97/18
f 42/79/19 41/77/19 51/100/19 52/102/19
f 48/93/1 46/88/1 42/80/1 50/98/1
f 46/88/1 44/84/1 42/80/1
f 42/80/1 52/101/1 50/98/1
f 43/82/20 41/78/20 42/81/20 44/85/20
f 45/87/21 43/83/21 44/86/21 46/89/21
f 52/102/22 51/100/22 49/96/22 50/99/22
f 47/91/23 45/87/23 46/89/23 48/94/23
f 61/121/24 59/116/24 60/118/24 62/123/24
f 54/105/25 53/103/25 63/126/25 64/128/25
f 60/119/1 58/114/1 54/106/1 62/124/1
f 58/114/1 56/110/1 54/106/1
f 54/106/1 64/127/1 62/124/1
f 55/108/26 53/104/26 54/107/26 56/111/26
f 57/113/27 55/109/27 56/112/27 58/115/27
f 64/128/28 63/126/28 61/122/28 62/125/28
f 59/117/29 57/113/29 58/115/29 60/120/29
f 73/147/30 71/142/30 72/144/30 74/149/30
f 66/131/31 65/129/31 75/152/31 76/154/31
f 72/145/1 70/140/1 66/132/1 74/150/1
f 70/140/1 68/136/1 66/132/1
f 66/132/1 76/153/1 74/150/1
f 67/134/32 65/130/32 66/133/32 68/137/32
f 69/139/33 67/135/33 68/138/33 70/141/33
f 76/154/34 75/152/34 73/148/34 74/151/34
f 71/143/35 69/139/35 70/141/35 72/146/35
f 85/173/36 83/168/36 84/170/36 86/175/36
f 78/157/37 77/155/37 87/178/37 88/180/37
f 84/171/1 82/166/1 78/158/1 86/176/1
f 82/166/1 80/162/1 78/158/1
f 78/158/1 88/179/1 86/176/1
f 79/160/38 77/156/38 78/159/38 80/163/38
f 81/165/39 79/161/39 80/164/39 82/167/39
f 88/180/40 87/178/40 85/174/40 86/177/40
f 83/169/41 81/165/41 82/167/41 84/172/41
o button_etx_green_1_child
v 0.044683 -0.000000 0.063000
v 0.026048 -0.000000 0.081000
v 0.042186 -0.000000 0.072000
v 0.035365 -0.000000 0.078589
v 0.022558 -0.013024 0.081000
v 0.038696 -0.022341 0.063000
v 0.030627 -0.017683 0.078589
v 0.036534 -0.021093 0.072000
v -0.022341 0.038696 0.063000
v -0.013024 0.022558 0.081000
v -0.021093 0.036534 0.072000
v -0.017683 0.030627 0.078589
v 0.000000 0.026047 0.081000
v 0.000000 0.044682 0.063000
v 0.000000 0.035365 0.078589
v 0.000000 0.042186 0.072000
v -0.038696 -0.022341 0.063000
v -0.022558 -0.013024 0.081000
v -0.036534 -0.021093 0.072000
v -0.030627 -0.017683 0.078589
v -0.026048 -0.000000 0.081000
v -0.044683 -0.000000 0.063000
v -0.035365 -0.000000 0.078589
v -0.042186 -0.000000 0.072000
v 0.000000 -0.044683 0.063000
v 0.000000 -0.026048 0.081000
v 0.000000 -0.042186 0.072000
v 0.000000 -0.035365 0.078589
v -0.013024 -0.022558 0.081000
v -0.022341 -0.038696 0.063000
v -0.017683 -0.030627 0.078589
v -0.021093 -0.036534 0.072000
v -0.038696 0.022341 0.063000
v -0.022558 0.013024 0.081000
v -0.036534 0.021093 0.072000
v -0.030627 0.017682 0.078589
v 0.022341 -0.038696 0.063000
v 0.013024 -0.022558 0.081000
v 0.021093 -0.036534 0.072000
v 0.017683 -0.030627 0.078589
v 0.013024 0.022558 0.081000
v 0.022341 0.038696 0.063000
v 0.017683 0.030627 0.078589
v 0.021093 0.036534 0.072000
v 0.022558 0.013024 0.081000
v 0.038696 0.022341 0.063000
v 0.030627 0.017682 0.078589
v 0.036534 0.021093 0.072000
v 0.000000 -0.000000 0.081000
vn -0.0000 -0.0000 1.0000
vn 0.1469 -0.0000 0.9892
vn 0.1272 0.0734 0.9892
vn 0.1272 -0.0734 0.9892
vn 0.4500 -0.2598 0.8544
vn 0.5197 -0.0000 0.8544
vn 0.7534 -0.4350 0.4931
vn 0.8700 -0.0000 0.4931
vn 0.8345 -0.4818 0.2673
vn 0.9636 -0.0000 0.2673
vn -0.0734 0.1272 0.9892
vn -0.0000 0.1469 0.9892
vn -0.0000 0.5197 0.8544
vn -0.2598 0.4500 0.8544
vn -0.0000 0.8700 0.4931
vn -0.4350 0.7534 0.4931
vn -0.0000 0.9636 0.2673
vn -0.4818 0.8345 0.2673
vn -0.1272 -0.0734 0.9892
vn -0.1469 -0.0000 0.9892
vn -0.5197 -0.0000 0.8544
vn -0.4500 -0.2598 0.8544
vn -0.8700 -0.0000 0.4931
vn -0.7534 -0.4350 0.4931
vn -0.9636 -0.0000 0.2673
vn -0.8345 -0.4818 0.2673
vn -0.0000 -0.1469 0.9892
vn -0.0734 -0.1272 0.9892
vn -0.2598 -0.4500 0.8544
vn -0.0000 -0.5197 0.8544
vn -0.4350 -0.7534 0.4931
vn -0.0000 -0.8700 0.4931
vn -0.4818 -0.8345 0.2673
vn -0.0000 -0.9636 0.2673
vn -0.1272 0.0734 0.9892
vn -0.4500 0.2598 0.8544
vn -0.7534 0.4350 0.4931
vn -0.8345 0.4818 0.2673
vn 0.0734 -0.1272 0.9892
vn 0.2598 -0.4500 0.8544
vn 0.4350 -0.7534 0.4931
vn 0.4818 -0.8345 0.2673
vn 0.0734 0.1272 0.9892
vn 0.2598 0.4500 0.8544
vn 0.4350 0.7534 0.4931
vn 0.4818 0.8345 0.2673
vn 0.4500 0.2598 0.8544
vn 0.7534 0.4350 0.4931
vn 0.8345 0.4818 0.2673
vt 0.115305 0.354038
vt 0.127843 0.327205
vt 0.133820 0.327205
vt 0.115305 0.350705
vt 0.131294 0.327205
vt 0.126551 0.322381
vt 0.123579 0.354038
vt 0.129539 0.320655
vt 0.131727 0.319392
vt 0.123117 0.350705
vt 0.109921 0.354065
vt 0.113372 0.335559
vt 0.110384 0.340736
vt 0.110384 0.350731
vt 0.111647 0.338548
vt 0.118196 0.336852
vt 0.118196 0.354065
vt 0.118196 0.340303
vt 0.118196 0.342829
vt 0.118196 0.350731
vt 0.123579 0.354038
vt 0.103864 0.354065
vt 0.109841 0.322381
vt 0.123117 0.350705
vt 0.104665 0.319392
vt 0.104665 0.350731
vt 0.106853 0.320655
vt 0.108549 0.327205
vt 0.115305 0.354038
vt 0.105098 0.327205
vt 0.102572 0.327205
vt 0.115305 0.350705
vt 0.118196 0.354065
vt 0.118196 0.317557
vt 0.118196 0.311580
vt 0.118196 0.350731
vt 0.118196 0.314106
vt 0.113372 0.318850
vt 0.109921 0.354065
vt 0.111647 0.315861
vt 0.110384 0.313673
vt 0.110384 0.350731
vt 0.103864 0.354065
vt 0.107030 0.354038
vt 0.109841 0.332028
vt 0.104665 0.350731
vt 0.104665 0.335017
vt 0.107492 0.350705
vt 0.106853 0.333754
vt 0.126471 0.354065
vt 0.129637 0.354038
vt 0.123020 0.318850
vt 0.126008 0.350731
vt 0.126008 0.313673
vt 0.128836 0.350705
vt 0.124745 0.315861
vt 0.123020 0.335559
vt 0.126471 0.354065
vt 0.124745 0.338548
vt 0.126008 0.340736
vt 0.126008 0.350731
vt 0.126551 0.332028
vt 0.132528 0.354065
vt 0.107030 0.354038
vt 0.129539 0.333754
vt 0.131727 0.350731
vt 0.131727 0.335017
vt 0.107492 0.350705
vt 0.118196 0.327205
s 1
usemtl electronics_etx_part_1
f 137/249/42 90/182/43 133/242/44
f 90/182/43 93/186/45 95/188/46 92/185/47
f 92/185/47 95/188/46 96/189/48 91/183/49
f 91/184/49 96/190/48 94/187/50 89/181/51
f 98/192/52 101/196/53 103/198/54 100/195/55
f 100/195/55 103/198/54 104/199/56 99/193/57
f 99/194/57 104/200/56 102/197/58 97/191/59
f 106/203/60 109/208/61 111/210/62 108/207/63
f 108/207/63 111/210/62 112/211/64 107/205/65
f 107/204/65 112/212/64 110/209/66 105/201/67
f 114/214/68 117/218/69 119/220/70 116/217/71
f 116/217/71 119/220/70 120/221/72 115/215/73
f 115/216/73 120/222/72 118/219/74 113/213/75
f 117/218/69 106/203/60 108/207/63 119/220/70
f 119/220/70 108/207/63 107/205/65 120/221/72
f 120/222/72 107/206/65 105/202/67 118/219/74
f 122/225/76 98/192/52 100/195/55 124/229/77
f 124/229/77 100/195/55 99/193/57 123/227/78
f 123/226/78 99/194/57 97/191/59 121/223/79
f 109/208/61 122/225/76 124/229/77 111/210/62
f 111/210/62 124/229/77 123/227/78 112/211/64
f 112/212/64 123/228/78 121/224/79 110/209/66
f 126/232/80 114/214/68 116/217/71 128/236/81
f 128/236/81 116/217/71 115/215/73 127/234/82
f 127/233/82 115/216/73 113/213/75 125/230/83
f 93/186/45 126/232/80 128/236/81 95/188/46
f 95/188/46 128/236/81 127/234/82 96/189/48
f 96/190/48 127/235/82 125/231/83 94/187/50
f 101/196/53 129/237/84 131/239/85 103/198/54
f 103/198/54 131/239/85 132/240/86 104/199/56
f 104/200/56 132/241/86 130/238/87 102/197/58
f 129/237/84 133/242/44 135/245/88 131/239/85
f 131/239/85 135/245/88 136/247/89 132/240/86
f 132/241/86 136/246/89 134/243/90 130/238/87
f 133/242/44 90/182/43 92/185/47 135/245/88
f 135/245/88 92/185/47 91/183/49 136/247/89
f 136/248/89 91/184/49 89/181/51 134/244/90
f 137/249/42 101/196/53 98/192/52
f 106/203/60 137/249/42 109/208/61
f 137/249/42 93/186/45 90/182/43
f 109/208/61 137/249/42 122/225/76
f 126/232/80 93/186/45 137/249/42
f 137/249/42 133/242/44 129/237/84
f 117/218/69 114/214/68 137/249/42
f 114/214/68 126/232/80 137/249/42
f 122/225/76 137/249/42 98/192/52
f 101/196/53 137/249/42 129/237/84
f 106/203/60 117/218/69 137/249/42
