# Blender 3.4.0
# www.blender.org
mtllib buttons_etx_black_2.mtl
o buttons_etx_black_2
v 0.135000 -0.063000 0.018000
v -0.135000 -0.063000 0.018000
v 0.162000 -0.072000 0.000000
v 0.144000 -0.090000 0.000000
v -0.144000 -0.090000 0.000000
v -0.162000 -0.072000 0.000000
v 0.135000 0.063000 0.018000
v -0.135000 0.063000 0.018000
v 0.144000 0.090000 0.000000
v 0.162000 0.072000 0.000000
v -0.162000 0.072000 0.000000
v -0.144000 0.090000 0.000000
v 0.162000 -0.072000 0.018000
v 0.144000 -0.090000 0.018000
v -0.144000 -0.090000 0.018000
v -0.162000 -0.072000 0.018000
v 0.144000 0.090000 0.018000
v 0.162000 0.072000 0.018000
v -0.162000 0.072000 0.018000
v -0.144000 0.090000 0.018000
v 0.081000 -0.063000 0.018000
v 0.063000 -0.063000 0.018000
v 0.009001 -0.063000 0.018000
v -0.009000 -0.063000 0.018000
v -0.063000 -0.063000 0.018000
v -0.081000 -0.063000 0.018000
v 0.081000 0.063000 0.018000
v 0.063000 0.063000 0.018000
v 0.009001 0.063000 0.018000
v -0.009000 0.063000 0.018000
v -0.062999 0.063000 0.018000
v -0.081000 0.063000 0.018000
v -0.135000 -0.063000 0.018000
v -0.081000 0.063000 0.018000
v -0.135000 0.063000 0.018000
v -0.088200 -0.055800 0.027000
v -0.127800 -0.055800 0.027000
v -0.081000 -0.063000 0.018000
v -0.088200 0.055800 0.027000
v -0.127800 0.055800 0.027000
v -0.081000 -0.063000 0.027000
v -0.135000 -0.063000 0.027000
v -0.135000 0.063000 0.027000
v -0.081000 0.063000 0.027000
v -0.088200 -0.055800 0.009000
v -0.127800 -0.055800 0.009000
v -0.127800 0.055800 0.009000
v -0.088200 0.055800 0.009000
v -0.063000 -0.063000 0.018000
v -0.009000 0.063000 0.018000
v -0.063000 0.063000 0.018000
v -0.016200 -0.055800 0.027000
v -0.055800 -0.055800 0.027000
v -0.009000 -0.063000 0.018000
v -0.016200 0.055800 0.027000
v -0.055800 0.055800 0.027000
v -0.009000 -0.063000 0.027000
v -0.063000 -0.063000 0.027000
v -0.063000 0.063000 0.027000
v -0.009000 0.063000 0.027000
v -0.016200 -0.055800 0.009000
v -0.055800 -0.055800 0.009000
v -0.055800 0.055800 0.009000
v -0.016200 0.055800 0.009000
v 0.009000 -0.063000 0.018000
v 0.063000 0.063000 0.018000
v 0.009000 0.063000 0.018000
v 0.055800 -0.055800 0.027000
v 0.016200 -0.055800 0.027000
v 0.063000 -0.063000 0.018000
v 0.055800 0.055800 0.027000
v 0.016200 0.055800 0.027000
v 0.063000 -0.063000 0.027000
v 0.009000 -0.063000 0.027000
v 0.009000 0.063000 0.027000
v 0.063000 0.063000 0.027000
v 0.055800 -0.055800 0.009000
v 0.016200 -0.055800 0.009000
v 0.016200 0.055800 0.009000
v 0.055800 0.055800 0.009000
v 0.081000 -0.063000 0.018000
v 0.135000 0.063000 0.018000
v 0.081000 0.063000 0.018000
v 0.127800 -0.055800 0.027000
v 0.088201 -0.055800 0.027000
v 0.135000 -0.063000 0.018000
v 0.127800 0.055800 0.027000
v 0.088201 0.055800 0.027000
v 0.135000 -0.063000 0.027000
v 0.081000 -0.063000 0.027000
v 0.081000 0.063000 0.027000
v 0.135000 0.063000 0.027000
v 0.127800 -0.055800 0.009000
v 0.088201 -0.055800 0.009000
v 0.088201 0.055800 0.009000
v 0.127800 0.055800 0.009000
v 0.135420 -0.068288 0.021434
v 0.135712 -0.074977 0.021434
v 0.139943 -0.063352 0.021434
v 0.140648 -0.079500 0.021434
v 0.147337 -0.079208 0.021434
v 0.151861 -0.074272 0.021434
v 0.146632 -0.063059 0.021434
v 0.151569 -0.067583 0.021434
v 0.135420 -0.068288 0.017935
v 0.135712 -0.074977 0.017935
v 0.139943 -0.063352 0.017935
v 0.140648 -0.079500 0.017935
v 0.147337 -0.079208 0.017935
v 0.146632 -0.063059 0.017935
v 0.151861 -0.074272 0.017935
v 0.151569 -0.067583 0.017935
v 0.137454 0.077466 0.021434
v 0.134892 0.071280 0.021434
v 0.143640 0.080028 0.021434
v 0.137454 0.065094 0.021434
v 0.143640 0.062532 0.021434
v 0.149826 0.065094 0.021434
v 0.149826 0.077466 0.021434
v 0.152388 0.071280 0.021434
v 0.137454 0.077466 0.017935
v 0.134892 0.071280 0.017935
v 0.143640 0.080028 0.017935
v 0.137454 0.065094 0.017935
v 0.143640 0.062532 0.017935
v 0.149826 0.077466 0.017935
v 0.149826 0.065094 0.017935
v 0.152388 0.071280 0.017935
v -0.146632 0.063059 0.021434
v -0.139943 0.063351 0.021434
v -0.151568 0.067583 0.021434
v -0.135419 0.068288 0.021434
v -0.135711 0.074977 0.021434
v -0.140648 0.079500 0.021434
v -0.151860 0.074272 0.021434
v -0.147337 0.079208 0.021434
v -0.146632 0.063059 0.017935
v -0.139943 0.063351 0.017935
v -0.151568 0.067583 0.017935
v -0.135419 0.068288 0.017935
v -0.135711 0.074977 0.017935
v -0.151860 0.074272 0.017935
v -0.140648 0.079500 0.017935
v -0.147337 0.079208 0.017935
v -0.151216 -0.066906 0.021434
v -0.152090 -0.073544 0.021434
v -0.145904 -0.062830 0.021434
v -0.148014 -0.078856 0.021434
v -0.141376 -0.079730 0.021434
v -0.136064 -0.075654 0.021434
v -0.139266 -0.063704 0.021434
v -0.135190 -0.069016 0.021434
v -0.151216 -0.066906 0.017935
v -0.152090 -0.073544 0.017935
v -0.145904 -0.062830 0.017935
v -0.148014 -0.078856 0.017935
v -0.141376 -0.079730 0.017935
v -0.139266 -0.063704 0.017935
v -0.136064 -0.075654 0.017935
v -0.135190 -0.069016 0.017935
vn -0.0000 1.0000 -0.0000
vn -1.0000 -0.0000 -0.0000
vn -0.0000 -1.0000 -0.0000
vn 0.7071 -0.7071 -0.0000
vn -0.7071 -0.7071 -0.0000
vn 0.7071 0.7071 -0.0000
vn -0.7071 0.7071 -0.0000
vn 1.0000 -0.0000 -0.0000
vn -0.0000 -0.0000 1.0000
vn 0.2655 0.7296 0.6303
vn -0.3281 0.7036 0.6303
vn -0.7296 0.2655 0.6303
vn -0.7036 -0.3281 0.6303
vn -0.2655 -0.7296 0.6303
vn 0.3281 -0.7036 0.6303
vn 0.7296 -0.2655 0.6303
vn 0.7036 0.3281 0.6303
vn 0.3420 0.9397 -0.0000
vn 0.9063 0.4226 -0.0000
vn 0.9397 -0.3420 -0.0000
vn -0.4226 0.9063 -0.0000
vn -0.9397 0.3420 -0.0000
vn 0.4226 -0.9063 -0.0000
vn -0.3420 -0.9397 -0.0000
vn -0.9063 -0.4226 -0.0000
vn 0.5490 0.5490 0.6303
vn -0.0000 0.7764 0.6303
vn -0.5490 0.5490 0.6303
vn -0.7764 -0.0000 0.6303
vn -0.5490 -0.5490 0.6303
vn -0.0000 -0.7764 0.6303
vn 0.5490 -0.5490 0.6303
vn 0.7764 -0.0000 0.6303
vn 0.3882 0.6724 0.6303
vn -0.2009 0.7499 0.6303
vn -0.6724 0.3882 0.6303
vn -0.7499 -0.2009 0.6303
vn -0.3882 -0.6724 0.6303
vn 0.2009 -0.7499 0.6303
vn 0.6724 -0.3882 0.6303
vn 0.7499 0.2009 0.6303
vn 0.5000 0.8660 -0.0000
vn 0.9659 0.2588 -0.0000
vn 0.8660 -0.5000 -0.0000
vn -0.2588 0.9659 -0.0000
vn -0.8660 0.5000 -0.0000
vn 0.2588 -0.9659 -0.0000
vn -0.5000 -0.8660 -0.0000
vn -0.9659 -0.2588 -0.0000
vt 0.345845 0.242537
vt 0.345845 0.338022
vt 0.336324 0.166582
vt 0.336324 0.266191
vt 0.336324 0.164628
vt 0.336324 0.176347
vt 0.336324 0.266191
vt 0.336324 0.205644
vt 0.336324 0.215410
vt 0.390405 0.242537
vt 0.390405 0.338022
vt 0.336324 0.316972
vt 0.336324 0.259355
vt 0.336324 0.269121
vt 0.336324 0.215410
vt 0.336324 0.266191
vt 0.336324 0.205644
vt 0.336324 0.215410
vt 0.342835 0.166582
vt 0.342834 0.266191
vt 0.342663 0.232988
vt 0.342835 0.164628
vt 0.342835 0.176347
vt 0.336297 0.239354
vt 0.342834 0.266191
vt 0.342834 0.205644
vt 0.336297 0.341205
vt 0.342834 0.215410
vt 0.342662 0.347570
vt 0.342835 0.316972
vt 0.342835 0.259355
vt 0.399953 0.239354
vt 0.342835 0.269121
vt 0.342834 0.215410
vt 0.393588 0.232988
vt 0.342834 0.266191
vt 0.342834 0.205644
vt 0.393588 0.347570
vt 0.342834 0.215410
vt 0.399953 0.341205
vt 0.345845 0.261634
vt 0.345845 0.267999
vt 0.345845 0.287096
vt 0.345845 0.293462
vt 0.345845 0.312559
vt 0.345845 0.318925
vt 0.390405 0.261634
vt 0.390405 0.267999
vt 0.390405 0.287096
vt 0.390405 0.293462
vt 0.390405 0.312559
vt 0.390405 0.318925
vt 0.157525 0.175742
vt 0.133525 0.162028
vt 0.157525 0.155171
vt 0.181525 0.162028
vt 0.157525 0.175742
vt 0.181525 0.162028
vt 0.136268 0.158599
vt 0.136268 0.157914
vt 0.154096 0.157914
vt 0.136268 0.172999
vt 0.154096 0.172999
vt 0.136268 0.158599
vt 0.157525 0.155171
vt 0.133525 0.162028
vt 0.178782 0.158599
vt 0.178782 0.157914
vt 0.154096 0.157914
vt 0.178782 0.172999
vt 0.178782 0.158599
vt 0.154096 0.172999
vt 0.154096 0.155171
vt 0.133525 0.158599
vt 0.133525 0.155171
vt 0.154096 0.175742
vt 0.133525 0.158599
vt 0.133525 0.175742
vt 0.154096 0.175742
vt 0.181525 0.158599
vt 0.181525 0.175742
vt 0.154096 0.155171
vt 0.181525 0.158599
vt 0.181525 0.155171
vt 0.136268 0.165456
vt 0.160953 0.157914
vt 0.136719 0.155762
vt 0.160953 0.172999
vt 0.136268 0.165456
vt 0.136719 0.171875
vt 0.178782 0.165456
vt 0.160953 0.172999
vt 0.179688 0.171875
vt 0.178782 0.165456
vt 0.160953 0.157914
vt 0.179688 0.155762
vt 0.157525 0.174787
vt 0.133525 0.154215
vt 0.157525 0.154215
vt 0.181525 0.154215
vt 0.157525 0.174787
vt 0.181525 0.154215
vt 0.136268 0.150787
vt 0.136268 0.156958
vt 0.154096 0.156958
vt 0.136268 0.172044
vt 0.154096 0.172044
vt 0.136268 0.150787
vt 0.157525 0.154215
vt 0.133525 0.154215
vt 0.178782 0.150787
vt 0.178782 0.156958
vt 0.154096 0.156958
vt 0.178782 0.172044
vt 0.178782 0.150787
vt 0.154096 0.172044
vt 0.154096 0.154215
vt 0.133525 0.150787
vt 0.133525 0.154215
vt 0.154096 0.174787
vt 0.133525 0.150787
vt 0.133525 0.174787
vt 0.154096 0.174787
vt 0.181525 0.150787
vt 0.181525 0.174787
vt 0.154096 0.154215
vt 0.181525 0.150787
vt 0.181525 0.154215
vt 0.136268 0.157644
vt 0.160953 0.156958
vt 0.136719 0.155273
vt 0.160954 0.172044
vt 0.136268 0.157644
vt 0.136719 0.171387
vt 0.178782 0.157644
vt 0.160954 0.172044
vt 0.179688 0.171387
vt 0.178782 0.157644
vt 0.160953 0.156958
vt 0.179688 0.155273
vt 0.157525 0.175785
vt 0.133525 0.148356
vt 0.157525 0.155213
vt 0.181525 0.148356
vt 0.157525 0.175785
vt 0.181525 0.148356
vt 0.136268 0.144927
vt 0.136268 0.157956
vt 0.154096 0.157956
vt 0.136268 0.173042
vt 0.154096 0.173042
vt 0.136268 0.144927
vt 0.157525 0.155213
vt 0.133525 0.148356
vt 0.178782 0.144927
vt 0.178782 0.157956
vt 0.154096 0.157956
vt 0.178782 0.173042
vt 0.178782 0.144927
vt 0.154096 0.173042
vt 0.154096 0.155213
vt 0.133525 0.144927
vt 0.133525 0.155213
vt 0.154096 0.175784
vt 0.133525 0.144927
vt 0.133525 0.175784
vt 0.154096 0.175785
vt 0.181525 0.144927
vt 0.181525 0.175785
vt 0.154096 0.155213
vt 0.181525 0.144927
vt 0.181525 0.155213
vt 0.136268 0.151785
vt 0.160953 0.157956
vt 0.136719 0.156738
vt 0.160954 0.173042
vt 0.136268 0.151785
vt 0.136719 0.172852
vt 0.178782 0.151785
vt 0.160953 0.173042
vt 0.179688 0.172852
vt 0.178782 0.151785
vt 0.160953 0.157956
vt 0.179688 0.156738
vt 0.157525 0.174829
vt 0.133525 0.140543
vt 0.157525 0.154258
vt 0.181525 0.140543
vt 0.157525 0.174829
vt 0.181525 0.140543
vt 0.136268 0.137115
vt 0.136267 0.157000
vt 0.154096 0.157001
vt 0.136267 0.172086
vt 0.154096 0.172086
vt 0.136268 0.137115
vt 0.157525 0.154258
vt 0.133525 0.140543
vt 0.178782 0.137115
vt 0.178782 0.157001
vt 0.154096 0.157001
vt 0.178782 0.172086
vt 0.178782 0.137115
vt 0.154096 0.172086
vt 0.154096 0.154258
vt 0.133525 0.137115
vt 0.133524 0.154257
vt 0.154096 0.174829
vt 0.133525 0.137115
vt 0.133525 0.174829
vt 0.154096 0.174829
vt 0.181525 0.137115
vt 0.181525 0.174829
vt 0.154096 0.154258
vt 0.181525 0.137115
vt 0.181525 0.154258
vt 0.136268 0.143972
vt 0.160953 0.157001
vt 0.136719 0.156250
vt 0.160954 0.172086
vt 0.136268 0.143972
vt 0.136719 0.172363
vt 0.178782 0.143972
vt 0.160954 0.172086
vt 0.179687 0.172363
vt 0.178782 0.143972
vt 0.160953 0.157001
vt 0.179687 0.156250
vt 0.450919 0.205078
vt 0.453549 0.205078
vt 0.448705 0.199732
vt 0.453549 0.199732
vt 0.453549 0.210424
vt 0.448705 0.210424
vt 0.453549 0.210424
vt 0.443359 0.197518
vt 0.453549 0.205078
vt 0.438014 0.199732
vt 0.453549 0.199732
vt 0.435799 0.205078
vt 0.453549 0.205078
vt 0.443359 0.212638
vt 0.453549 0.205078
vt 0.438014 0.210424
vt 0.453549 0.199732
vt 0.453549 0.210424
vt 0.456573 0.205078
vt 0.456573 0.199732
vt 0.456573 0.210424
vt 0.456573 0.210424
vt 0.456573 0.205078
vt 0.456573 0.199732
vt 0.456573 0.205078
vt 0.456573 0.205078
vt 0.456573 0.199732
vt 0.456573 0.210424
vt 0.450919 0.220703
vt 0.453549 0.220703
vt 0.448705 0.215357
vt 0.453549 0.215357
vt 0.453549 0.226049
vt 0.448705 0.226049
vt 0.453549 0.226049
vt 0.443359 0.213143
vt 0.453549 0.220703
vt 0.438014 0.215357
vt 0.453549 0.215357
vt 0.435799 0.220703
vt 0.453549 0.220703
vt 0.443359 0.228263
vt 0.453549 0.220703
vt 0.438014 0.226049
vt 0.453549 0.215357
vt 0.453549 0.226049
vt 0.456573 0.220703
vt 0.456573 0.215357
vt 0.456573 0.226049
vt 0.456573 0.226049
vt 0.456573 0.220703
vt 0.456573 0.215357
vt 0.456573 0.220703
vt 0.456573 0.220703
vt 0.456573 0.215357
vt 0.456573 0.226049
vt 0.450919 0.205078
vt 0.453549 0.205078
vt 0.448705 0.199732
vt 0.453549 0.199732
vt 0.453549 0.210424
vt 0.448705 0.210424
vt 0.453549 0.210424
vt 0.443359 0.197518
vt 0.453549 0.205078
vt 0.438014 0.199732
vt 0.453549 0.199732
vt 0.435799 0.205078
vt 0.453549 0.205078
vt 0.443359 0.212638
vt 0.453549 0.205078
vt 0.438014 0.210424
vt 0.453549 0.199732
vt 0.453549 0.210424
vt 0.456573 0.205078
vt 0.456573 0.199732
vt 0.456573 0.210424
vt 0.456573 0.210424
vt 0.456573 0.205078
vt 0.456573 0.199732
vt 0.456573 0.205078
vt 0.456573 0.205078
vt 0.456573 0.199732
vt 0.456573 0.210424
vt 0.450919 0.220703
vt 0.453549 0.220703
vt 0.448705 0.215357
vt 0.453549 0.215357
vt 0.453549 0.226049
vt 0.448705 0.226049
vt 0.453549 0.226049
vt 0.443359 0.213143
vt 0.453549 0.220703
vt 0.438014 0.215357
vt 0.453549 0.215357
vt 0.435799 0.220703
vt 0.453549 0.220703
vt 0.443359 0.228263
vt 0.453549 0.220703
vt 0.438014 0.226049
vt 0.453549 0.215357
vt 0.453549 0.226049
vt 0.456573 0.220703
vt 0.456573 0.215357
vt 0.456573 0.226049
vt 0.456573 0.226049
vt 0.456573 0.220703
vt 0.456573 0.215357
vt 0.456573 0.220703
vt 0.456573 0.220703
vt 0.456573 0.215357
vt 0.456573 0.226049
s 0
usemtl electronics_etx_part_1
f 9/12/1 12/18/1 20/39/1 17/30/1
f 11/16/2 6/9/2 16/28/2 19/36/2
f 14/22/3 15/25/3 5/7/3 4/5/3
f 3/3/4 13/19/4 14/23/4 4/6/4
f 16/28/5 6/9/5 5/8/5 15/26/5
f 18/33/6 10/14/6 9/13/6 17/31/6
f 11/17/7 19/37/7 20/39/7 12/18/7
f 3/4/8 10/15/8 18/34/8 13/20/8
f 1/1/9 14/24/9 13/21/9
f 2/2/9 16/29/9 15/27/9
f 7/10/9 18/35/9 17/32/9
f 8/11/9 20/40/9 19/38/9
f 7/10/9 1/1/9 13/21/9 18/35/9
f 1/1/9 21/41/9 22/42/9 23/43/9 24/44/9 25/45/9 26/46/9 2/2/9 15/27/9 14/24/9
f 8/11/9 32/52/9 31/51/9 30/50/9 29/49/9 28/48/9 27/47/9 7/10/9 17/32/9 20/40/9
f 2/2/9 8/11/9 19/38/9 16/29/9
f 22/42/9 21/41/9 27/47/9 28/48/9
f 24/44/9 23/43/9 29/49/9 30/50/9
f 26/46/9 25/45/9 31/51/9 32/52/9
f 41/73/3 42/76/3 33/53/3 38/65/3
f 34/55/1 35/57/1 43/79/1 44/82/1
f 36/59/2 39/67/2 48/94/2 45/85/2
f 38/66/8 34/56/8 44/83/8 41/74/8
f 35/58/2 33/54/2 42/77/2 43/80/2
f 36/60/9 37/62/9 42/78/9 41/75/9
f 40/70/9 39/68/9 44/84/9 43/81/9
f 39/68/9 36/60/9 41/75/9 44/84/9
f 37/62/9 40/70/9 43/81/9 42/78/9
f 37/63/1 36/61/1 45/86/1 46/88/1
f 40/71/8 37/64/8 46/89/8 47/91/8
f 39/69/3 40/72/3 47/92/3 48/95/3
f 45/87/9 48/96/9 47/93/9 46/90/9
f 57/117/3 58/120/3 49/97/3 54/109/3
f 50/99/1 51/101/1 59/123/1 60/126/1
f 52/103/2 55/111/2 64/138/2 61/129/2
f 54/110/8 50/100/8 60/127/8 57/118/8
f 51/102/2 49/98/2 58/121/2 59/124/2
f 52/104/9 53/106/9 58/122/9 57/119/9
f 56/114/9 55/112/9 60/128/9 59/125/9
f 55/112/9 52/104/9 57/119/9 60/128/9
f 53/106/9 56/114/9 59/125/9 58/122/9
f 53/107/1 52/105/1 61/130/1 62/132/1
f 56/115/8 53/108/8 62/133/8 63/135/8
f 55/113/3 56/116/3 63/136/3 64/139/3
f 61/131/9 64/140/9 63/137/9 62/134/9
f 73/161/3 74/164/3 65/141/3 70/153/3
f 66/143/1 67/145/1 75/167/1 76/170/1
f 68/147/2 71/155/2 80/182/2 77/173/2
f 70/154/8 66/144/8 76/171/8 73/162/8
f 67/146/2 65/142/2 74/165/2 75/168/2
f 68/148/9 69/150/9 74/166/9 73/163/9
f 72/158/9 71/156/9 76/172/9 75/169/9
f 71/156/9 68/148/9 73/163/9 76/172/9
f 69/150/9 72/158/9 75/169/9 74/166/9
f 69/151/1 68/149/1 77/174/1 78/176/1
f 72/159/8 69/152/8 78/177/8 79/179/8
f 71/157/3 72/160/3 79/180/3 80/183/3
f 77/175/9 80/184/9 79/181/9 78/178/9
f 89/205/3 90/208/3 81/185/3 86/197/3
f 82/187/1 83/189/1 91/211/1 92/214/1
f 84/191/2 87/199/2 96/226/2 93/217/2
f 86/198/8 82/188/8 92/215/8 89/206/8
f 83/190/2 81/186/2 90/209/2 91/212/2
f 84/192/9 85/194/9 90/210/9 89/207/9
f 88/202/9 87/200/9 92/216/9 91/213/9
f 87/200/9 84/192/9 89/207/9 92/216/9
f 85/194/9 88/202/9 91/213/9 90/210/9
f 85/195/1 84/193/1 93/218/1 94/220/1
f 88/203/8 85/196/8 94/221/8 95/223/8
f 87/201/3 88/204/3 95/224/3 96/227/3
f 93/219/9 96/228/9 95/225/9 94/222/9
s 1
f 103/242/10 99/234/11 97/229/12 98/231/13 100/236/14 101/238/15 102/240/16 104/244/17
f 110/253/18 103/243/10 104/245/17 112/255/19
f 112/256/19 104/246/17 102/241/16 111/254/20
f 103/243/10 110/253/18 107/250/21 99/235/11
f 99/235/11 107/250/21 105/247/22 97/230/12
f 111/254/20 102/241/16 101/239/15 109/252/23
f 109/252/23 101/239/15 100/237/14 108/251/24
f 97/230/12 105/247/22 106/248/25 98/232/13
f 98/233/13 106/249/25 108/251/24 100/237/14
f 119/270/26 115/262/27 113/257/28 114/259/29 116/264/30 117/266/31 118/268/32 120/272/33
f 126/281/6 119/271/26 120/273/33 128/283/8
f 128/284/8 120/274/33 118/269/32 127/282/4
f 119/271/26 126/281/6 123/278/1 115/263/27
f 115/263/27 123/278/1 121/275/7 113/258/28
f 127/282/4 118/269/32 117/267/31 125/280/3
f 125/280/3 117/267/31 116/265/30 124/279/5
f 113/258/28 121/275/7 122/276/2 114/260/29
f 114/261/29 122/277/2 124/279/5 116/265/30
f 135/298/12 131/290/13 129/285/14 130/287/15 132/292/16 133/294/17 134/296/10 136/300/11
f 142/309/22 135/299/12 136/301/11 144/311/21
f 144/312/21 136/302/11 134/297/10 143/310/18
f 135/299/12 142/309/22 139/306/25 131/291/13
f 131/291/13 139/306/25 137/303/24 129/286/14
f 143/310/18 134/297/10 133/295/17 141/308/19
f 141/308/19 133/295/17 132/293/16 140/307/20
f 129/286/14 137/303/24 138/304/23 130/288/15
f 130/289/15 138/305/23 140/307/20 132/293/16
f 151/326/34 147/318/35 145/313/36 146/315/37 148/320/38 149/322/39 150/324/40 152/328/41
f 158/337/42 151/327/34 152/329/41 160/339/43
f 160/340/43 152/330/41 150/325/40 159/338/44
f 151/327/34 158/337/42 155/334/45 147/319/35
f 147/319/35 155/334/45 153/331/46 145/314/36
f 159/338/44 150/325/40 149/323/39 157/336/47
f 157/336/47 149/323/39 148/321/38 156/335/48
f 145/314/36 153/331/46 154/332/49 146/316/37
f 146/317/37 154/333/49 156/335/48 148/321/38
o buttons_etx_black_2_child_1
v -0.090000 -0.035672 0.051784
v -0.126000 -0.035672 0.051784
v -0.090000 -0.054490 0.023283
v -0.126000 -0.054490 0.023283
v -0.090000 0.047784 0.029422
v -0.126000 0.047784 0.029422
v -0.090000 0.049830 -0.004669
v -0.126000 0.049830 -0.004669
v -0.090000 -0.002330 0.009307
v -0.126000 -0.002330 0.009307
v -0.090000 0.003261 0.030171
v -0.126000 0.003261 0.030171
vn -0.0000 -0.8345 0.5510
vn -0.0000 -0.2588 -0.9659
vn -0.0000 0.9982 0.0599
vn -0.0000 0.4854 0.8743
vn 1.0000 -0.0000 -0.0000
vn -1.0000 -0.0000 -0.0000
vn -0.0000 0.0168 0.9999
vt 0.164062 0.191406
vt 0.150391 0.191406
vt 0.148361 0.206823
vt 0.164062 0.177734
vt 0.150391 0.177734
vt 0.148356 0.206744
vt 0.175781 0.191406
vt 0.144417 0.195898
vt 0.144531 0.191406
vt 0.175781 0.177734
vt 0.144419 0.195929
vt 0.144531 0.177734
vt 0.164062 0.191406
vt 0.180441 0.206823
vt 0.181641 0.191406
vt 0.164062 0.177734
vt 0.180446 0.206744
vt 0.181641 0.177734
vt 0.183594 0.191406
vt 0.175781 0.191406
vt 0.184385 0.195898
vt 0.183594 0.177734
vt 0.175781 0.177734
vt 0.184383 0.195929
vt 0.164419 0.195931
vt 0.164062 0.191406
vt 0.164382 0.195966
vt 0.164062 0.177734
vt 0.164373 0.203067
vt 0.166016 0.191406
vt 0.164432 0.203014
vt 0.166016 0.177734
s 0
usemtl electronics_etx_part_1
f 161/341/50 162/344/50 164/350/50 163/347/50
f 169/366/51 170/368/51 168/362/51 167/359/51
f 167/360/52 168/363/52 166/356/52 165/353/52
f 171/370/53 172/372/53 162/345/53 161/342/53
f 169/365/54 167/361/54 165/354/54 171/369/54
f 170/367/55 164/351/55 162/346/55 172/371/55
f 168/364/55 170/367/55 172/371/55 166/357/55
f 163/348/54 169/365/54 171/369/54 161/343/54
f 165/355/56 166/358/56 172/372/56 171/370/56
f 163/349/51 164/352/51 170/368/51 169/366/51
o buttons_etx_black_2_child_2
v -0.017999 -0.035672 0.051784
v -0.053999 -0.035672 0.051784
v -0.017999 -0.054490 0.023283
v -0.053999 -0.054490 0.023283
v -0.017999 0.047784 0.029422
v -0.053999 0.047784 0.029422
v -0.017999 0.049830 -0.004669
v -0.053999 0.049830 -0.004669
v -0.017999 -0.002330 0.009307
v -0.053999 -0.002330 0.009307
v -0.017999 0.003261 0.030171
v -0.053999 0.003261 0.030171
vn -0.0000 -0.8345 0.5510
vn -0.0000 -0.2588 -0.9659
vn -0.0000 0.9982 0.0599
vn -0.0000 0.4854 0.8743
vn 1.0000 -0.0000 -0.0000
vn -1.0000 -0.0000 -0.0000
vn -0.0000 0.0168 0.9999
vt 0.164062 0.191406
vt 0.150391 0.191406
vt 0.148361 0.206823
vt 0.164062 0.177734
vt 0.150391 0.177734
vt 0.148356 0.206744
vt 0.175781 0.191406
vt 0.144417 0.195898
vt 0.144531 0.191406
vt 0.175781 0.177734
vt 0.144419 0.195929
vt 0.144531 0.177734
vt 0.164062 0.191406
vt 0.180441 0.206823
vt 0.181641 0.191406
vt 0.164062 0.177734
vt 0.180446 0.206744
vt 0.181641 0.177734
vt 0.183594 0.191406
vt 0.175781 0.191406
vt 0.184385 0.195898
vt 0.183594 0.177734
vt 0.175781 0.177734
vt 0.184383 0.195929
vt 0.164419 0.195931
vt 0.164062 0.191406
vt 0.164382 0.195966
vt 0.164062 0.177734
vt 0.164373 0.203067
vt 0.166016 0.191406
vt 0.164432 0.203014
vt 0.166016 0.177734
s 0
usemtl electronics_etx_part_1
f 173/373/57 174/376/57 176/382/57 175/379/57
f 181/398/58 182/400/58 180/394/58 179/391/58
f 179/392/59 180/395/59 178/388/59 177/385/59
f 183/402/60 184/404/60 174/377/60 173/374/60
f 181/397/61 179/393/61 177/386/61 183/401/61
f 182/399/62 176/383/62 174/378/62 184/403/62
f 180/396/62 182/399/62 184/403/62 178/389/62
f 175/380/61 181/397/61 183/401/61 173/375/61
f 177/387/63 178/390/63 184/404/63 183/402/63
f 175/381/58 176/384/58 182/400/58 181/398/58
o buttons_etx_black_2_child_3
v 0.054001 -0.035672 0.051784
v 0.018001 -0.035672 0.051784
v 0.054001 -0.054490 0.023283
v 0.018001 -0.054490 0.023283
v 0.054001 0.047784 0.029422
v 0.018001 0.047784 0.029422
v 0.054001 0.049830 -0.004669
v 0.018001 0.049830 -0.004669
v 0.054001 -0.002330 0.009307
v 0.018001 -0.002330 0.009307
v 0.054001 0.003261 0.030171
v 0.018001 0.003261 0.030171
vn -0.0000 -0.8345 0.5510
vn -0.0000 -0.2588 -0.9659
vn -0.0000 0.9982 0.0599
vn -0.0000 0.4854 0.8743
vn 1.0000 -0.0000 -0.0000
vn -1.0000 -0.0000 -0.0000
vn -0.0000 0.0168 0.9999
vt 0.164062 0.191406
vt 0.150391 0.191406
vt 0.148361 0.206823
vt 0.164062 0.177734
vt 0.150391 0.177734
vt 0.148356 0.206744
vt 0.175781 0.191406
vt 0.144417 0.195898
vt 0.144531 0.191406
vt 0.175781 0.177734
vt 0.144419 0.195929
vt 0.144531 0.177734
vt 0.164062 0.191406
vt 0.180441 0.206823
vt 0.181641 0.191406
vt 0.164062 0.177734
vt 0.180446 0.206744
vt 0.181641 0.177734
vt 0.183594 0.191406
vt 0.175781 0.191406
vt 0.184385 0.195898
vt 0.183594 0.177734
vt 0.175781 0.177734
vt 0.184383 0.195929
vt 0.164419 0.195931
vt 0.164062 0.191406
vt 0.164382 0.195966
vt 0.164062 0.177734
vt 0.164373 0.203067
vt 0.166016 0.191406
vt 0.164432 0.203014
vt 0.166016 0.177734
s 0
usemtl electronics_etx_part_1
f 185/405/64 186/408/64 188/414/64 187/411/64
f 193/430/65 194/432/65 192/426/65 191/423/65
f 191/424/66 192/427/66 190/420/66 189/417/66
f 195/434/67 196/436/67 186/409/67 185/406/67
f 193/429/68 191/425/68 189/418/68 195/433/68
f 194/431/69 188/415/69 186/410/69 196/435/69
f 192/428/69 194/431/69 196/435/69 190/421/69
f 187/412/68 193/429/68 195/433/68 185/407/68
f 189/419/70 190/422/70 196/436/70 195/434/70
f 187/413/65 188/416/65 194/432/65 193/430/65
o buttons_etx_black_2_child_4
v 0.126002 -0.035672 0.051784
v 0.090002 -0.035672 0.051784
v 0.126002 -0.054489 0.023283
v 0.090002 -0.054489 0.023283
v 0.126002 0.047784 0.029422
v 0.090002 0.047784 0.029422
v 0.126002 0.049831 -0.004670
v 0.090002 0.049831 -0.004670
v 0.126002 -0.002329 0.009307
v 0.090002 -0.002329 0.009307
v 0.126002 0.003261 0.030171
v 0.090002 0.003261 0.030171
vn -0.0000 -0.8345 0.5510
vn -0.0000 -0.2588 -0.9659
vn -0.0000 0.9982 0.0599
vn -0.0000 0.4854 0.8743
vn 1.0000 -0.0000 -0.0000
vn -1.0000 -0.0000 -0.0000
vn -0.0000 0.0168 0.9999
vt 0.164062 0.191406
vt 0.150391 0.191406
vt 0.148361 0.206823
vt 0.164062 0.177734
vt 0.150391 0.177734
vt 0.148356 0.206744
vt 0.175781 0.191406
vt 0.144417 0.195898
vt 0.144531 0.191406
vt 0.175781 0.177734
vt 0.144419 0.195929
vt 0.144531 0.177734
vt 0.164062 0.191406
vt 0.180441 0.206823
vt 0.181641 0.191406
vt 0.164062 0.177734
vt 0.180446 0.206744
vt 0.181641 0.177734
vt 0.183594 0.191406
vt 0.175781 0.191406
vt 0.184385 0.195898
vt 0.183594 0.177734
vt 0.175781 0.177734
vt 0.184383 0.195929
vt 0.164419 0.195931
vt 0.164062 0.191406
vt 0.164382 0.195966
vt 0.164062 0.177734
vt 0.164373 0.203067
vt 0.166016 0.191406
vt 0.164432 0.203014
vt 0.166016 0.177734
s 0
usemtl electronics_etx_part_1
f 197/437/71 198/440/71 200/446/71 199/443/71
f 205/462/72 206/464/72 204/458/72 203/455/72
f 203/456/73 204/459/73 202/452/73 201/449/73
f 207/466/74 208/468/74 198/441/74 197/438/74
f 205/461/75 203/457/75 201/450/75 207/465/75
f 206/463/76 200/447/76 198/442/76 208/467/76
f 204/460/76 206/463/76 208/467/76 202/453/76
f 199/444/75 205/461/75 207/465/75 197/439/75
f 201/451/77 202/454/77 208/468/77 207/466/77
f 199/445/72 200/448/72 206/464/72 205/462/72
