# Blender 3.4.0
# www.blender.org
mtllib button_etx_black_2.mtl
o button_etx_black_2
v -0.072000 -0.057600 0.050400
v -0.057600 -0.072000 0.050400
v -0.057600 0.072000 0.050400
v -0.072000 0.057600 0.050400
v -0.057600 -0.072000 0.000000
v -0.072000 -0.057600 0.000000
v -0.072000 0.057600 0.000000
v -0.057600 0.072000 0.000000
v 0.057600 -0.072000 0.050400
v 0.072000 -0.057600 0.050400
v 0.072000 0.057600 0.050400
v 0.057600 0.072000 0.050400
v 0.072000 -0.057600 0.000000
v 0.057600 -0.072000 0.000000
v 0.057600 0.072000 0.000000
v 0.072000 0.057600 0.000000
v -0.021600 -0.037412 0.014400
v -0.037412 -0.021600 0.014400
v -0.043200 -0.000000 0.014400
v -0.037412 0.021600 0.014400
v -0.021600 0.037412 0.014400
v 0.000000 -0.043200 0.014400
v 0.037412 -0.021600 0.014400
v 0.021600 -0.037412 0.014400
v 0.000000 0.043200 0.014400
v 0.043200 0.000000 0.014400
v 0.021600 0.037412 0.014400
v 0.037412 0.021600 0.014400
v 0.043200 -0.000000 0.021600
v 0.037412 -0.021600 0.021600
v -0.021600 0.037412 0.021600
v 0.000000 0.043200 0.021600
v -0.037412 -0.021600 0.021600
v -0.043200 0.000000 0.021600
v 0.000000 -0.043200 0.021600
v -0.021600 -0.037412 0.021600
v -0.037412 0.021600 0.021600
v 0.021600 -0.037412 0.021600
v 0.021600 0.037412 0.021600
v 0.037412 0.021600 0.021600
v 0.043620 -0.050288 0.017834
v 0.043912 -0.056977 0.017834
v 0.048143 -0.045351 0.017834
v 0.048848 -0.061500 0.017834
v 0.055537 -0.061208 0.017834
v 0.060060 -0.056272 0.017834
v 0.054832 -0.045059 0.017834
v 0.059768 -0.049583 0.017834
v 0.043620 -0.050288 0.014335
v 0.043912 -0.056977 0.014335
v 0.048143 -0.045351 0.014335
v 0.048848 -0.061500 0.014335
v 0.055537 -0.061208 0.014335
v 0.054832 -0.045059 0.014335
v 0.060060 -0.056272 0.014335
v 0.059768 -0.049583 0.014335
v 0.045654 0.059466 0.017834
v 0.043092 0.053281 0.017834
v 0.051840 0.062029 0.017834
v 0.045654 0.047095 0.017834
v 0.051840 0.044533 0.017834
v 0.058026 0.047095 0.017834
v 0.058026 0.059466 0.017834
v 0.060588 0.053281 0.017834
v 0.045654 0.059466 0.014335
v 0.043092 0.053281 0.014335
v 0.051840 0.062029 0.014335
v 0.045654 0.047095 0.014335
v 0.051840 0.044533 0.014335
v 0.058026 0.059466 0.014335
v 0.058026 0.047095 0.014335
v 0.060588 0.053281 0.014335
v -0.054832 0.045060 0.017834
v -0.048143 0.045352 0.017834
v -0.059768 0.049583 0.017834
v -0.043619 0.050288 0.017834
v -0.043911 0.056977 0.017834
v -0.048848 0.061501 0.017834
v -0.060060 0.056272 0.017834
v -0.055537 0.061209 0.017834
v -0.054832 0.045060 0.014335
v -0.048143 0.045352 0.014335
v -0.059768 0.049583 0.014335
v -0.043619 0.050288 0.014335
v -0.043911 0.056977 0.014335
v -0.060060 0.056272 0.014335
v -0.048848 0.061501 0.014335
v -0.055537 0.061209 0.014335
v -0.059416 -0.048905 0.017834
v -0.060290 -0.055544 0.017834
v -0.054104 -0.044830 0.017834
v -0.056214 -0.060855 0.017834
v -0.049576 -0.061729 0.017834
v -0.044264 -0.057653 0.017834
v -0.047466 -0.045703 0.017834
v -0.043390 -0.051015 0.017834
v -0.059416 -0.048905 0.014335
v -0.060290 -0.055544 0.014335
v -0.054104 -0.044830 0.014335
v -0.056214 -0.060855 0.014335
v -0.049576 -0.061729 0.014335
v -0.047466 -0.045703 0.014335
v -0.044264 -0.057653 0.014335
v -0.043390 -0.051015 0.014335
v -0.054000 0.025200 0.072000
v -0.054000 0.036000 0.072000
v -0.108000 0.025200 0.036000
v -0.108000 0.036000 0.036000
v -0.108000 0.025200 0.000000
v -0.108000 0.036000 0.000000
v -0.054000 0.025200 0.000000
v -0.054000 0.036000 0.000000
v -0.072000 0.025200 0.072000
v -0.072000 0.036000 0.072000
v -0.054000 -0.036000 0.072000
v -0.054000 -0.025200 0.072000
v -0.108000 -0.036000 0.036000
v -0.108000 -0.025200 0.036000
v -0.108000 -0.036000 0.000000
v -0.108000 -0.025200 0.000000
v -0.054000 -0.036000 0.000000
v -0.054000 -0.025200 0.000000
v -0.072000 -0.036000 0.072000
v -0.072000 -0.025200 0.072000
v 0.054000 0.025200 0.072000
v 0.054000 0.036000 0.072000
v 0.108000 0.025200 0.036000
v 0.108000 0.036000 0.036000
v 0.108000 0.025200 0.000000
v 0.108000 0.036000 0.000000
v 0.054000 0.025200 0.000000
v 0.054000 0.036000 0.000000
v 0.072000 0.025200 0.072000
v 0.072000 0.036000 0.072000
v 0.054000 -0.036000 0.072000
v 0.054000 -0.025200 0.072000
v 0.108000 -0.036000 0.036000
v 0.108000 -0.025200 0.036000
v 0.108000 -0.036000 0.000000
v 0.108000 -0.025200 0.000000
v 0.054000 -0.036000 0.000000
v 0.054000 -0.025200 0.000000
v 0.072000 -0.036000 0.072000
v 0.072000 -0.025200 0.072000
v -0.021600 -0.037412 0.050400
v -0.037412 -0.021600 0.050400
v -0.043200 -0.000000 0.050400
v -0.037412 0.021600 0.050400
v -0.021600 0.037412 0.050400
v 0.000000 -0.043200 0.050400
v 0.037412 -0.021600 0.050400
v 0.021600 -0.037412 0.050400
v 0.000000 0.043200 0.050400
v 0.043200 0.000000 0.050400
v 0.021600 0.037412 0.050400
v 0.037412 0.021600 0.050400
v 0.043200 -0.000000 0.057600
v 0.037412 -0.021600 0.057600
v -0.021600 0.037412 0.057600
v 0.000000 0.043200 0.057600
v -0.037412 -0.021600 0.057600
v -0.043200 0.000000 0.057600
v 0.000000 -0.043200 0.057600
v -0.021600 -0.037412 0.057600
v -0.037412 0.021600 0.057600
v 0.021600 -0.037412 0.057600
v 0.021600 0.037412 0.057600
v 0.037412 0.021600 0.057600
v 0.043620 -0.050288 0.053834
v 0.043912 -0.056977 0.053834
v 0.048143 -0.045351 0.053834
v 0.048848 -0.061500 0.053834
v 0.055537 -0.061208 0.053834
v 0.060060 -0.056272 0.053834
v 0.054832 -0.045059 0.053834
v 0.059768 -0.049583 0.053834
v 0.043620 -0.050288 0.050335
v 0.043912 -0.056977 0.050335
v 0.048143 -0.045351 0.050335
v 0.048848 -0.061500 0.050335
v 0.055537 -0.061208 0.050335
v 0.054832 -0.045059 0.050335
v 0.060060 -0.056272 0.050335
v 0.059768 -0.049583 0.050335
v 0.045654 0.059466 0.053834
v 0.043092 0.053281 0.053834
v 0.051840 0.062029 0.053834
v 0.045654 0.047095 0.053834
v 0.051840 0.044533 0.053834
v 0.058026 0.047095 0.053834
v 0.058026 0.059466 0.053834
v 0.060588 0.053281 0.053834
v 0.045654 0.059466 0.050335
v 0.043092 0.053281 0.050335
v 0.051840 0.062029 0.050335
v 0.045654 0.047095 0.050335
v 0.051840 0.044533 0.050335
v 0.058026 0.059466 0.050335
v 0.058026 0.047095 0.050335
v 0.060588 0.053281 0.050335
v -0.054832 0.045060 0.053834
v -0.048143 0.045352 0.053834
v -0.059768 0.049583 0.053834
v -0.043619 0.050288 0.053834
v -0.043911 0.056977 0.053834
v -0.048848 0.061501 0.053834
v -0.060060 0.056272 0.053834
v -0.055537 0.061209 0.053834
v -0.054832 0.045060 0.050335
v -0.048143 0.045352 0.050335
v -0.059768 0.049583 0.050335
v -0.043619 0.050288 0.050335
v -0.043911 0.056977 0.050335
v -0.060060 0.056272 0.050335
v -0.048848 0.061501 0.050335
v -0.055537 0.061209 0.050335
v -0.059416 -0.048905 0.053834
v -0.060290 -0.055544 0.053834
v -0.054104 -0.044830 0.053834
v -0.056214 -0.060855 0.053834
v -0.049576 -0.061729 0.053834
v -0.044264 -0.057653 0.053834
v -0.047466 -0.045703 0.053834
v -0.043390 -0.051015 0.053834
v -0.059416 -0.048905 0.050335
v -0.060290 -0.055544 0.050335
v -0.054104 -0.044830 0.050335
v -0.056214 -0.060855 0.050335
v -0.049576 -0.061729 0.050335
v -0.047466 -0.045703 0.050335
v -0.044264 -0.057653 0.050335
v -0.043390 -0.051015 0.050335
vn -0.0000 -0.0000 1.0000
vn 1.0000 -0.0000 -0.0000
vn -0.0000 1.0000 -0.0000
vn -1.0000 -0.0000 -0.0000
vn -0.7071 -0.7071 -0.0000
vn -0.7071 0.7071 -0.0000
vn 0.7071 -0.7071 -0.0000
vn 0.7071 0.7071 -0.0000
vn -0.0000 -1.0000 -0.0000
vn -0.5000 -0.8660 -0.0000
vn -0.8660 -0.5000 -0.0000
vn -0.5000 0.8660 -0.0000
vn -0.8660 0.5000 -0.0000
vn 0.5000 -0.8660 -0.0000
vn 0.8660 -0.5000 -0.0000
vn 0.5000 0.8660 -0.0000
vn 0.8660 0.5000 -0.0000
vn 0.2655 0.7296 0.6303
vn -0.3281 0.7036 0.6303
vn -0.7296 0.2655 0.6303
vn -0.7036 -0.3281 0.6303
vn -0.2655 -0.7296 0.6303
vn 0.3281 -0.7036 0.6303
vn 0.7296 -0.2655 0.6303
vn 0.7036 0.3281 0.6303
vn 0.3420 0.9397 -0.0000
vn 0.9063 0.4226 -0.0000
vn 0.9397 -0.3420 -0.0000
vn -0.4226 0.9063 -0.0000
vn -0.9397 0.3420 -0.0000
vn 0.4226 -0.9063 -0.0000
vn -0.3420 -0.9397 -0.0000
vn -0.9063 -0.4226 -0.0000
vn 0.5490 0.5490 0.6303
vn -0.0000 0.7764 0.6303
vn -0.5490 0.5490 0.6303
vn -0.7764 -0.0000 0.6303
vn -0.5490 -0.5490 0.6303
vn -0.0000 -0.7764 0.6303
vn 0.5490 -0.5490 0.6303
vn 0.7764 -0.0000 0.6303
vn 0.3882 0.6724 0.6303
vn -0.2009 0.7499 0.6303
vn -0.6724 0.3882 0.6303
vn -0.7499 -0.2009 0.6303
vn -0.3882 -0.6724 0.6303
vn 0.2009 -0.7499 0.6303
vn 0.6724 -0.3882 0.6303
vn 0.7499 0.2009 0.6303
vn 0.9659 0.2588 -0.0000
vn -0.2588 0.9659 -0.0000
vn 0.2588 -0.9659 -0.0000
vn -0.9659 -0.2588 -0.0000
vn -0.7071 -0.0000 0.7071
vn 0.7071 -0.0000 0.7071
vt 0.117547 0.070963
vt 0.203125 0.074219
vt 0.123912 0.064598
vt 0.203125 0.064453
vt 0.203125 0.125000
vt 0.123912 0.128254
vt 0.203125 0.074219
vt 0.117547 0.121889
vt 0.203125 0.125000
vt 0.203125 0.064453
vt 0.181641 0.064453
vt 0.181641 0.125000
vt 0.181641 0.074219
vt 0.181641 0.125000
vt 0.181641 0.064453
vt 0.181641 0.074219
vt 0.174838 0.064598
vt 0.203125 0.074219
vt 0.181203 0.070963
vt 0.203125 0.125000
vt 0.203125 0.064453
vt 0.181203 0.121889
vt 0.203125 0.074219
vt 0.174838 0.128254
vt 0.203125 0.125000
vt 0.203125 0.064453
vt 0.181641 0.125000
vt 0.181641 0.064453
vt 0.181641 0.074219
vt 0.181641 0.125000
vt 0.181641 0.064453
vt 0.181641 0.074219
vt 0.173761 0.173725
vt 0.166440 0.173725
vt 0.193752 0.173750
vt 0.183752 0.173750
vt 0.166440 0.173725
vt 0.173752 0.173750
vt 0.173761 0.173725
vt 0.183761 0.173725
vt 0.201082 0.173725
vt 0.193752 0.173750
vt 0.193761 0.173725
vt 0.183761 0.173725
vt 0.183752 0.173750
vt 0.193761 0.173725
vt 0.201082 0.173725
vt 0.173752 0.173750
vt 0.183752 0.170416
vt 0.201808 0.152344
vt 0.201082 0.170392
vt 0.193752 0.170416
vt 0.199128 0.142344
vt 0.173761 0.170392
vt 0.171808 0.169664
vt 0.183761 0.170392
vt 0.181808 0.172344
vt 0.166440 0.170392
vt 0.193752 0.170416
vt 0.164487 0.142344
vt 0.183752 0.170416
vt 0.161808 0.152344
vt 0.183761 0.170392
vt 0.181808 0.132344
vt 0.173761 0.170392
vt 0.171808 0.135023
vt 0.166440 0.170392
vt 0.173752 0.170416
vt 0.164487 0.162344
vt 0.193761 0.170392
vt 0.191808 0.135023
vt 0.193761 0.170392
vt 0.191808 0.169664
vt 0.201082 0.170392
vt 0.173752 0.170416
vt 0.199128 0.162344
vt 0.450919 0.205078
vt 0.453549 0.205078
vt 0.448705 0.199732
vt 0.453549 0.199732
vt 0.453549 0.210424
vt 0.448705 0.210424
vt 0.453549 0.210424
vt 0.443359 0.197518
vt 0.453549 0.205078
vt 0.438014 0.199732
vt 0.453549 0.199732
vt 0.435799 0.205078
vt 0.453549 0.205078
vt 0.443359 0.212638
vt 0.453549 0.205078
vt 0.438014 0.210424
vt 0.453549 0.199732
vt 0.453549 0.210424
vt 0.456573 0.205078
vt 0.456573 0.199732
vt 0.456573 0.210424
vt 0.456573 0.210424
vt 0.456573 0.205078
vt 0.456573 0.199732
vt 0.456573 0.205078
vt 0.456573 0.205078
vt 0.456573 0.199732
vt 0.456573 0.210424
vt 0.450919 0.220703
vt 0.453549 0.220703
vt 0.448705 0.215357
vt 0.453549 0.215357
vt 0.453549 0.226049
vt 0.448705 0.226049
vt 0.453549 0.226049
vt 0.443359 0.213143
vt 0.453549 0.220703
vt 0.438014 0.215357
vt 0.453549 0.215357
vt 0.435799 0.220703
vt 0.453549 0.220703
vt 0.443359 0.228263
vt 0.453549 0.220703
vt 0.438014 0.226049
vt 0.453549 0.215357
vt 0.453549 0.226049
vt 0.456573 0.220703
vt 0.456573 0.215357
vt 0.456573 0.226049
vt 0.456573 0.226049
vt 0.456573 0.220703
vt 0.456573 0.215357
vt 0.456573 0.220703
vt 0.456573 0.220703
vt 0.456573 0.215357
vt 0.456573 0.226049
vt 0.450919 0.205078
vt 0.453549 0.205078
vt 0.448705 0.199732
vt 0.453549 0.199732
vt 0.453549 0.210424
vt 0.448705 0.210424
vt 0.453549 0.210424
vt 0.443359 0.197518
vt 0.453549 0.205078
vt 0.438014 0.199732
vt 0.453549 0.199732
vt 0.435799 0.205078
vt 0.453549 0.205078
vt 0.443359 0.212638
vt 0.453549 0.205078
vt 0.438014 0.210424
vt 0.453549 0.199732
vt 0.453549 0.210424
vt 0.456573 0.205078
vt 0.456573 0.199732
vt 0.456573 0.210424
vt 0.456573 0.210424
vt 0.456573 0.205078
vt 0.456573 0.199732
vt 0.456573 0.205078
vt 0.456573 0.205078
vt 0.456573 0.199732
vt 0.456573 0.210424
vt 0.450919 0.220703
vt 0.453549 0.220703
vt 0.448705 0.215357
vt 0.453549 0.215357
vt 0.453549 0.226049
vt 0.448705 0.226049
vt 0.453549 0.226049
vt 0.443359 0.213143
vt 0.453549 0.220703
vt 0.438014 0.215357
vt 0.453549 0.215357
vt 0.435799 0.220703
vt 0.453549 0.220703
vt 0.443359 0.228263
vt 0.453549 0.220703
vt 0.438014 0.226049
vt 0.453549 0.215357
vt 0.453549 0.226049
vt 0.456573 0.220703
vt 0.456573 0.215357
vt 0.456573 0.226049
vt 0.456573 0.226049
vt 0.456573 0.220703
vt 0.456573 0.215357
vt 0.456573 0.220703
vt 0.456573 0.220703
vt 0.456573 0.215357
vt 0.456573 0.226049
vt 0.880859 0.994141
vt 0.871094 0.994141
vt 0.871094 0.964844
vt 0.880859 0.998047
vt 0.871094 0.998047
vt 0.871094 0.964844
vt 0.894531 0.994141
vt 0.892578 0.978516
vt 0.892578 0.994141
vt 0.894531 0.998047
vt 0.892578 0.978516
vt 0.892578 0.998047
vt 0.908203 0.994141
vt 0.892578 0.992188
vt 0.908203 0.998047
vt 0.892578 0.992188
vt 0.908203 0.994141
vt 0.871094 0.992188
vt 0.908203 0.998047
vt 0.871094 0.992188
vt 0.878906 0.964844
vt 0.878906 0.994141
vt 0.878906 0.964844
vt 0.878906 0.998047
vt 0.880859 0.994141
vt 0.871094 0.994141
vt 0.871094 0.964844
vt 0.880859 0.998047
vt 0.871094 0.998047
vt 0.871094 0.964844
vt 0.894531 0.994141
vt 0.892578 0.978516
vt 0.892578 0.994141
vt 0.894531 0.998047
vt 0.892578 0.978516
vt 0.892578 0.998047
vt 0.908203 0.994141
vt 0.892578 0.992188
vt 0.908203 0.998047
vt 0.892578 0.992188
vt 0.908203 0.994141
vt 0.871094 0.992188
vt 0.908203 0.998047
vt 0.871094 0.992188
vt 0.878906 0.964844
vt 0.878906 0.994141
vt 0.878906 0.964844
vt 0.878906 0.998047
vt 0.880859 0.994141
vt 0.871094 0.994141
vt 0.871094 0.964844
vt 0.880859 0.998047
vt 0.871094 0.998047
vt 0.871094 0.964844
vt 0.894531 0.994141
vt 0.892578 0.978516
vt 0.892578 0.994141
vt 0.894531 0.998047
vt 0.892578 0.978516
vt 0.892578 0.998047
vt 0.908203 0.994141
vt 0.892578 0.992188
vt 0.908203 0.998047
vt 0.892578 0.992188
vt 0.908203 0.994141
vt 0.871094 0.992188
vt 0.908203 0.998047
vt 0.871094 0.992188
vt 0.878906 0.964844
vt 0.878906 0.994141
vt 0.878906 0.964844
vt 0.878906 0.998047
vt 0.880859 0.994141
vt 0.871094 0.994141
vt 0.871094 0.964844
vt 0.880859 0.998047
vt 0.871094 0.998047
vt 0.871094 0.964844
vt 0.894531 0.994141
vt 0.892578 0.978516
vt 0.892578 0.994141
vt 0.894531 0.998047
vt 0.892578 0.978516
vt 0.892578 0.998047
vt 0.908203 0.994141
vt 0.892578 0.992188
vt 0.908203 0.998047
vt 0.892578 0.992188
vt 0.908203 0.994141
vt 0.871094 0.992188
vt 0.908203 0.998047
vt 0.871094 0.992188
vt 0.878906 0.964844
vt 0.878906 0.994141
vt 0.878906 0.964844
vt 0.878906 0.998047
vt 0.128839 0.173725
vt 0.121519 0.173725
vt 0.148830 0.173750
vt 0.138830 0.173750
vt 0.121519 0.173725
vt 0.128830 0.173750
vt 0.128839 0.173725
vt 0.138839 0.173725
vt 0.156160 0.173725
vt 0.148830 0.173750
vt 0.148839 0.173725
vt 0.138839 0.173725
vt 0.138830 0.173750
vt 0.148839 0.173725
vt 0.156160 0.173725
vt 0.128830 0.173750
vt 0.138830 0.170416
vt 0.156886 0.152344
vt 0.156160 0.170392
vt 0.148830 0.170416
vt 0.154207 0.142344
vt 0.128839 0.170392
vt 0.126886 0.169664
vt 0.138839 0.170392
vt 0.136886 0.172344
vt 0.121519 0.170392
vt 0.148830 0.170416
vt 0.119565 0.142344
vt 0.138830 0.170416
vt 0.116886 0.152344
vt 0.138839 0.170392
vt 0.136886 0.132344
vt 0.128839 0.170392
vt 0.126886 0.135023
vt 0.121519 0.170392
vt 0.128830 0.170416
vt 0.119565 0.162344
vt 0.148839 0.170392
vt 0.146886 0.135023
vt 0.148839 0.170392
vt 0.146886 0.169664
vt 0.156160 0.170392
vt 0.128830 0.170416
vt 0.154207 0.162344
vt 0.450919 0.205078
vt 0.453549 0.205078
vt 0.448705 0.199732
vt 0.453549 0.199732
vt 0.453549 0.210424
vt 0.448705 0.210424
vt 0.453549 0.210424
vt 0.443359 0.197518
vt 0.453549 0.205078
vt 0.438014 0.199732
vt 0.453549 0.199732
vt 0.435799 0.205078
vt 0.453549 0.205078
vt 0.443359 0.212638
vt 0.453549 0.205078
vt 0.438014 0.210424
vt 0.453549 0.199732
vt 0.453549 0.210424
vt 0.456573 0.205078
vt 0.456573 0.199732
vt 0.456573 0.210424
vt 0.456573 0.210424
vt 0.456573 0.205078
vt 0.456573 0.199732
vt 0.456573 0.205078
vt 0.456573 0.205078
vt 0.456573 0.199732
vt 0.456573 0.210424
vt 0.450919 0.220703
vt 0.453549 0.220703
vt 0.448705 0.215357
vt 0.453549 0.215357
vt 0.453549 0.226049
vt 0.448705 0.226049
vt 0.453549 0.226049
vt 0.443359 0.213143
vt 0.453549 0.220703
vt 0.438014 0.215357
vt 0.453549 0.215357
vt 0.435799 0.220703
vt 0.453549 0.220703
vt 0.443359 0.228263
vt 0.453549 0.220703
vt 0.438014 0.226049
vt 0.453549 0.215357
vt 0.453549 0.226049
vt 0.456573 0.220703
vt 0.456573 0.215357
vt 0.456573 0.226049
vt 0.456573 0.226049
vt 0.456573 0.220703
vt 0.456573 0.215357
vt 0.456573 0.220703
vt 0.456573 0.220703
vt 0.456573 0.215357
vt 0.456573 0.226049
vt 0.450919 0.205078
vt 0.453549 0.205078
vt 0.448705 0.199732
vt 0.453549 0.199732
vt 0.453549 0.210424
vt 0.448705 0.210424
vt 0.453549 0.210424
vt 0.443359 0.197518
vt 0.453549 0.205078
vt 0.438014 0.199732
vt 0.453549 0.199732
vt 0.435799 0.205078
vt 0.453549 0.205078
vt 0.443359 0.212638
vt 0.453549 0.205078
vt 0.438014 0.210424
vt 0.453549 0.199732
vt 0.453549 0.210424
vt 0.456573 0.205078
vt 0.456573 0.199732
vt 0.456573 0.210424
vt 0.456573 0.210424
vt 0.456573 0.205078
vt 0.456573 0.199732
vt 0.456573 0.205078
vt 0.456573 0.205078
vt 0.456573 0.199732
vt 0.456573 0.210424
vt 0.450919 0.220703
vt 0.453549 0.220703
vt 0.448705 0.215357
vt 0.453549 0.215357
vt 0.453549 0.226049
vt 0.448705 0.226049
vt 0.453549 0.226049
vt 0.443359 0.213143
vt 0.453549 0.220703
vt 0.438014 0.215357
vt 0.453549 0.215357
vt 0.435799 0.220703
vt 0.453549 0.220703
vt 0.443359 0.228263
vt 0.453549 0.220703
vt 0.438014 0.226049
vt 0.453549 0.215357
vt 0.453549 0.226049
vt 0.456573 0.220703
vt 0.456573 0.215357
vt 0.456573 0.226049
vt 0.456573 0.226049
vt 0.456573 0.220703
vt 0.456573 0.215357
vt 0.456573 0.220703
vt 0.456573 0.220703
vt 0.456573 0.215357
vt 0.456573 0.226049
s 0
usemtl electronics_etx_part_1
f 9/17/1 10/19/1 11/22/1 12/24/1 3/6/1 4/8/1 1/1/1 2/3/1
f 13/27/2 16/32/2 11/23/2 10/20/2
f 15/30/3 8/16/3 3/7/3 12/25/3
f 1/2/4 4/9/4 7/14/4 6/13/4
f 5/11/5 2/4/5 1/2/5 6/13/5
f 3/7/6 8/16/6 7/15/6 4/10/6
f 9/18/7 14/29/7 13/28/7 10/21/7
f 15/31/8 12/26/8 11/23/8 16/32/8
f 5/12/9 14/29/9 9/18/9 2/5/9
s 1
f 22/40/9 35/63/9 36/65/10 17/33/10
f 17/33/10 36/65/10 33/58/11 18/34/11
f 18/35/11 33/59/11 34/61/4 19/36/4
f 32/56/3 25/44/3 21/39/12 31/54/12
f 31/54/12 21/39/12 20/37/13 37/67/13
f 37/68/13 20/38/13 19/36/4 34/61/4
f 35/63/9 22/40/9 24/43/14 38/70/14
f 38/70/14 24/43/14 23/41/15 30/51/15
f 30/52/15 23/42/15 26/45/2 29/49/2
f 25/44/3 32/56/3 39/72/16 27/46/16
f 27/46/16 39/72/16 40/74/17 28/47/17
f 28/48/17 40/75/17 29/49/2 26/45/2
f 39/73/1 32/57/1 31/55/1 37/69/1 34/62/1 33/60/1 36/66/1 35/64/1 38/71/1 30/53/1 29/50/1 40/76/1
f 47/90/18 43/82/19 41/77/20 42/79/21 44/84/22 45/86/23 46/88/24 48/92/25
f 54/101/26 47/91/18 48/93/25 56/103/27
f 56/104/27 48/94/25 46/89/24 55/102/28
f 47/91/18 54/101/26 51/98/29 43/83/19
f 43/83/19 51/98/29 49/95/30 41/78/20
f 55/102/28 46/89/24 45/87/23 53/100/31
f 53/100/31 45/87/23 44/85/22 52/99/32
f 41/78/20 49/95/30 50/96/33 42/80/21
f 42/81/21 50/97/33 52/99/32 44/85/22
f 63/118/34 59/110/35 57/105/36 58/107/37 60/112/38 61/114/39 62/116/40 64/120/41
f 70/129/8 63/119/34 64/121/41 72/131/2
f 72/132/2 64/122/41 62/117/40 71/130/7
f 63/119/34 70/129/8 67/126/3 59/111/35
f 59/111/35 67/126/3 65/123/6 57/106/36
f 71/130/7 62/117/40 61/115/39 69/128/9
f 69/128/9 61/115/39 60/113/38 68/127/5
f 57/106/36 65/123/6 66/124/4 58/108/37
f 58/109/37 66/125/4 68/127/5 60/113/38
f 79/146/20 75/138/21 73/133/22 74/135/23 76/140/24 77/142/25 78/144/18 80/148/19
f 86/157/30 79/147/20 80/149/19 88/159/29
f 88/160/29 80/150/19 78/145/18 87/158/26
f 79/147/20 86/157/30 83/154/33 75/139/21
f 75/139/21 83/154/33 81/151/32 73/134/22
f 87/158/26 78/145/18 77/143/25 85/156/27
f 85/156/27 77/143/25 76/141/24 84/155/28
f 73/134/22 81/151/32 82/152/31 74/136/23
f 74/137/23 82/153/31 84/155/28 76/141/24
f 95/174/42 91/166/43 89/161/44 90/163/45 92/168/46 93/170/47 94/172/48 96/176/49
f 102/185/16 95/175/42 96/177/49 104/187/50
f 104/188/50 96/178/49 94/173/48 103/186/15
f 95/175/42 102/185/16 99/182/51 91/167/43
f 91/167/43 99/182/51 97/179/13 89/162/44
f 103/186/15 94/173/48 93/171/47 101/184/52
f 101/184/52 93/171/47 92/169/46 100/183/10
f 89/162/44 97/179/13 98/180/53 90/164/45
f 90/165/45 98/181/53 100/183/10 92/169/46
s 0
f 105/189/2 111/205/2 112/207/2 106/192/2
f 109/201/4 107/195/4 108/198/4 110/203/4
f 113/210/1 105/190/1 106/193/1 114/212/1
f 111/206/9 113/209/9 107/196/9 109/202/9
f 112/208/3 114/211/3 106/194/3
f 110/204/3 108/199/3 114/211/3 112/208/3
f 111/206/9 105/191/9 113/209/9
f 107/197/54 113/210/54 114/212/54 108/200/54
f 115/213/2 121/229/2 122/231/2 116/216/2
f 119/225/4 117/219/4 118/222/4 120/227/4
f 123/234/1 115/214/1 116/217/1 124/236/1
f 121/230/9 123/233/9 117/220/9 119/226/9
f 122/232/3 124/235/3 116/218/3
f 120/228/3 118/223/3 124/235/3 122/232/3
f 121/230/9 115/215/9 123/233/9
f 117/221/54 123/234/54 124/236/54 118/224/54
f 125/237/4 126/240/4 132/255/4 131/253/4
f 129/249/2 130/251/2 128/246/2 127/243/2
f 133/258/1 134/260/1 126/241/1 125/238/1
f 131/254/9 129/250/9 127/244/9 133/257/9
f 132/256/3 126/242/3 134/259/3
f 130/252/3 132/256/3 134/259/3 128/247/3
f 131/254/9 133/257/9 125/239/9
f 127/245/55 128/248/55 134/260/55 133/258/55
f 135/261/4 136/264/4 142/279/4 141/277/4
f 139/273/2 140/275/2 138/270/2 137/267/2
f 143/282/1 144/284/1 136/265/1 135/262/1
f 141/278/9 139/274/9 137/268/9 143/281/9
f 142/280/3 136/266/3 144/283/3
f 140/276/3 142/280/3 144/283/3 138/271/3
f 141/278/9 143/281/9 135/263/9
f 137/269/55 138/272/55 144/284/55 143/282/55
s 1
f 150/292/9 163/315/9 164/317/10 145/285/10
f 145/285/10 164/317/10 161/310/11 146/286/11
f 146/287/11 161/311/11 162/313/4 147/288/4
f 160/308/3 153/296/3 149/291/12 159/306/12
f 159/306/12 149/291/12 148/289/13 165/319/13
f 165/320/13 148/290/13 147/288/4 162/313/4
f 163/315/9 150/292/9 152/295/14 166/322/14
f 166/322/14 152/295/14 151/293/15 158/303/15
f 158/304/15 151/294/15 154/297/2 157/301/2
f 153/296/3 160/308/3 167/324/16 155/298/16
f 155/298/16 167/324/16 168/326/17 156/299/17
f 156/300/17 168/327/17 157/301/2 154/297/2
f 167/325/1 160/309/1 159/307/1 165/321/1 162/314/1 161/312/1 164/318/1 163/316/1 166/323/1 158/305/1 157/302/1 168/328/1
f 175/342/18 171/334/19 169/329/20 170/331/21 172/336/22 173/338/23 174/340/24 176/344/25
f 182/353/26 175/343/18 176/345/25 184/355/27
f 184/356/27 176/346/25 174/341/24 183/354/28
f 175/343/18 182/353/26 179/350/29 171/335/19
f 171/335/19 179/350/29 177/347/30 169/330/20
f 183/354/28 174/341/24 173/339/23 181/352/31
f 181/352/31 173/339/23 172/337/22 180/351/32
f 169/330/20 177/347/30 178/348/33 170/332/21
f 170/333/21 178/349/33 180/351/32 172/337/22
f 191/370/34 187/362/35 185/357/36 186/359/37 188/364/38 189/366/39 190/368/40 192/372/41
f 198/381/8 191/371/34 192/373/41 200/383/2
f 200/384/2 192/374/41 190/369/40 199/382/7
f 191/371/34 198/381/8 195/378/3 187/363/35
f 187/363/35 195/378/3 193/375/6 185/358/36
f 199/382/7 190/369/40 189/367/39 197/380/9
f 197/380/9 189/367/39 188/365/38 196/379/5
f 185/358/36 193/375/6 194/376/4 186/360/37
f 186/361/37 194/377/4 196/379/5 188/365/38
f 207/398/20 203/390/21 201/385/22 202/387/23 204/392/24 205/394/25 206/396/18 208/400/19
f 214/409/30 207/399/20 208/401/19 216/411/29
f 216/412/29 208/402/19 206/397/18 215/410/26
f 207/399/20 214/409/30 211/406/33 203/391/21
f 203/391/21 211/406/33 209/403/32 201/386/22
f 215/410/26 206/397/18 205/395/25 213/408/27
f 213/408/27 205/395/25 204/393/24 212/407/28
f 201/386/22 209/403/32 210/404/31 202/388/23
f 202/389/23 210/405/31 212/407/28 204/393/24
f 223/426/42 219/418/43 217/413/44 218/415/45 220/420/46 221/422/47 222/424/48 224/428/49
f 230/437/16 223/427/42 224/429/49 232/439/50
f 232/440/50 224/430/49 222/425/48 231/438/15
f 223/427/42 230/437/16 227/434/51 219/419/43
f 219/419/43 227/434/51 225/431/13 217/414/44
f 231/438/15 222/425/48 221/423/47 229/436/52
f 229/436/52 221/423/47 220/421/46 228/435/10
f 217/414/44 225/431/13 226/432/53 218/416/45
f 218/417/45 226/433/53 228/435/10 220/421/46
o button_etx_black_2_child
v 0.035746 -0.000000 0.057600
v 0.020838 -0.000000 0.072000
v 0.033749 -0.000000 0.064800
v 0.028292 -0.000000 0.070071
v 0.018046 -0.010419 0.072000
v 0.030957 -0.017873 0.057600
v 0.024502 -0.014146 0.070071
v 0.029227 -0.016874 0.064800
v -0.017873 0.030957 0.057600
v -0.010419 0.018046 0.072000
v -0.016874 0.029227 0.064800
v -0.014146 0.024501 0.070071
v 0.000000 0.020838 0.072000
v 0.000000 0.035746 0.057600
v 0.000000 0.028292 0.070071
v 0.000000 0.033749 0.064800
v -0.030957 -0.017873 0.057600
v -0.018046 -0.010419 0.072000
v -0.029227 -0.016874 0.064800
v -0.024502 -0.014146 0.070071
v -0.020838 -0.000000 0.072000
v -0.035746 -0.000000 0.057600
v -0.028292 -0.000000 0.070071
v -0.033749 -0.000000 0.064800
v 0.000000 -0.035746 0.057600
v 0.000000 -0.020838 0.072000
v 0.000000 -0.033749 0.064800
v 0.000000 -0.028292 0.070071
v -0.010419 -0.018046 0.072000
v -0.017873 -0.030957 0.057600
v -0.014146 -0.024502 0.070071
v -0.016874 -0.029227 0.064800
v -0.030957 0.017873 0.057600
v -0.018046 0.010419 0.072000
v -0.029227 0.016874 0.064800
v -0.024502 0.014146 0.070071
v 0.017873 -0.030957 0.057600
v 0.010419 -0.018046 0.072000
v 0.016874 -0.029227 0.064800
v 0.014146 -0.024502 0.070071
v 0.010419 0.018046 0.072000
v 0.017873 0.030957 0.057600
v 0.014146 0.024501 0.070071
v 0.016874 0.029227 0.064800
v 0.018046 0.010419 0.072000
v 0.030957 0.017873 0.057600
v 0.024502 0.014146 0.070071
v 0.029227 0.016874 0.064800
v 0.000000 -0.000000 0.072000
vn -0.0000 -0.0000 1.0000
vn 0.1469 -0.0000 0.9892
vn 0.1272 0.0734 0.9892
vn 0.1272 -0.0734 0.9892
vn 0.4500 -0.2598 0.8544
vn 0.5197 -0.0000 0.8544
vn 0.7534 -0.4350 0.4931
vn 0.8700 -0.0000 0.4931
vn 0.8345 -0.4818 0.2673
vn 0.9636 -0.0000 0.2673
vn -0.0734 0.1272 0.9892
vn -0.0000 0.1469 0.9892
vn -0.0000 0.5197 0.8544
vn -0.2598 0.4500 0.8544
vn -0.0000 0.8700 0.4931
vn -0.4350 0.7534 0.4931
vn -0.0000 0.9636 0.2673
vn -0.4818 0.8345 0.2673
vn -0.1272 -0.0734 0.9892
vn -0.1469 -0.0000 0.9892
vn -0.5197 -0.0000 0.8544
vn -0.4500 -0.2598 0.8544
vn -0.8700 -0.0000 0.4931
vn -0.7534 -0.4350 0.4931
vn -0.9636 -0.0000 0.2673
vn -0.8345 -0.4818 0.2673
vn -0.0000 -0.1469 0.9892
vn -0.0734 -0.1272 0.9892
vn -0.2598 -0.4500 0.8544
vn -0.0000 -0.5197 0.8544
vn -0.4350 -0.7534 0.4931
vn -0.0000 -0.8700 0.4931
vn -0.4818 -0.8345 0.2673
vn -0.0000 -0.9636 0.2673
vn -0.1272 0.0734 0.9892
vn -0.4500 0.2598 0.8544
vn -0.7534 0.4350 0.4931
vn -0.8345 0.4818 0.2673
vn 0.0734 -0.1272 0.9892
vn 0.2598 -0.4500 0.8544
vn 0.4350 -0.7534 0.4931
vn 0.4818 -0.8345 0.2673
vn 0.0734 0.1272 0.9892
vn 0.2598 0.4500 0.8544
vn 0.4350 0.7534 0.4931
vn 0.4818 0.8345 0.2673
vn 0.4500 0.2598 0.8544
vn 0.7534 0.4350 0.4931
vn 0.8345 0.4818 0.2673
vt 0.166086 0.404820
vt 0.178624 0.377986
vt 0.184602 0.377986
vt 0.166086 0.401486
vt 0.182075 0.377986
vt 0.177332 0.373162
vt 0.174360 0.404820
vt 0.180321 0.371437
vt 0.182508 0.370174
vt 0.173898 0.401486
vt 0.160703 0.404846
vt 0.164154 0.386341
vt 0.161165 0.391517
vt 0.161165 0.401513
vt 0.162428 0.389329
vt 0.168977 0.387633
vt 0.168977 0.404846
vt 0.168977 0.391084
vt 0.168977 0.393610
vt 0.168977 0.401513
vt 0.174360 0.404820
vt 0.154645 0.404846
vt 0.160622 0.373162
vt 0.173898 0.401486
vt 0.155446 0.370174
vt 0.155446 0.401513
vt 0.157634 0.371437
vt 0.159330 0.377986
vt 0.166086 0.404820
vt 0.155879 0.377986
vt 0.153353 0.377986
vt 0.166086 0.401486
vt 0.168977 0.404846
vt 0.168977 0.368339
vt 0.168977 0.362361
vt 0.168977 0.401513
vt 0.168977 0.364888
vt 0.164154 0.369631
vt 0.160703 0.404846
vt 0.162428 0.366643
vt 0.161165 0.364455
vt 0.161165 0.401513
vt 0.154645 0.404846
vt 0.157811 0.404820
vt 0.160622 0.382809
vt 0.155446 0.401513
vt 0.155446 0.385798
vt 0.158274 0.401486
vt 0.157634 0.384535
vt 0.177252 0.404846
vt 0.180418 0.404820
vt 0.173801 0.369631
vt 0.176789 0.401513
vt 0.176789 0.364455
vt 0.179617 0.401486
vt 0.175526 0.366643
vt 0.173801 0.386341
vt 0.177252 0.404846
vt 0.175526 0.389329
vt 0.176789 0.391517
vt 0.176789 0.401513
vt 0.177332 0.382809
vt 0.183309 0.404846
vt 0.157811 0.404820
vt 0.180321 0.384535
vt 0.182508 0.401513
vt 0.182508 0.385798
vt 0.158274 0.401486
vt 0.168977 0.377986
s 1
usemtl electronics_etx_part_1
f 281/509/56 234/442/57 277/502/58
f 234/442/57 237/446/59 239/448/60 236/445/61
f 236/445/61 239/448/60 240/449/62 235/443/63
f 235/444/63 240/450/62 238/447/64 233/441/65
f 242/452/66 245/456/67 247/458/68 244/455/69
f 244/455/69 247/458/68 248/459/70 243/453/71
f 243/454/71 248/460/70 246/457/72 241/451/73
f 250/463/74 253/468/75 255/470/76 252/467/77
f 252/467/77 255/470/76 256/471/78 251/465/79
f 251/464/79 256/472/78 254/469/80 249/461/81
f 258/474/82 261/478/83 263/480/84 260/477/85
f 260/477/85 263/480/84 264/481/86 259/475/87
f 259/476/87 264/482/86 262/479/88 257/473/89
f 261/478/83 250/463/74 252/467/77 263/480/84
f 263/480/84 252/467/77 251/465/79 264/481/86
f 264/482/86 251/466/79 249/462/81 262/479/88
f 266/485/90 242/452/66 244/455/69 268/489/91
f 268/489/91 244/455/69 243/453/71 267/487/92
f 267/486/92 243/454/71 241/451/73 265/483/93
f 253/468/75 266/485/90 268/489/91 255/470/76
f 255/470/76 268/489/91 267/487/92 256/471/78
f 256/472/78 267/488/92 265/484/93 254/469/80
f 270/492/94 258/474/82 260/477/85 272/496/95
f 272/496/95 260/477/85 259/475/87 271/494/96
f 271/493/96 259/476/87 257/473/89 269/490/97
f 237/446/59 270/492/94 272/496/95 239/448/60
f 239/448/60 272/496/95 271/494/96 240/449/62
f 240/450/62 271/495/96 269/491/97 238/447/64
f 245/456/67 273/497/98 275/499/99 247/458/68
f 247/458/68 275/499/99 276/500/100 248/459/70
f 248/460/70 276/501/100 274/498/101 246/457/72
f 273/497/98 277/502/58 279/505/102 275/499/99
f 275/499/99 279/505/102 280/507/103 276/500/100
f 276/501/100 280/506/103 278/503/104 274/498/101
f 277/502/58 234/442/57 236/445/61 279/505/102
f 279/505/102 236/445/61 235/443/63 280/507/103
f 280/508/103 235/444/63 233/441/65 278/504/104
f 281/509/56 245/456/67 242/452/66
f 250/463/74 281/509/56 253/468/75
f 281/509/56 237/446/59 234/442/57
f 253/468/75 281/509/56 266/485/90
f 270/492/94 237/446/59 281/509/56
f 281/509/56 277/502/58 273/497/98
f 261/478/83 258/474/82 281/509/56
f 258/474/82 270/492/94 281/509/56
f 266/485/90 281/509/56 242/452/66
f 245/456/67 281/509/56 273/497/98
f 250/463/74 261/478/83 281/509/56
