# Blender 3.4.0
# www.blender.org
mtllib control_panel_etx_1.mtl
o control_panel_etx_1
v -0.198000 0.792000 -0.128700
v -0.297000 1.188000 -0.188100
v 0.198000 0.792000 -0.128700
v 0.297000 1.188000 -0.188100
v 0.277200 0.970200 0.207900
v -0.198000 0.792000 0.148500
v -0.297000 0.990000 0.207900
v 0.297000 0.990000 0.207900
v 0.198000 0.792000 0.148500
v 0.247500 1.148153 -0.152681
v 0.247500 0.994428 0.154771
v -0.267300 1.003282 0.181335
v -0.247500 0.994428 0.154771
v -0.247500 1.148153 -0.152681
v -0.267300 1.174718 -0.161536
v 0.267300 1.003282 0.181335
v 0.267300 1.174718 -0.161536
v -0.277200 0.811800 0.207900
v -0.267300 0.821700 0.217800
v -0.267300 0.960300 0.217800
v -0.277200 0.970200 0.207900
v 0.267300 0.960300 0.217800
v 0.267300 0.821700 0.217800
v 0.277200 0.811800 0.207900
v -0.297000 0.792000 -0.188100
v -0.297000 0.792000 0.207900
v 0.297000 0.792000 0.207900
v 0.297000 0.792000 -0.188100
v -0.118800 0.000000 -0.128700
v -0.118800 0.000000 0.069300
v 0.118800 0.000000 0.069300
v 0.118800 0.000000 -0.128700
v 0.302940 0.831600 0.178200
v 0.302940 0.821700 0.168300
v 0.302940 0.960300 0.168300
v 0.302940 0.950400 0.178200
v 0.297000 0.821700 0.168300
v 0.297000 0.831600 0.178200
v 0.297000 0.950400 0.178200
v 0.297000 0.960300 0.168300
v 0.302940 0.821700 -0.148500
v 0.302940 0.831600 -0.158400
v 0.302940 0.950400 -0.158400
v 0.302940 0.960300 -0.148500
v 0.297000 0.831600 -0.158400
v 0.297000 0.821700 -0.148500
v 0.297000 0.960300 -0.148500
v 0.297000 0.950400 -0.158400
v 0.312840 0.831600 0.158400
v 0.302940 0.831600 0.168300
v 0.302940 0.851400 0.168300
v 0.312840 0.831600 -0.138600
v 0.302940 0.831600 -0.148500
v 0.312840 0.930600 0.158400
v 0.302940 0.930600 0.168300
v 0.302940 0.950400 0.168300
v 0.312840 0.930600 -0.138600
v 0.302940 0.930600 -0.148500
v 0.302940 0.950400 -0.148500
v 0.312840 0.910800 0.158400
v 0.302940 0.910800 0.168300
v 0.312840 0.910800 -0.138600
v 0.312840 0.891000 0.158400
v 0.302940 0.891000 0.168300
v 0.312840 0.891000 -0.138600
v 0.302940 0.910800 -0.148500
v 0.312840 0.871200 0.158400
v 0.312840 0.871200 -0.138600
v 0.302940 0.891000 -0.148500
v 0.312840 0.851400 0.158400
v 0.302940 0.871200 0.168300
v 0.312840 0.851400 -0.138600
v 0.302940 0.851400 -0.148500
v 0.302940 0.871200 -0.148500
v -0.302940 0.831600 -0.158400
v -0.302940 0.821700 -0.148500
v -0.302940 0.960300 -0.148500
v -0.302940 0.950400 -0.158400
v -0.297000 0.821700 -0.148500
v -0.297000 0.831600 -0.158400
v -0.297000 0.950400 -0.158400
v -0.297000 0.960300 -0.148500
v -0.302940 0.821700 0.168300
v -0.302940 0.831600 0.178200
v -0.302940 0.950400 0.178200
v -0.302940 0.960300 0.168300
v -0.297000 0.831600 0.178200
v -0.297000 0.821700 0.168300
v -0.297000 0.960300 0.168300
v -0.297000 0.950400 0.178200
v -0.312840 0.831600 -0.138600
v -0.302940 0.831600 -0.148500
v -0.302940 0.851400 -0.148500
v -0.312840 0.831600 0.158400
v -0.302940 0.831600 0.168300
v -0.312840 0.930600 -0.138600
v -0.302940 0.930600 -0.148500
v -0.302940 0.950400 -0.148500
v -0.312840 0.930600 0.158400
v -0.302940 0.930600 0.168300
v -0.302940 0.950400 0.168300
v -0.312840 0.910800 -0.138600
v -0.302940 0.910800 -0.148500
v -0.312840 0.910800 0.158400
v -0.312840 0.891000 -0.138600
v -0.302940 0.891000 -0.148500
v -0.312840 0.891000 0.158400
v -0.302940 0.910800 0.168300
v -0.312840 0.871200 -0.138600
v -0.312840 0.871200 0.158400
v -0.302940 0.891000 0.168300
v -0.312840 0.851400 -0.138600
v -0.302940 0.871200 -0.148500
v -0.312840 0.851400 0.158400
v -0.302940 0.851400 0.168300
v -0.302940 0.871200 0.168300
v -0.247208 0.903114 0.223047
v -0.254119 0.895572 0.223047
v -0.236989 0.903560 0.223047
v -0.253673 0.885352 0.223047
v -0.246131 0.878442 0.223047
v -0.235912 0.878888 0.223047
v -0.229447 0.896649 0.223047
v -0.229001 0.886430 0.223047
v -0.247208 0.903114 0.217701
v -0.254119 0.895572 0.217701
v -0.236989 0.903560 0.217701
v -0.253673 0.885352 0.217701
v -0.246131 0.878442 0.217701
v -0.229447 0.896649 0.217701
v -0.235912 0.878888 0.217701
v -0.229001 0.886430 0.217701
v 0.236121 0.903910 0.223047
v 0.228006 0.897683 0.223047
v 0.246263 0.902575 0.223047
v 0.226671 0.887542 0.223047
v 0.232898 0.879426 0.223047
v 0.243039 0.878091 0.223047
v 0.252490 0.894460 0.223047
v 0.251155 0.884318 0.223047
v 0.236121 0.903910 0.217701
v 0.228006 0.897683 0.217701
v 0.246263 0.902575 0.217701
v 0.226671 0.887542 0.217701
v 0.232898 0.879426 0.217701
v 0.252490 0.894460 0.217701
v 0.243039 0.878091 0.217701
v 0.251155 0.884318 0.217701
v -0.182160 1.028814 0.120474
v -0.174240 1.025260 0.109852
v -0.174240 1.131276 -0.102784
v -0.182160 1.141898 -0.106338
v 0.174240 1.025260 0.109852
v 0.182160 1.028814 0.120474
v 0.182160 1.141898 -0.106338
v 0.174240 1.131276 -0.102784
v -0.182160 0.996969 0.148845
v -0.221760 1.014638 0.113406
v -0.201960 0.999336 0.144097
v -0.216455 1.005803 0.131126
v -0.221760 1.127722 -0.113406
v -0.182160 1.145392 -0.148846
v -0.216455 1.136557 -0.131126
v -0.201960 1.143024 -0.144098
v 0.221760 1.014638 0.113406
v 0.182160 0.996969 0.148845
v 0.216455 1.005803 0.131126
v 0.201960 0.999336 0.144097
v 0.182160 1.145392 -0.148846
v 0.221760 1.127722 -0.113406
v 0.201960 1.143024 -0.144098
v 0.216455 1.136557 -0.131126
v -0.221760 1.028814 0.120474
v -0.182160 1.011144 0.155913
v -0.216455 1.019979 0.138194
v -0.201960 1.013511 0.151165
v -0.182160 1.159567 -0.141778
v -0.221760 1.141898 -0.106338
v -0.201960 1.157200 -0.137030
v -0.216455 1.150733 -0.124058
v 0.221760 1.141898 -0.106338
v 0.182160 1.159567 -0.141778
v 0.216455 1.150733 -0.124058
v 0.201960 1.157200 -0.137030
v 0.182160 1.011144 0.155913
v 0.221760 1.028814 0.120474
v 0.201960 1.013511 0.151165
v 0.216455 1.019979 0.138194
v 0.014001 0.839000 0.218000
v 0.224001 0.943000 0.218000
v 0.014001 0.943000 0.218000
v 0.216801 0.846200 0.232000
v 0.021201 0.846200 0.232000
v 0.224001 0.839000 0.218000
v 0.216801 0.935800 0.232000
v 0.021201 0.935800 0.232000
v 0.224001 0.839000 0.232000
v 0.014001 0.839000 0.232000
v 0.014001 0.943000 0.232000
v 0.224001 0.943000 0.232000
v 0.216801 0.846200 0.223000
v 0.021201 0.846200 0.223000
v 0.021201 0.935800 0.223000
v 0.216801 0.935800 0.223000
vn -1.0000 -0.0000 -0.0000
vn 1.0000 -0.0000 -0.0000
vn -0.9950 -0.0995 -0.0000
vn -0.0000 -0.0000 -1.0000
vn -0.0000 0.8944 0.4472
vn -0.0000 -0.0000 1.0000
vn 0.7071 0.6325 0.3162
vn -0.0000 0.3162 0.9487
vn -0.7071 0.6325 0.3162
vn -0.0000 0.9487 -0.3162
vn -0.7071 -0.0000 0.7071
vn 0.7071 -0.0000 0.7071
vn -0.0000 -0.7071 0.7071
vn -0.0000 0.7071 0.7071
vn -0.0000 -1.0000 -0.0000
vn 0.9950 -0.0995 -0.0000
vn -0.0000 -0.0995 0.9950
vn -0.0000 1.0000 -0.0000
vn -0.0000 -0.7071 -0.7071
vn -0.0000 0.7071 -0.7071
vn 0.7071 -0.0000 -0.7071
vn 0.8944 0.4472 -0.0000
vn -0.7071 -0.0000 -0.7071
vn -0.8944 0.4472 -0.0000
vn 0.7036 0.3281 0.6303
vn 0.2655 0.7296 0.6303
vn -0.3281 0.7036 0.6303
vn -0.7296 0.2655 0.6303
vn -0.7036 -0.3281 0.6303
vn -0.2655 -0.7296 0.6303
vn 0.3281 -0.7036 0.6303
vn 0.7296 -0.2655 0.6303
vn 0.9063 0.4226 -0.0000
vn 0.9397 -0.3420 -0.0000
vn 0.4226 -0.9063 -0.0000
vn 0.3420 0.9397 -0.0000
vn -0.4226 0.9063 -0.0000
vn -0.3420 -0.9397 -0.0000
vn -0.9063 -0.4226 -0.0000
vn -0.9397 0.3420 -0.0000
vn 0.7499 0.2009 0.6303
vn 0.3882 0.6724 0.6303
vn -0.2009 0.7499 0.6303
vn -0.6724 0.3882 0.6303
vn -0.7499 -0.2009 0.6303
vn -0.3882 -0.6724 0.6303
vn 0.2009 -0.7499 0.6303
vn 0.6724 -0.3882 0.6303
vn 0.9659 0.2588 -0.0000
vn 0.8660 -0.5000 -0.0000
vn 0.2588 -0.9659 -0.0000
vn 0.5000 0.8660 -0.0000
vn -0.2588 0.9659 -0.0000
vn -0.5000 -0.8660 -0.0000
vn -0.9659 -0.2588 -0.0000
vn -0.8660 0.5000 -0.0000
vn -0.0000 0.4462 -0.8949
vn -0.0000 0.8949 0.4462
vn 0.7071 0.6328 0.3155
vn -0.7071 0.6328 0.3155
vn -0.0000 0.9483 -0.3173
vn -0.0000 0.3173 0.9483
vn -0.2588 -0.4310 0.8644
vn -0.7071 -0.3155 0.6328
vn -0.9659 -0.1155 0.2316
vn -0.2588 0.4310 -0.8644
vn -0.7071 0.3155 -0.6328
vn -0.9659 0.1155 -0.2316
vn 0.2588 -0.4310 0.8644
vn 0.7071 -0.3155 0.6328
vn 0.9659 -0.1155 0.2316
vn 0.2588 0.4310 -0.8644
vn 0.7071 0.3155 -0.6328
vn 0.9659 0.1155 -0.2316
vn -0.0000 -0.4462 0.8949
vt 1.000000 0.000000
vt 0.605469 0.799219
vt 1.000000 0.148438
vt 1.000000 0.970494
vt 0.570312 0.820312
vt 0.790000 0.819812
vt 0.746094 0.799219
vt 1.000000 0.000000
vt 1.000000 0.970494
vt 0.781250 0.820312
vt 1.000000 0.819812
vt 0.774250 0.883625
vt 1.000000 0.103906
vt 0.605469 0.700781
vt 0.999257 0.148438
vt 0.860000 0.900494
vt 0.571250 0.890625
vt 0.790000 0.679812
vt 0.860000 0.900494
vt 0.781250 0.890625
vt 1.000000 0.679812
vt 0.746094 0.700781
vt 1.000000 0.103906
vt 0.999257 0.000000
vt 0.982422 0.808594
vt 0.982500 0.819600
vt 0.788882 0.811774
vt 0.982422 0.699219
vt 0.789220 0.690249
vt 0.982500 0.698595
vt 0.782240 0.683230
vt 0.800500 0.689204
vt 0.808594 0.699219
vt 0.789220 0.690249
vt 0.807500 0.698595
vt 0.808594 0.808594
vt 0.788882 0.811774
vt 0.807500 0.819600
vt 0.800500 0.810421
vt 0.781863 0.818754
vt 0.800500 0.828992
vt 0.782240 0.683230
vt 0.989500 0.689204
vt 0.989500 0.810421
vt 0.989500 0.828992
vt 0.781863 0.818754
vt 0.578250 0.827625
vt 0.581750 0.831125
vt 0.581750 0.880125
vt 0.578250 0.883625
vt 0.770750 0.880125
vt 0.770750 0.831125
vt 0.774250 0.827625
vt 1.000000 0.830494
vt 0.570312 0.679688
vt 0.570312 0.820312
vt 0.860000 0.830494
vt 0.571250 0.820625
vt 0.570312 0.679688
vt 0.860000 0.830494
vt 0.781250 0.820625
vt 0.781250 0.679688
vt 1.000000 0.830494
vt 0.781250 0.679688
vt 0.781250 0.820312
vt 0.699219 0.000000
vt 0.651563 0.118750
vt 0.699219 0.118750
vt 0.699219 0.074219
vt 0.577344 0.118750
vt 0.697726 0.118750
vt 0.577344 0.029687
vt 0.699219 0.074219
vt 0.697726 0.029688
vt 0.651563 0.029688
vt 0.699219 0.000000
vt 0.699219 0.029687
vt 0.811837 0.935290
vt 0.811837 0.886147
vt 0.826122 0.886147
vt 0.808980 0.932433
vt 0.823265 0.886147
vt 0.829551 0.932433
vt 0.848979 0.932433
vt 0.829551 0.932433
vt 0.829551 0.918147
vt 0.846122 0.935290
vt 0.846122 0.886147
vt 0.829551 0.921004
vt 0.823265 0.884433
vt 0.831265 0.932433
vt 0.811837 0.884433
vt 0.826122 0.884433
vt 0.846122 0.884433
vt 0.831265 0.921004
vt 0.831265 0.932433
vt 0.831265 0.918147
vt 0.808979 0.841005
vt 0.823265 0.886147
vt 0.829551 0.841004
vt 0.811837 0.838147
vt 0.811837 0.886147
vt 0.826122 0.886147
vt 0.846122 0.838147
vt 0.846122 0.886147
vt 0.829551 0.852433
vt 0.848980 0.841004
vt 0.829551 0.841004
vt 0.829551 0.855290
vt 0.811837 0.884433
vt 0.826122 0.884433
vt 0.823265 0.884433
vt 0.831265 0.841004
vt 0.831265 0.841004
vt 0.831265 0.855290
vt 0.846122 0.884433
vt 0.831265 0.852433
vt 0.811837 0.915290
vt 0.826694 0.929576
vt 0.811837 0.929576
vt 0.811837 0.918148
vt 0.829551 0.932433
vt 0.817551 0.932433
vt 0.817551 0.918148
vt 0.829551 0.932433
vt 0.811837 0.858147
vt 0.826694 0.843862
vt 0.811837 0.843862
vt 0.811837 0.855290
vt 0.829551 0.841004
vt 0.840408 0.915290
vt 0.826694 0.929576
vt 0.840408 0.929576
vt 0.829551 0.932433
vt 0.840408 0.918148
vt 0.840408 0.932433
vt 0.846122 0.918148
vt 0.846122 0.932433
vt 0.840408 0.858147
vt 0.826694 0.843862
vt 0.840408 0.843862
vt 0.829551 0.841004
vt 0.840408 0.855290
vt 0.840408 0.841004
vt 0.846122 0.855290
vt 0.846122 0.841004
vt 0.834694 0.915290
vt 0.826694 0.929576
vt 0.834694 0.929576
vt 0.829551 0.932433
vt 0.834694 0.918148
vt 0.834694 0.932433
vt 0.834694 0.858147
vt 0.826694 0.843862
vt 0.834694 0.843862
vt 0.828979 0.915290
vt 0.826694 0.929576
vt 0.828979 0.929576
vt 0.829551 0.932433
vt 0.828979 0.918148
vt 0.828979 0.932433
vt 0.828979 0.858147
vt 0.826694 0.843862
vt 0.828979 0.843862
vt 0.829551 0.841004
vt 0.834694 0.855290
vt 0.834694 0.841004
vt 0.823265 0.915290
vt 0.826694 0.929576
vt 0.823265 0.929576
vt 0.823265 0.858147
vt 0.826694 0.843862
vt 0.823265 0.843862
vt 0.829551 0.841004
vt 0.828979 0.855290
vt 0.828979 0.841004
vt 0.817551 0.915290
vt 0.826694 0.929576
vt 0.817551 0.929576
vt 0.829551 0.932433
vt 0.823265 0.918148
vt 0.823265 0.932433
vt 0.817551 0.858147
vt 0.826694 0.843862
vt 0.817551 0.843862
vt 0.817551 0.841005
vt 0.817551 0.855290
vt 0.829551 0.841004
vt 0.829551 0.841004
vt 0.823265 0.855290
vt 0.823265 0.841005
vt 0.811837 0.935290
vt 0.811837 0.886147
vt 0.826122 0.886147
vt 0.808980 0.932433
vt 0.823265 0.886147
vt 0.829551 0.932433
vt 0.848979 0.932433
vt 0.829551 0.932433
vt 0.829551 0.918147
vt 0.846122 0.935290
vt 0.846122 0.886147
vt 0.829551 0.921004
vt 0.823265 0.884433
vt 0.831265 0.932433
vt 0.811837 0.884433
vt 0.826122 0.884433
vt 0.846122 0.884433
vt 0.831265 0.921004
vt 0.831265 0.932433
vt 0.831265 0.918147
vt 0.808979 0.841005
vt 0.823265 0.886147
vt 0.829551 0.841004
vt 0.811837 0.838147
vt 0.811837 0.886147
vt 0.826122 0.886147
vt 0.846122 0.838147
vt 0.846122 0.886147
vt 0.829551 0.852433
vt 0.848980 0.841004
vt 0.829551 0.841004
vt 0.829551 0.855290
vt 0.811837 0.884433
vt 0.826122 0.884433
vt 0.823265 0.884433
vt 0.831265 0.841004
vt 0.831265 0.841004
vt 0.831265 0.855290
vt 0.846122 0.884433
vt 0.831265 0.852433
vt 0.811837 0.915290
vt 0.826694 0.929576
vt 0.811837 0.929576
vt 0.811837 0.918148
vt 0.829551 0.932433
vt 0.817551 0.932433
vt 0.817551 0.918148
vt 0.829551 0.932433
vt 0.811837 0.858147
vt 0.826694 0.843862
vt 0.811837 0.843862
vt 0.811837 0.855290
vt 0.829551 0.841004
vt 0.840408 0.915290
vt 0.826694 0.929576
vt 0.840408 0.929576
vt 0.829551 0.932433
vt 0.840408 0.918148
vt 0.840408 0.932433
vt 0.846122 0.918148
vt 0.846122 0.932433
vt 0.840408 0.858147
vt 0.826694 0.843862
vt 0.840408 0.843862
vt 0.829551 0.841004
vt 0.840408 0.855290
vt 0.840408 0.841004
vt 0.846122 0.855290
vt 0.846122 0.841004
vt 0.834694 0.915290
vt 0.826694 0.929576
vt 0.834694 0.929576
vt 0.829551 0.932433
vt 0.834694 0.918148
vt 0.834694 0.932433
vt 0.834694 0.858147
vt 0.826694 0.843862
vt 0.834694 0.843862
vt 0.828979 0.915290
vt 0.826694 0.929576
vt 0.828979 0.929576
vt 0.829551 0.932433
vt 0.828979 0.918148
vt 0.828979 0.932433
vt 0.828979 0.858147
vt 0.826694 0.843862
vt 0.828979 0.843862
vt 0.829551 0.841004
vt 0.834694 0.855290
vt 0.834694 0.841004
vt 0.823265 0.915290
vt 0.826694 0.929576
vt 0.823265 0.929576
vt 0.823265 0.858147
vt 0.826694 0.843862
vt 0.823265 0.843862
vt 0.829551 0.841004
vt 0.828979 0.855290
vt 0.828979 0.841004
vt 0.817551 0.915290
vt 0.826694 0.929576
vt 0.817551 0.929576
vt 0.829551 0.932433
vt 0.823265 0.918148
vt 0.823265 0.932433
vt 0.817551 0.858147
vt 0.826694 0.843862
vt 0.817551 0.843862
vt 0.817551 0.841005
vt 0.817551 0.855290
vt 0.829551 0.841004
vt 0.829551 0.841004
vt 0.823265 0.855290
vt 0.823265 0.841005
vt 0.450919 0.185547
vt 0.453549 0.185547
vt 0.448705 0.180201
vt 0.453549 0.180201
vt 0.453549 0.190893
vt 0.448705 0.190893
vt 0.453549 0.190893
vt 0.443359 0.177987
vt 0.453549 0.185547
vt 0.438014 0.180201
vt 0.453549 0.180201
vt 0.435799 0.185547
vt 0.453549 0.185547
vt 0.443359 0.193107
vt 0.453549 0.185547
vt 0.438014 0.190893
vt 0.453549 0.180201
vt 0.453549 0.190893
vt 0.456573 0.185547
vt 0.456573 0.180201
vt 0.456573 0.190893
vt 0.456573 0.190893
vt 0.456573 0.185547
vt 0.456573 0.180201
vt 0.456573 0.185547
vt 0.456573 0.185547
vt 0.456573 0.180201
vt 0.456573 0.190893
vt 0.450919 0.169922
vt 0.453549 0.169922
vt 0.448705 0.164576
vt 0.453549 0.164576
vt 0.453549 0.175268
vt 0.448705 0.175268
vt 0.453549 0.175268
vt 0.443359 0.162362
vt 0.453549 0.169922
vt 0.438014 0.164576
vt 0.453549 0.164576
vt 0.435799 0.169922
vt 0.453549 0.169922
vt 0.443359 0.177482
vt 0.453549 0.169922
vt 0.438014 0.175268
vt 0.453549 0.164576
vt 0.453549 0.175268
vt 0.456573 0.169922
vt 0.456573 0.164576
vt 0.456573 0.175268
vt 0.456573 0.175268
vt 0.456573 0.169922
vt 0.456573 0.164576
vt 0.456573 0.169922
vt 0.456573 0.169922
vt 0.456573 0.164576
vt 0.456573 0.175268
vt 0.731861 0.272413
vt 0.866052 0.365963
vt 0.736328 0.277344
vt 0.735361 0.275918
vt 0.736328 0.361328
vt 0.735335 0.362552
vt 0.731819 0.366065
vt 0.866052 0.272515
vt 0.861328 0.277344
vt 0.862436 0.275925
vt 0.865953 0.272413
vt 0.731720 0.365963
vt 0.865910 0.366065
vt 0.731720 0.272515
vt 0.861328 0.361328
vt 0.862411 0.362559
vt 0.731793 0.380469
vt 0.717286 0.366423
vt 0.724843 0.378265
vt 0.719668 0.373269
vt 0.717069 0.272237
vt 0.731212 0.257910
vt 0.719552 0.265463
vt 0.724479 0.260396
vt 0.880705 0.365742
vt 0.866484 0.379681
vt 0.878428 0.372500
vt 0.873358 0.377472
vt 0.866115 0.257957
vt 0.880361 0.272128
vt 0.872866 0.260388
vt 0.877827 0.265403
vt 0.880653 0.365963
vt 0.711185 0.367708
vt 0.866052 0.380564
vt 0.730610 0.386412
vt 0.878697 0.373263
vt 0.714672 0.376646
vt 0.873352 0.378608
vt 0.721657 0.383341
vt 0.866052 0.257913
vt 0.729936 0.252065
vt 0.880653 0.272515
vt 0.711185 0.270976
vt 0.873352 0.259869
vt 0.721189 0.255452
vt 0.878697 0.265214
vt 0.714539 0.262202
vt 0.717119 0.272515
vt 0.886204 0.270837
vt 0.731720 0.257913
vt 0.867373 0.252104
vt 0.719075 0.265214
vt 0.882801 0.262114
vt 0.724419 0.259869
vt 0.876118 0.255430
vt 0.731720 0.380564
vt 0.867714 0.385589
vt 0.717119 0.365963
vt 0.886586 0.366960
vt 0.724419 0.378608
vt 0.876550 0.382450
vt 0.719075 0.373263
vt 0.883349 0.375752
vt 0.138990 0.683604
vt 0.128705 0.702651
vt 0.058991 0.683604
vt 0.128704 0.663032
vt 0.138990 0.683604
vt 0.128705 0.663032
vt 0.123372 0.699908
vt 0.061734 0.699908
vt 0.061733 0.688937
vt 0.136248 0.699908
vt 0.136248 0.688937
vt 0.123371 0.699908
vt 0.058991 0.683604
vt 0.128704 0.702651
vt 0.123371 0.665775
vt 0.061734 0.665775
vt 0.061733 0.688937
vt 0.136248 0.665775
vt 0.123372 0.665775
vt 0.136248 0.688937
vt 0.058991 0.688937
vt 0.123371 0.702651
vt 0.058991 0.702652
vt 0.138990 0.688937
vt 0.123372 0.702651
vt 0.138991 0.702651
vt 0.138991 0.688937
vt 0.123372 0.663032
vt 0.138991 0.663032
vt 0.058991 0.688937
vt 0.123371 0.663032
vt 0.058991 0.663032
vt 0.126800 0.699908
vt 0.061733 0.685508
vt 0.055534 0.699368
vt 0.136248 0.685508
vt 0.126800 0.699908
vt 0.135123 0.699368
vt 0.126800 0.665775
vt 0.136248 0.685508
vt 0.135123 0.664869
vt 0.126800 0.665775
vt 0.061733 0.685508
vt 0.055534 0.664869
s 0
usemtl electronics_etx_part_1
f 26/57/1 7/16/1 2/4/1 25/54/1
f 28/63/2 4/9/2 8/19/2 27/60/2
f 6/13/3 1/1/3 29/66/3 30/69/3
f 25/55/4 2/5/4 4/10/4 28/64/4
f 17/44/5 16/43/5 8/21/5 4/11/5
f 18/47/6 21/50/6 7/17/6 26/58/6
f 5/12/6 24/53/6 27/61/6 8/20/6
f 24/53/6 18/47/6 26/58/6 27/61/6
f 21/50/6 5/12/6 8/20/6 7/17/6
f 23/52/6 22/51/6 20/49/6 19/48/6
f 10/25/5 14/36/5 13/33/5 11/28/5
f 12/32/5 15/39/5 2/6/5 7/18/5
f 16/43/5 12/32/5 7/18/5 8/21/5
f 15/39/5 17/44/5 4/11/5 2/6/5
f 13/34/7 14/37/7 15/40/7 12/31/7
f 14/38/8 10/26/8 17/45/8 15/41/8
f 10/27/9 11/29/9 16/42/9 17/46/9
f 11/30/10 13/35/10 12/32/10 16/43/10
f 19/48/11 20/49/11 21/50/11 18/47/11
f 22/51/12 23/52/12 24/53/12 5/12/12
f 18/47/13 24/53/13 23/52/13 19/48/13
f 5/12/14 21/50/14 20/49/14 22/51/14
f 1/2/15 6/14/15 26/59/15 25/56/15
f 6/14/15 9/22/15 27/62/15 26/59/15
f 3/7/15 1/2/15 25/56/15 28/65/15
f 9/22/15 3/7/15 28/65/15 27/62/15
f 29/67/15 32/75/15 31/72/15 30/70/15
f 3/8/16 9/23/16 31/73/16 32/76/16
f 9/24/17 6/15/17 30/71/17 31/74/17
f 1/3/4 3/8/4 32/77/4 29/68/4
f 41/98/2 42/101/2 43/104/2 44/107/2 35/84/2 36/87/2 33/78/2 34/81/2
f 45/110/4 48/116/4 43/105/4 42/102/4
f 47/114/18 40/96/18 35/85/18 44/108/18
f 33/79/6 36/88/6 39/94/6 38/92/6
f 37/90/13 34/82/13 33/80/13 38/93/13
f 35/86/14 40/97/14 39/95/14 36/89/14
f 41/99/19 46/112/19 45/111/19 42/103/19
f 47/115/20 44/109/20 43/106/20 48/117/20
f 37/91/15 46/113/15 41/100/15 34/83/15
f 49/118/12 51/124/12 50/121/12
f 53/129/21 73/187/21 52/126/21
f 50/122/15 53/130/15 52/127/15 49/119/15
f 73/186/22 51/123/22 49/120/22 52/128/22
f 54/131/12 56/137/12 55/135/12
f 58/143/21 59/145/21 57/139/21
f 55/134/15 58/142/15 57/140/15 54/132/15
f 59/146/22 56/138/22 54/133/22 57/141/22
f 60/147/12 55/135/12 61/151/12
f 66/166/21 58/143/21 62/153/21
f 61/150/15 66/165/15 62/154/15 60/148/15
f 58/144/22 55/136/22 60/149/22 62/155/22
f 63/156/12 61/151/12 64/160/12
f 69/175/21 66/166/21 65/162/21
f 64/159/15 69/174/15 65/163/15 63/157/15
f 66/167/22 61/152/22 63/158/22 65/164/22
f 67/168/12 64/160/12 71/181/12
f 74/190/21 69/175/21 68/171/21
f 71/180/15 74/189/15 68/172/15 67/169/15
f 69/176/22 64/161/22 67/170/22 68/173/22
f 70/177/12 71/181/12 51/124/12
f 73/187/21 74/190/21 72/183/21
f 51/125/15 73/188/15 72/184/15 70/178/15
f 74/191/22 71/182/22 70/179/22 72/185/22
f 83/212/1 84/215/1 85/218/1 86/221/1 77/198/1 78/201/1 75/192/1 76/195/1
f 87/224/6 90/230/6 85/219/6 84/216/6
f 89/228/18 82/210/18 77/199/18 86/222/18
f 75/193/4 78/202/4 81/208/4 80/206/4
f 79/204/19 76/196/19 75/194/19 80/207/19
f 77/200/20 82/211/20 81/209/20 78/203/20
f 83/213/13 88/226/13 87/225/13 84/217/13
f 89/229/14 86/223/14 85/220/14 90/231/14
f 79/205/15 88/227/15 83/214/15 76/197/15
f 91/232/23 93/238/23 92/235/23
f 95/243/11 115/301/11 94/240/11
f 92/236/15 95/244/15 94/241/15 91/233/15
f 115/300/24 93/237/24 91/234/24 94/242/24
f 96/245/23 98/251/23 97/249/23
f 100/257/11 101/259/11 99/253/11
f 97/248/15 100/256/15 99/254/15 96/246/15
f 101/260/24 98/252/24 96/247/24 99/255/24
f 102/261/23 97/249/23 103/265/23
f 108/280/11 100/257/11 104/267/11
f 103/264/15 108/279/15 104/268/15 102/262/15
f 100/258/24 97/250/24 102/263/24 104/269/24
f 105/270/23 103/265/23 106/274/23
f 111/289/11 108/280/11 107/276/11
f 106/273/15 111/288/15 107/277/15 105/271/15
f 108/281/24 103/266/24 105/272/24 107/278/24
f 109/282/23 106/274/23 113/295/23
f 116/304/11 111/289/11 110/285/11
f 113/294/15 116/303/15 110/286/15 109/283/15
f 111/290/24 106/275/24 109/284/24 110/287/24
f 112/291/23 113/295/23 93/238/23
f 115/301/11 116/304/11 114/297/11
f 93/239/15 115/302/15 114/298/15 112/292/15
f 116/305/24 113/296/24 112/293/24 114/299/24
s 1
f 123/319/25 119/311/26 117/306/27 118/308/28 120/313/29 121/315/30 122/317/31 124/321/32
f 130/330/33 123/320/25 124/322/32 132/332/34
f 132/333/34 124/323/32 122/318/31 131/331/35
f 123/320/25 130/330/33 127/327/36 119/312/26
f 119/312/26 127/327/36 125/324/37 117/307/27
f 131/331/35 122/318/31 121/316/30 129/329/38
f 129/329/38 121/316/30 120/314/29 128/328/39
f 117/307/27 125/324/37 126/325/40 118/309/28
f 118/310/28 126/326/40 128/328/39 120/314/29
f 139/347/41 135/339/42 133/334/43 134/336/44 136/341/45 137/343/46 138/345/47 140/349/48
f 146/358/49 139/348/41 140/350/48 148/360/50
f 148/361/50 140/351/48 138/346/47 147/359/51
f 139/348/41 146/358/49 143/355/52 135/340/42
f 135/340/42 143/355/52 141/352/53 133/335/43
f 147/359/51 138/346/47 137/344/46 145/357/54
f 145/357/54 137/344/46 136/342/45 144/356/55
f 133/335/43 141/352/53 142/353/56 134/337/44
f 134/338/44 142/354/56 144/356/55 136/342/45
s 0
f 169/390/57 162/383/57 177/403/57 182/413/57
f 149/363/58 152/369/58 178/404/58 173/394/58
f 173/395/1 178/405/1 161/382/1 158/379/1
f 165/386/2 170/391/2 181/411/2 186/421/2
f 155/375/58 154/373/58 186/420/58 181/410/58
f 153/370/58 156/376/58 151/366/58 150/364/58
f 152/369/58 155/375/58 182/412/58 177/402/58
f 154/373/58 149/363/58 174/396/58 185/418/58
f 150/365/59 151/367/59 152/368/59 149/362/59
f 156/377/60 153/371/60 154/372/60 155/374/60
f 149/362/61 154/372/61 153/371/61 150/365/61
f 155/374/62 152/368/62 151/367/62 156/377/62
f 173/394/58 175/398/58 149/363/58
f 175/398/58 176/400/58 149/363/58
f 176/400/58 174/396/58 149/363/58
f 177/402/58 179/406/58 152/369/58
f 179/406/58 180/408/58 152/369/58
f 180/408/58 178/404/58 152/369/58
f 181/410/58 183/414/58 155/375/58
f 183/414/58 184/416/58 155/375/58
f 184/416/58 182/412/58 155/375/58
f 185/418/58 187/422/58 154/373/58
f 187/422/58 188/424/58 154/373/58
f 188/424/58 186/420/58 154/373/58
f 157/378/63 174/397/63 176/401/63 159/380/63
f 159/380/64 176/401/64 175/399/64 160/381/64
f 160/381/65 175/399/65 173/395/65 158/379/65
f 177/403/66 162/383/66 164/385/66 179/407/66
f 179/407/67 164/385/67 163/384/67 180/409/67
f 180/409/68 163/384/68 161/382/68 178/405/68
f 185/419/69 166/387/69 168/389/69 187/423/69
f 187/423/70 168/389/70 167/388/70 188/425/70
f 188/425/71 167/388/71 165/386/71 186/421/71
f 169/390/72 182/413/72 184/417/72 171/392/72
f 171/392/73 184/417/73 183/415/73 172/393/73
f 172/393/74 183/415/74 181/411/74 170/391/74
f 157/378/75 166/387/75 185/419/75 174/397/75
f 197/446/15 198/449/15 189/426/15 194/438/15
f 190/428/18 191/430/18 199/452/18 200/455/18
f 192/432/1 195/440/1 204/467/1 201/458/1
f 194/439/2 190/429/2 200/456/2 197/447/2
f 191/431/1 189/427/1 198/450/1 199/453/1
f 192/433/6 193/435/6 198/451/6 197/448/6
f 196/443/6 195/441/6 200/457/6 199/454/6
f 195/441/6 192/433/6 197/448/6 200/457/6
f 193/435/6 196/443/6 199/454/6 198/451/6
f 193/436/18 192/434/18 201/459/18 202/461/18
f 196/444/2 193/437/2 202/462/2 203/464/2
f 195/442/15 196/445/15 203/465/15 204/468/15
f 201/460/6 204/469/6 203/466/6 202/463/6
o control_panel_etx_1_round_screen
v -0.174240 1.025273 0.109859
v -0.174240 1.131278 -0.102783
v 0.174240 1.131278 -0.102783
v 0.174240 1.025273 0.109859
v -0.149309 1.047997 0.093331
v -0.097240 1.082894 0.052549
v -0.123674 1.067683 0.074503
v -0.097240 1.120192 -0.022269
v -0.149309 1.131757 -0.074686
v -0.123674 1.128569 -0.047631
v 0.097240 1.082894 0.052549
v 0.149309 1.047997 0.093331
v 0.123674 1.067683 0.074503
v 0.149309 1.131757 -0.074686
v 0.097240 1.120192 -0.022269
v 0.123674 1.128569 -0.047631
vn 0.2256 0.7475 0.6247
vn -0.2256 0.7475 0.6247
vn -0.2440 0.7311 0.6371
vn 0.2440 0.7311 0.6371
vn 0.0538 0.8683 0.4930
vn 0.0538 0.9164 0.3967
vn -0.0538 0.9164 0.3967
vn -0.0538 0.8683 0.4930
vn -0.2256 0.9488 0.2209
vn 0.2256 0.9488 0.2209
vn 0.2440 0.9488 0.2004
vn -0.2440 0.9488 0.2004
vn -0.1481 0.9412 0.3037
vn -0.1481 0.8090 0.5688
vn 0.1481 0.8090 0.5688
vn 0.1481 0.9412 0.3037
vt 0.736328 0.277344
vt 0.736328 0.361328
vt 0.861328 0.361328
vt 0.861328 0.277344
vt 0.745271 0.286156
vt 0.763948 0.304561
vt 0.754364 0.295117
vt 0.763948 0.334111
vt 0.745271 0.352516
vt 0.754365 0.343555
vt 0.833708 0.304561
vt 0.852385 0.286156
vt 0.843292 0.295117
vt 0.852385 0.352516
vt 0.833708 0.334111
vt 0.843292 0.343555
s 1
usemtl electronics_etx_part_1_screen
f 216/481/76 209/474/77 205/470/78 208/473/79
f 215/480/80 219/484/81 212/477/82 210/475/83
f 213/478/84 218/483/85 207/472/86 206/471/87
f 218/483/85 216/481/76 208/473/79 207/472/86
f 210/475/83 212/477/82 214/479/88 211/476/89
f 211/476/89 214/479/88 213/478/84 209/474/77
f 219/484/81 215/480/80 217/482/90 220/485/91
f 220/485/91 217/482/90 216/481/76 218/483/85
f 215/480/80 210/475/83 211/476/89 217/482/90
f 217/482/90 211/476/89 209/474/77 216/481/76
f 212/477/82 219/484/81 220/485/91 214/479/88
f 214/479/88 220/485/91 218/483/85 213/478/84
f 209/474/77 213/478/84 206/471/87 205/470/78
o control_panel_etx_1_lever_child_2
v 0.336600 1.087647 0.174697
v 0.336600 1.106353 0.163897
v 0.325800 1.087647 0.174697
v 0.325800 1.106353 0.163897
v 0.336600 1.012047 0.043754
v 0.336600 1.030753 0.032954
v 0.325800 1.012047 0.043754
v 0.325800 1.030753 0.032954
v 0.336600 1.103588 0.144708
v 0.336600 1.072412 0.162708
v 0.195360 1.092193 0.138060
v 0.195360 1.079900 0.139678
v 0.195360 1.102030 0.145608
v 0.195360 1.072352 0.149515
v 0.195360 1.073970 0.161808
v 0.195360 1.083807 0.169356
v 0.195360 1.103648 0.157901
v 0.195360 1.096100 0.167738
v 0.200400 1.092193 0.138060
v 0.200400 1.079900 0.139678
v 0.200400 1.102030 0.145608
v 0.200400 1.072352 0.149515
v 0.200400 1.073970 0.161808
v 0.200400 1.103648 0.157901
v 0.200400 1.083807 0.169356
v 0.200400 1.096100 0.167738
v 0.186720 1.090795 0.143276
v 0.186720 1.082600 0.144355
v 0.186720 1.097353 0.148308
v 0.186720 1.077568 0.150913
v 0.186720 1.078647 0.159108
v 0.186720 1.085205 0.164140
v 0.186720 1.098432 0.156503
v 0.186720 1.093400 0.163061
v 0.195360 1.090795 0.143276
v 0.195360 1.082600 0.144355
v 0.195360 1.097353 0.148308
v 0.195360 1.077568 0.150913
v 0.195360 1.078647 0.159108
v 0.195360 1.098432 0.156503
v 0.195360 1.085205 0.164140
v 0.195360 1.093400 0.163061
v 0.341640 1.072352 0.149515
v 0.341640 1.079900 0.139679
v 0.341640 1.073970 0.161808
v 0.341640 1.092193 0.138060
v 0.341640 1.102030 0.145608
v 0.341640 1.103648 0.157901
v 0.341640 1.083807 0.169356
v 0.341640 1.096100 0.167738
v 0.336600 1.072352 0.149515
v 0.336600 1.079900 0.139679
v 0.336600 1.073970 0.161808
v 0.336600 1.092193 0.138060
v 0.336600 1.102030 0.145608
v 0.336600 1.083807 0.169356
v 0.336600 1.103648 0.157901
v 0.336600 1.096100 0.167738
v 0.350280 1.077568 0.150913
v 0.350280 1.082600 0.144355
v 0.350280 1.078647 0.159108
v 0.350280 1.090795 0.143276
v 0.350280 1.097353 0.148308
v 0.350280 1.098432 0.156503
v 0.350280 1.085205 0.164140
v 0.350280 1.093400 0.163061
v 0.341640 1.077568 0.150913
v 0.341640 1.082600 0.144355
v 0.341640 1.078647 0.159108
v 0.341640 1.090795 0.143276
v 0.341640 1.097353 0.148308
v 0.341640 1.085205 0.164140
v 0.341640 1.098432 0.156503
v 0.341640 1.093400 0.163061
v 0.336600 1.088353 0.132720
v 0.336600 1.069647 0.143520
v 0.325800 1.088353 0.132720
v 0.325800 1.069647 0.143520
v 0.325800 1.103588 0.144708
v 0.325800 1.072411 0.162708
v 0.336600 1.081088 0.105737
v 0.336600 1.049911 0.123737
v 0.325800 1.081088 0.105737
v 0.325800 1.049911 0.123737
v 0.200200 1.076300 0.133443
v 0.200200 1.065397 0.147652
v 0.200200 1.094056 0.131106
v 0.200200 1.067735 0.165408
v 0.200200 1.081944 0.176311
v 0.200200 1.099700 0.173973
v 0.200200 1.108265 0.142008
v 0.200200 1.110603 0.159765
v 0.325800 1.076300 0.133443
v 0.325800 1.065397 0.147652
v 0.325800 1.094056 0.131106
v 0.325800 1.067735 0.165408
v 0.325800 1.081944 0.176311
v 0.325800 1.108265 0.142008
v 0.325800 1.099700 0.173973
v 0.325800 1.110603 0.159765
v 0.336600 1.051389 0.054295
v 0.336600 1.020211 0.072295
v 0.325800 1.051389 0.054295
v 0.325800 1.020211 0.072295
v 0.344700 0.996440 0.023759
v 0.344700 1.005875 0.011464
v 0.344700 0.998463 0.039126
v 0.344700 1.021241 0.009441
v 0.344700 1.033537 0.018876
v 0.344700 1.035560 0.034242
v 0.344700 1.010759 0.048561
v 0.344700 1.026125 0.046538
v 0.318600 0.996440 0.023759
v 0.318600 1.005875 0.011464
v 0.318600 0.998463 0.039126
v 0.318600 1.021241 0.009441
v 0.318600 1.033537 0.018876
v 0.318600 1.010759 0.048561
v 0.318600 1.035560 0.034242
v 0.318600 1.026125 0.046538
v 0.355500 1.002960 0.025506
v 0.355500 1.009250 0.017309
v 0.355500 1.004309 0.035751
v 0.355500 1.019494 0.015961
v 0.355500 1.027691 0.022251
v 0.355500 1.029040 0.032495
v 0.355500 1.012506 0.042041
v 0.355500 1.022750 0.040692
v 0.344700 1.002960 0.025506
v 0.344700 1.009250 0.017309
v 0.344700 1.004309 0.035751
v 0.344700 1.019494 0.015961
v 0.344700 1.027691 0.022251
v 0.344700 1.012506 0.042041
v 0.344700 1.029040 0.032495
v 0.344700 1.022750 0.040692
v 0.297001 0.978588 0.050600
v 0.297001 0.994400 0.066412
v 0.297001 1.016000 0.072200
v 0.297001 1.037600 0.066412
v 0.297001 1.053413 0.050600
v 0.297001 0.972800 0.029000
v 0.297001 0.994400 -0.008412
v 0.297001 0.978588 0.007400
v 0.297001 1.059200 0.029000
v 0.297001 1.016000 -0.014200
v 0.297001 1.053413 0.007400
v 0.297001 1.037600 -0.008412
v 0.318601 1.001854 0.004499
v 0.318601 1.001854 0.053502
v 0.318601 0.987708 0.029000
v 0.318601 0.991499 0.043146
v 0.318601 1.030146 0.053502
v 0.318601 0.991499 0.014854
v 0.318601 1.040502 0.014854
v 0.318601 1.030146 0.004499
v 0.304201 1.016000 -0.014200
v 0.304201 0.994400 -0.008412
v 0.304201 1.053413 0.050600
v 0.304201 1.059200 0.029000
v 0.304201 0.994400 0.066412
v 0.304201 1.016000 0.072200
v 0.304201 0.972800 0.029000
v 0.304201 0.978588 0.050600
v 0.304201 1.037600 0.066412
v 0.304201 0.978588 0.007400
v 0.304201 1.053413 0.007400
v 0.304201 1.037600 -0.008412
v 0.318601 1.016000 0.000708
v 0.318601 1.040502 0.043146
v 0.318601 1.044292 0.029000
v 0.318601 1.016000 0.057292
vn -0.0000 0.7189 -0.6951
vn 1.0000 -0.0000 -0.0000
vn -1.0000 -0.0000 -0.0000
vn -0.0000 -0.9614 0.2750
vn -0.0000 -0.6184 0.7859
vn -0.0000 0.9898 -0.1426
vn -0.0000 0.7934 0.6088
vn -0.0000 0.1305 0.9914
vn -0.0000 0.9914 -0.1305
vn -0.0000 0.6088 -0.7934
vn -0.0000 -0.6088 0.7934
vn -0.0000 -0.9914 0.1305
vn -0.0000 -0.1305 -0.9914
vn -0.0000 -0.7934 -0.6088
vn -0.0000 -0.9898 0.1426
vn -0.0000 0.6184 -0.7859
vn -0.0000 -0.7080 0.7063
vn -0.0000 0.9656 -0.2600
vn -0.0000 0.5000 0.8660
vn -0.0000 0.8660 -0.5000
vn -0.0000 0.9659 0.2588
vn -0.0000 0.2588 -0.9659
vn -0.0000 -0.5000 -0.8660
vn -0.0000 -0.2588 0.9659
vn -0.0000 -0.8660 0.5000
vn -0.0000 -0.9659 -0.2588
vn -0.0000 -1.0000 -0.0000
vn -0.0000 -0.5000 0.8660
vn -0.0000 -0.0000 1.0000
vn -0.0000 1.0000 -0.0000
vn -0.0000 0.8660 0.5000
vn -0.0000 -0.8660 -0.5000
vn -0.0000 -0.0000 -1.0000
vn -0.0000 0.5000 -0.8660
vn 0.7193 -0.0000 -0.6947
vn 0.7193 -0.3474 -0.6017
vn 0.7193 0.6017 0.3474
vn 0.7193 0.6947 -0.0000
vn 0.7193 -0.3474 0.6017
vn 0.7193 -0.0000 0.6947
vn 0.7193 -0.6947 -0.0000
vn 0.7193 -0.6017 0.3474
vn 0.7193 0.3474 0.6017
vn 0.7193 -0.6017 -0.3474
vn 0.7193 0.6017 -0.3474
vn 0.7193 0.3474 -0.6017
vt 0.912505 0.761526
vt 0.911715 0.778254
vt 0.912495 0.766134
vt 0.911715 0.769075
vt 0.912505 0.766116
vt 0.903315 0.766134
vt 0.912505 0.766116
vt 0.911715 0.769075
vt 0.912495 0.761544
vt 0.911715 0.778255
vt 0.912505 0.761526
vt 0.903315 0.761544
vt 0.847448 0.778256
vt 0.846344 0.761526
vt 0.846424 0.766106
vt 0.847383 0.769085
vt 0.847383 0.769085
vt 0.846424 0.766106
vt 0.846344 0.761526
vt 0.847448 0.778256
vt 0.904065 0.766015
vt 0.904266 0.766116
vt 0.904266 0.761526
vt 0.904065 0.781314
vt 0.315074 0.542969
vt 0.309534 0.542969
vt 0.313176 0.538387
vt 0.309534 0.538387
vt 0.309534 0.547551
vt 0.313176 0.547551
vt 0.309534 0.547551
vt 0.308594 0.536489
vt 0.309534 0.542969
vt 0.304012 0.538387
vt 0.309534 0.538387
vt 0.302114 0.542969
vt 0.309534 0.542969
vt 0.308594 0.549449
vt 0.309534 0.542969
vt 0.304012 0.547551
vt 0.309534 0.538387
vt 0.309534 0.547551
vt 0.311550 0.542969
vt 0.311550 0.538387
vt 0.311550 0.547551
vt 0.311550 0.547551
vt 0.311550 0.542969
vt 0.311550 0.538387
vt 0.311550 0.542969
vt 0.311550 0.542969
vt 0.311550 0.538387
vt 0.311550 0.547551
vt 0.312914 0.542969
vt 0.306078 0.542969
vt 0.311648 0.539914
vt 0.306078 0.539914
vt 0.306078 0.546023
vt 0.311648 0.546023
vt 0.306078 0.546023
vt 0.308594 0.538649
vt 0.306078 0.542969
vt 0.305539 0.539914
vt 0.306078 0.539914
vt 0.304274 0.542969
vt 0.306078 0.542969
vt 0.308594 0.547289
vt 0.306078 0.542969
vt 0.305539 0.546023
vt 0.306078 0.539914
vt 0.306078 0.546023
vt 0.312914 0.542969
vt 0.309534 0.542969
vt 0.311648 0.539914
vt 0.309534 0.539914
vt 0.309534 0.546023
vt 0.311648 0.546023
vt 0.309534 0.546023
vt 0.308594 0.538649
vt 0.309534 0.542969
vt 0.305539 0.539914
vt 0.309534 0.539914
vt 0.308594 0.547289
vt 0.309534 0.542969
vt 0.304274 0.542969
vt 0.309534 0.542969
vt 0.305539 0.546023
vt 0.309534 0.539914
vt 0.309534 0.546023
vt 0.315074 0.542969
vt 0.309534 0.542969
vt 0.313176 0.538387
vt 0.309534 0.538387
vt 0.309534 0.547551
vt 0.313176 0.547551
vt 0.309534 0.547551
vt 0.308594 0.536489
vt 0.309534 0.542969
vt 0.304012 0.538387
vt 0.309534 0.538387
vt 0.302114 0.542969
vt 0.309534 0.542969
vt 0.308594 0.549449
vt 0.309534 0.542969
vt 0.304012 0.547551
vt 0.309534 0.538387
vt 0.309534 0.547551
vt 0.311550 0.542969
vt 0.311550 0.538387
vt 0.311550 0.547551
vt 0.311550 0.547551
vt 0.311550 0.542969
vt 0.311550 0.538387
vt 0.311550 0.542969
vt 0.311550 0.542969
vt 0.311550 0.538387
vt 0.311550 0.547551
vt 0.312914 0.542969
vt 0.306078 0.542969
vt 0.311648 0.539914
vt 0.306078 0.539914
vt 0.306078 0.546023
vt 0.311648 0.546023
vt 0.306078 0.546023
vt 0.308594 0.538649
vt 0.306078 0.542969
vt 0.305539 0.539914
vt 0.306078 0.539914
vt 0.304274 0.542969
vt 0.306078 0.542969
vt 0.308594 0.547289
vt 0.306078 0.542969
vt 0.305539 0.546023
vt 0.306078 0.539914
vt 0.306078 0.546023
vt 0.312914 0.542969
vt 0.309534 0.542969
vt 0.311648 0.539914
vt 0.309534 0.539914
vt 0.309534 0.546023
vt 0.311648 0.546023
vt 0.309534 0.546023
vt 0.308594 0.538649
vt 0.309534 0.542969
vt 0.305539 0.539914
vt 0.309534 0.539914
vt 0.308594 0.547289
vt 0.309534 0.542969
vt 0.304274 0.542969
vt 0.309534 0.542969
vt 0.305539 0.546023
vt 0.309534 0.539914
vt 0.309534 0.546023
vt 0.896416 0.769075
vt 0.896027 0.766116
vt 0.896027 0.761526
vt 0.896416 0.778255
vt 0.896416 0.778254
vt 0.896027 0.761526
vt 0.896027 0.766116
vt 0.896416 0.769075
vt 0.904065 0.781314
vt 0.904266 0.761526
vt 0.904266 0.766116
vt 0.904065 0.766015
vt 0.884941 0.766015
vt 0.884152 0.766116
vt 0.884152 0.761526
vt 0.884941 0.781314
vt 0.884941 0.781314
vt 0.884152 0.761526
vt 0.884152 0.766116
vt 0.884941 0.766015
vt 0.083253 0.127314
vt 0.066406 0.125426
vt 0.078125 0.125426
vt 0.088640 0.127314
vt 0.072266 0.125426
vt 0.079444 0.131124
vt 0.072266 0.125426
vt 0.092449 0.131124
vt 0.078125 0.125426
vt 0.066406 0.125426
vt 0.092449 0.136511
vt 0.072266 0.125426
vt 0.088640 0.140320
vt 0.078125 0.125426
vt 0.066406 0.125426
vt 0.079444 0.136511
vt 0.066406 0.125426
vt 0.078125 0.125426
vt 0.083253 0.140320
vt 0.072266 0.125426
vt 0.083250 0.127314
vt 0.066406 0.170028
vt 0.078125 0.170028
vt 0.079440 0.131124
vt 0.072266 0.170028
vt 0.088637 0.127314
vt 0.072266 0.170028
vt 0.079440 0.136511
vt 0.078125 0.170028
vt 0.066406 0.170028
vt 0.083250 0.140320
vt 0.072266 0.170028
vt 0.092446 0.131124
vt 0.066406 0.170028
vt 0.078125 0.170028
vt 0.088637 0.140320
vt 0.078125 0.170028
vt 0.066406 0.170028
vt 0.092446 0.136511
vt 0.072266 0.170028
vt 0.858446 0.766083
vt 0.859040 0.766047
vt 0.858927 0.766071
vt 0.858296 0.761521
vt 0.858702 0.761510
vt 0.859213 0.781329
vt 0.858875 0.761515
vt 0.860071 0.781322
vt 0.859953 0.781328
vt 0.859368 0.761511
vt 0.859875 0.766048
vt 0.859032 0.766086
vt 0.859696 0.766061
vt 0.304969 0.542969
vt 0.282976 0.542969
vt 0.301454 0.534483
vt 0.282976 0.534483
vt 0.282976 0.551454
vt 0.301454 0.551454
vt 0.282976 0.551454
vt 0.292969 0.530969
vt 0.282976 0.542969
vt 0.284483 0.534483
vt 0.282976 0.534483
vt 0.280969 0.542969
vt 0.282976 0.542969
vt 0.292969 0.554969
vt 0.282976 0.542969
vt 0.284483 0.551454
vt 0.282976 0.534483
vt 0.282976 0.551454
vt 0.298442 0.542969
vt 0.298442 0.534483
vt 0.298442 0.551454
vt 0.298442 0.551454
vt 0.298442 0.542969
vt 0.298442 0.534483
vt 0.298442 0.542969
vt 0.298442 0.542969
vt 0.298442 0.534483
vt 0.298442 0.551454
vt 0.064641 0.214844
vt 0.053919 0.230469
vt 0.062297 0.209187
vt 0.053919 0.224812
vt 0.053919 0.236126
vt 0.062297 0.220501
vt 0.053919 0.236126
vt 0.056641 0.206844
vt 0.053919 0.230469
vt 0.050984 0.209187
vt 0.053919 0.224812
vt 0.048641 0.214844
vt 0.053919 0.230469
vt 0.056641 0.222844
vt 0.053919 0.230469
vt 0.050984 0.220501
vt 0.053919 0.224812
vt 0.053919 0.236125
vt 0.064641 0.214844
vt 0.060320 0.230469
vt 0.062297 0.209187
vt 0.060319 0.224812
vt 0.060319 0.236126
vt 0.062297 0.220501
vt 0.060320 0.236126
vt 0.056641 0.206844
vt 0.060320 0.230469
vt 0.050984 0.209187
vt 0.060320 0.224812
vt 0.056641 0.222844
vt 0.060320 0.230469
vt 0.048641 0.214844
vt 0.060320 0.230469
vt 0.050984 0.220501
vt 0.060319 0.224812
vt 0.060319 0.236126
vt 0.402277 0.283100
vt 0.394956 0.283100
vt 0.422268 0.283125
vt 0.412268 0.283125
vt 0.394956 0.283100
vt 0.402268 0.283125
vt 0.402277 0.283100
vt 0.412277 0.283100
vt 0.429597 0.283100
vt 0.422268 0.283125
vt 0.422277 0.283100
vt 0.412277 0.283100
vt 0.412268 0.283125
vt 0.422277 0.283100
vt 0.429597 0.283100
vt 0.402268 0.283125
vt 0.423620 0.249310
vt 0.400933 0.249310
vt 0.412277 0.242761
vt 0.405728 0.244516
vt 0.400933 0.262408
vt 0.418826 0.244516
vt 0.418826 0.267203
vt 0.423620 0.262408
vt 0.412268 0.279791
vt 0.432277 0.255859
vt 0.429597 0.279767
vt 0.422268 0.279791
vt 0.429597 0.245859
vt 0.402277 0.279767
vt 0.402277 0.273180
vt 0.412277 0.279767
vt 0.412277 0.275859
vt 0.394956 0.279767
vt 0.422268 0.279791
vt 0.394956 0.245859
vt 0.412268 0.279791
vt 0.392277 0.255859
vt 0.412277 0.279767
vt 0.412277 0.235859
vt 0.402277 0.279767
vt 0.402277 0.238539
vt 0.394956 0.279767
vt 0.402268 0.279791
vt 0.394956 0.265859
vt 0.422277 0.279767
vt 0.422277 0.238539
vt 0.422277 0.279767
vt 0.422277 0.273180
vt 0.429597 0.279767
vt 0.402268 0.279791
vt 0.429597 0.265859
vt 0.425375 0.255859
vt 0.405728 0.267203
vt 0.412277 0.268958
vt 0.399178 0.255859
s 1
usemtl electronics_etx_part_1
f 323/704/92 321/698/92 226/500/92 228/504/92
f 321/699/93 322/703/93 225/498/93 226/501/93
f 324/708/94 323/705/94 228/505/94 227/502/94
f 322/701/95 324/709/95 227/503/95 225/499/95
f 221/486/96 223/492/96 300/648/96 230/508/96
f 223/493/94 224/495/94 299/646/94 300/649/94
f 222/489/93 221/487/93 230/509/93 229/506/93
f 224/496/97 222/490/97 229/507/97 299/647/97
f 237/523/94 233/515/94 231/510/94 232/512/94 234/517/94 235/519/94 236/521/94 238/525/94
f 244/534/98 237/524/98 238/526/98 246/536/98
f 246/537/99 238/527/99 236/522/99 245/535/99
f 237/524/100 244/534/100 241/531/100 233/516/100
f 233/516/101 241/531/101 239/528/101 231/511/101
f 245/535/102 236/522/102 235/520/102 243/533/102
f 243/533/103 235/520/103 234/518/103 242/532/103
f 231/511/104 239/528/104 240/529/104 232/513/104
f 232/514/105 240/530/105 242/532/105 234/518/105
f 255/556/93 257/561/93 260/567/93 262/571/93 261/569/93 259/565/93 258/563/93 256/558/93
f 253/551/94 249/543/94 247/538/94 248/540/94 250/545/94 251/547/94 252/549/94 254/553/94
f 260/568/98 253/552/98 254/554/98 262/572/98
f 262/573/99 254/555/99 252/550/99 261/570/99
f 253/552/100 260/568/100 257/562/100 249/544/100
f 249/544/101 257/562/101 255/557/101 247/539/101
f 261/570/102 252/550/102 251/548/102 259/566/102
f 259/566/103 251/548/103 250/546/103 258/564/103
f 247/539/104 255/557/104 256/559/104 248/541/104
f 248/542/105 256/560/105 258/564/105 250/546/105
f 269/587/93 265/579/93 263/574/93 264/576/93 266/581/93 267/583/93 268/585/93 270/589/93
f 276/598/99 269/588/99 270/590/99 278/600/99
f 278/601/98 270/591/98 268/586/98 277/599/98
f 269/588/102 276/598/102 273/595/102 265/580/102
f 265/580/103 273/595/103 271/592/103 263/575/103
f 277/599/100 268/586/100 267/584/100 275/597/100
f 275/597/101 267/584/101 266/582/101 274/596/101
f 263/575/105 271/592/105 272/593/105 264/577/105
f 264/578/104 272/594/104 274/596/104 266/582/104
f 287/620/94 289/625/94 292/631/94 294/635/94 293/633/94 291/629/94 290/627/94 288/622/94
f 285/615/93 281/607/93 279/602/93 280/604/93 282/609/93 283/611/93 284/613/93 286/617/93
f 292/632/99 285/616/99 286/618/99 294/636/99
f 294/637/98 286/619/98 284/614/98 293/634/98
f 285/616/102 292/632/102 289/626/102 281/608/102
f 281/608/103 289/626/103 287/621/103 279/603/103
f 293/634/100 284/614/100 283/612/100 291/630/100
f 291/630/101 283/612/101 282/610/101 290/628/101
f 279/603/105 287/621/105 288/623/105 280/605/105
f 280/606/104 288/624/104 290/628/104 282/610/104
f 230/508/106 300/648/106 298/644/106 296/640/106
f 300/649/94 299/646/94 297/642/94 298/645/94
f 229/506/93 230/509/93 296/641/93 295/638/93
f 299/647/107 229/507/107 295/639/107 297/643/107
f 296/640/108 298/644/108 304/656/108 302/652/108
f 298/645/94 297/642/94 303/654/94 304/657/94
f 295/638/93 296/641/93 302/653/93 301/650/93
f 297/643/109 295/639/109 301/651/109 303/655/109
f 221/488/110 222/491/110 224/497/110 223/494/110
f 313/678/93 315/683/93 318/690/93 320/696/93 319/693/93 317/688/93 316/685/93 314/681/93
f 311/673/94 307/663/94 305/658/94 306/661/94 308/665/94 309/668/94 310/670/94 312/676/94
f 318/691/111 311/674/111 312/677/112 320/697/112
f 320/697/112 312/677/112 310/671/110 319/694/110
f 311/675/111 318/692/111 315/684/113 307/664/113
f 307/664/113 315/684/113 313/679/114 305/659/114
f 319/695/110 310/672/110 309/669/115 317/689/115
f 317/689/115 309/669/115 308/666/116 316/686/116
f 305/660/114 313/680/114 314/682/117 306/662/117
f 306/662/117 314/682/117 316/687/116 308/667/116
f 302/652/116 304/656/116 324/710/116 322/702/116
f 304/657/94 303/654/94 323/706/94 324/710/94
f 301/650/93 302/653/93 322/703/93 321/700/93
f 303/655/111 301/651/111 321/700/111 323/707/111
f 331/724/93 327/716/93 325/711/93 326/713/93 328/718/93 329/720/93 330/722/93 332/726/93
f 338/735/99 331/725/99 332/727/99 340/737/99
f 340/738/98 332/728/98 330/723/98 339/736/98
f 331/725/102 338/735/102 335/732/102 327/717/102
f 327/717/103 335/732/103 333/729/103 325/712/103
f 339/736/100 330/723/100 329/721/100 337/734/100
f 337/734/101 329/721/101 328/719/101 336/733/101
f 325/712/105 333/729/105 334/730/105 326/714/105
f 326/715/104 334/731/104 336/733/104 328/719/104
f 349/757/94 351/762/94 354/768/94 356/772/94 355/770/94 353/766/94 352/764/94 350/759/94
f 347/752/93 343/744/93 341/739/93 342/741/93 344/746/93 345/748/93 346/750/93 348/754/93
f 354/769/99 347/753/99 348/755/99 356/773/99
f 356/774/98 348/756/98 346/751/98 355/771/98
f 347/753/102 354/769/102 351/763/102 343/745/102
f 343/745/103 351/763/103 349/758/103 341/740/103
f 355/771/100 346/751/100 345/749/100 353/767/100
f 353/767/101 345/749/101 344/747/101 352/765/101
f 341/740/105 349/758/105 350/760/105 342/742/105
f 342/743/104 350/761/104 352/765/104 344/747/104
f 362/782/118 383/813/118 384/815/116 357/775/116
f 357/775/116 384/815/116 381/808/119 358/776/119
f 358/777/119 381/809/119 382/811/120 359/778/120
f 380/806/121 365/786/121 361/781/122 379/804/122
f 379/804/122 361/781/122 360/779/110 385/817/110
f 385/818/110 360/780/110 359/778/120 382/811/120
f 383/813/118 362/782/118 364/785/123 386/820/123
f 386/820/123 364/785/123 363/783/114 378/801/114
f 378/802/114 363/784/114 366/787/124 377/799/124
f 365/786/121 380/806/121 387/822/111 367/788/111
f 367/788/111 387/822/111 388/824/125 368/789/125
f 368/790/125 388/825/125 377/799/124 366/787/124
f 389/827/126 369/791/127 378/803/127 377/800/126
f 390/828/128 391/829/129 380/807/129 379/805/128
f 370/792/130 392/830/131 382/812/131 381/810/130
f 371/793/132 372/794/133 384/816/133 383/814/132
f 372/794/133 370/792/130 381/810/130 384/816/133
f 373/795/134 390/828/128 379/805/128 385/819/134
f 392/830/131 373/795/134 385/819/134 382/812/131
f 374/796/135 371/793/132 383/814/132 386/821/135
f 369/791/127 374/796/135 386/821/135 378/803/127
f 391/829/129 375/797/136 387/823/136 380/807/129
f 375/797/136 376/798/137 388/826/137 387/823/136
f 376/798/137 389/827/126 377/800/126 388/826/137
f 375/797/93 391/829/93 390/828/93 373/795/93 392/830/93 370/792/93 372/794/93 371/793/93 374/796/93 369/791/93 389/827/93 376/798/93
o control_panel_etx_1_lever_child_1
v -0.336600 1.087647 0.174697
v -0.336600 1.106353 0.163897
v -0.325800 1.087647 0.174697
v -0.325800 1.106353 0.163897
v -0.336600 1.012047 0.043754
v -0.336600 1.030753 0.032954
v -0.325800 1.012047 0.043754
v -0.325800 1.030753 0.032954
v -0.336600 1.103588 0.144708
v -0.336600 1.072412 0.162708
v -0.195360 1.092193 0.138060
v -0.195360 1.079900 0.139678
v -0.195360 1.102030 0.145608
v -0.195360 1.072352 0.149515
v -0.195360 1.073970 0.161808
v -0.195360 1.083807 0.169356
v -0.195360 1.103648 0.157901
v -0.195360 1.096100 0.167738
v -0.200400 1.092193 0.138060
v -0.200400 1.079900 0.139678
v -0.200400 1.102030 0.145608
v -0.200400 1.072352 0.149515
v -0.200400 1.073970 0.161808
v -0.200400 1.103648 0.157901
v -0.200400 1.083807 0.169356
v -0.200400 1.096100 0.167738
v -0.186720 1.090795 0.143276
v -0.186720 1.082600 0.144355
v -0.186720 1.097353 0.148308
v -0.186720 1.077568 0.150913
v -0.186720 1.078647 0.159108
v -0.186720 1.085205 0.164140
v -0.186720 1.098432 0.156503
v -0.186720 1.093400 0.163061
v -0.195360 1.090795 0.143276
v -0.195360 1.082600 0.144355
v -0.195360 1.097353 0.148308
v -0.195360 1.077568 0.150913
v -0.195360 1.078647 0.159108
v -0.195360 1.098432 0.156503
v -0.195360 1.085205 0.164140
v -0.195360 1.093400 0.163061
v -0.341640 1.072352 0.149515
v -0.341640 1.079900 0.139679
v -0.341640 1.073970 0.161808
v -0.341640 1.092193 0.138060
v -0.341640 1.102030 0.145608
v -0.341640 1.103648 0.157901
v -0.341640 1.083807 0.169356
v -0.341640 1.096100 0.167738
v -0.336600 1.072352 0.149515
v -0.336600 1.079900 0.139679
v -0.336600 1.073970 0.161808
v -0.336600 1.092193 0.138060
v -0.336600 1.102030 0.145608
v -0.336600 1.083807 0.169356
v -0.336600 1.103648 0.157901
v -0.336600 1.096100 0.167738
v -0.350280 1.077568 0.150913
v -0.350280 1.082600 0.144355
v -0.350280 1.078647 0.159108
v -0.350280 1.090795 0.143276
v -0.350280 1.097353 0.148308
v -0.350280 1.098432 0.156503
v -0.350280 1.085205 0.164140
v -0.350280 1.093400 0.163061
v -0.341640 1.077568 0.150913
v -0.341640 1.082600 0.144355
v -0.341640 1.078647 0.159108
v -0.341640 1.090795 0.143276
v -0.341640 1.097353 0.148308
v -0.341640 1.085205 0.164140
v -0.341640 1.098432 0.156503
v -0.341640 1.093400 0.163061
v -0.336600 1.088353 0.132720
v -0.336600 1.069647 0.143520
v -0.325800 1.088353 0.132720
v -0.325800 1.069647 0.143520
v -0.325800 1.103588 0.144708
v -0.325800 1.072411 0.162708
v -0.336600 1.081088 0.105737
v -0.336600 1.049911 0.123737
v -0.325800 1.081088 0.105737
v -0.325800 1.049911 0.123737
v -0.200200 1.076300 0.133443
v -0.200200 1.065397 0.147652
v -0.200200 1.094056 0.131106
v -0.200200 1.067735 0.165408
v -0.200200 1.081944 0.176311
v -0.200200 1.099700 0.173973
v -0.200200 1.108265 0.142008
v -0.200200 1.110603 0.159765
v -0.325800 1.076300 0.133443
v -0.325800 1.065397 0.147652
v -0.325800 1.094056 0.131106
v -0.325800 1.067735 0.165408
v -0.325800 1.081944 0.176311
v -0.325800 1.108265 0.142008
v -0.325800 1.099700 0.173973
v -0.325800 1.110603 0.159765
v -0.336600 1.051389 0.054295
v -0.336600 1.020211 0.072295
v -0.325800 1.051389 0.054295
v -0.325800 1.020211 0.072295
v -0.344700 0.996440 0.023759
v -0.344700 1.005875 0.011464
v -0.344700 0.998463 0.039126
v -0.344700 1.021241 0.009441
v -0.344700 1.033537 0.018876
v -0.344700 1.035560 0.034242
v -0.344700 1.010759 0.048561
v -0.344700 1.026125 0.046538
v -0.318600 0.996440 0.023759
v -0.318600 1.005875 0.011464
v -0.318600 0.998463 0.039126
v -0.318600 1.021241 0.009441
v -0.318600 1.033537 0.018876
v -0.318600 1.010759 0.048561
v -0.318600 1.035560 0.034242
v -0.318600 1.026125 0.046538
v -0.355500 1.002960 0.025506
v -0.355500 1.009250 0.017309
v -0.355500 1.004309 0.035751
v -0.355500 1.019494 0.015961
v -0.355500 1.027691 0.022251
v -0.355500 1.029040 0.032495
v -0.355500 1.012506 0.042041
v -0.355500 1.022750 0.040692
v -0.344700 1.002960 0.025506
v -0.344700 1.009250 0.017309
v -0.344700 1.004309 0.035751
v -0.344700 1.019494 0.015961
v -0.344700 1.027691 0.022251
v -0.344700 1.012506 0.042041
v -0.344700 1.029040 0.032495
v -0.344700 1.022750 0.040692
v -0.296999 0.978588 0.050600
v -0.296999 0.994400 0.066412
v -0.296999 1.016000 0.072200
v -0.296999 1.037600 0.066412
v -0.296999 1.053413 0.050600
v -0.296999 0.972800 0.029000
v -0.296999 0.994400 -0.008412
v -0.296999 0.978588 0.007400
v -0.296999 1.059200 0.029000
v -0.296999 1.016000 -0.014200
v -0.296999 1.053413 0.007400
v -0.296999 1.037600 -0.008412
v -0.318599 1.001854 0.004499
v -0.318599 1.001854 0.053502
v -0.318599 0.987708 0.029000
v -0.318599 0.991499 0.043146
v -0.318599 1.030146 0.053502
v -0.318599 0.991499 0.014854
v -0.318599 1.040502 0.014854
v -0.318599 1.030146 0.004499
v -0.304199 1.016000 -0.014200
v -0.304199 0.994400 -0.008412
v -0.304199 1.053413 0.050600
v -0.304199 1.059200 0.029000
v -0.304199 0.994400 0.066412
v -0.304199 1.016000 0.072200
v -0.304199 0.972800 0.029000
v -0.304199 0.978588 0.050600
v -0.304199 1.037600 0.066412
v -0.304199 0.978588 0.007400
v -0.304199 1.053413 0.007400
v -0.304199 1.037600 -0.008412
v -0.318599 1.016000 0.000708
v -0.318599 1.040502 0.043146
v -0.318599 1.044292 0.029000
v -0.318599 1.016000 0.057292
vn -0.0000 0.7189 -0.6951
vn -1.0000 -0.0000 -0.0000
vn 1.0000 -0.0000 -0.0000
vn -0.0000 -0.9614 0.2750
vn -0.0000 -0.6184 0.7859
vn -0.0000 0.9898 -0.1426
vn -0.0000 0.7934 0.6088
vn -0.0000 0.1305 0.9914
vn -0.0000 0.9914 -0.1305
vn -0.0000 0.6088 -0.7934
vn -0.0000 -0.6088 0.7934
vn -0.0000 -0.9914 0.1305
vn -0.0000 -0.1305 -0.9914
vn -0.0000 -0.7934 -0.6088
vn -0.0000 -0.9898 0.1426
vn -0.0000 0.6184 -0.7859
vn -0.0000 -0.7080 0.7063
vn -0.0000 0.9656 -0.2600
vn -0.0000 0.5000 0.8660
vn -0.0000 0.8660 -0.5000
vn -0.0000 0.9659 0.2588
vn -0.0000 0.2588 -0.9659
vn -0.0000 -0.5000 -0.8660
vn -0.0000 -0.2588 0.9659
vn -0.0000 -0.8660 0.5000
vn -0.0000 -0.9659 -0.2588
vn -0.0000 -1.0000 -0.0000
vn -0.0000 -0.5000 0.8660
vn -0.0000 -0.0000 1.0000
vn -0.0000 1.0000 -0.0000
vn -0.0000 0.8660 0.5000
vn -0.0000 -0.8660 -0.5000
vn -0.0000 -0.0000 -1.0000
vn -0.0000 0.5000 -0.8660
vn -0.7193 -0.0000 -0.6947
vn -0.7193 -0.3474 -0.6017
vn -0.7193 0.6017 0.3474
vn -0.7193 0.6947 -0.0000
vn -0.7193 -0.3474 0.6017
vn -0.7193 -0.0000 0.6947
vn -0.7193 -0.6947 -0.0000
vn -0.7193 -0.6017 0.3474
vn -0.7193 0.3474 0.6017
vn -0.7193 -0.6017 -0.3474
vn -0.7193 0.6017 -0.3474
vn -0.7193 0.3474 -0.6017
vt 0.912505 0.761526
vt 0.911715 0.778254
vt 0.912495 0.766134
vt 0.911715 0.769075
vt 0.912505 0.766116
vt 0.903315 0.766134
vt 0.912505 0.766116
vt 0.911715 0.769075
vt 0.912495 0.761544
vt 0.911715 0.778255
vt 0.912505 0.761526
vt 0.903315 0.761544
vt 0.847448 0.778256
vt 0.846344 0.761526
vt 0.846424 0.766106
vt 0.847383 0.769085
vt 0.847383 0.769085
vt 0.846424 0.766106
vt 0.846344 0.761526
vt 0.847448 0.778256
vt 0.904065 0.766015
vt 0.904266 0.766116
vt 0.904266 0.761526
vt 0.904065 0.781314
vt 0.315074 0.542969
vt 0.309534 0.542969
vt 0.313176 0.538387
vt 0.309534 0.538387
vt 0.309534 0.547551
vt 0.313176 0.547551
vt 0.309534 0.547551
vt 0.308594 0.536489
vt 0.309534 0.542969
vt 0.304012 0.538387
vt 0.309534 0.538387
vt 0.302114 0.542969
vt 0.309534 0.542969
vt 0.308594 0.549449
vt 0.309534 0.542969
vt 0.304012 0.547551
vt 0.309534 0.538387
vt 0.309534 0.547551
vt 0.311550 0.542969
vt 0.311550 0.538387
vt 0.311550 0.547551
vt 0.311550 0.547551
vt 0.311550 0.542969
vt 0.311550 0.538387
vt 0.311550 0.542969
vt 0.311550 0.542969
vt 0.311550 0.538387
vt 0.311550 0.547551
vt 0.312914 0.542969
vt 0.306078 0.542969
vt 0.311648 0.539914
vt 0.306078 0.539914
vt 0.306078 0.546023
vt 0.311648 0.546023
vt 0.306078 0.546023
vt 0.308594 0.538649
vt 0.306078 0.542969
vt 0.305539 0.539914
vt 0.306078 0.539914
vt 0.304274 0.542969
vt 0.306078 0.542969
vt 0.308594 0.547289
vt 0.306078 0.542969
vt 0.305539 0.546023
vt 0.306078 0.539914
vt 0.306078 0.546023
vt 0.312914 0.542969
vt 0.309534 0.542969
vt 0.311648 0.539914
vt 0.309534 0.539914
vt 0.309534 0.546023
vt 0.311648 0.546023
vt 0.309534 0.546023
vt 0.308594 0.538649
vt 0.309534 0.542969
vt 0.305539 0.539914
vt 0.309534 0.539914
vt 0.308594 0.547289
vt 0.309534 0.542969
vt 0.304274 0.542969
vt 0.309534 0.542969
vt 0.305539 0.546023
vt 0.309534 0.539914
vt 0.309534 0.546023
vt 0.315074 0.542969
vt 0.309534 0.542969
vt 0.313176 0.538387
vt 0.309534 0.538387
vt 0.309534 0.547551
vt 0.313176 0.547551
vt 0.309534 0.547551
vt 0.308594 0.536489
vt 0.309534 0.542969
vt 0.304012 0.538387
vt 0.309534 0.538387
vt 0.302114 0.542969
vt 0.309534 0.542969
vt 0.308594 0.549449
vt 0.309534 0.542969
vt 0.304012 0.547551
vt 0.309534 0.538387
vt 0.309534 0.547551
vt 0.311550 0.542969
vt 0.311550 0.538387
vt 0.311550 0.547551
vt 0.311550 0.547551
vt 0.311550 0.542969
vt 0.311550 0.538387
vt 0.311550 0.542969
vt 0.311550 0.542969
vt 0.311550 0.538387
vt 0.311550 0.547551
vt 0.312914 0.542969
vt 0.306078 0.542969
vt 0.311648 0.539914
vt 0.306078 0.539914
vt 0.306078 0.546023
vt 0.311648 0.546023
vt 0.306078 0.546023
vt 0.308594 0.538649
vt 0.306078 0.542969
vt 0.305539 0.539914
vt 0.306078 0.539914
vt 0.304274 0.542969
vt 0.306078 0.542969
vt 0.308594 0.547289
vt 0.306078 0.542969
vt 0.305539 0.546023
vt 0.306078 0.539914
vt 0.306078 0.546023
vt 0.312914 0.542969
vt 0.309534 0.542969
vt 0.311648 0.539914
vt 0.309534 0.539914
vt 0.309534 0.546023
vt 0.311648 0.546023
vt 0.309534 0.546023
vt 0.308594 0.538649
vt 0.309534 0.542969
vt 0.305539 0.539914
vt 0.309534 0.539914
vt 0.308594 0.547289
vt 0.309534 0.542969
vt 0.304274 0.542969
vt 0.309534 0.542969
vt 0.305539 0.546023
vt 0.309534 0.539914
vt 0.309534 0.546023
vt 0.896416 0.769075
vt 0.896027 0.766116
vt 0.896027 0.761526
vt 0.896416 0.778255
vt 0.896416 0.778254
vt 0.896027 0.761526
vt 0.896027 0.766116
vt 0.896416 0.769075
vt 0.904065 0.781314
vt 0.904266 0.761526
vt 0.904266 0.766116
vt 0.904065 0.766015
vt 0.884941 0.766015
vt 0.884152 0.766116
vt 0.884152 0.761526
vt 0.884941 0.781314
vt 0.884941 0.781314
vt 0.884152 0.761526
vt 0.884152 0.766116
vt 0.884941 0.766015
vt 0.083253 0.127314
vt 0.066406 0.125426
vt 0.078125 0.125426
vt 0.088640 0.127314
vt 0.072266 0.125426
vt 0.079444 0.131124
vt 0.072266 0.125426
vt 0.092449 0.131124
vt 0.078125 0.125426
vt 0.066406 0.125426
vt 0.092449 0.136511
vt 0.072266 0.125426
vt 0.088640 0.140320
vt 0.078125 0.125426
vt 0.066406 0.125426
vt 0.079444 0.136511
vt 0.066406 0.125426
vt 0.078125 0.125426
vt 0.083253 0.140320
vt 0.072266 0.125426
vt 0.083250 0.127314
vt 0.066406 0.170028
vt 0.078125 0.170028
vt 0.079440 0.131124
vt 0.072266 0.170028
vt 0.088637 0.127314
vt 0.072266 0.170028
vt 0.079440 0.136511
vt 0.078125 0.170028
vt 0.066406 0.170028
vt 0.083250 0.140320
vt 0.072266 0.170028
vt 0.092446 0.131124
vt 0.066406 0.170028
vt 0.078125 0.170028
vt 0.088637 0.140320
vt 0.078125 0.170028
vt 0.066406 0.170028
vt 0.092446 0.136511
vt 0.072266 0.170028
vt 0.858446 0.766083
vt 0.859040 0.766047
vt 0.858927 0.766071
vt 0.858296 0.761521
vt 0.858702 0.761510
vt 0.859213 0.781329
vt 0.858875 0.761515
vt 0.860071 0.781322
vt 0.859953 0.781328
vt 0.859368 0.761511
vt 0.859875 0.766048
vt 0.859032 0.766086
vt 0.859696 0.766061
vt 0.304969 0.542969
vt 0.282976 0.542969
vt 0.301454 0.534483
vt 0.282976 0.534483
vt 0.282976 0.551454
vt 0.301454 0.551454
vt 0.282976 0.551454
vt 0.292969 0.530969
vt 0.282976 0.542969
vt 0.284483 0.534483
vt 0.282976 0.534483
vt 0.280969 0.542969
vt 0.282976 0.542969
vt 0.292969 0.554969
vt 0.282976 0.542969
vt 0.284483 0.551454
vt 0.282976 0.534483
vt 0.282976 0.551454
vt 0.298442 0.542969
vt 0.298442 0.534483
vt 0.298442 0.551454
vt 0.298442 0.551454
vt 0.298442 0.542969
vt 0.298442 0.534483
vt 0.298442 0.542969
vt 0.298442 0.542969
vt 0.298442 0.534483
vt 0.298442 0.551454
vt 0.064641 0.214844
vt 0.053919 0.230469
vt 0.062297 0.209187
vt 0.053919 0.224812
vt 0.053919 0.236126
vt 0.062297 0.220501
vt 0.053919 0.236126
vt 0.056641 0.206844
vt 0.053919 0.230469
vt 0.050984 0.209187
vt 0.053919 0.224812
vt 0.048641 0.214844
vt 0.053919 0.230469
vt 0.056641 0.222844
vt 0.053919 0.230469
vt 0.050984 0.220501
vt 0.053919 0.224812
vt 0.053919 0.236125
vt 0.064641 0.214844
vt 0.060320 0.230469
vt 0.062297 0.209187
vt 0.060319 0.224812
vt 0.060319 0.236126
vt 0.062297 0.220501
vt 0.060320 0.236126
vt 0.056641 0.206844
vt 0.060320 0.230469
vt 0.050984 0.209187
vt 0.060320 0.224812
vt 0.056641 0.222844
vt 0.060320 0.230469
vt 0.048641 0.214844
vt 0.060320 0.230469
vt 0.050984 0.220501
vt 0.060319 0.224812
vt 0.060319 0.236126
vt 0.402277 0.283100
vt 0.394956 0.283100
vt 0.422268 0.283125
vt 0.412268 0.283125
vt 0.394956 0.283100
vt 0.402268 0.283125
vt 0.402277 0.283100
vt 0.412277 0.283100
vt 0.429597 0.283100
vt 0.422268 0.283125
vt 0.422277 0.283100
vt 0.412277 0.283100
vt 0.412268 0.283125
vt 0.422277 0.283100
vt 0.429597 0.283100
vt 0.402268 0.283125
vt 0.423620 0.249310
vt 0.400933 0.249310
vt 0.412277 0.242761
vt 0.405728 0.244516
vt 0.400933 0.262408
vt 0.418826 0.244516
vt 0.418826 0.267203
vt 0.423620 0.262408
vt 0.412268 0.279791
vt 0.432277 0.255859
vt 0.429597 0.279767
vt 0.422268 0.279791
vt 0.429597 0.245859
vt 0.402277 0.279767
vt 0.402277 0.273180
vt 0.412277 0.279767
vt 0.412277 0.275859
vt 0.394956 0.279767
vt 0.422268 0.279791
vt 0.394956 0.245859
vt 0.412268 0.279791
vt 0.392277 0.255859
vt 0.412277 0.279767
vt 0.412277 0.235859
vt 0.402277 0.279767
vt 0.402277 0.238539
vt 0.394956 0.279767
vt 0.402268 0.279791
vt 0.394956 0.265859
vt 0.422277 0.279767
vt 0.422277 0.238539
vt 0.422277 0.279767
vt 0.422277 0.273180
vt 0.429597 0.279767
vt 0.402268 0.279791
vt 0.429597 0.265859
vt 0.425375 0.255859
vt 0.405728 0.267203
vt 0.412277 0.268958
vt 0.399178 0.255859
s 1
usemtl electronics_etx_part_1
f 495/1049/138 400/849/138 398/845/138 493/1043/138
f 493/1044/139 398/846/139 397/843/139 494/1048/139
f 496/1053/140 399/847/140 400/850/140 495/1050/140
f 494/1046/141 397/844/141 399/848/141 496/1054/141
f 393/831/142 402/853/142 472/993/142 395/837/142
f 395/838/140 472/994/140 471/991/140 396/840/140
f 394/834/139 401/851/139 402/854/139 393/832/139
f 396/841/143 471/992/143 401/852/143 394/835/143
f 409/868/140 410/870/140 408/866/140 407/864/140 406/862/140 404/857/140 403/855/140 405/860/140
f 416/879/144 418/881/144 410/871/144 409/869/144
f 418/882/145 417/880/145 408/867/145 410/872/145
f 409/869/146 405/861/146 413/876/146 416/879/146
f 405/861/147 403/856/147 411/873/147 413/876/147
f 417/880/148 415/878/148 407/865/148 408/867/148
f 415/878/149 414/877/149 406/863/149 407/865/149
f 403/856/150 404/858/150 412/874/150 411/873/150
f 404/859/151 406/863/151 414/877/151 412/875/151
f 427/901/139 428/903/139 430/908/139 431/910/139 433/914/139 434/916/139 432/912/139 429/906/139
f 425/896/140 426/898/140 424/894/140 423/892/140 422/890/140 420/885/140 419/883/140 421/888/140
f 432/913/144 434/917/144 426/899/144 425/897/144
f 434/918/145 433/915/145 424/895/145 426/900/145
f 425/897/146 421/889/146 429/907/146 432/913/146
f 421/889/147 419/884/147 427/902/147 429/907/147
f 433/915/148 431/911/148 423/893/148 424/895/148
f 431/911/149 430/909/149 422/891/149 423/893/149
f 419/884/150 420/886/150 428/904/150 427/902/150
f 420/887/151 422/891/151 430/909/151 428/905/151
f 441/932/139 442/934/139 440/930/139 439/928/139 438/926/139 436/921/139 435/919/139 437/924/139
f 448/943/145 450/945/145 442/935/145 441/933/145
f 450/946/144 449/944/144 440/931/144 442/936/144
f 441/933/148 437/925/148 445/940/148 448/943/148
f 437/925/149 435/920/149 443/937/149 445/940/149
f 449/944/146 447/942/146 439/929/146 440/931/146
f 447/942/147 446/941/147 438/927/147 439/929/147
f 435/920/151 436/922/151 444/938/151 443/937/151
f 436/923/150 438/927/150 446/941/150 444/939/150
f 459/965/140 460/967/140 462/972/140 463/974/140 465/978/140 466/980/140 464/976/140 461/970/140
f 457/960/139 458/962/139 456/958/139 455/956/139 454/954/139 452/949/139 451/947/139 453/952/139
f 464/977/145 466/981/145 458/963/145 457/961/145
f 466/982/144 465/979/144 456/959/144 458/964/144
f 457/961/148 453/953/148 461/971/148 464/977/148
f 453/953/149 451/948/149 459/966/149 461/971/149
f 465/979/146 463/975/146 455/957/146 456/959/146
f 463/975/147 462/973/147 454/955/147 455/957/147
f 451/948/151 452/950/151 460/968/151 459/966/151
f 452/951/150 454/955/150 462/973/150 460/969/150
f 402/853/152 468/985/152 470/989/152 472/993/152
f 472/994/140 470/990/140 469/987/140 471/991/140
f 401/851/139 467/983/139 468/986/139 402/854/139
f 471/992/153 469/988/153 467/984/153 401/852/153
f 468/985/154 474/997/154 476/1001/154 470/989/154
f 470/990/140 476/1002/140 475/999/140 469/987/140
f 467/983/139 473/995/139 474/998/139 468/986/139
f 469/988/155 475/1000/155 473/996/155 467/984/155
f 393/833/156 395/839/156 396/842/156 394/836/156
f 485/1023/139 486/1026/139 488/1030/139 489/1033/139 491/1038/139 492/1041/139 490/1035/139 487/1028/139
f 483/1018/140 484/1021/140 482/1015/140 481/1013/140 480/1010/140 478/1006/140 477/1003/140 479/1008/140
f 490/1036/157 492/1042/158 484/1022/158 483/1019/157
f 492/1042/158 491/1039/156 482/1016/156 484/1022/158
f 483/1020/157 479/1009/159 487/1029/159 490/1037/157
f 479/1009/159 477/1004/160 485/1024/160 487/1029/159
f 491/1040/156 489/1034/161 481/1014/161 482/1017/156
f 489/1034/161 488/1031/162 480/1011/162 481/1014/161
f 477/1005/160 478/1007/163 486/1027/163 485/1025/160
f 478/1007/163 480/1012/162 488/1032/162 486/1027/163
f 474/997/162 494/1047/162 496/1055/162 476/1001/162
f 476/1002/140 496/1055/140 495/1051/140 475/999/140
f 473/995/139 493/1045/139 494/1048/139 474/998/139
f 475/1000/157 495/1052/157 493/1045/157 473/996/157
f 503/1069/139 504/1071/139 502/1067/139 501/1065/139 500/1063/139 498/1058/139 497/1056/139 499/1061/139
f 510/1080/145 512/1082/145 504/1072/145 503/1070/145
f 512/1083/144 511/1081/144 502/1068/144 504/1073/144
f 503/1070/148 499/1062/148 507/1077/148 510/1080/148
f 499/1062/149 497/1057/149 505/1074/149 507/1077/149
f 511/1081/146 509/1079/146 501/1066/146 502/1068/146
f 509/1079/147 508/1078/147 500/1064/147 501/1066/147
f 497/1057/151 498/1059/151 506/1075/151 505/1074/151
f 498/1060/150 500/1064/150 508/1078/150 506/1076/150
f 521/1102/140 522/1104/140 524/1109/140 525/1111/140 527/1115/140 528/1117/140 526/1113/140 523/1107/140
f 519/1097/139 520/1099/139 518/1095/139 517/1093/139 516/1091/139 514/1086/139 513/1084/139 515/1089/139
f 526/1114/145 528/1118/145 520/1100/145 519/1098/145
f 528/1119/144 527/1116/144 518/1096/144 520/1101/144
f 519/1098/148 515/1090/148 523/1108/148 526/1114/148
f 515/1090/149 513/1085/149 521/1103/149 523/1108/149
f 527/1116/146 525/1112/146 517/1094/146 518/1096/146
f 525/1112/147 524/1110/147 516/1092/147 517/1094/147
f 513/1085/151 514/1087/151 522/1105/151 521/1103/151
f 514/1088/150 516/1092/150 524/1110/150 522/1106/150
f 534/1127/164 529/1120/162 556/1160/162 555/1158/164
f 529/1120/162 530/1121/165 553/1153/165 556/1160/162
f 530/1122/165 531/1123/166 554/1156/166 553/1154/165
f 552/1151/167 551/1149/168 533/1126/168 537/1131/167
f 551/1149/168 557/1162/156 532/1124/156 533/1126/168
f 557/1163/156 554/1156/166 531/1123/166 532/1125/156
f 555/1158/164 558/1165/169 536/1130/169 534/1127/164
f 558/1165/169 550/1146/160 535/1128/160 536/1130/169
f 550/1147/160 549/1144/170 538/1132/170 535/1129/160
f 537/1131/167 539/1133/157 559/1167/157 552/1151/167
f 539/1133/157 540/1134/171 560/1169/171 559/1167/157
f 540/1135/171 538/1132/170 549/1144/170 560/1170/171
f 561/1172/172 549/1145/172 550/1148/173 541/1136/173
f 562/1173/174 551/1150/174 552/1152/175 563/1174/175
f 542/1137/176 553/1155/176 554/1157/177 564/1175/177
f 543/1138/178 555/1159/178 556/1161/179 544/1139/179
f 544/1139/179 556/1161/179 553/1155/176 542/1137/176
f 545/1140/180 557/1164/180 551/1150/174 562/1173/174
f 564/1175/177 554/1157/177 557/1164/180 545/1140/180
f 546/1141/181 558/1166/181 555/1159/178 543/1138/178
f 541/1136/173 550/1148/173 558/1166/181 546/1141/181
f 563/1174/175 552/1152/175 559/1168/182 547/1142/182
f 547/1142/182 559/1168/182 560/1171/183 548/1143/183
f 548/1143/183 560/1171/183 549/1145/172 561/1172/172
f 547/1142/139 548/1143/139 561/1172/139 541/1136/139 546/1141/139 543/1138/139 544/1139/139 542/1137/139 564/1175/139 545/1140/139 562/1173/139 563/1174/139
o control_panel_etx_1_knob_child_2
v -0.049329 0.910474 0.239580
v -0.057448 0.890873 0.239580
v -0.029728 0.918593 0.239580
v -0.049329 0.871272 0.239580
v -0.029728 0.863153 0.239580
v -0.010127 0.871272 0.239580
v -0.010127 0.910474 0.239580
v -0.002008 0.890873 0.239580
v -0.019928 0.914534 0.239580
v -0.006068 0.900674 0.239580
v -0.053389 0.881073 0.239580
v -0.039529 0.867213 0.239580
v -0.019928 0.914534 0.253440
v -0.010127 0.910474 0.260370
v -0.039529 0.867213 0.253440
v -0.049329 0.871272 0.260370
v -0.006068 0.900674 0.253440
v -0.053389 0.881073 0.253440
v -0.010127 0.910474 0.225720
v -0.029728 0.918593 0.225720
v -0.057448 0.890873 0.225720
v -0.049329 0.871272 0.225720
v -0.049329 0.910474 0.225720
v -0.010127 0.871272 0.225720
v -0.002008 0.890873 0.225720
v -0.029728 0.863153 0.225720
v -0.042446 0.890873 0.225720
v -0.038721 0.899866 0.225720
v -0.029728 0.903591 0.225720
v -0.020735 0.881880 0.225720
v -0.038721 0.881880 0.225720
v -0.029728 0.878155 0.225720
v -0.020735 0.899866 0.225720
v -0.017010 0.890873 0.225720
v -0.020735 0.899866 0.217800
v -0.029728 0.903591 0.217800
v -0.042446 0.890873 0.217800
v -0.038721 0.881880 0.217800
v -0.038721 0.899866 0.217800
v -0.020735 0.881880 0.217800
v -0.017010 0.890873 0.217800
v -0.029728 0.878155 0.217800
vn 0.7071 -0.7071 -0.0000
vn -0.9239 -0.3827 -0.0000
vn -0.9239 0.3827 -0.0000
vn 0.3827 0.9239 -0.0000
vn -0.3827 0.9239 -0.0000
vn -0.3827 -0.9239 -0.0000
vn 0.3827 -0.9239 -0.0000
vn 0.9239 0.3827 -0.0000
vn 0.9239 -0.3827 -0.0000
vn -0.0000 -0.0000 1.0000
vn -0.4082 0.4082 0.8165
vn -0.7071 0.7071 -0.0000
vn 0.4082 -0.4082 0.8165
vn -0.0000 -0.0000 -1.0000
vt 0.187893 0.187500
vt 0.176833 0.187500
vt 0.179958 0.187893
vt 0.187893 0.179958
vt 0.179958 0.179958
vt 0.179958 0.187893
vt 0.187893 0.195042
vt 0.179958 0.195042
vt 0.187500 0.187893
vt 0.195042 0.187893
vt 0.187893 0.179958
vt 0.195042 0.179958
vt 0.187893 0.187500
vt 0.198167 0.187500
vt 0.187500 0.187893
vt 0.195042 0.187893
vt 0.187893 0.195042
vt 0.195042 0.195042
vt 0.183729 0.196605
vt 0.183729 0.187893
vt 0.187893 0.196605
vt 0.187893 0.196605
vt 0.191271 0.196605
vt 0.191271 0.187893
vt 0.183729 0.178395
vt 0.183729 0.187893
vt 0.187893 0.178395
vt 0.187893 0.178395
vt 0.191271 0.178395
vt 0.191271 0.187893
vt 0.183729 0.196605
vt 0.183729 0.182560
vt 0.182560 0.196605
vt 0.187500 0.179893
vt 0.187500 0.198167
vt 0.182560 0.178395
vt 0.191271 0.182560
vt 0.191271 0.178395
vt 0.187500 0.179893
vt 0.187500 0.176833
vt 0.182560 0.196605
vt 0.191271 0.182560
vt 0.191271 0.196605
vt 0.183729 0.178395
vt 0.183729 0.182560
vt 0.182560 0.178395
vt 0.187500 0.193226
vt 0.187500 0.198167
vt 0.179958 0.193226
vt 0.193226 0.195042
vt 0.179958 0.195042
vt 0.179958 0.193226
vt 0.193226 0.179958
vt 0.179958 0.179958
vt 0.187500 0.193226
vt 0.187500 0.176833
vt 0.193226 0.187500
vt 0.176833 0.187500
vt 0.193226 0.187500
vt 0.198167 0.187500
vt 0.195042 0.193226
vt 0.193226 0.195042
vt 0.195042 0.195042
vt 0.195042 0.193226
vt 0.193226 0.179958
vt 0.195042 0.179958
vt 0.184039 0.184040
vt 0.182606 0.187500
vt 0.184040 0.190961
vt 0.192394 0.187500
vt 0.187500 0.182606
vt 0.190961 0.184040
vt 0.187500 0.192394
vt 0.190961 0.190961
vt 0.187500 0.192394
vt 0.184040 0.190961
vt 0.184039 0.184040
vt 0.187500 0.182606
vt 0.182606 0.187500
vt 0.192394 0.187500
vt 0.190961 0.190961
vt 0.190961 0.184040
s 0
usemtl electronics_etx_part_1
f 576/1203/184 574/1197/184 581/1216/184 579/1211/184
f 586/1230/185 568/1184/185 575/1201/185 566/1178/185 585/1227/185
f 585/1228/186 566/1179/186 565/1176/186 587/1232/186
f 571/1190/187 583/1222/187 584/1224/187 567/1181/187 573/1195/187
f 567/1182/188 584/1225/188 587/1232/188 565/1176/188
f 568/1184/189 586/1230/189 590/1239/189 569/1185/189 576/1205/189
f 569/1186/190 590/1240/190 588/1234/190 570/1188/190
f 583/1222/191 571/1190/191 574/1199/191 572/1191/191 589/1236/191
f 589/1237/192 572/1192/192 570/1188/192 588/1234/192
f 575/1200/193 573/1194/193 567/1183/193 565/1177/193 566/1180/193
f 580/1215/194 578/1210/194 577/1206/194 582/1219/194
f 576/1204/193 569/1187/193 570/1189/193 572/1193/193 574/1198/193
f 571/1190/187 573/1195/187 577/1207/187 578/1209/187
f 575/1201/185 568/1184/185 580/1214/185 582/1220/185
f 568/1184/189 576/1205/189 579/1212/189 580/1214/189
f 574/1199/191 571/1190/191 578/1209/191 581/1217/191
f 573/1196/195 575/1202/195 582/1221/195 577/1208/195
f 579/1213/196 581/1218/196 578/1210/196 580/1215/196
f 589/1238/197 588/1235/197 590/1241/197 586/1231/197 585/1229/197 587/1233/197 584/1226/197 583/1223/197
f 593/1244/187 597/1248/187 599/1250/187 600/1251/187
f 597/1248/191 598/1249/191 605/1256/191 599/1250/191
f 596/1247/189 595/1246/189 602/1253/189 606/1257/189
f 598/1249/192 594/1245/192 604/1255/192 605/1256/192
f 595/1246/185 591/1242/185 601/1252/185 602/1253/185
f 594/1245/190 596/1247/190 606/1257/190 604/1255/190
f 592/1243/188 593/1244/188 600/1251/188 603/1254/188
f 591/1242/186 592/1243/186 603/1254/186 601/1252/186
o control_panel_etx_1_knob_child
v -0.207618 0.910502 0.239580
v -0.215737 0.890901 0.239580
v -0.188017 0.918621 0.239580
v -0.207618 0.871300 0.239580
v -0.188017 0.863181 0.239580
v -0.168416 0.871300 0.239580
v -0.168416 0.910502 0.239580
v -0.160297 0.890901 0.239580
v -0.178216 0.914562 0.239580
v -0.164356 0.900702 0.239580
v -0.211678 0.881101 0.239580
v -0.197818 0.867240 0.239580
v -0.178216 0.914562 0.253440
v -0.168416 0.910502 0.260370
v -0.197818 0.867240 0.253440
v -0.207618 0.871300 0.260370
v -0.164356 0.900702 0.253440
v -0.211678 0.881101 0.253440
v -0.168416 0.910502 0.225720
v -0.188017 0.918621 0.225720
v -0.215737 0.890901 0.225720
v -0.207618 0.871300 0.225720
v -0.207618 0.910502 0.225720
v -0.168416 0.871300 0.225720
v -0.160297 0.890901 0.225720
v -0.188017 0.863181 0.225720
v -0.200735 0.890901 0.225720
v -0.197010 0.899894 0.225720
v -0.188017 0.903619 0.225720
v -0.179024 0.881908 0.225720
v -0.197010 0.881908 0.225720
v -0.188017 0.878183 0.225720
v -0.179024 0.899894 0.225720
v -0.175299 0.890901 0.225720
v -0.179024 0.899894 0.217800
v -0.188017 0.903619 0.217800
v -0.200735 0.890901 0.217800
v -0.197010 0.881908 0.217800
v -0.197010 0.899894 0.217800
v -0.179024 0.881908 0.217800
v -0.175299 0.890901 0.217800
v -0.188017 0.878183 0.217800
vn 0.7071 -0.7071 -0.0000
vn -0.9239 -0.3827 -0.0000
vn -0.9239 0.3827 -0.0000
vn 0.3827 0.9239 -0.0000
vn -0.3827 0.9239 -0.0000
vn -0.3827 -0.9239 -0.0000
vn 0.3827 -0.9239 -0.0000
vn 0.9239 0.3827 -0.0000
vn 0.9239 -0.3827 -0.0000
vn -0.0000 -0.0000 1.0000
vn -0.4082 0.4082 0.8165
vn -0.7071 0.7071 -0.0000
vn 0.4082 -0.4082 0.8165
vn -0.0000 -0.0000 -1.0000
vt 0.187893 0.187500
vt 0.176833 0.187500
vt 0.179958 0.187893
vt 0.187893 0.179958
vt 0.179958 0.179958
vt 0.179958 0.187893
vt 0.187893 0.195042
vt 0.179958 0.195042
vt 0.187500 0.187893
vt 0.195042 0.187893
vt 0.187893 0.179958
vt 0.195042 0.179958
vt 0.187893 0.187500
vt 0.198167 0.187500
vt 0.187500 0.187893
vt 0.195042 0.187893
vt 0.187893 0.195042
vt 0.195042 0.195042
vt 0.183729 0.196605
vt 0.183729 0.187893
vt 0.187893 0.196605
vt 0.187893 0.196605
vt 0.191271 0.196605
vt 0.191271 0.187893
vt 0.183729 0.178395
vt 0.183729 0.187893
vt 0.187893 0.178395
vt 0.187893 0.178395
vt 0.191271 0.178395
vt 0.191271 0.187893
vt 0.183729 0.196605
vt 0.183729 0.182560
vt 0.182560 0.196605
vt 0.187500 0.179893
vt 0.187500 0.198167
vt 0.182560 0.178395
vt 0.191271 0.182560
vt 0.191271 0.178395
vt 0.187500 0.179893
vt 0.187500 0.176833
vt 0.182560 0.196605
vt 0.191271 0.182560
vt 0.191271 0.196605
vt 0.183729 0.178395
vt 0.183729 0.182560
vt 0.182560 0.178395
vt 0.187500 0.193226
vt 0.187500 0.198167
vt 0.179958 0.193226
vt 0.193226 0.195042
vt 0.179958 0.195042
vt 0.179958 0.193226
vt 0.193226 0.179958
vt 0.179958 0.179958
vt 0.187500 0.193226
vt 0.187500 0.176833
vt 0.193226 0.187500
vt 0.176833 0.187500
vt 0.193226 0.187500
vt 0.198167 0.187500
vt 0.195042 0.193226
vt 0.193226 0.195042
vt 0.195042 0.195042
vt 0.195042 0.193226
vt 0.193226 0.179958
vt 0.195042 0.179958
vt 0.184039 0.184040
vt 0.182606 0.187500
vt 0.184040 0.190961
vt 0.192394 0.187500
vt 0.187500 0.182606
vt 0.190961 0.184040
vt 0.187500 0.192394
vt 0.190961 0.190961
vt 0.187500 0.192394
vt 0.184040 0.190961
vt 0.184039 0.184040
vt 0.187500 0.182606
vt 0.182606 0.187500
vt 0.192394 0.187500
vt 0.190961 0.190961
vt 0.190961 0.184040
s 0
usemtl electronics_etx_part_1
f 618/1285/198 616/1279/198 623/1298/198 621/1293/198
f 628/1312/199 610/1266/199 617/1283/199 608/1260/199 627/1309/199
f 627/1310/200 608/1261/200 607/1258/200 629/1314/200
f 613/1272/201 625/1304/201 626/1306/201 609/1263/201 615/1277/201
f 609/1264/202 626/1307/202 629/1314/202 607/1258/202
f 610/1266/203 628/1312/203 632/1321/203 611/1267/203 618/1287/203
f 611/1268/204 632/1322/204 630/1316/204 612/1270/204
f 625/1304/205 613/1272/205 616/1281/205 614/1273/205 631/1318/205
f 631/1319/206 614/1274/206 612/1270/206 630/1316/206
f 617/1282/207 615/1276/207 609/1265/207 607/1259/207 608/1262/207
f 622/1297/208 620/1292/208 619/1288/208 624/1301/208
f 618/1286/207 611/1269/207 612/1271/207 614/1275/207 616/1280/207
f 613/1272/201 615/1277/201 619/1289/201 620/1291/201
f 617/1283/199 610/1266/199 622/1296/199 624/1302/199
f 610/1266/203 618/1287/203 621/1294/203 622/1296/203
f 616/1281/205 613/1272/205 620/1291/205 623/1299/205
f 615/1278/209 617/1284/209 624/1303/209 619/1290/209
f 621/1295/210 623/1300/210 620/1292/210 622/1297/210
f 631/1320/211 630/1317/211 632/1323/211 628/1313/211 627/1311/211 629/1315/211 626/1308/211 625/1305/211
f 635/1326/201 639/1330/201 641/1332/201 642/1333/201
f 639/1330/205 640/1331/205 647/1338/205 641/1332/205
f 638/1329/203 637/1328/203 644/1335/203 648/1339/203
f 640/1331/206 636/1327/206 646/1337/206 647/1338/206
f 637/1328/199 633/1324/199 643/1334/199 644/1335/199
f 636/1327/204 638/1329/204 648/1339/204 646/1337/204
f 634/1325/202 635/1326/202 642/1333/202 645/1336/202
f 633/1324/200 634/1325/200 645/1336/200 643/1334/200
o control_panel_etx_1_knob_child_1
v -0.128514 0.910651 0.239580
v -0.136633 0.891050 0.239580
v -0.108913 0.918770 0.239580
v -0.128514 0.871449 0.239580
v -0.108913 0.863330 0.239580
v -0.089312 0.871449 0.239580
v -0.089312 0.910651 0.239580
v -0.081193 0.891050 0.239580
v -0.099113 0.914710 0.239580
v -0.085253 0.900850 0.239580
v -0.132574 0.881249 0.239580
v -0.118714 0.867389 0.239580
v -0.099113 0.914710 0.253440
v -0.089312 0.910651 0.260370
v -0.118714 0.867389 0.253440
v -0.128514 0.871449 0.260370
v -0.085253 0.900850 0.253440
v -0.132574 0.881249 0.253440
v -0.089312 0.910651 0.225720
v -0.108913 0.918770 0.225720
v -0.136633 0.891050 0.225720
v -0.128514 0.871449 0.225720
v -0.128514 0.910651 0.225720
v -0.089312 0.871449 0.225720
v -0.081193 0.891050 0.225720
v -0.108913 0.863330 0.225720
v -0.121631 0.891050 0.225720
v -0.117906 0.900043 0.225720
v -0.108913 0.903768 0.225720
v -0.099920 0.882057 0.225720
v -0.117906 0.882057 0.225720
v -0.108913 0.878332 0.225720
v -0.099920 0.900043 0.225720
v -0.096195 0.891050 0.225720
v -0.099920 0.900043 0.217800
v -0.108913 0.903768 0.217800
v -0.121631 0.891050 0.217800
v -0.117906 0.882057 0.217800
v -0.117906 0.900043 0.217800
v -0.099920 0.882057 0.217800
v -0.096195 0.891050 0.217800
v -0.108913 0.878332 0.217800
vn 0.7071 -0.7071 -0.0000
vn -0.9239 -0.3827 -0.0000
vn -0.9239 0.3827 -0.0000
vn 0.3827 0.9239 -0.0000
vn -0.3827 0.9239 -0.0000
vn -0.3827 -0.9239 -0.0000
vn 0.3827 -0.9239 -0.0000
vn 0.9239 0.3827 -0.0000
vn 0.9239 -0.3827 -0.0000
vn -0.0000 -0.0000 1.0000
vn -0.4082 0.4082 0.8165
vn -0.7071 0.7071 -0.0000
vn 0.4082 -0.4082 0.8165
vn -0.0000 -0.0000 -1.0000
vt 0.187893 0.187500
vt 0.176833 0.187500
vt 0.179958 0.187893
vt 0.187893 0.179958
vt 0.179958 0.179958
vt 0.179958 0.187893
vt 0.187893 0.195042
vt 0.179958 0.195042
vt 0.187500 0.187893
vt 0.195042 0.187893
vt 0.187893 0.179958
vt 0.195042 0.179958
vt 0.187893 0.187500
vt 0.198167 0.187500
vt 0.187500 0.187893
vt 0.195042 0.187893
vt 0.187893 0.195042
vt 0.195042 0.195042
vt 0.183729 0.196605
vt 0.183729 0.187893
vt 0.187893 0.196605
vt 0.187893 0.196605
vt 0.191271 0.196605
vt 0.191271 0.187893
vt 0.183729 0.178395
vt 0.183729 0.187893
vt 0.187893 0.178395
vt 0.187893 0.178395
vt 0.191271 0.178395
vt 0.191271 0.187893
vt 0.183729 0.196605
vt 0.183729 0.182560
vt 0.182560 0.196605
vt 0.187500 0.179893
vt 0.187500 0.198167
vt 0.182560 0.178395
vt 0.191271 0.182560
vt 0.191271 0.178395
vt 0.187500 0.179893
vt 0.187500 0.176833
vt 0.182560 0.196605
vt 0.191271 0.182560
vt 0.191271 0.196605
vt 0.183729 0.178395
vt 0.183729 0.182560
vt 0.182560 0.178395
vt 0.187500 0.193226
vt 0.187500 0.198167
vt 0.179958 0.193226
vt 0.193226 0.195042
vt 0.179958 0.195042
vt 0.179958 0.193226
vt 0.193226 0.179958
vt 0.179958 0.179958
vt 0.187500 0.193226
vt 0.187500 0.176833
vt 0.193226 0.187500
vt 0.176833 0.187500
vt 0.193226 0.187500
vt 0.198167 0.187500
vt 0.195042 0.193226
vt 0.193226 0.195042
vt 0.195042 0.195042
vt 0.195042 0.193226
vt 0.193226 0.179958
vt 0.195042 0.179958
vt 0.184039 0.184040
vt 0.182606 0.187500
vt 0.184040 0.190961
vt 0.192394 0.187500
vt 0.187500 0.182606
vt 0.190961 0.184040
vt 0.187500 0.192394
vt 0.190961 0.190961
vt 0.187500 0.192394
vt 0.184040 0.190961
vt 0.184039 0.184040
vt 0.187500 0.182606
vt 0.182606 0.187500
vt 0.192394 0.187500
vt 0.190961 0.190961
vt 0.190961 0.184040
s 0
usemtl electronics_etx_part_1
f 660/1367/212 658/1361/212 665/1380/212 663/1375/212
f 670/1394/213 652/1348/213 659/1365/213 650/1342/213 669/1391/213
f 669/1392/214 650/1343/214 649/1340/214 671/1396/214
f 655/1354/215 667/1386/215 668/1388/215 651/1345/215 657/1359/215
f 651/1346/216 668/1389/216 671/1396/216 649/1340/216
f 652/1348/217 670/1394/217 674/1403/217 653/1349/217 660/1369/217
f 653/1350/218 674/1404/218 672/1398/218 654/1352/218
f 667/1386/219 655/1354/219 658/1363/219 656/1355/219 673/1400/219
f 673/1401/220 656/1356/220 654/1352/220 672/1398/220
f 659/1364/221 657/1358/221 651/1347/221 649/1341/221 650/1344/221
f 664/1379/222 662/1374/222 661/1370/222 666/1383/222
f 660/1368/221 653/1351/221 654/1353/221 656/1357/221 658/1362/221
f 655/1354/215 657/1359/215 661/1371/215 662/1373/215
f 659/1365/213 652/1348/213 664/1378/213 666/1384/213
f 652/1348/217 660/1369/217 663/1376/217 664/1378/217
f 658/1363/219 655/1354/219 662/1373/219 665/1381/219
f 657/1360/223 659/1366/223 666/1385/223 661/1372/223
f 663/1377/224 665/1382/224 662/1374/224 664/1379/224
f 673/1402/225 672/1399/225 674/1405/225 670/1395/225 669/1393/225 671/1397/225 668/1390/225 667/1387/225
f 677/1408/215 681/1412/215 683/1414/215 684/1415/215
f 681/1412/219 682/1413/219 689/1420/219 683/1414/219
f 680/1411/217 679/1410/217 686/1417/217 690/1421/217
f 682/1413/220 678/1409/220 688/1419/220 689/1420/220
f 679/1410/213 675/1406/213 685/1416/213 686/1417/213
f 678/1409/218 680/1411/218 690/1421/218 688/1419/218
f 676/1407/216 677/1408/216 684/1415/216 687/1418/216
f 675/1406/214 676/1407/214 687/1418/214 685/1416/214
o control_panel_etx_1_button_child_5
v 0.213840 0.888030 0.222800
v 0.213840 0.848430 0.222800
v 0.209880 0.884070 0.232700
v 0.209880 0.852390 0.232700
v 0.154440 0.888030 0.222800
v 0.154440 0.848430 0.222800
v 0.158400 0.884070 0.232700
v 0.158400 0.852390 0.232700
vn -0.0000 -0.9285 0.3714
vn -0.9285 -0.0000 0.3714
vn -0.0000 -0.0000 1.0000
vn -0.0000 0.9285 0.3714
vn 0.9285 -0.0000 0.3714
vt 0.531840 0.019564
vt 0.538008 0.016261
vt 0.531840 0.019564
vt 0.538008 0.003364
vt 0.517578 0.019531
vt 0.536686 0.018231
vt 0.542151 0.014928
vt 0.536686 0.018231
vt 0.531250 0.019531
vt 0.542151 0.004697
vt 0.537973 0.016261
vt 0.531840 0.000000
vt 0.531840 0.000000
vt 0.537973 0.003364
vt 0.542141 0.014928
vt 0.517578 0.000000
vt 0.536686 0.001333
vt 0.536686 0.001333
vt 0.542141 0.004697
vt 0.531250 0.000000
s 0
usemtl electronics_etx_part_1
f 696/1434/226 692/1424/226 694/1429/226 698/1439/226
f 698/1440/227 697/1436/227 695/1432/227 696/1435/227
f 694/1430/228 693/1426/228 697/1437/228 698/1441/228
f 691/1422/229 695/1433/229 697/1438/229 693/1427/229
f 692/1425/230 691/1423/230 693/1428/230 694/1431/230
o control_panel_etx_1_button_child
v 0.027720 0.897930 0.232700
v 0.027720 0.929610 0.232700
v 0.023760 0.893970 0.222800
v 0.023760 0.933570 0.222800
v 0.079200 0.897930 0.232700
v 0.079200 0.929610 0.232700
v 0.083160 0.893970 0.222800
v 0.083160 0.933570 0.222800
vn -0.9285 -0.0000 0.3714
vn 0.9285 -0.0000 0.3714
vn -0.0000 -0.0000 1.0000
vn -0.0000 -0.9285 0.3714
vn -0.0000 0.9285 0.3714
vt 0.542141 0.047666
vt 0.531250 0.042969
vt 0.536686 0.044302
vt 0.542141 0.057896
vt 0.517578 0.042969
vt 0.536686 0.044302
vt 0.537973 0.046332
vt 0.531840 0.042969
vt 0.537973 0.059230
vt 0.531840 0.042969
vt 0.542151 0.047666
vt 0.531250 0.062500
vt 0.536686 0.061200
vt 0.542151 0.057896
vt 0.517578 0.062500
vt 0.536686 0.061200
vt 0.538008 0.046332
vt 0.531840 0.062533
vt 0.538008 0.059230
vt 0.531840 0.062533
s 0
usemtl electronics_etx_part_1
f 699/1442/231 700/1445/231 702/1450/231 701/1448/231
f 705/1458/232 706/1460/232 704/1455/232 703/1452/232
f 703/1453/233 704/1456/233 700/1446/233 699/1443/233
f 701/1449/234 705/1459/234 703/1454/234 699/1444/234
f 706/1461/235 702/1451/235 700/1447/235 704/1457/235
o control_panel_etx_1_button_child_1
v 0.093060 0.897930 0.232700
v 0.093060 0.929610 0.232700
v 0.089100 0.893970 0.222800
v 0.089100 0.933570 0.222800
v 0.144540 0.897930 0.232700
v 0.144540 0.929610 0.232700
v 0.148500 0.893970 0.222800
v 0.148500 0.933570 0.222800
vn -0.9285 -0.0000 0.3714
vn 0.9285 -0.0000 0.3714
vn -0.0000 -0.0000 1.0000
vn -0.0000 -0.9285 0.3714
vn -0.0000 0.9285 0.3714
vt 0.542141 0.004697
vt 0.531250 0.000000
vt 0.536686 0.001333
vt 0.542141 0.014928
vt 0.517578 0.000000
vt 0.536686 0.001333
vt 0.537973 0.003364
vt 0.531840 0.000000
vt 0.537973 0.016261
vt 0.531840 0.000000
vt 0.542151 0.004697
vt 0.531250 0.019531
vt 0.536686 0.018231
vt 0.542151 0.014928
vt 0.517578 0.019531
vt 0.536686 0.018231
vt 0.538008 0.003364
vt 0.531840 0.019564
vt 0.538008 0.016261
vt 0.531840 0.019564
s 0
usemtl electronics_etx_part_1
f 707/1462/236 708/1465/236 710/1470/236 709/1468/236
f 713/1478/237 714/1480/237 712/1475/237 711/1472/237
f 711/1473/238 712/1476/238 708/1466/238 707/1463/238
f 709/1469/239 713/1479/239 711/1474/239 707/1464/239
f 714/1481/240 710/1471/240 708/1467/240 712/1477/240
o control_panel_etx_1_button_child_2
v 0.158400 0.897930 0.232700
v 0.158400 0.929610 0.232700
v 0.154440 0.893970 0.222800
v 0.154440 0.933570 0.222800
v 0.209880 0.897930 0.232700
v 0.209880 0.929610 0.232700
v 0.213840 0.893970 0.222800
v 0.213840 0.933570 0.222800
vn -0.9285 -0.0000 0.3714
vn 0.9285 -0.0000 0.3714
vn -0.0000 -0.0000 1.0000
vn -0.0000 -0.9285 0.3714
vn -0.0000 0.9285 0.3714
vt 0.542141 0.069150
vt 0.531250 0.064453
vt 0.536686 0.065787
vt 0.542141 0.079381
vt 0.517578 0.064453
vt 0.536686 0.065787
vt 0.537973 0.067817
vt 0.531840 0.064453
vt 0.537973 0.080714
vt 0.531840 0.064453
vt 0.542151 0.069150
vt 0.531250 0.083984
vt 0.536686 0.082684
vt 0.542151 0.079381
vt 0.517578 0.083984
vt 0.536686 0.082684
vt 0.538008 0.067817
vt 0.531840 0.084017
vt 0.538008 0.080714
vt 0.531840 0.084017
s 0
usemtl electronics_etx_part_1
f 715/1482/241 716/1485/241 718/1490/241 717/1488/241
f 721/1498/242 722/1500/242 720/1495/242 719/1492/242
f 719/1493/243 720/1496/243 716/1486/243 715/1483/243
f 717/1489/244 721/1499/244 719/1494/244 715/1484/244
f 722/1501/245 718/1491/245 716/1487/245 720/1497/245
o control_panel_etx_1_button_child_3
v 0.083160 0.888030 0.222800
v 0.083160 0.848430 0.222800
v 0.079200 0.884070 0.232700
v 0.079200 0.852390 0.232700
v 0.023760 0.888030 0.222800
v 0.023760 0.848430 0.222800
v 0.027720 0.884070 0.232700
v 0.027720 0.852390 0.232700
vn -0.0000 -0.9285 0.3714
vn -0.9285 -0.0000 0.3714
vn -0.0000 -0.0000 1.0000
vn -0.0000 0.9285 0.3714
vn 0.9285 -0.0000 0.3714
vt 0.531840 0.019564
vt 0.538008 0.016261
vt 0.531840 0.019564
vt 0.538008 0.003364
vt 0.517578 0.019531
vt 0.536686 0.018231
vt 0.542151 0.014928
vt 0.536686 0.018231
vt 0.531250 0.019531
vt 0.542151 0.004697
vt 0.537973 0.016261
vt 0.531840 0.000000
vt 0.531840 0.000000
vt 0.537973 0.003364
vt 0.542141 0.014928
vt 0.517578 0.000000
vt 0.536686 0.001333
vt 0.536686 0.001333
vt 0.542141 0.004697
vt 0.531250 0.000000
s 0
usemtl electronics_etx_part_1
f 728/1514/246 724/1504/246 726/1509/246 730/1519/246
f 730/1520/247 729/1516/247 727/1512/247 728/1515/247
f 726/1510/248 725/1506/248 729/1517/248 730/1521/248
f 723/1502/249 727/1513/249 729/1518/249 725/1507/249
f 724/1505/250 723/1503/250 725/1508/250 726/1511/250
o control_panel_etx_1_button_child_4
v 0.148500 0.888030 0.222800
v 0.148500 0.848430 0.222800
v 0.144540 0.884070 0.232700
v 0.144540 0.852390 0.232700
v 0.089100 0.888030 0.222800
v 0.089100 0.848430 0.222800
v 0.093060 0.884070 0.232700
v 0.093060 0.852390 0.232700
vn -0.0000 -0.9285 0.3714
vn -0.9285 -0.0000 0.3714
vn -0.0000 -0.0000 1.0000
vn -0.0000 0.9285 0.3714
vn 0.9285 -0.0000 0.3714
vt 0.531840 0.019564
vt 0.538008 0.016261
vt 0.531840 0.019564
vt 0.538008 0.003364
vt 0.517578 0.019531
vt 0.536686 0.018231
vt 0.542151 0.014928
vt 0.536686 0.018231
vt 0.531250 0.019531
vt 0.542151 0.004697
vt 0.537973 0.016261
vt 0.531840 0.000000
vt 0.531840 0.000000
vt 0.537973 0.003364
vt 0.542141 0.014928
vt 0.517578 0.000000
vt 0.536686 0.001333
vt 0.536686 0.001333
vt 0.542141 0.004697
vt 0.531250 0.000000
s 0
usemtl electronics_etx_part_1
f 736/1534/251 732/1524/251 734/1529/251 738/1539/251
f 738/1540/252 737/1536/252 735/1532/252 736/1535/252
f 734/1530/253 733/1526/253 737/1537/253 738/1541/253
f 731/1522/254 735/1533/254 737/1538/254 733/1527/254
f 732/1525/255 731/1523/255 733/1528/255 734/1531/255
