# Blender 3.4.0
# www.blender.org
mtllib electrical_tape_etx_1.mtl
o electrical_tape_etx_1
v -0.038184 -0.000000 0.038184
v -0.052160 -0.000000 0.013976
v -0.052160 -0.000000 -0.013976
v -0.038184 -0.000000 -0.038184
v -0.013976 0.000000 -0.052160
v -0.013976 -0.000000 0.052160
v 0.038184 -0.000000 0.038184
v 0.013976 -0.000000 0.052160
v 0.013976 0.000000 -0.052160
v 0.052160 -0.000000 0.013976
v 0.038184 -0.000000 -0.038184
v 0.052160 -0.000000 -0.013976
v -0.006067 -0.000000 -0.022644
v 0.006067 -0.000000 -0.022644
v -0.006067 -0.000000 0.022644
v -0.016577 -0.000000 0.016577
v -0.022644 -0.000000 0.006067
v -0.022644 -0.000000 -0.006067
v 0.022644 -0.000000 0.006067
v 0.016577 -0.000000 0.016577
v -0.016577 -0.000000 -0.016577
v 0.022644 -0.000000 -0.006067
v 0.016577 -0.000000 -0.016577
v 0.006067 -0.000000 0.022644
v -0.006067 0.030000 -0.022644
v 0.006067 0.030000 -0.022644
v -0.006067 0.030000 0.022644
v -0.016577 0.030000 0.016577
v -0.022644 0.030000 0.006067
v -0.022644 0.030000 -0.006067
v 0.022644 0.030000 0.006067
v 0.016577 0.030000 0.016577
v -0.016577 0.030000 -0.016577
v 0.022644 0.030000 -0.006067
v 0.016577 0.030000 -0.016577
v 0.006067 0.030000 0.022644
v -0.013976 0.030000 -0.052160
v 0.013976 0.030000 -0.052160
v -0.013976 0.030000 0.052160
v -0.038184 0.030000 0.038184
v -0.052160 0.030000 0.013976
v -0.052160 0.030000 -0.013976
v 0.052160 0.030000 0.013976
v 0.038184 0.030000 0.038184
v -0.038184 0.030000 -0.038184
v 0.052160 0.030000 -0.013976
v 0.038184 0.030000 -0.038184
v 0.013976 0.030000 0.052160
vn -0.0000 1.0000 -0.0000
vn -0.0000 -1.0000 -0.0000
vn -0.9659 -0.0000 -0.2588
vn -0.7071 -0.0000 -0.7071
vn -0.2588 -0.0000 -0.9659
vn 0.9659 -0.0000 -0.2588
vn 0.7071 -0.0000 -0.7071
vn 0.9659 -0.0000 0.2588
vn 0.2588 -0.0000 -0.9659
vn 0.2588 -0.0000 0.9659
vn 0.7071 -0.0000 0.7071
vn -0.2588 -0.0000 0.9659
vn -0.7071 -0.0000 0.7071
vn -0.9659 -0.0000 0.2588
vt 0.146959 0.849772
vt 0.187500 0.980469
vt 0.146959 0.830169
vt 0.187500 0.960938
vt 0.156760 0.813193
vt 0.187500 0.939453
vt 0.173737 0.803392
vt 0.187500 0.919922
vt 0.193339 0.803392
vt 0.187500 0.900391
vt 0.156760 0.866748
vt 0.187500 1.000000
vt 0.187500 0.880859
vt 0.193339 0.876550
vt 0.187500 0.919922
vt 0.173737 0.876550
vt 0.187500 0.900391
vt 0.210316 0.813193
vt 0.187500 0.880859
vt 0.187500 1.000000
vt 0.210316 0.866748
vt 0.187500 0.939453
vt 0.220117 0.830169
vt 0.187500 0.980469
vt 0.220117 0.849772
vt 0.187500 0.960938
vt 0.187793 0.824091
vt 0.146484 0.895077
vt 0.146484 0.894086
vt 0.195163 0.828346
vt 0.146484 0.885304
vt 0.146484 0.999462
vt 0.171913 0.851596
vt 0.146484 0.940868
vt 0.146484 0.941944
vt 0.167658 0.844226
vt 0.146484 0.931095
vt 0.146484 0.932086
vt 0.167658 0.835716
vt 0.146484 0.922330
vt 0.146484 0.921480
vt 0.171913 0.828346
vt 0.146484 0.913574
vt 0.146484 0.914453
vt 0.195163 0.851596
vt 0.146484 0.971191
vt 0.146484 0.970215
vt 0.187793 0.855851
vt 0.146484 0.960482
vt 0.146484 0.961431
vt 0.179283 0.824091
vt 0.146484 0.903842
vt 0.146484 0.904791
vt 0.199418 0.844226
vt 0.146484 0.979975
vt 0.146484 0.980924
vt 0.199418 0.835716
vt 0.146484 0.989689
vt 0.146484 0.990680
vt 0.179283 0.855851
vt 0.146484 0.951718
vt 0.146484 0.950727
vt 0.199418 0.844226
vt 0.166016 0.895077
vt 0.166016 0.894086
vt 0.199418 0.835716
vt 0.166016 0.885304
vt 0.166016 0.999462
vt 0.167658 0.844226
vt 0.166016 0.940868
vt 0.166016 0.941944
vt 0.171913 0.851596
vt 0.166016 0.931095
vt 0.166016 0.932086
vt 0.179283 0.855851
vt 0.166016 0.922330
vt 0.166016 0.921480
vt 0.187793 0.855851
vt 0.166016 0.913574
vt 0.166016 0.914453
vt 0.179283 0.824091
vt 0.166016 0.971191
vt 0.166016 0.970215
vt 0.171913 0.828346
vt 0.166016 0.960482
vt 0.166016 0.961431
vt 0.195163 0.851596
vt 0.166016 0.903842
vt 0.166016 0.904791
vt 0.187793 0.824091
vt 0.166016 0.979975
vt 0.166016 0.980924
vt 0.195163 0.828346
vt 0.166016 0.989689
vt 0.166016 0.990680
vt 0.167658 0.835716
vt 0.166016 0.951718
vt 0.166016 0.950727
vt 0.220117 0.849772
vt 0.166016 0.900391
vt 0.220117 0.830169
vt 0.166016 0.880859
vt 0.166016 1.000000
vt 0.146959 0.849772
vt 0.166016 1.000000
vt 0.166016 0.880859
vt 0.156760 0.866748
vt 0.166016 0.980469
vt 0.173737 0.876550
vt 0.166016 0.960938
vt 0.193339 0.876550
vt 0.166016 0.939453
vt 0.173737 0.803392
vt 0.166016 0.939453
vt 0.156760 0.813193
vt 0.166016 0.919922
vt 0.210316 0.866748
vt 0.166016 0.919922
vt 0.193339 0.803392
vt 0.166016 0.960938
vt 0.210316 0.813193
vt 0.166016 0.980469
vt 0.146959 0.830169
vt 0.166016 0.900391
s 1
usemtl misc_etx_part_1
f 26/66/1 38/101/1 37/99/1 25/63/1
f 14/30/2 13/27/2 5/9/2 9/18/2
f 16/36/2 15/33/2 6/11/2 1/1/2
f 18/42/2 17/39/2 2/3/2 3/5/2
f 20/48/2 19/45/2 10/21/2 7/14/2
f 17/39/2 16/36/2 1/1/2 2/3/2
f 13/27/2 21/51/2 4/7/2 5/9/2
f 21/51/2 18/42/2 3/5/2 4/7/2
f 19/45/2 22/54/2 12/25/2 10/21/2
f 22/54/2 23/57/2 11/23/2 12/25/2
f 23/57/2 14/30/2 9/18/2 11/23/2
f 15/33/2 24/60/2 8/16/2 6/11/2
f 24/60/2 20/48/2 7/14/2 8/16/2
f 28/72/1 40/107/1 39/104/1 27/69/1
f 30/78/1 42/111/1 41/109/1 29/75/1
f 32/84/1 44/115/1 43/113/1 31/81/1
f 29/75/1 41/109/1 40/107/1 28/72/1
f 25/63/1 37/99/1 45/117/1 33/87/1
f 33/87/1 45/117/1 42/111/1 30/78/1
f 31/81/1 43/113/1 46/119/1 34/90/1
f 34/90/1 46/119/1 47/121/1 35/93/1
f 35/93/1 47/121/1 38/101/1 26/66/1
f 27/69/1 39/104/1 48/123/1 36/96/1
f 36/96/1 48/123/1 44/115/1 32/84/1
f 3/6/3 42/112/3 45/118/4 4/8/4
f 24/61/5 36/97/5 32/85/4 20/49/4
f 17/40/6 29/76/6 28/73/7 16/37/7
f 12/26/6 46/120/6 43/114/8 10/22/8
f 5/10/5 37/100/5 38/102/9 9/19/9
f 13/28/10 25/64/10 33/88/11 21/52/11
f 11/24/7 47/122/7 46/120/6 12/26/6
f 6/12/12 39/105/12 40/108/13 1/2/13
f 21/53/11 33/89/11 30/79/8 18/43/8
f 9/20/9 38/103/9 47/122/7 11/24/7
f 2/4/14 41/110/14 42/112/3 3/6/3
f 19/46/3 31/82/3 34/91/14 22/55/14
f 8/17/10 48/124/10 39/106/12 6/13/12
f 14/31/12 26/67/12 25/65/10 13/29/10
f 10/22/8 43/114/8 44/116/11 7/15/11
f 22/56/14 34/92/14 35/94/13 23/58/13
f 7/15/11 44/116/11 48/124/10 8/17/10
f 16/38/7 28/74/7 27/70/9 15/34/9
f 1/2/13 40/108/13 41/110/14 2/4/14
f 23/59/13 35/95/13 26/68/12 14/32/12
f 18/44/8 30/80/8 29/77/6 17/41/6
f 4/8/4 45/118/4 37/100/5 5/10/5
f 15/35/9 27/71/9 36/98/5 24/62/5
f 20/50/4 32/86/4 31/83/3 19/47/3
