# Blender 3.4.0
# www.blender.org
mtllib gauge_etx_2_1.mtl
o gauge_pointer_etx_2_1_child
v 0.006073 0.273928 0.020000
v 0.008588 0.280000 0.020000
v 0.000000 0.271412 0.020000
v 0.006073 0.286073 0.020000
v 0.000000 0.288588 0.020000
v -0.006072 0.286073 0.020000
v -0.006072 0.273928 0.020000
v -0.008588 0.280000 0.020000
v 0.006073 0.273928 0.029000
v 0.000000 0.271412 0.029000
v -0.006072 0.286073 0.029000
v 0.000000 0.288588 0.029000
v 0.008588 0.280000 0.029000
v -0.008588 0.280000 0.029000
v -0.006072 0.273928 0.029000
v 0.006073 0.286073 0.029000
v 0.025456 0.313942 0.024000
v 0.033942 0.305456 0.024000
v 0.025456 0.313942 0.026000
v 0.033942 0.305456 0.026000
v -0.042426 0.234746 0.024000
v -0.045254 0.237574 0.024000
v -0.042426 0.234746 0.026000
v -0.045254 0.237574 0.026000
vn -0.9239 -0.3827 -0.0000
vn -0.0000 -0.0000 1.0000
vn -0.9239 0.3827 -0.0000
vn -0.3827 0.9239 -0.0000
vn 0.9239 0.3827 -0.0000
vn -0.3827 -0.9239 -0.0000
vn 0.9239 -0.3827 -0.0000
vn 0.3827 -0.9239 -0.0000
vn 0.3827 0.9239 -0.0000
vn 0.6794 -0.7338 -0.0000
vn -0.0000 -0.0000 -1.0000
vn -0.7338 0.6794 -0.0000
vn 0.7071 0.7071 -0.0000
vn -0.7071 -0.7071 -0.0000
vt 0.184572 0.186206
vt 0.185430 0.185848
vt 0.185430 0.188681
vt 0.187500 0.189250
vt 0.189570 0.185848
vt 0.190428 0.186206
vt 0.187500 0.191099
vt 0.189570 0.188681
vt 0.184572 0.186206
vt 0.185430 0.188681
vt 0.190428 0.186206
vt 0.189570 0.185848
vt 0.185430 0.185848
vt 0.189570 0.188681
vt 0.187500 0.191099
vt 0.187500 0.189250
vt 0.189705 0.179649
vt 0.187841 0.179652
vt 0.189620 0.195653
vt 0.187841 0.179652
vt 0.185295 0.179649
vt 0.185380 0.195653
vt 0.186989 0.179652
vt 0.189547 0.179649
vt 0.189620 0.194801
vt 0.186989 0.179652
vt 0.185453 0.179649
vt 0.185381 0.194801
vt 0.187841 0.215064
vt 0.186574 0.215062
vt 0.186389 0.195653
vt 0.188426 0.215062
vt 0.187841 0.215064
vt 0.188611 0.195653
vt 0.186989 0.215064
vt 0.186450 0.215064
vt 0.186389 0.194801
vt 0.186989 0.215064
vt 0.188550 0.215064
vt 0.188611 0.194801
s 0
usemtl electronics_etx_part_1
f 8/8/1 7/7/1 15/15/1 14/14/1
f 16/16/2 12/12/2 11/11/2 14/14/2 15/15/2 10/10/2 9/9/2 13/13/2
f 6/6/3 8/8/3 14/14/3 11/11/3
f 5/5/4 6/6/4 11/11/4 12/12/4
f 2/2/5 4/4/5 16/16/5 13/13/5
f 7/7/6 3/3/6 10/10/6 15/15/6
f 1/1/7 2/2/7 13/13/7 9/9/7
f 3/3/8 1/1/8 9/9/8 10/10/8
f 4/4/9 5/5/9 12/12/9 16/16/9
f 18/20/10 20/26/10 23/35/10 21/29/10
f 17/17/11 18/21/11 21/30/11 22/32/11
f 17/18/12 22/33/12 24/38/12 19/23/12
f 23/36/2 20/27/2 19/24/2 24/39/2
f 17/19/13 19/25/13 20/28/13 18/22/13
f 22/34/14 21/31/14 23/37/14 24/40/14
o gauge_etx_2_1
v 0.021213 -0.000000 -0.021213
v 0.016971 0.020000 -0.016971
v 0.030000 -0.000000 0.000000
v 0.021213 -0.000000 0.021213
v 0.024000 0.020000 0.000000
v 0.016971 0.020000 0.016971
v -0.000000 -0.000000 -0.030000
v -0.021213 -0.000000 -0.021213
v 0.000000 0.020000 -0.024000
v -0.016971 0.020000 -0.016971
v -0.000000 -0.000000 0.030000
v -0.030000 -0.000000 0.000000
v -0.021213 -0.000000 0.021213
v -0.024000 0.020000 0.000000
v 0.000000 0.020000 0.024000
v -0.016971 0.020000 0.016971
v -0.021213 0.188000 -0.021213
v -0.016971 0.168000 -0.016971
v -0.030000 0.188000 0.000000
v -0.021213 0.188000 0.021213
v -0.024000 0.168000 0.000000
v -0.016971 0.168000 0.016971
v 0.000000 0.188000 -0.030000
v 0.021213 0.188000 -0.021213
v 0.000000 0.168000 -0.024000
v 0.016971 0.168000 -0.016971
v 0.000000 0.188000 0.030000
v 0.030000 0.188000 0.000000
v 0.021213 0.188000 0.021213
v 0.024000 0.168000 0.000000
v 0.000000 0.168000 0.024000
v 0.016971 0.168000 0.016971
v -0.089647 0.280000 0.040000
v -0.077637 0.235176 0.040000
v -0.044824 0.202363 0.040000
v -0.044824 0.357637 0.040000
v -0.077637 0.324823 0.040000
v -0.100000 0.280000 -0.040000
v -0.050000 0.193397 -0.040000
v -0.086603 0.230000 -0.040000
v -0.086603 0.330000 -0.040000
v -0.050000 0.366602 -0.040000
v 0.000000 0.190353 0.040000
v 0.089647 0.280000 0.040000
v 0.044824 0.202363 0.040000
v 0.077637 0.235176 0.040000
v 0.000000 0.369647 0.040000
v 0.077637 0.324823 0.040000
v 0.044824 0.357637 0.040000
v 0.000000 0.180000 -0.040000
v 0.086603 0.230000 -0.040000
v 0.050000 0.193397 -0.040000
v 0.000000 0.380000 -0.040000
v 0.100000 0.280000 -0.040000
v 0.050000 0.366602 -0.040000
v 0.086603 0.330000 -0.040000
v 0.086603 0.330000 0.040000
v 0.100000 0.280000 0.040000
v -0.100000 0.280000 0.040000
v -0.086603 0.330000 0.040000
v 0.000000 0.180000 0.040000
v -0.050000 0.193397 0.040000
v -0.050000 0.366602 0.040000
v 0.000000 0.380000 0.040000
v -0.086603 0.230000 0.040000
v 0.050000 0.193397 0.040000
v 0.086603 0.230000 0.040000
v 0.050000 0.366602 0.040000
v -0.089647 0.280000 0.020000
v 0.000000 0.190353 0.020000
v -0.044824 0.357637 0.020000
v 0.044824 0.202363 0.020000
v 0.077637 0.235176 0.020000
v 0.077637 0.324824 0.020000
v 0.089647 0.280000 0.020000
v -0.077637 0.324824 0.020000
v -0.044824 0.202363 0.020000
v 0.000000 0.369647 0.020000
v -0.077637 0.235176 0.020000
v 0.044824 0.357637 0.020000
v -0.089647 0.280000 0.030000
v -0.000000 0.190353 0.030000
v -0.044824 0.357637 0.030000
v 0.044823 0.202363 0.030000
v 0.077637 0.235176 0.030000
v 0.077637 0.324824 0.030000
v 0.089647 0.280000 0.030000
v -0.077637 0.324824 0.030000
v -0.044824 0.202363 0.030000
v -0.000000 0.369647 0.030000
v -0.077637 0.235176 0.030000
v 0.044823 0.357637 0.030000
v -0.014143 0.168000 -0.014142
v -0.014143 0.020000 -0.014142
v -0.020001 0.168000 -0.000000
v -0.014143 0.168000 0.014142
v -0.020001 0.020000 0.000000
v -0.014143 0.020000 0.014142
v -0.000001 0.168000 -0.020000
v 0.014141 0.168000 -0.014142
v -0.000001 0.020000 -0.020000
v 0.014141 0.020000 -0.014142
v -0.000001 0.168000 0.020000
v 0.019999 0.168000 -0.000000
v 0.014141 0.168000 0.014142
v 0.019999 0.020000 0.000000
v -0.000001 0.020000 0.020000
v 0.014141 0.020000 0.014142
v -0.014143 0.059600 -0.014142
v -0.021214 0.071800 -0.021213
v -0.021214 0.116200 -0.021213
v -0.014143 0.128400 -0.014142
v -0.014143 0.128400 0.014142
v -0.021214 0.116200 0.021213
v -0.021214 0.071800 0.021213
v -0.014143 0.059600 0.014142
v -0.020001 0.128400 0.000000
v -0.030001 0.116200 -0.000000
v -0.030001 0.071800 -0.000000
v -0.020001 0.059600 0.000000
v 0.019999 0.059600 0.000000
v 0.029999 0.071800 -0.000000
v 0.029999 0.116200 -0.000000
v 0.019999 0.128400 0.000000
v 0.014141 0.128400 0.014142
v 0.021212 0.116200 0.021213
v 0.021212 0.071800 0.021213
v 0.014141 0.059600 0.014142
v -0.000001 0.128400 0.020000
v -0.000001 0.116200 0.030000
v -0.000001 0.071800 0.030000
v -0.000001 0.059600 0.020000
v -0.000001 0.059600 -0.020000
v -0.000001 0.071800 -0.030000
v -0.000001 0.116200 -0.030000
v -0.000001 0.128400 -0.020000
v 0.014141 0.128400 -0.014142
v 0.021212 0.116200 -0.021213
v 0.021212 0.071800 -0.021213
v 0.014141 0.059600 -0.014142
vn -0.0000 1.0000 -0.0000
vn -0.0000 0.2873 -0.9578
vn 0.6773 0.2873 -0.6773
vn 0.9578 0.2873 -0.0000
vn -0.0000 0.2873 0.9578
vn 0.6773 0.2873 0.6773
vn -0.9578 0.2873 -0.0000
vn -0.6773 0.2873 0.6773
vn -0.6773 0.2873 -0.6773
vn -0.0000 -1.0000 -0.0000
vn -0.0000 -0.2873 -0.9578
vn -0.6773 -0.2873 -0.6773
vn -0.9578 -0.2873 -0.0000
vn -0.0000 -0.2873 0.9578
vn -0.6773 -0.2873 0.6773
vn 0.9578 -0.2873 -0.0000
vn 0.6773 -0.2873 0.6773
vn 0.6773 -0.2873 -0.6773
vn -0.5000 0.8660 -0.0000
vn -0.8660 0.5000 -0.0000
vn -0.0000 -0.0000 -1.0000
vn -0.5000 -0.8660 -0.0000
vn -0.8660 -0.5000 -0.0000
vn -1.0000 -0.0000 -0.0000
vn 0.5000 -0.8660 -0.0000
vn 0.8660 -0.5000 -0.0000
vn 1.0000 -0.0000 -0.0000
vn 0.5000 0.8660 -0.0000
vn 0.8660 0.5000 -0.0000
vn -0.0000 -0.0000 1.0000
vn -0.7071 -0.0000 -0.7071
vn -0.7071 -0.0000 0.7071
vn 0.7071 -0.0000 0.7071
vn 0.7071 -0.0000 -0.7071
vn 0.5469 -0.6339 -0.5469
vn 0.7734 -0.6339 -0.0000
vn 0.5469 0.6339 -0.5469
vn 0.7734 0.6339 -0.0000
vn -0.0000 -0.6339 -0.7734
vn -0.0000 0.6339 -0.7734
vn 0.5469 -0.6339 0.5469
vn -0.0000 -0.6339 0.7734
vn 0.5469 0.6339 0.5469
vn -0.0000 0.6339 0.7734
vn -0.5469 -0.6339 0.5469
vn -0.7734 -0.6339 -0.0000
vn -0.5469 0.6339 0.5469
vn -0.7734 0.6339 -0.0000
vn -0.5469 0.6339 -0.5469
vn -0.5469 -0.6339 -0.5469
vt 0.871094 0.976562
vt 0.891549 0.969181
vt 0.878906 0.975781
vt 0.878906 0.977344
vt 0.871094 0.984375
vt 0.871094 0.968750
vt 0.871094 0.976562
vt 0.887223 0.973507
vt 0.878906 0.983594
vt 0.878906 0.969531
vt 0.887223 0.979625
vt 0.878906 0.977344
vt 0.878906 0.975781
vt 0.871094 0.968750
vt 0.871094 0.984375
vt 0.871094 0.976562
vt 0.897666 0.969181
vt 0.878906 0.969531
vt 0.878906 0.983594
vt 0.901992 0.973507
vt 0.878906 0.977344
vt 0.878906 0.975781
vt 0.871094 0.984375
vt 0.871094 0.968750
vt 0.871094 0.984375
vt 0.871094 0.968750
vt 0.871094 0.976562
vt 0.901992 0.979625
vt 0.878906 0.983594
vt 0.878906 0.969531
vt 0.891549 0.983951
vt 0.878906 0.983594
vt 0.878906 0.969531
vt 0.897666 0.983951
vt 0.878906 0.977344
vt 0.878906 0.975781
vt 0.871094 0.976562
vt 0.891549 0.969181
vt 0.878906 0.975781
vt 0.878906 0.977344
vt 0.871094 0.984375
vt 0.871094 0.968750
vt 0.871094 0.976562
vt 0.887223 0.973507
vt 0.878906 0.983594
vt 0.878906 0.969531
vt 0.887223 0.979625
vt 0.878906 0.977344
vt 0.878906 0.975781
vt 0.871094 0.968750
vt 0.871094 0.984375
vt 0.871094 0.976562
vt 0.897666 0.969181
vt 0.878906 0.969531
vt 0.878906 0.983594
vt 0.901992 0.973507
vt 0.878906 0.977344
vt 0.878906 0.975781
vt 0.871094 0.984375
vt 0.871094 0.968750
vt 0.871094 0.984375
vt 0.871094 0.968750
vt 0.871094 0.976562
vt 0.901992 0.979625
vt 0.878906 0.983594
vt 0.878906 0.969531
vt 0.891549 0.983951
vt 0.878906 0.983594
vt 0.878906 0.969531
vt 0.897666 0.983951
vt 0.878906 0.977344
vt 0.878906 0.975781
vt 0.164587 0.542188
vt 0.162109 0.560547
vt 0.162109 0.544922
vt 0.168454 0.527755
vt 0.162109 0.544922
vt 0.162109 0.560547
vt 0.179019 0.517190
vt 0.162109 0.560547
vt 0.162109 0.544922
vt 0.179019 0.567185
vt 0.162109 0.560547
vt 0.162109 0.544922
vt 0.168454 0.556620
vt 0.162109 0.544922
vt 0.162109 0.560547
vt 0.165567 0.558286
vt 0.152344 0.560547
vt 0.152344 0.544922
vt 0.193451 0.574385
vt 0.152344 0.560547
vt 0.152344 0.544922
vt 0.177352 0.570071
vt 0.152344 0.560547
vt 0.152344 0.544922
vt 0.161253 0.542188
vt 0.152344 0.544922
vt 0.152344 0.560547
vt 0.165567 0.526089
vt 0.152344 0.544922
vt 0.152344 0.560547
vt 0.193451 0.513323
vt 0.162109 0.544922
vt 0.162109 0.560547
vt 0.222315 0.542188
vt 0.162109 0.544922
vt 0.162109 0.560547
vt 0.162109 0.560547
vt 0.207883 0.517190
vt 0.162109 0.544922
vt 0.162109 0.544922
vt 0.218448 0.527755
vt 0.162109 0.560547
vt 0.193451 0.571052
vt 0.162109 0.560547
vt 0.162109 0.544922
vt 0.218448 0.556620
vt 0.162109 0.544922
vt 0.162109 0.560547
vt 0.207883 0.567185
vt 0.162109 0.560547
vt 0.162109 0.544922
vt 0.209550 0.570071
vt 0.152344 0.544922
vt 0.152344 0.560547
vt 0.225648 0.542188
vt 0.152344 0.544922
vt 0.152344 0.560547
vt 0.221335 0.558286
vt 0.152344 0.544922
vt 0.152344 0.560547
vt 0.177352 0.514304
vt 0.152344 0.560547
vt 0.152344 0.544922
vt 0.221335 0.526089
vt 0.152344 0.544922
vt 0.152344 0.560547
vt 0.193451 0.509990
vt 0.152344 0.560547
vt 0.152344 0.544922
vt 0.209550 0.514304
vt 0.152344 0.560547
vt 0.152344 0.544922
vt 0.179688 0.560547
vt 0.179688 0.544922
vt 0.221335 0.558286
vt 0.179688 0.544922
vt 0.179688 0.560547
vt 0.225648 0.542188
vt 0.179688 0.560547
vt 0.179688 0.544922
vt 0.161253 0.542188
vt 0.179688 0.544922
vt 0.179688 0.560547
vt 0.165567 0.558286
vt 0.179688 0.544922
vt 0.179688 0.560547
vt 0.193451 0.509990
vt 0.179688 0.560547
vt 0.179688 0.544922
vt 0.177352 0.514304
vt 0.179688 0.544922
vt 0.179688 0.560547
vt 0.177352 0.570071
vt 0.179688 0.560547
vt 0.179688 0.544922
vt 0.193451 0.574385
vt 0.179688 0.560547
vt 0.179688 0.544922
vt 0.165567 0.526089
vt 0.179688 0.544922
vt 0.179688 0.560547
vt 0.209550 0.514304
vt 0.179688 0.544922
vt 0.179688 0.560547
vt 0.221335 0.526089
vt 0.179688 0.560547
vt 0.179688 0.544922
vt 0.209550 0.570071
vt 0.169922 0.560547
vt 0.169922 0.544922
vt 0.000000 0.906134
vt 0.169922 0.544922
vt 0.169922 0.560547
vt 0.093367 0.812767
vt 0.169922 0.560547
vt 0.169922 0.544922
vt 0.046683 0.986992
vt 0.169922 0.560547
vt 0.169922 0.544922
vt 0.140051 0.825276
vt 0.169922 0.544922
vt 0.169922 0.560547
vt 0.174225 0.859450
vt 0.169922 0.544922
vt 0.169922 0.560547
vt 0.174225 0.952817
vt 0.169922 0.544922
vt 0.169922 0.560547
vt 0.186734 0.906134
vt 0.169922 0.544922
vt 0.169922 0.560547
vt 0.012509 0.952817
vt 0.169922 0.560547
vt 0.169922 0.544922
vt 0.046683 0.825276
vt 0.169922 0.560547
vt 0.169922 0.544922
vt 0.093367 0.999501
vt 0.169922 0.544922
vt 0.169922 0.560547
vt 0.012509 0.859450
vt 0.169922 0.560547
vt 0.169922 0.544922
vt 0.140051 0.986992
vt 0.375000 0.500000
vt 0.500000 0.375000
vt 0.437500 0.608253
vt 0.562500 0.391747
vt 0.608253 0.437500
vt 0.608253 0.562500
vt 0.625000 0.500000
vt 0.391747 0.562500
vt 0.437500 0.391747
vt 0.500000 0.625000
vt 0.391747 0.437500
vt 0.562500 0.608253
vt 0.332969 0.875882
vt 0.322212 0.875882
vt 0.332969 0.870320
vt 0.332969 0.864757
vt 0.322212 0.870320
vt 0.322212 0.864757
vt 0.332969 0.836944
vt 0.332969 0.881445
vt 0.332969 0.842507
vt 0.322212 0.881445
vt 0.322212 0.836944
vt 0.322212 0.842507
vt 0.332969 0.859194
vt 0.332969 0.848069
vt 0.332969 0.853632
vt 0.322212 0.848069
vt 0.322212 0.859194
vt 0.322212 0.853632
vt 0.336603 0.875882
vt 0.862101 0.985647
vt 0.861485 0.984791
vt 0.861896 0.983865
vt 0.857301 0.988452
vt 0.900389 0.967276
vt 0.861896 1.000000
vt 0.895589 0.964471
vt 0.318578 0.875882
vt 0.896205 0.963615
vt 0.318578 0.864757
vt 0.885868 0.971578
vt 0.884866 0.971905
vt 0.878583 1.000000
vt 0.887085 0.977003
vt 0.870605 0.998179
vt 0.878583 0.983865
vt 0.871822 0.992754
vt 0.336603 0.864757
vt 0.872824 0.993081
vt 0.890819 0.969041
vt 0.318578 0.870320
vt 0.891670 0.968419
vt 0.894511 0.973198
vt 0.870239 1.000000
vt 0.870239 0.983865
vt 0.863179 0.994374
vt 0.336603 0.870320
vt 0.866871 0.990217
vt 0.866020 0.989595
vt 0.891670 0.989595
vt 0.336603 0.848069
vt 0.890819 0.990217
vt 0.894511 0.994374
vt 0.903615 0.983865
vt 0.903615 1.000000
vt 0.863179 0.973198
vt 0.318578 0.848069
vt 0.866020 0.968419
vt 0.866871 0.969041
vt 0.318578 0.853632
vt 0.872824 0.971905
vt 0.871822 0.971578
vt 0.895271 1.000000
vt 0.870605 0.977003
vt 0.887085 0.998179
vt 0.895271 0.983865
vt 0.884866 0.993081
vt 0.336603 0.853632
vt 0.885868 0.992754
vt 0.318578 0.859194
vt 0.878318 0.972779
vt 0.879372 0.972779
vt 0.886927 1.000000
vt 0.878845 0.978314
vt 0.878845 0.999490
vt 0.886927 0.983865
vt 0.879372 0.993955
vt 0.336603 0.859195
vt 0.878318 0.993955
vt 0.336603 0.881445
vt 0.336603 0.836944
vt 0.898705 0.979822
vt 0.858986 0.979822
vt 0.904139 0.980998
vt 0.920303 0.983865
vt 0.853552 0.983865
vt 0.853552 0.980998
vt 0.920303 1.000000
vt 0.853552 0.959822
vt 0.904138 0.959822
vt 0.853552 1.000000
vt 0.318578 0.836944
vt 0.858986 0.958645
vt 0.318578 0.881445
vt 0.898705 0.958645
vt 0.318578 0.842507
vt 0.862101 0.964471
vt 0.861485 0.963615
vt 0.911959 1.000000
vt 0.857301 0.967276
vt 0.900389 0.988452
vt 0.911959 0.983865
vt 0.895589 0.985647
vt 0.336603 0.842507
vt 0.896205 0.984791
s 1
usemtl electronics_etx_part_1
f 38/68/15 40/74/15 39/71/15 30/51/15 29/48/15 26/42/15 33/57/15 34/60/15
f 31/54/16 33/58/16 26/43/17 25/41/17
f 25/41/17 26/44/17 29/49/18 27/45/18
f 39/72/19 35/63/19 28/47/20 30/52/20
f 30/53/20 28/47/20 27/46/18 29/50/18
f 38/69/21 36/65/21 37/67/22 40/75/22
f 40/76/22 37/67/22 35/64/19 39/73/19
f 33/59/16 31/55/16 32/56/23 34/61/23
f 34/62/23 32/56/23 36/66/21 38/70/21
f 54/104/24 56/110/24 55/107/24 46/87/24 45/84/24 42/78/24 49/93/24 50/96/24
f 47/90/25 49/94/25 42/79/26 41/77/26
f 41/77/26 42/80/26 45/85/27 43/81/27
f 55/108/28 51/99/28 44/83/29 46/88/29
f 46/89/29 44/83/29 43/82/27 45/86/27
f 54/105/30 52/101/30 53/103/31 56/111/31
f 56/112/31 53/103/31 51/100/28 55/109/28
f 49/95/25 47/91/25 48/92/32 50/97/32
f 50/98/32 48/92/32 52/102/30 54/106/30
f 69/149/33 70/152/34 97/233/34 96/230/33
f 74/164/35 63/131/35 64/134/35 62/128/35 65/137/35 66/140/35 77/173/35 79/179/35 80/182/35 78/176/35 75/167/35 76/170/35
f 74/165/24 85/197/24 86/200/36 63/132/36
f 63/133/36 86/201/36 89/209/37 64/135/37
f 64/136/37 89/210/37 83/191/38 62/129/38
f 88/206/15 77/174/15 66/141/33 87/203/33
f 87/204/33 66/142/33 65/138/34 84/194/34
f 84/195/34 65/139/34 62/130/38 83/192/38
f 85/198/24 74/166/24 76/171/39 90/212/39
f 90/213/39 76/172/39 75/168/40 91/215/40
f 91/216/40 75/169/40 78/177/41 82/188/41
f 77/175/15 88/207/15 92/218/42 79/180/42
f 79/181/42 92/219/42 81/185/43 80/183/43
f 80/184/43 81/186/43 82/189/41 78/178/41
f 72/158/44 68/146/44 82/190/44 81/187/44
f 57/113/44 61/125/44 84/196/44 83/193/44
f 67/143/44 59/119/44 86/202/44 85/199/44
f 60/122/44 71/155/44 88/208/44 87/205/44
f 59/119/44 58/116/44 89/211/44 86/202/44
f 58/116/44 57/113/44 83/193/44 89/211/44
f 61/125/44 60/122/44 87/205/44 84/196/44
f 69/150/44 67/143/44 85/199/44 90/214/44
f 70/153/44 69/150/44 90/214/44 91/217/44
f 68/146/44 70/153/44 91/217/44 82/190/44
f 71/155/44 73/161/44 92/220/44 88/208/44
f 73/161/44 72/158/44 81/187/44 92/220/44
f 57/114/41 58/117/43 103/251/43 93/221/41
f 59/120/42 67/144/15 94/224/15 101/245/42
f 70/154/34 68/147/38 99/239/38 97/234/34
f 60/123/39 61/126/40 100/242/40 95/227/39
f 71/156/24 60/124/39 95/228/39 102/248/24
f 73/162/36 71/157/24 102/249/24 104/254/36
f 68/148/38 72/159/37 98/236/37 99/240/38
f 67/145/15 69/151/33 96/231/33 94/225/15
f 58/118/43 59/121/42 101/246/42 103/252/43
f 72/160/37 73/163/36 104/255/36 98/237/37
f 61/127/40 57/115/41 93/222/41 100/243/40
f 157/347/35 125/278/35 118/270/45 133/287/45
f 133/287/45 118/270/45 121/273/38 144/314/38
f 153/337/44 127/281/44 120/272/46 137/297/46
f 137/297/46 120/272/46 119/271/38 141/308/38
f 148/324/41 128/282/41 129/283/47 149/327/47
f 149/327/47 129/283/47 127/281/44 153/337/44
f 160/359/35 123/275/35 124/277/48 161/363/48
f 161/363/48 124/277/48 128/282/41 148/324/41
f 126/280/48 164/371/48 145/318/41 130/284/41
f 164/370/49 163/368/49 146/320/50 145/317/50
f 163/369/48 162/366/48 147/322/41 146/321/41
f 162/367/51 161/364/51 148/325/52 147/323/52
f 125/279/35 157/348/35 164/371/48 126/280/48
f 157/349/53 158/351/53 163/368/49 164/372/49
f 158/352/35 159/355/35 162/366/48 163/369/48
f 159/356/54 160/360/54 161/365/51 162/367/51
f 132/286/47 152/335/47 156/345/44 131/285/44
f 152/334/55 151/332/55 155/342/56 156/344/56
f 151/333/47 150/330/47 154/340/44 155/343/44
f 150/331/57 149/328/57 153/338/58 154/341/58
f 130/284/41 145/318/41 152/335/47 132/286/47
f 145/319/50 146/320/50 151/332/55 152/336/55
f 146/321/41 147/322/41 150/330/47 151/333/47
f 147/323/52 148/326/52 149/329/57 150/331/57
f 122/274/46 140/305/46 144/314/38 121/273/38
f 140/304/59 139/302/59 143/313/60 144/315/60
f 139/303/46 138/300/46 142/311/38 143/312/38
f 138/301/61 137/298/61 141/307/62 142/310/62
f 131/285/44 156/345/44 140/305/46 122/274/46
f 156/346/56 155/342/56 139/302/59 140/306/59
f 155/343/44 154/340/44 138/300/46 139/303/46
f 154/341/58 153/339/58 137/299/61 138/301/61
f 117/269/45 136/295/45 141/308/38 119/271/38
f 136/294/63 135/292/63 142/310/62 141/309/62
f 135/293/45 134/290/45 143/312/38 142/311/38
f 134/291/64 133/288/64 144/316/60 143/313/60
f 123/276/35 160/361/35 136/295/45 117/269/45
f 160/362/54 159/357/54 135/292/63 136/296/63
f 159/358/35 158/353/35 134/290/45 135/293/45
f 158/354/53 157/350/53 133/289/64 134/291/64
usemtl electronics_etx_part_2
f 94/226/44 96/232/44 97/235/44 99/241/44 98/238/44 104/256/44 102/250/44 95/229/44 100/244/44 93/223/44 103/253/44 101/247/44
usemtl glass_etx_1
f 106/258/44 108/260/44 109/261/44 111/263/44 110/262/44 116/268/44 114/266/44 107/259/44 112/264/44 105/257/44 115/267/44 113/265/44
o gauge_etx_2_1_tiny_valve_child
v -0.019618 0.113502 0.051580
v -0.027737 0.093901 0.051580
v -0.000017 0.121621 0.051580
v -0.019618 0.074300 0.051580
v -0.000017 0.066181 0.051580
v 0.019584 0.074300 0.051580
v 0.019584 0.113502 0.051580
v 0.027703 0.093901 0.051580
v 0.009783 0.117561 0.051580
v 0.023643 0.103701 0.051580
v -0.023678 0.084100 0.051580
v -0.009818 0.070240 0.051580
v 0.009783 0.117561 0.065440
v 0.019584 0.113502 0.072370
v -0.009818 0.070240 0.065440
v -0.019618 0.074300 0.072370
v 0.023643 0.103701 0.065440
v -0.023678 0.084100 0.065440
v 0.019584 0.113502 0.037720
v -0.000017 0.121621 0.037720
v -0.027737 0.093901 0.037720
v -0.019618 0.074300 0.037720
v -0.019618 0.113502 0.037720
v 0.019584 0.074300 0.037720
v 0.027703 0.093901 0.037720
v -0.000017 0.066181 0.037720
v -0.012735 0.093901 0.037720
v -0.009010 0.102894 0.037720
v -0.000017 0.106619 0.037720
v 0.008976 0.084908 0.037720
v -0.009010 0.084908 0.037720
v -0.000017 0.081183 0.037720
v 0.008976 0.102894 0.037720
v 0.012701 0.093901 0.037720
v 0.008976 0.102894 0.019800
v -0.000017 0.106619 0.019800
v -0.012735 0.093901 0.019800
v -0.009010 0.084908 0.019800
v -0.009010 0.102894 0.019800
v 0.008976 0.084908 0.019800
v 0.012701 0.093901 0.019800
v -0.000017 0.081183 0.019800
vn 0.7071 -0.7071 -0.0000
vn -0.9239 -0.3827 -0.0000
vn -0.9239 0.3827 -0.0000
vn 0.3827 0.9239 -0.0000
vn -0.3827 0.9239 -0.0000
vn -0.3827 -0.9239 -0.0000
vn 0.3827 -0.9239 -0.0000
vn 0.9239 0.3827 -0.0000
vn 0.9239 -0.3827 -0.0000
vn -0.0000 -0.0000 1.0000
vn -0.4082 0.4082 0.8165
vn -0.7071 0.7071 -0.0000
vn 0.4082 -0.4082 0.8165
vn -0.0000 -0.0000 -1.0000
vt 0.297268 0.906250
vt 0.286208 0.906250
vt 0.289333 0.906643
vt 0.297268 0.898708
vt 0.289333 0.898708
vt 0.289333 0.906643
vt 0.297268 0.913792
vt 0.289333 0.913792
vt 0.296875 0.906643
vt 0.304417 0.906643
vt 0.297268 0.898708
vt 0.304417 0.898708
vt 0.297268 0.906250
vt 0.307542 0.906250
vt 0.296875 0.906643
vt 0.304417 0.906643
vt 0.297268 0.913792
vt 0.304417 0.913792
vt 0.293104 0.915355
vt 0.293104 0.906643
vt 0.297268 0.915355
vt 0.297268 0.915355
vt 0.300646 0.915355
vt 0.300646 0.906643
vt 0.293104 0.897145
vt 0.293104 0.906643
vt 0.297268 0.897145
vt 0.297268 0.897145
vt 0.300646 0.897145
vt 0.300646 0.906643
vt 0.293104 0.915355
vt 0.293104 0.901310
vt 0.291935 0.915355
vt 0.296875 0.898643
vt 0.296875 0.916917
vt 0.291935 0.897145
vt 0.300646 0.901310
vt 0.300646 0.897145
vt 0.296875 0.898643
vt 0.296875 0.895583
vt 0.291935 0.915355
vt 0.300646 0.901310
vt 0.300646 0.915355
vt 0.293104 0.897145
vt 0.293104 0.901310
vt 0.291935 0.897145
vt 0.296875 0.911976
vt 0.296875 0.916917
vt 0.289333 0.911976
vt 0.302601 0.913792
vt 0.289333 0.913792
vt 0.289333 0.911976
vt 0.302601 0.898708
vt 0.289333 0.898708
vt 0.296875 0.911976
vt 0.296875 0.895583
vt 0.302601 0.906250
vt 0.286208 0.906250
vt 0.302601 0.906250
vt 0.307542 0.906250
vt 0.304417 0.911976
vt 0.302601 0.913792
vt 0.304417 0.913792
vt 0.304417 0.911976
vt 0.302601 0.898708
vt 0.304417 0.898708
vt 0.293414 0.902790
vt 0.291981 0.906250
vt 0.293415 0.909711
vt 0.301769 0.906250
vt 0.296875 0.901356
vt 0.300336 0.902789
vt 0.296875 0.911144
vt 0.300336 0.909711
vt 0.296875 0.911144
vt 0.293415 0.909711
vt 0.293414 0.902790
vt 0.296875 0.901356
vt 0.291981 0.906250
vt 0.301769 0.906250
vt 0.300336 0.909711
vt 0.300336 0.902789
s 0
usemtl electronics_etx_part_1
f 176/400/65 174/394/65 181/413/65 179/408/65
f 186/427/66 168/381/66 175/398/66 166/375/66 185/424/66
f 185/425/67 166/376/67 165/373/67 187/429/67
f 171/387/68 183/419/68 184/421/68 167/378/68 173/392/68
f 167/379/69 184/422/69 187/429/69 165/373/69
f 168/381/70 186/427/70 190/436/70 169/382/70 176/402/70
f 169/383/71 190/437/71 188/431/71 170/385/71
f 183/419/72 171/387/72 174/396/72 172/388/72 189/433/72
f 189/434/73 172/389/73 170/385/73 188/431/73
f 175/397/74 173/391/74 167/380/74 165/374/74 166/377/74
f 180/412/75 178/407/75 177/403/75 182/416/75
f 176/401/74 169/384/74 170/386/74 172/390/74 174/395/74
f 171/387/68 173/392/68 177/404/68 178/406/68
f 175/398/66 168/381/66 180/411/66 182/417/66
f 168/381/70 176/402/70 179/409/70 180/411/70
f 174/396/72 171/387/72 178/406/72 181/414/72
f 173/393/76 175/399/76 182/418/76 177/405/76
f 179/410/77 181/415/77 178/407/77 180/412/77
f 189/435/78 188/432/78 190/438/78 186/428/78 185/426/78 187/430/78 184/423/78 183/420/78
f 193/441/68 197/445/68 199/447/68 200/448/68
f 197/445/72 198/446/72 205/453/72 199/447/72
f 196/444/70 195/443/70 202/450/70 206/454/70
f 198/446/73 194/442/73 204/452/73 205/453/73
f 195/443/66 191/439/66 201/449/66 202/450/66
f 194/442/71 196/444/71 206/454/71 204/452/71
f 192/440/69 193/441/69 200/448/69 203/451/69
f 191/439/67 192/440/67 203/451/67 201/449/67
