# Blender 3.4.0
# www.blender.org
mtllib gauge_etx_1.mtl
o gauge_etx_1
v -0.089647 0.000000 0.080000
v -0.077637 -0.044824 0.080000
v -0.044824 -0.077637 0.080000
v -0.044824 0.077637 0.080000
v -0.077637 0.044824 0.080000
v -0.100000 0.000000 0.000000
v -0.050000 -0.086603 0.000000
v -0.086603 -0.050000 0.000000
v -0.086603 0.050000 0.000000
v -0.050000 0.086603 0.000000
v 0.000000 -0.089647 0.080000
v 0.089647 0.000000 0.080000
v 0.044824 -0.077637 0.080000
v 0.077637 -0.044824 0.080000
v 0.000000 0.089647 0.080000
v 0.077637 0.044824 0.080000
v 0.044824 0.077637 0.080000
v 0.000000 -0.100000 0.000000
v 0.086603 -0.050000 0.000000
v 0.050000 -0.086603 0.000000
v 0.000000 0.100000 0.000000
v 0.100000 0.000000 0.000000
v 0.050000 0.086603 0.000000
v 0.086603 0.050000 0.000000
v 0.086603 0.050000 0.080000
v 0.100000 0.000000 0.080000
v -0.100000 0.000000 0.080000
v -0.086603 0.050000 0.080000
v 0.000000 -0.100000 0.080000
v -0.050000 -0.086603 0.080000
v -0.050000 0.086603 0.080000
v 0.000000 0.100000 0.080000
v -0.086603 -0.050000 0.080000
v 0.050000 -0.086603 0.080000
v 0.086603 -0.050000 0.080000
v 0.050000 0.086603 0.080000
v 0.077637 0.044824 0.060000
v 0.089647 0.000000 0.060000
v -0.089647 0.000000 0.060000
v -0.077637 0.044824 0.060000
v 0.000000 -0.089647 0.060000
v -0.044824 -0.077637 0.060000
v -0.044824 0.077637 0.060000
v -0.077637 -0.044824 0.060000
v 0.044824 -0.077637 0.060000
v 0.077637 -0.044824 0.060000
v 0.044824 0.077637 0.060000
v -0.000000 0.089647 0.060000
v -0.089647 -0.000000 0.070000
v -0.000000 -0.089647 0.070000
v -0.044824 0.077637 0.070000
v 0.044823 -0.077637 0.070000
v 0.077637 -0.044824 0.070000
v 0.077637 0.044824 0.070000
v 0.089647 -0.000000 0.070000
v -0.077637 0.044824 0.070000
v -0.044824 -0.077637 0.070000
v -0.000000 0.089647 0.070000
v -0.077637 -0.044824 0.070000
v 0.044823 0.077637 0.070000
v -0.089647 0.000000 0.097000
v -0.044824 0.077637 0.109000
v -0.077637 0.044824 0.109000
v -0.100000 0.000000 0.080000
v -0.086603 0.050000 0.080000
v -0.050000 0.086603 0.080000
v 0.089647 0.000000 0.097000
v 0.000000 0.089647 0.109000
v 0.077637 0.044824 0.109000
v 0.044824 0.077637 0.109000
v 0.000000 0.100000 0.080000
v 0.100000 0.000000 0.080000
v 0.050000 0.086603 0.080000
v 0.086603 0.050000 0.080000
v 0.086603 0.050000 0.109000
v 0.100000 0.000000 0.097000
v -0.100000 0.000000 0.097000
v -0.086603 0.050000 0.109000
v -0.050000 0.086603 0.109000
v 0.000000 0.100000 0.109000
v 0.050000 0.086603 0.109000
v 0.077637 0.044824 0.080000
v 0.089647 0.000000 0.080000
v -0.089647 0.000000 0.080000
v -0.077637 0.044824 0.080000
v -0.044824 0.077637 0.080000
v 0.044824 0.077637 0.080000
v -0.000000 0.089647 0.080000
v 0.093301 0.023706 0.109000
v 0.093301 0.023706 0.080000
v 0.083642 0.023706 0.109000
v 0.083642 0.023706 0.080000
v -0.093324 0.023625 0.080000
v -0.093324 0.023625 0.109000
v -0.083662 0.023625 0.109000
v -0.083662 0.023625 0.080000
vn -0.5000 0.8660 -0.0000
vn -0.8660 0.5000 -0.0000
vn -0.0000 -0.0000 -1.0000
vn -0.0000 -1.0000 -0.0000
vn -0.5000 -0.8660 -0.0000
vn -0.8660 -0.5000 -0.0000
vn -1.0000 -0.0000 -0.0000
vn -0.0000 1.0000 -0.0000
vn 0.5000 -0.8660 -0.0000
vn 0.8660 -0.5000 -0.0000
vn 1.0000 -0.0000 -0.0000
vn 0.5000 0.8660 -0.0000
vn 0.8660 0.5000 -0.0000
vn -0.0000 -0.0000 1.0000
vn -0.8691 0.4947 -0.0000
vn -0.9825 0.0656 0.1744
vn -0.9658 0.2595 -0.0000
vn -0.9999 0.0136 -0.0000
vn -0.9546 0.2851 0.0859
vn 0.8691 0.4946 -0.0000
vn 0.9666 0.1264 -0.2229
vn 0.9663 0.2573 -0.0000
vn 0.9695 0.2327 -0.0776
vn 0.9999 0.0136 -0.0000
vn -0.0000 -0.1958 0.9807
vn 0.1736 -0.4448 0.8787
vn 0.0261 -0.3757 0.9264
vn -0.0000 -0.2687 0.9632
vn -0.0000 -0.1963 0.9805
vn -0.0000 -0.2695 0.9630
vn 0.8622 -0.5065 -0.0000
vn -1.0000 -0.0048 -0.0000
vn -0.8622 -0.5066 -0.0000
vn -0.9657 -0.2596 -0.0000
vn 0.9651 -0.2619 -0.0000
vn 0.9791 -0.1918 -0.0680
vn 0.9999 0.0137 -0.0000
vn 1.0000 -0.0023 -0.0000
vn -0.9929 -0.0908 0.0765
vn -0.9999 0.0137 -0.0000
vn -0.0320 -0.3789 0.9249
vn 0.0394 -0.5204 0.8530
vn -0.0000 -0.9659 -0.2588
vn -0.0755 -0.9962 0.0436
vn -0.0000 -0.9848 -0.1736
vn -0.0000 -0.9659 0.2588
vn -0.0755 -0.9962 -0.0436
vt 0.008337 0.698438
vt 0.123047 0.732422
vt 0.123047 0.716797
vt 0.012204 0.684005
vt 0.123047 0.716797
vt 0.123047 0.732422
vt 0.022769 0.673440
vt 0.123047 0.732422
vt 0.123047 0.716797
vt 0.022769 0.723435
vt 0.123047 0.732422
vt 0.123047 0.716797
vt 0.012204 0.712870
vt 0.123047 0.716797
vt 0.123047 0.732422
vt 0.009317 0.714536
vt 0.113281 0.732422
vt 0.113281 0.716797
vt 0.037201 0.730635
vt 0.113281 0.732422
vt 0.113281 0.716797
vt 0.021102 0.726321
vt 0.113281 0.732422
vt 0.113281 0.716797
vt 0.005003 0.698438
vt 0.113281 0.716797
vt 0.113281 0.732422
vt 0.009317 0.682339
vt 0.113281 0.716797
vt 0.113281 0.732422
vt 0.037201 0.669573
vt 0.123047 0.716797
vt 0.123047 0.732422
vt 0.066065 0.698438
vt 0.123047 0.716797
vt 0.123047 0.732422
vt 0.123047 0.732422
vt 0.051633 0.673440
vt 0.123047 0.716797
vt 0.123047 0.716797
vt 0.062198 0.684005
vt 0.123047 0.732422
vt 0.037201 0.727302
vt 0.123047 0.732422
vt 0.123047 0.716797
vt 0.062198 0.712870
vt 0.123047 0.716797
vt 0.123047 0.732422
vt 0.051633 0.723435
vt 0.123047 0.732422
vt 0.123047 0.716797
vt 0.053300 0.726321
vt 0.113281 0.716797
vt 0.113281 0.732422
vt 0.069398 0.698438
vt 0.113281 0.716797
vt 0.113281 0.732422
vt 0.065085 0.714536
vt 0.113281 0.716797
vt 0.113281 0.732422
vt 0.021102 0.670554
vt 0.113281 0.732422
vt 0.113281 0.716797
vt 0.065085 0.682339
vt 0.113281 0.716797
vt 0.113281 0.732422
vt 0.037201 0.666240
vt 0.113281 0.732422
vt 0.113281 0.716797
vt 0.053300 0.670554
vt 0.113281 0.732422
vt 0.113281 0.716797
vt 0.140625 0.732422
vt 0.140625 0.716797
vt 0.065085 0.714536
vt 0.140625 0.716797
vt 0.140625 0.732422
vt 0.069398 0.698438
vt 0.140625 0.732422
vt 0.140625 0.716797
vt 0.005003 0.698438
vt 0.140625 0.716797
vt 0.140625 0.732422
vt 0.009317 0.714536
vt 0.140625 0.716797
vt 0.140625 0.732422
vt 0.037201 0.666240
vt 0.140625 0.732422
vt 0.140625 0.716797
vt 0.021102 0.670554
vt 0.140625 0.716797
vt 0.140625 0.732422
vt 0.021102 0.726321
vt 0.140625 0.732422
vt 0.140625 0.716797
vt 0.037201 0.730635
vt 0.140625 0.732422
vt 0.140625 0.716797
vt 0.009317 0.682339
vt 0.140625 0.716797
vt 0.140625 0.732422
vt 0.053300 0.670554
vt 0.140625 0.716797
vt 0.140625 0.732422
vt 0.065085 0.682339
vt 0.140625 0.732422
vt 0.140625 0.716797
vt 0.053300 0.726321
vt 0.130859 0.716797
vt 0.130859 0.732422
vt 0.174225 0.952817
vt 0.130859 0.716797
vt 0.130859 0.732422
vt 0.186734 0.906134
vt 0.130859 0.732422
vt 0.130859 0.716797
vt 0.000000 0.906134
vt 0.130859 0.716797
vt 0.130859 0.732422
vt 0.012509 0.952817
vt 0.130859 0.716797
vt 0.130859 0.732422
vt 0.093367 0.812767
vt 0.130859 0.732422
vt 0.130859 0.716797
vt 0.046683 0.825276
vt 0.130859 0.732422
vt 0.130859 0.716797
vt 0.046683 0.986992
vt 0.130859 0.716797
vt 0.130859 0.732422
vt 0.012509 0.859450
vt 0.130859 0.732422
vt 0.130859 0.716797
vt 0.140051 0.825276
vt 0.130859 0.716797
vt 0.130859 0.732422
vt 0.174225 0.859450
vt 0.130859 0.732422
vt 0.130859 0.716797
vt 0.140051 0.986992
vt 0.130859 0.732422
vt 0.130859 0.716797
vt 0.093367 0.999501
vt 0.375000 0.500000
vt 0.500000 0.375000
vt 0.437500 0.608253
vt 0.562500 0.391747
vt 0.608253 0.437500
vt 0.608253 0.562500
vt 0.625000 0.500000
vt 0.391747 0.562500
vt 0.437500 0.391747
vt 0.500000 0.625000
vt 0.391747 0.437500
vt 0.562500 0.608253
vt 0.132031 0.716797
vt 0.008337 0.699250
vt -0.078253 0.686103
vt 0.022769 0.723435
vt 0.127344 0.732422
vt 0.127344 0.716797
vt 0.012204 0.712870
vt 0.127344 0.716797
vt 0.127344 0.732422
vt 0.126953 0.716797
vt 0.126953 0.716797
vt 0.126953 0.732422
vt 0.126953 0.716797
vt 0.126953 0.732422
vt 0.066065 0.699251
vt 0.132031 0.732422
vt 0.102312 0.713765
vt 0.037201 0.727302
vt 0.127344 0.732422
vt 0.127344 0.716797
vt 0.127344 0.716797
vt 0.127344 0.732422
vt 0.062198 0.712870
vt 0.051633 0.723435
vt 0.127344 0.732422
vt 0.127344 0.716797
vt 0.126953 0.732422
vt 0.126953 0.716797
vt 0.126953 0.732422
vt 0.126953 0.732422
vt 0.126953 0.716797
vt 0.126953 0.732422
vt 0.126953 0.716797
vt 0.136865 0.732422
vt 0.065085 0.714536
vt 0.136865 0.716797
vt 0.132764 0.732422
vt 0.069398 0.699251
vt 0.058829 0.693824
vt 0.132764 0.716797
vt 0.005003 0.699250
vt -0.085007 0.686103
vt 0.136865 0.716797
vt 0.009317 0.714536
vt 0.136865 0.732422
vt 0.136865 0.716797
vt 0.136865 0.732422
vt 0.021102 0.726321
vt 0.136865 0.732422
vt 0.136865 0.716797
vt 0.037201 0.730635
vt 0.136865 0.732422
vt 0.136865 0.716797
vt 0.053300 0.726321
vt 0.138672 0.716797
vt 0.138672 0.732422
vt 0.138672 0.732422
vt 0.138672 0.716797
vt 0.138672 0.716797
vt 0.138672 0.732422
vt 0.138672 0.732422
vt 0.138672 0.716797
vt 0.138672 0.732422
vt 0.138672 0.716797
vt 0.138672 0.732422
vt 0.138672 0.716797
vt 0.067242 0.704201
vt 0.067242 0.706070
vt 0.136865 0.724987
vt 0.126953 0.724987
vt 0.064132 0.704201
vt 0.127344 0.724188
vt 0.064132 0.706070
vt 0.138672 0.724189
vt 0.126953 0.724207
vt 0.007153 0.706044
vt 0.007153 0.704176
vt 0.136865 0.724207
vt 0.010264 0.706044
vt 0.127344 0.725002
vt 0.010264 0.704176
vt 0.138672 0.725002
s 1
usemtl electronics_etx_part_1
f 13/37/1 14/40/2 46/136/2 45/133/1
f 18/52/3 7/19/3 8/22/3 6/16/3 9/25/3 10/28/3 21/61/3 23/67/3 24/70/3 22/64/3 19/55/3 20/58/3
f 18/53/4 29/85/4 30/88/5 7/20/5
f 7/21/5 30/89/5 33/97/6 8/23/6
f 8/24/6 33/98/6 27/79/7 6/17/7
f 32/94/8 21/62/8 10/29/1 31/91/1
f 31/92/1 10/30/1 9/26/2 28/82/2
f 28/83/2 9/27/2 6/18/7 27/80/7
f 29/86/4 18/54/4 20/59/9 34/100/9
f 34/101/9 20/60/9 19/56/10 35/103/10
f 35/104/10 19/57/10 22/65/11 26/76/11
f 21/63/8 32/95/8 36/106/12 23/68/12
f 23/69/12 36/107/12 25/73/13 24/71/13
f 24/72/13 25/74/13 26/77/11 22/66/11
f 16/46/14 12/34/14 26/78/14 25/75/14
f 1/1/14 5/13/14 28/84/14 27/81/14
f 11/31/14 3/7/14 30/90/14 29/87/14
f 4/10/14 15/43/14 32/96/14 31/93/14
f 3/7/14 2/4/14 33/99/14 30/90/14
f 2/4/14 1/1/14 27/81/14 33/99/14
f 5/13/14 4/10/14 31/93/14 28/84/14
f 13/38/14 11/31/14 29/87/14 34/102/14
f 14/41/14 13/38/14 34/102/14 35/105/14
f 12/34/14 14/41/14 35/105/14 26/78/14
f 15/43/14 17/49/14 36/108/14 32/96/14
f 17/49/14 16/46/14 25/75/14 36/108/14
f 1/2/11 2/5/13 44/130/13 39/115/11
f 3/8/12 11/32/8 41/121/8 42/124/12
f 14/42/2 12/35/7 38/112/7 46/137/2
f 4/11/9 5/14/10 40/118/10 43/127/9
f 15/44/4 4/12/9 43/128/9 48/142/4
f 17/50/5 15/45/4 48/143/4 47/139/5
f 12/36/7 16/47/6 37/109/6 38/113/7
f 11/33/8 13/39/1 45/134/1 41/122/8
f 2/6/13 3/9/12 42/125/12 44/131/13
f 16/48/6 17/51/5 47/140/5 37/110/6
f 5/15/10 1/3/11 39/116/11 40/119/10
f 80/205/8 71/183/8 66/169/1 79/202/1
f 79/203/1 66/170/1 65/167/15 78/199/15
f 94/234/16 93/231/17 64/166/18 77/196/19
f 71/184/8 80/206/8 81/208/12 73/186/12
f 73/187/12 81/209/12 75/190/20 74/188/20
f 90/226/21 89/225/22 76/193/23 72/185/24
f 91/227/25 67/171/26 76/194/27 89/223/28
f 95/235/29 63/163/14 78/200/14 94/232/30
f 62/160/14 68/174/14 80/207/14 79/204/14
f 63/163/14 62/160/14 79/204/14 78/200/14
f 68/174/14 70/180/14 81/210/14 80/207/14
f 70/180/14 69/179/14 75/191/14 81/210/14
f 62/161/9 63/164/31 85/215/31 86/217/9
f 68/175/4 62/162/9 86/218/9 88/221/4
f 70/181/5 68/176/4 88/222/4 87/219/5
f 91/228/32 69/177/33 82/211/33 92/230/34
f 69/178/33 70/182/5 87/220/5 82/212/33
f 95/236/35 61/157/36 84/214/37 96/238/38
f 67/172/39 91/228/32 92/230/34 83/213/40
f 69/179/14 91/229/25 89/224/28 75/191/14
f 74/189/20 75/192/20 89/225/22 90/226/21
f 63/165/31 95/236/35 96/238/38 85/216/31
f 61/158/41 95/237/29 94/233/30 77/197/42
f 78/201/15 65/168/15 93/231/17 94/234/16
f 72/185/43 76/195/44 67/173/45 83/213/46
f 77/198/47 64/166/43 84/214/46 61/159/47
usemtl electronics_etx_part_2
f 41/123/14 45/135/14 46/138/14 38/114/14 37/111/14 47/141/14 48/144/14 43/129/14 40/120/14 39/117/14 44/132/14 42/126/14
usemtl glass_etx_1
f 50/146/14 52/148/14 53/149/14 55/151/14 54/150/14 60/156/14 58/154/14 51/147/14 56/152/14 49/145/14 59/155/14 57/153/14
o gauge_etx_1pointer_child
v 0.006073 -0.006072 0.060000
v 0.008588 0.000000 0.060000
v 0.000000 -0.008588 0.060000
v 0.006073 0.006073 0.060000
v 0.000000 0.008589 0.060000
v -0.006073 0.006073 0.060000
v -0.006073 -0.006072 0.060000
v -0.008588 0.000000 0.060000
v 0.006073 -0.006072 0.069000
v 0.000000 -0.008588 0.069000
v -0.006073 0.006073 0.069000
v 0.000000 0.008589 0.069000
v 0.008588 0.000000 0.069000
v -0.008588 0.000000 0.069000
v -0.006073 -0.006072 0.069000
v 0.006073 0.006073 0.069000
v 0.025456 0.033942 0.064000
v 0.033941 0.025456 0.064000
v 0.025456 0.033942 0.066000
v 0.033941 0.025457 0.066000
v -0.042426 -0.045254 0.064000
v -0.045254 -0.042425 0.064000
v -0.042426 -0.045254 0.066000
v -0.045254 -0.042425 0.066000
vn -0.9239 -0.3827 -0.0000
vn -0.0000 -0.0000 1.0000
vn -0.9239 0.3827 -0.0000
vn -0.3827 0.9239 -0.0000
vn 0.9239 0.3827 -0.0000
vn -0.3827 -0.9239 -0.0000
vn 0.9239 -0.3827 -0.0000
vn 0.3827 -0.9239 -0.0000
vn 0.3827 0.9239 -0.0000
vn 0.6794 -0.7338 -0.0000
vn -0.0000 -0.0000 -1.0000
vn -0.7338 0.6794 -0.0000
vn 0.7071 0.7071 -0.0000
vn -0.7071 -0.7071 -0.0000
vt 0.184572 0.186206
vt 0.185430 0.185848
vt 0.185430 0.188681
vt 0.187500 0.189250
vt 0.189570 0.185848
vt 0.190428 0.186206
vt 0.187500 0.191099
vt 0.189570 0.188681
vt 0.184572 0.186206
vt 0.185430 0.188681
vt 0.190428 0.186206
vt 0.189570 0.185848
vt 0.185430 0.185848
vt 0.189570 0.188681
vt 0.187500 0.191099
vt 0.187500 0.189250
vt 0.189705 0.179649
vt 0.187841 0.179652
vt 0.189620 0.195653
vt 0.187841 0.179652
vt 0.185295 0.179649
vt 0.185380 0.195653
vt 0.186989 0.179652
vt 0.189547 0.179649
vt 0.189620 0.194801
vt 0.186989 0.179652
vt 0.185453 0.179649
vt 0.185381 0.194801
vt 0.187841 0.215064
vt 0.186574 0.215062
vt 0.186389 0.195653
vt 0.188426 0.215062
vt 0.187841 0.215064
vt 0.188611 0.195653
vt 0.186989 0.215064
vt 0.186450 0.215064
vt 0.186389 0.194801
vt 0.186989 0.215064
vt 0.188550 0.215064
vt 0.188611 0.194801
s 0
usemtl electronics_etx_part_1
f 104/246/48 103/245/48 111/253/48 110/252/48
f 112/254/49 108/250/49 107/249/49 110/252/49 111/253/49 106/248/49 105/247/49 109/251/49
f 102/244/50 104/246/50 110/252/50 107/249/50
f 101/243/51 102/244/51 107/249/51 108/250/51
f 98/240/52 100/242/52 112/254/52 109/251/52
f 103/245/53 99/241/53 106/248/53 111/253/53
f 97/239/54 98/240/54 109/251/54 105/247/54
f 99/241/55 97/239/55 105/247/55 106/248/55
f 100/242/56 101/243/56 108/250/56 112/254/56
f 114/258/57 116/264/57 119/273/57 117/267/57
f 113/255/58 114/259/58 117/268/58 118/270/58
f 113/256/59 118/271/59 120/276/59 115/261/59
f 119/274/49 116/265/49 115/262/49 120/277/49
f 113/257/60 115/263/60 116/266/60 114/260/60
f 118/272/61 117/269/61 119/275/61 120/278/61
