# Blender 3.4.0
# www.blender.org
mtllib gauge_etx_2.mtl
o gauge_pointer_etx_2_child
v 0.006073 0.273928 0.020000
v 0.008588 0.280000 0.020000
v 0.000000 0.271412 0.020000
v 0.006073 0.286073 0.020000
v 0.000000 0.288588 0.020000
v -0.006072 0.286073 0.020000
v -0.006072 0.273928 0.020000
v -0.008588 0.280000 0.020000
v 0.006073 0.273928 0.029000
v 0.000000 0.271412 0.029000
v -0.006072 0.286073 0.029000
v 0.000000 0.288588 0.029000
v 0.008588 0.280000 0.029000
v -0.008588 0.280000 0.029000
v -0.006072 0.273928 0.029000
v 0.006073 0.286073 0.029000
v 0.025456 0.313942 0.024000
v 0.033942 0.305456 0.024000
v 0.025456 0.313942 0.026000
v 0.033942 0.305456 0.026000
v -0.042426 0.234746 0.024000
v -0.045254 0.237574 0.024000
v -0.042426 0.234746 0.026000
v -0.045254 0.237574 0.026000
vn -0.9239 -0.3827 -0.0000
vn -0.0000 -0.0000 1.0000
vn -0.9239 0.3827 -0.0000
vn -0.3827 0.9239 -0.0000
vn 0.9239 0.3827 -0.0000
vn -0.3827 -0.9239 -0.0000
vn 0.9239 -0.3827 -0.0000
vn 0.3827 -0.9239 -0.0000
vn 0.3827 0.9239 -0.0000
vn 0.6794 -0.7338 -0.0000
vn -0.0000 -0.0000 -1.0000
vn -0.7338 0.6794 -0.0000
vn 0.7071 0.7071 -0.0000
vn -0.7071 -0.7071 -0.0000
vt 0.184572 0.186206
vt 0.185430 0.185848
vt 0.185430 0.188681
vt 0.187500 0.189250
vt 0.189570 0.185848
vt 0.190428 0.186206
vt 0.187500 0.191099
vt 0.189570 0.188681
vt 0.184572 0.186206
vt 0.185430 0.188681
vt 0.190428 0.186206
vt 0.189570 0.185848
vt 0.185430 0.185848
vt 0.189570 0.188681
vt 0.187500 0.191099
vt 0.187500 0.189250
vt 0.189705 0.179649
vt 0.187841 0.179652
vt 0.189620 0.195653
vt 0.187841 0.179652
vt 0.185295 0.179649
vt 0.185380 0.195653
vt 0.186989 0.179652
vt 0.189547 0.179649
vt 0.189620 0.194801
vt 0.186989 0.179652
vt 0.185453 0.179649
vt 0.185381 0.194801
vt 0.187841 0.215064
vt 0.186574 0.215062
vt 0.186389 0.195653
vt 0.188426 0.215062
vt 0.187841 0.215064
vt 0.188611 0.195653
vt 0.186989 0.215064
vt 0.186450 0.215064
vt 0.186389 0.194801
vt 0.186989 0.215064
vt 0.188550 0.215064
vt 0.188611 0.194801
s 0
usemtl electronics_etx_part_1
f 8/8/1 7/7/1 15/15/1 14/14/1
f 16/16/2 12/12/2 11/11/2 14/14/2 15/15/2 10/10/2 9/9/2 13/13/2
f 6/6/3 8/8/3 14/14/3 11/11/3
f 5/5/4 6/6/4 11/11/4 12/12/4
f 2/2/5 4/4/5 16/16/5 13/13/5
f 7/7/6 3/3/6 10/10/6 15/15/6
f 1/1/7 2/2/7 13/13/7 9/9/7
f 3/3/8 1/1/8 9/9/8 10/10/8
f 4/4/9 5/5/9 12/12/9 16/16/9
f 18/20/10 20/26/10 23/35/10 21/29/10
f 17/17/11 18/21/11 21/30/11 22/32/11
f 17/18/12 22/33/12 24/38/12 19/23/12
f 23/36/2 20/27/2 19/24/2 24/39/2
f 17/19/13 19/25/13 20/28/13 18/22/13
f 22/34/14 21/31/14 23/37/14 24/40/14
o gauge_etx_2
v 0.021213 -0.000000 -0.021213
v 0.016971 0.020000 -0.016971
v 0.030000 -0.000000 0.000000
v 0.021213 -0.000000 0.021213
v 0.024000 0.020000 0.000000
v 0.016971 0.020000 0.016971
v -0.000000 -0.000000 -0.030000
v -0.021213 -0.000000 -0.021213
v 0.000000 0.020000 -0.024000
v -0.016971 0.020000 -0.016971
v -0.000000 -0.000000 0.030000
v -0.030000 -0.000000 0.000000
v -0.021213 -0.000000 0.021213
v -0.024000 0.020000 0.000000
v 0.000000 0.020000 0.024000
v -0.016971 0.020000 0.016971
v -0.021213 0.188000 -0.021213
v -0.016971 0.168000 -0.016971
v -0.030000 0.188000 0.000000
v -0.021213 0.188000 0.021213
v -0.024000 0.168000 0.000000
v -0.016971 0.168000 0.016971
v 0.000000 0.188000 -0.030000
v 0.021213 0.188000 -0.021213
v 0.000000 0.168000 -0.024000
v 0.016971 0.168000 -0.016971
v 0.000000 0.188000 0.030000
v 0.030000 0.188000 0.000000
v 0.021213 0.188000 0.021213
v 0.024000 0.168000 0.000000
v 0.000000 0.168000 0.024000
v 0.016971 0.168000 0.016971
v -0.089647 0.280000 0.040000
v -0.077637 0.235176 0.040000
v -0.044824 0.202363 0.040000
v -0.044824 0.357637 0.040000
v -0.077637 0.324823 0.040000
v -0.100000 0.280000 -0.040000
v -0.050000 0.193397 -0.040000
v -0.086603 0.230000 -0.040000
v -0.086603 0.330000 -0.040000
v -0.050000 0.366602 -0.040000
v 0.000000 0.190353 0.040000
v 0.089647 0.280000 0.040000
v 0.044824 0.202363 0.040000
v 0.077637 0.235176 0.040000
v 0.000000 0.369647 0.040000
v 0.077637 0.324823 0.040000
v 0.044824 0.357637 0.040000
v 0.000000 0.180000 -0.040000
v 0.086603 0.230000 -0.040000
v 0.050000 0.193397 -0.040000
v 0.000000 0.380000 -0.040000
v 0.100000 0.280000 -0.040000
v 0.050000 0.366602 -0.040000
v 0.086603 0.330000 -0.040000
v 0.086603 0.330000 0.040000
v 0.100000 0.280000 0.040000
v -0.100000 0.280000 0.040000
v -0.086603 0.330000 0.040000
v 0.000000 0.180000 0.040000
v -0.050000 0.193397 0.040000
v -0.050000 0.366602 0.040000
v 0.000000 0.380000 0.040000
v -0.086603 0.230000 0.040000
v 0.050000 0.193397 0.040000
v 0.086603 0.230000 0.040000
v 0.050000 0.366602 0.040000
v -0.089647 0.280000 0.020000
v 0.000000 0.190353 0.020000
v -0.044824 0.357637 0.020000
v 0.044824 0.202363 0.020000
v 0.077637 0.235176 0.020000
v 0.077637 0.324824 0.020000
v 0.089647 0.280000 0.020000
v -0.077637 0.324824 0.020000
v -0.044824 0.202363 0.020000
v 0.000000 0.369647 0.020000
v -0.077637 0.235176 0.020000
v 0.044824 0.357637 0.020000
v -0.089647 0.280000 0.030000
v 0.000000 0.190353 0.030000
v -0.044824 0.357637 0.030000
v 0.044824 0.202363 0.030000
v 0.077637 0.235176 0.030000
v 0.077637 0.324824 0.030000
v 0.089647 0.280000 0.030000
v -0.077637 0.324824 0.030000
v -0.044824 0.202363 0.030000
v 0.000000 0.369647 0.030000
v -0.077637 0.235176 0.030000
v 0.044824 0.357637 0.030000
v -0.089647 0.280000 0.057000
v -0.044823 0.357637 0.069000
v -0.077637 0.324824 0.069000
v -0.100000 0.280000 0.040000
v -0.086602 0.330000 0.040000
v -0.050000 0.366602 0.040000
v 0.089647 0.280000 0.057000
v 0.000000 0.369647 0.069000
v 0.077637 0.324824 0.069000
v 0.044824 0.357637 0.069000
v 0.000000 0.380000 0.040000
v 0.100000 0.280000 0.040000
v 0.050000 0.366602 0.040000
v 0.086603 0.330000 0.040000
v 0.086603 0.330000 0.069000
v 0.100000 0.280000 0.057000
v -0.100000 0.280000 0.057000
v -0.086602 0.330000 0.069000
v -0.050000 0.366602 0.069000
v 0.000000 0.380000 0.069000
v 0.050000 0.366602 0.069000
v 0.077637 0.324824 0.040000
v 0.089647 0.280000 0.040000
v -0.089647 0.280000 0.040000
v -0.077637 0.324824 0.040000
v -0.044823 0.357637 0.040000
v 0.044824 0.357637 0.040000
v -0.000000 0.369647 0.040000
v 0.093302 0.303706 0.069000
v 0.093302 0.303706 0.040000
v 0.083642 0.303706 0.069000
v 0.083642 0.303706 0.040000
v -0.093324 0.303625 0.040000
v -0.093324 0.303625 0.069000
v -0.083662 0.303625 0.069000
v -0.083662 0.303625 0.040000
v -0.014142 0.168000 -0.014142
v -0.014142 0.020000 -0.014142
v -0.020000 0.168000 -0.000000
v -0.014142 0.168000 0.014142
v -0.020000 0.020000 0.000000
v -0.014142 0.020000 0.014142
v 0.000000 0.168000 -0.020000
v 0.014142 0.168000 -0.014142
v 0.000000 0.020000 -0.020000
v 0.014142 0.020000 -0.014142
v 0.000000 0.168000 0.020000
v 0.020000 0.168000 -0.000000
v 0.014142 0.168000 0.014142
v 0.020000 0.020000 0.000000
v 0.000000 0.020000 0.020000
v 0.014142 0.020000 0.014142
v -0.014142 0.059600 -0.014142
v -0.021213 0.071800 -0.021213
v -0.021213 0.116200 -0.021213
v -0.014142 0.128400 -0.014142
v -0.014142 0.128400 0.014142
v -0.021213 0.116200 0.021213
v -0.021213 0.071800 0.021213
v -0.014142 0.059600 0.014142
v -0.020000 0.128400 0.000000
v -0.030000 0.116200 -0.000000
v -0.030000 0.071800 -0.000000
v -0.020000 0.059600 0.000000
v 0.020000 0.059600 0.000000
v 0.030000 0.071800 -0.000000
v 0.030000 0.116200 -0.000000
v 0.020000 0.128400 0.000000
v 0.014142 0.128400 0.014142
v 0.021213 0.116200 0.021213
v 0.021213 0.071800 0.021213
v 0.014142 0.059600 0.014142
v 0.000000 0.128400 0.020000
v 0.000000 0.116200 0.030000
v 0.000000 0.071800 0.030000
v 0.000000 0.059600 0.020000
v 0.000000 0.059600 -0.020000
v 0.000000 0.071800 -0.030000
v 0.000000 0.116200 -0.030000
v 0.000000 0.128400 -0.020000
v 0.014142 0.128400 -0.014142
v 0.021213 0.116200 -0.021213
v 0.021213 0.071800 -0.021213
v 0.014142 0.059600 -0.014142
vn -0.0000 1.0000 -0.0000
vn -0.0000 0.2873 -0.9578
vn 0.6773 0.2873 -0.6773
vn 0.9578 0.2873 -0.0000
vn -0.0000 0.2873 0.9578
vn 0.6773 0.2873 0.6773
vn -0.9578 0.2873 -0.0000
vn -0.6773 0.2873 0.6773
vn -0.6773 0.2873 -0.6773
vn -0.0000 -1.0000 -0.0000
vn -0.0000 -0.2873 -0.9578
vn -0.6773 -0.2873 -0.6773
vn -0.9578 -0.2873 -0.0000
vn -0.0000 -0.2873 0.9578
vn -0.6773 -0.2873 0.6773
vn 0.9578 -0.2873 -0.0000
vn 0.6773 -0.2873 0.6773
vn 0.6773 -0.2873 -0.6773
vn -0.5000 0.8660 -0.0000
vn -0.8660 0.5000 -0.0000
vn -0.0000 -0.0000 -1.0000
vn -0.5000 -0.8660 -0.0000
vn -0.8660 -0.5000 -0.0000
vn -1.0000 -0.0000 -0.0000
vn 0.5000 -0.8660 -0.0000
vn 0.8660 -0.5000 -0.0000
vn 1.0000 -0.0000 -0.0000
vn 0.5000 0.8660 -0.0000
vn 0.8660 0.5000 -0.0000
vn -0.0000 -0.0000 1.0000
vn -0.8691 0.4947 -0.0000
vn -0.9825 0.0656 0.1744
vn -0.9658 0.2595 -0.0000
vn -0.9999 0.0136 -0.0000
vn -0.9546 0.2851 0.0859
vn 0.8691 0.4946 -0.0000
vn 0.9666 0.1264 -0.2229
vn 0.9663 0.2573 -0.0000
vn 0.9695 0.2327 -0.0776
vn 0.9999 0.0136 -0.0000
vn -0.0000 -0.1958 0.9807
vn 0.1736 -0.4448 0.8787
vn 0.0261 -0.3757 0.9264
vn -0.0000 -0.2687 0.9632
vn -0.0000 -0.1963 0.9805
vn -0.0000 -0.2695 0.9630
vn 0.8622 -0.5065 -0.0000
vn -1.0000 -0.0048 -0.0000
vn -0.8622 -0.5066 -0.0000
vn -0.9657 -0.2596 -0.0000
vn 0.9651 -0.2619 -0.0000
vn 0.9791 -0.1918 -0.0680
vn 0.9999 0.0137 -0.0000
vn 1.0000 -0.0023 -0.0000
vn -0.9929 -0.0908 0.0765
vn -0.9999 0.0137 -0.0000
vn -0.0320 -0.3789 0.9249
vn 0.0394 -0.5204 0.8530
vn -0.0000 -0.9659 -0.2588
vn -0.0755 -0.9962 0.0436
vn -0.0000 -0.9848 -0.1736
vn -0.0000 -0.9659 0.2588
vn -0.0755 -0.9962 -0.0436
vn -0.7071 -0.0000 -0.7071
vn -0.7071 -0.0000 0.7071
vn 0.7071 -0.0000 0.7071
vn 0.7071 -0.0000 -0.7071
vn 0.5469 -0.6339 -0.5469
vn 0.7734 -0.6339 -0.0000
vn 0.5469 0.6339 -0.5469
vn 0.7734 0.6339 -0.0000
vn -0.0000 -0.6339 -0.7734
vn -0.0000 0.6339 -0.7734
vn 0.5469 -0.6339 0.5469
vn -0.0000 -0.6339 0.7734
vn 0.5469 0.6339 0.5469
vn -0.0000 0.6339 0.7734
vn -0.5469 -0.6339 0.5469
vn -0.7734 -0.6339 -0.0000
vn -0.5469 0.6339 0.5469
vn -0.7734 0.6339 -0.0000
vn -0.5469 0.6339 -0.5469
vn -0.5469 -0.6339 -0.5469
vt 0.167969 0.246094
vt 0.188424 0.238712
vt 0.175781 0.245312
vt 0.175781 0.246875
vt 0.167969 0.253906
vt 0.167969 0.238281
vt 0.167969 0.246094
vt 0.184098 0.243038
vt 0.175781 0.253125
vt 0.175781 0.239062
vt 0.184098 0.249156
vt 0.175781 0.246875
vt 0.175781 0.245312
vt 0.167969 0.238281
vt 0.167969 0.253906
vt 0.167969 0.246094
vt 0.194541 0.238712
vt 0.175781 0.239063
vt 0.175781 0.253125
vt 0.198867 0.243038
vt 0.175781 0.246875
vt 0.175781 0.245312
vt 0.167969 0.253906
vt 0.167969 0.238281
vt 0.167969 0.253906
vt 0.167969 0.238281
vt 0.167969 0.246094
vt 0.198867 0.249156
vt 0.175781 0.253125
vt 0.175781 0.239062
vt 0.188424 0.253482
vt 0.175781 0.253125
vt 0.175781 0.239063
vt 0.194541 0.253482
vt 0.175781 0.246875
vt 0.175781 0.245312
vt 0.167969 0.246094
vt 0.188424 0.238712
vt 0.175781 0.245312
vt 0.175781 0.246875
vt 0.167969 0.253906
vt 0.167969 0.238281
vt 0.167969 0.246094
vt 0.184098 0.243038
vt 0.175781 0.253125
vt 0.175781 0.239062
vt 0.184098 0.249156
vt 0.175781 0.246875
vt 0.175781 0.245312
vt 0.167969 0.238281
vt 0.167969 0.253906
vt 0.167969 0.246094
vt 0.194541 0.238712
vt 0.175781 0.239063
vt 0.175781 0.253125
vt 0.198867 0.243038
vt 0.175781 0.246875
vt 0.175781 0.245312
vt 0.167969 0.253906
vt 0.167969 0.238281
vt 0.167969 0.253906
vt 0.167969 0.238281
vt 0.167969 0.246094
vt 0.198867 0.249156
vt 0.175781 0.253125
vt 0.175781 0.239062
vt 0.188424 0.253482
vt 0.175781 0.253125
vt 0.175781 0.239063
vt 0.194541 0.253482
vt 0.175781 0.246875
vt 0.175781 0.245312
vt 0.008337 0.698438
vt 0.123047 0.732422
vt 0.123047 0.716797
vt 0.012204 0.684005
vt 0.123047 0.716797
vt 0.123047 0.732422
vt 0.022769 0.673440
vt 0.123047 0.732422
vt 0.123047 0.716797
vt 0.022769 0.723435
vt 0.123047 0.732422
vt 0.123047 0.716797
vt 0.012204 0.712870
vt 0.123047 0.716797
vt 0.123047 0.732422
vt 0.009317 0.714536
vt 0.113281 0.732422
vt 0.113281 0.716797
vt 0.037201 0.730635
vt 0.113281 0.732422
vt 0.113281 0.716797
vt 0.021102 0.726321
vt 0.113281 0.732422
vt 0.113281 0.716797
vt 0.005003 0.698438
vt 0.113281 0.716797
vt 0.113281 0.732422
vt 0.009317 0.682339
vt 0.113281 0.716797
vt 0.113281 0.732422
vt 0.037201 0.669573
vt 0.123047 0.716797
vt 0.123047 0.732422
vt 0.066065 0.698438
vt 0.123047 0.716797
vt 0.123047 0.732422
vt 0.123047 0.732422
vt 0.051633 0.673440
vt 0.123047 0.716797
vt 0.123047 0.716797
vt 0.062198 0.684005
vt 0.123047 0.732422
vt 0.037201 0.727302
vt 0.123047 0.732422
vt 0.123047 0.716797
vt 0.062198 0.712870
vt 0.123047 0.716797
vt 0.123047 0.732422
vt 0.051633 0.723435
vt 0.123047 0.732422
vt 0.123047 0.716797
vt 0.053300 0.726321
vt 0.113281 0.716797
vt 0.113281 0.732422
vt 0.069398 0.698438
vt 0.113281 0.716797
vt 0.113281 0.732422
vt 0.065085 0.714536
vt 0.113281 0.716797
vt 0.113281 0.732422
vt 0.021102 0.670554
vt 0.113281 0.732422
vt 0.113281 0.716797
vt 0.065085 0.682339
vt 0.113281 0.716797
vt 0.113281 0.732422
vt 0.037201 0.666240
vt 0.113281 0.732422
vt 0.113281 0.716797
vt 0.053300 0.670554
vt 0.113281 0.732422
vt 0.113281 0.716797
vt 0.140625 0.732422
vt 0.140625 0.716797
vt 0.065085 0.714536
vt 0.140625 0.716797
vt 0.140625 0.732422
vt 0.069398 0.698438
vt 0.140625 0.732422
vt 0.140625 0.716797
vt 0.005003 0.698438
vt 0.140625 0.716797
vt 0.140625 0.732422
vt 0.009317 0.714536
vt 0.140625 0.716797
vt 0.140625 0.732422
vt 0.037201 0.666240
vt 0.140625 0.732422
vt 0.140625 0.716797
vt 0.021102 0.670554
vt 0.140625 0.716797
vt 0.140625 0.732422
vt 0.021102 0.726321
vt 0.140625 0.732422
vt 0.140625 0.716797
vt 0.037201 0.730635
vt 0.140625 0.732422
vt 0.140625 0.716797
vt 0.009317 0.682339
vt 0.140625 0.716797
vt 0.140625 0.732422
vt 0.053300 0.670554
vt 0.140625 0.716797
vt 0.140625 0.732422
vt 0.065085 0.682339
vt 0.140625 0.732422
vt 0.140625 0.716797
vt 0.053300 0.726321
vt 0.130859 0.732422
vt 0.130859 0.716797
vt 0.000000 0.906134
vt 0.130859 0.716797
vt 0.130859 0.732422
vt 0.093367 0.812767
vt 0.130859 0.732422
vt 0.130859 0.716797
vt 0.046683 0.986992
vt 0.130859 0.732422
vt 0.130859 0.716797
vt 0.140051 0.825276
vt 0.130859 0.716797
vt 0.130859 0.732422
vt 0.174225 0.859450
vt 0.130859 0.716797
vt 0.130859 0.732422
vt 0.174225 0.952817
vt 0.130859 0.716797
vt 0.130859 0.732422
vt 0.186734 0.906134
vt 0.130859 0.716797
vt 0.130859 0.732422
vt 0.012509 0.952817
vt 0.130859 0.732422
vt 0.130859 0.716797
vt 0.046683 0.825276
vt 0.130859 0.732422
vt 0.130859 0.716797
vt 0.093367 0.999501
vt 0.130859 0.716797
vt 0.130859 0.732422
vt 0.012509 0.859450
vt 0.130859 0.732422
vt 0.130859 0.716797
vt 0.140051 0.986992
vt 0.375000 0.500000
vt 0.500000 0.375000
vt 0.437500 0.608253
vt 0.562500 0.391747
vt 0.608253 0.437500
vt 0.608253 0.562500
vt 0.625000 0.500000
vt 0.391747 0.562500
vt 0.437500 0.391747
vt 0.500000 0.625000
vt 0.391747 0.437500
vt 0.562500 0.608253
vt 0.132031 0.716797
vt 0.008337 0.699250
vt -0.078253 0.686103
vt 0.022769 0.723435
vt 0.127344 0.732422
vt 0.127344 0.716797
vt 0.012204 0.712870
vt 0.127344 0.716797
vt 0.127344 0.732422
vt 0.126953 0.716797
vt 0.126953 0.716797
vt 0.126953 0.732422
vt 0.126953 0.716797
vt 0.126953 0.732422
vt 0.066065 0.699251
vt 0.132031 0.732422
vt 0.102312 0.713765
vt 0.037201 0.727302
vt 0.127344 0.732422
vt 0.127344 0.716797
vt 0.127344 0.716797
vt 0.127344 0.732422
vt 0.062198 0.712870
vt 0.051633 0.723435
vt 0.127344 0.732422
vt 0.127344 0.716797
vt 0.126953 0.732422
vt 0.126953 0.716797
vt 0.126953 0.732422
vt 0.126953 0.732422
vt 0.126953 0.716797
vt 0.126953 0.732422
vt 0.126953 0.716797
vt 0.136865 0.732422
vt 0.065085 0.714536
vt 0.136865 0.716797
vt 0.132764 0.732422
vt 0.069398 0.699251
vt 0.058829 0.693824
vt 0.132764 0.716797
vt 0.005003 0.699250
vt -0.085007 0.686103
vt 0.136865 0.716797
vt 0.009317 0.714536
vt 0.136865 0.732422
vt 0.136865 0.716797
vt 0.136865 0.732422
vt 0.021102 0.726321
vt 0.136865 0.732422
vt 0.136865 0.716797
vt 0.037201 0.730635
vt 0.136865 0.732422
vt 0.136865 0.716797
vt 0.053300 0.726321
vt 0.138672 0.716797
vt 0.138672 0.732422
vt 0.138672 0.732422
vt 0.138672 0.716797
vt 0.138672 0.716797
vt 0.138672 0.732422
vt 0.138672 0.732422
vt 0.138672 0.716797
vt 0.138672 0.732422
vt 0.138672 0.716797
vt 0.138672 0.732422
vt 0.138672 0.716797
vt 0.067242 0.704201
vt 0.067242 0.706070
vt 0.136865 0.724987
vt 0.126953 0.724987
vt 0.064132 0.704201
vt 0.127344 0.724188
vt 0.064132 0.706070
vt 0.138672 0.724189
vt 0.126953 0.724207
vt 0.007153 0.706044
vt 0.007153 0.704176
vt 0.136865 0.724207
vt 0.010264 0.706044
vt 0.127344 0.725002
vt 0.010264 0.704176
vt 0.138672 0.725002
vt 0.133750 0.704007
vt 0.122994 0.704007
vt 0.133750 0.698445
vt 0.133750 0.692882
vt 0.122994 0.698445
vt 0.122994 0.692882
vt 0.133750 0.665069
vt 0.133750 0.709570
vt 0.133750 0.670632
vt 0.122994 0.709570
vt 0.122994 0.665069
vt 0.122994 0.670632
vt 0.133750 0.687319
vt 0.133750 0.676194
vt 0.133750 0.681757
vt 0.122994 0.676194
vt 0.122994 0.687319
vt 0.122994 0.681757
vt 0.137384 0.704007
vt 0.083728 0.673618
vt 0.084584 0.673002
vt 0.069885 0.673413
vt 0.080923 0.668818
vt 0.102099 0.711907
vt 0.053750 0.673413
vt 0.104904 0.707106
vt 0.119360 0.704007
vt 0.105760 0.707723
vt 0.119360 0.692882
vt 0.097797 0.697386
vt 0.097470 0.696383
vt 0.053750 0.690101
vt 0.092372 0.698603
vt 0.071196 0.682122
vt 0.069885 0.690101
vt 0.076621 0.683339
vt 0.137384 0.692882
vt 0.076294 0.684342
vt 0.100334 0.702336
vt 0.119360 0.698445
vt 0.100956 0.703188
vt 0.096177 0.706029
vt 0.053750 0.681757
vt 0.069885 0.681757
vt 0.075001 0.674696
vt 0.137384 0.698445
vt 0.079158 0.678389
vt 0.079780 0.677537
vt 0.079780 0.703188
vt 0.137384 0.676194
vt 0.079158 0.702336
vt 0.075001 0.706029
vt 0.069885 0.715132
vt 0.053750 0.715132
vt 0.096177 0.674696
vt 0.119360 0.676194
vt 0.100956 0.677537
vt 0.100334 0.678389
vt 0.119360 0.681757
vt 0.097470 0.684342
vt 0.097797 0.683339
vt 0.053750 0.706789
vt 0.092372 0.682122
vt 0.071196 0.698603
vt 0.069885 0.706789
vt 0.076294 0.696383
vt 0.137384 0.681757
vt 0.076621 0.697386
vt 0.119360 0.687319
vt 0.096596 0.689835
vt 0.096596 0.690890
vt 0.053750 0.698445
vt 0.091061 0.690362
vt 0.069885 0.690362
vt 0.069885 0.698445
vt 0.075419 0.690890
vt 0.137384 0.687320
vt 0.075419 0.689835
vt 0.137384 0.709570
vt 0.137384 0.665069
vt 0.089553 0.710222
vt 0.089553 0.670503
vt 0.088377 0.715656
vt 0.069885 0.731820
vt 0.069885 0.665069
vt 0.088377 0.665069
vt 0.053750 0.731820
vt 0.109553 0.665069
vt 0.109553 0.715656
vt 0.053750 0.665069
vt 0.119360 0.665069
vt 0.110730 0.670503
vt 0.119360 0.709570
vt 0.110729 0.710222
vt 0.119360 0.670632
vt 0.104904 0.673618
vt 0.105760 0.673002
vt 0.053750 0.723476
vt 0.102099 0.668818
vt 0.080923 0.711907
vt 0.069885 0.723476
vt 0.083728 0.707106
vt 0.137384 0.670632
vt 0.084584 0.707723
s 1
usemtl electronics_etx_part_1
f 38/68/15 40/74/15 39/71/15 30/51/15 29/48/15 26/42/15 33/57/15 34/60/15
f 31/54/16 33/58/16 26/43/17 25/41/17
f 25/41/17 26/44/17 29/49/18 27/45/18
f 39/72/19 35/63/19 28/47/20 30/52/20
f 30/53/20 28/47/20 27/46/18 29/50/18
f 38/69/21 36/65/21 37/67/22 40/75/22
f 40/76/22 37/67/22 35/64/19 39/73/19
f 33/59/16 31/55/16 32/56/23 34/61/23
f 34/62/23 32/56/23 36/66/21 38/70/21
f 54/104/24 56/110/24 55/107/24 46/87/24 45/84/24 42/78/24 49/93/24 50/96/24
f 47/90/25 49/94/25 42/79/26 41/77/26
f 41/77/26 42/80/26 45/85/27 43/81/27
f 55/108/28 51/99/28 44/83/29 46/88/29
f 46/89/29 44/83/29 43/82/27 45/86/27
f 54/105/30 52/101/30 53/103/31 56/111/31
f 56/112/31 53/103/31 51/100/28 55/109/28
f 49/95/25 47/91/25 48/92/32 50/97/32
f 50/98/32 48/92/32 52/102/30 54/106/30
f 69/149/33 70/152/34 97/233/34 96/230/33
f 74/164/35 63/131/35 64/134/35 62/128/35 65/137/35 66/140/35 77/173/35 79/179/35 80/182/35 78/176/35 75/167/35 76/170/35
f 74/165/24 85/197/24 86/200/36 63/132/36
f 63/133/36 86/201/36 89/209/37 64/135/37
f 64/136/37 89/210/37 83/191/38 62/129/38
f 88/206/15 77/174/15 66/141/33 87/203/33
f 87/204/33 66/142/33 65/138/34 84/194/34
f 84/195/34 65/139/34 62/130/38 83/192/38
f 85/198/24 74/166/24 76/171/39 90/212/39
f 90/213/39 76/172/39 75/168/40 91/215/40
f 91/216/40 75/169/40 78/177/41 82/188/41
f 77/175/15 88/207/15 92/218/42 79/180/42
f 79/181/42 92/219/42 81/185/43 80/183/43
f 80/184/43 81/186/43 82/189/41 78/178/41
f 72/158/44 68/146/44 82/190/44 81/187/44
f 57/113/44 61/125/44 84/196/44 83/193/44
f 67/143/44 59/119/44 86/202/44 85/199/44
f 60/122/44 71/155/44 88/208/44 87/205/44
f 59/119/44 58/116/44 89/211/44 86/202/44
f 58/116/44 57/113/44 83/193/44 89/211/44
f 61/125/44 60/122/44 87/205/44 84/196/44
f 69/150/44 67/143/44 85/199/44 90/214/44
f 70/153/44 69/150/44 90/214/44 91/217/44
f 68/146/44 70/153/44 91/217/44 82/190/44
f 71/155/44 73/161/44 92/220/44 88/208/44
f 73/161/44 72/158/44 81/187/44 92/220/44
f 57/114/41 58/117/43 103/251/43 93/221/41
f 59/120/42 67/144/15 94/224/15 101/245/42
f 70/154/34 68/147/38 99/239/38 97/234/34
f 60/123/39 61/126/40 100/242/40 95/227/39
f 71/156/24 60/124/39 95/228/39 102/248/24
f 73/162/36 71/157/24 102/249/24 104/254/36
f 68/148/38 72/159/37 98/236/37 99/240/38
f 67/145/15 69/151/33 96/231/33 94/225/15
f 58/118/43 59/121/42 101/246/42 103/252/43
f 72/160/37 73/163/36 104/255/36 98/237/37
f 61/127/40 57/115/41 93/222/41 100/243/40
f 136/317/15 127/295/15 122/281/33 135/314/33
f 135/315/33 122/282/33 121/279/45 134/311/45
f 150/346/46 149/343/47 120/278/48 133/308/49
f 127/296/15 136/318/15 137/320/42 129/298/42
f 129/299/42 137/321/42 131/302/50 130/300/50
f 146/338/51 145/337/52 132/305/53 128/297/54
f 147/339/55 123/283/56 132/306/57 145/335/58
f 151/347/59 119/275/44 134/312/44 150/344/60
f 118/272/44 124/286/44 136/319/44 135/316/44
f 119/275/44 118/272/44 135/316/44 134/312/44
f 124/286/44 126/292/44 137/322/44 136/319/44
f 126/292/44 125/291/44 131/303/44 137/322/44
f 118/273/39 119/276/61 141/327/61 142/329/39
f 124/287/24 118/274/39 142/330/39 144/333/24
f 126/293/36 124/288/24 144/334/24 143/331/36
f 147/340/62 125/289/63 138/323/63 148/342/64
f 125/290/63 126/294/36 143/332/36 138/324/63
f 151/348/65 117/269/66 140/326/67 152/350/68
f 123/284/69 147/340/62 148/342/64 139/325/70
f 125/291/44 147/341/55 145/336/58 131/303/44
f 130/301/50 131/304/50 145/337/52 146/338/51
f 119/277/61 151/348/65 152/350/68 141/328/61
f 117/270/71 151/349/59 150/345/60 133/309/72
f 134/313/45 121/280/45 149/343/47 150/346/46
f 128/297/73 132/307/74 123/285/75 139/325/76
f 133/310/77 120/278/73 140/326/76 117/271/77
f 193/429/35 161/360/35 154/352/78 169/369/78
f 169/369/78 154/352/78 157/355/38 180/396/38
f 189/419/44 163/363/44 156/354/79 173/379/79
f 173/379/79 156/354/79 155/353/38 177/390/38
f 184/406/41 164/364/41 165/365/80 185/409/80
f 185/409/80 165/365/80 163/363/44 189/419/44
f 196/441/35 159/357/35 160/359/81 197/445/81
f 197/445/81 160/359/81 164/364/41 184/406/41
f 162/362/81 200/453/81 181/400/41 166/366/41
f 200/452/82 199/450/82 182/402/83 181/399/83
f 199/451/81 198/448/81 183/404/41 182/403/41
f 198/449/84 197/446/84 184/407/85 183/405/85
f 161/361/35 193/430/35 200/453/81 162/362/81
f 193/431/86 194/433/86 199/450/82 200/454/82
f 194/434/35 195/437/35 198/448/81 199/451/81
f 195/438/87 196/442/87 197/447/84 198/449/84
f 168/368/80 188/417/80 192/427/44 167/367/44
f 188/416/88 187/414/88 191/424/89 192/426/89
f 187/415/80 186/412/80 190/422/44 191/425/44
f 186/413/90 185/410/90 189/420/91 190/423/91
f 166/366/41 181/400/41 188/417/80 168/368/80
f 181/401/83 182/402/83 187/414/88 188/418/88
f 182/403/41 183/404/41 186/412/80 187/415/80
f 183/405/85 184/408/85 185/411/90 186/413/90
f 158/356/79 176/387/79 180/396/38 157/355/38
f 176/386/92 175/384/92 179/395/93 180/397/93
f 175/385/79 174/382/79 178/393/38 179/394/38
f 174/383/94 173/380/94 177/389/95 178/392/95
f 167/367/44 192/427/44 176/387/79 158/356/79
f 192/428/89 191/424/89 175/384/92 176/388/92
f 191/425/44 190/422/44 174/382/79 175/385/79
f 190/423/91 189/421/91 173/381/94 174/383/94
f 153/351/78 172/377/78 177/390/38 155/353/38
f 172/376/96 171/374/96 178/392/95 177/391/95
f 171/375/78 170/372/78 179/394/38 178/393/38
f 170/373/97 169/370/97 180/398/93 179/395/93
f 159/358/35 196/443/35 172/377/78 153/351/78
f 196/444/87 195/439/87 171/374/96 172/378/96
f 195/440/35 194/435/35 170/372/78 171/375/78
f 194/436/86 193/432/86 169/371/97 170/373/97
usemtl electronics_etx_part_2
f 94/226/44 96/232/44 97/235/44 99/241/44 98/238/44 104/256/44 102/250/44 95/229/44 100/244/44 93/223/44 103/253/44 101/247/44
usemtl glass_etx_1
f 106/258/44 108/260/44 109/261/44 111/263/44 110/262/44 116/268/44 114/266/44 107/259/44 112/264/44 105/257/44 115/267/44 113/265/44
o gauge_etx_2_tiny_valve_child
v -0.019617 0.113502 0.051580
v -0.027736 0.093901 0.051580
v -0.000016 0.121621 0.051580
v -0.019617 0.074300 0.051580
v -0.000016 0.066181 0.051580
v 0.019585 0.074300 0.051580
v 0.019585 0.113502 0.051580
v 0.027704 0.093901 0.051580
v 0.009784 0.117561 0.051580
v 0.023644 0.103701 0.051580
v -0.023677 0.084100 0.051580
v -0.009817 0.070240 0.051580
v 0.009784 0.117561 0.065440
v 0.019585 0.113502 0.072370
v -0.009817 0.070240 0.065440
v -0.019617 0.074300 0.072370
v 0.023644 0.103701 0.065440
v -0.023677 0.084100 0.065440
v 0.019585 0.113502 0.037720
v -0.000016 0.121621 0.037720
v -0.027736 0.093901 0.037720
v -0.019617 0.074300 0.037720
v -0.019617 0.113502 0.037720
v 0.019585 0.074300 0.037720
v 0.027704 0.093901 0.037720
v -0.000016 0.066181 0.037720
v -0.012734 0.093901 0.037720
v -0.009009 0.102894 0.037720
v -0.000016 0.106619 0.037720
v 0.008977 0.084908 0.037720
v -0.009009 0.084908 0.037720
v -0.000016 0.081183 0.037720
v 0.008977 0.102894 0.037720
v 0.012702 0.093901 0.037720
v 0.008977 0.102894 0.019800
v -0.000016 0.106619 0.019800
v -0.012734 0.093901 0.019800
v -0.009009 0.084908 0.019800
v -0.009009 0.102894 0.019800
v 0.008977 0.084908 0.019800
v 0.012702 0.093901 0.019800
v -0.000016 0.081183 0.019800
vn 0.7071 -0.7071 -0.0000
vn -0.9239 -0.3827 -0.0000
vn -0.9239 0.3827 -0.0000
vn 0.3827 0.9239 -0.0000
vn -0.3827 0.9239 -0.0000
vn -0.3827 -0.9239 -0.0000
vn 0.3827 -0.9239 -0.0000
vn 0.9239 0.3827 -0.0000
vn 0.9239 -0.3827 -0.0000
vn -0.0000 -0.0000 1.0000
vn -0.4082 0.4082 0.8165
vn -0.7071 0.7071 -0.0000
vn 0.4082 -0.4082 0.8165
vn -0.0000 -0.0000 -1.0000
vt 0.094143 0.156250
vt 0.083083 0.156250
vt 0.086208 0.156643
vt 0.094143 0.148708
vt 0.086208 0.148708
vt 0.086208 0.156643
vt 0.094143 0.163792
vt 0.086208 0.163792
vt 0.093750 0.156643
vt 0.101292 0.156643
vt 0.094143 0.148708
vt 0.101292 0.148708
vt 0.094143 0.156250
vt 0.104417 0.156250
vt 0.093750 0.156643
vt 0.101292 0.156643
vt 0.094143 0.163792
vt 0.101292 0.163792
vt 0.089979 0.165355
vt 0.089979 0.156643
vt 0.094143 0.165355
vt 0.094143 0.165355
vt 0.097521 0.165355
vt 0.097521 0.156643
vt 0.089979 0.147145
vt 0.089979 0.156643
vt 0.094143 0.147145
vt 0.094143 0.147145
vt 0.097521 0.147145
vt 0.097521 0.156643
vt 0.089979 0.165355
vt 0.089979 0.151310
vt 0.088810 0.165355
vt 0.093750 0.148643
vt 0.093750 0.166917
vt 0.088810 0.147145
vt 0.097521 0.151310
vt 0.097521 0.147145
vt 0.093750 0.148643
vt 0.093750 0.145583
vt 0.088810 0.165355
vt 0.097521 0.151310
vt 0.097521 0.165355
vt 0.089979 0.147145
vt 0.089979 0.151310
vt 0.088810 0.147145
vt 0.093750 0.161976
vt 0.093750 0.166917
vt 0.086208 0.161976
vt 0.099476 0.163792
vt 0.086208 0.163792
vt 0.086208 0.161976
vt 0.099476 0.148708
vt 0.086208 0.148708
vt 0.093750 0.161976
vt 0.093750 0.145583
vt 0.099476 0.156250
vt 0.083083 0.156250
vt 0.099476 0.156250
vt 0.104417 0.156250
vt 0.101292 0.161976
vt 0.099476 0.163792
vt 0.101292 0.163792
vt 0.101292 0.161976
vt 0.099476 0.148708
vt 0.101292 0.148708
vt 0.090289 0.152790
vt 0.088856 0.156250
vt 0.090290 0.159711
vt 0.098644 0.156250
vt 0.093750 0.151356
vt 0.097211 0.152790
vt 0.093750 0.161144
vt 0.097211 0.159711
vt 0.093750 0.161144
vt 0.090290 0.159711
vt 0.090289 0.152790
vt 0.093750 0.151356
vt 0.088856 0.156250
vt 0.098644 0.156250
vt 0.097211 0.159711
vt 0.097211 0.152789
s 0
usemtl electronics_etx_part_1
f 212/482/98 210/476/98 217/495/98 215/490/98
f 222/509/99 204/463/99 211/480/99 202/457/99 221/506/99
f 221/507/100 202/458/100 201/455/100 223/511/100
f 207/469/101 219/501/101 220/503/101 203/460/101 209/474/101
f 203/461/102 220/504/102 223/511/102 201/455/102
f 204/463/103 222/509/103 226/518/103 205/464/103 212/484/103
f 205/465/104 226/519/104 224/513/104 206/467/104
f 219/501/105 207/469/105 210/478/105 208/470/105 225/515/105
f 225/516/106 208/471/106 206/467/106 224/513/106
f 211/479/107 209/473/107 203/462/107 201/456/107 202/459/107
f 216/494/108 214/489/108 213/485/108 218/498/108
f 212/483/107 205/466/107 206/468/107 208/472/107 210/477/107
f 207/469/101 209/474/101 213/486/101 214/488/101
f 211/480/99 204/463/99 216/493/99 218/499/99
f 204/463/103 212/484/103 215/491/103 216/493/103
f 210/478/105 207/469/105 214/488/105 217/496/105
f 209/475/109 211/481/109 218/500/109 213/487/109
f 215/492/110 217/497/110 214/489/110 216/494/110
f 225/517/111 224/514/111 226/520/111 222/510/111 221/508/111 223/512/111 220/505/111 219/502/111
f 229/523/101 233/527/101 235/529/101 236/530/101
f 233/527/105 234/528/105 241/535/105 235/529/105
f 232/526/103 231/525/103 238/532/103 242/536/103
f 234/528/106 230/524/106 240/534/106 241/535/106
f 231/525/99 227/521/99 237/531/99 238/532/99
f 230/524/104 232/526/104 242/536/104 240/534/104
f 228/522/102 229/523/102 236/530/102 239/533/102
f 227/521/100 228/522/100 239/533/100 237/531/100
