# Blender 3.4.0
# www.blender.org
mtllib lever_etx_5.mtl
o lever_etx_5
v -0.005400 -0.108000 -0.018000
v -0.005400 0.108000 -0.018000
v 0.005400 -0.108000 -0.018000
v 0.005400 0.108000 -0.018000
v -0.005400 -0.108000 -0.036000
v -0.005400 0.108000 -0.036000
v 0.005400 0.108000 -0.036000
v 0.005400 -0.108000 -0.036000
v -0.027000 -0.144000 -0.090000
v -0.045000 -0.126000 -0.090000
v -0.045000 0.126000 -0.090000
v -0.027000 0.144000 -0.090000
v 0.045000 -0.126000 -0.090000
v 0.027000 -0.144000 -0.090000
v 0.027000 0.144000 -0.090000
v 0.045000 0.126000 -0.090000
v -0.045000 -0.126000 -0.018000
v -0.027000 -0.144000 -0.018000
v -0.027000 0.144000 -0.018000
v -0.045000 0.126000 -0.018000
v 0.045000 0.126000 -0.018000
v 0.027000 0.144000 -0.018000
v 0.027000 -0.144000 -0.018000
v 0.045000 -0.126000 -0.018000
v -0.050400 -0.018000 -0.084600
v -0.050400 0.018000 -0.084600
v -0.045000 -0.018000 -0.090000
v -0.045000 0.018000 -0.090000
v -0.045000 -0.018000 -0.054000
v -0.045000 -0.009000 -0.045000
v -0.045000 0.009000 -0.045000
v -0.045000 0.018000 -0.054000
v -0.050400 -0.009000 -0.045000
v -0.050400 -0.018000 -0.054000
v -0.050400 0.018000 -0.054000
v -0.050400 0.009000 -0.045000
v -0.081000 -0.018000 -0.084600
v -0.090000 -0.009000 -0.084600
v -0.090000 0.009000 -0.084600
v -0.081000 0.018000 -0.084600
v -0.090000 -0.009000 -0.090000
v -0.081000 -0.018000 -0.090000
v -0.081000 0.018000 -0.090000
v -0.090000 0.009000 -0.090000
v -0.061608 0.008591 -0.079830
v -0.058050 -0.000000 -0.079830
v -0.070200 0.012150 -0.079830
v -0.061608 -0.008591 -0.079830
v -0.070200 -0.012150 -0.079830
v -0.078791 -0.008591 -0.079830
v -0.078791 0.008591 -0.079830
v -0.082350 -0.000000 -0.079830
v -0.061608 0.008591 -0.084690
v -0.058050 -0.000000 -0.084690
v -0.070200 0.012150 -0.084690
v -0.061608 -0.008591 -0.084690
v -0.070200 -0.012150 -0.084690
v -0.078791 0.008591 -0.084690
v -0.078791 -0.008591 -0.084690
v -0.082350 -0.000000 -0.084690
v -0.064472 0.005728 -0.073350
v -0.062100 0.000000 -0.073350
v -0.070200 0.008100 -0.073350
v -0.064472 -0.005728 -0.073350
v -0.070200 -0.008100 -0.073350
v -0.075927 -0.005728 -0.073350
v -0.075927 0.005728 -0.073350
v -0.078300 -0.000000 -0.073350
v -0.064472 0.005728 -0.079830
v -0.062100 0.000000 -0.079830
v -0.070200 0.008100 -0.079830
v -0.064472 -0.005728 -0.079830
v -0.070200 -0.008100 -0.079830
v -0.075927 0.005728 -0.079830
v -0.075927 -0.005728 -0.079830
v -0.078300 -0.000000 -0.079830
v 0.050400 -0.018000 -0.084600
v 0.050400 0.018000 -0.084600
v 0.045000 -0.018000 -0.090000
v 0.045000 0.018000 -0.090000
v 0.045000 -0.018000 -0.054000
v 0.045000 -0.009000 -0.045000
v 0.045000 0.009000 -0.045000
v 0.045000 0.018000 -0.054000
v 0.050400 -0.009000 -0.045000
v 0.050400 -0.018000 -0.054000
v 0.050400 0.018000 -0.054000
v 0.050400 0.009000 -0.045000
v 0.081000 -0.018000 -0.084600
v 0.090000 -0.009000 -0.084600
v 0.090000 0.009000 -0.084600
v 0.081000 0.018000 -0.084600
v 0.090000 -0.009000 -0.090000
v 0.081000 -0.018000 -0.090000
v 0.081000 0.018000 -0.090000
v 0.090000 0.009000 -0.090000
v 0.061609 0.008591 -0.079830
v 0.058050 -0.000000 -0.079830
v 0.070200 0.012150 -0.079830
v 0.061609 -0.008591 -0.079830
v 0.070200 -0.012150 -0.079830
v 0.078791 -0.008591 -0.079830
v 0.078791 0.008591 -0.079830
v 0.082350 -0.000000 -0.079830
v 0.061609 0.008591 -0.084690
v 0.058050 -0.000000 -0.084690
v 0.070200 0.012150 -0.084690
v 0.061609 -0.008591 -0.084690
v 0.070200 -0.012150 -0.084690
v 0.078791 0.008591 -0.084690
v 0.078791 -0.008591 -0.084690
v 0.082350 -0.000000 -0.084690
v 0.064472 0.005728 -0.073350
v 0.062100 0.000000 -0.073350
v 0.070200 0.008100 -0.073350
v 0.064472 -0.005728 -0.073350
v 0.070200 -0.008100 -0.073350
v 0.075927 -0.005728 -0.073350
v 0.075927 0.005728 -0.073350
v 0.078300 -0.000000 -0.073350
v 0.064472 0.005728 -0.079830
v 0.062100 0.000000 -0.079830
v 0.070200 0.008100 -0.079830
v 0.064472 -0.005728 -0.079830
v 0.070200 -0.008100 -0.079830
v 0.075927 0.005728 -0.079830
v 0.075927 -0.005728 -0.079830
v 0.078300 -0.000000 -0.079830
vn -0.0000 1.0000 -0.0000
vn -0.0000 -0.0000 1.0000
vn -1.0000 -0.0000 -0.0000
vn 1.0000 -0.0000 -0.0000
vn -0.0000 -1.0000 -0.0000
vn -0.7071 -0.7071 -0.0000
vn -0.7071 0.7071 -0.0000
vn 0.7071 -0.7071 -0.0000
vn 0.7071 0.7071 -0.0000
vn -0.0000 -0.7071 0.7071
vn -0.0000 0.7071 0.7071
vn -0.9239 0.3827 -0.0000
vn -0.9239 -0.3827 -0.0000
vn -0.3827 0.9239 -0.0000
vn 0.3827 0.9239 -0.0000
vn -0.3827 -0.9239 -0.0000
vn 0.3827 -0.9239 -0.0000
vn 0.9239 0.3827 -0.0000
vn 0.9239 -0.3827 -0.0000
vn -0.0000 -0.0000 -1.0000
vt 0.218686 0.013869
vt 0.279297 0.027344
vt 0.277344 0.083984
vt 0.218588 0.014154
vt 0.277344 0.000000
vt 0.283203 0.027344
vt 0.218597 0.097511
vt 0.269531 0.083984
vt 0.283203 0.027344
vt 0.222826 0.013911
vt 0.269531 0.000000
vt 0.279297 0.027344
vt 0.222780 0.097511
vt 0.275391 0.083984
vt 0.279297 0.035156
vt 0.269531 0.083984
vt 0.275391 0.000000
vt 0.269531 0.000000
vt 0.283203 0.035156
vt 0.277344 0.000000
vt 0.271484 0.000000
vt 0.279297 0.035156
vt 0.277344 0.083984
vt 0.271484 0.083984
vt 0.283203 0.035156
vt 0.285156 0.027344
vt 0.300781 0.027344
vt 0.240234 0.000000
vt 0.294922 0.027344
vt 0.240234 0.097656
vt 0.285156 0.027344
vt 0.300781 0.000000
vt 0.294922 0.027344
vt 0.240234 0.097656
vt 0.285156 0.027344
vt 0.294922 0.027344
vt 0.279297 0.027344
vt 0.279297 0.000000
vt 0.285156 0.027344
vt 0.240234 0.000000
vt 0.294922 0.027344
vt 0.267578 0.000000
vt 0.203278 0.007155
vt 0.294922 0.000000
vt 0.210259 0.000157
vt 0.285156 0.000000
vt 0.300781 0.000000
vt 0.300781 0.027344
vt 0.210224 0.111451
vt 0.294922 0.000000
vt 0.267578 0.097656
vt 0.203252 0.104473
vt 0.285156 0.000000
vt 0.267578 0.000000
vt 0.238111 0.104482
vt 0.294922 0.000000
vt 0.279297 0.027344
vt 0.231141 0.111454
vt 0.285156 0.000000
vt 0.231104 0.000000
vt 0.294922 0.000000
vt 0.279297 0.000000
vt 0.267578 0.097656
vt 0.238111 0.006933
vt 0.285156 0.000000
vt 0.442261 0.619310
vt 0.433594 0.619310
vt 0.433594 0.630848
vt 0.433594 0.630848
vt 0.442261 0.632643
vt 0.433594 0.632643
vt 0.431594 0.632848
vt 0.431594 0.632848
vt 0.431594 0.619515
vt 0.431594 0.623182
vt 0.431594 0.616181
vt 0.431594 0.629848
vt 0.431594 0.616181
vt 0.431594 0.619515
vt 0.427594 0.622643
vt 0.433594 0.623182
vt 0.433594 0.616181
vt 0.430927 0.619310
vt 0.433594 0.619515
vt 0.430927 0.632643
vt 0.433594 0.619515
vt 0.427594 0.629310
vt 0.433594 0.629848
vt 0.433594 0.616181
vt 0.444927 0.619310
vt 0.444927 0.630848
vt 0.431610 0.619512
vt 0.448261 0.622643
vt 0.431610 0.622846
vt 0.448261 0.629310
vt 0.431610 0.629512
vt 0.444927 0.630848
vt 0.444927 0.632643
vt 0.431610 0.632846
vt 0.433610 0.622846
vt 0.444927 0.632848
vt 0.433610 0.619512
vt 0.444927 0.632848
vt 0.433610 0.632846
vt 0.433610 0.629512
vt 0.048009 0.324219
vt 0.043252 0.324219
vt 0.046533 0.320655
vt 0.043252 0.320655
vt 0.043252 0.327783
vt 0.046533 0.327783
vt 0.043252 0.327783
vt 0.042969 0.319179
vt 0.043252 0.324219
vt 0.039405 0.320655
vt 0.043252 0.320655
vt 0.037929 0.324219
vt 0.043252 0.324219
vt 0.042969 0.329259
vt 0.043252 0.324219
vt 0.039405 0.327783
vt 0.043252 0.320655
vt 0.043252 0.327783
vt 0.045268 0.324219
vt 0.045268 0.320655
vt 0.045268 0.327783
vt 0.045268 0.327783
vt 0.045268 0.324219
vt 0.045268 0.320655
vt 0.045268 0.324219
vt 0.045268 0.324219
vt 0.045268 0.320655
vt 0.045268 0.327783
vt 0.046329 0.324219
vt 0.040564 0.324219
vt 0.045345 0.321843
vt 0.040564 0.321843
vt 0.040564 0.326595
vt 0.045345 0.326595
vt 0.040564 0.326595
vt 0.042969 0.320859
vt 0.040564 0.324219
vt 0.040564 0.321843
vt 0.039609 0.324219
vt 0.040564 0.324219
vt 0.042969 0.327579
vt 0.040564 0.324219
vt 0.040564 0.321843
vt 0.040564 0.326595
vt 0.046329 0.324219
vt 0.043252 0.324219
vt 0.045345 0.321843
vt 0.043252 0.321843
vt 0.043252 0.326595
vt 0.045345 0.326595
vt 0.043252 0.326595
vt 0.042969 0.320859
vt 0.043252 0.324219
vt 0.040593 0.321843
vt 0.043252 0.321843
vt 0.042969 0.327579
vt 0.043252 0.324219
vt 0.039609 0.324219
vt 0.043252 0.324219
vt 0.040593 0.326595
vt 0.043252 0.321843
vt 0.043252 0.326595
vt 0.442261 0.619310
vt 0.433594 0.619310
vt 0.433594 0.630848
vt 0.433594 0.630848
vt 0.442261 0.632643
vt 0.433594 0.632643
vt 0.431594 0.632848
vt 0.431594 0.632848
vt 0.431594 0.619515
vt 0.431594 0.623182
vt 0.431594 0.616181
vt 0.431594 0.629848
vt 0.431594 0.616181
vt 0.431594 0.619515
vt 0.427594 0.622643
vt 0.433594 0.623182
vt 0.433594 0.616181
vt 0.430927 0.619310
vt 0.433594 0.619515
vt 0.430927 0.632643
vt 0.433594 0.619515
vt 0.427594 0.629310
vt 0.433594 0.629848
vt 0.433594 0.616181
vt 0.444927 0.619310
vt 0.444927 0.630848
vt 0.431610 0.619512
vt 0.448261 0.622643
vt 0.431610 0.622846
vt 0.448261 0.629310
vt 0.431610 0.629512
vt 0.444927 0.630848
vt 0.444927 0.632643
vt 0.431610 0.632846
vt 0.433610 0.622846
vt 0.444927 0.632848
vt 0.433610 0.619512
vt 0.444927 0.632848
vt 0.433610 0.632846
vt 0.433610 0.629512
vt 0.048009 0.324219
vt 0.043252 0.324219
vt 0.046533 0.320655
vt 0.043252 0.320655
vt 0.043252 0.327783
vt 0.046533 0.327783
vt 0.043252 0.327783
vt 0.042969 0.319179
vt 0.043252 0.324219
vt 0.039405 0.320655
vt 0.043252 0.320655
vt 0.037929 0.324219
vt 0.043252 0.324219
vt 0.042969 0.329259
vt 0.043252 0.324219
vt 0.039405 0.327783
vt 0.043252 0.320655
vt 0.043252 0.327783
vt 0.045268 0.324219
vt 0.045268 0.320655
vt 0.045268 0.327783
vt 0.045268 0.327783
vt 0.045268 0.324219
vt 0.045268 0.320655
vt 0.045268 0.324219
vt 0.045268 0.324219
vt 0.045268 0.320655
vt 0.045268 0.327783
vt 0.046329 0.324219
vt 0.040564 0.324219
vt 0.045345 0.321843
vt 0.040564 0.321843
vt 0.040564 0.326595
vt 0.045345 0.326595
vt 0.040564 0.326595
vt 0.042969 0.320859
vt 0.040564 0.324219
vt 0.040564 0.321843
vt 0.039609 0.324219
vt 0.040564 0.324219
vt 0.042969 0.327579
vt 0.040564 0.324219
vt 0.040564 0.321843
vt 0.040564 0.326595
vt 0.046329 0.324219
vt 0.043252 0.324219
vt 0.045345 0.321843
vt 0.043252 0.321843
vt 0.043252 0.326595
vt 0.045345 0.326595
vt 0.043252 0.326595
vt 0.042969 0.320859
vt 0.043252 0.324219
vt 0.040593 0.321843
vt 0.043252 0.321843
vt 0.042969 0.327579
vt 0.043252 0.324219
vt 0.039609 0.324219
vt 0.043252 0.324219
vt 0.040593 0.326595
vt 0.043252 0.321843
vt 0.043252 0.326595
s 0
usemtl electronics_etx_part_1
f 15/38/1 12/32/1 19/48/1 22/57/1
f 1/1/2 2/7/2 20/52/2 17/43/2
f 3/8/3 4/11/3 7/20/3 8/23/3
f 17/42/3 20/51/3 11/30/3 10/28/3
f 13/34/4 16/40/4 21/54/4 24/63/4
f 2/7/2 4/13/2 22/58/2 19/49/2
f 4/13/2 3/10/2 24/64/2 21/55/2
f 8/24/2 7/21/2 6/17/2 5/14/2
f 1/2/1 3/9/1 8/25/1 5/15/1
f 2/5/4 1/3/4 5/16/4 6/18/4
f 4/12/5 2/6/5 6/19/5 7/22/5
f 3/10/2 1/4/2 18/45/2 23/60/2
f 17/43/2 18/45/2 1/4/2
f 19/49/2 20/52/2 2/7/2
f 21/55/2 22/58/2 4/13/2
f 23/60/2 24/64/2 3/10/2
f 9/26/6 18/46/6 17/44/6 10/29/6
f 19/50/7 12/33/7 11/31/7 20/53/7
f 23/61/8 14/36/8 13/35/8 24/65/8
f 15/39/9 22/59/9 21/56/9 16/41/9
f 9/27/5 14/37/5 23/62/5 18/47/5
f 26/69/1 35/86/1 32/79/1 28/73/1
f 26/69/1 28/73/1 43/103/1 40/97/1
f 39/96/3 44/105/3 41/100/3 38/94/3
f 29/74/5 34/84/5 25/68/5 27/72/5
f 25/66/3 34/83/3 33/80/3 36/87/3 35/85/3 26/70/3
f 26/71/2 40/98/2 39/95/2 38/93/2 37/90/2 25/67/2
f 27/72/5 25/68/5 37/91/5 42/101/5
f 33/81/2 30/75/2 31/77/2 36/88/2
f 29/74/10 30/76/10 33/82/10 34/84/10
f 35/86/11 36/89/11 31/78/11 32/79/11
f 37/92/6 38/94/6 41/100/6 42/102/6
f 43/104/7 44/105/7 39/96/7 40/99/7
f 51/119/2 52/121/2 50/117/2 49/115/2 48/113/2 46/108/2 45/106/2 47/111/2
f 58/130/12 60/132/12 52/122/12 51/120/12
f 60/133/13 59/131/13 50/118/13 52/123/13
f 51/120/14 47/112/14 55/127/14 58/130/14
f 47/112/15 45/107/15 53/124/15 55/127/15
f 59/131/16 57/129/16 49/116/16 50/118/16
f 57/129/17 56/128/17 48/114/17 49/116/17
f 45/107/18 46/109/18 54/125/18 53/124/18
f 46/110/19 48/114/19 56/128/19 54/126/19
f 69/150/20 70/152/20 72/157/20 73/159/20 75/163/20 76/165/20 74/161/20 71/155/20
f 67/146/2 68/149/2 66/144/2 65/143/2 64/141/2 62/136/2 61/134/2 63/139/2
f 74/162/12 76/166/12 68/148/12 67/147/12
f 76/167/13 75/164/13 66/145/13 68/149/13
f 67/147/14 63/140/14 71/156/14 74/162/14
f 63/140/15 61/135/15 69/151/15 71/156/15
f 75/164/16 73/160/16 65/143/16 66/145/16
f 73/160/17 72/158/17 64/142/17 65/143/17
f 61/135/18 62/137/18 70/153/18 69/151/18
f 62/138/19 64/142/19 72/158/19 70/154/19
f 78/171/1 80/175/1 84/181/1 87/188/1
f 78/171/1 92/199/1 95/205/1 80/175/1
f 91/198/4 90/196/4 93/202/4 96/207/4
f 81/176/5 79/174/5 77/170/5 86/186/5
f 77/168/4 78/172/4 87/187/4 88/189/4 85/182/4 86/185/4
f 78/173/2 77/169/2 89/192/2 90/195/2 91/197/2 92/200/2
f 79/174/5 94/203/5 89/193/5 77/170/5
f 85/183/2 88/190/2 83/179/2 82/177/2
f 81/176/10 86/186/10 85/184/10 82/178/10
f 87/188/11 84/181/11 83/180/11 88/191/11
f 89/194/8 94/204/8 93/202/8 90/196/8
f 95/206/9 92/201/9 91/198/9 96/207/9
f 103/221/2 99/213/2 97/208/2 98/210/2 100/215/2 101/217/2 102/219/2 104/223/2
f 110/232/18 103/222/18 104/224/18 112/234/18
f 112/235/19 104/225/19 102/220/19 111/233/19
f 103/222/15 110/232/15 107/229/15 99/214/15
f 99/214/14 107/229/14 105/226/14 97/209/14
f 111/233/17 102/220/17 101/218/17 109/231/17
f 109/231/16 101/218/16 100/216/16 108/230/16
f 97/209/12 105/226/12 106/227/12 98/211/12
f 98/212/13 106/228/13 108/230/13 100/216/13
f 121/252/20 123/257/20 126/263/20 128/267/20 127/265/20 125/261/20 124/259/20 122/254/20
f 119/248/2 115/241/2 113/236/2 114/238/2 116/243/2 117/245/2 118/246/2 120/251/2
f 126/264/18 119/249/18 120/250/18 128/268/18
f 128/269/19 120/251/19 118/247/19 127/266/19
f 119/249/15 126/264/15 123/258/15 115/242/15
f 115/242/14 123/258/14 121/253/14 113/237/14
f 127/266/17 118/247/17 117/245/17 125/262/17
f 125/262/16 117/245/16 116/244/16 124/260/16
f 113/237/12 121/253/12 122/255/12 114/239/12
f 114/240/13 122/256/13 124/260/13 116/244/13
o lever_etx_5_child
v 0.005400 -0.100800 0.078000
v 0.005400 -0.079200 0.078000
v -0.005400 -0.100800 0.078000
v -0.005400 -0.079200 0.078000
v 0.005400 -0.108000 -0.036000
v 0.005400 -0.072000 -0.036000
v -0.005400 -0.108000 -0.036000
v -0.005400 -0.072000 -0.036000
v -0.081000 -0.090000 0.036600
v -0.081000 -0.106546 0.043454
v -0.081000 -0.073453 0.043454
v -0.081000 -0.113400 0.060000
v -0.081000 -0.106546 0.076546
v -0.081000 -0.090000 0.083400
v -0.081000 -0.066600 0.060000
v -0.081000 -0.073453 0.076546
v 0.081000 -0.090000 0.036600
v 0.081000 -0.090000 0.083400
v 0.005400 -0.072000 0.060000
v 0.005400 -0.108000 0.060000
v -0.086040 -0.078544 0.048545
v -0.086040 -0.090000 0.043800
v -0.086040 -0.073800 0.060000
v -0.086040 -0.101455 0.048545
v -0.086040 -0.106200 0.060000
v -0.086040 -0.101455 0.071455
v -0.086040 -0.078544 0.071455
v -0.086040 -0.090000 0.076200
v -0.081000 -0.078544 0.048545
v -0.081000 -0.090000 0.043800
v -0.081000 -0.073800 0.060000
v -0.081000 -0.101455 0.048545
v -0.081000 -0.106200 0.060000
v -0.081000 -0.078544 0.071455
v -0.081000 -0.101455 0.071455
v -0.081000 -0.090000 0.076200
v -0.094680 -0.082363 0.052363
v -0.094680 -0.090000 0.049200
v -0.094680 -0.079200 0.060000
v -0.094680 -0.097636 0.052363
v -0.094680 -0.100800 0.060000
v -0.094680 -0.097636 0.067637
v -0.094680 -0.082363 0.067637
v -0.094680 -0.090000 0.070800
v -0.086040 -0.082363 0.052363
v -0.086040 -0.090000 0.049200
v -0.086040 -0.079200 0.060000
v -0.086040 -0.097636 0.052363
v -0.086040 -0.100800 0.060000
v -0.086040 -0.082363 0.067637
v -0.086040 -0.097636 0.067637
v -0.086040 -0.090000 0.070800
v 0.018000 -0.097636 0.052363
v 0.018000 -0.090000 0.049200
v 0.018000 -0.100800 0.060000
v 0.018000 -0.082363 0.052363
v 0.018000 -0.079200 0.060000
v 0.018000 -0.082363 0.067637
v 0.018000 -0.097636 0.067637
v 0.018000 -0.090000 0.070800
v -0.018000 -0.097636 0.052363
v -0.018000 -0.090000 0.049200
v -0.018000 -0.100800 0.060000
v -0.018000 -0.082363 0.052363
v -0.018000 -0.079200 0.060000
v -0.018000 -0.097636 0.067637
v -0.018000 -0.082363 0.067637
v -0.018000 -0.090000 0.070800
v 0.005400 -0.079200 0.042000
v 0.005400 -0.100800 0.042000
v -0.005400 -0.079200 0.042000
v -0.005400 -0.100800 0.042000
v -0.005400 -0.072000 0.060000
v -0.005400 -0.108000 0.060000
v 0.005400 -0.072000 0.015000
v 0.005400 -0.108000 0.015000
v -0.005400 -0.072000 0.015000
v -0.005400 -0.108000 0.015000
v -0.018000 -0.113400 0.060000
v 0.086040 -0.101455 0.048545
v 0.086040 -0.090000 0.043800
v 0.086040 -0.106200 0.060000
v 0.086040 -0.078544 0.048545
v 0.086040 -0.073800 0.060000
v 0.086040 -0.078544 0.071455
v 0.086040 -0.101455 0.071455
v 0.086040 -0.090000 0.076200
v 0.081000 -0.101455 0.048545
v 0.081000 -0.090000 0.043800
v 0.081000 -0.106200 0.060000
v 0.081000 -0.078544 0.048545
v 0.081000 -0.073800 0.060000
v 0.081000 -0.101455 0.071455
v 0.081000 -0.078544 0.071455
v 0.081000 -0.090000 0.076200
v 0.094680 -0.097636 0.052363
v 0.094680 -0.090000 0.049200
v 0.094680 -0.100800 0.060000
v 0.094680 -0.082363 0.052363
v 0.094680 -0.079200 0.060000
v 0.094680 -0.082363 0.067637
v 0.094680 -0.097636 0.067637
v 0.094680 -0.090000 0.070800
v 0.086040 -0.097636 0.052363
v 0.086040 -0.090000 0.049200
v 0.086040 -0.100800 0.060000
v 0.086040 -0.082363 0.052363
v 0.086040 -0.079200 0.060000
v 0.086040 -0.097636 0.067637
v 0.086040 -0.082363 0.067637
v 0.086040 -0.090000 0.070800
v -0.018000 -0.090000 0.036600
v -0.018000 -0.106546 0.043454
v -0.018000 -0.073453 0.043454
v -0.018000 -0.106546 0.076546
v -0.018000 -0.066600 0.060000
v -0.018000 -0.090000 0.083400
v -0.018000 -0.073453 0.076546
v 0.018000 -0.090000 0.036600
v 0.018000 -0.106546 0.043454
v 0.018000 -0.113400 0.060000
v 0.018000 -0.106546 0.076546
v 0.018000 -0.066600 0.060000
v 0.018000 -0.090000 0.083400
v 0.081000 -0.106546 0.043454
v 0.081000 -0.073453 0.043454
v 0.081000 -0.113400 0.060000
v 0.081000 -0.106546 0.076546
v 0.081000 -0.066600 0.060000
v 0.081000 -0.073453 0.076546
v 0.018000 -0.073453 0.076546
v 0.018000 -0.073453 0.043454
vn -0.0000 1.0000 -0.0000
vn 1.0000 -0.0000 -0.0000
vn -1.0000 -0.0000 -0.0000
vn -0.0000 -1.0000 -0.0000
vn -0.0000 0.7071 0.7071
vn -0.0000 -0.0000 1.0000
vn -0.0000 -0.7071 0.7071
vn -0.0000 -0.9285 0.3714
vn -0.0000 0.9285 0.3714
vn -0.0000 0.3827 0.9239
vn -0.0000 -0.3827 0.9239
vn -0.0000 0.9239 0.3827
vn -0.0000 0.9239 -0.3827
vn -0.0000 -0.9239 0.3827
vn -0.0000 -0.9239 -0.3827
vn -0.0000 0.3827 -0.9239
vn -0.0000 -0.3827 -0.9239
vn -0.0000 -0.9285 -0.3714
vn -0.0000 0.9285 -0.3714
vn -0.0000 -0.9662 0.2577
vn -0.0000 0.9662 0.2577
vn -0.0000 -0.7071 -0.7071
vn -0.0000 -0.0000 -1.0000
vn -0.0000 0.7071 -0.7071
vt 0.107422 0.242188
vt 0.091339 0.241210
vt 0.103516 0.242188
vt 0.100519 0.241210
vt 0.103516 0.242188
vt 0.103516 0.232422
vt 0.103516 0.242188
vt 0.100519 0.241210
vt 0.107422 0.242188
vt 0.091339 0.241210
vt 0.107422 0.242188
vt 0.107422 0.232422
vt 0.088279 0.192762
vt 0.107422 0.191985
vt 0.103516 0.191985
vt 0.103578 0.192762
vt 0.103578 0.192762
vt 0.103516 0.191985
vt 0.107422 0.191985
vt 0.088279 0.192762
vt 0.046143 0.164424
vt 0.041016 0.133345
vt 0.029297 0.133345
vt 0.051530 0.164424
vt 0.035156 0.133345
vt 0.042334 0.168233
vt 0.035156 0.133345
vt 0.055340 0.168233
vt 0.041016 0.133345
vt 0.029297 0.133345
vt 0.055340 0.173620
vt 0.035156 0.133345
vt 0.051530 0.177429
vt 0.041016 0.133345
vt 0.029297 0.133345
vt 0.042334 0.173620
vt 0.029297 0.133345
vt 0.041016 0.133345
vt 0.046143 0.177429
vt 0.035156 0.133345
vt 0.046140 0.164424
vt 0.029297 0.190874
vt 0.041016 0.190874
vt 0.051527 0.177429
vt 0.029297 0.190874
vt 0.041016 0.190874
vt 0.103579 0.233560
vt 0.103516 0.234375
vt 0.107422 0.234375
vt 0.088279 0.233560
vt 0.049449 0.324219
vt 0.043909 0.324219
vt 0.047551 0.319637
vt 0.043909 0.319637
vt 0.043909 0.328801
vt 0.047551 0.328801
vt 0.043909 0.328801
vt 0.042969 0.317739
vt 0.043909 0.324219
vt 0.038387 0.319637
vt 0.043909 0.319637
vt 0.036489 0.324219
vt 0.043909 0.324219
vt 0.042969 0.330699
vt 0.043909 0.324219
vt 0.038387 0.328801
vt 0.043909 0.319637
vt 0.043909 0.328801
vt 0.045925 0.324219
vt 0.045925 0.319637
vt 0.045925 0.328801
vt 0.045925 0.328801
vt 0.045925 0.324219
vt 0.045925 0.319637
vt 0.045925 0.324219
vt 0.045925 0.324219
vt 0.045925 0.319637
vt 0.045925 0.328801
vt 0.047289 0.324219
vt 0.040453 0.324219
vt 0.046023 0.321164
vt 0.040453 0.321164
vt 0.040453 0.327273
vt 0.046023 0.327273
vt 0.040453 0.327273
vt 0.042969 0.319899
vt 0.040453 0.324219
vt 0.039914 0.321164
vt 0.040453 0.321164
vt 0.038649 0.324219
vt 0.040453 0.324219
vt 0.042969 0.328539
vt 0.040453 0.324219
vt 0.039914 0.327273
vt 0.040453 0.321164
vt 0.040453 0.327273
vt 0.047289 0.324219
vt 0.043909 0.324219
vt 0.046023 0.321164
vt 0.043909 0.321164
vt 0.043909 0.327273
vt 0.046023 0.327273
vt 0.043909 0.327273
vt 0.042969 0.319899
vt 0.043909 0.324219
vt 0.039914 0.321164
vt 0.043909 0.321164
vt 0.042969 0.328539
vt 0.043909 0.324219
vt 0.038649 0.324219
vt 0.043909 0.324219
vt 0.039914 0.327273
vt 0.043909 0.321164
vt 0.043909 0.327273
vt 0.047289 0.324219
vt 0.040885 0.324219
vt 0.046023 0.321164
vt 0.040885 0.321164
vt 0.040885 0.327273
vt 0.046023 0.327273
vt 0.040885 0.327273
vt 0.042969 0.319899
vt 0.040885 0.324219
vt 0.039914 0.321164
vt 0.040885 0.321164
vt 0.038649 0.324219
vt 0.040885 0.324219
vt 0.042969 0.328539
vt 0.040885 0.324219
vt 0.039914 0.327273
vt 0.040885 0.321164
vt 0.040885 0.327273
vt 0.047289 0.324219
vt 0.055285 0.324219
vt 0.046023 0.321164
vt 0.055285 0.321164
vt 0.055285 0.327273
vt 0.046023 0.327273
vt 0.055285 0.327273
vt 0.042969 0.319899
vt 0.055285 0.324219
vt 0.039914 0.321164
vt 0.055285 0.321164
vt 0.042969 0.328539
vt 0.055285 0.324219
vt 0.038649 0.324219
vt 0.055285 0.324219
vt 0.039914 0.327273
vt 0.055285 0.321164
vt 0.055285 0.327273
vt 0.100519 0.225911
vt 0.103516 0.224609
vt 0.107422 0.224609
vt 0.091339 0.225911
vt 0.091339 0.225911
vt 0.107422 0.224609
vt 0.103516 0.224609
vt 0.100519 0.225911
vt 0.088279 0.233560
vt 0.107422 0.234375
vt 0.103516 0.234375
vt 0.103578 0.233560
vt 0.103578 0.214436
vt 0.103516 0.212891
vt 0.107422 0.212891
vt 0.088279 0.214436
vt 0.088279 0.214436
vt 0.107422 0.212891
vt 0.103516 0.212891
vt 0.103579 0.214436
vt 0.041016 0.155717
vt 0.029297 0.155717
vt 0.042331 0.173620
vt 0.049449 0.324219
vt 0.043909 0.324219
vt 0.047551 0.319637
vt 0.043909 0.319637
vt 0.043909 0.328801
vt 0.047551 0.328801
vt 0.043909 0.328801
vt 0.042969 0.317739
vt 0.043909 0.324219
vt 0.038387 0.319637
vt 0.043909 0.319637
vt 0.036489 0.324219
vt 0.043909 0.324219
vt 0.042969 0.330699
vt 0.043909 0.324219
vt 0.038387 0.328801
vt 0.043909 0.319637
vt 0.043909 0.328801
vt 0.045925 0.324219
vt 0.045925 0.319637
vt 0.045925 0.328801
vt 0.045925 0.328801
vt 0.045925 0.324219
vt 0.045925 0.319637
vt 0.045925 0.324219
vt 0.045925 0.324219
vt 0.045925 0.319637
vt 0.045925 0.328801
vt 0.047289 0.324219
vt 0.040453 0.324219
vt 0.046023 0.321164
vt 0.040453 0.321164
vt 0.040453 0.327273
vt 0.046023 0.327273
vt 0.040453 0.327273
vt 0.042969 0.319899
vt 0.040453 0.324219
vt 0.039914 0.321164
vt 0.040453 0.321164
vt 0.038649 0.324219
vt 0.040453 0.324219
vt 0.042969 0.328539
vt 0.040453 0.324219
vt 0.039914 0.327273
vt 0.040453 0.321164
vt 0.040453 0.327273
vt 0.047289 0.324219
vt 0.043909 0.324219
vt 0.046023 0.321164
vt 0.043909 0.321164
vt 0.043909 0.327273
vt 0.046023 0.327273
vt 0.043909 0.327273
vt 0.042969 0.319899
vt 0.043909 0.324219
vt 0.039914 0.321164
vt 0.043909 0.321164
vt 0.042969 0.328539
vt 0.043909 0.324219
vt 0.038649 0.324219
vt 0.043909 0.324219
vt 0.039914 0.327273
vt 0.043909 0.321164
vt 0.043909 0.327273
vt 0.041016 0.155717
vt 0.029297 0.155717
vt 0.046140 0.164424
vt 0.035156 0.155717
vt 0.042331 0.168233
vt 0.035156 0.155717
vt 0.051527 0.164424
vt 0.035156 0.155717
vt 0.046140 0.177429
vt 0.029297 0.155717
vt 0.041016 0.155717
vt 0.055336 0.168233
vt 0.041016 0.155717
vt 0.029297 0.155717
vt 0.051527 0.177429
vt 0.035156 0.155717
vt 0.055336 0.173620
vt 0.046140 0.164424
vt 0.029297 0.168501
vt 0.041016 0.168501
vt 0.042331 0.168233
vt 0.035156 0.168501
vt 0.042331 0.173620
vt 0.029297 0.168501
vt 0.041016 0.168501
vt 0.046140 0.177429
vt 0.035156 0.168501
vt 0.055336 0.168233
vt 0.041016 0.168501
vt 0.029297 0.168501
vt 0.051527 0.177429
vt 0.029297 0.168501
vt 0.041016 0.168501
vt 0.042331 0.168233
vt 0.035156 0.190874
vt 0.051527 0.164424
vt 0.035156 0.190874
vt 0.042331 0.173620
vt 0.029297 0.190874
vt 0.041016 0.190874
vt 0.046140 0.177429
vt 0.035156 0.190874
vt 0.055336 0.168233
vt 0.041016 0.190874
vt 0.029297 0.190874
vt 0.055336 0.173620
vt 0.035156 0.190874
vt 0.055336 0.173620
vt 0.035156 0.168501
vt 0.051527 0.164424
vt 0.035156 0.168501
s 1
usemtl electronics_etx_part_1
f 205/437/21 203/433/21 134/284/21 136/288/21
f 203/432/22 204/435/22 133/282/22 134/285/22
f 206/439/23 205/436/23 136/289/23 135/286/23
f 204/434/24 206/438/24 135/287/24 133/283/24
f 145/310/22 254/542/22 257/549/22 258/552/22 146/313/22 256/547/22 255/544/22 253/540/22
f 143/305/23 139/295/23 137/290/23 138/293/23 140/297/23 141/300/23 142/302/23 144/308/23
f 244/516/21 143/306/21 144/309/25 246/522/25
f 246/522/25 144/309/25 142/303/26 245/519/26
f 245/520/26 142/304/26 141/301/27 243/514/27
f 243/514/27 141/301/27 140/298/24 207/440/24
f 129/270/28 131/276/28 202/430/28 148/318/28
f 131/277/23 132/279/23 201/428/23 202/431/23
f 130/273/22 129/271/22 148/319/22 147/316/22
f 132/280/29 130/274/29 147/317/29 201/429/29
f 155/333/23 151/325/23 149/320/23 150/322/23 152/327/23 153/329/23 154/331/23 156/335/23
f 162/344/30 155/334/30 156/336/30 164/346/30
f 164/347/31 156/337/31 154/332/31 163/345/31
f 155/334/32 162/344/32 159/341/32 151/326/32
f 151/326/33 159/341/33 157/338/33 149/321/33
f 163/345/34 154/332/34 153/330/34 161/343/34
f 161/343/35 153/330/35 152/328/35 160/342/35
f 149/321/36 157/338/36 158/339/36 150/323/36
f 150/324/37 158/340/37 160/342/37 152/328/37
f 173/366/22 175/371/22 178/377/22 180/381/22 179/379/22 177/375/22 176/373/22 174/368/22
f 171/361/23 167/353/23 165/348/23 166/350/23 168/355/23 169/357/23 170/359/23 172/363/23
f 178/378/30 171/362/30 172/364/30 180/382/30
f 180/383/31 172/365/31 170/360/31 179/380/31
f 171/362/32 178/378/32 175/372/32 167/354/32
f 167/354/33 175/372/33 173/367/33 165/349/33
f 179/380/34 170/360/34 169/358/34 177/376/34
f 177/376/35 169/358/35 168/356/35 176/374/35
f 165/349/36 173/367/36 174/369/36 166/351/36
f 166/352/37 174/370/37 176/374/37 168/356/37
f 189/402/23 191/407/23 194/413/23 196/417/23 195/415/23 193/411/23 192/409/23 190/404/23
f 187/397/22 183/389/22 181/384/22 182/386/22 184/391/22 185/393/22 186/395/22 188/399/22
f 194/414/31 187/398/31 188/400/31 196/418/31
f 196/419/30 188/401/30 186/396/30 195/416/30
f 187/398/34 194/414/34 191/408/34 183/390/34
f 183/390/35 191/408/35 189/403/35 181/385/35
f 195/416/32 186/396/32 185/394/32 193/412/32
f 193/412/33 185/394/33 184/392/33 192/410/33
f 181/385/37 189/403/37 190/405/37 182/387/37
f 182/388/36 190/406/36 192/410/36 184/392/36
f 148/318/38 202/430/38 200/426/38 198/422/38
f 202/431/23 201/428/23 199/424/23 200/427/23
f 147/316/22 148/319/22 198/423/22 197/420/22
f 201/429/39 147/317/39 197/421/39 199/425/39
f 198/422/40 200/426/40 206/438/40 204/434/40
f 200/427/23 199/424/23 205/436/23 206/439/23
f 197/420/22 198/423/22 204/435/22 203/432/22
f 199/425/41 197/421/41 203/433/41 205/437/41
f 129/272/26 130/275/26 132/281/26 131/278/26
f 138/294/42 241/510/42 207/441/24 140/299/24
f 137/291/43 240/507/43 241/510/42 138/294/42
f 139/296/44 242/512/44 240/508/43 137/292/43
f 143/307/21 244/517/21 242/512/44 139/296/44
f 214/456/22 210/448/22 208/443/22 209/445/22 211/450/22 212/452/22 213/454/22 215/458/22
f 221/467/31 214/457/31 215/459/31 223/469/31
f 223/470/30 215/460/30 213/455/30 222/468/30
f 214/457/34 221/467/34 218/464/34 210/449/34
f 210/449/35 218/464/35 216/461/35 208/444/35
f 222/468/32 213/455/32 212/453/32 220/466/32
f 220/466/33 212/453/33 211/451/33 219/465/33
f 208/444/37 216/461/37 217/462/37 209/446/37
f 209/447/36 217/463/36 219/465/36 211/451/36
f 232/489/23 234/494/23 237/500/23 239/504/23 238/502/23 236/498/23 235/496/23 233/491/23
f 230/484/22 226/476/22 224/471/22 225/473/22 227/478/22 228/480/22 229/482/22 231/486/22
f 237/501/31 230/485/31 231/487/31 239/505/31
f 239/506/30 231/488/30 229/483/30 238/503/30
f 230/485/34 237/501/34 234/495/34 226/477/34
f 226/477/35 234/495/35 232/490/35 224/472/35
f 238/503/32 229/483/32 228/481/32 236/499/32
f 236/499/33 228/481/33 227/479/33 235/497/33
f 224/472/37 232/490/37 233/492/37 225/474/37
f 225/475/36 233/493/36 235/497/36 227/479/36
f 240/509/22 242/513/22 244/518/22 246/523/22 245/521/22 243/515/22 207/442/22 241/511/22
f 247/524/23 248/527/23 249/529/23 250/532/23 252/537/23 259/554/23 251/534/23 260/556/23
f 251/535/21 257/550/21 254/543/44 260/557/44
f 260/557/44 254/543/44 145/311/43 247/525/43
f 247/526/43 145/312/43 253/541/42 248/528/42
f 248/528/42 253/541/42 255/545/24 249/530/24
f 256/548/27 250/533/27 249/531/24 255/546/24
f 146/314/26 252/538/26 250/533/27 256/548/27
f 258/553/25 259/555/25 252/539/26 146/315/26
f 257/551/21 251/536/21 259/555/25 258/553/25
