# Blender 3.4.0
# www.blender.org
mtllib lever_etx_4.mtl
o lever_etx_4
v -0.036000 -0.126000 0.072000
v -0.025200 -0.126000 0.072000
v -0.025200 0.126000 0.072000
v -0.036000 -0.126000 0.054000
v -0.036000 0.126000 0.054000
v -0.025200 0.126000 0.054000
v -0.025200 -0.126000 0.054000
v 0.025200 -0.126000 0.072000
v 0.025200 0.126000 0.072000
v 0.025200 -0.126000 0.054000
v 0.025200 0.126000 0.054000
v 0.036000 0.126000 0.054000
v 0.036000 -0.126000 0.054000
v -0.054000 -0.162000 0.000000
v -0.072000 -0.144000 0.000000
v -0.072000 0.144000 0.000000
v -0.054000 0.162000 0.000000
v -0.072000 -0.144000 0.072000
v -0.054000 -0.162000 0.072000
v -0.054000 0.162000 0.072000
v -0.072000 0.144000 0.072000
v -0.036000 0.126000 0.072000
v 0.072000 -0.144000 0.000000
v 0.054000 -0.162000 0.000000
v 0.054000 0.162000 0.000000
v 0.072000 0.144000 0.000000
v 0.072000 0.144000 0.072000
v 0.054000 0.162000 0.072000
v 0.036000 0.126000 0.072000
v 0.054000 -0.162000 0.072000
v 0.072000 -0.144000 0.072000
v 0.036000 -0.126000 0.072000
v -0.014319 0.014319 0.080100
v -0.020250 -0.000000 0.080100
v -0.000000 0.020250 0.080100
v -0.014319 -0.014319 0.080100
v -0.000000 -0.020250 0.080100
v 0.014319 -0.014319 0.080100
v 0.014319 0.014319 0.080100
v 0.020250 -0.000000 0.080100
v -0.014319 0.014319 0.072000
v -0.020250 -0.000000 0.072000
v -0.000000 0.020250 0.072000
v -0.014319 -0.014319 0.072000
v -0.000000 -0.020250 0.072000
v 0.014319 0.014319 0.072000
v 0.014319 -0.014319 0.072000
v 0.020250 -0.000000 0.072000
v -0.009546 0.009546 0.090900
v -0.013500 -0.000000 0.090900
v -0.000000 0.013500 0.090900
v -0.009546 -0.009546 0.090900
v -0.000000 -0.013500 0.090900
v 0.009546 -0.009546 0.090900
v 0.009546 0.009546 0.090900
v 0.013500 -0.000000 0.090900
v -0.009546 0.009546 0.080100
v -0.013500 -0.000000 0.080100
v -0.000000 0.013500 0.080100
v -0.009546 -0.009546 0.080100
v -0.000000 -0.013500 0.080100
v 0.009546 0.009546 0.080100
v 0.009546 -0.009546 0.080100
v 0.013500 -0.000000 0.080100
v -0.080100 0.014319 0.021681
v -0.080100 -0.000000 0.015750
v -0.080100 0.020250 0.036000
v -0.080100 -0.014319 0.021681
v -0.080100 -0.020250 0.036000
v -0.080100 -0.014319 0.050319
v -0.080100 0.014319 0.050319
v -0.080100 -0.000000 0.056250
v -0.072000 0.014319 0.021681
v -0.072000 -0.000000 0.015750
v -0.072000 0.020250 0.036000
v -0.072000 -0.014319 0.021681
v -0.072000 -0.020250 0.036000
v -0.072000 0.014319 0.050319
v -0.072000 -0.014319 0.050319
v -0.072000 -0.000000 0.056250
v -0.090900 0.009546 0.026454
v -0.090900 -0.000000 0.022500
v -0.090900 0.013500 0.036000
v -0.090900 -0.009546 0.026454
v -0.090900 -0.013500 0.036000
v -0.090900 -0.009546 0.045546
v -0.090900 0.009546 0.045546
v -0.090900 -0.000000 0.049500
v -0.080100 0.009546 0.026454
v -0.080100 -0.000000 0.022500
v -0.080100 0.013500 0.036000
v -0.080100 -0.009546 0.026454
v -0.080100 -0.013500 0.036000
v -0.080100 0.009546 0.045546
v -0.080100 -0.009546 0.045546
v -0.080100 -0.000000 0.049500
v 0.080100 -0.014319 0.021681
v 0.080100 0.000000 0.015750
v 0.080100 -0.020250 0.036000
v 0.080100 0.014319 0.021681
v 0.080100 0.020250 0.036000
v 0.080100 0.014319 0.050319
v 0.080100 -0.014319 0.050319
v 0.080100 0.000000 0.056250
v 0.072000 -0.014319 0.021681
v 0.072000 0.000000 0.015750
v 0.072000 -0.020250 0.036000
v 0.072000 0.014319 0.021681
v 0.072000 0.020250 0.036000
v 0.072000 -0.014319 0.050319
v 0.072000 0.014319 0.050319
v 0.072000 0.000000 0.056250
v 0.090900 -0.009546 0.026454
v 0.090900 -0.000000 0.022500
v 0.090900 -0.013500 0.036000
v 0.090900 0.009546 0.026454
v 0.090900 0.013500 0.036000
v 0.090900 0.009546 0.045546
v 0.090900 -0.009546 0.045546
v 0.090900 -0.000000 0.049500
v 0.080100 -0.009546 0.026454
v 0.080100 -0.000000 0.022500
v 0.080100 -0.013500 0.036000
v 0.080100 0.009546 0.026454
v 0.080100 0.013500 0.036000
v 0.080100 -0.009546 0.045546
v 0.080100 0.009546 0.045546
v 0.080100 -0.000000 0.049500
v 0.041809 -0.131809 0.076770
v 0.038250 -0.140400 0.076770
v 0.050400 -0.128250 0.076770
v 0.041809 -0.148992 0.076770
v 0.050400 -0.152550 0.076770
v 0.058991 -0.148992 0.076770
v 0.058991 -0.131809 0.076770
v 0.062550 -0.140400 0.076770
v 0.041809 -0.131809 0.071910
v 0.038250 -0.140400 0.071910
v 0.050400 -0.128250 0.071910
v 0.041809 -0.148992 0.071910
v 0.050400 -0.152550 0.071910
v 0.058991 -0.131809 0.071910
v 0.058991 -0.148992 0.071910
v 0.062550 -0.140400 0.071910
v 0.044672 -0.134673 0.083250
v 0.042300 -0.140400 0.083250
v 0.050400 -0.132300 0.083250
v 0.044672 -0.146128 0.083250
v 0.050400 -0.148500 0.083250
v 0.056127 -0.146128 0.083250
v 0.056127 -0.134673 0.083250
v 0.058500 -0.140400 0.083250
v 0.044672 -0.134673 0.076770
v 0.042300 -0.140400 0.076770
v 0.050400 -0.132300 0.076770
v 0.044672 -0.146128 0.076770
v 0.050400 -0.148500 0.076770
v 0.056127 -0.134673 0.076770
v 0.056127 -0.146128 0.076770
v 0.058500 -0.140400 0.076770
v 0.041809 0.148991 0.076770
v 0.038250 0.140400 0.076770
v 0.050400 0.152550 0.076770
v 0.041809 0.131808 0.076770
v 0.050400 0.128250 0.076770
v 0.058991 0.131808 0.076770
v 0.058991 0.148991 0.076770
v 0.062550 0.140400 0.076770
v 0.041809 0.148991 0.071910
v 0.038250 0.140400 0.071910
v 0.050400 0.152550 0.071910
v 0.041809 0.131808 0.071910
v 0.050400 0.128250 0.071910
v 0.058991 0.148991 0.071910
v 0.058991 0.131808 0.071910
v 0.062550 0.140400 0.071910
v 0.044672 0.146127 0.083250
v 0.042300 0.140400 0.083250
v 0.050400 0.148500 0.083250
v 0.044672 0.134672 0.083250
v 0.050400 0.132300 0.083250
v 0.056127 0.134672 0.083250
v 0.056127 0.146127 0.083250
v 0.058500 0.140400 0.083250
v 0.044672 0.146127 0.076770
v 0.042300 0.140400 0.076770
v 0.050400 0.148500 0.076770
v 0.044672 0.134672 0.076770
v 0.050400 0.132300 0.076770
v 0.056127 0.146127 0.076770
v 0.056127 0.134672 0.076770
v 0.058500 0.140400 0.076770
v -0.058991 -0.131809 0.076770
v -0.062550 -0.140400 0.076770
v -0.050400 -0.128250 0.076770
v -0.058991 -0.148992 0.076770
v -0.050400 -0.152550 0.076770
v -0.041809 -0.148992 0.076770
v -0.041809 -0.131809 0.076770
v -0.038250 -0.140400 0.076770
v -0.058991 -0.131809 0.071910
v -0.062550 -0.140400 0.071910
v -0.050400 -0.128250 0.071910
v -0.058991 -0.148992 0.071910
v -0.050400 -0.152550 0.071910
v -0.041809 -0.131809 0.071910
v -0.041809 -0.148992 0.071910
v -0.038250 -0.140400 0.071910
v -0.056128 -0.134673 0.083250
v -0.058500 -0.140400 0.083250
v -0.050400 -0.132300 0.083250
v -0.056128 -0.146128 0.083250
v -0.050400 -0.148500 0.083250
v -0.044673 -0.146128 0.083250
v -0.044673 -0.134673 0.083250
v -0.042300 -0.140400 0.083250
v -0.056128 -0.134673 0.076770
v -0.058500 -0.140400 0.076770
v -0.050400 -0.132300 0.076770
v -0.056128 -0.146128 0.076770
v -0.050400 -0.148500 0.076770
v -0.044673 -0.134673 0.076770
v -0.044673 -0.146128 0.076770
v -0.042300 -0.140400 0.076770
v -0.058991 0.148991 0.076770
v -0.062550 0.140400 0.076770
v -0.050400 0.152550 0.076770
v -0.058991 0.131808 0.076770
v -0.050400 0.128250 0.076770
v -0.041809 0.131808 0.076770
v -0.041809 0.148991 0.076770
v -0.038250 0.140400 0.076770
v -0.058991 0.148991 0.071910
v -0.062550 0.140400 0.071910
v -0.050400 0.152550 0.071910
v -0.058991 0.131808 0.071910
v -0.050400 0.128250 0.071910
v -0.041809 0.148991 0.071910
v -0.041809 0.131808 0.071910
v -0.038250 0.140400 0.071910
v -0.056128 0.146127 0.083250
v -0.058500 0.140400 0.083250
v -0.050400 0.148500 0.083250
v -0.056128 0.134672 0.083250
v -0.050400 0.132300 0.083250
v -0.044673 0.134672 0.083250
v -0.044673 0.146127 0.083250
v -0.042300 0.140400 0.083250
v -0.056128 0.146127 0.076770
v -0.058500 0.140400 0.076770
v -0.050400 0.148500 0.076770
v -0.056128 0.134672 0.076770
v -0.050400 0.132300 0.076770
v -0.044673 0.146127 0.076770
v -0.044673 0.134672 0.076770
v -0.042300 0.140400 0.076770
vn -1.0000 -0.0000 -0.0000
vn -0.0000 -0.0000 1.0000
vn -0.0000 1.0000 -0.0000
vn 1.0000 -0.0000 -0.0000
vn -0.0000 -1.0000 -0.0000
vn -0.7071 -0.7071 -0.0000
vn -0.7071 0.7071 -0.0000
vn 0.7071 -0.7071 -0.0000
vn 0.7071 0.7071 -0.0000
vn 0.9239 0.3827 -0.0000
vn 0.9239 -0.3827 -0.0000
vn 0.3827 0.9239 -0.0000
vn -0.3827 0.9239 -0.0000
vn 0.3827 -0.9239 -0.0000
vn -0.3827 -0.9239 -0.0000
vn -0.9239 0.3827 -0.0000
vn -0.9239 -0.3827 -0.0000
vn -0.0000 -0.0000 -1.0000
vn -0.0000 0.3827 0.9239
vn -0.0000 -0.3827 0.9239
vn -0.0000 0.9239 0.3827
vn -0.0000 0.9239 -0.3827
vn -0.0000 -0.9239 0.3827
vn -0.0000 -0.9239 -0.3827
vn -0.0000 0.3827 -0.9239
vn -0.0000 -0.3827 -0.9239
vt 0.033203 0.218102
vt 0.033203 0.207031
vt 0.056673 0.013828
vt 0.033203 0.207031
vt 0.033203 0.214196
vt 0.060821 0.013828
vt 0.033203 0.308594
vt 0.033203 0.214196
vt 0.060821 0.110624
vt 0.033167 0.207031
vt 0.041016 0.218102
vt 0.041016 0.207031
vt 0.033167 0.308594
vt 0.041016 0.308594
vt 0.041016 0.218102
vt 0.041016 0.308594
vt 0.037074 0.308594
vt 0.041016 0.214196
vt 0.041016 0.207031
vt 0.037074 0.207031
vt 0.041016 0.214196
vt 0.033203 0.218099
vt 0.033203 0.207031
vt 0.080180 0.013828
vt 0.033203 0.308594
vt 0.033203 0.218099
vt 0.080180 0.110624
vt 0.033157 0.207031
vt 0.041016 0.218099
vt 0.041016 0.207031
vt 0.033157 0.308594
vt 0.041016 0.308594
vt 0.041016 0.218099
vt 0.041016 0.308594
vt 0.037063 0.308594
vt 0.041016 0.214193
vt 0.041016 0.207031
vt 0.037063 0.207031
vt 0.041016 0.214193
vt 0.027344 0.408203
vt 0.027344 0.013672
vt 0.027344 0.388672
vt 0.027344 0.398438
vt 0.027344 0.277344
vt 0.027344 0.267578
vt 0.027344 0.253906
vt 0.027344 0.257812
vt 0.000000 0.388672
vt 0.042845 0.006914
vt 0.000000 0.398438
vt 0.000000 0.408203
vt 0.000000 0.013672
vt 0.049759 0.000000
vt 0.000000 0.253906
vt 0.000000 0.257812
vt 0.049759 0.124452
vt 0.000000 0.277344
vt 0.042845 0.117538
vt 0.000000 0.267578
vt 0.033203 0.308594
vt 0.033203 0.218102
vt 0.056673 0.110624
vt 0.027344 0.078125
vt 0.027344 0.068359
vt 0.027344 0.058594
vt 0.027344 0.054688
vt 0.027344 0.212891
vt 0.027344 0.208984
vt 0.027344 0.189453
vt 0.027344 0.199219
vt 0.000000 0.189453
vt 0.098157 0.117538
vt 0.000000 0.199219
vt 0.000000 0.212891
vt 0.000000 0.208984
vt 0.091243 0.124452
vt 0.033203 0.308594
vt 0.033203 0.214193
vt 0.084329 0.110624
vt 0.000000 0.058594
vt 0.000000 0.054688
vt 0.091243 0.000000
vt 0.000000 0.078125
vt 0.098157 0.006914
vt 0.000000 0.068359
vt 0.033203 0.207031
vt 0.033203 0.214193
vt 0.084329 0.013828
vt 0.054969 0.324219
vt 0.043642 0.324219
vt 0.051454 0.315733
vt 0.043642 0.315733
vt 0.043642 0.332704
vt 0.051454 0.332704
vt 0.043642 0.332704
vt 0.042969 0.312219
vt 0.043642 0.324219
vt 0.034483 0.315733
vt 0.043642 0.315733
vt 0.030969 0.324219
vt 0.043642 0.324219
vt 0.042969 0.336219
vt 0.043642 0.324219
vt 0.034483 0.332704
vt 0.043642 0.315733
vt 0.043642 0.332704
vt 0.048442 0.324219
vt 0.048442 0.315733
vt 0.048442 0.332704
vt 0.048442 0.332704
vt 0.048442 0.324219
vt 0.048442 0.315733
vt 0.048442 0.324219
vt 0.048442 0.324219
vt 0.048442 0.315733
vt 0.048442 0.332704
vt 0.050969 0.324219
vt 0.037242 0.324219
vt 0.048626 0.318562
vt 0.037242 0.318562
vt 0.037242 0.329876
vt 0.048626 0.329876
vt 0.037242 0.329876
vt 0.042969 0.316219
vt 0.037242 0.324219
vt 0.037242 0.318562
vt 0.034969 0.324219
vt 0.037242 0.324219
vt 0.042969 0.332219
vt 0.037242 0.324219
vt 0.037242 0.318562
vt 0.037242 0.329876
vt 0.050969 0.324219
vt 0.043642 0.324219
vt 0.048626 0.318562
vt 0.043642 0.318562
vt 0.043642 0.329876
vt 0.048626 0.329876
vt 0.043642 0.329876
vt 0.042969 0.316219
vt 0.043642 0.324219
vt 0.037312 0.318562
vt 0.043642 0.318562
vt 0.042969 0.332219
vt 0.043642 0.324219
vt 0.034969 0.324219
vt 0.043642 0.324219
vt 0.037312 0.329876
vt 0.043642 0.318562
vt 0.043642 0.329876
vt 0.054969 0.324219
vt 0.043642 0.324219
vt 0.051454 0.315733
vt 0.043642 0.315733
vt 0.043642 0.332704
vt 0.051454 0.332704
vt 0.043642 0.332704
vt 0.042969 0.312219
vt 0.043642 0.324219
vt 0.034483 0.315733
vt 0.043642 0.315733
vt 0.030969 0.324219
vt 0.043642 0.324219
vt 0.042969 0.336219
vt 0.043642 0.324219
vt 0.034483 0.332704
vt 0.043642 0.315733
vt 0.043642 0.332704
vt 0.048442 0.324219
vt 0.048442 0.315733
vt 0.048442 0.332704
vt 0.048442 0.332704
vt 0.048442 0.324219
vt 0.048442 0.315733
vt 0.048442 0.324219
vt 0.048442 0.324219
vt 0.048442 0.315733
vt 0.048442 0.332704
vt 0.050969 0.324219
vt 0.037242 0.324219
vt 0.048626 0.318562
vt 0.037242 0.318562
vt 0.037242 0.329876
vt 0.048626 0.329876
vt 0.037242 0.329876
vt 0.042969 0.316219
vt 0.037242 0.324219
vt 0.037242 0.318562
vt 0.034969 0.324219
vt 0.037242 0.324219
vt 0.042969 0.332219
vt 0.037242 0.324219
vt 0.037242 0.318562
vt 0.037242 0.329876
vt 0.050969 0.324219
vt 0.043642 0.324219
vt 0.048626 0.318562
vt 0.043642 0.318562
vt 0.043642 0.329876
vt 0.048626 0.329876
vt 0.043642 0.329876
vt 0.042969 0.316219
vt 0.043642 0.324219
vt 0.037312 0.318562
vt 0.043642 0.318562
vt 0.042969 0.332219
vt 0.043642 0.324219
vt 0.034969 0.324219
vt 0.043642 0.324219
vt 0.037312 0.329876
vt 0.043642 0.318562
vt 0.043642 0.329876
vt 0.054969 0.324219
vt 0.043642 0.324219
vt 0.051454 0.315733
vt 0.043642 0.315733
vt 0.043642 0.332704
vt 0.051454 0.332704
vt 0.043642 0.332704
vt 0.042969 0.312219
vt 0.043642 0.324219
vt 0.034483 0.315733
vt 0.043642 0.315733
vt 0.030969 0.324219
vt 0.043642 0.324219
vt 0.042969 0.336219
vt 0.043642 0.324219
vt 0.034483 0.332704
vt 0.043642 0.315733
vt 0.043642 0.332704
vt 0.048442 0.324219
vt 0.048442 0.315733
vt 0.048442 0.332704
vt 0.048442 0.332704
vt 0.048442 0.324219
vt 0.048442 0.315733
vt 0.048442 0.324219
vt 0.048442 0.324219
vt 0.048442 0.315733
vt 0.048442 0.332704
vt 0.050969 0.324219
vt 0.037242 0.324219
vt 0.048626 0.318562
vt 0.037242 0.318562
vt 0.037242 0.329876
vt 0.048626 0.329876
vt 0.037242 0.329876
vt 0.042969 0.316219
vt 0.037242 0.324219
vt 0.037242 0.318562
vt 0.034969 0.324219
vt 0.037242 0.324219
vt 0.042969 0.332219
vt 0.037242 0.324219
vt 0.037242 0.318562
vt 0.037242 0.329876
vt 0.050969 0.324219
vt 0.043642 0.324219
vt 0.048626 0.318562
vt 0.043642 0.318562
vt 0.043642 0.329876
vt 0.048626 0.329876
vt 0.043642 0.329876
vt 0.042969 0.316219
vt 0.043642 0.324219
vt 0.037312 0.318562
vt 0.043642 0.318562
vt 0.042969 0.332219
vt 0.043642 0.324219
vt 0.034969 0.324219
vt 0.043642 0.324219
vt 0.037312 0.329876
vt 0.043642 0.318562
vt 0.043642 0.329876
vt 0.048009 0.324219
vt 0.043252 0.324219
vt 0.046533 0.320655
vt 0.043252 0.320655
vt 0.043252 0.327783
vt 0.046533 0.327783
vt 0.043252 0.327783
vt 0.042969 0.319179
vt 0.043252 0.324219
vt 0.039405 0.320655
vt 0.043252 0.320655
vt 0.037929 0.324219
vt 0.043252 0.324219
vt 0.042969 0.329259
vt 0.043252 0.324219
vt 0.039405 0.327783
vt 0.043252 0.320655
vt 0.043252 0.327783
vt 0.045268 0.324219
vt 0.045268 0.320655
vt 0.045268 0.327783
vt 0.045268 0.327783
vt 0.045268 0.324219
vt 0.045268 0.320655
vt 0.045268 0.324219
vt 0.045268 0.324219
vt 0.045268 0.320655
vt 0.045268 0.327783
vt 0.046329 0.324219
vt 0.040564 0.324219
vt 0.045345 0.321843
vt 0.040564 0.321843
vt 0.040564 0.326595
vt 0.045345 0.326595
vt 0.040564 0.326595
vt 0.042969 0.320859
vt 0.040564 0.324219
vt 0.040564 0.321843
vt 0.039609 0.324219
vt 0.040564 0.324219
vt 0.042969 0.327579
vt 0.040564 0.324219
vt 0.040564 0.321843
vt 0.040564 0.326595
vt 0.046329 0.324219
vt 0.043252 0.324219
vt 0.045345 0.321843
vt 0.043252 0.321843
vt 0.043252 0.326595
vt 0.045345 0.326595
vt 0.043252 0.326595
vt 0.042969 0.320859
vt 0.043252 0.324219
vt 0.040593 0.321843
vt 0.043252 0.321843
vt 0.042969 0.327579
vt 0.043252 0.324219
vt 0.039609 0.324219
vt 0.043252 0.324219
vt 0.040593 0.326595
vt 0.043252 0.321843
vt 0.043252 0.326595
vt 0.048009 0.324219
vt 0.043252 0.324219
vt 0.046533 0.320655
vt 0.043252 0.320655
vt 0.043252 0.327783
vt 0.046533 0.327783
vt 0.043252 0.327783
vt 0.042969 0.319179
vt 0.043252 0.324219
vt 0.039405 0.320655
vt 0.043252 0.320655
vt 0.037929 0.324219
vt 0.043252 0.324219
vt 0.042969 0.329259
vt 0.043252 0.324219
vt 0.039405 0.327783
vt 0.043252 0.320655
vt 0.043252 0.327783
vt 0.045268 0.324219
vt 0.045268 0.320655
vt 0.045268 0.327783
vt 0.045268 0.327783
vt 0.045268 0.324219
vt 0.045268 0.320655
vt 0.045268 0.324219
vt 0.045268 0.324219
vt 0.045268 0.320655
vt 0.045268 0.327783
vt 0.046329 0.324219
vt 0.040564 0.324219
vt 0.045345 0.321843
vt 0.040564 0.321843
vt 0.040564 0.326595
vt 0.045345 0.326595
vt 0.040564 0.326595
vt 0.042969 0.320859
vt 0.040564 0.324219
vt 0.040564 0.321843
vt 0.039609 0.324219
vt 0.040564 0.324219
vt 0.042969 0.327579
vt 0.040564 0.324219
vt 0.040564 0.321843
vt 0.040564 0.326595
vt 0.046329 0.324219
vt 0.043252 0.324219
vt 0.045345 0.321843
vt 0.043252 0.321843
vt 0.043252 0.326595
vt 0.045345 0.326595
vt 0.043252 0.326595
vt 0.042969 0.320859
vt 0.043252 0.324219
vt 0.040593 0.321843
vt 0.043252 0.321843
vt 0.042969 0.327579
vt 0.043252 0.324219
vt 0.039609 0.324219
vt 0.043252 0.324219
vt 0.040593 0.326595
vt 0.043252 0.321843
vt 0.043252 0.326595
vt 0.048009 0.324219
vt 0.043252 0.324219
vt 0.046533 0.320655
vt 0.043252 0.320655
vt 0.043252 0.327783
vt 0.046533 0.327783
vt 0.043252 0.327783
vt 0.042969 0.319179
vt 0.043252 0.324219
vt 0.039405 0.320655
vt 0.043252 0.320655
vt 0.037929 0.324219
vt 0.043252 0.324219
vt 0.042969 0.329259
vt 0.043252 0.324219
vt 0.039405 0.327783
vt 0.043252 0.320655
vt 0.043252 0.327783
vt 0.045268 0.324219
vt 0.045268 0.320655
vt 0.045268 0.327783
vt 0.045268 0.327783
vt 0.045268 0.324219
vt 0.045268 0.320655
vt 0.045268 0.324219
vt 0.045268 0.324219
vt 0.045268 0.320655
vt 0.045268 0.327783
vt 0.046329 0.324219
vt 0.040564 0.324219
vt 0.045345 0.321843
vt 0.040564 0.321843
vt 0.040564 0.326595
vt 0.045345 0.326595
vt 0.040564 0.326595
vt 0.042969 0.320859
vt 0.040564 0.324219
vt 0.040564 0.321843
vt 0.039609 0.324219
vt 0.040564 0.324219
vt 0.042969 0.327579
vt 0.040564 0.324219
vt 0.040564 0.321843
vt 0.040564 0.326595
vt 0.046329 0.324219
vt 0.043252 0.324219
vt 0.045345 0.321843
vt 0.043252 0.321843
vt 0.043252 0.326595
vt 0.045345 0.326595
vt 0.043252 0.326595
vt 0.042969 0.320859
vt 0.043252 0.324219
vt 0.040593 0.321843
vt 0.043252 0.321843
vt 0.042969 0.327579
vt 0.043252 0.324219
vt 0.039609 0.324219
vt 0.043252 0.324219
vt 0.040593 0.326595
vt 0.043252 0.321843
vt 0.043252 0.326595
vt 0.048009 0.324219
vt 0.043252 0.324219
vt 0.046533 0.320655
vt 0.043252 0.320655
vt 0.043252 0.327783
vt 0.046533 0.327783
vt 0.043252 0.327783
vt 0.042969 0.319179
vt 0.043252 0.324219
vt 0.039405 0.320655
vt 0.043252 0.320655
vt 0.037929 0.324219
vt 0.043252 0.324219
vt 0.042969 0.329259
vt 0.043252 0.324219
vt 0.039405 0.327783
vt 0.043252 0.320655
vt 0.043252 0.327783
vt 0.045268 0.324219
vt 0.045268 0.320655
vt 0.045268 0.327783
vt 0.045268 0.327783
vt 0.045268 0.324219
vt 0.045268 0.320655
vt 0.045268 0.324219
vt 0.045268 0.324219
vt 0.045268 0.320655
vt 0.045268 0.327783
vt 0.046329 0.324219
vt 0.040564 0.324219
vt 0.045345 0.321843
vt 0.040564 0.321843
vt 0.040564 0.326595
vt 0.045345 0.326595
vt 0.040564 0.326595
vt 0.042969 0.320859
vt 0.040564 0.324219
vt 0.040564 0.321843
vt 0.039609 0.324219
vt 0.040564 0.324219
vt 0.042969 0.327579
vt 0.040564 0.324219
vt 0.040564 0.321843
vt 0.040564 0.326595
vt 0.046329 0.324219
vt 0.043252 0.324219
vt 0.045345 0.321843
vt 0.043252 0.321843
vt 0.043252 0.326595
vt 0.045345 0.326595
vt 0.043252 0.326595
vt 0.042969 0.320859
vt 0.043252 0.324219
vt 0.040593 0.321843
vt 0.043252 0.321843
vt 0.042969 0.327579
vt 0.043252 0.324219
vt 0.039609 0.324219
vt 0.043252 0.324219
vt 0.040593 0.326595
vt 0.043252 0.321843
vt 0.043252 0.326595
s 0
usemtl electronics_etx_part_1
f 2/4/1 3/7/1 6/16/1 7/19/1
f 1/3/2 22/62/2 21/58/2 18/49/2
f 7/20/2 6/17/2 5/13/2 4/10/2
f 1/1/3 2/5/3 7/21/3 4/11/3
f 22/60/4 1/2/4 4/12/4 5/14/4
f 3/8/5 22/61/5 5/15/5 6/18/5
f 29/79/2 32/88/2 31/84/2 27/72/2
f 32/86/1 29/77/1 12/34/1 13/37/1
f 23/63/4 26/69/4 27/71/4 31/83/4
f 13/38/2 12/35/2 11/31/2 10/28/2
f 8/22/3 32/87/3 13/39/3 10/29/3
f 9/25/4 8/23/4 10/30/4 11/32/4
f 29/78/5 9/26/5 11/33/5 12/36/5
f 18/48/1 21/57/1 16/44/1 15/42/1
f 25/67/3 17/46/3 20/54/3 28/74/3
f 8/24/2 30/82/2 32/88/2
f 18/49/2 19/53/2 1/3/2
f 20/56/2 21/58/2 22/62/2
f 27/72/2 28/76/2 29/79/2
f 30/82/2 31/84/2 32/88/2
f 14/40/6 19/51/6 18/50/6 15/43/6
f 20/55/7 17/47/7 16/45/7 21/59/7
f 30/80/8 24/65/8 23/64/8 31/85/8
f 25/68/9 28/75/9 27/73/9 26/70/9
f 24/66/5 30/81/5 19/52/5 14/41/5
f 19/53/2 2/6/2 1/3/2
f 3/9/2 20/56/2 22/62/2
f 8/24/2 2/6/2 19/53/2 30/82/2
f 29/79/2 28/76/2 9/27/2
f 9/27/2 3/9/2 2/6/2 8/24/2
f 28/76/2 20/56/2 3/9/2 9/27/2
f 39/102/2 35/94/2 33/89/2 34/91/2 36/96/2 37/98/2 38/100/2 40/104/2
f 46/113/10 39/103/10 40/105/10 48/115/10
f 48/116/11 40/106/11 38/101/11 47/114/11
f 39/103/12 46/113/12 43/110/12 35/95/12
f 35/95/13 43/110/13 41/107/13 33/90/13
f 47/114/14 38/101/14 37/99/14 45/112/14
f 45/112/15 37/99/15 36/97/15 44/111/15
f 33/90/16 41/107/16 42/108/16 34/92/16
f 34/93/17 42/109/17 44/111/17 36/97/17
f 57/133/18 59/138/18 62/144/18 64/148/18 63/146/18 61/142/18 60/140/18 58/135/18
f 55/129/2 51/122/2 49/117/2 50/119/2 52/124/2 53/126/2 54/127/2 56/132/2
f 62/145/10 55/130/10 56/131/10 64/149/10
f 64/150/11 56/132/11 54/128/11 63/147/11
f 55/130/12 62/145/12 59/139/12 51/123/12
f 51/123/13 59/139/13 57/134/13 49/118/13
f 63/147/14 54/128/14 53/126/14 61/143/14
f 61/143/15 53/126/15 52/125/15 60/141/15
f 49/118/16 57/134/16 58/136/16 50/120/16
f 50/121/17 58/137/17 60/141/17 52/125/17
f 71/164/1 67/156/1 65/151/1 66/153/1 68/158/1 69/160/1 70/162/1 72/166/1
f 78/175/19 71/165/19 72/167/19 80/177/19
f 80/178/20 72/168/20 70/163/20 79/176/20
f 71/165/21 78/175/21 75/172/21 67/157/21
f 67/157/22 75/172/22 73/169/22 65/152/22
f 79/176/23 70/163/23 69/161/23 77/174/23
f 77/174/24 69/161/24 68/159/24 76/173/24
f 65/152/25 73/169/25 74/170/25 66/154/25
f 66/155/26 74/171/26 76/173/26 68/159/26
f 89/195/4 91/200/4 94/206/4 96/210/4 95/208/4 93/204/4 92/202/4 90/197/4
f 87/191/1 83/184/1 81/179/1 82/181/1 84/186/1 85/188/1 86/189/1 88/194/1
f 94/207/19 87/192/19 88/193/19 96/211/19
f 96/212/20 88/194/20 86/190/20 95/209/20
f 87/192/21 94/207/21 91/201/21 83/185/21
f 83/185/22 91/201/22 89/196/22 81/180/22
f 95/209/23 86/190/23 85/188/23 93/205/23
f 93/205/24 85/188/24 84/187/24 92/203/24
f 81/180/25 89/196/25 90/198/25 82/182/25
f 82/183/26 90/199/26 92/203/26 84/187/26
f 103/226/4 99/218/4 97/213/4 98/215/4 100/220/4 101/222/4 102/224/4 104/228/4
f 110/237/20 103/227/20 104/229/20 112/239/20
f 112/240/19 104/230/19 102/225/19 111/238/19
f 103/227/23 110/237/23 107/234/23 99/219/23
f 99/219/24 107/234/24 105/231/24 97/214/24
f 111/238/21 102/225/21 101/223/21 109/236/21
f 109/236/22 101/223/22 100/221/22 108/235/22
f 97/214/26 105/231/26 106/232/26 98/216/26
f 98/217/25 106/233/25 108/235/25 100/221/25
f 121/257/1 123/262/1 126/268/1 128/272/1 127/270/1 125/266/1 124/264/1 122/259/1
f 119/253/4 115/246/4 113/241/4 114/243/4 116/248/4 117/250/4 118/251/4 120/256/4
f 126/269/20 119/254/20 120/255/20 128/273/20
f 128/274/19 120/256/19 118/252/19 127/271/19
f 119/254/23 126/269/23 123/263/23 115/247/23
f 115/247/24 123/263/24 121/258/24 113/242/24
f 127/271/21 118/252/21 117/250/21 125/267/21
f 125/267/22 117/250/22 116/249/22 124/265/22
f 113/242/26 121/258/26 122/260/26 114/244/26
f 114/245/25 122/261/25 124/265/25 116/249/25
f 135/288/2 131/280/2 129/275/2 130/277/2 132/282/2 133/284/2 134/286/2 136/290/2
f 142/299/10 135/289/10 136/291/10 144/301/10
f 144/302/11 136/292/11 134/287/11 143/300/11
f 135/289/12 142/299/12 139/296/12 131/281/12
f 131/281/13 139/296/13 137/293/13 129/276/13
f 143/300/14 134/287/14 133/285/14 141/298/14
f 141/298/15 133/285/15 132/283/15 140/297/15
f 129/276/16 137/293/16 138/294/16 130/278/16
f 130/279/17 138/295/17 140/297/17 132/283/17
f 153/319/18 155/324/18 158/330/18 160/334/18 159/332/18 157/328/18 156/326/18 154/321/18
f 151/315/2 147/308/2 145/303/2 146/305/2 148/310/2 149/312/2 150/313/2 152/318/2
f 158/331/10 151/316/10 152/317/10 160/335/10
f 160/336/11 152/318/11 150/314/11 159/333/11
f 151/316/12 158/331/12 155/325/12 147/309/12
f 147/309/13 155/325/13 153/320/13 145/304/13
f 159/333/14 150/314/14 149/312/14 157/329/14
f 157/329/15 149/312/15 148/311/15 156/327/15
f 145/304/16 153/320/16 154/322/16 146/306/16
f 146/307/17 154/323/17 156/327/17 148/311/17
f 167/350/2 163/342/2 161/337/2 162/339/2 164/344/2 165/346/2 166/348/2 168/352/2
f 174/361/10 167/351/10 168/353/10 176/363/10
f 176/364/11 168/354/11 166/349/11 175/362/11
f 167/351/12 174/361/12 171/358/12 163/343/12
f 163/343/13 171/358/13 169/355/13 161/338/13
f 175/362/14 166/349/14 165/347/14 173/360/14
f 173/360/15 165/347/15 164/345/15 172/359/15
f 161/338/16 169/355/16 170/356/16 162/340/16
f 162/341/17 170/357/17 172/359/17 164/345/17
f 185/381/18 187/386/18 190/392/18 192/396/18 191/394/18 189/390/18 188/388/18 186/383/18
f 183/377/2 179/370/2 177/365/2 178/367/2 180/372/2 181/374/2 182/375/2 184/380/2
f 190/393/10 183/378/10 184/379/10 192/397/10
f 192/398/11 184/380/11 182/376/11 191/395/11
f 183/378/12 190/393/12 187/387/12 179/371/12
f 179/371/13 187/387/13 185/382/13 177/366/13
f 191/395/14 182/376/14 181/374/14 189/391/14
f 189/391/15 181/374/15 180/373/15 188/389/15
f 177/366/16 185/382/16 186/384/16 178/368/16
f 178/369/17 186/385/17 188/389/17 180/373/17
f 199/412/2 195/404/2 193/399/2 194/401/2 196/406/2 197/408/2 198/410/2 200/414/2
f 206/423/10 199/413/10 200/415/10 208/425/10
f 208/426/11 200/416/11 198/411/11 207/424/11
f 199/413/12 206/423/12 203/420/12 195/405/12
f 195/405/13 203/420/13 201/417/13 193/400/13
f 207/424/14 198/411/14 197/409/14 205/422/14
f 205/422/15 197/409/15 196/407/15 204/421/15
f 193/400/16 201/417/16 202/418/16 194/402/16
f 194/403/17 202/419/17 204/421/17 196/407/17
f 217/443/18 219/448/18 222/454/18 224/458/18 223/456/18 221/452/18 220/450/18 218/445/18
f 215/439/2 211/432/2 209/427/2 210/429/2 212/434/2 213/436/2 214/437/2 216/442/2
f 222/455/10 215/440/10 216/441/10 224/459/10
f 224/460/11 216/442/11 214/438/11 223/457/11
f 215/440/12 222/455/12 219/449/12 211/433/12
f 211/433/13 219/449/13 217/444/13 209/428/13
f 223/457/14 214/438/14 213/436/14 221/453/14
f 221/453/15 213/436/15 212/435/15 220/451/15
f 209/428/16 217/444/16 218/446/16 210/430/16
f 210/431/17 218/447/17 220/451/17 212/435/17
f 231/474/2 227/466/2 225/461/2 226/463/2 228/468/2 229/470/2 230/472/2 232/476/2
f 238/485/10 231/475/10 232/477/10 240/487/10
f 240/488/11 232/478/11 230/473/11 239/486/11
f 231/475/12 238/485/12 235/482/12 227/467/12
f 227/467/13 235/482/13 233/479/13 225/462/13
f 239/486/14 230/473/14 229/471/14 237/484/14
f 237/484/15 229/471/15 228/469/15 236/483/15
f 225/462/16 233/479/16 234/480/16 226/464/16
f 226/465/17 234/481/17 236/483/17 228/469/17
f 249/505/18 251/510/18 254/516/18 256/520/18 255/518/18 253/514/18 252/512/18 250/507/18
f 247/501/2 243/494/2 241/489/2 242/491/2 244/496/2 245/498/2 246/499/2 248/504/2
f 254/517/10 247/502/10 248/503/10 256/521/10
f 256/522/11 248/504/11 246/500/11 255/519/11
f 247/502/12 254/517/12 251/511/12 243/495/12
f 243/495/13 251/511/13 249/506/13 241/490/13
f 255/519/14 246/500/14 245/498/14 253/515/14
f 253/515/15 245/498/15 244/497/15 252/513/15
f 241/490/16 249/506/16 250/508/16 242/492/16
f 242/493/17 250/509/17 252/513/17 244/497/17
o lever_etx_4_child
v -0.036000 -0.084004 0.122731
v -0.036000 -0.068731 0.138004
v -0.025200 -0.084004 0.122731
v -0.025200 -0.068731 0.138004
v 0.036000 -0.084004 0.122731
v 0.036000 -0.068731 0.138004
v 0.025200 -0.084004 0.122731
v 0.025200 -0.068731 0.138004
v -0.036000 -0.000000 0.028544
v -0.036000 0.025456 0.054000
v -0.025200 -0.000000 0.028544
v -0.025200 0.025456 0.054000
v 0.036000 -0.000000 0.028544
v 0.036000 0.025456 0.054000
v 0.025200 -0.000000 0.028544
v 0.025200 0.025456 0.054000
v -0.099000 -0.072549 0.126549
v -0.099000 -0.089096 0.119695
v -0.099000 -0.065696 0.143095
v -0.099000 -0.105642 0.126549
v -0.099000 -0.112496 0.143095
v -0.099000 -0.105642 0.159641
v -0.099000 -0.072549 0.159642
v -0.099000 -0.089096 0.166495
v 0.099000 -0.072549 0.126549
v 0.099000 -0.089096 0.119695
v 0.099000 -0.065696 0.143095
v 0.099000 -0.105642 0.126549
v 0.099000 -0.112496 0.143095
v 0.099000 -0.072549 0.159642
v 0.099000 -0.105642 0.159641
v 0.099000 -0.089096 0.166495
v -0.036000 -0.076368 0.104911
v 0.036000 -0.050912 0.130367
v 0.036000 -0.076368 0.104911
v -0.104040 -0.072896 0.143095
v -0.104040 -0.077640 0.131640
v -0.104040 -0.077640 0.154550
v -0.104040 -0.089096 0.126895
v -0.104040 -0.100551 0.131640
v -0.104040 -0.105296 0.143095
v -0.104040 -0.089096 0.159295
v -0.104040 -0.100551 0.154550
v -0.099000 -0.072896 0.143095
v -0.099000 -0.077640 0.131640
v -0.099000 -0.077640 0.154550
v -0.099000 -0.089096 0.126895
v -0.099000 -0.100551 0.131640
v -0.099000 -0.089096 0.159295
v -0.099000 -0.105296 0.143095
v -0.099000 -0.100551 0.154550
v -0.112680 -0.078296 0.143095
v -0.112680 -0.081459 0.135459
v -0.112680 -0.081459 0.150732
v -0.112680 -0.089096 0.132295
v -0.112680 -0.096732 0.135459
v -0.112680 -0.099896 0.143095
v -0.112680 -0.089096 0.153895
v -0.112680 -0.096732 0.150732
v -0.104040 -0.078296 0.143095
v -0.104040 -0.081459 0.135459
v -0.104040 -0.081459 0.150732
v -0.104040 -0.089096 0.132295
v -0.104040 -0.096732 0.135459
v -0.104040 -0.089096 0.153895
v -0.104040 -0.099896 0.143095
v -0.104040 -0.096732 0.150732
v 0.104040 -0.089096 0.126895
v 0.104040 -0.077641 0.131640
v 0.104040 -0.100551 0.131640
v 0.104040 -0.072896 0.143095
v 0.104040 -0.077641 0.154551
v 0.104040 -0.089096 0.159295
v 0.104040 -0.105296 0.143095
v 0.104040 -0.100551 0.154550
v 0.099000 -0.089096 0.126895
v 0.099000 -0.077641 0.131640
v 0.099000 -0.100551 0.131640
v 0.099000 -0.072896 0.143095
v 0.099000 -0.077641 0.154551
v 0.099000 -0.105296 0.143095
v 0.099000 -0.089096 0.159295
v 0.099000 -0.100551 0.154550
v 0.112680 -0.089096 0.132295
v 0.112680 -0.081459 0.135459
v 0.112680 -0.096732 0.135459
v 0.112680 -0.078296 0.143095
v 0.112680 -0.081459 0.150732
v 0.112680 -0.089096 0.153895
v 0.112680 -0.099896 0.143095
v 0.112680 -0.096732 0.150732
v 0.104040 -0.089096 0.132295
v 0.104040 -0.081459 0.135459
v 0.104040 -0.096732 0.135459
v 0.104040 -0.078296 0.143095
v 0.104040 -0.081459 0.150732
v 0.104040 -0.099896 0.143095
v 0.104040 -0.089096 0.153895
v 0.104040 -0.096732 0.150732
v -0.025200 -0.043275 0.112548
v -0.025200 -0.058549 0.097275
v -0.036000 -0.043275 0.112548
v -0.036000 -0.058549 0.097275
v -0.036000 -0.050912 0.130367
v -0.025200 -0.050912 0.130367
v -0.025200 -0.076368 0.104911
v -0.025200 -0.019092 0.098547
v -0.025200 -0.044548 0.073092
v -0.036000 -0.019092 0.098547
v -0.036000 -0.044548 0.073092
v 0.036000 -0.043275 0.112548
v 0.036000 -0.058549 0.097275
v 0.025200 -0.043275 0.112548
v 0.025200 -0.058549 0.097275
v 0.025200 -0.050912 0.130367
v 0.025200 -0.076368 0.104911
v 0.036000 -0.019092 0.098547
v 0.036000 -0.044548 0.073092
v 0.025200 -0.019092 0.098547
v 0.025200 -0.044548 0.073092
vn -0.0000 0.7071 0.7071
vn -1.0000 -0.0000 -0.0000
vn 1.0000 -0.0000 -0.0000
vn -0.0000 -0.7071 -0.7071
vn -0.0000 -0.0000 1.0000
vn -0.0000 -0.7071 0.7071
vn -0.0000 1.0000 -0.0000
vn -0.0000 0.7071 -0.7071
vn -0.0000 -1.0000 -0.0000
vn -0.0000 -0.0000 -1.0000
vn -0.0000 -0.9191 -0.3939
vn -0.0000 0.3939 0.9191
vn -0.0000 -0.3827 0.9239
vn -0.0000 -0.9239 0.3827
vn -0.0000 0.3827 0.9239
vn -0.0000 0.9239 0.3827
vn -0.0000 -0.9239 -0.3827
vn -0.0000 -0.3827 -0.9239
vn -0.0000 0.9239 -0.3827
vn -0.0000 0.3827 -0.9239
vn -0.0000 -0.3939 -0.9191
vn -0.0000 0.9191 0.3939
vn -0.0000 -0.8654 -0.5010
vn -0.0000 0.5010 0.8654
vt 0.105469 0.298772
vt 0.092969 0.258092
vt 0.102344 0.258092
vt 0.111328 0.298772
vt 0.111328 0.298772
vt 0.102344 0.258092
vt 0.092969 0.258092
vt 0.105469 0.298772
vt 0.111328 0.298772
vt 0.102344 0.258092
vt 0.092969 0.258092
vt 0.105469 0.298772
vt 0.105469 0.298772
vt 0.092969 0.258092
vt 0.102344 0.258092
vt 0.111328 0.298772
vt 0.089844 0.310547
vt 0.105469 0.241571
vt 0.111328 0.241571
vt 0.105469 0.310547
vt 0.105469 0.310547
vt 0.111328 0.241571
vt 0.105469 0.241571
vt 0.089844 0.310547
vt 0.105469 0.310547
vt 0.111328 0.241571
vt 0.105469 0.241571
vt 0.089844 0.310547
vt 0.089844 0.310547
vt 0.105469 0.241571
vt 0.111328 0.241571
vt 0.105469 0.310547
vt 0.046143 0.164424
vt 0.029297 0.126953
vt 0.041016 0.126953
vt 0.051530 0.164424
vt 0.035156 0.126953
vt 0.042334 0.168233
vt 0.035156 0.126953
vt 0.055340 0.168233
vt 0.041016 0.126953
vt 0.029297 0.126953
vt 0.055340 0.173620
vt 0.035156 0.126953
vt 0.051530 0.177429
vt 0.041016 0.126953
vt 0.029297 0.126953
vt 0.042334 0.173620
vt 0.029297 0.126953
vt 0.041016 0.126953
vt 0.046143 0.177429
vt 0.035156 0.126953
vt 0.046140 0.164424
vt 0.029297 0.197266
vt 0.041016 0.197266
vt 0.042331 0.168233
vt 0.035156 0.197266
vt 0.051527 0.164424
vt 0.035156 0.197266
vt 0.042331 0.173620
vt 0.041016 0.197266
vt 0.029297 0.197266
vt 0.046140 0.177429
vt 0.035156 0.197266
vt 0.055336 0.168233
vt 0.029297 0.197266
vt 0.041016 0.197266
vt 0.051527 0.177429
vt 0.041016 0.197266
vt 0.029297 0.197266
vt 0.055336 0.173620
vt 0.035156 0.197266
vt 0.105469 0.290458
vt 0.089844 0.266183
vt 0.105469 0.290205
vt 0.089844 0.265340
vt 0.089844 0.266183
vt 0.105469 0.290458
vt 0.089844 0.265340
vt 0.105469 0.290205
vt 0.111328 0.290458
vt 0.105469 0.266183
vt 0.111328 0.290205
vt 0.105469 0.265340
vt 0.049449 0.324219
vt 0.043909 0.324219
vt 0.047551 0.319637
vt 0.043909 0.319637
vt 0.043909 0.328801
vt 0.047551 0.328801
vt 0.043909 0.328801
vt 0.042969 0.317739
vt 0.043909 0.324219
vt 0.038387 0.319637
vt 0.043909 0.319637
vt 0.036489 0.324219
vt 0.043909 0.324219
vt 0.042969 0.330699
vt 0.043909 0.324219
vt 0.038387 0.328801
vt 0.043909 0.319637
vt 0.043909 0.328801
vt 0.045925 0.324219
vt 0.045925 0.319637
vt 0.045925 0.328801
vt 0.045925 0.328801
vt 0.045925 0.324219
vt 0.045925 0.319637
vt 0.045925 0.324219
vt 0.045925 0.324219
vt 0.045925 0.319637
vt 0.045925 0.328801
vt 0.047289 0.324219
vt 0.040453 0.324219
vt 0.046023 0.321164
vt 0.040453 0.321164
vt 0.040453 0.327273
vt 0.046023 0.327273
vt 0.040453 0.327273
vt 0.042969 0.319899
vt 0.040453 0.324219
vt 0.039914 0.321164
vt 0.040453 0.321164
vt 0.038649 0.324219
vt 0.040453 0.324219
vt 0.042969 0.328539
vt 0.040453 0.324219
vt 0.039914 0.327273
vt 0.040453 0.321164
vt 0.040453 0.327273
vt 0.047289 0.324219
vt 0.043909 0.324219
vt 0.046023 0.321164
vt 0.043909 0.321164
vt 0.043909 0.327273
vt 0.046023 0.327273
vt 0.043909 0.327273
vt 0.042969 0.319899
vt 0.043909 0.324219
vt 0.039914 0.321164
vt 0.043909 0.321164
vt 0.042969 0.328539
vt 0.043909 0.324219
vt 0.038649 0.324219
vt 0.043909 0.324219
vt 0.039914 0.327273
vt 0.043909 0.321164
vt 0.043909 0.327273
vt 0.049449 0.324219
vt 0.043909 0.324219
vt 0.047551 0.319637
vt 0.043909 0.319637
vt 0.043909 0.328801
vt 0.047551 0.328801
vt 0.043909 0.328801
vt 0.042969 0.317739
vt 0.043909 0.324219
vt 0.038387 0.319637
vt 0.043909 0.319637
vt 0.036489 0.324219
vt 0.043909 0.324219
vt 0.042969 0.330699
vt 0.043909 0.324219
vt 0.038387 0.328801
vt 0.043909 0.319637
vt 0.043909 0.328801
vt 0.045925 0.324219
vt 0.045925 0.319637
vt 0.045925 0.328801
vt 0.045925 0.328801
vt 0.045925 0.324219
vt 0.045925 0.319637
vt 0.045925 0.324219
vt 0.045925 0.324219
vt 0.045925 0.319637
vt 0.045925 0.328801
vt 0.047289 0.324219
vt 0.040453 0.324219
vt 0.046023 0.321164
vt 0.040453 0.321164
vt 0.040453 0.327273
vt 0.046023 0.327273
vt 0.040453 0.327273
vt 0.042969 0.319899
vt 0.040453 0.324219
vt 0.039914 0.321164
vt 0.040453 0.321164
vt 0.038649 0.324219
vt 0.040453 0.324219
vt 0.042969 0.328539
vt 0.040453 0.324219
vt 0.039914 0.327273
vt 0.040453 0.321164
vt 0.040453 0.327273
vt 0.047289 0.324219
vt 0.043909 0.324219
vt 0.046023 0.321164
vt 0.043909 0.321164
vt 0.043909 0.327273
vt 0.046023 0.327273
vt 0.043909 0.327273
vt 0.042969 0.319899
vt 0.043909 0.324219
vt 0.039914 0.321164
vt 0.043909 0.321164
vt 0.042969 0.328539
vt 0.043909 0.324219
vt 0.038649 0.324219
vt 0.043909 0.324219
vt 0.039914 0.327273
vt 0.043909 0.321164
vt 0.043909 0.327273
vt 0.092969 0.273769
vt 0.105469 0.281608
vt 0.092969 0.274741
vt 0.105469 0.280890
vt 0.111328 0.281608
vt 0.102344 0.273769
vt 0.111328 0.280890
vt 0.102344 0.274741
vt 0.102344 0.273769
vt 0.111328 0.281608
vt 0.102344 0.274741
vt 0.111328 0.280890
vt 0.105469 0.281608
vt 0.092969 0.273769
vt 0.105469 0.280890
vt 0.092969 0.274741
vt 0.105469 0.266183
vt 0.111328 0.290458
vt 0.105469 0.265340
vt 0.111328 0.290205
vt 0.089844 0.266183
vt 0.105469 0.290458
vt 0.089844 0.265340
vt 0.105469 0.290205
vt 0.111328 0.290458
vt 0.105469 0.266183
vt 0.111328 0.290205
vt 0.105469 0.265340
vt 0.105469 0.271072
vt 0.089844 0.281250
vt 0.089844 0.286412
vt 0.105469 0.269445
vt 0.105469 0.281250
vt 0.111328 0.271072
vt 0.111328 0.269445
vt 0.105469 0.286412
vt 0.111328 0.271072
vt 0.105469 0.281250
vt 0.105469 0.286412
vt 0.111328 0.269445
vt 0.089844 0.281250
vt 0.105469 0.271072
vt 0.105469 0.269445
vt 0.089844 0.286412
vt 0.092969 0.273769
vt 0.105469 0.281608
vt 0.092969 0.274741
vt 0.105469 0.280890
vt 0.111328 0.281608
vt 0.102344 0.273769
vt 0.111328 0.280890
vt 0.102344 0.274741
vt 0.102344 0.273769
vt 0.111328 0.281608
vt 0.102344 0.274741
vt 0.111328 0.280890
vt 0.105469 0.281608
vt 0.092969 0.273769
vt 0.105469 0.280890
vt 0.092969 0.274741
vt 0.105469 0.266183
vt 0.111328 0.290458
vt 0.105469 0.265340
vt 0.111328 0.290205
vt 0.105469 0.290458
vt 0.089844 0.266183
vt 0.105469 0.290205
vt 0.089844 0.265340
vt 0.105469 0.271072
vt 0.089844 0.281250
vt 0.089844 0.286412
vt 0.105469 0.269445
vt 0.105469 0.281250
vt 0.111328 0.271072
vt 0.111328 0.269445
vt 0.105469 0.286412
vt 0.111328 0.271072
vt 0.105469 0.281250
vt 0.105469 0.286412
vt 0.111328 0.269445
vt 0.089844 0.281250
vt 0.105469 0.271072
vt 0.105469 0.269445
vt 0.089844 0.286412
s 1
usemtl electronics_etx_part_1
f 375/811/27 373/803/27 270/549/27 272/553/27
f 365/771/27 363/763/27 268/545/27 266/541/27
f 366/775/28 365/772/28 266/542/28 265/539/28
f 373/804/29 374/807/29 269/547/29 270/550/29
f 363/764/29 364/767/29 267/543/29 268/546/29
f 376/815/28 375/812/28 272/554/28 271/551/28
f 364/768/30 366/776/30 265/540/30 267/544/30
f 374/808/30 376/816/30 271/552/30 269/548/30
f 281/575/29 283/580/29 286/587/29 288/593/29 287/590/29 285/585/29 284/582/29 282/578/29
f 279/570/28 275/560/28 273/555/28 274/558/28 276/562/28 277/565/28 278/567/28 280/573/28
f 286/588/27 279/571/27 280/574/31 288/594/31
f 288/594/31 280/574/31 278/568/32 287/591/32
f 279/572/27 286/589/27 283/581/33 275/561/33
f 275/561/33 283/581/33 281/576/34 273/556/34
f 287/592/32 278/569/32 277/566/35 285/586/35
f 285/586/35 277/566/35 276/563/30 284/583/30
f 273/557/34 281/577/34 282/579/36 274/559/36
f 274/559/36 282/579/36 284/584/30 276/564/30
f 259/527/37 257/523/37 289/595/37 362/759/37
f 260/529/29 259/528/29 362/760/29 361/755/29
f 257/524/28 258/525/28 360/751/28 289/596/28
f 258/526/38 260/530/38 361/756/38 360/752/38
f 261/531/37 263/535/37 372/799/37 291/603/37
f 263/536/28 264/537/28 371/795/28 372/800/28
f 262/533/29 261/532/29 291/604/29 290/599/29
f 264/538/38 262/534/38 290/600/38 371/796/38
f 298/620/28 294/612/28 292/607/28 293/609/28 295/614/28 296/616/28 297/618/28 299/622/28
f 305/631/39 298/621/39 299/623/39 307/633/39
f 307/634/40 299/624/40 297/619/40 306/632/40
f 298/621/41 305/631/41 302/628/41 294/613/41
f 294/613/42 302/628/42 300/625/42 292/608/42
f 306/632/43 297/619/43 296/617/43 304/630/43
f 304/630/44 296/617/44 295/615/44 303/629/44
f 292/608/45 300/625/45 301/626/45 293/610/45
f 293/611/46 301/627/46 303/629/46 295/615/46
f 316/653/29 318/658/29 321/664/29 323/668/29 322/666/29 320/662/29 319/660/29 317/655/29
f 314/648/28 310/640/28 308/635/28 309/637/28 311/642/28 312/644/28 313/646/28 315/650/28
f 321/665/39 314/649/39 315/651/39 323/669/39
f 323/670/40 315/652/40 313/647/40 322/667/40
f 314/649/41 321/665/41 318/659/41 310/641/41
f 310/641/42 318/659/42 316/654/42 308/636/42
f 322/667/43 313/647/43 312/645/43 320/663/43
f 320/663/44 312/645/44 311/643/44 319/661/44
f 308/636/45 316/654/45 317/656/45 309/638/45
f 309/639/46 317/657/46 319/661/46 311/643/46
f 330/684/29 326/676/29 324/671/29 325/673/29 327/678/29 328/680/29 329/682/29 331/686/29
f 337/695/40 330/685/40 331/687/40 339/697/40
f 339/698/39 331/688/39 329/683/39 338/696/39
f 330/685/43 337/695/43 334/692/43 326/677/43
f 326/677/44 334/692/44 332/689/44 324/672/44
f 338/696/41 329/683/41 328/681/41 336/694/41
f 336/694/42 328/681/42 327/679/42 335/693/42
f 324/672/46 332/689/46 333/690/46 325/674/46
f 325/675/45 333/691/45 335/693/45 327/679/45
f 348/717/28 350/722/28 353/728/28 355/732/28 354/730/28 352/726/28 351/724/28 349/719/28
f 346/712/29 342/704/29 340/699/29 341/701/29 343/706/29 344/708/29 345/710/29 347/714/29
f 353/729/40 346/713/40 347/715/40 355/733/40
f 355/734/39 347/716/39 345/711/39 354/731/39
f 346/713/43 353/729/43 350/723/43 342/705/43
f 342/705/44 350/723/44 348/718/44 340/700/44
f 354/731/41 345/711/41 344/709/41 352/727/41
f 352/727/42 344/709/42 343/707/42 351/725/42
f 340/700/46 348/718/46 349/720/46 341/702/46
f 341/703/45 349/721/45 351/725/45 343/707/45
f 362/761/47 289/597/47 359/747/47 357/739/47
f 361/757/29 362/762/29 357/740/29 356/735/29
f 289/598/28 360/753/28 358/743/28 359/748/28
f 360/754/48 361/758/48 356/736/48 358/744/48
f 357/741/49 359/749/49 366/777/49 364/769/49
f 356/737/29 357/742/29 364/770/29 363/765/29
f 359/750/28 358/745/28 365/773/28 366/778/28
f 358/746/50 356/738/50 363/766/50 365/774/50
f 291/605/47 372/801/47 370/791/47 368/783/47
f 372/802/28 371/797/28 369/787/28 370/792/28
f 290/601/29 291/606/29 368/784/29 367/779/29
f 371/798/48 290/602/48 367/780/48 369/788/48
f 368/785/49 370/793/49 376/817/49 374/809/49
f 370/794/28 369/789/28 375/813/28 376/818/28
f 367/781/29 368/786/29 374/810/29 373/805/29
f 369/790/50 367/782/50 373/806/50 375/814/50
