# Blender 3.4.0
# www.blender.org
mtllib lever_etx_6.mtl
o lever_etx_6_child
v 0.005400 -0.100800 0.078000
v 0.005400 -0.079200 0.078000
v -0.005400 -0.100800 0.078000
v -0.005400 -0.079200 0.078000
v 0.005400 -0.108000 -0.036000
v 0.005400 -0.072000 -0.036000
v -0.005400 -0.108000 -0.036000
v -0.005400 -0.072000 -0.036000
v -0.099000 -0.090000 0.036600
v -0.099000 -0.106546 0.043454
v -0.099000 -0.073454 0.043454
v -0.099000 -0.113400 0.060000
v -0.099000 -0.106546 0.076546
v -0.099000 -0.090000 0.083400
v -0.099000 -0.066600 0.060000
v -0.099000 -0.073454 0.076546
v 0.099000 -0.090000 0.036600
v 0.099000 -0.090000 0.083400
v 0.005400 -0.072000 0.060000
v 0.005400 -0.108000 0.060000
v -0.104040 -0.078545 0.048545
v -0.104040 -0.090000 0.043800
v -0.104040 -0.073800 0.060000
v -0.104040 -0.101455 0.048545
v -0.104040 -0.106200 0.060000
v -0.104040 -0.101455 0.071455
v -0.104040 -0.078545 0.071455
v -0.104040 -0.090000 0.076200
v -0.099000 -0.078545 0.048545
v -0.099000 -0.090000 0.043800
v -0.099000 -0.073800 0.060000
v -0.099000 -0.101455 0.048545
v -0.099000 -0.106200 0.060000
v -0.099000 -0.078545 0.071455
v -0.099000 -0.101455 0.071455
v -0.099000 -0.090000 0.076200
v -0.112680 -0.082363 0.052363
v -0.112680 -0.090000 0.049200
v -0.112680 -0.079200 0.060000
v -0.112680 -0.097637 0.052363
v -0.112680 -0.100800 0.060000
v -0.112680 -0.097637 0.067637
v -0.112680 -0.082363 0.067637
v -0.112680 -0.090000 0.070800
v -0.104040 -0.082363 0.052363
v -0.104040 -0.090000 0.049200
v -0.104040 -0.079200 0.060000
v -0.104040 -0.097637 0.052363
v -0.104040 -0.100800 0.060000
v -0.104040 -0.082363 0.067637
v -0.104040 -0.097637 0.067637
v -0.104040 -0.090000 0.070800
v 0.018000 -0.097637 0.052363
v 0.018000 -0.090000 0.049200
v 0.018000 -0.100800 0.060000
v 0.018000 -0.082363 0.052363
v 0.018000 -0.079200 0.060000
v 0.018000 -0.082363 0.067637
v 0.018000 -0.097637 0.067637
v 0.018000 -0.090000 0.070800
v -0.018000 -0.097637 0.052363
v -0.018000 -0.090000 0.049200
v -0.018000 -0.100800 0.060000
v -0.018000 -0.082363 0.052363
v -0.018000 -0.079200 0.060000
v -0.018000 -0.097637 0.067637
v -0.018000 -0.082363 0.067637
v -0.018000 -0.090000 0.070800
v 0.005400 -0.079200 0.042000
v 0.005400 -0.100800 0.042000
v -0.005400 -0.079200 0.042000
v -0.005400 -0.100800 0.042000
v -0.005400 -0.072000 0.060000
v -0.005400 -0.108000 0.060000
v 0.005400 -0.072000 0.015000
v 0.005400 -0.108000 0.015000
v -0.005400 -0.072000 0.015000
v -0.005400 -0.108000 0.015000
v -0.018000 -0.113400 0.060000
v 0.104040 -0.101455 0.048545
v 0.104040 -0.090000 0.043800
v 0.104040 -0.106200 0.060000
v 0.104040 -0.078545 0.048545
v 0.104040 -0.073800 0.060000
v 0.104040 -0.078545 0.071455
v 0.104040 -0.101455 0.071455
v 0.104040 -0.090000 0.076200
v 0.099000 -0.101455 0.048545
v 0.099000 -0.090000 0.043800
v 0.099000 -0.106200 0.060000
v 0.099000 -0.078545 0.048545
v 0.099000 -0.073800 0.060000
v 0.099000 -0.101455 0.071455
v 0.099000 -0.078545 0.071455
v 0.099000 -0.090000 0.076200
v 0.112680 -0.097637 0.052363
v 0.112680 -0.090000 0.049200
v 0.112680 -0.100800 0.060000
v 0.112680 -0.082363 0.052363
v 0.112680 -0.079200 0.060000
v 0.112680 -0.082363 0.067637
v 0.112680 -0.097637 0.067637
v 0.112680 -0.090000 0.070800
v 0.104040 -0.097637 0.052363
v 0.104040 -0.090000 0.049200
v 0.104040 -0.100800 0.060000
v 0.104040 -0.082363 0.052363
v 0.104040 -0.079200 0.060000
v 0.104040 -0.097637 0.067637
v 0.104040 -0.082363 0.067637
v 0.104040 -0.090000 0.070800
v -0.018000 -0.090000 0.036600
v -0.018000 -0.106546 0.043454
v -0.018000 -0.073454 0.043454
v -0.018000 -0.106546 0.076546
v -0.018000 -0.066600 0.060000
v -0.018000 -0.090000 0.083400
v -0.018000 -0.073454 0.076546
v 0.018000 -0.090000 0.036600
v 0.018000 -0.106546 0.043454
v 0.018000 -0.113400 0.060000
v 0.018000 -0.106546 0.076546
v 0.018000 -0.066600 0.060000
v 0.018000 -0.090000 0.083400
v 0.099000 -0.106546 0.043454
v 0.099000 -0.073454 0.043454
v 0.099000 -0.113400 0.060000
v 0.099000 -0.106546 0.076546
v 0.099000 -0.066600 0.060000
v 0.099000 -0.073454 0.076546
v 0.018000 -0.073454 0.076546
v 0.018000 -0.073454 0.043454
vn -0.0000 1.0000 -0.0000
vn 1.0000 -0.0000 -0.0000
vn -1.0000 -0.0000 -0.0000
vn -0.0000 -1.0000 -0.0000
vn -0.0000 0.7071 0.7071
vn -0.0000 -0.0000 1.0000
vn -0.0000 -0.7071 0.7071
vn -0.0000 -0.9285 0.3714
vn -0.0000 0.9285 0.3714
vn -0.0000 0.3827 0.9239
vn -0.0000 -0.3827 0.9239
vn -0.0000 0.9239 0.3827
vn -0.0000 0.9239 -0.3827
vn -0.0000 -0.9239 0.3827
vn -0.0000 -0.9239 -0.3827
vn -0.0000 0.3827 -0.9239
vn -0.0000 -0.3827 -0.9239
vn -0.0000 -0.9285 -0.3714
vn -0.0000 0.9285 -0.3714
vn -0.0000 -0.9662 0.2577
vn -0.0000 0.9662 0.2577
vn -0.0000 -0.7071 -0.7071
vn -0.0000 -0.0000 -1.0000
vn -0.0000 0.7071 -0.7071
vt 0.107422 0.242188
vt 0.091339 0.241210
vt 0.103516 0.242188
vt 0.100519 0.241210
vt 0.103516 0.242188
vt 0.103516 0.232422
vt 0.103516 0.242188
vt 0.100519 0.241210
vt 0.107422 0.242188
vt 0.091339 0.241210
vt 0.107422 0.242188
vt 0.107422 0.232422
vt 0.088279 0.192762
vt 0.107422 0.191985
vt 0.103516 0.191985
vt 0.103578 0.192762
vt 0.103578 0.192762
vt 0.103516 0.191985
vt 0.107422 0.191985
vt 0.088279 0.192762
vt 0.046143 0.164424
vt 0.041016 0.126953
vt 0.029297 0.126953
vt 0.051530 0.164424
vt 0.035156 0.126953
vt 0.042334 0.168233
vt 0.035156 0.126953
vt 0.055340 0.168233
vt 0.041016 0.126953
vt 0.029297 0.126953
vt 0.055340 0.173620
vt 0.035156 0.126953
vt 0.051530 0.177429
vt 0.041016 0.126953
vt 0.029297 0.126953
vt 0.042334 0.173620
vt 0.029297 0.126953
vt 0.041016 0.126953
vt 0.046143 0.177429
vt 0.035156 0.126953
vt 0.046140 0.164424
vt 0.029297 0.197266
vt 0.041016 0.197266
vt 0.051527 0.177429
vt 0.029297 0.197266
vt 0.041016 0.197266
vt 0.103579 0.233560
vt 0.103516 0.234375
vt 0.107422 0.234375
vt 0.088279 0.233560
vt 0.049449 0.324219
vt 0.043909 0.324219
vt 0.047551 0.319637
vt 0.043909 0.319637
vt 0.043909 0.328801
vt 0.047551 0.328801
vt 0.043909 0.328801
vt 0.042969 0.317739
vt 0.043909 0.324219
vt 0.038387 0.319637
vt 0.043909 0.319637
vt 0.036489 0.324219
vt 0.043909 0.324219
vt 0.042969 0.330699
vt 0.043909 0.324219
vt 0.038387 0.328801
vt 0.043909 0.319637
vt 0.043909 0.328801
vt 0.045925 0.324219
vt 0.045925 0.319637
vt 0.045925 0.328801
vt 0.045925 0.328801
vt 0.045925 0.324219
vt 0.045925 0.319637
vt 0.045925 0.324219
vt 0.045925 0.324219
vt 0.045925 0.319637
vt 0.045925 0.328801
vt 0.047289 0.324219
vt 0.040453 0.324219
vt 0.046023 0.321164
vt 0.040453 0.321164
vt 0.040453 0.327273
vt 0.046023 0.327273
vt 0.040453 0.327273
vt 0.042969 0.319899
vt 0.040453 0.324219
vt 0.039914 0.321164
vt 0.040453 0.321164
vt 0.038649 0.324219
vt 0.040453 0.324219
vt 0.042969 0.328539
vt 0.040453 0.324219
vt 0.039914 0.327273
vt 0.040453 0.321164
vt 0.040453 0.327273
vt 0.047289 0.324219
vt 0.043909 0.324219
vt 0.046023 0.321164
vt 0.043909 0.321164
vt 0.043909 0.327273
vt 0.046023 0.327273
vt 0.043909 0.327273
vt 0.042969 0.319899
vt 0.043909 0.324219
vt 0.039914 0.321164
vt 0.043909 0.321164
vt 0.042969 0.328539
vt 0.043909 0.324219
vt 0.038649 0.324219
vt 0.043909 0.324219
vt 0.039914 0.327273
vt 0.043909 0.321164
vt 0.043909 0.327273
vt 0.047289 0.324219
vt 0.040885 0.324219
vt 0.046023 0.321164
vt 0.040885 0.321164
vt 0.040885 0.327273
vt 0.046023 0.327273
vt 0.040885 0.327273
vt 0.042969 0.319899
vt 0.040885 0.324219
vt 0.039914 0.321164
vt 0.040885 0.321164
vt 0.038649 0.324219
vt 0.040885 0.324219
vt 0.042969 0.328539
vt 0.040885 0.324219
vt 0.039914 0.327273
vt 0.040885 0.321164
vt 0.040885 0.327273
vt 0.047289 0.324219
vt 0.055285 0.324219
vt 0.046023 0.321164
vt 0.055285 0.321164
vt 0.055285 0.327273
vt 0.046023 0.327273
vt 0.055285 0.327273
vt 0.042969 0.319899
vt 0.055285 0.324219
vt 0.039914 0.321164
vt 0.055285 0.321164
vt 0.042969 0.328539
vt 0.055285 0.324219
vt 0.038649 0.324219
vt 0.055285 0.324219
vt 0.039914 0.327273
vt 0.055285 0.321164
vt 0.055285 0.327273
vt 0.100519 0.225911
vt 0.103516 0.224609
vt 0.107422 0.224609
vt 0.091339 0.225911
vt 0.091339 0.225911
vt 0.107422 0.224609
vt 0.103516 0.224609
vt 0.100519 0.225911
vt 0.088279 0.233560
vt 0.107422 0.234375
vt 0.103516 0.234375
vt 0.103578 0.233560
vt 0.103578 0.214436
vt 0.103516 0.212891
vt 0.107422 0.212891
vt 0.088279 0.214436
vt 0.088279 0.214436
vt 0.107422 0.212891
vt 0.103516 0.212891
vt 0.103579 0.214436
vt 0.041016 0.155717
vt 0.029297 0.155717
vt 0.042331 0.173620
vt 0.049449 0.324219
vt 0.043909 0.324219
vt 0.047551 0.319637
vt 0.043909 0.319637
vt 0.043909 0.328801
vt 0.047551 0.328801
vt 0.043909 0.328801
vt 0.042969 0.317739
vt 0.043909 0.324219
vt 0.038387 0.319637
vt 0.043909 0.319637
vt 0.036489 0.324219
vt 0.043909 0.324219
vt 0.042969 0.330699
vt 0.043909 0.324219
vt 0.038387 0.328801
vt 0.043909 0.319637
vt 0.043909 0.328801
vt 0.045925 0.324219
vt 0.045925 0.319637
vt 0.045925 0.328801
vt 0.045925 0.328801
vt 0.045925 0.324219
vt 0.045925 0.319637
vt 0.045925 0.324219
vt 0.045925 0.324219
vt 0.045925 0.319637
vt 0.045925 0.328801
vt 0.047289 0.324219
vt 0.040453 0.324219
vt 0.046023 0.321164
vt 0.040453 0.321164
vt 0.040453 0.327273
vt 0.046023 0.327273
vt 0.040453 0.327273
vt 0.042969 0.319899
vt 0.040453 0.324219
vt 0.039914 0.321164
vt 0.040453 0.321164
vt 0.038649 0.324219
vt 0.040453 0.324219
vt 0.042969 0.328539
vt 0.040453 0.324219
vt 0.039914 0.327273
vt 0.040453 0.321164
vt 0.040453 0.327273
vt 0.047289 0.324219
vt 0.043909 0.324219
vt 0.046023 0.321164
vt 0.043909 0.321164
vt 0.043909 0.327273
vt 0.046023 0.327273
vt 0.043909 0.327273
vt 0.042969 0.319899
vt 0.043909 0.324219
vt 0.039914 0.321164
vt 0.043909 0.321164
vt 0.042969 0.328539
vt 0.043909 0.324219
vt 0.038649 0.324219
vt 0.043909 0.324219
vt 0.039914 0.327273
vt 0.043909 0.321164
vt 0.043909 0.327273
vt 0.041016 0.155717
vt 0.029297 0.155717
vt 0.046140 0.164424
vt 0.035156 0.155717
vt 0.042331 0.168233
vt 0.035156 0.155717
vt 0.051527 0.164424
vt 0.035156 0.155717
vt 0.046140 0.177429
vt 0.029297 0.155717
vt 0.041016 0.155717
vt 0.055336 0.168233
vt 0.041016 0.155717
vt 0.029297 0.155717
vt 0.051527 0.177429
vt 0.035156 0.155717
vt 0.055336 0.173620
vt 0.046140 0.164424
vt 0.029297 0.168501
vt 0.041016 0.168501
vt 0.042331 0.168233
vt 0.035156 0.168501
vt 0.042331 0.173620
vt 0.029297 0.168501
vt 0.041016 0.168501
vt 0.046140 0.177429
vt 0.035156 0.168501
vt 0.055336 0.168233
vt 0.041016 0.168501
vt 0.029297 0.168501
vt 0.051527 0.177429
vt 0.029297 0.168501
vt 0.041016 0.168501
vt 0.042331 0.168233
vt 0.035156 0.197266
vt 0.051527 0.164424
vt 0.035156 0.197266
vt 0.042331 0.173620
vt 0.029297 0.197266
vt 0.041016 0.197266
vt 0.046140 0.177429
vt 0.035156 0.197266
vt 0.055336 0.168233
vt 0.041016 0.197266
vt 0.029297 0.197266
vt 0.055336 0.173620
vt 0.035156 0.197266
vt 0.055336 0.173620
vt 0.035156 0.168501
vt 0.051527 0.164424
vt 0.035156 0.168501
s 1
usemtl electronics_etx_part_1
f 77/168/1 75/164/1 6/15/1 8/19/1
f 75/163/2 76/166/2 5/13/2 6/16/2
f 78/170/3 77/167/3 8/20/3 7/17/3
f 76/165/4 78/169/4 7/18/4 5/14/4
f 17/41/2 126/273/2 129/280/2 130/283/2 18/44/2 128/278/2 127/275/2 125/271/2
f 15/36/3 11/26/3 9/21/3 10/24/3 12/28/3 13/31/3 14/33/3 16/39/3
f 116/247/1 15/37/1 16/40/5 118/253/5
f 118/253/5 16/40/5 14/34/6 117/250/6
f 117/251/6 14/35/6 13/32/7 115/245/7
f 115/245/7 13/32/7 12/29/4 79/171/4
f 1/1/8 3/7/8 74/161/8 20/49/8
f 3/8/3 4/10/3 73/159/3 74/162/3
f 2/4/2 1/2/2 20/50/2 19/47/2
f 4/11/9 2/5/9 19/48/9 73/160/9
f 27/64/3 23/56/3 21/51/3 22/53/3 24/58/3 25/60/3 26/62/3 28/66/3
f 34/75/10 27/65/10 28/67/10 36/77/10
f 36/78/11 28/68/11 26/63/11 35/76/11
f 27/65/12 34/75/12 31/72/12 23/57/12
f 23/57/13 31/72/13 29/69/13 21/52/13
f 35/76/14 26/63/14 25/61/14 33/74/14
f 33/74/15 25/61/15 24/59/15 32/73/15
f 21/52/16 29/69/16 30/70/16 22/54/16
f 22/55/17 30/71/17 32/73/17 24/59/17
f 45/97/2 47/102/2 50/108/2 52/112/2 51/110/2 49/106/2 48/104/2 46/99/2
f 43/92/3 39/84/3 37/79/3 38/81/3 40/86/3 41/88/3 42/90/3 44/94/3
f 50/109/10 43/93/10 44/95/10 52/113/10
f 52/114/11 44/96/11 42/91/11 51/111/11
f 43/93/12 50/109/12 47/103/12 39/85/12
f 39/85/13 47/103/13 45/98/13 37/80/13
f 51/111/14 42/91/14 41/89/14 49/107/14
f 49/107/15 41/89/15 40/87/15 48/105/15
f 37/80/16 45/98/16 46/100/16 38/82/16
f 38/83/17 46/101/17 48/105/17 40/87/17
f 61/133/3 63/138/3 66/144/3 68/148/3 67/146/3 65/142/3 64/140/3 62/135/3
f 59/128/2 55/120/2 53/115/2 54/117/2 56/122/2 57/124/2 58/126/2 60/130/2
f 66/145/11 59/129/11 60/131/11 68/149/11
f 68/150/10 60/132/10 58/127/10 67/147/10
f 59/129/14 66/145/14 63/139/14 55/121/14
f 55/121/15 63/139/15 61/134/15 53/116/15
f 67/147/12 58/127/12 57/125/12 65/143/12
f 65/143/13 57/125/13 56/123/13 64/141/13
f 53/116/17 61/134/17 62/136/17 54/118/17
f 54/119/16 62/137/16 64/141/16 56/123/16
f 20/49/18 74/161/18 72/157/18 70/153/18
f 74/162/3 73/159/3 71/155/3 72/158/3
f 19/47/2 20/50/2 70/154/2 69/151/2
f 73/160/19 19/48/19 69/152/19 71/156/19
f 70/153/20 72/157/20 78/169/20 76/165/20
f 72/158/3 71/155/3 77/167/3 78/170/3
f 69/151/2 70/154/2 76/166/2 75/163/2
f 71/156/21 69/152/21 75/164/21 77/168/21
f 1/3/6 2/6/6 4/12/6 3/9/6
f 10/25/22 113/241/22 79/172/4 12/30/4
f 9/22/23 112/238/23 113/241/22 10/25/22
f 11/27/24 114/243/24 112/239/23 9/23/23
f 15/38/1 116/248/1 114/243/24 11/27/24
f 86/187/2 82/179/2 80/174/2 81/176/2 83/181/2 84/183/2 85/185/2 87/189/2
f 93/198/11 86/188/11 87/190/11 95/200/11
f 95/201/10 87/191/10 85/186/10 94/199/10
f 86/188/14 93/198/14 90/195/14 82/180/14
f 82/180/15 90/195/15 88/192/15 80/175/15
f 94/199/12 85/186/12 84/184/12 92/197/12
f 92/197/13 84/184/13 83/182/13 91/196/13
f 80/175/17 88/192/17 89/193/17 81/177/17
f 81/178/16 89/194/16 91/196/16 83/182/16
f 104/220/3 106/225/3 109/231/3 111/235/3 110/233/3 108/229/3 107/227/3 105/222/3
f 102/215/2 98/207/2 96/202/2 97/204/2 99/209/2 100/211/2 101/213/2 103/217/2
f 109/232/11 102/216/11 103/218/11 111/236/11
f 111/237/10 103/219/10 101/214/10 110/234/10
f 102/216/14 109/232/14 106/226/14 98/208/14
f 98/208/15 106/226/15 104/221/15 96/203/15
f 110/234/12 101/214/12 100/212/12 108/230/12
f 108/230/13 100/212/13 99/210/13 107/228/13
f 96/203/17 104/221/17 105/223/17 97/205/17
f 97/206/16 105/224/16 107/228/16 99/210/16
f 112/240/2 114/244/2 116/249/2 118/254/2 117/252/2 115/246/2 79/173/2 113/242/2
f 119/255/3 120/258/3 121/260/3 122/263/3 124/268/3 131/285/3 123/265/3 132/287/3
f 123/266/1 129/281/1 126/274/24 132/288/24
f 132/288/24 126/274/24 17/42/23 119/256/23
f 119/257/23 17/43/23 125/272/22 120/259/22
f 120/259/22 125/272/22 127/276/4 121/261/4
f 128/279/7 122/264/7 121/262/4 127/277/4
f 18/45/6 124/269/6 122/264/7 128/279/7
f 130/284/5 131/286/5 124/270/6 18/46/6
f 129/282/1 123/267/1 131/286/5 130/284/5
o lever_etx_6
v -0.005400 -0.108000 -0.018000
v -0.005400 0.108000 -0.018000
v 0.005400 -0.108000 -0.018000
v 0.005400 0.108000 -0.018000
v -0.005400 -0.108000 -0.036000
v -0.005400 0.108000 -0.036000
v 0.005400 0.108000 -0.036000
v 0.005400 -0.108000 -0.036000
v -0.027000 -0.144000 -0.090000
v -0.045000 -0.126000 -0.090000
v -0.045000 0.126000 -0.090000
v -0.027000 0.144000 -0.090000
v 0.045000 -0.126000 -0.090000
v 0.027000 -0.144000 -0.090000
v 0.027000 0.144000 -0.090000
v 0.045000 0.126000 -0.090000
v -0.045000 -0.126000 -0.018000
v -0.027000 -0.144000 -0.018000
v -0.027000 0.144000 -0.018000
v -0.045000 0.126000 -0.018000
v 0.045000 0.126000 -0.018000
v 0.027000 0.144000 -0.018000
v 0.027000 -0.144000 -0.018000
v 0.045000 -0.126000 -0.018000
v -0.050400 -0.072000 -0.084600
v -0.050400 0.072000 -0.084600
v -0.045000 -0.072000 -0.090000
v -0.045000 0.072000 -0.090000
v -0.045000 -0.072000 -0.036000
v -0.045000 -0.063000 -0.027000
v -0.045000 0.063000 -0.027000
v -0.045000 0.072000 -0.036000
v -0.050400 -0.063000 -0.027000
v -0.050400 -0.072000 -0.036000
v -0.050400 0.072000 -0.036000
v -0.050400 0.063000 -0.027000
v -0.081000 -0.072000 -0.084600
v -0.090000 -0.063000 -0.084600
v -0.090000 0.063000 -0.084600
v -0.081000 0.072000 -0.084600
v -0.090000 -0.063000 -0.090000
v -0.081000 -0.072000 -0.090000
v -0.081000 0.072000 -0.090000
v -0.090000 0.063000 -0.090000
v -0.061608 0.060792 -0.079830
v -0.058050 0.052200 -0.079830
v -0.070200 0.064350 -0.079830
v -0.061608 0.043609 -0.079830
v -0.070200 0.040050 -0.079830
v -0.078791 0.043609 -0.079830
v -0.078791 0.060792 -0.079830
v -0.082350 0.052200 -0.079830
v -0.061608 0.060792 -0.084690
v -0.058050 0.052200 -0.084690
v -0.070200 0.064350 -0.084690
v -0.061608 0.043609 -0.084690
v -0.070200 0.040050 -0.084690
v -0.078791 0.060792 -0.084690
v -0.078791 0.043609 -0.084690
v -0.082350 0.052200 -0.084690
v -0.064472 0.057928 -0.073350
v -0.062100 0.052200 -0.073350
v -0.070200 0.060300 -0.073350
v -0.064472 0.046473 -0.073350
v -0.070200 0.044100 -0.073350
v -0.075927 0.046473 -0.073350
v -0.075927 0.057928 -0.073350
v -0.078300 0.052200 -0.073350
v -0.064472 0.057928 -0.079830
v -0.062100 0.052200 -0.079830
v -0.070200 0.060300 -0.079830
v -0.064472 0.046473 -0.079830
v -0.070200 0.044100 -0.079830
v -0.075927 0.057928 -0.079830
v -0.075927 0.046473 -0.079830
v -0.078300 0.052200 -0.079830
v 0.050400 -0.072000 -0.084600
v 0.050400 0.072000 -0.084600
v 0.045000 -0.072000 -0.090000
v 0.045000 0.072000 -0.090000
v 0.045000 -0.072000 -0.036000
v 0.045000 -0.063000 -0.027000
v 0.045000 0.063000 -0.027000
v 0.045000 0.072000 -0.036000
v 0.050400 -0.063000 -0.027000
v 0.050400 -0.072000 -0.036000
v 0.050400 0.072000 -0.036000
v 0.050400 0.063000 -0.027000
v 0.081000 -0.072000 -0.084600
v 0.090000 -0.063000 -0.084600
v 0.090000 0.063000 -0.084600
v 0.081000 0.072000 -0.084600
v 0.090000 -0.063000 -0.090000
v 0.081000 -0.072000 -0.090000
v 0.081000 0.072000 -0.090000
v 0.090000 0.063000 -0.090000
v 0.061609 0.060792 -0.079830
v 0.058050 0.052200 -0.079830
v 0.070200 0.064350 -0.079830
v 0.061609 0.043609 -0.079830
v 0.070200 0.040050 -0.079830
v 0.078791 0.043609 -0.079830
v 0.078791 0.060792 -0.079830
v 0.082350 0.052200 -0.079830
v 0.061609 0.060792 -0.084690
v 0.058050 0.052200 -0.084690
v 0.070200 0.064350 -0.084690
v 0.061609 0.043609 -0.084690
v 0.070200 0.040050 -0.084690
v 0.078791 0.060792 -0.084690
v 0.078791 0.043609 -0.084690
v 0.082350 0.052200 -0.084690
v 0.064472 0.057928 -0.073350
v 0.062100 0.052200 -0.073350
v 0.070200 0.060300 -0.073350
v 0.064472 0.046473 -0.073350
v 0.070200 0.044100 -0.073350
v 0.075927 0.046473 -0.073350
v 0.075927 0.057928 -0.073350
v 0.078300 0.052200 -0.073350
v 0.064472 0.057928 -0.079830
v 0.062100 0.052200 -0.079830
v 0.070200 0.060300 -0.079830
v 0.064472 0.046473 -0.079830
v 0.070200 0.044100 -0.079830
v 0.075927 0.057928 -0.079830
v 0.075927 0.046473 -0.079830
v 0.078300 0.052200 -0.079830
v -0.061608 -0.043608 -0.079830
v -0.058050 -0.052200 -0.079830
v -0.070200 -0.040050 -0.079830
v -0.061608 -0.060791 -0.079830
v -0.070200 -0.064350 -0.079830
v -0.078791 -0.060791 -0.079830
v -0.078791 -0.043609 -0.079830
v -0.082350 -0.052200 -0.079830
v -0.061608 -0.043608 -0.084690
v -0.058050 -0.052200 -0.084690
v -0.070200 -0.040050 -0.084690
v -0.061608 -0.060791 -0.084690
v -0.070200 -0.064350 -0.084690
v -0.078791 -0.043609 -0.084690
v -0.078791 -0.060791 -0.084690
v -0.082350 -0.052200 -0.084690
v -0.064472 -0.046472 -0.073350
v -0.062100 -0.052200 -0.073350
v -0.070200 -0.044100 -0.073350
v -0.064472 -0.057927 -0.073350
v -0.070200 -0.060300 -0.073350
v -0.075927 -0.057927 -0.073350
v -0.075927 -0.046472 -0.073350
v -0.078300 -0.052200 -0.073350
v -0.064472 -0.046472 -0.079830
v -0.062100 -0.052200 -0.079830
v -0.070200 -0.044100 -0.079830
v -0.064472 -0.057927 -0.079830
v -0.070200 -0.060300 -0.079830
v -0.075927 -0.046472 -0.079830
v -0.075927 -0.057927 -0.079830
v -0.078300 -0.052200 -0.079830
v 0.061609 -0.043608 -0.079830
v 0.058050 -0.052200 -0.079830
v 0.070200 -0.040050 -0.079830
v 0.061609 -0.060791 -0.079830
v 0.070200 -0.064350 -0.079830
v 0.078791 -0.060791 -0.079830
v 0.078791 -0.043609 -0.079830
v 0.082350 -0.052200 -0.079830
v 0.061609 -0.043608 -0.084690
v 0.058050 -0.052200 -0.084690
v 0.070200 -0.040050 -0.084690
v 0.061609 -0.060791 -0.084690
v 0.070200 -0.064350 -0.084690
v 0.078791 -0.043609 -0.084690
v 0.078791 -0.060791 -0.084690
v 0.082350 -0.052200 -0.084690
v 0.064472 -0.046472 -0.073350
v 0.062100 -0.052200 -0.073350
v 0.070200 -0.044100 -0.073350
v 0.064472 -0.057927 -0.073350
v 0.070200 -0.060300 -0.073350
v 0.075927 -0.057927 -0.073350
v 0.075927 -0.046472 -0.073350
v 0.078300 -0.052200 -0.073350
v 0.064472 -0.046472 -0.079830
v 0.062100 -0.052200 -0.079830
v 0.070200 -0.044100 -0.079830
v 0.064472 -0.057927 -0.079830
v 0.070200 -0.060300 -0.079830
v 0.075927 -0.046472 -0.079830
v 0.075927 -0.057927 -0.079830
v 0.078300 -0.052200 -0.079830
v 0.050400 -0.032400 -0.054000
v 0.050400 -0.027000 -0.054000
v 0.050400 -0.032400 -0.084600
v 0.050400 -0.027000 -0.084600
v 0.081000 -0.032400 -0.084600
v 0.081000 -0.027000 -0.084600
v 0.050400 0.027000 -0.054000
v 0.050400 0.032400 -0.054000
v 0.050400 0.027000 -0.084600
v 0.050400 0.032400 -0.084600
v 0.081000 0.027000 -0.084600
v 0.081000 0.032400 -0.084600
v -0.050400 -0.032400 -0.054000
v -0.050400 -0.027000 -0.054000
v -0.050400 -0.032400 -0.084600
v -0.050400 -0.027000 -0.084600
v -0.081000 -0.032400 -0.084600
v -0.081000 -0.027000 -0.084600
v -0.050400 0.027000 -0.054000
v -0.050400 0.032400 -0.054000
v -0.050400 0.027000 -0.084600
v -0.050400 0.032400 -0.084600
v -0.081000 0.027000 -0.084600
v -0.081000 0.032400 -0.084600
vn -0.0000 1.0000 -0.0000
vn -0.0000 -0.0000 1.0000
vn -1.0000 -0.0000 -0.0000
vn 1.0000 -0.0000 -0.0000
vn -0.0000 -1.0000 -0.0000
vn -0.7071 -0.7071 -0.0000
vn -0.7071 0.7071 -0.0000
vn 0.7071 -0.7071 -0.0000
vn 0.7071 0.7071 -0.0000
vn -0.0000 -0.7071 0.7071
vn -0.0000 0.7071 0.7071
vn -0.9239 0.3827 -0.0000
vn -0.9239 -0.3827 -0.0000
vn -0.3827 0.9239 -0.0000
vn 0.3827 0.9239 -0.0000
vn -0.3827 -0.9239 -0.0000
vn 0.3827 -0.9239 -0.0000
vn 0.9239 0.3827 -0.0000
vn 0.9239 -0.3827 -0.0000
vn -0.0000 -0.0000 -1.0000
vn 0.7071 -0.0000 0.7071
vn -0.7071 -0.0000 0.7071
vt 0.218686 0.013869
vt 0.279297 0.027344
vt 0.277344 0.083984
vt 0.218588 0.014154
vt 0.277344 0.000000
vt 0.283203 0.027344
vt 0.218597 0.097511
vt 0.269531 0.083984
vt 0.283203 0.027344
vt 0.222826 0.013911
vt 0.269531 0.000000
vt 0.279297 0.027344
vt 0.222780 0.097511
vt 0.275391 0.083984
vt 0.279297 0.035156
vt 0.269531 0.083984
vt 0.275391 0.000000
vt 0.269531 0.000000
vt 0.283203 0.035156
vt 0.277344 0.000000
vt 0.271484 0.000000
vt 0.279297 0.035156
vt 0.277344 0.083984
vt 0.271484 0.083984
vt 0.283203 0.035156
vt 0.285156 0.027344
vt 0.300781 0.027344
vt 0.240234 0.000000
vt 0.294922 0.027344
vt 0.240234 0.097656
vt 0.285156 0.027344
vt 0.300781 0.000000
vt 0.294922 0.027344
vt 0.240234 0.097656
vt 0.285156 0.027344
vt 0.294922 0.027344
vt 0.279297 0.027344
vt 0.279297 0.000000
vt 0.285156 0.027344
vt 0.240234 0.000000
vt 0.294922 0.027344
vt 0.267578 0.000000
vt 0.203278 0.007155
vt 0.294922 0.000000
vt 0.210259 0.000157
vt 0.285156 0.000000
vt 0.300781 0.000000
vt 0.300781 0.027344
vt 0.210224 0.111451
vt 0.294922 0.000000
vt 0.267578 0.097656
vt 0.203252 0.104473
vt 0.285156 0.000000
vt 0.267578 0.000000
vt 0.238111 0.104482
vt 0.294922 0.000000
vt 0.279297 0.027344
vt 0.231141 0.111454
vt 0.285156 0.000000
vt 0.231104 0.000000
vt 0.294922 0.000000
vt 0.279297 0.000000
vt 0.267578 0.097656
vt 0.238111 0.006933
vt 0.285156 0.000000
vt 0.129760 0.242226
vt 0.121094 0.242227
vt 0.121094 0.287098
vt 0.121094 0.287098
vt 0.129761 0.295560
vt 0.121094 0.295560
vt 0.119094 0.289098
vt 0.119094 0.289098
vt 0.119094 0.269098
vt 0.119094 0.289098
vt 0.119094 0.246098
vt 0.119094 0.285765
vt 0.119094 0.292765
vt 0.119094 0.272432
vt 0.119094 0.269098
vt 0.119094 0.275765
vt 0.108427 0.245560
vt 0.121094 0.246098
vt 0.121094 0.285765
vt 0.121094 0.269098
vt 0.111761 0.242226
vt 0.121094 0.289098
vt 0.121094 0.269098
vt 0.111761 0.295560
vt 0.121094 0.275765
vt 0.108427 0.292227
vt 0.121094 0.292765
vt 0.121094 0.272432
vt 0.132427 0.242227
vt 0.132427 0.287098
vt 0.119111 0.259096
vt 0.119110 0.245762
vt 0.135761 0.245560
vt 0.119110 0.262430
vt 0.119110 0.292429
vt 0.135761 0.292227
vt 0.119110 0.289096
vt 0.132427 0.287098
vt 0.132427 0.295560
vt 0.119110 0.292429
vt 0.121110 0.245762
vt 0.121110 0.262430
vt 0.132427 0.289098
vt 0.121111 0.259096
vt 0.132427 0.289098
vt 0.121110 0.292429
vt 0.121110 0.292429
vt 0.121110 0.289096
vt 0.048009 0.324219
vt 0.043252 0.324219
vt 0.046533 0.320655
vt 0.043252 0.320655
vt 0.043252 0.327783
vt 0.046533 0.327783
vt 0.043252 0.327783
vt 0.042969 0.319179
vt 0.043252 0.324219
vt 0.039405 0.320655
vt 0.043252 0.320655
vt 0.037929 0.324219
vt 0.043252 0.324219
vt 0.042969 0.329259
vt 0.043252 0.324219
vt 0.039405 0.327783
vt 0.043252 0.320655
vt 0.043252 0.327783
vt 0.045268 0.324219
vt 0.045268 0.320655
vt 0.045268 0.327783
vt 0.045268 0.327783
vt 0.045268 0.324219
vt 0.045268 0.320655
vt 0.045268 0.324219
vt 0.045268 0.324219
vt 0.045268 0.320655
vt 0.045268 0.327783
vt 0.046329 0.324219
vt 0.040564 0.324219
vt 0.045345 0.321843
vt 0.040564 0.321843
vt 0.040564 0.326595
vt 0.045345 0.326595
vt 0.040564 0.326595
vt 0.042969 0.320859
vt 0.040564 0.324219
vt 0.040564 0.321843
vt 0.039609 0.324219
vt 0.040564 0.324219
vt 0.042969 0.327579
vt 0.040564 0.324219
vt 0.040564 0.321843
vt 0.040564 0.326595
vt 0.046329 0.324219
vt 0.043252 0.324219
vt 0.045345 0.321843
vt 0.043252 0.321843
vt 0.043252 0.326595
vt 0.045345 0.326595
vt 0.043252 0.326595
vt 0.042969 0.320859
vt 0.043252 0.324219
vt 0.040593 0.321843
vt 0.043252 0.321843
vt 0.042969 0.327579
vt 0.043252 0.324219
vt 0.039609 0.324219
vt 0.043252 0.324219
vt 0.040593 0.326595
vt 0.043252 0.321843
vt 0.043252 0.326595
vt 0.129761 0.242227
vt 0.121094 0.242227
vt 0.121094 0.287098
vt 0.121094 0.287098
vt 0.129761 0.295560
vt 0.121094 0.295560
vt 0.119094 0.289098
vt 0.119094 0.289098
vt 0.119094 0.269098
vt 0.119094 0.289098
vt 0.119094 0.246098
vt 0.119094 0.285765
vt 0.119094 0.292765
vt 0.119094 0.272432
vt 0.119094 0.269098
vt 0.119094 0.275765
vt 0.108427 0.245560
vt 0.121094 0.246098
vt 0.121094 0.285765
vt 0.121094 0.269098
vt 0.111760 0.242227
vt 0.121094 0.289098
vt 0.121094 0.269098
vt 0.111761 0.295560
vt 0.121094 0.275765
vt 0.108427 0.292227
vt 0.121094 0.292765
vt 0.121094 0.272432
vt 0.132427 0.242227
vt 0.132427 0.287098
vt 0.119110 0.259096
vt 0.119110 0.245762
vt 0.135761 0.245560
vt 0.119110 0.262429
vt 0.119110 0.292429
vt 0.135761 0.292227
vt 0.119110 0.289096
vt 0.132427 0.287098
vt 0.132427 0.295560
vt 0.119110 0.292429
vt 0.121110 0.245762
vt 0.121110 0.262429
vt 0.132427 0.289098
vt 0.121110 0.259096
vt 0.132427 0.289098
vt 0.121110 0.292429
vt 0.121110 0.292429
vt 0.121110 0.289096
vt 0.048009 0.324219
vt 0.043252 0.324219
vt 0.046533 0.320655
vt 0.043252 0.320655
vt 0.043252 0.327783
vt 0.046533 0.327783
vt 0.043252 0.327783
vt 0.042969 0.319179
vt 0.043252 0.324219
vt 0.039405 0.320655
vt 0.043252 0.320655
vt 0.037929 0.324219
vt 0.043252 0.324219
vt 0.042969 0.329259
vt 0.043252 0.324219
vt 0.039405 0.327783
vt 0.043252 0.320655
vt 0.043252 0.327783
vt 0.045268 0.324219
vt 0.045268 0.320655
vt 0.045268 0.327783
vt 0.045268 0.327783
vt 0.045268 0.324219
vt 0.045268 0.320655
vt 0.045268 0.324219
vt 0.045268 0.324219
vt 0.045268 0.320655
vt 0.045268 0.327783
vt 0.046329 0.324219
vt 0.040564 0.324219
vt 0.045345 0.321843
vt 0.040564 0.321843
vt 0.040564 0.326595
vt 0.045345 0.326595
vt 0.040564 0.326595
vt 0.042969 0.320859
vt 0.040564 0.324219
vt 0.040564 0.321843
vt 0.039609 0.324219
vt 0.040564 0.324219
vt 0.042969 0.327579
vt 0.040564 0.324219
vt 0.040564 0.321843
vt 0.040564 0.326595
vt 0.046329 0.324219
vt 0.043252 0.324219
vt 0.045345 0.321843
vt 0.043252 0.321843
vt 0.043252 0.326595
vt 0.045345 0.326595
vt 0.043252 0.326595
vt 0.042969 0.320859
vt 0.043252 0.324219
vt 0.040593 0.321843
vt 0.043252 0.321843
vt 0.042969 0.327579
vt 0.043252 0.324219
vt 0.039609 0.324219
vt 0.043252 0.324219
vt 0.040593 0.326595
vt 0.043252 0.321843
vt 0.043252 0.326595
vt 0.048009 0.324219
vt 0.043252 0.324219
vt 0.046533 0.320655
vt 0.043252 0.320655
vt 0.043252 0.327783
vt 0.046533 0.327783
vt 0.043252 0.327783
vt 0.042969 0.319179
vt 0.043252 0.324219
vt 0.039405 0.320655
vt 0.043252 0.320655
vt 0.037929 0.324219
vt 0.043252 0.324219
vt 0.042969 0.329259
vt 0.043252 0.324219
vt 0.039405 0.327783
vt 0.043252 0.320655
vt 0.043252 0.327783
vt 0.045268 0.324219
vt 0.045268 0.320655
vt 0.045268 0.327783
vt 0.045268 0.327783
vt 0.045268 0.324219
vt 0.045268 0.320655
vt 0.045268 0.324219
vt 0.045268 0.324219
vt 0.045268 0.320655
vt 0.045268 0.327783
vt 0.046329 0.324219
vt 0.040564 0.324219
vt 0.045345 0.321843
vt 0.040564 0.321843
vt 0.040564 0.326595
vt 0.045345 0.326595
vt 0.040564 0.326595
vt 0.042969 0.320859
vt 0.040564 0.324219
vt 0.040564 0.321843
vt 0.039609 0.324219
vt 0.040564 0.324219
vt 0.042969 0.327579
vt 0.040564 0.324219
vt 0.040564 0.321843
vt 0.040564 0.326595
vt 0.046329 0.324219
vt 0.043252 0.324219
vt 0.045345 0.321843
vt 0.043252 0.321843
vt 0.043252 0.326595
vt 0.045345 0.326595
vt 0.043252 0.326595
vt 0.042969 0.320859
vt 0.043252 0.324219
vt 0.040593 0.321843
vt 0.043252 0.321843
vt 0.042969 0.327579
vt 0.043252 0.324219
vt 0.039609 0.324219
vt 0.043252 0.324219
vt 0.040593 0.326595
vt 0.043252 0.321843
vt 0.043252 0.326595
vt 0.048009 0.324219
vt 0.043252 0.324219
vt 0.046533 0.320655
vt 0.043252 0.320655
vt 0.043252 0.327783
vt 0.046533 0.327783
vt 0.043252 0.327783
vt 0.042969 0.319179
vt 0.043252 0.324219
vt 0.039405 0.320655
vt 0.043252 0.320655
vt 0.037929 0.324219
vt 0.043252 0.324219
vt 0.042969 0.329259
vt 0.043252 0.324219
vt 0.039405 0.327783
vt 0.043252 0.320655
vt 0.043252 0.327783
vt 0.045268 0.324219
vt 0.045268 0.320655
vt 0.045268 0.327783
vt 0.045268 0.327783
vt 0.045268 0.324219
vt 0.045268 0.320655
vt 0.045268 0.324219
vt 0.045268 0.324219
vt 0.045268 0.320655
vt 0.045268 0.327783
vt 0.046329 0.324219
vt 0.040564 0.324219
vt 0.045345 0.321843
vt 0.040564 0.321843
vt 0.040564 0.326595
vt 0.045345 0.326595
vt 0.040564 0.326595
vt 0.042969 0.320859
vt 0.040564 0.324219
vt 0.040564 0.321843
vt 0.039609 0.324219
vt 0.040564 0.324219
vt 0.042969 0.327579
vt 0.040564 0.324219
vt 0.040564 0.321843
vt 0.040564 0.326595
vt 0.046329 0.324219
vt 0.043252 0.324219
vt 0.045345 0.321843
vt 0.043252 0.321843
vt 0.043252 0.326595
vt 0.045345 0.326595
vt 0.043252 0.326595
vt 0.042969 0.320859
vt 0.043252 0.324219
vt 0.040593 0.321843
vt 0.043252 0.321843
vt 0.042969 0.327579
vt 0.043252 0.324219
vt 0.039609 0.324219
vt 0.043252 0.324219
vt 0.040593 0.326595
vt 0.043252 0.321843
vt 0.043252 0.326595
vt 0.115234 0.289062
vt 0.109375 0.289062
vt 0.115234 0.273438
vt 0.111328 0.289062
vt 0.107422 0.281250
vt 0.107422 0.281250
vt 0.115234 0.273438
vt 0.109375 0.273438
vt 0.115234 0.289062
vt 0.111328 0.273438
vt 0.115234 0.289062
vt 0.109375 0.289062
vt 0.115234 0.273438
vt 0.111328 0.289062
vt 0.107422 0.281250
vt 0.107422 0.281250
vt 0.115234 0.273438
vt 0.109375 0.273438
vt 0.115234 0.289062
vt 0.111328 0.273438
vt 0.115234 0.289062
vt 0.109375 0.289062
vt 0.115234 0.273438
vt 0.111328 0.289062
vt 0.107422 0.281250
vt 0.107422 0.281250
vt 0.115234 0.273438
vt 0.109375 0.273438
vt 0.115234 0.289062
vt 0.111328 0.273438
vt 0.115234 0.289062
vt 0.109375 0.289062
vt 0.115234 0.273438
vt 0.111328 0.289062
vt 0.107422 0.281250
vt 0.107422 0.281250
vt 0.115234 0.273438
vt 0.109375 0.273438
vt 0.115234 0.289062
vt 0.111328 0.273438
s 0
usemtl electronics_etx_part_1
f 147/326/25 144/320/25 151/336/25 154/345/25
f 133/289/26 134/295/26 152/340/26 149/331/26
f 135/296/27 136/299/27 139/308/27 140/311/27
f 149/330/27 152/339/27 143/318/27 142/316/27
f 145/322/28 148/328/28 153/342/28 156/351/28
f 134/295/26 136/301/26 154/346/26 151/337/26
f 136/301/26 135/298/26 156/352/26 153/343/26
f 140/312/26 139/309/26 138/305/26 137/302/26
f 133/290/25 135/297/25 140/313/25 137/303/25
f 134/293/28 133/291/28 137/304/28 138/306/28
f 136/300/29 134/294/29 138/307/29 139/310/29
f 135/298/26 133/292/26 150/333/26 155/348/26
f 149/331/26 150/333/26 133/292/26
f 151/337/26 152/340/26 134/295/26
f 153/343/26 154/346/26 136/301/26
f 155/348/26 156/352/26 135/298/26
f 141/314/30 150/334/30 149/332/30 142/317/30
f 151/338/31 144/321/31 143/319/31 152/341/31
f 155/349/32 146/324/32 145/323/32 156/353/32
f 147/327/33 154/347/33 153/344/33 148/329/33
f 141/315/29 146/325/29 155/350/29 150/335/29
f 158/357/25 167/376/25 164/368/25 160/361/25
f 158/357/25 160/361/25 175/398/25 172/391/25
f 171/388/27 176/400/27 173/394/27 170/385/27
f 161/362/29 166/373/29 157/356/29 159/360/29
f 157/354/27 166/374/27 165/370/27 168/379/27 167/377/27 158/358/27
f 158/359/26 172/392/26 171/389/26 170/386/26 169/382/26 157/355/26
f 159/360/29 157/356/29 169/383/29 174/396/29
f 165/371/26 162/364/26 163/366/26 168/380/26
f 161/363/34 162/365/34 165/372/34 166/375/34
f 167/378/35 168/381/35 163/367/35 164/369/35
f 169/384/30 170/387/30 173/395/30 174/397/30
f 175/399/31 176/401/31 171/390/31 172/393/31
f 183/415/26 184/417/26 182/413/26 181/411/26 180/409/26 178/404/26 177/402/26 179/407/26
f 190/426/36 192/428/36 184/418/36 183/416/36
f 192/429/37 191/427/37 182/414/37 184/419/37
f 183/416/38 179/408/38 187/423/38 190/426/38
f 179/408/39 177/403/39 185/420/39 187/423/39
f 191/427/40 189/425/40 181/412/40 182/414/40
f 189/425/41 188/424/41 180/410/41 181/412/41
f 177/403/42 178/405/42 186/421/42 185/420/42
f 178/406/43 180/410/43 188/424/43 186/422/43
f 201/446/44 202/448/44 204/453/44 205/455/44 207/459/44 208/461/44 206/457/44 203/451/44
f 199/442/26 200/445/26 198/440/26 197/439/26 196/437/26 194/432/26 193/430/26 195/435/26
f 206/458/36 208/462/36 200/444/36 199/443/36
f 208/463/37 207/460/37 198/441/37 200/445/37
f 199/443/38 195/436/38 203/452/38 206/458/38
f 195/436/39 193/431/39 201/447/39 203/452/39
f 207/460/40 205/456/40 197/439/40 198/441/40
f 205/456/41 204/454/41 196/438/41 197/439/41
f 193/431/42 194/433/42 202/449/42 201/447/42
f 194/434/43 196/438/43 204/454/43 202/450/43
f 210/467/25 212/471/25 216/478/25 219/486/25
f 210/467/25 224/501/25 227/508/25 212/471/25
f 223/498/28 222/495/28 225/504/28 228/510/28
f 213/472/29 211/470/29 209/466/29 218/483/29
f 209/464/28 210/468/28 219/487/28 220/489/28 217/480/28 218/484/28
f 210/469/26 209/465/26 221/492/26 222/496/26 223/499/26 224/502/26
f 211/470/29 226/506/29 221/493/29 209/466/29
f 217/481/26 220/490/26 215/476/26 214/474/26
f 213/473/34 218/485/34 217/482/34 214/475/34
f 219/488/35 216/479/35 215/477/35 220/491/35
f 221/494/32 226/507/32 225/505/32 222/497/32
f 227/509/33 224/503/33 223/500/33 228/511/33
f 235/525/26 231/517/26 229/512/26 230/514/26 232/519/26 233/521/26 234/523/26 236/527/26
f 242/536/42 235/526/42 236/528/42 244/538/42
f 244/539/43 236/529/43 234/524/43 243/537/43
f 235/526/39 242/536/39 239/533/39 231/518/39
f 231/518/38 239/533/38 237/530/38 229/513/38
f 243/537/41 234/524/41 233/522/41 241/535/41
f 241/535/40 233/522/40 232/520/40 240/534/40
f 229/513/36 237/530/36 238/531/36 230/515/36
f 230/516/37 238/532/37 240/534/37 232/520/37
f 253/556/44 255/561/44 258/567/44 260/571/44 259/569/44 257/565/44 256/563/44 254/558/44
f 251/552/26 247/545/26 245/540/26 246/542/26 248/547/26 249/549/26 250/550/26 252/555/26
f 258/568/42 251/553/42 252/554/42 260/572/42
f 260/573/43 252/555/43 250/551/43 259/570/43
f 251/553/39 258/568/39 255/562/39 247/546/39
f 247/546/38 255/562/38 253/557/38 245/541/38
f 259/570/41 250/551/41 249/549/41 257/566/41
f 257/566/40 249/549/40 248/548/40 256/564/40
f 245/541/36 253/557/36 254/559/36 246/543/36
f 246/544/37 254/560/37 256/564/37 248/548/37
f 267/587/26 268/589/26 266/585/26 265/583/26 264/581/26 262/576/26 261/574/26 263/579/26
f 274/598/36 276/600/36 268/590/36 267/588/36
f 276/601/37 275/599/37 266/586/37 268/591/37
f 267/588/38 263/580/38 271/595/38 274/598/38
f 263/580/39 261/575/39 269/592/39 271/595/39
f 275/599/40 273/597/40 265/584/40 266/586/40
f 273/597/41 272/596/41 264/582/41 265/584/41
f 261/575/42 262/577/42 270/593/42 269/592/42
f 262/578/43 264/582/43 272/596/43 270/594/43
f 285/618/44 286/620/44 288/625/44 289/627/44 291/631/44 292/633/44 290/629/44 287/623/44
f 283/614/26 284/617/26 282/612/26 281/611/26 280/609/26 278/604/26 277/602/26 279/607/26
f 290/630/36 292/634/36 284/616/36 283/615/36
f 292/635/37 291/632/37 282/613/37 284/617/37
f 283/615/38 279/608/38 287/624/38 290/630/38
f 279/608/39 277/603/39 285/619/39 287/624/39
f 291/632/40 289/628/40 281/611/40 282/613/40
f 289/628/41 288/626/41 280/610/41 281/611/41
f 277/603/42 278/605/42 286/621/42 285/619/42
f 278/606/43 280/610/43 288/626/43 286/622/43
f 299/649/26 295/641/26 293/636/26 294/638/26 296/643/26 297/645/26 298/647/26 300/651/26
f 306/660/42 299/650/42 300/652/42 308/662/42
f 308/663/43 300/653/43 298/648/43 307/661/43
f 299/650/39 306/660/39 303/657/39 295/642/39
f 295/642/38 303/657/38 301/654/38 293/637/38
f 307/661/41 298/648/41 297/646/41 305/659/41
f 305/659/40 297/646/40 296/644/40 304/658/40
f 293/637/36 301/654/36 302/655/36 294/639/36
f 294/640/37 302/656/37 304/658/37 296/644/37
f 317/680/44 319/685/44 322/691/44 324/695/44 323/693/44 321/689/44 320/687/44 318/682/44
f 315/676/26 311/669/26 309/664/26 310/666/26 312/671/26 313/673/26 314/674/26 316/679/26
f 322/692/42 315/677/42 316/678/42 324/696/42
f 324/697/43 316/679/43 314/675/43 323/694/43
f 315/677/39 322/692/39 319/686/39 311/670/39
f 311/670/38 319/686/38 317/681/38 309/665/38
f 323/694/41 314/675/41 313/673/41 321/690/41
f 321/690/40 313/673/40 312/672/40 320/688/40
f 309/665/36 317/681/36 318/683/36 310/667/36
f 310/668/37 318/684/37 320/688/37 312/672/37
f 327/702/29 329/704/29 325/698/29
f 330/706/25 328/703/25 326/700/25
f 330/707/45 326/701/45 325/699/45 329/705/45
f 333/712/29 335/714/29 331/708/29
f 336/716/25 334/713/25 332/710/25
f 336/717/45 332/711/45 331/709/45 335/715/45
f 339/722/29 337/718/29 341/724/29
f 342/726/25 338/720/25 340/723/25
f 342/727/46 341/725/46 337/719/46 338/721/46
f 345/732/29 343/728/29 347/734/29
f 348/736/25 344/730/25 346/733/25
f 348/737/46 347/735/46 343/729/46 344/731/46
