# Blender 3.4.0
# www.blender.org
mtllib lever_etx_8.mtl
o lever_etx_8
v -0.005400 -0.108000 -0.018000
v -0.005400 0.108000 -0.018000
v 0.005400 -0.108000 -0.018000
v 0.005400 0.108000 -0.018000
v -0.005400 -0.108000 -0.036000
v -0.005400 0.108000 -0.036000
v 0.005400 0.108000 -0.036000
v 0.005400 -0.108000 -0.036000
v -0.027000 -0.144000 -0.090000
v -0.045000 -0.126000 -0.090000
v -0.045000 0.126000 -0.090000
v -0.027000 0.144000 -0.090000
v 0.045000 -0.126000 -0.090000
v 0.027000 -0.144000 -0.090000
v 0.027000 0.144000 -0.090000
v 0.045000 0.126000 -0.090000
v -0.045000 -0.126000 -0.018000
v -0.027000 -0.144000 -0.018000
v -0.027000 0.144000 -0.018000
v -0.045000 0.126000 -0.018000
v 0.045000 0.126000 -0.018000
v 0.027000 0.144000 -0.018000
v 0.027000 -0.144000 -0.018000
v 0.045000 -0.126000 -0.018000
v -0.050400 -0.072000 -0.084600
v -0.050400 0.072000 -0.084600
v -0.045000 -0.072000 -0.090000
v -0.045000 0.072000 -0.090000
v -0.045000 -0.072000 -0.036000
v -0.045000 -0.063000 -0.027000
v -0.045000 0.063000 -0.027000
v -0.045000 0.072000 -0.036000
v -0.050400 -0.063000 -0.027000
v -0.050400 -0.072000 -0.036000
v -0.050400 0.072000 -0.036000
v -0.050400 0.063000 -0.027000
v -0.081000 -0.072000 -0.084600
v -0.090000 -0.063000 -0.084600
v -0.090000 0.063000 -0.084600
v -0.081000 0.072000 -0.084600
v -0.090000 -0.063000 -0.090000
v -0.081000 -0.072000 -0.090000
v -0.081000 0.072000 -0.090000
v -0.090000 0.063000 -0.090000
v -0.061608 0.060792 -0.079830
v -0.058050 0.052200 -0.079830
v -0.070200 0.064350 -0.079830
v -0.061608 0.043609 -0.079830
v -0.070200 0.040050 -0.079830
v -0.078791 0.043609 -0.079830
v -0.078791 0.060792 -0.079830
v -0.082350 0.052200 -0.079830
v -0.061608 0.060792 -0.084690
v -0.058050 0.052200 -0.084690
v -0.070200 0.064350 -0.084690
v -0.061608 0.043609 -0.084690
v -0.070200 0.040050 -0.084690
v -0.078791 0.060792 -0.084690
v -0.078791 0.043609 -0.084690
v -0.082350 0.052200 -0.084690
v -0.064472 0.057928 -0.073350
v -0.062100 0.052200 -0.073350
v -0.070200 0.060300 -0.073350
v -0.064472 0.046473 -0.073350
v -0.070200 0.044100 -0.073350
v -0.075927 0.046473 -0.073350
v -0.075927 0.057928 -0.073350
v -0.078300 0.052200 -0.073350
v -0.064472 0.057928 -0.079830
v -0.062100 0.052200 -0.079830
v -0.070200 0.060300 -0.079830
v -0.064472 0.046473 -0.079830
v -0.070200 0.044100 -0.079830
v -0.075927 0.057928 -0.079830
v -0.075927 0.046473 -0.079830
v -0.078300 0.052200 -0.079830
v 0.050400 -0.072000 -0.084600
v 0.050400 0.072000 -0.084600
v 0.045000 -0.072000 -0.090000
v 0.045000 0.072000 -0.090000
v 0.045000 -0.072000 -0.036000
v 0.045000 -0.063000 -0.027000
v 0.045000 0.063000 -0.027000
v 0.045000 0.072000 -0.036000
v 0.050400 -0.063000 -0.027000
v 0.050400 -0.072000 -0.036000
v 0.050400 0.072000 -0.036000
v 0.050400 0.063000 -0.027000
v 0.081000 -0.072000 -0.084600
v 0.090000 -0.063000 -0.084600
v 0.090000 0.063000 -0.084600
v 0.081000 0.072000 -0.084600
v 0.090000 -0.063000 -0.090000
v 0.081000 -0.072000 -0.090000
v 0.081000 0.072000 -0.090000
v 0.090000 0.063000 -0.090000
v 0.061609 0.060792 -0.079830
v 0.058050 0.052200 -0.079830
v 0.070200 0.064350 -0.079830
v 0.061609 0.043609 -0.079830
v 0.070200 0.040050 -0.079830
v 0.078791 0.043609 -0.079830
v 0.078791 0.060792 -0.079830
v 0.082350 0.052200 -0.079830
v 0.061609 0.060792 -0.084690
v 0.058050 0.052200 -0.084690
v 0.070200 0.064350 -0.084690
v 0.061609 0.043609 -0.084690
v 0.070200 0.040050 -0.084690
v 0.078791 0.060792 -0.084690
v 0.078791 0.043609 -0.084690
v 0.082350 0.052200 -0.084690
v 0.064472 0.057928 -0.073350
v 0.062100 0.052200 -0.073350
v 0.070200 0.060300 -0.073350
v 0.064472 0.046473 -0.073350
v 0.070200 0.044100 -0.073350
v 0.075927 0.046473 -0.073350
v 0.075927 0.057928 -0.073350
v 0.078300 0.052200 -0.073350
v 0.064472 0.057928 -0.079830
v 0.062100 0.052200 -0.079830
v 0.070200 0.060300 -0.079830
v 0.064472 0.046473 -0.079830
v 0.070200 0.044100 -0.079830
v 0.075927 0.057928 -0.079830
v 0.075927 0.046473 -0.079830
v 0.078300 0.052200 -0.079830
v -0.061608 -0.043608 -0.079830
v -0.058050 -0.052200 -0.079830
v -0.070200 -0.040050 -0.079830
v -0.061608 -0.060791 -0.079830
v -0.070200 -0.064350 -0.079830
v -0.078791 -0.060791 -0.079830
v -0.078791 -0.043609 -0.079830
v -0.082350 -0.052200 -0.079830
v -0.061608 -0.043608 -0.084690
v -0.058050 -0.052200 -0.084690
v -0.070200 -0.040050 -0.084690
v -0.061608 -0.060791 -0.084690
v -0.070200 -0.064350 -0.084690
v -0.078791 -0.043609 -0.084690
v -0.078791 -0.060791 -0.084690
v -0.082350 -0.052200 -0.084690
v -0.064472 -0.046472 -0.073350
v -0.062100 -0.052200 -0.073350
v -0.070200 -0.044100 -0.073350
v -0.064472 -0.057927 -0.073350
v -0.070200 -0.060300 -0.073350
v -0.075927 -0.057927 -0.073350
v -0.075927 -0.046472 -0.073350
v -0.078300 -0.052200 -0.073350
v -0.064472 -0.046472 -0.079830
v -0.062100 -0.052200 -0.079830
v -0.070200 -0.044100 -0.079830
v -0.064472 -0.057927 -0.079830
v -0.070200 -0.060300 -0.079830
v -0.075927 -0.046472 -0.079830
v -0.075927 -0.057927 -0.079830
v -0.078300 -0.052200 -0.079830
v 0.061609 -0.043608 -0.079830
v 0.058050 -0.052200 -0.079830
v 0.070200 -0.040050 -0.079830
v 0.061609 -0.060791 -0.079830
v 0.070200 -0.064350 -0.079830
v 0.078791 -0.060791 -0.079830
v 0.078791 -0.043609 -0.079830
v 0.082350 -0.052200 -0.079830
v 0.061609 -0.043608 -0.084690
v 0.058050 -0.052200 -0.084690
v 0.070200 -0.040050 -0.084690
v 0.061609 -0.060791 -0.084690
v 0.070200 -0.064350 -0.084690
v 0.078791 -0.043609 -0.084690
v 0.078791 -0.060791 -0.084690
v 0.082350 -0.052200 -0.084690
v 0.064472 -0.046472 -0.073350
v 0.062100 -0.052200 -0.073350
v 0.070200 -0.044100 -0.073350
v 0.064472 -0.057927 -0.073350
v 0.070200 -0.060300 -0.073350
v 0.075927 -0.057927 -0.073350
v 0.075927 -0.046472 -0.073350
v 0.078300 -0.052200 -0.073350
v 0.064472 -0.046472 -0.079830
v 0.062100 -0.052200 -0.079830
v 0.070200 -0.044100 -0.079830
v 0.064472 -0.057927 -0.079830
v 0.070200 -0.060300 -0.079830
v 0.075927 -0.046472 -0.079830
v 0.075927 -0.057927 -0.079830
v 0.078300 -0.052200 -0.079830
v 0.050400 -0.032400 -0.054000
v 0.050400 -0.027000 -0.054000
v 0.050400 -0.032400 -0.084600
v 0.050400 -0.027000 -0.084600
v 0.081000 -0.032400 -0.084600
v 0.081000 -0.027000 -0.084600
v 0.050400 0.027000 -0.054000
v 0.050400 0.032400 -0.054000
v 0.050400 0.027000 -0.084600
v 0.050400 0.032400 -0.084600
v 0.081000 0.027000 -0.084600
v 0.081000 0.032400 -0.084600
v -0.050400 -0.032400 -0.054000
v -0.050400 -0.027000 -0.054000
v -0.050400 -0.032400 -0.084600
v -0.050400 -0.027000 -0.084600
v -0.081000 -0.032400 -0.084600
v -0.081000 -0.027000 -0.084600
v -0.050400 0.027000 -0.054000
v -0.050400 0.032400 -0.054000
v -0.050400 0.027000 -0.084600
v -0.050400 0.032400 -0.084600
v -0.081000 0.027000 -0.084600
v -0.081000 0.032400 -0.084600
v -0.058500 0.014319 -0.068319
v -0.058500 0.000000 -0.074250
v -0.058500 0.020250 -0.054000
v -0.058500 -0.014319 -0.068319
v -0.058500 -0.020250 -0.054000
v -0.058500 -0.014319 -0.039681
v -0.058500 0.014319 -0.039681
v -0.058500 0.000000 -0.033750
v -0.050400 0.014319 -0.068319
v -0.050400 0.000000 -0.074250
v -0.050400 0.020250 -0.054000
v -0.050400 -0.014319 -0.068319
v -0.050400 -0.020250 -0.054000
v -0.050400 0.014319 -0.039681
v -0.050400 -0.014319 -0.039681
v -0.050400 0.000000 -0.033750
v -0.069300 0.009546 -0.063546
v -0.069300 0.000000 -0.067500
v -0.069300 0.013500 -0.054000
v -0.069300 -0.009546 -0.063546
v -0.069300 -0.013500 -0.054000
v -0.069300 -0.009546 -0.044454
v -0.069300 0.009546 -0.044454
v -0.069300 0.000000 -0.040500
v -0.058500 0.009546 -0.063546
v -0.058500 0.000000 -0.067500
v -0.058500 0.013500 -0.054000
v -0.058500 -0.009546 -0.063546
v -0.058500 -0.013500 -0.054000
v -0.058500 0.009546 -0.044454
v -0.058500 -0.009546 -0.044454
v -0.058500 0.000000 -0.040500
v 0.058500 -0.014319 -0.068319
v 0.058500 0.000000 -0.074250
v 0.058500 -0.020250 -0.054000
v 0.058500 0.014319 -0.068319
v 0.058500 0.020250 -0.054000
v 0.058500 0.014319 -0.039681
v 0.058500 -0.014319 -0.039681
v 0.058500 0.000000 -0.033750
v 0.050400 -0.014319 -0.068319
v 0.050400 0.000000 -0.074250
v 0.050400 -0.020250 -0.054000
v 0.050400 0.014319 -0.068319
v 0.050400 0.020250 -0.054000
v 0.050400 -0.014319 -0.039681
v 0.050400 0.014319 -0.039681
v 0.050400 0.000000 -0.033750
v 0.069300 -0.009546 -0.063546
v 0.069300 0.000000 -0.067500
v 0.069300 -0.013500 -0.054000
v 0.069300 0.009546 -0.063546
v 0.069300 0.013500 -0.054000
v 0.069300 0.009546 -0.044454
v 0.069300 -0.009546 -0.044454
v 0.069300 0.000000 -0.040500
v 0.058500 -0.009546 -0.063546
v 0.058500 0.000000 -0.067500
v 0.058500 -0.013500 -0.054000
v 0.058500 0.009546 -0.063546
v 0.058500 0.013500 -0.054000
v 0.058500 -0.009546 -0.044454
v 0.058500 0.009546 -0.044454
v 0.058500 0.000000 -0.040500
vn -0.0000 1.0000 -0.0000
vn -0.0000 -0.0000 1.0000
vn -1.0000 -0.0000 -0.0000
vn 1.0000 -0.0000 -0.0000
vn -0.0000 -1.0000 -0.0000
vn -0.7071 -0.7071 -0.0000
vn -0.7071 0.7071 -0.0000
vn 0.7071 -0.7071 -0.0000
vn 0.7071 0.7071 -0.0000
vn -0.0000 -0.7071 0.7071
vn -0.0000 0.7071 0.7071
vn -0.9239 0.3827 -0.0000
vn -0.9239 -0.3827 -0.0000
vn -0.3827 0.9239 -0.0000
vn 0.3827 0.9239 -0.0000
vn -0.3827 -0.9239 -0.0000
vn 0.3827 -0.9239 -0.0000
vn 0.9239 0.3827 -0.0000
vn 0.9239 -0.3827 -0.0000
vn -0.0000 -0.0000 -1.0000
vn 0.7071 -0.0000 0.7071
vn -0.7071 -0.0000 0.7071
vn -0.0000 0.3827 0.9239
vn -0.0000 -0.3827 0.9239
vn -0.0000 0.9239 0.3827
vn -0.0000 0.9239 -0.3827
vn -0.0000 -0.9239 0.3827
vn -0.0000 -0.9239 -0.3827
vn -0.0000 0.3827 -0.9239
vn -0.0000 -0.3827 -0.9239
vt 0.218686 0.013869
vt 0.279297 0.027344
vt 0.277344 0.083984
vt 0.218588 0.014154
vt 0.277344 0.000000
vt 0.283203 0.027344
vt 0.218597 0.097511
vt 0.269531 0.083984
vt 0.283203 0.027344
vt 0.222826 0.013911
vt 0.269531 0.000000
vt 0.279297 0.027344
vt 0.222780 0.097511
vt 0.275391 0.083984
vt 0.279297 0.035156
vt 0.269531 0.083984
vt 0.275391 0.000000
vt 0.269531 0.000000
vt 0.283203 0.035156
vt 0.277344 0.000000
vt 0.271484 0.000000
vt 0.279297 0.035156
vt 0.277344 0.083984
vt 0.271484 0.083984
vt 0.283203 0.035156
vt 0.285156 0.027344
vt 0.300781 0.027344
vt 0.240234 0.000000
vt 0.294922 0.027344
vt 0.240234 0.097656
vt 0.285156 0.027344
vt 0.300781 0.000000
vt 0.294922 0.027344
vt 0.240234 0.097656
vt 0.285156 0.027344
vt 0.294922 0.027344
vt 0.279297 0.027344
vt 0.279297 0.000000
vt 0.285156 0.027344
vt 0.240234 0.000000
vt 0.294922 0.027344
vt 0.267578 0.000000
vt 0.203278 0.007155
vt 0.294922 0.000000
vt 0.210259 0.000157
vt 0.285156 0.000000
vt 0.300781 0.000000
vt 0.300781 0.027344
vt 0.210224 0.111451
vt 0.294922 0.000000
vt 0.267578 0.097656
vt 0.203252 0.104473
vt 0.285156 0.000000
vt 0.267578 0.000000
vt 0.238111 0.104482
vt 0.294922 0.000000
vt 0.279297 0.027344
vt 0.231141 0.111454
vt 0.285156 0.000000
vt 0.231104 0.000000
vt 0.294922 0.000000
vt 0.279297 0.000000
vt 0.267578 0.097656
vt 0.238111 0.006933
vt 0.285156 0.000000
vt 0.129760 0.242226
vt 0.121094 0.242227
vt 0.121094 0.287098
vt 0.121094 0.287098
vt 0.129761 0.295560
vt 0.121094 0.295560
vt 0.119094 0.289098
vt 0.119094 0.289098
vt 0.119094 0.269098
vt 0.119094 0.289098
vt 0.119094 0.246098
vt 0.119094 0.285765
vt 0.119094 0.292765
vt 0.119094 0.272432
vt 0.119094 0.269098
vt 0.119094 0.275765
vt 0.108427 0.245560
vt 0.121094 0.246098
vt 0.121094 0.285765
vt 0.121094 0.269098
vt 0.111761 0.242226
vt 0.121094 0.289098
vt 0.121094 0.269098
vt 0.111761 0.295560
vt 0.121094 0.275765
vt 0.108427 0.292227
vt 0.121094 0.292765
vt 0.121094 0.272432
vt 0.132427 0.242227
vt 0.132427 0.287098
vt 0.119111 0.259096
vt 0.119110 0.245762
vt 0.135761 0.245560
vt 0.119110 0.262430
vt 0.119110 0.292429
vt 0.135761 0.292227
vt 0.119110 0.289096
vt 0.132427 0.287098
vt 0.132427 0.295560
vt 0.119110 0.292429
vt 0.121110 0.245762
vt 0.121110 0.262430
vt 0.132427 0.289098
vt 0.121111 0.259096
vt 0.132427 0.289098
vt 0.121110 0.292429
vt 0.121110 0.292429
vt 0.121110 0.289096
vt 0.048009 0.324219
vt 0.043252 0.324219
vt 0.046533 0.320655
vt 0.043252 0.320655
vt 0.043252 0.327783
vt 0.046533 0.327783
vt 0.043252 0.327783
vt 0.042969 0.319179
vt 0.043252 0.324219
vt 0.039405 0.320655
vt 0.043252 0.320655
vt 0.037929 0.324219
vt 0.043252 0.324219
vt 0.042969 0.329259
vt 0.043252 0.324219
vt 0.039405 0.327783
vt 0.043252 0.320655
vt 0.043252 0.327783
vt 0.045268 0.324219
vt 0.045268 0.320655
vt 0.045268 0.327783
vt 0.045268 0.327783
vt 0.045268 0.324219
vt 0.045268 0.320655
vt 0.045268 0.324219
vt 0.045268 0.324219
vt 0.045268 0.320655
vt 0.045268 0.327783
vt 0.046329 0.324219
vt 0.040564 0.324219
vt 0.045345 0.321843
vt 0.040564 0.321843
vt 0.040564 0.326595
vt 0.045345 0.326595
vt 0.040564 0.326595
vt 0.042969 0.320859
vt 0.040564 0.324219
vt 0.040564 0.321843
vt 0.039609 0.324219
vt 0.040564 0.324219
vt 0.042969 0.327579
vt 0.040564 0.324219
vt 0.040564 0.321843
vt 0.040564 0.326595
vt 0.046329 0.324219
vt 0.043252 0.324219
vt 0.045345 0.321843
vt 0.043252 0.321843
vt 0.043252 0.326595
vt 0.045345 0.326595
vt 0.043252 0.326595
vt 0.042969 0.320859
vt 0.043252 0.324219
vt 0.040593 0.321843
vt 0.043252 0.321843
vt 0.042969 0.327579
vt 0.043252 0.324219
vt 0.039609 0.324219
vt 0.043252 0.324219
vt 0.040593 0.326595
vt 0.043252 0.321843
vt 0.043252 0.326595
vt 0.129761 0.242227
vt 0.121094 0.242227
vt 0.121094 0.287098
vt 0.121094 0.287098
vt 0.129761 0.295560
vt 0.121094 0.295560
vt 0.119094 0.289098
vt 0.119094 0.289098
vt 0.119094 0.269098
vt 0.119094 0.289098
vt 0.119094 0.246098
vt 0.119094 0.285765
vt 0.119094 0.292765
vt 0.119094 0.272432
vt 0.119094 0.269098
vt 0.119094 0.275765
vt 0.108427 0.245560
vt 0.121094 0.246098
vt 0.121094 0.285765
vt 0.121094 0.269098
vt 0.111760 0.242227
vt 0.121094 0.289098
vt 0.121094 0.269098
vt 0.111761 0.295560
vt 0.121094 0.275765
vt 0.108427 0.292227
vt 0.121094 0.292765
vt 0.121094 0.272432
vt 0.132427 0.242227
vt 0.132427 0.287098
vt 0.119110 0.259096
vt 0.119110 0.245762
vt 0.135761 0.245560
vt 0.119110 0.262429
vt 0.119110 0.292429
vt 0.135761 0.292227
vt 0.119110 0.289096
vt 0.132427 0.287098
vt 0.132427 0.295560
vt 0.119110 0.292429
vt 0.121110 0.245762
vt 0.121110 0.262429
vt 0.132427 0.289098
vt 0.121110 0.259096
vt 0.132427 0.289098
vt 0.121110 0.292429
vt 0.121110 0.292429
vt 0.121110 0.289096
vt 0.048009 0.324219
vt 0.043252 0.324219
vt 0.046533 0.320655
vt 0.043252 0.320655
vt 0.043252 0.327783
vt 0.046533 0.327783
vt 0.043252 0.327783
vt 0.042969 0.319179
vt 0.043252 0.324219
vt 0.039405 0.320655
vt 0.043252 0.320655
vt 0.037929 0.324219
vt 0.043252 0.324219
vt 0.042969 0.329259
vt 0.043252 0.324219
vt 0.039405 0.327783
vt 0.043252 0.320655
vt 0.043252 0.327783
vt 0.045268 0.324219
vt 0.045268 0.320655
vt 0.045268 0.327783
vt 0.045268 0.327783
vt 0.045268 0.324219
vt 0.045268 0.320655
vt 0.045268 0.324219
vt 0.045268 0.324219
vt 0.045268 0.320655
vt 0.045268 0.327783
vt 0.046329 0.324219
vt 0.040564 0.324219
vt 0.045345 0.321843
vt 0.040564 0.321843
vt 0.040564 0.326595
vt 0.045345 0.326595
vt 0.040564 0.326595
vt 0.042969 0.320859
vt 0.040564 0.324219
vt 0.040564 0.321843
vt 0.039609 0.324219
vt 0.040564 0.324219
vt 0.042969 0.327579
vt 0.040564 0.324219
vt 0.040564 0.321843
vt 0.040564 0.326595
vt 0.046329 0.324219
vt 0.043252 0.324219
vt 0.045345 0.321843
vt 0.043252 0.321843
vt 0.043252 0.326595
vt 0.045345 0.326595
vt 0.043252 0.326595
vt 0.042969 0.320859
vt 0.043252 0.324219
vt 0.040593 0.321843
vt 0.043252 0.321843
vt 0.042969 0.327579
vt 0.043252 0.324219
vt 0.039609 0.324219
vt 0.043252 0.324219
vt 0.040593 0.326595
vt 0.043252 0.321843
vt 0.043252 0.326595
vt 0.048009 0.324219
vt 0.043252 0.324219
vt 0.046533 0.320655
vt 0.043252 0.320655
vt 0.043252 0.327783
vt 0.046533 0.327783
vt 0.043252 0.327783
vt 0.042969 0.319179
vt 0.043252 0.324219
vt 0.039405 0.320655
vt 0.043252 0.320655
vt 0.037929 0.324219
vt 0.043252 0.324219
vt 0.042969 0.329259
vt 0.043252 0.324219
vt 0.039405 0.327783
vt 0.043252 0.320655
vt 0.043252 0.327783
vt 0.045268 0.324219
vt 0.045268 0.320655
vt 0.045268 0.327783
vt 0.045268 0.327783
vt 0.045268 0.324219
vt 0.045268 0.320655
vt 0.045268 0.324219
vt 0.045268 0.324219
vt 0.045268 0.320655
vt 0.045268 0.327783
vt 0.046329 0.324219
vt 0.040564 0.324219
vt 0.045345 0.321843
vt 0.040564 0.321843
vt 0.040564 0.326595
vt 0.045345 0.326595
vt 0.040564 0.326595
vt 0.042969 0.320859
vt 0.040564 0.324219
vt 0.040564 0.321843
vt 0.039609 0.324219
vt 0.040564 0.324219
vt 0.042969 0.327579
vt 0.040564 0.324219
vt 0.040564 0.321843
vt 0.040564 0.326595
vt 0.046329 0.324219
vt 0.043252 0.324219
vt 0.045345 0.321843
vt 0.043252 0.321843
vt 0.043252 0.326595
vt 0.045345 0.326595
vt 0.043252 0.326595
vt 0.042969 0.320859
vt 0.043252 0.324219
vt 0.040593 0.321843
vt 0.043252 0.321843
vt 0.042969 0.327579
vt 0.043252 0.324219
vt 0.039609 0.324219
vt 0.043252 0.324219
vt 0.040593 0.326595
vt 0.043252 0.321843
vt 0.043252 0.326595
vt 0.048009 0.324219
vt 0.043252 0.324219
vt 0.046533 0.320655
vt 0.043252 0.320655
vt 0.043252 0.327783
vt 0.046533 0.327783
vt 0.043252 0.327783
vt 0.042969 0.319179
vt 0.043252 0.324219
vt 0.039405 0.320655
vt 0.043252 0.320655
vt 0.037929 0.324219
vt 0.043252 0.324219
vt 0.042969 0.329259
vt 0.043252 0.324219
vt 0.039405 0.327783
vt 0.043252 0.320655
vt 0.043252 0.327783
vt 0.045268 0.324219
vt 0.045268 0.320655
vt 0.045268 0.327783
vt 0.045268 0.327783
vt 0.045268 0.324219
vt 0.045268 0.320655
vt 0.045268 0.324219
vt 0.045268 0.324219
vt 0.045268 0.320655
vt 0.045268 0.327783
vt 0.046329 0.324219
vt 0.040564 0.324219
vt 0.045345 0.321843
vt 0.040564 0.321843
vt 0.040564 0.326595
vt 0.045345 0.326595
vt 0.040564 0.326595
vt 0.042969 0.320859
vt 0.040564 0.324219
vt 0.040564 0.321843
vt 0.039609 0.324219
vt 0.040564 0.324219
vt 0.042969 0.327579
vt 0.040564 0.324219
vt 0.040564 0.321843
vt 0.040564 0.326595
vt 0.046329 0.324219
vt 0.043252 0.324219
vt 0.045345 0.321843
vt 0.043252 0.321843
vt 0.043252 0.326595
vt 0.045345 0.326595
vt 0.043252 0.326595
vt 0.042969 0.320859
vt 0.043252 0.324219
vt 0.040593 0.321843
vt 0.043252 0.321843
vt 0.042969 0.327579
vt 0.043252 0.324219
vt 0.039609 0.324219
vt 0.043252 0.324219
vt 0.040593 0.326595
vt 0.043252 0.321843
vt 0.043252 0.326595
vt 0.115234 0.289062
vt 0.109375 0.289062
vt 0.115234 0.273438
vt 0.111328 0.289062
vt 0.107422 0.281250
vt 0.107422 0.281250
vt 0.115234 0.273438
vt 0.109375 0.273438
vt 0.115234 0.289062
vt 0.111328 0.273438
vt 0.115234 0.289062
vt 0.109375 0.289062
vt 0.115234 0.273438
vt 0.111328 0.289062
vt 0.107422 0.281250
vt 0.107422 0.281250
vt 0.115234 0.273438
vt 0.109375 0.273438
vt 0.115234 0.289062
vt 0.111328 0.273438
vt 0.115234 0.289062
vt 0.109375 0.289062
vt 0.115234 0.273438
vt 0.111328 0.289062
vt 0.107422 0.281250
vt 0.107422 0.281250
vt 0.115234 0.273438
vt 0.109375 0.273438
vt 0.115234 0.289062
vt 0.111328 0.273438
vt 0.115234 0.289062
vt 0.109375 0.289062
vt 0.115234 0.273438
vt 0.111328 0.289062
vt 0.107422 0.281250
vt 0.107422 0.281250
vt 0.115234 0.273438
vt 0.109375 0.273438
vt 0.115234 0.289062
vt 0.111328 0.273438
vt 0.054969 0.324219
vt 0.043642 0.324219
vt 0.051454 0.315733
vt 0.043642 0.315733
vt 0.043642 0.332704
vt 0.051454 0.332704
vt 0.043642 0.332704
vt 0.042969 0.312219
vt 0.043642 0.324219
vt 0.034483 0.315733
vt 0.043642 0.315733
vt 0.030969 0.324219
vt 0.043642 0.324219
vt 0.042969 0.336219
vt 0.043642 0.324219
vt 0.034483 0.332704
vt 0.043642 0.315733
vt 0.043642 0.332704
vt 0.048442 0.324219
vt 0.048442 0.315733
vt 0.048442 0.332704
vt 0.048442 0.332704
vt 0.048442 0.324219
vt 0.048442 0.315733
vt 0.048442 0.324219
vt 0.048442 0.324219
vt 0.048442 0.315733
vt 0.048442 0.332704
vt 0.050969 0.324219
vt 0.037242 0.324219
vt 0.048626 0.318562
vt 0.037242 0.318562
vt 0.037242 0.329876
vt 0.048626 0.329876
vt 0.037242 0.329876
vt 0.042969 0.316219
vt 0.037242 0.324219
vt 0.037242 0.318562
vt 0.034969 0.324219
vt 0.037242 0.324219
vt 0.042969 0.332219
vt 0.037242 0.324219
vt 0.037242 0.318562
vt 0.037242 0.329876
vt 0.050969 0.324219
vt 0.043642 0.324219
vt 0.048626 0.318562
vt 0.043642 0.318562
vt 0.043642 0.329876
vt 0.048626 0.329876
vt 0.043642 0.329876
vt 0.042969 0.316219
vt 0.043642 0.324219
vt 0.037312 0.318562
vt 0.043642 0.318562
vt 0.042969 0.332219
vt 0.043642 0.324219
vt 0.034969 0.324219
vt 0.043642 0.324219
vt 0.037312 0.329876
vt 0.043642 0.318562
vt 0.043642 0.329876
vt 0.054969 0.324219
vt 0.043642 0.324219
vt 0.051454 0.315733
vt 0.043642 0.315733
vt 0.043642 0.332704
vt 0.051454 0.332704
vt 0.043642 0.332704
vt 0.042969 0.312219
vt 0.043642 0.324219
vt 0.034483 0.315733
vt 0.043642 0.315733
vt 0.030969 0.324219
vt 0.043642 0.324219
vt 0.042969 0.336219
vt 0.043642 0.324219
vt 0.034483 0.332704
vt 0.043642 0.315733
vt 0.043642 0.332704
vt 0.048442 0.324219
vt 0.048442 0.315733
vt 0.048442 0.332704
vt 0.048442 0.332704
vt 0.048442 0.324219
vt 0.048442 0.315733
vt 0.048442 0.324219
vt 0.048442 0.324219
vt 0.048442 0.315733
vt 0.048442 0.332704
vt 0.050969 0.324219
vt 0.037242 0.324219
vt 0.048626 0.318562
vt 0.037242 0.318562
vt 0.037242 0.329876
vt 0.048626 0.329876
vt 0.037242 0.329876
vt 0.042969 0.316219
vt 0.037242 0.324219
vt 0.037242 0.318562
vt 0.034969 0.324219
vt 0.037242 0.324219
vt 0.042969 0.332219
vt 0.037242 0.324219
vt 0.037242 0.318562
vt 0.037242 0.329876
vt 0.050969 0.324219
vt 0.043642 0.324219
vt 0.048626 0.318562
vt 0.043642 0.318562
vt 0.043642 0.329876
vt 0.048626 0.329876
vt 0.043642 0.329876
vt 0.042969 0.316219
vt 0.043642 0.324219
vt 0.037312 0.318562
vt 0.043642 0.318562
vt 0.042969 0.332219
vt 0.043642 0.324219
vt 0.034969 0.324219
vt 0.043642 0.324219
vt 0.037312 0.329876
vt 0.043642 0.318562
vt 0.043642 0.329876
s 0
usemtl electronics_etx_part_1
f 15/38/1 12/32/1 19/48/1 22/57/1
f 1/1/2 2/7/2 20/52/2 17/43/2
f 3/8/3 4/11/3 7/20/3 8/23/3
f 17/42/3 20/51/3 11/30/3 10/28/3
f 13/34/4 16/40/4 21/54/4 24/63/4
f 2/7/2 4/13/2 22/58/2 19/49/2
f 4/13/2 3/10/2 24/64/2 21/55/2
f 8/24/2 7/21/2 6/17/2 5/14/2
f 1/2/1 3/9/1 8/25/1 5/15/1
f 2/5/4 1/3/4 5/16/4 6/18/4
f 4/12/5 2/6/5 6/19/5 7/22/5
f 3/10/2 1/4/2 18/45/2 23/60/2
f 17/43/2 18/45/2 1/4/2
f 19/49/2 20/52/2 2/7/2
f 21/55/2 22/58/2 4/13/2
f 23/60/2 24/64/2 3/10/2
f 9/26/6 18/46/6 17/44/6 10/29/6
f 19/50/7 12/33/7 11/31/7 20/53/7
f 23/61/8 14/36/8 13/35/8 24/65/8
f 15/39/9 22/59/9 21/56/9 16/41/9
f 9/27/5 14/37/5 23/62/5 18/47/5
f 26/69/1 35/88/1 32/80/1 28/73/1
f 26/69/1 28/73/1 43/110/1 40/103/1
f 39/100/3 44/112/3 41/106/3 38/97/3
f 29/74/5 34/85/5 25/68/5 27/72/5
f 25/66/3 34/86/3 33/82/3 36/91/3 35/89/3 26/70/3
f 26/71/2 40/104/2 39/101/2 38/98/2 37/94/2 25/67/2
f 27/72/5 25/68/5 37/95/5 42/108/5
f 33/83/2 30/76/2 31/78/2 36/92/2
f 29/75/10 30/77/10 33/84/10 34/87/10
f 35/90/11 36/93/11 31/79/11 32/81/11
f 37/96/6 38/99/6 41/107/6 42/109/6
f 43/111/7 44/113/7 39/102/7 40/105/7
f 51/127/2 52/129/2 50/125/2 49/123/2 48/121/2 46/116/2 45/114/2 47/119/2
f 58/138/12 60/140/12 52/130/12 51/128/12
f 60/141/13 59/139/13 50/126/13 52/131/13
f 51/128/14 47/120/14 55/135/14 58/138/14
f 47/120/15 45/115/15 53/132/15 55/135/15
f 59/139/16 57/137/16 49/124/16 50/126/16
f 57/137/17 56/136/17 48/122/17 49/124/17
f 45/115/18 46/117/18 54/133/18 53/132/18
f 46/118/19 48/122/19 56/136/19 54/134/19
f 69/158/20 70/160/20 72/165/20 73/167/20 75/171/20 76/173/20 74/169/20 71/163/20
f 67/154/2 68/157/2 66/152/2 65/151/2 64/149/2 62/144/2 61/142/2 63/147/2
f 74/170/12 76/174/12 68/156/12 67/155/12
f 76/175/13 75/172/13 66/153/13 68/157/13
f 67/155/14 63/148/14 71/164/14 74/170/14
f 63/148/15 61/143/15 69/159/15 71/164/15
f 75/172/16 73/168/16 65/151/16 66/153/16
f 73/168/17 72/166/17 64/150/17 65/151/17
f 61/143/18 62/145/18 70/161/18 69/159/18
f 62/146/19 64/150/19 72/166/19 70/162/19
f 78/179/1 80/183/1 84/190/1 87/198/1
f 78/179/1 92/213/1 95/220/1 80/183/1
f 91/210/4 90/207/4 93/216/4 96/222/4
f 81/184/5 79/182/5 77/178/5 86/195/5
f 77/176/4 78/180/4 87/199/4 88/201/4 85/192/4 86/196/4
f 78/181/2 77/177/2 89/204/2 90/208/2 91/211/2 92/214/2
f 79/182/5 94/218/5 89/205/5 77/178/5
f 85/193/2 88/202/2 83/188/2 82/186/2
f 81/185/10 86/197/10 85/194/10 82/187/10
f 87/200/11 84/191/11 83/189/11 88/203/11
f 89/206/8 94/219/8 93/217/8 90/209/8
f 95/221/9 92/215/9 91/212/9 96/223/9
f 103/237/2 99/229/2 97/224/2 98/226/2 100/231/2 101/233/2 102/235/2 104/239/2
f 110/248/18 103/238/18 104/240/18 112/250/18
f 112/251/19 104/241/19 102/236/19 111/249/19
f 103/238/15 110/248/15 107/245/15 99/230/15
f 99/230/14 107/245/14 105/242/14 97/225/14
f 111/249/17 102/236/17 101/234/17 109/247/17
f 109/247/16 101/234/16 100/232/16 108/246/16
f 97/225/12 105/242/12 106/243/12 98/227/12
f 98/228/13 106/244/13 108/246/13 100/232/13
f 121/268/20 123/273/20 126/279/20 128/283/20 127/281/20 125/277/20 124/275/20 122/270/20
f 119/264/2 115/257/2 113/252/2 114/254/2 116/259/2 117/261/2 118/262/2 120/267/2
f 126/280/18 119/265/18 120/266/18 128/284/18
f 128/285/19 120/267/19 118/263/19 127/282/19
f 119/265/15 126/280/15 123/274/15 115/258/15
f 115/258/14 123/274/14 121/269/14 113/253/14
f 127/282/17 118/263/17 117/261/17 125/278/17
f 125/278/16 117/261/16 116/260/16 124/276/16
f 113/253/12 121/269/12 122/271/12 114/255/12
f 114/256/13 122/272/13 124/276/13 116/260/13
f 135/299/2 136/301/2 134/297/2 133/295/2 132/293/2 130/288/2 129/286/2 131/291/2
f 142/310/12 144/312/12 136/302/12 135/300/12
f 144/313/13 143/311/13 134/298/13 136/303/13
f 135/300/14 131/292/14 139/307/14 142/310/14
f 131/292/15 129/287/15 137/304/15 139/307/15
f 143/311/16 141/309/16 133/296/16 134/298/16
f 141/309/17 140/308/17 132/294/17 133/296/17
f 129/287/18 130/289/18 138/305/18 137/304/18
f 130/290/19 132/294/19 140/308/19 138/306/19
f 153/330/20 154/332/20 156/337/20 157/339/20 159/343/20 160/345/20 158/341/20 155/335/20
f 151/326/2 152/329/2 150/324/2 149/323/2 148/321/2 146/316/2 145/314/2 147/319/2
f 158/342/12 160/346/12 152/328/12 151/327/12
f 160/347/13 159/344/13 150/325/13 152/329/13
f 151/327/14 147/320/14 155/336/14 158/342/14
f 147/320/15 145/315/15 153/331/15 155/336/15
f 159/344/16 157/340/16 149/323/16 150/325/16
f 157/340/17 156/338/17 148/322/17 149/323/17
f 145/315/18 146/317/18 154/333/18 153/331/18
f 146/318/19 148/322/19 156/338/19 154/334/19
f 167/361/2 163/353/2 161/348/2 162/350/2 164/355/2 165/357/2 166/359/2 168/363/2
f 174/372/18 167/362/18 168/364/18 176/374/18
f 176/375/19 168/365/19 166/360/19 175/373/19
f 167/362/15 174/372/15 171/369/15 163/354/15
f 163/354/14 171/369/14 169/366/14 161/349/14
f 175/373/17 166/360/17 165/358/17 173/371/17
f 173/371/16 165/358/16 164/356/16 172/370/16
f 161/349/12 169/366/12 170/367/12 162/351/12
f 162/352/13 170/368/13 172/370/13 164/356/13
f 185/392/20 187/397/20 190/403/20 192/407/20 191/405/20 189/401/20 188/399/20 186/394/20
f 183/388/2 179/381/2 177/376/2 178/378/2 180/383/2 181/385/2 182/386/2 184/391/2
f 190/404/18 183/389/18 184/390/18 192/408/18
f 192/409/19 184/391/19 182/387/19 191/406/19
f 183/389/15 190/404/15 187/398/15 179/382/15
f 179/382/14 187/398/14 185/393/14 177/377/14
f 191/406/17 182/387/17 181/385/17 189/402/17
f 189/402/16 181/385/16 180/384/16 188/400/16
f 177/377/12 185/393/12 186/395/12 178/379/12
f 178/380/13 186/396/13 188/400/13 180/384/13
f 195/414/5 197/416/5 193/410/5
f 198/418/1 196/415/1 194/412/1
f 198/419/21 194/413/21 193/411/21 197/417/21
f 201/424/5 203/426/5 199/420/5
f 204/428/1 202/425/1 200/422/1
f 204/429/21 200/423/21 199/421/21 203/427/21
f 207/434/5 205/430/5 209/436/5
f 210/438/1 206/432/1 208/435/1
f 210/439/22 209/437/22 205/431/22 206/433/22
f 213/444/5 211/440/5 215/446/5
f 216/448/1 212/442/1 214/445/1
f 216/449/22 215/447/22 211/441/22 212/443/22
f 223/463/3 219/455/3 217/450/3 218/452/3 220/457/3 221/459/3 222/461/3 224/465/3
f 230/474/23 223/464/23 224/466/23 232/476/23
f 232/477/24 224/467/24 222/462/24 231/475/24
f 223/464/25 230/474/25 227/471/25 219/456/25
f 219/456/26 227/471/26 225/468/26 217/451/26
f 231/475/27 222/462/27 221/460/27 229/473/27
f 229/473/28 221/460/28 220/458/28 228/472/28
f 217/451/29 225/468/29 226/469/29 218/453/29
f 218/454/30 226/470/30 228/472/30 220/458/30
f 241/494/4 243/499/4 246/505/4 248/509/4 247/507/4 245/503/4 244/501/4 242/496/4
f 239/490/3 235/483/3 233/478/3 234/480/3 236/485/3 237/487/3 238/488/3 240/493/3
f 246/506/23 239/491/23 240/492/23 248/510/23
f 248/511/24 240/493/24 238/489/24 247/508/24
f 239/491/25 246/506/25 243/500/25 235/484/25
f 235/484/26 243/500/26 241/495/26 233/479/26
f 247/508/27 238/489/27 237/487/27 245/504/27
f 245/504/28 237/487/28 236/486/28 244/502/28
f 233/479/29 241/495/29 242/497/29 234/481/29
f 234/482/30 242/498/30 244/502/30 236/486/30
f 255/525/4 251/517/4 249/512/4 250/514/4 252/519/4 253/521/4 254/523/4 256/527/4
f 262/536/24 255/526/24 256/528/24 264/538/24
f 264/539/23 256/529/23 254/524/23 263/537/23
f 255/526/27 262/536/27 259/533/27 251/518/27
f 251/518/28 259/533/28 257/530/28 249/513/28
f 263/537/25 254/524/25 253/522/25 261/535/25
f 261/535/26 253/522/26 252/520/26 260/534/26
f 249/513/30 257/530/30 258/531/30 250/515/30
f 250/516/29 258/532/29 260/534/29 252/520/29
f 273/556/3 275/561/3 278/567/3 280/571/3 279/569/3 277/565/3 276/563/3 274/558/3
f 271/552/4 267/545/4 265/540/4 266/542/4 268/547/4 269/549/4 270/550/4 272/555/4
f 278/568/24 271/553/24 272/554/24 280/572/24
f 280/573/23 272/555/23 270/551/23 279/570/23
f 271/553/27 278/568/27 275/562/27 267/546/27
f 267/546/28 275/562/28 273/557/28 265/541/28
f 279/570/25 270/551/25 269/549/25 277/566/25
f 277/566/26 269/549/26 268/548/26 276/564/26
f 265/541/30 273/557/30 274/559/30 266/543/30
f 266/544/29 274/560/29 276/564/29 268/548/29
o lever_etx_8_child
v 0.005400 -0.173100 0.070914
v 0.005400 -0.157826 0.086188
v -0.005400 -0.173100 0.070914
v -0.005400 -0.157826 0.086188
v 0.005400 0.000000 -0.061456
v 0.005400 0.025456 -0.036000
v -0.005400 0.000000 -0.061456
v -0.005400 0.025456 -0.036000
v -0.099000 -0.136189 0.049277
v -0.099000 -0.152735 0.042423
v -0.099000 -0.129335 0.065823
v -0.099000 -0.169281 0.049277
v -0.099000 -0.176135 0.065823
v -0.099000 -0.169281 0.082369
v -0.099000 -0.136189 0.082369
v -0.099000 -0.152735 0.089223
v 0.099000 -0.136189 0.049277
v 0.099000 -0.169281 0.082369
v 0.005400 -0.140007 0.078551
v 0.005400 -0.165463 0.053095
v -0.104040 -0.136535 0.065823
v -0.104040 -0.141280 0.054368
v -0.104040 -0.141280 0.077278
v -0.104040 -0.152735 0.049623
v -0.104040 -0.164190 0.054368
v -0.104040 -0.168935 0.065823
v -0.104040 -0.152735 0.082023
v -0.104040 -0.164190 0.077278
v -0.099000 -0.136535 0.065823
v -0.099000 -0.141280 0.054368
v -0.099000 -0.141280 0.077278
v -0.099000 -0.152735 0.049623
v -0.099000 -0.164190 0.054368
v -0.099000 -0.152735 0.082023
v -0.099000 -0.168935 0.065823
v -0.099000 -0.164190 0.077278
v -0.112680 -0.141935 0.065823
v -0.112680 -0.145098 0.058186
v -0.112680 -0.145098 0.073460
v -0.112680 -0.152735 0.055023
v -0.112680 -0.160372 0.058186
v -0.112680 -0.163535 0.065823
v -0.112680 -0.152735 0.076623
v -0.112680 -0.160372 0.073460
v -0.104040 -0.141935 0.065823
v -0.104040 -0.145098 0.058186
v -0.104040 -0.145098 0.073460
v -0.104040 -0.152735 0.055023
v -0.104040 -0.160372 0.058186
v -0.104040 -0.152735 0.076623
v -0.104040 -0.163535 0.065823
v -0.104040 -0.160372 0.073460
v 0.018000 -0.152735 0.055023
v 0.018000 -0.145098 0.058187
v 0.018000 -0.160372 0.058186
v 0.018000 -0.141935 0.065823
v 0.018000 -0.145098 0.073460
v 0.018000 -0.152735 0.076623
v 0.018000 -0.163535 0.065823
v 0.018000 -0.160372 0.073460
v -0.018000 -0.152735 0.055023
v -0.018000 -0.145098 0.058187
v -0.018000 -0.160372 0.058186
v -0.018000 -0.141935 0.065823
v -0.018000 -0.145098 0.073460
v -0.018000 -0.163535 0.065823
v -0.018000 -0.152735 0.076623
v -0.018000 -0.160372 0.073460
v 0.005400 -0.132370 0.060732
v 0.005400 -0.147644 0.045458
v -0.005400 -0.132370 0.060732
v -0.005400 -0.147644 0.045458
v -0.005400 -0.140007 0.078551
v -0.005400 -0.165463 0.053095
v -0.018000 -0.169281 0.049277
v 0.104040 -0.152735 0.049623
v 0.104040 -0.141280 0.054368
v 0.104040 -0.164190 0.054368
v 0.104040 -0.136535 0.065823
v 0.104040 -0.141280 0.077278
v 0.104040 -0.152735 0.082023
v 0.104040 -0.168935 0.065823
v 0.104040 -0.164190 0.077278
v 0.099000 -0.152735 0.049623
v 0.099000 -0.141280 0.054368
v 0.099000 -0.164190 0.054368
v 0.099000 -0.136535 0.065823
v 0.099000 -0.141280 0.077278
v 0.099000 -0.168935 0.065823
v 0.099000 -0.152735 0.082023
v 0.099000 -0.164190 0.077278
v 0.112680 -0.152735 0.055023
v 0.112680 -0.145098 0.058187
v 0.112680 -0.160372 0.058186
v 0.112680 -0.141935 0.065823
v 0.112680 -0.145098 0.073460
v 0.112680 -0.152735 0.076623
v 0.112680 -0.163535 0.065823
v 0.112680 -0.160372 0.073460
v 0.104040 -0.152735 0.055023
v 0.104040 -0.145098 0.058187
v 0.104040 -0.160372 0.058186
v 0.104040 -0.141935 0.065823
v 0.104040 -0.145098 0.073460
v 0.104040 -0.163535 0.065823
v 0.104040 -0.152735 0.076623
v 0.104040 -0.160372 0.073460
v -0.018000 -0.136189 0.049277
v -0.018000 -0.152735 0.042423
v -0.018000 -0.129335 0.065823
v -0.018000 -0.176135 0.065823
v -0.018000 -0.136189 0.082369
v -0.018000 -0.169281 0.082369
v -0.018000 -0.152735 0.089223
v 0.018000 -0.136189 0.049277
v 0.018000 -0.152735 0.042423
v 0.018000 -0.169281 0.049277
v 0.018000 -0.176135 0.065823
v 0.018000 -0.136189 0.082369
v 0.018000 -0.169281 0.082369
v 0.099000 -0.152735 0.042423
v 0.099000 -0.129335 0.065823
v 0.099000 -0.169281 0.049277
v 0.099000 -0.176135 0.065823
v 0.099000 -0.136189 0.082369
v 0.099000 -0.152735 0.089223
v 0.018000 -0.152735 0.089223
v 0.018000 -0.129335 0.065823
v 0.005400 -0.057276 0.046731
v 0.005400 -0.076367 0.014911
v -0.005400 -0.057276 0.046731
v -0.005400 -0.076367 0.014911
vn -0.0000 0.7071 0.7071
vn 1.0000 -0.0000 -0.0000
vn -1.0000 -0.0000 -0.0000
vn -0.0000 -0.7071 -0.7071
vn -0.0000 -0.0000 1.0000
vn -0.0000 -0.7071 0.7071
vn -0.0000 -1.0000 -0.0000
vn -0.0000 -0.9191 -0.3939
vn -0.0000 0.3939 0.9191
vn -0.0000 -0.3827 0.9239
vn -0.0000 -0.9239 0.3827
vn -0.0000 0.3827 0.9239
vn -0.0000 0.9239 0.3827
vn -0.0000 -0.9239 -0.3827
vn -0.0000 -0.3827 -0.9239
vn -0.0000 0.9239 -0.3827
vn -0.0000 0.3827 -0.9239
vn -0.0000 -0.3939 -0.9191
vn -0.0000 0.9191 0.3939
vn -0.0000 0.1833 0.9831
vn -0.0000 -0.0000 -1.0000
vn -0.0000 0.7071 -0.7071
vn -0.0000 1.0000 -0.0000
vt 0.109375 0.257004
vt 0.117783 0.264158
vt 0.105469 0.258464
vt 0.108603 0.264158
vt 0.105469 0.267780
vt 0.105469 0.248698
vt 0.105469 0.257004
vt 0.117771 0.264159
vt 0.109375 0.258463
vt 0.108591 0.264159
vt 0.109375 0.267780
vt 0.109375 0.248698
vt 0.105536 0.176210
vt 0.109367 0.175929
vt 0.090314 0.175950
vt 0.090238 0.176190
vt 0.105538 0.176194
vt 0.105462 0.175953
vt 0.086409 0.175932
vt 0.090240 0.176215
vt 0.046143 0.164424
vt 0.041016 0.126953
vt 0.029297 0.126953
vt 0.051530 0.164424
vt 0.035156 0.126953
vt 0.042334 0.168233
vt 0.035156 0.126953
vt 0.055340 0.168233
vt 0.041016 0.126953
vt 0.029297 0.126953
vt 0.055340 0.173620
vt 0.035156 0.126953
vt 0.051530 0.177429
vt 0.041016 0.126953
vt 0.029297 0.126953
vt 0.042334 0.173620
vt 0.029297 0.126953
vt 0.041016 0.126953
vt 0.046143 0.177429
vt 0.035156 0.126953
vt 0.046140 0.164424
vt 0.029297 0.197266
vt 0.041016 0.197266
vt 0.051527 0.177429
vt 0.029297 0.197266
vt 0.041016 0.197266
vt 0.105469 0.259968
vt 0.105543 0.256509
vt 0.105469 0.252896
vt 0.109375 0.249192
vt 0.109375 0.266366
vt 0.120843 0.256509
vt 0.049449 0.324219
vt 0.043909 0.324219
vt 0.047551 0.319637
vt 0.043909 0.319637
vt 0.043909 0.328801
vt 0.047551 0.328801
vt 0.043909 0.328801
vt 0.042969 0.317739
vt 0.043909 0.324219
vt 0.038387 0.319637
vt 0.043909 0.319637
vt 0.036489 0.324219
vt 0.043909 0.324219
vt 0.042969 0.330699
vt 0.043909 0.324219
vt 0.038387 0.328801
vt 0.043909 0.319637
vt 0.043909 0.328801
vt 0.045925 0.324219
vt 0.045925 0.319637
vt 0.045925 0.328801
vt 0.045925 0.328801
vt 0.045925 0.324219
vt 0.045925 0.319637
vt 0.045925 0.324219
vt 0.045925 0.324219
vt 0.045925 0.319637
vt 0.045925 0.328801
vt 0.047289 0.324219
vt 0.040453 0.324219
vt 0.046023 0.321164
vt 0.040453 0.321164
vt 0.040453 0.327273
vt 0.046023 0.327273
vt 0.040453 0.327273
vt 0.042969 0.319899
vt 0.040453 0.324219
vt 0.039914 0.321164
vt 0.040453 0.321164
vt 0.038649 0.324219
vt 0.040453 0.324219
vt 0.042969 0.328539
vt 0.040453 0.324219
vt 0.039914 0.327273
vt 0.040453 0.321164
vt 0.040453 0.327273
vt 0.047289 0.324219
vt 0.043909 0.324219
vt 0.046023 0.321164
vt 0.043909 0.321164
vt 0.043909 0.327273
vt 0.046023 0.327273
vt 0.043909 0.327273
vt 0.042969 0.319899
vt 0.043909 0.324219
vt 0.039914 0.321164
vt 0.043909 0.321164
vt 0.042969 0.328539
vt 0.043909 0.324219
vt 0.038649 0.324219
vt 0.043909 0.324219
vt 0.039914 0.327273
vt 0.043909 0.321164
vt 0.043909 0.327273
vt 0.047289 0.324219
vt 0.040885 0.324219
vt 0.046023 0.321164
vt 0.040885 0.321164
vt 0.040885 0.327273
vt 0.046023 0.327273
vt 0.040885 0.327273
vt 0.042969 0.319899
vt 0.040885 0.324219
vt 0.039914 0.321164
vt 0.040885 0.321164
vt 0.038649 0.324219
vt 0.040885 0.324219
vt 0.042969 0.328539
vt 0.040885 0.324219
vt 0.039914 0.327273
vt 0.040885 0.321164
vt 0.040885 0.327273
vt 0.047289 0.324219
vt 0.055285 0.324219
vt 0.046023 0.321164
vt 0.055285 0.321164
vt 0.055285 0.327273
vt 0.046023 0.327273
vt 0.055285 0.327273
vt 0.042969 0.319899
vt 0.055285 0.324219
vt 0.039914 0.321164
vt 0.055285 0.321164
vt 0.042969 0.328539
vt 0.055285 0.324219
vt 0.038649 0.324219
vt 0.055285 0.324219
vt 0.039914 0.327273
vt 0.055285 0.321164
vt 0.055285 0.327273
vt 0.108603 0.248860
vt 0.105469 0.243130
vt 0.108607 0.248556
vt 0.105464 0.244497
vt 0.109375 0.256600
vt 0.117783 0.248860
vt 0.117776 0.248707
vt 0.109365 0.239530
vt 0.108591 0.248859
vt 0.109375 0.243130
vt 0.108616 0.248969
vt 0.109364 0.244403
vt 0.105469 0.256600
vt 0.117785 0.248819
vt 0.105462 0.239589
vt 0.109375 0.259968
vt 0.105531 0.256509
vt 0.109375 0.252896
vt 0.105469 0.249192
vt 0.105469 0.266366
vt 0.120831 0.256509
vt 0.041016 0.155717
vt 0.029297 0.155717
vt 0.042331 0.173620
vt 0.049449 0.324219
vt 0.043909 0.324219
vt 0.047551 0.319637
vt 0.043909 0.319637
vt 0.043909 0.328801
vt 0.047551 0.328801
vt 0.043909 0.328801
vt 0.042969 0.317739
vt 0.043909 0.324219
vt 0.038387 0.319637
vt 0.043909 0.319637
vt 0.036489 0.324219
vt 0.043909 0.324219
vt 0.042969 0.330699
vt 0.043909 0.324219
vt 0.038387 0.328801
vt 0.043909 0.319637
vt 0.043909 0.328801
vt 0.045925 0.324219
vt 0.045925 0.319637
vt 0.045925 0.328801
vt 0.045925 0.328801
vt 0.045925 0.324219
vt 0.045925 0.319637
vt 0.045925 0.324219
vt 0.045925 0.324219
vt 0.045925 0.319637
vt 0.045925 0.328801
vt 0.047289 0.324219
vt 0.040453 0.324219
vt 0.046023 0.321164
vt 0.040453 0.321164
vt 0.040453 0.327273
vt 0.046023 0.327273
vt 0.040453 0.327273
vt 0.042969 0.319899
vt 0.040453 0.324219
vt 0.039914 0.321164
vt 0.040453 0.321164
vt 0.038649 0.324219
vt 0.040453 0.324219
vt 0.042969 0.328539
vt 0.040453 0.324219
vt 0.039914 0.327273
vt 0.040453 0.321164
vt 0.040453 0.327273
vt 0.047289 0.324219
vt 0.043909 0.324219
vt 0.046023 0.321164
vt 0.043909 0.321164
vt 0.043909 0.327273
vt 0.046023 0.327273
vt 0.043909 0.327273
vt 0.042969 0.319899
vt 0.043909 0.324219
vt 0.039914 0.321164
vt 0.043909 0.321164
vt 0.042969 0.328539
vt 0.043909 0.324219
vt 0.038649 0.324219
vt 0.043909 0.324219
vt 0.039914 0.327273
vt 0.043909 0.321164
vt 0.043909 0.327273
vt 0.041016 0.155717
vt 0.029297 0.155717
vt 0.046140 0.164424
vt 0.035156 0.155717
vt 0.042331 0.168233
vt 0.035156 0.155717
vt 0.051527 0.164424
vt 0.035156 0.155717
vt 0.046140 0.177429
vt 0.029297 0.155717
vt 0.041016 0.155717
vt 0.055336 0.168233
vt 0.041016 0.155717
vt 0.029297 0.155717
vt 0.051527 0.177429
vt 0.035156 0.155717
vt 0.055336 0.173620
vt 0.046140 0.164424
vt 0.029297 0.168501
vt 0.041016 0.168501
vt 0.042331 0.168233
vt 0.035156 0.168501
vt 0.042331 0.173620
vt 0.029297 0.168501
vt 0.041016 0.168501
vt 0.046140 0.177429
vt 0.035156 0.168501
vt 0.055336 0.168233
vt 0.041016 0.168501
vt 0.029297 0.168501
vt 0.051527 0.177429
vt 0.029297 0.168501
vt 0.041016 0.168501
vt 0.042331 0.168233
vt 0.035156 0.197266
vt 0.051527 0.164424
vt 0.035156 0.197266
vt 0.042331 0.173620
vt 0.029297 0.197266
vt 0.041016 0.197266
vt 0.046140 0.177429
vt 0.035156 0.197266
vt 0.055336 0.168233
vt 0.041016 0.197266
vt 0.029297 0.197266
vt 0.055336 0.173620
vt 0.035156 0.197266
vt 0.055336 0.173620
vt 0.035156 0.168501
vt 0.051527 0.164424
vt 0.035156 0.168501
vt 0.090263 0.225751
vt 0.090289 0.226278
vt 0.090263 0.221854
vt 0.105476 0.216446
vt 0.105572 0.222610
vt 0.109405 0.221769
vt 0.105544 0.218336
vt 0.109378 0.214017
vt 0.086366 0.225614
vt 0.090199 0.226449
vt 0.090247 0.222350
vt 0.109376 0.216359
vt 0.105489 0.222400
vt 0.105510 0.221943
vt 0.105525 0.218251
vt 0.105474 0.214053
s 1
usemtl electronics_etx_part_1
f 411/873/31 409/865/31 286/588/31 288/592/31
f 409/866/32 410/869/32 285/586/32 286/589/32
f 412/877/33 411/874/33 288/593/33 287/590/33
f 410/870/34 412/878/34 287/591/34 285/587/34
f 297/614/32 402/849/32 405/856/32 406/859/32 298/617/32 404/854/32 403/851/32 401/847/32
f 295/609/33 291/599/33 289/594/33 290/597/33 292/601/33 293/604/33 294/606/33 296/612/33
f 392/823/31 295/610/31 296/613/35 394/829/35
f 394/829/35 296/613/35 294/607/36 393/826/36
f 393/827/36 294/608/36 293/605/37 391/821/37
f 391/821/37 293/605/37 292/602/34 355/747/34
f 281/574/38 283/580/38 354/744/38 300/623/38
f 283/581/33 284/583/33 353/742/33 354/746/33
f 282/577/32 281/575/32 300/625/32 299/621/32
f 284/584/39 282/578/39 299/620/39 353/741/39
f 307/639/33 303/631/33 301/626/33 302/628/33 304/633/33 305/635/33 306/637/33 308/641/33
f 314/650/40 307/640/40 308/642/40 316/652/40
f 316/653/41 308/643/41 306/638/41 315/651/41
f 307/640/42 314/650/42 311/647/42 303/632/42
f 303/632/43 311/647/43 309/644/43 301/627/43
f 315/651/44 306/638/44 305/636/44 313/649/44
f 313/649/45 305/636/45 304/634/45 312/648/45
f 301/627/46 309/644/46 310/645/46 302/629/46
f 302/630/47 310/646/47 312/648/47 304/634/47
f 325/672/32 327/677/32 330/683/32 332/687/32 331/685/32 329/681/32 328/679/32 326/674/32
f 323/667/33 319/659/33 317/654/33 318/656/33 320/661/33 321/663/33 322/665/33 324/669/33
f 330/684/40 323/668/40 324/670/40 332/688/40
f 332/689/41 324/671/41 322/666/41 331/686/41
f 323/668/42 330/684/42 327/678/42 319/660/42
f 319/660/43 327/678/43 325/673/43 317/655/43
f 331/686/44 322/666/44 321/664/44 329/682/44
f 329/682/45 321/664/45 320/662/45 328/680/45
f 317/655/46 325/673/46 326/675/46 318/657/46
f 318/658/47 326/676/47 328/680/47 320/662/47
f 341/708/33 343/713/33 346/719/33 348/723/33 347/721/33 345/717/33 344/715/33 342/710/33
f 339/703/32 335/695/32 333/690/32 334/692/32 336/697/32 337/699/32 338/701/32 340/705/32
f 346/720/41 339/704/41 340/706/41 348/724/41
f 348/725/40 340/707/40 338/702/40 347/722/40
f 339/704/44 346/720/44 343/714/44 335/696/44
f 335/696/45 343/714/45 341/709/45 333/691/45
f 347/722/42 338/702/42 337/700/42 345/718/42
f 345/718/43 337/700/43 336/698/43 344/716/43
f 333/691/47 341/709/47 342/711/47 334/693/47
f 334/694/46 342/712/46 344/716/46 336/698/46
f 300/624/48 354/745/48 352/738/48 350/730/48
f 354/746/33 353/742/33 351/734/33 352/739/33
f 299/621/32 300/625/32 350/731/32 349/726/32
f 353/743/49 299/622/49 349/727/49 351/735/49
f 351/736/33 411/875/33 412/879/33 352/739/33
f 350/732/32 410/871/32 409/867/32 349/728/32
f 349/729/50 409/868/50 411/876/50 351/737/50
f 281/576/36 282/579/36 284/585/36 283/582/36
f 290/598/51 389/817/51 355/748/34 292/603/34
f 289/595/52 388/814/52 389/817/51 290/598/51
f 291/600/53 390/819/53 388/815/52 289/596/52
f 295/611/31 392/824/31 390/819/53 291/600/53
f 362/763/32 358/755/32 356/750/32 357/752/32 359/757/32 360/759/32 361/761/32 363/765/32
f 369/774/41 362/764/41 363/766/41 371/776/41
f 371/777/40 363/767/40 361/762/40 370/775/40
f 362/764/44 369/774/44 366/771/44 358/756/44
f 358/756/45 366/771/45 364/768/45 356/751/45
f 370/775/42 361/762/42 360/760/42 368/773/42
f 368/773/43 360/760/43 359/758/43 367/772/43
f 356/751/47 364/768/47 365/769/47 357/753/47
f 357/754/46 365/770/46 367/772/46 359/758/46
f 380/796/33 382/801/33 385/807/33 387/811/33 386/809/33 384/805/33 383/803/33 381/798/33
f 378/791/32 374/783/32 372/778/32 373/780/32 375/785/32 376/787/32 377/789/32 379/793/32
f 385/808/41 378/792/41 379/794/41 387/812/41
f 387/813/40 379/795/40 377/790/40 386/810/40
f 378/792/44 385/808/44 382/802/44 374/784/44
f 374/784/45 382/802/45 380/797/45 372/779/45
f 386/810/42 377/790/42 376/788/42 384/806/42
f 384/806/43 376/788/43 375/786/43 383/804/43
f 372/779/47 380/797/47 381/799/47 373/781/47
f 373/782/46 381/800/46 383/804/46 375/786/46
f 388/816/32 390/820/32 392/825/32 394/830/32 393/828/32 391/822/32 355/749/32 389/818/32
f 395/831/33 396/834/33 397/836/33 398/839/33 400/844/33 407/861/33 399/841/33 408/863/33
f 399/842/31 405/857/31 402/850/53 408/864/53
f 408/864/53 402/850/53 297/615/52 395/832/52
f 395/833/52 297/616/52 401/848/51 396/835/51
f 396/835/51 401/848/51 403/852/34 397/837/34
f 404/855/37 398/840/37 397/838/34 403/853/34
f 298/618/36 400/845/36 398/840/37 404/855/37
f 406/860/35 407/862/35 400/846/36 298/619/36
f 405/858/31 399/843/31 407/862/35 406/860/35
f 352/740/48 412/880/48 410/872/48 350/733/48
