# Blender 3.4.0
# www.blender.org
mtllib lever_etx_1_1.mtl
o lever_etx_1_1_child
v -0.072000 -0.118800 0.162000
v -0.072000 -0.097200 0.162000
v -0.061200 -0.118800 0.162000
v -0.061200 -0.097200 0.162000
v 0.072000 -0.118800 0.162000
v 0.072000 -0.097200 0.162000
v 0.061200 -0.118800 0.162000
v 0.061200 -0.097200 0.162000
v -0.072000 -0.126000 0.054000
v -0.072000 -0.090000 0.054000
v -0.061200 -0.126000 0.054000
v -0.061200 -0.090000 0.054000
v 0.072000 -0.126000 0.054000
v 0.072000 -0.090000 0.054000
v 0.061200 -0.126000 0.054000
v 0.061200 -0.090000 0.054000
v -0.099000 -0.108000 0.156600
v -0.099000 -0.124546 0.163454
v -0.099000 -0.091454 0.163454
v -0.099000 -0.131400 0.180000
v -0.099000 -0.124546 0.196547
v -0.099000 -0.108000 0.203400
v -0.099000 -0.084600 0.180000
v -0.099000 -0.091454 0.196547
v 0.099000 -0.108000 0.156600
v 0.099000 -0.124546 0.163454
v 0.099000 -0.091454 0.163454
v 0.099000 -0.131400 0.180000
v 0.099000 -0.124546 0.196547
v 0.099000 -0.084600 0.180000
v 0.099000 -0.108000 0.203400
v 0.099000 -0.091454 0.196547
v -0.072000 -0.126000 0.144000
v 0.072000 -0.090000 0.144000
v 0.072000 -0.126000 0.144000
v -0.104040 -0.096545 0.168545
v -0.104040 -0.108000 0.163800
v -0.104040 -0.091800 0.180000
v -0.104040 -0.119455 0.168545
v -0.104040 -0.124200 0.180000
v -0.104040 -0.119455 0.191455
v -0.104040 -0.096545 0.191455
v -0.104040 -0.108000 0.196200
v -0.099000 -0.096545 0.168545
v -0.099000 -0.108000 0.163800
v -0.099000 -0.091800 0.180000
v -0.099000 -0.119455 0.168545
v -0.099000 -0.124200 0.180000
v -0.099000 -0.096545 0.191455
v -0.099000 -0.119455 0.191455
v -0.099000 -0.108000 0.196200
v -0.112680 -0.100363 0.172363
v -0.112680 -0.108000 0.169200
v -0.112680 -0.097200 0.180000
v -0.112680 -0.115637 0.172363
v -0.112680 -0.118800 0.180000
v -0.112680 -0.115637 0.187637
v -0.112680 -0.100363 0.187637
v -0.112680 -0.108000 0.190800
v -0.104040 -0.100363 0.172363
v -0.104040 -0.108000 0.169200
v -0.104040 -0.097200 0.180000
v -0.104040 -0.115637 0.172363
v -0.104040 -0.118800 0.180000
v -0.104040 -0.100363 0.187637
v -0.104040 -0.115637 0.187637
v -0.104040 -0.108000 0.190800
v 0.104040 -0.119455 0.168545
v 0.104040 -0.108000 0.163800
v 0.104040 -0.124200 0.180000
v 0.104040 -0.096545 0.168545
v 0.104040 -0.091800 0.180000
v 0.104040 -0.096545 0.191455
v 0.104040 -0.119455 0.191455
v 0.104040 -0.108000 0.196200
v 0.099000 -0.119455 0.168545
v 0.099000 -0.108000 0.163800
v 0.099000 -0.124200 0.180000
v 0.099000 -0.096545 0.168545
v 0.099000 -0.091800 0.180000
v 0.099000 -0.119455 0.191455
v 0.099000 -0.096545 0.191455
v 0.099000 -0.108000 0.196200
v 0.112680 -0.115637 0.172364
v 0.112680 -0.108000 0.169200
v 0.112680 -0.118800 0.180000
v 0.112680 -0.100363 0.172364
v 0.112680 -0.097200 0.180000
v 0.112680 -0.100363 0.187637
v 0.112680 -0.115637 0.187637
v 0.112680 -0.108000 0.190800
v 0.104040 -0.115637 0.172364
v 0.104040 -0.108000 0.169200
v 0.104040 -0.118800 0.180000
v 0.104040 -0.100363 0.172364
v 0.104040 -0.097200 0.180000
v 0.104040 -0.115637 0.187637
v 0.104040 -0.100363 0.187637
v 0.104040 -0.108000 0.190800
v -0.061200 -0.097200 0.126000
v -0.061200 -0.118800 0.126000
v -0.072000 -0.097200 0.126000
v -0.072000 -0.118800 0.126000
v -0.072000 -0.090000 0.144000
v -0.061200 -0.090000 0.144000
v -0.061200 -0.126000 0.144000
v -0.061200 -0.090000 0.099000
v -0.061200 -0.126000 0.099000
v -0.072000 -0.090000 0.099000
v -0.072000 -0.126000 0.099000
v 0.072000 -0.097200 0.126000
v 0.072000 -0.118800 0.126000
v 0.061200 -0.097200 0.126000
v 0.061200 -0.118800 0.126000
v 0.061200 -0.090000 0.144000
v 0.061200 -0.126000 0.144000
v 0.072000 -0.090000 0.099000
v 0.072000 -0.126000 0.099000
v 0.061200 -0.090000 0.099000
v 0.061200 -0.126000 0.099000
vn -0.0000 1.0000 -0.0000
vn -1.0000 -0.0000 -0.0000
vn 1.0000 -0.0000 -0.0000
vn -0.0000 -1.0000 -0.0000
vn -0.0000 0.7071 0.7071
vn -0.0000 -0.0000 1.0000
vn -0.0000 0.7071 -0.7071
vn -0.0000 -0.0000 -1.0000
vn -0.0000 -0.7071 0.7071
vn -0.0000 -0.7071 -0.7071
vn -0.0000 -0.9285 0.3714
vn -0.0000 0.9285 0.3714
vn -0.0000 0.3827 0.9239
vn -0.0000 -0.3827 0.9239
vn -0.0000 0.9239 0.3827
vn -0.0000 0.9239 -0.3827
vn -0.0000 -0.9239 0.3827
vn -0.0000 -0.9239 -0.3827
vn -0.0000 0.3827 -0.9239
vn -0.0000 -0.3827 -0.9239
vn -0.0000 -0.9285 -0.3714
vn -0.0000 0.9285 -0.3714
vn -0.0000 -0.9662 0.2577
vn -0.0000 0.9662 0.2577
vt 0.105469 0.298772
vt 0.092969 0.258092
vt 0.102344 0.258092
vt 0.111328 0.298772
vt 0.111328 0.298772
vt 0.102344 0.258092
vt 0.092969 0.258092
vt 0.105469 0.298772
vt 0.111328 0.298772
vt 0.102344 0.258092
vt 0.092969 0.258092
vt 0.105469 0.298772
vt 0.105469 0.298772
vt 0.092969 0.258092
vt 0.102344 0.258092
vt 0.111328 0.298772
vt 0.089844 0.306641
vt 0.105469 0.250000
vt 0.111328 0.250000
vt 0.105469 0.306641
vt 0.105469 0.306641
vt 0.111328 0.250000
vt 0.105469 0.250000
vt 0.089844 0.306641
vt 0.105469 0.306641
vt 0.111328 0.250000
vt 0.105469 0.250000
vt 0.089844 0.306641
vt 0.089844 0.306641
vt 0.105469 0.250000
vt 0.111328 0.250000
vt 0.105469 0.306641
vt 0.046143 0.164424
vt 0.029297 0.126953
vt 0.041016 0.126953
vt 0.051530 0.164424
vt 0.035156 0.126953
vt 0.042334 0.168233
vt 0.035156 0.126953
vt 0.055340 0.168233
vt 0.041016 0.126953
vt 0.029297 0.126953
vt 0.055340 0.173620
vt 0.035156 0.126953
vt 0.051530 0.177429
vt 0.041016 0.126953
vt 0.029297 0.126953
vt 0.042334 0.173620
vt 0.029297 0.126953
vt 0.041016 0.126953
vt 0.046143 0.177429
vt 0.035156 0.126953
vt 0.046140 0.164424
vt 0.029297 0.197266
vt 0.041016 0.197266
vt 0.042331 0.168233
vt 0.035156 0.197266
vt 0.051527 0.164424
vt 0.035156 0.197266
vt 0.042331 0.173620
vt 0.041016 0.197266
vt 0.029297 0.197266
vt 0.046140 0.177429
vt 0.035156 0.197266
vt 0.055336 0.168233
vt 0.029297 0.197266
vt 0.041016 0.197266
vt 0.051527 0.177429
vt 0.041016 0.197266
vt 0.029297 0.197266
vt 0.055336 0.173620
vt 0.035156 0.197266
vt 0.105469 0.290458
vt 0.089844 0.266183
vt 0.105469 0.290205
vt 0.089844 0.265340
vt 0.089844 0.266183
vt 0.105469 0.290458
vt 0.089844 0.265340
vt 0.105469 0.290205
vt 0.111328 0.290458
vt 0.105469 0.266183
vt 0.111328 0.290205
vt 0.105469 0.265340
vt 0.049449 0.324219
vt 0.043909 0.324219
vt 0.047551 0.319637
vt 0.043909 0.319637
vt 0.043909 0.328801
vt 0.047551 0.328801
vt 0.043909 0.328801
vt 0.042969 0.317739
vt 0.043909 0.324219
vt 0.038387 0.319637
vt 0.043909 0.319637
vt 0.036489 0.324219
vt 0.043909 0.324219
vt 0.042969 0.330699
vt 0.043909 0.324219
vt 0.038387 0.328801
vt 0.043909 0.319637
vt 0.043909 0.328801
vt 0.045925 0.324219
vt 0.045925 0.319637
vt 0.045925 0.328801
vt 0.045925 0.328801
vt 0.045925 0.324219
vt 0.045925 0.319637
vt 0.045925 0.324219
vt 0.045925 0.324219
vt 0.045925 0.319637
vt 0.045925 0.328801
vt 0.047289 0.324219
vt 0.040453 0.324219
vt 0.046023 0.321164
vt 0.040453 0.321164
vt 0.040453 0.327273
vt 0.046023 0.327273
vt 0.040453 0.327273
vt 0.042969 0.319899
vt 0.040453 0.324219
vt 0.039914 0.321164
vt 0.040453 0.321164
vt 0.038649 0.324219
vt 0.040453 0.324219
vt 0.042969 0.328539
vt 0.040453 0.324219
vt 0.039914 0.327273
vt 0.040453 0.321164
vt 0.040453 0.327273
vt 0.047289 0.324219
vt 0.043909 0.324219
vt 0.046023 0.321164
vt 0.043909 0.321164
vt 0.043909 0.327273
vt 0.046023 0.327273
vt 0.043909 0.327273
vt 0.042969 0.319899
vt 0.043909 0.324219
vt 0.039914 0.321164
vt 0.043909 0.321164
vt 0.042969 0.328539
vt 0.043909 0.324219
vt 0.038649 0.324219
vt 0.043909 0.324219
vt 0.039914 0.327273
vt 0.043909 0.321164
vt 0.043909 0.327273
vt 0.049449 0.324219
vt 0.043909 0.324219
vt 0.047551 0.319637
vt 0.043909 0.319637
vt 0.043909 0.328801
vt 0.047551 0.328801
vt 0.043909 0.328801
vt 0.042969 0.317739
vt 0.043909 0.324219
vt 0.038387 0.319637
vt 0.043909 0.319637
vt 0.036489 0.324219
vt 0.043909 0.324219
vt 0.042969 0.330699
vt 0.043909 0.324219
vt 0.038387 0.328801
vt 0.043909 0.319637
vt 0.043909 0.328801
vt 0.045925 0.324219
vt 0.045925 0.319637
vt 0.045925 0.328801
vt 0.045925 0.328801
vt 0.045925 0.324219
vt 0.045925 0.319637
vt 0.045925 0.324219
vt 0.045925 0.324219
vt 0.045925 0.319637
vt 0.045925 0.328801
vt 0.047289 0.324219
vt 0.040453 0.324219
vt 0.046023 0.321164
vt 0.040453 0.321164
vt 0.040453 0.327273
vt 0.046023 0.327273
vt 0.040453 0.327273
vt 0.042969 0.319899
vt 0.040453 0.324219
vt 0.039914 0.321164
vt 0.040453 0.321164
vt 0.038649 0.324219
vt 0.040453 0.324219
vt 0.042969 0.328539
vt 0.040453 0.324219
vt 0.039914 0.327273
vt 0.040453 0.321164
vt 0.040453 0.327273
vt 0.047289 0.324219
vt 0.043909 0.324219
vt 0.046023 0.321164
vt 0.043909 0.321164
vt 0.043909 0.327273
vt 0.046023 0.327273
vt 0.043909 0.327273
vt 0.042969 0.319899
vt 0.043909 0.324219
vt 0.039914 0.321164
vt 0.043909 0.321164
vt 0.042969 0.328539
vt 0.043909 0.324219
vt 0.038649 0.324219
vt 0.043909 0.324219
vt 0.039914 0.327273
vt 0.043909 0.321164
vt 0.043909 0.327273
vt 0.092969 0.273769
vt 0.105469 0.281608
vt 0.092969 0.274741
vt 0.105469 0.280890
vt 0.111328 0.281608
vt 0.102344 0.273769
vt 0.111328 0.280890
vt 0.102344 0.274741
vt 0.102344 0.273769
vt 0.111328 0.281608
vt 0.102344 0.274741
vt 0.111328 0.280890
vt 0.105469 0.281608
vt 0.092969 0.273769
vt 0.105469 0.280890
vt 0.092969 0.274741
vt 0.105469 0.266183
vt 0.111328 0.290458
vt 0.105469 0.265340
vt 0.111328 0.290205
vt 0.089844 0.266183
vt 0.105469 0.290458
vt 0.089844 0.265340
vt 0.105469 0.290205
vt 0.111328 0.290458
vt 0.105469 0.266183
vt 0.111328 0.290205
vt 0.105469 0.265340
vt 0.105469 0.271072
vt 0.089844 0.285569
vt 0.089844 0.286412
vt 0.105469 0.269445
vt 0.105469 0.285569
vt 0.111328 0.271072
vt 0.111328 0.269445
vt 0.105469 0.286412
vt 0.111328 0.271072
vt 0.105469 0.285569
vt 0.105469 0.286412
vt 0.111328 0.269445
vt 0.089844 0.285569
vt 0.105469 0.271072
vt 0.105469 0.269445
vt 0.089844 0.286412
vt 0.092969 0.273769
vt 0.105469 0.281608
vt 0.092969 0.274741
vt 0.105469 0.280890
vt 0.111328 0.281608
vt 0.102344 0.273769
vt 0.111328 0.280890
vt 0.102344 0.274741
vt 0.102344 0.273769
vt 0.111328 0.281608
vt 0.102344 0.274741
vt 0.111328 0.280890
vt 0.105469 0.281608
vt 0.092969 0.273769
vt 0.105469 0.280890
vt 0.092969 0.274741
vt 0.105469 0.266183
vt 0.111328 0.290458
vt 0.105469 0.265340
vt 0.111328 0.290205
vt 0.105469 0.290458
vt 0.089844 0.266183
vt 0.105469 0.290205
vt 0.089844 0.265340
vt 0.105469 0.271072
vt 0.089844 0.285569
vt 0.089844 0.286412
vt 0.105469 0.269445
vt 0.105469 0.285569
vt 0.111328 0.271072
vt 0.111328 0.269445
vt 0.105469 0.286412
vt 0.111328 0.271072
vt 0.105469 0.285569
vt 0.105469 0.286412
vt 0.111328 0.269445
vt 0.089844 0.285569
vt 0.105469 0.271072
vt 0.105469 0.269445
vt 0.089844 0.286412
s 1
usemtl electronics_etx_part_1
f 119/289/1 117/281/1 14/27/1 16/31/1
f 109/249/1 107/241/1 12/23/1 10/19/1
f 110/253/2 109/250/2 10/20/2 9/17/2
f 117/282/3 118/285/3 13/25/3 14/28/3
f 107/242/3 108/245/3 11/21/3 12/24/3
f 120/293/2 119/290/2 16/32/2 15/29/2
f 108/246/4 110/254/4 9/18/4 11/22/4
f 118/286/4 120/294/4 15/30/4 13/26/4
f 25/53/3 27/58/3 30/65/3 32/71/3 31/68/3 29/63/3 28/60/3 26/56/3
f 23/48/2 19/38/2 17/33/2 18/36/2 20/40/2 21/43/2 22/45/2 24/51/2
f 30/66/1 23/49/1 24/52/5 32/72/5
f 32/72/5 24/52/5 22/46/6 31/69/6
f 23/50/1 30/67/1 27/59/7 19/39/7
f 19/39/7 27/59/7 25/54/8 17/34/8
f 31/70/6 22/47/6 21/44/9 29/64/9
f 29/64/9 21/44/9 20/41/4 28/61/4
f 17/35/8 25/55/8 26/57/10 18/37/10
f 18/37/10 26/57/10 28/62/4 20/42/4
f 3/5/11 1/1/11 33/73/11 106/237/11
f 4/7/3 3/6/3 106/238/3 105/233/3
f 1/2/2 2/3/2 104/229/2 33/74/2
f 2/4/12 4/8/12 105/234/12 104/230/12
f 5/9/11 7/13/11 116/277/11 35/81/11
f 7/14/2 8/15/2 115/273/2 116/278/2
f 6/11/3 5/10/3 35/82/3 34/77/3
f 8/16/12 6/12/12 34/78/12 115/274/12
f 42/98/2 38/90/2 36/85/2 37/87/2 39/92/2 40/94/2 41/96/2 43/100/2
f 49/109/13 42/99/13 43/101/13 51/111/13
f 51/112/14 43/102/14 41/97/14 50/110/14
f 42/99/15 49/109/15 46/106/15 38/91/15
f 38/91/16 46/106/16 44/103/16 36/86/16
f 50/110/17 41/97/17 40/95/17 48/108/17
f 48/108/18 40/95/18 39/93/18 47/107/18
f 36/86/19 44/103/19 45/104/19 37/88/19
f 37/89/20 45/105/20 47/107/20 39/93/20
f 60/131/3 62/136/3 65/142/3 67/146/3 66/144/3 64/140/3 63/138/3 61/133/3
f 58/126/2 54/118/2 52/113/2 53/115/2 55/120/2 56/122/2 57/124/2 59/128/2
f 65/143/13 58/127/13 59/129/13 67/147/13
f 67/148/14 59/130/14 57/125/14 66/145/14
f 58/127/15 65/143/15 62/137/15 54/119/15
f 54/119/16 62/137/16 60/132/16 52/114/16
f 66/145/17 57/125/17 56/123/17 64/141/17
f 64/141/18 56/123/18 55/121/18 63/139/18
f 52/114/19 60/132/19 61/134/19 53/116/19
f 53/117/20 61/135/20 63/139/20 55/121/20
f 74/162/3 70/154/3 68/149/3 69/151/3 71/156/3 72/158/3 73/160/3 75/164/3
f 81/173/14 74/163/14 75/165/14 83/175/14
f 83/176/13 75/166/13 73/161/13 82/174/13
f 74/163/17 81/173/17 78/170/17 70/155/17
f 70/155/18 78/170/18 76/167/18 68/150/18
f 82/174/15 73/161/15 72/159/15 80/172/15
f 80/172/16 72/159/16 71/157/16 79/171/16
f 68/150/20 76/167/20 77/168/20 69/152/20
f 69/153/19 77/169/19 79/171/19 71/157/19
f 92/195/2 94/200/2 97/206/2 99/210/2 98/208/2 96/204/2 95/202/2 93/197/2
f 90/190/3 86/182/3 84/177/3 85/179/3 87/184/3 88/186/3 89/188/3 91/192/3
f 97/207/14 90/191/14 91/193/14 99/211/14
f 99/212/13 91/194/13 89/189/13 98/209/13
f 90/191/17 97/207/17 94/201/17 86/183/17
f 86/183/18 94/201/18 92/196/18 84/178/18
f 98/209/15 89/189/15 88/187/15 96/205/15
f 96/205/16 88/187/16 87/185/16 95/203/16
f 84/178/20 92/196/20 93/198/20 85/180/20
f 85/181/19 93/199/19 95/203/19 87/185/19
f 106/239/21 33/75/21 103/225/21 101/217/21
f 105/235/3 106/240/3 101/218/3 100/213/3
f 33/76/2 104/231/2 102/221/2 103/226/2
f 104/232/22 105/236/22 100/214/22 102/222/22
f 101/219/23 103/227/23 110/255/23 108/247/23
f 100/215/3 101/220/3 108/248/3 107/243/3
f 103/228/2 102/223/2 109/251/2 110/256/2
f 102/224/24 100/216/24 107/244/24 109/252/24
f 35/83/21 116/279/21 114/269/21 112/261/21
f 116/280/2 115/275/2 113/265/2 114/270/2
f 34/79/3 35/84/3 112/262/3 111/257/3
f 115/276/22 34/80/22 111/258/22 113/266/22
f 112/263/23 114/271/23 120/295/23 118/287/23
f 114/272/2 113/267/2 119/291/2 120/296/2
f 111/259/3 112/264/3 118/288/3 117/283/3
f 113/268/24 111/260/24 117/284/24 119/292/24
o lever_etx_1_1
v -0.072000 -0.126000 0.072000
v -0.061200 -0.126000 0.072000
v -0.061200 0.126000 0.072000
v -0.072000 -0.126000 0.054000
v -0.072000 0.126000 0.054000
v -0.061200 0.126000 0.054000
v -0.061200 -0.126000 0.054000
v 0.061200 -0.126000 0.072000
v 0.061200 0.126000 0.072000
v 0.061200 -0.126000 0.054000
v 0.061200 0.126000 0.054000
v 0.072000 0.126000 0.054000
v 0.072000 -0.126000 0.054000
v -0.090000 -0.162000 0.000000
v -0.108000 -0.144000 0.000000
v -0.108000 0.144000 0.000000
v -0.090000 0.162000 0.000000
v -0.108000 -0.144000 0.072000
v -0.090000 -0.162000 0.072000
v -0.090000 0.162000 0.072000
v -0.108000 0.144000 0.072000
v -0.072000 0.126000 0.072000
v 0.108000 -0.144000 0.000000
v 0.090000 -0.162000 0.000000
v 0.090000 0.162000 0.000000
v 0.108000 0.144000 0.000000
v 0.108000 0.144000 0.072000
v 0.090000 0.162000 0.072000
v 0.072000 0.126000 0.072000
v 0.090000 -0.162000 0.072000
v 0.108000 -0.144000 0.072000
v 0.072000 -0.126000 0.072000
v -0.014319 0.122319 0.080100
v -0.020250 0.108000 0.080100
v -0.000000 0.128250 0.080100
v -0.014319 0.093681 0.080100
v -0.000000 0.087750 0.080100
v 0.014319 0.093681 0.080100
v 0.014319 0.122319 0.080100
v 0.020250 0.108000 0.080100
v -0.014319 0.122319 0.072000
v -0.020250 0.108000 0.072000
v -0.000000 0.128250 0.072000
v -0.014319 0.093681 0.072000
v -0.000000 0.087750 0.072000
v 0.014319 0.122319 0.072000
v 0.014319 0.093681 0.072000
v 0.020250 0.108000 0.072000
v -0.009546 0.117546 0.090900
v -0.013500 0.108000 0.090900
v -0.000000 0.121500 0.090900
v -0.009546 0.098454 0.090900
v -0.000000 0.094500 0.090900
v 0.009546 0.098454 0.090900
v 0.009546 0.117546 0.090900
v 0.013500 0.108000 0.090900
v -0.009546 0.117546 0.080100
v -0.013500 0.108000 0.080100
v -0.000000 0.121500 0.080100
v -0.009546 0.098454 0.080100
v -0.000000 0.094500 0.080100
v 0.009546 0.117546 0.080100
v 0.009546 0.098454 0.080100
v 0.013500 0.108000 0.080100
v -0.014319 -0.093681 0.080100
v -0.020250 -0.108000 0.080100
v 0.000000 -0.087750 0.080100
v -0.014319 -0.122319 0.080100
v 0.000000 -0.128250 0.080100
v 0.014319 -0.122319 0.080100
v 0.014319 -0.093681 0.080100
v 0.020250 -0.108000 0.080100
v -0.014319 -0.093681 0.072000
v -0.020250 -0.108000 0.072000
v 0.000000 -0.087750 0.072000
v -0.014319 -0.122319 0.072000
v 0.000000 -0.128250 0.072000
v 0.014319 -0.093681 0.072000
v 0.014319 -0.122319 0.072000
v 0.020250 -0.108000 0.072000
v -0.009546 -0.098454 0.090900
v -0.013500 -0.108000 0.090900
v 0.000000 -0.094500 0.090900
v -0.009546 -0.117546 0.090900
v 0.000000 -0.121500 0.090900
v 0.009546 -0.117546 0.090900
v 0.009546 -0.098454 0.090900
v 0.013500 -0.108000 0.090900
v -0.009546 -0.098454 0.080100
v -0.013500 -0.108000 0.080100
v 0.000000 -0.094500 0.080100
v -0.009546 -0.117546 0.080100
v 0.000000 -0.121500 0.080100
v 0.009546 -0.098454 0.080100
v 0.009546 -0.117546 0.080100
v 0.013500 -0.108000 0.080100
v -0.113400 -0.072000 0.005400
v -0.113400 0.072000 0.005400
v -0.108000 -0.072000 0.000000
v -0.108000 0.072000 0.000000
v -0.108000 -0.072000 0.054000
v -0.108000 -0.063000 0.063000
v -0.108000 0.063000 0.063000
v -0.108000 0.072000 0.054000
v -0.113400 -0.063000 0.063000
v -0.113400 -0.072000 0.054000
v -0.113400 0.072000 0.054000
v -0.113400 0.063000 0.063000
v -0.144000 -0.072000 0.005400
v -0.153000 -0.063000 0.005400
v -0.153000 0.063000 0.005400
v -0.144000 0.072000 0.005400
v -0.153000 -0.063000 0.000000
v -0.144000 -0.072000 0.000000
v -0.144000 0.072000 0.000000
v -0.153000 0.063000 0.000000
v -0.124608 0.060791 0.010170
v -0.121050 0.052200 0.010170
v -0.133200 0.064350 0.010170
v -0.124608 0.043608 0.010170
v -0.133200 0.040050 0.010170
v -0.141791 0.043608 0.010170
v -0.141791 0.060791 0.010170
v -0.145350 0.052200 0.010170
v -0.124608 0.060791 0.005310
v -0.121050 0.052200 0.005310
v -0.133200 0.064350 0.005310
v -0.124608 0.043608 0.005310
v -0.133200 0.040050 0.005310
v -0.141791 0.060791 0.005310
v -0.141791 0.043608 0.005310
v -0.145350 0.052200 0.005310
v -0.127472 0.057927 0.016650
v -0.125100 0.052200 0.016650
v -0.133200 0.060300 0.016650
v -0.127472 0.046472 0.016650
v -0.133200 0.044100 0.016650
v -0.138927 0.046472 0.016650
v -0.138927 0.057927 0.016650
v -0.141300 0.052200 0.016650
v -0.127472 0.057927 0.010170
v -0.125100 0.052200 0.010170
v -0.133200 0.060300 0.010170
v -0.127472 0.046472 0.010170
v -0.133200 0.044100 0.010170
v -0.138927 0.057927 0.010170
v -0.138927 0.046472 0.010170
v -0.141300 0.052200 0.010170
v 0.113400 -0.072000 0.005400
v 0.113400 0.072000 0.005400
v 0.108000 -0.072000 0.000000
v 0.108000 0.072000 0.000000
v 0.108000 -0.072000 0.054000
v 0.108000 -0.063000 0.063000
v 0.108000 0.063000 0.063000
v 0.108000 0.072000 0.054000
v 0.113400 -0.063000 0.063000
v 0.113400 -0.072000 0.054000
v 0.113400 0.072000 0.054000
v 0.113400 0.063000 0.063000
v 0.144000 -0.072000 0.005400
v 0.153000 -0.063000 0.005400
v 0.153000 0.063000 0.005400
v 0.144000 0.072000 0.005400
v 0.153000 -0.063000 0.000000
v 0.144000 -0.072000 0.000000
v 0.144000 0.072000 0.000000
v 0.153000 0.063000 0.000000
v 0.124609 0.060791 0.010170
v 0.121050 0.052200 0.010170
v 0.133200 0.064350 0.010170
v 0.124609 0.043608 0.010170
v 0.133200 0.040050 0.010170
v 0.141791 0.043608 0.010170
v 0.141791 0.060791 0.010170
v 0.145350 0.052200 0.010170
v 0.124609 0.060791 0.005310
v 0.121050 0.052200 0.005310
v 0.133200 0.064350 0.005310
v 0.124609 0.043608 0.005310
v 0.133200 0.040050 0.005310
v 0.141791 0.060791 0.005310
v 0.141791 0.043608 0.005310
v 0.145350 0.052200 0.005310
v 0.127472 0.057927 0.016650
v 0.125100 0.052200 0.016650
v 0.133200 0.060300 0.016650
v 0.127472 0.046472 0.016650
v 0.133200 0.044100 0.016650
v 0.138927 0.046472 0.016650
v 0.138927 0.057927 0.016650
v 0.141300 0.052200 0.016650
v 0.127472 0.057927 0.010170
v 0.125100 0.052200 0.010170
v 0.133200 0.060300 0.010170
v 0.127472 0.046472 0.010170
v 0.133200 0.044100 0.010170
v 0.138927 0.057927 0.010170
v 0.138927 0.046472 0.010170
v 0.141300 0.052200 0.010170
v -0.124608 -0.043609 0.010170
v -0.121050 -0.052200 0.010170
v -0.133200 -0.040050 0.010170
v -0.124608 -0.060792 0.010170
v -0.133200 -0.064350 0.010170
v -0.141791 -0.060792 0.010170
v -0.141791 -0.043609 0.010170
v -0.145350 -0.052200 0.010170
v -0.124608 -0.043609 0.005310
v -0.121050 -0.052200 0.005310
v -0.133200 -0.040050 0.005310
v -0.124608 -0.060792 0.005310
v -0.133200 -0.064350 0.005310
v -0.141791 -0.043609 0.005310
v -0.141791 -0.060792 0.005310
v -0.145350 -0.052200 0.005310
v -0.127472 -0.046473 0.016650
v -0.125100 -0.052200 0.016650
v -0.133200 -0.044100 0.016650
v -0.127472 -0.057928 0.016650
v -0.133200 -0.060300 0.016650
v -0.138927 -0.057928 0.016650
v -0.138927 -0.046473 0.016650
v -0.141300 -0.052200 0.016650
v -0.127472 -0.046473 0.010170
v -0.125100 -0.052200 0.010170
v -0.133200 -0.044100 0.010170
v -0.127472 -0.057928 0.010170
v -0.133200 -0.060300 0.010170
v -0.138927 -0.046473 0.010170
v -0.138927 -0.057928 0.010170
v -0.141300 -0.052200 0.010170
v 0.124609 -0.043609 0.010170
v 0.121050 -0.052200 0.010170
v 0.133200 -0.040050 0.010170
v 0.124609 -0.060792 0.010170
v 0.133200 -0.064350 0.010170
v 0.141791 -0.060792 0.010170
v 0.141791 -0.043609 0.010170
v 0.145350 -0.052200 0.010170
v 0.124609 -0.043609 0.005310
v 0.121050 -0.052200 0.005310
v 0.133200 -0.040050 0.005310
v 0.124609 -0.060792 0.005310
v 0.133200 -0.064350 0.005310
v 0.141791 -0.043609 0.005310
v 0.141791 -0.060792 0.005310
v 0.145350 -0.052200 0.005310
v 0.127472 -0.046473 0.016650
v 0.125100 -0.052200 0.016650
v 0.133200 -0.044100 0.016650
v 0.127472 -0.057928 0.016650
v 0.133200 -0.060300 0.016650
v 0.138927 -0.057928 0.016650
v 0.138927 -0.046473 0.016650
v 0.141300 -0.052200 0.016650
v 0.127472 -0.046473 0.010170
v 0.125100 -0.052200 0.010170
v 0.133200 -0.044100 0.010170
v 0.127472 -0.057928 0.010170
v 0.133200 -0.060300 0.010170
v 0.138927 -0.046473 0.010170
v 0.138927 -0.057928 0.010170
v 0.141300 -0.052200 0.010170
v 0.113400 -0.032400 0.036000
v 0.113400 -0.027001 0.036000
v 0.113400 -0.032400 0.005400
v 0.113400 -0.027001 0.005400
v 0.144000 -0.032400 0.005400
v 0.144000 -0.027001 0.005400
v 0.113400 0.027000 0.036000
v 0.113400 0.032400 0.036000
v 0.113400 0.027000 0.005400
v 0.113400 0.032400 0.005400
v 0.144000 0.027000 0.005400
v 0.144000 0.032400 0.005400
v -0.113400 -0.032400 0.036000
v -0.113400 -0.027001 0.036000
v -0.113400 -0.032400 0.005400
v -0.113400 -0.027001 0.005400
v -0.144000 -0.032400 0.005400
v -0.144000 -0.027001 0.005400
v -0.113400 0.027000 0.036000
v -0.113400 0.032400 0.036000
v -0.113400 0.027000 0.005400
v -0.113400 0.032400 0.005400
v -0.144000 0.027000 0.005400
v -0.144000 0.032400 0.005400
vn -1.0000 -0.0000 -0.0000
vn -0.0000 -0.0000 1.0000
vn -0.0000 1.0000 -0.0000
vn 1.0000 -0.0000 -0.0000
vn -0.0000 -1.0000 -0.0000
vn -0.7071 -0.7071 -0.0000
vn -0.7071 0.7071 -0.0000
vn 0.7071 -0.7071 -0.0000
vn 0.7071 0.7071 -0.0000
vn 0.9239 0.3827 -0.0000
vn 0.9239 -0.3827 -0.0000
vn 0.3827 0.9239 -0.0000
vn -0.3827 0.9239 -0.0000
vn 0.3827 -0.9239 -0.0000
vn -0.3827 -0.9239 -0.0000
vn -0.9239 0.3827 -0.0000
vn -0.9239 -0.3827 -0.0000
vn -0.0000 -0.0000 -1.0000
vn -0.0000 -0.7071 0.7071
vn -0.0000 0.7071 0.7071
vn 0.7071 -0.0000 0.7071
vn -0.7071 -0.0000 0.7071
vt 0.033203 0.205078
vt 0.033203 0.207031
vt 0.042845 0.013828
vt 0.033203 0.207031
vt 0.033203 0.201172
vt 0.046993 0.013828
vt 0.033203 0.308594
vt 0.033203 0.201172
vt 0.046993 0.110624
vt 0.029297 0.207031
vt 0.041016 0.205078
vt 0.041016 0.207031
vt 0.029297 0.308594
vt 0.041016 0.308594
vt 0.041016 0.205078
vt 0.041016 0.308594
vt 0.033203 0.308594
vt 0.041016 0.201172
vt 0.041016 0.207031
vt 0.033203 0.207031
vt 0.041016 0.201172
vt 0.033203 0.205078
vt 0.033203 0.207031
vt 0.094008 0.013828
vt 0.033203 0.308594
vt 0.033203 0.205078
vt 0.094008 0.110624
vt 0.029297 0.207031
vt 0.041016 0.205078
vt 0.041016 0.207031
vt 0.029297 0.308594
vt 0.041016 0.308594
vt 0.041016 0.205078
vt 0.041016 0.308594
vt 0.033203 0.308594
vt 0.041016 0.201172
vt 0.041016 0.207031
vt 0.033203 0.207031
vt 0.041016 0.201172
vt 0.027344 0.398438
vt 0.027344 0.000000
vt 0.027344 0.388672
vt 0.027344 0.277344
vt 0.027344 0.267578
vt 0.029017 0.006914
vt 0.000000 0.388672
vt 0.000000 0.398438
vt 0.000000 0.000000
vt 0.035931 0.000000
vt 0.000000 0.267578
vt 0.035931 0.124452
vt 0.029017 0.117538
vt 0.000000 0.277344
vt 0.033203 0.308594
vt 0.033203 0.205078
vt 0.042845 0.110624
vt 0.027344 0.078125
vt 0.027344 0.068359
vt 0.027344 0.199219
vt 0.027344 0.189453
vt 0.111985 0.117538
vt 0.000000 0.189453
vt 0.000000 0.199219
vt 0.105071 0.124452
vt 0.033203 0.308594
vt 0.033203 0.201172
vt 0.098157 0.110624
vt 0.000000 0.068359
vt 0.105071 0.000000
vt 0.111985 0.006914
vt 0.000000 0.078125
vt 0.033203 0.207031
vt 0.033203 0.201172
vt 0.098157 0.013828
vt 0.054969 0.324219
vt 0.043642 0.324219
vt 0.051454 0.315733
vt 0.043642 0.315733
vt 0.043642 0.332704
vt 0.051454 0.332704
vt 0.043642 0.332704
vt 0.042969 0.312219
vt 0.043642 0.324219
vt 0.034483 0.315733
vt 0.043642 0.315733
vt 0.030969 0.324219
vt 0.043642 0.324219
vt 0.042969 0.336219
vt 0.043642 0.324219
vt 0.034483 0.332704
vt 0.043642 0.315733
vt 0.043642 0.332704
vt 0.048442 0.324219
vt 0.048442 0.315733
vt 0.048442 0.332704
vt 0.048442 0.332704
vt 0.048442 0.324219
vt 0.048442 0.315733
vt 0.048442 0.324219
vt 0.048442 0.324219
vt 0.048442 0.315733
vt 0.048442 0.332704
vt 0.050969 0.324219
vt 0.037242 0.324219
vt 0.048626 0.318562
vt 0.037242 0.318562
vt 0.037242 0.329876
vt 0.048626 0.329876
vt 0.037242 0.329876
vt 0.042969 0.316219
vt 0.037242 0.324219
vt 0.037242 0.318562
vt 0.034969 0.324219
vt 0.037242 0.324219
vt 0.042969 0.332219
vt 0.037242 0.324219
vt 0.037242 0.318562
vt 0.037242 0.329876
vt 0.050969 0.324219
vt 0.043642 0.324219
vt 0.048626 0.318562
vt 0.043642 0.318562
vt 0.043642 0.329876
vt 0.048626 0.329876
vt 0.043642 0.329876
vt 0.042969 0.316219
vt 0.043642 0.324219
vt 0.037312 0.318562
vt 0.043642 0.318562
vt 0.042969 0.332219
vt 0.043642 0.324219
vt 0.034969 0.324219
vt 0.043642 0.324219
vt 0.037312 0.329876
vt 0.043642 0.318562
vt 0.043642 0.329876
vt 0.054969 0.324219
vt 0.043642 0.324219
vt 0.051454 0.315733
vt 0.043642 0.315733
vt 0.043642 0.332704
vt 0.051454 0.332704
vt 0.043642 0.332704
vt 0.042969 0.312219
vt 0.043642 0.324219
vt 0.034483 0.315733
vt 0.043642 0.315733
vt 0.030969 0.324219
vt 0.043642 0.324219
vt 0.042969 0.336219
vt 0.043642 0.324219
vt 0.034483 0.332704
vt 0.043642 0.315733
vt 0.043642 0.332704
vt 0.048442 0.324219
vt 0.048442 0.315733
vt 0.048442 0.332704
vt 0.048442 0.332704
vt 0.048442 0.324219
vt 0.048442 0.315733
vt 0.048442 0.324219
vt 0.048442 0.324219
vt 0.048442 0.315733
vt 0.048442 0.332704
vt 0.050969 0.324219
vt 0.037242 0.324219
vt 0.048626 0.318562
vt 0.037242 0.318562
vt 0.037242 0.329876
vt 0.048626 0.329876
vt 0.037242 0.329876
vt 0.042969 0.316219
vt 0.037242 0.324219
vt 0.037242 0.318562
vt 0.034969 0.324219
vt 0.037242 0.324219
vt 0.042969 0.332219
vt 0.037242 0.324219
vt 0.037242 0.318562
vt 0.037242 0.329876
vt 0.050969 0.324219
vt 0.043642 0.324219
vt 0.048626 0.318562
vt 0.043642 0.318562
vt 0.043642 0.329876
vt 0.048626 0.329876
vt 0.043642 0.329876
vt 0.042969 0.316219
vt 0.043642 0.324219
vt 0.037312 0.318562
vt 0.043642 0.318562
vt 0.042969 0.332219
vt 0.043642 0.324219
vt 0.034969 0.324219
vt 0.043642 0.324219
vt 0.037312 0.329876
vt 0.043642 0.318562
vt 0.043642 0.329876
vt 0.129760 0.242226
vt 0.121094 0.242227
vt 0.121094 0.287098
vt 0.121094 0.287098
vt 0.129761 0.295560
vt 0.121094 0.295560
vt 0.119094 0.289098
vt 0.119094 0.289098
vt 0.119094 0.269098
vt 0.119094 0.289098
vt 0.119094 0.246098
vt 0.119094 0.285765
vt 0.119094 0.292765
vt 0.119094 0.272432
vt 0.119094 0.269098
vt 0.119094 0.275765
vt 0.108427 0.245560
vt 0.121094 0.246098
vt 0.121094 0.285765
vt 0.121094 0.269098
vt 0.111761 0.242226
vt 0.121094 0.289098
vt 0.121094 0.269098
vt 0.111761 0.295560
vt 0.121094 0.275765
vt 0.108427 0.292227
vt 0.121094 0.292765
vt 0.121094 0.272432
vt 0.132427 0.242227
vt 0.132427 0.287098
vt 0.119111 0.259096
vt 0.119110 0.245762
vt 0.135761 0.245560
vt 0.119110 0.262430
vt 0.119110 0.292429
vt 0.135761 0.292227
vt 0.119110 0.289096
vt 0.132427 0.287098
vt 0.132427 0.295560
vt 0.119110 0.292429
vt 0.121110 0.245762
vt 0.121110 0.262430
vt 0.132427 0.289098
vt 0.121111 0.259096
vt 0.132427 0.289098
vt 0.121110 0.292429
vt 0.121110 0.292429
vt 0.121110 0.289096
vt 0.048009 0.324219
vt 0.043252 0.324219
vt 0.046533 0.320655
vt 0.043252 0.320655
vt 0.043252 0.327783
vt 0.046533 0.327783
vt 0.043252 0.327783
vt 0.042969 0.319179
vt 0.043252 0.324219
vt 0.039405 0.320655
vt 0.043252 0.320655
vt 0.037929 0.324219
vt 0.043252 0.324219
vt 0.042969 0.329259
vt 0.043252 0.324219
vt 0.039405 0.327783
vt 0.043252 0.320655
vt 0.043252 0.327783
vt 0.045268 0.324219
vt 0.045268 0.320655
vt 0.045268 0.327783
vt 0.045268 0.327783
vt 0.045268 0.324219
vt 0.045268 0.320655
vt 0.045268 0.324219
vt 0.045268 0.324219
vt 0.045268 0.320655
vt 0.045268 0.327783
vt 0.046329 0.324219
vt 0.040564 0.324219
vt 0.045345 0.321843
vt 0.040564 0.321843
vt 0.040564 0.326595
vt 0.045345 0.326595
vt 0.040564 0.326595
vt 0.042969 0.320859
vt 0.040564 0.324219
vt 0.040564 0.321843
vt 0.039609 0.324219
vt 0.040564 0.324219
vt 0.042969 0.327579
vt 0.040564 0.324219
vt 0.040564 0.321843
vt 0.040564 0.326595
vt 0.046329 0.324219
vt 0.043252 0.324219
vt 0.045345 0.321843
vt 0.043252 0.321843
vt 0.043252 0.326595
vt 0.045345 0.326595
vt 0.043252 0.326595
vt 0.042969 0.320859
vt 0.043252 0.324219
vt 0.040593 0.321843
vt 0.043252 0.321843
vt 0.042969 0.327579
vt 0.043252 0.324219
vt 0.039609 0.324219
vt 0.043252 0.324219
vt 0.040593 0.326595
vt 0.043252 0.321843
vt 0.043252 0.326595
vt 0.129761 0.242227
vt 0.121094 0.242227
vt 0.121094 0.287098
vt 0.121094 0.287098
vt 0.129761 0.295560
vt 0.121094 0.295560
vt 0.119094 0.289098
vt 0.119094 0.289098
vt 0.119094 0.269098
vt 0.119094 0.289098
vt 0.119094 0.246098
vt 0.119094 0.285765
vt 0.119094 0.292765
vt 0.119094 0.272432
vt 0.119094 0.269098
vt 0.119094 0.275765
vt 0.108427 0.245560
vt 0.121094 0.246098
vt 0.121094 0.285765
vt 0.121094 0.269098
vt 0.111760 0.242227
vt 0.121094 0.289098
vt 0.121094 0.269098
vt 0.111761 0.295560
vt 0.121094 0.275765
vt 0.108427 0.292227
vt 0.121094 0.292765
vt 0.121094 0.272432
vt 0.132427 0.242227
vt 0.132427 0.287098
vt 0.119110 0.259096
vt 0.119110 0.245762
vt 0.135761 0.245560
vt 0.119110 0.262429
vt 0.119110 0.292429
vt 0.135761 0.292227
vt 0.119110 0.289096
vt 0.132427 0.287098
vt 0.132427 0.295560
vt 0.119110 0.292429
vt 0.121110 0.245762
vt 0.121110 0.262429
vt 0.132427 0.289098
vt 0.121110 0.259096
vt 0.132427 0.289098
vt 0.121110 0.292429
vt 0.121110 0.292429
vt 0.121110 0.289096
vt 0.048009 0.324219
vt 0.043252 0.324219
vt 0.046533 0.320655
vt 0.043252 0.320655
vt 0.043252 0.327783
vt 0.046533 0.327783
vt 0.043252 0.327783
vt 0.042969 0.319179
vt 0.043252 0.324219
vt 0.039405 0.320655
vt 0.043252 0.320655
vt 0.037929 0.324219
vt 0.043252 0.324219
vt 0.042969 0.329259
vt 0.043252 0.324219
vt 0.039405 0.327783
vt 0.043252 0.320655
vt 0.043252 0.327783
vt 0.045268 0.324219
vt 0.045268 0.320655
vt 0.045268 0.327783
vt 0.045268 0.327783
vt 0.045268 0.324219
vt 0.045268 0.320655
vt 0.045268 0.324219
vt 0.045268 0.324219
vt 0.045268 0.320655
vt 0.045268 0.327783
vt 0.046329 0.324219
vt 0.040564 0.324219
vt 0.045345 0.321843
vt 0.040564 0.321843
vt 0.040564 0.326595
vt 0.045345 0.326595
vt 0.040564 0.326595
vt 0.042969 0.320859
vt 0.040564 0.324219
vt 0.040564 0.321843
vt 0.039609 0.324219
vt 0.040564 0.324219
vt 0.042969 0.327579
vt 0.040564 0.324219
vt 0.040564 0.321843
vt 0.040564 0.326595
vt 0.046329 0.324219
vt 0.043252 0.324219
vt 0.045345 0.321843
vt 0.043252 0.321843
vt 0.043252 0.326595
vt 0.045345 0.326595
vt 0.043252 0.326595
vt 0.042969 0.320859
vt 0.043252 0.324219
vt 0.040593 0.321843
vt 0.043252 0.321843
vt 0.042969 0.327579
vt 0.043252 0.324219
vt 0.039609 0.324219
vt 0.043252 0.324219
vt 0.040593 0.326595
vt 0.043252 0.321843
vt 0.043252 0.326595
vt 0.048009 0.324219
vt 0.043252 0.324219
vt 0.046533 0.320655
vt 0.043252 0.320655
vt 0.043252 0.327783
vt 0.046533 0.327783
vt 0.043252 0.327783
vt 0.042969 0.319179
vt 0.043252 0.324219
vt 0.039405 0.320655
vt 0.043252 0.320655
vt 0.037929 0.324219
vt 0.043252 0.324219
vt 0.042969 0.329259
vt 0.043252 0.324219
vt 0.039405 0.327783
vt 0.043252 0.320655
vt 0.043252 0.327783
vt 0.045268 0.324219
vt 0.045268 0.320655
vt 0.045268 0.327783
vt 0.045268 0.327783
vt 0.045268 0.324219
vt 0.045268 0.320655
vt 0.045268 0.324219
vt 0.045268 0.324219
vt 0.045268 0.320655
vt 0.045268 0.327783
vt 0.046329 0.324219
vt 0.040564 0.324219
vt 0.045345 0.321843
vt 0.040564 0.321843
vt 0.040564 0.326595
vt 0.045345 0.326595
vt 0.040564 0.326595
vt 0.042969 0.320859
vt 0.040564 0.324219
vt 0.040564 0.321843
vt 0.039609 0.324219
vt 0.040564 0.324219
vt 0.042969 0.327579
vt 0.040564 0.324219
vt 0.040564 0.321843
vt 0.040564 0.326595
vt 0.046329 0.324219
vt 0.043252 0.324219
vt 0.045345 0.321843
vt 0.043252 0.321843
vt 0.043252 0.326595
vt 0.045345 0.326595
vt 0.043252 0.326595
vt 0.042969 0.320859
vt 0.043252 0.324219
vt 0.040593 0.321843
vt 0.043252 0.321843
vt 0.042969 0.327579
vt 0.043252 0.324219
vt 0.039609 0.324219
vt 0.043252 0.324219
vt 0.040593 0.326595
vt 0.043252 0.321843
vt 0.043252 0.326595
vt 0.048009 0.324219
vt 0.043252 0.324219
vt 0.046533 0.320655
vt 0.043252 0.320655
vt 0.043252 0.327783
vt 0.046533 0.327783
vt 0.043252 0.327783
vt 0.042969 0.319179
vt 0.043252 0.324219
vt 0.039405 0.320655
vt 0.043252 0.320655
vt 0.037929 0.324219
vt 0.043252 0.324219
vt 0.042969 0.329259
vt 0.043252 0.324219
vt 0.039405 0.327783
vt 0.043252 0.320655
vt 0.043252 0.327783
vt 0.045268 0.324219
vt 0.045268 0.320655
vt 0.045268 0.327783
vt 0.045268 0.327783
vt 0.045268 0.324219
vt 0.045268 0.320655
vt 0.045268 0.324219
vt 0.045268 0.324219
vt 0.045268 0.320655
vt 0.045268 0.327783
vt 0.046329 0.324219
vt 0.040564 0.324219
vt 0.045345 0.321843
vt 0.040564 0.321843
vt 0.040564 0.326595
vt 0.045345 0.326595
vt 0.040564 0.326595
vt 0.042969 0.320859
vt 0.040564 0.324219
vt 0.040564 0.321843
vt 0.039609 0.324219
vt 0.040564 0.324219
vt 0.042969 0.327579
vt 0.040564 0.324219
vt 0.040564 0.321843
vt 0.040564 0.326595
vt 0.046329 0.324219
vt 0.043252 0.324219
vt 0.045345 0.321843
vt 0.043252 0.321843
vt 0.043252 0.326595
vt 0.045345 0.326595
vt 0.043252 0.326595
vt 0.042969 0.320859
vt 0.043252 0.324219
vt 0.040593 0.321843
vt 0.043252 0.321843
vt 0.042969 0.327579
vt 0.043252 0.324219
vt 0.039609 0.324219
vt 0.043252 0.324219
vt 0.040593 0.326595
vt 0.043252 0.321843
vt 0.043252 0.326595
vt 0.115234 0.289062
vt 0.109375 0.289062
vt 0.115234 0.273438
vt 0.111328 0.289062
vt 0.107422 0.281250
vt 0.107422 0.281250
vt 0.115234 0.273438
vt 0.109375 0.273438
vt 0.115234 0.289062
vt 0.111328 0.273438
vt 0.115234 0.289062
vt 0.109375 0.289062
vt 0.115234 0.273438
vt 0.111328 0.289062
vt 0.107422 0.281250
vt 0.107422 0.281250
vt 0.115234 0.273438
vt 0.109375 0.273438
vt 0.115234 0.289062
vt 0.111328 0.273438
vt 0.115234 0.289062
vt 0.109375 0.289062
vt 0.115234 0.273438
vt 0.111328 0.289062
vt 0.107422 0.281250
vt 0.107422 0.281250
vt 0.115234 0.273438
vt 0.109375 0.273438
vt 0.115234 0.289062
vt 0.111328 0.273438
vt 0.115234 0.289062
vt 0.109375 0.289062
vt 0.115234 0.273438
vt 0.111328 0.289062
vt 0.107422 0.281250
vt 0.107422 0.281250
vt 0.115234 0.273438
vt 0.109375 0.273438
vt 0.115234 0.289062
vt 0.111328 0.273438
s 0
usemtl electronics_etx_part_1
f 122/300/25 123/303/25 126/312/25 127/315/25
f 121/299/26 142/352/26 141/348/26 138/341/26
f 127/316/26 126/313/26 125/309/26 124/306/26
f 121/297/27 122/301/27 127/317/27 124/307/27
f 142/350/28 121/298/28 124/308/28 125/310/28
f 123/304/29 142/351/29 125/311/29 126/314/29
f 149/363/26 152/370/26 151/366/26 147/357/26
f 152/368/25 149/361/25 132/330/25 133/333/25
f 143/353/28 146/356/28 147/358/28 151/367/28
f 133/334/26 132/331/26 131/327/26 130/324/26
f 128/318/27 152/369/27 133/335/27 130/325/27
f 129/321/28 128/319/28 130/326/28 131/328/28
f 149/362/29 129/322/29 131/329/29 132/332/29
f 138/342/25 141/349/25 136/339/25 135/338/25
f 145/355/27 137/340/27 140/346/27 148/359/27
f 128/320/26 150/365/26 152/370/26
f 138/341/26 139/345/26 121/299/26
f 140/347/26 141/348/26 142/352/26
f 147/357/26 148/360/26 149/363/26
f 150/365/26 151/366/26 152/370/26
f 134/336/30 139/343/30 138/342/30 135/338/30
f 140/346/31 137/340/31 136/339/31 141/349/31
f 150/364/32 144/354/32 143/353/32 151/367/32
f 145/355/33 148/359/33 147/358/33 146/356/33
f 144/354/29 150/364/29 139/344/29 134/337/29
f 139/345/26 122/302/26 121/299/26
f 123/305/26 140/347/26 142/352/26
f 128/320/26 122/302/26 139/345/26 150/365/26
f 149/363/26 148/360/26 129/323/26
f 129/323/26 123/305/26 122/302/26 128/320/26
f 148/360/26 140/347/26 123/305/26 129/323/26
f 159/384/26 155/376/26 153/371/26 154/373/26 156/378/26 157/380/26 158/382/26 160/386/26
f 166/395/34 159/385/34 160/387/34 168/397/34
f 168/398/35 160/388/35 158/383/35 167/396/35
f 159/385/36 166/395/36 163/392/36 155/377/36
f 155/377/37 163/392/37 161/389/37 153/372/37
f 167/396/38 158/383/38 157/381/38 165/394/38
f 165/394/39 157/381/39 156/379/39 164/393/39
f 153/372/40 161/389/40 162/390/40 154/374/40
f 154/375/41 162/391/41 164/393/41 156/379/41
f 177/415/42 179/420/42 182/426/42 184/430/42 183/428/42 181/424/42 180/422/42 178/417/42
f 175/411/26 171/404/26 169/399/26 170/401/26 172/406/26 173/408/26 174/409/26 176/414/26
f 182/427/34 175/412/34 176/413/34 184/431/34
f 184/432/35 176/414/35 174/410/35 183/429/35
f 175/412/36 182/427/36 179/421/36 171/405/36
f 171/405/37 179/421/37 177/416/37 169/400/37
f 183/429/38 174/410/38 173/408/38 181/425/38
f 181/425/39 173/408/39 172/407/39 180/423/39
f 169/400/40 177/416/40 178/418/40 170/402/40
f 170/403/41 178/419/41 180/423/41 172/407/41
f 191/446/26 187/438/26 185/433/26 186/435/26 188/440/26 189/442/26 190/444/26 192/448/26
f 198/457/34 191/447/34 192/449/34 200/459/34
f 200/460/35 192/450/35 190/445/35 199/458/35
f 191/447/36 198/457/36 195/454/36 187/439/36
f 187/439/37 195/454/37 193/451/37 185/434/37
f 199/458/38 190/445/38 189/443/38 197/456/38
f 197/456/39 189/443/39 188/441/39 196/455/39
f 185/434/40 193/451/40 194/452/40 186/436/40
f 186/437/41 194/453/41 196/455/41 188/441/41
f 209/477/42 211/482/42 214/488/42 216/492/42 215/490/42 213/486/42 212/484/42 210/479/42
f 207/473/26 203/466/26 201/461/26 202/463/26 204/468/26 205/470/26 206/471/26 208/476/26
f 214/489/34 207/474/34 208/475/34 216/493/34
f 216/494/35 208/476/35 206/472/35 215/491/35
f 207/474/36 214/489/36 211/483/36 203/467/36
f 203/467/37 211/483/37 209/478/37 201/462/37
f 215/491/38 206/472/38 205/470/38 213/487/38
f 213/487/39 205/470/39 204/469/39 212/485/39
f 201/462/40 209/478/40 210/480/40 202/464/40
f 202/465/41 210/481/41 212/485/41 204/469/41
f 218/498/27 227/517/27 224/509/27 220/502/27
f 218/498/27 220/502/27 235/539/27 232/532/27
f 231/529/25 236/541/25 233/535/25 230/526/25
f 221/503/29 226/514/29 217/497/29 219/501/29
f 217/495/25 226/515/25 225/511/25 228/520/25 227/518/25 218/499/25
f 218/500/26 232/533/26 231/530/26 230/527/26 229/523/26 217/496/26
f 219/501/29 217/497/29 229/524/29 234/537/29
f 225/512/26 222/505/26 223/507/26 228/521/26
f 221/504/43 222/506/43 225/513/43 226/516/43
f 227/519/44 228/522/44 223/508/44 224/510/44
f 229/525/30 230/528/30 233/536/30 234/538/30
f 235/540/31 236/542/31 231/531/31 232/534/31
f 243/556/26 244/558/26 242/554/26 241/552/26 240/550/26 238/545/26 237/543/26 239/548/26
f 250/567/40 252/569/40 244/559/40 243/557/40
f 252/570/41 251/568/41 242/555/41 244/560/41
f 243/557/37 239/549/37 247/564/37 250/567/37
f 239/549/36 237/544/36 245/561/36 247/564/36
f 251/568/39 249/566/39 241/553/39 242/555/39
f 249/566/38 248/565/38 240/551/38 241/553/38
f 237/544/34 238/546/34 246/562/34 245/561/34
f 238/547/35 240/551/35 248/565/35 246/563/35
f 261/587/42 262/589/42 264/594/42 265/596/42 267/600/42 268/602/42 266/598/42 263/592/42
f 259/583/26 260/586/26 258/581/26 257/580/26 256/578/26 254/573/26 253/571/26 255/576/26
f 266/599/40 268/603/40 260/585/40 259/584/40
f 268/604/41 267/601/41 258/582/41 260/586/41
f 259/584/37 255/577/37 263/593/37 266/599/37
f 255/577/36 253/572/36 261/588/36 263/593/36
f 267/601/39 265/597/39 257/580/39 258/582/39
f 265/597/38 264/595/38 256/579/38 257/580/38
f 253/572/34 254/574/34 262/590/34 261/588/34
f 254/575/35 256/579/35 264/595/35 262/591/35
f 270/608/27 272/612/27 276/619/27 279/627/27
f 270/608/27 284/642/27 287/649/27 272/612/27
f 283/639/28 282/636/28 285/645/28 288/651/28
f 273/613/29 271/611/29 269/607/29 278/624/29
f 269/605/28 270/609/28 279/628/28 280/630/28 277/621/28 278/625/28
f 270/610/26 269/606/26 281/633/26 282/637/26 283/640/26 284/643/26
f 271/611/29 286/647/29 281/634/29 269/607/29
f 277/622/26 280/631/26 275/617/26 274/615/26
f 273/614/43 278/626/43 277/623/43 274/616/43
f 279/629/44 276/620/44 275/618/44 280/632/44
f 281/635/32 286/648/32 285/646/32 282/638/32
f 287/650/33 284/644/33 283/641/33 288/652/33
f 295/666/26 291/658/26 289/653/26 290/655/26 292/660/26 293/662/26 294/664/26 296/668/26
f 302/677/34 295/667/34 296/669/34 304/679/34
f 304/680/35 296/670/35 294/665/35 303/678/35
f 295/667/36 302/677/36 299/674/36 291/659/36
f 291/659/37 299/674/37 297/671/37 289/654/37
f 303/678/38 294/665/38 293/663/38 301/676/38
f 301/676/39 293/663/39 292/661/39 300/675/39
f 289/654/40 297/671/40 298/672/40 290/656/40
f 290/657/41 298/673/41 300/675/41 292/661/41
f 313/697/42 315/702/42 318/708/42 320/712/42 319/710/42 317/706/42 316/704/42 314/699/42
f 311/693/26 307/686/26 305/681/26 306/683/26 308/688/26 309/690/26 310/691/26 312/696/26
f 318/709/34 311/694/34 312/695/34 320/713/34
f 320/714/35 312/696/35 310/692/35 319/711/35
f 311/694/36 318/709/36 315/703/36 307/687/36
f 307/687/37 315/703/37 313/698/37 305/682/37
f 319/711/38 310/692/38 309/690/38 317/707/38
f 317/707/39 309/690/39 308/689/39 316/705/39
f 305/682/40 313/698/40 314/700/40 306/684/40
f 306/685/41 314/701/41 316/705/41 308/689/41
f 327/728/26 328/730/26 326/726/26 325/724/26 324/722/26 322/717/26 321/715/26 323/720/26
f 334/739/40 336/741/40 328/731/40 327/729/40
f 336/742/41 335/740/41 326/727/41 328/732/41
f 327/729/37 323/721/37 331/736/37 334/739/37
f 323/721/36 321/716/36 329/733/36 331/736/36
f 335/740/39 333/738/39 325/725/39 326/727/39
f 333/738/38 332/737/38 324/723/38 325/725/38
f 321/716/34 322/718/34 330/734/34 329/733/34
f 322/719/35 324/723/35 332/737/35 330/735/35
f 345/759/42 346/761/42 348/766/42 349/768/42 351/772/42 352/774/42 350/770/42 347/764/42
f 343/755/26 344/758/26 342/753/26 341/752/26 340/750/26 338/745/26 337/743/26 339/748/26
f 350/771/40 352/775/40 344/757/40 343/756/40
f 352/776/41 351/773/41 342/754/41 344/758/41
f 343/756/37 339/749/37 347/765/37 350/771/37
f 339/749/36 337/744/36 345/760/36 347/765/36
f 351/773/39 349/769/39 341/752/39 342/754/39
f 349/769/38 348/767/38 340/751/38 341/752/38
f 337/744/34 338/746/34 346/762/34 345/760/34
f 338/747/35 340/751/35 348/767/35 346/763/35
f 359/790/26 355/782/26 353/777/26 354/779/26 356/784/26 357/786/26 358/788/26 360/792/26
f 366/801/34 359/791/34 360/793/34 368/803/34
f 368/804/35 360/794/35 358/789/35 367/802/35
f 359/791/36 366/801/36 363/798/36 355/783/36
f 355/783/37 363/798/37 361/795/37 353/778/37
f 367/802/38 358/789/38 357/787/38 365/800/38
f 365/800/39 357/787/39 356/785/39 364/799/39
f 353/778/40 361/795/40 362/796/40 354/780/40
f 354/781/41 362/797/41 364/799/41 356/785/41
f 377/821/42 379/826/42 382/832/42 384/836/42 383/834/42 381/830/42 380/828/42 378/823/42
f 375/817/26 371/810/26 369/805/26 370/807/26 372/812/26 373/814/26 374/815/26 376/820/26
f 382/833/34 375/818/34 376/819/34 384/837/34
f 384/838/35 376/820/35 374/816/35 383/835/35
f 375/818/36 382/833/36 379/827/36 371/811/36
f 371/811/37 379/827/37 377/822/37 369/806/37
f 383/835/38 374/816/38 373/814/38 381/831/38
f 381/831/39 373/814/39 372/813/39 380/829/39
f 369/806/40 377/822/40 378/824/40 370/808/40
f 370/809/41 378/825/41 380/829/41 372/813/41
f 387/843/29 389/845/29 385/839/29
f 390/847/27 388/844/27 386/841/27
f 390/848/45 386/842/45 385/840/45 389/846/45
f 393/853/29 395/855/29 391/849/29
f 396/857/27 394/854/27 392/851/27
f 396/858/45 392/852/45 391/850/45 395/856/45
f 399/863/29 397/859/29 401/865/29
f 402/867/27 398/861/27 400/864/27
f 402/868/46 401/866/46 397/860/46 398/862/46
f 405/873/29 403/869/29 407/875/29
f 408/877/27 404/871/27 406/874/27
f 408/878/46 407/876/46 403/870/46 404/872/46
