# Blender 3.4.0
# www.blender.org
mtllib panel_etx_2.mtl
o panel_etx_1_button_child_1
v -0.305400 0.012463 0.186627
v -0.348600 0.012463 0.186627
v -0.305400 -0.002592 0.163826
v -0.348600 -0.002592 0.163826
v -0.305400 0.079227 0.168737
v -0.348600 0.079227 0.168737
v -0.305400 0.080864 0.141464
v -0.348600 0.080864 0.141464
v -0.305400 0.039136 0.152645
v -0.348600 0.039136 0.152645
v -0.305400 0.043609 0.169337
v -0.348600 0.043609 0.169337
vn -0.0000 -0.8345 0.5510
vn -0.0000 0.9982 0.0599
vn -0.0000 0.4854 0.8743
vn 1.0000 -0.0000 -0.0000
vn -1.0000 -0.0000 -0.0000
vn -0.0000 0.0168 0.9999
vt 0.087891 0.359375
vt 0.121094 0.361328
vt 0.091720 0.357214
vt 0.087891 0.339844
vt 0.121094 0.341797
vt 0.091716 0.357135
vt 0.099609 0.359375
vt 0.087776 0.346288
vt 0.099609 0.339844
vt 0.087778 0.346319
vt 0.087891 0.359375
vt 0.123801 0.357214
vt 0.136719 0.361328
vt 0.087891 0.339844
vt 0.123805 0.357135
vt 0.136719 0.341797
vt 0.099609 0.359375
vt 0.127745 0.346288
vt 0.099609 0.339844
vt 0.127743 0.346319
vt 0.107778 0.346322
vt 0.107741 0.346356
vt 0.136719 0.361328
vt 0.107733 0.353457
vt 0.121094 0.361328
vt 0.136719 0.341797
vt 0.107791 0.353404
vt 0.121094 0.341797
s 0
usemtl electronics_etx_part_1
f 1/1/1 2/4/1 4/9/1 3/7/1
f 7/17/2 8/19/2 6/14/2 5/11/2
f 11/23/3 12/26/3 2/5/3 1/2/3
f 9/21/4 7/18/4 5/12/4 11/24/4
f 10/22/5 4/10/5 2/6/5 12/27/5
f 8/20/5 10/22/5 12/27/5 6/15/5
f 3/8/4 9/21/4 11/24/4 1/3/4
f 5/13/6 6/16/6 12/28/6 11/25/6
o panel_etx_2
v 0.084200 -0.009400 0.160000
v 0.141800 0.091400 0.160000
v 0.084200 0.091400 0.160000
v 0.136040 -0.003640 0.166800
v 0.089960 -0.003640 0.166800
v 0.141800 -0.009400 0.160000
v 0.136040 0.085640 0.166800
v 0.089960 0.085640 0.166800
v 0.141800 -0.009400 0.166800
v 0.084200 -0.009400 0.166800
v 0.084200 0.091400 0.166800
v 0.141800 0.091400 0.166800
v 0.136040 -0.003640 0.152400
v 0.089960 -0.003640 0.152400
v 0.089960 0.085640 0.152400
v 0.136040 0.085640 0.152400
v -0.181000 0.183000 0.140000
v 0.185000 0.183000 0.140000
v -0.220000 0.300000 0.000000
v 0.220000 0.300000 0.000000
v -0.172455 0.268473 0.145047
v -0.178690 0.276582 0.145047
v -0.173779 0.258330 0.145047
v -0.188833 0.277907 0.145047
v -0.196942 0.271671 0.145047
v -0.198267 0.261528 0.145047
v -0.181888 0.252095 0.145047
v -0.192031 0.253419 0.145047
v -0.172455 0.268473 0.139701
v -0.178690 0.276582 0.139701
v -0.173779 0.258330 0.139701
v -0.188833 0.277907 0.139701
v -0.196942 0.271671 0.139701
v -0.181888 0.252095 0.139701
v -0.198267 0.261528 0.139701
v -0.192031 0.253419 0.139701
v 0.184364 0.277113 0.145047
v 0.177453 0.269572 0.145047
v 0.194583 0.277560 0.145047
v 0.177899 0.259352 0.145047
v 0.185441 0.252442 0.145047
v 0.195660 0.252888 0.145047
v 0.202125 0.270649 0.145047
v 0.202571 0.260430 0.145047
v 0.184364 0.277113 0.139701
v 0.177453 0.269572 0.139701
v 0.194583 0.277560 0.139701
v 0.177899 0.259352 0.139701
v 0.185441 0.252442 0.139701
v 0.202125 0.270649 0.139701
v 0.195660 0.252888 0.139701
v 0.202571 0.260430 0.139701
v 0.181978 -0.190995 0.125047
v 0.181776 -0.201222 0.125047
v 0.189352 -0.183906 0.125047
v 0.188865 -0.208596 0.125047
v 0.199092 -0.208798 0.125047
v 0.206466 -0.201709 0.125047
v 0.199579 -0.184107 0.125047
v 0.206668 -0.191481 0.125047
v 0.181978 -0.190995 0.119701
v 0.181776 -0.201222 0.119701
v 0.189352 -0.183906 0.119701
v 0.188865 -0.208596 0.119701
v 0.199092 -0.208798 0.119701
v 0.199579 -0.184107 0.119701
v 0.206466 -0.201709 0.119701
v 0.206668 -0.191481 0.119701
v -0.175537 -0.191746 0.125047
v -0.182256 -0.184032 0.125047
v -0.176240 -0.201950 0.125047
v -0.192461 -0.183329 0.125047
v -0.200174 -0.190048 0.125047
v -0.200877 -0.200253 0.125047
v -0.183953 -0.208669 0.125047
v -0.194158 -0.207966 0.125047
v -0.175537 -0.191746 0.119701
v -0.182256 -0.184032 0.119701
v -0.176240 -0.201950 0.119701
v -0.192461 -0.183329 0.119701
v -0.200174 -0.190048 0.119701
v -0.183953 -0.208669 0.119701
v -0.200877 -0.200253 0.119701
v -0.194158 -0.207966 0.119701
v -0.181000 -0.037000 0.160000
v -0.181000 0.183000 0.160000
v 0.185000 0.183000 0.160000
v -0.220000 -0.300000 0.120000
v 0.220000 -0.300000 0.120000
v -0.220000 -0.140000 0.120000
v 0.220000 -0.140000 0.120000
v -0.181000 -0.037000 0.140000
v 0.185000 -0.037000 0.140000
v 0.185000 -0.037000 0.160000
v -0.195629 -0.097668 0.145047
v -0.198671 -0.107435 0.145047
v -0.186573 -0.092913 0.145047
v -0.193915 -0.116492 0.145047
v -0.184149 -0.119533 0.145047
v -0.175092 -0.114777 0.145047
v -0.176806 -0.095954 0.145047
v -0.172051 -0.105011 0.145047
v -0.195629 -0.097668 0.139701
v -0.198670 -0.107435 0.139701
v -0.186573 -0.092913 0.139701
v -0.193915 -0.116492 0.139701
v -0.184149 -0.119533 0.139701
v -0.176806 -0.095954 0.139701
v -0.175092 -0.114777 0.139701
v -0.172051 -0.105011 0.139701
v 0.196359 -0.095525 0.145047
v 0.186391 -0.093228 0.145047
v 0.201783 -0.104197 0.145047
v 0.177719 -0.098653 0.145047
v 0.175422 -0.108621 0.145047
v 0.180846 -0.117293 0.145047
v 0.199487 -0.114165 0.145047
v 0.190814 -0.119590 0.145047
v 0.196359 -0.095525 0.139701
v 0.186391 -0.093228 0.139701
v 0.201783 -0.104197 0.139701
v 0.177719 -0.098653 0.139701
v 0.175422 -0.108621 0.139701
v 0.199487 -0.114165 0.139701
v 0.180846 -0.117293 0.139701
v 0.190814 -0.119590 0.139701
v 0.089960 -0.003640 0.160000
v 0.089960 0.085640 0.160000
v 0.136040 0.085640 0.160000
v 0.136040 -0.003640 0.160000
v -0.355800 -0.009400 0.160000
v -0.298200 0.091400 0.160000
v -0.355800 0.091400 0.160000
v -0.303960 -0.003640 0.166800
v -0.350040 -0.003640 0.166800
v -0.298200 -0.009400 0.160000
v -0.303960 0.085640 0.166800
v -0.350040 0.085640 0.166800
v -0.298200 -0.009400 0.166800
v -0.355800 -0.009400 0.166800
v -0.355800 0.091400 0.166800
v -0.298200 0.091400 0.166800
v -0.303960 -0.003640 0.152400
v -0.350040 -0.003640 0.152400
v -0.350040 0.085640 0.152400
v -0.303960 0.085640 0.152400
v -0.621000 0.183000 0.140000
v -0.255000 0.183000 0.140000
v -0.660000 0.300000 0.000000
v -0.220000 -0.140000 0.000000
v -0.612455 0.268473 0.145047
v -0.618690 0.276582 0.145047
v -0.613779 0.258330 0.145047
v -0.628833 0.277907 0.145047
v -0.636942 0.271671 0.145047
v -0.638267 0.261528 0.145047
v -0.621888 0.252095 0.145047
v -0.632031 0.253419 0.145047
v -0.612455 0.268473 0.139701
v -0.618690 0.276582 0.139701
v -0.613779 0.258330 0.139701
v -0.628833 0.277907 0.139701
v -0.636942 0.271671 0.139701
v -0.621888 0.252095 0.139701
v -0.638267 0.261528 0.139701
v -0.632031 0.253419 0.139701
v -0.255636 0.277113 0.145047
v -0.262547 0.269572 0.145047
v -0.245417 0.277560 0.145047
v -0.262101 0.259352 0.145047
v -0.254559 0.252442 0.145047
v -0.244340 0.252888 0.145047
v -0.237875 0.270649 0.145047
v -0.237429 0.260430 0.145047
v -0.255636 0.277113 0.139701
v -0.262547 0.269572 0.139701
v -0.245417 0.277560 0.139701
v -0.262101 0.259352 0.139701
v -0.254559 0.252442 0.139701
v -0.237875 0.270649 0.139701
v -0.244340 0.252888 0.139701
v -0.237429 0.260430 0.139701
v -0.258022 -0.190995 0.125047
v -0.258224 -0.201222 0.125047
v -0.250648 -0.183906 0.125047
v -0.251135 -0.208596 0.125047
v -0.240908 -0.208798 0.125047
v -0.233534 -0.201709 0.125047
v -0.240421 -0.184107 0.125047
v -0.233332 -0.191481 0.125047
v -0.258022 -0.190995 0.119701
v -0.258224 -0.201222 0.119701
v -0.250648 -0.183906 0.119701
v -0.251135 -0.208596 0.119701
v -0.240908 -0.208798 0.119701
v -0.240421 -0.184107 0.119701
v -0.233534 -0.201709 0.119701
v -0.233332 -0.191481 0.119701
v -0.615537 -0.191746 0.125047
v -0.622256 -0.184032 0.125047
v -0.616240 -0.201950 0.125047
v -0.632461 -0.183329 0.125047
v -0.640174 -0.190048 0.125047
v -0.640877 -0.200253 0.125047
v -0.623953 -0.208669 0.125047
v -0.634158 -0.207966 0.125047
v -0.615537 -0.191746 0.119701
v -0.622256 -0.184032 0.119701
v -0.616240 -0.201950 0.119701
v -0.632461 -0.183329 0.119701
v -0.640174 -0.190048 0.119701
v -0.623953 -0.208669 0.119701
v -0.640877 -0.200253 0.119701
v -0.634158 -0.207966 0.119701
v -0.660000 -0.140000 0.140000
v -0.660000 0.300000 0.140000
v -0.220000 -0.140000 0.140000
v -0.220000 0.300000 0.140000
v -0.621000 -0.037000 0.160000
v -0.621000 0.183000 0.160000
v -0.255000 0.183000 0.160000
v -0.660000 -0.300000 0.120000
v -0.660000 -0.300000 0.000000
v -0.220000 -0.300000 0.000000
v -0.660000 -0.140000 0.120000
v -0.621000 -0.037000 0.140000
v -0.255000 -0.037000 0.140000
v -0.255000 -0.037000 0.160000
v -0.635629 -0.097668 0.145047
v -0.638671 -0.107435 0.145047
v -0.626573 -0.092913 0.145047
v -0.633915 -0.116492 0.145047
v -0.624149 -0.119533 0.145047
v -0.615092 -0.114777 0.145047
v -0.616806 -0.095954 0.145047
v -0.612051 -0.105011 0.145047
v -0.635629 -0.097668 0.139701
v -0.638671 -0.107435 0.139701
v -0.626573 -0.092913 0.139701
v -0.633915 -0.116492 0.139701
v -0.624149 -0.119533 0.139701
v -0.616806 -0.095954 0.139701
v -0.615092 -0.114777 0.139701
v -0.612051 -0.105011 0.139701
v -0.243641 -0.095525 0.145047
v -0.253609 -0.093228 0.145047
v -0.238217 -0.104197 0.145047
v -0.262282 -0.098653 0.145047
v -0.264578 -0.108621 0.145047
v -0.259154 -0.117293 0.145047
v -0.240513 -0.114165 0.145047
v -0.249186 -0.119590 0.145047
v -0.243641 -0.095525 0.139701
v -0.253609 -0.093228 0.139701
v -0.238217 -0.104197 0.139701
v -0.262282 -0.098653 0.139701
v -0.264578 -0.108621 0.139701
v -0.240513 -0.114165 0.139701
v -0.259154 -0.117293 0.139701
v -0.249186 -0.119590 0.139701
v -0.350040 -0.003640 0.160000
v -0.350040 0.085640 0.160000
v -0.303960 0.085640 0.160000
v -0.303960 -0.003640 0.160000
v 0.524200 -0.009400 0.160000
v 0.581800 0.091400 0.160000
v 0.524200 0.091400 0.160000
v 0.576040 -0.003640 0.166800
v 0.529960 -0.003640 0.166800
v 0.581800 -0.009400 0.160000
v 0.576040 0.085640 0.166800
v 0.529960 0.085640 0.166800
v 0.581800 -0.009400 0.166800
v 0.524200 -0.009400 0.166800
v 0.524200 0.091400 0.166800
v 0.581800 0.091400 0.166800
v 0.576040 -0.003640 0.152400
v 0.529960 -0.003640 0.152400
v 0.529960 0.085640 0.152400
v 0.576040 0.085640 0.152400
v 0.259000 0.183000 0.140000
v 0.625000 0.183000 0.140000
v 0.660000 0.300000 0.000000
v 0.267545 0.268473 0.145047
v 0.261310 0.276582 0.145047
v 0.266221 0.258330 0.145047
v 0.251167 0.277907 0.145047
v 0.243058 0.271671 0.145047
v 0.241733 0.261528 0.145047
v 0.258112 0.252095 0.145047
v 0.247969 0.253419 0.145047
v 0.267545 0.268473 0.139701
v 0.261310 0.276582 0.139701
v 0.266221 0.258330 0.139701
v 0.251167 0.277907 0.139701
v 0.243058 0.271671 0.139701
v 0.258112 0.252095 0.139701
v 0.241733 0.261528 0.139701
v 0.247969 0.253419 0.139701
v 0.624364 0.277113 0.145047
v 0.617453 0.269572 0.145047
v 0.634583 0.277560 0.145047
v 0.617899 0.259352 0.145047
v 0.625441 0.252442 0.145047
v 0.635660 0.252888 0.145047
v 0.642125 0.270649 0.145047
v 0.642571 0.260430 0.145047
v 0.624364 0.277113 0.139701
v 0.617453 0.269572 0.139701
v 0.634583 0.277560 0.139701
v 0.617899 0.259352 0.139701
v 0.625441 0.252442 0.139701
v 0.642125 0.270649 0.139701
v 0.635660 0.252888 0.139701
v 0.642571 0.260430 0.139701
v 0.621977 -0.190995 0.125047
v 0.621776 -0.201222 0.125047
v 0.629352 -0.183906 0.125047
v 0.628865 -0.208596 0.125047
v 0.639092 -0.208798 0.125047
v 0.646466 -0.201709 0.125047
v 0.639579 -0.184107 0.125047
v 0.646668 -0.191481 0.125047
v 0.621977 -0.190995 0.119701
v 0.621776 -0.201222 0.119701
v 0.629352 -0.183906 0.119701
v 0.628865 -0.208596 0.119701
v 0.639092 -0.208798 0.119701
v 0.639579 -0.184107 0.119701
v 0.646466 -0.201709 0.119701
v 0.646668 -0.191481 0.119701
v 0.264463 -0.191746 0.125047
v 0.257744 -0.184032 0.125047
v 0.263760 -0.201950 0.125047
v 0.247539 -0.183329 0.125047
v 0.239826 -0.190048 0.125047
v 0.239123 -0.200253 0.125047
v 0.256047 -0.208669 0.125047
v 0.245842 -0.207966 0.125047
v 0.264463 -0.191746 0.119701
v 0.257744 -0.184032 0.119701
v 0.263760 -0.201950 0.119701
v 0.247539 -0.183329 0.119701
v 0.239826 -0.190048 0.119701
v 0.256047 -0.208669 0.119701
v 0.239123 -0.200253 0.119701
v 0.245842 -0.207966 0.119701
v 0.220000 -0.140000 0.140000
v 0.220000 0.300000 0.140000
v 0.660000 -0.140000 0.140000
v 0.660000 0.300000 0.140000
v 0.259000 -0.037000 0.160000
v 0.259000 0.183000 0.160000
v 0.625000 0.183000 0.160000
v 0.660000 -0.300000 0.120000
v 0.220000 -0.300000 0.000000
v 0.660000 -0.300000 0.000000
v 0.660000 -0.140000 0.120000
v 0.259000 -0.037000 0.140000
v 0.625000 -0.037000 0.140000
v 0.625000 -0.037000 0.160000
v 0.244371 -0.097668 0.145047
v 0.241329 -0.107435 0.145047
v 0.253427 -0.092913 0.145047
v 0.246085 -0.116492 0.145047
v 0.255851 -0.119533 0.145047
v 0.264908 -0.114777 0.145047
v 0.263194 -0.095954 0.145047
v 0.267949 -0.105011 0.145047
v 0.244371 -0.097668 0.139701
v 0.241329 -0.107435 0.139701
v 0.253427 -0.092913 0.139701
v 0.246085 -0.116492 0.139701
v 0.255851 -0.119533 0.139701
v 0.263194 -0.095954 0.139701
v 0.264908 -0.114777 0.139701
v 0.267949 -0.105011 0.139701
v 0.636359 -0.095525 0.145047
v 0.626391 -0.093228 0.145047
v 0.641783 -0.104197 0.145047
v 0.617718 -0.098653 0.145047
v 0.615422 -0.108621 0.145047
v 0.620846 -0.117293 0.145047
v 0.639486 -0.114165 0.145047
v 0.630814 -0.119590 0.145047
v 0.636359 -0.095525 0.139701
v 0.626391 -0.093228 0.139701
v 0.641783 -0.104197 0.139701
v 0.617718 -0.098653 0.139701
v 0.615422 -0.108621 0.139701
v 0.639486 -0.114165 0.139701
v 0.620846 -0.117293 0.139701
v 0.630814 -0.119590 0.139701
v 0.529960 -0.003640 0.160000
v 0.529960 0.085640 0.160000
v 0.576040 0.085640 0.160000
v 0.576040 -0.003640 0.160000
v -0.453261 -0.076640 0.140573
v -0.455607 -0.067885 0.140573
v -0.462016 -0.061475 0.140573
v -0.470772 -0.059129 0.140573
v -0.479527 -0.061475 0.140573
v -0.485936 -0.067885 0.140573
v -0.488282 -0.076640 0.140573
v -0.485936 -0.085395 0.140573
v -0.479527 -0.091805 0.140573
v -0.470772 -0.094151 0.140573
v -0.462016 -0.091805 0.140573
v -0.455607 -0.085395 0.140573
v -0.453261 -0.076640 0.146174
v -0.455607 -0.067885 0.146174
v -0.462016 -0.061475 0.146174
v -0.470772 -0.059129 0.146174
v -0.479527 -0.061475 0.146174
v -0.485936 -0.067885 0.146174
v -0.488282 -0.076640 0.146174
v -0.485936 -0.085395 0.146174
v -0.479527 -0.091805 0.146174
v -0.470772 -0.094151 0.146174
v -0.462016 -0.091805 0.146174
v -0.455607 -0.085395 0.146174
v -0.457595 -0.076640 0.146174
v -0.470772 -0.063464 0.146174
v -0.483948 -0.076640 0.146174
v -0.470772 -0.089816 0.146174
v -0.457595 -0.076640 0.152663
v -0.470772 -0.063464 0.152663
v -0.483948 -0.076640 0.152663
v -0.470772 -0.089816 0.152663
v -0.461772 -0.067640 0.146174
v -0.479771 -0.067640 0.146174
v -0.479771 -0.085640 0.146174
v -0.461772 -0.085640 0.146174
v -0.461772 -0.067640 0.152663
v -0.479771 -0.067640 0.152663
v -0.479771 -0.085640 0.152663
v -0.461772 -0.085640 0.152663
v -0.390716 -0.076640 0.140573
v -0.393062 -0.067885 0.140573
v -0.399471 -0.061475 0.140573
v -0.408227 -0.059129 0.140573
v -0.416982 -0.061475 0.140573
v -0.423392 -0.067885 0.140573
v -0.425738 -0.076640 0.140573
v -0.423392 -0.085395 0.140573
v -0.416982 -0.091805 0.140573
v -0.408227 -0.094151 0.140573
v -0.399471 -0.091805 0.140573
v -0.393062 -0.085395 0.140573
v -0.390716 -0.076640 0.146174
v -0.393062 -0.067885 0.146174
v -0.399471 -0.061475 0.146174
v -0.408227 -0.059129 0.146174
v -0.416982 -0.061475 0.146174
v -0.423392 -0.067885 0.146174
v -0.425738 -0.076640 0.146174
v -0.423392 -0.085395 0.146174
v -0.416982 -0.091805 0.146174
v -0.408227 -0.094151 0.146174
v -0.399471 -0.091805 0.146174
v -0.393062 -0.085395 0.146174
v -0.395050 -0.076640 0.146174
v -0.408227 -0.063464 0.146174
v -0.421403 -0.076640 0.146174
v -0.408227 -0.089816 0.146174
v -0.395050 -0.076640 0.152663
v -0.408227 -0.063464 0.152663
v -0.421403 -0.076640 0.152663
v -0.408227 -0.089816 0.152663
v -0.399227 -0.067640 0.146174
v -0.417226 -0.067640 0.146174
v -0.417226 -0.085640 0.146174
v -0.399227 -0.085640 0.146174
v -0.399227 -0.067640 0.152663
v -0.417226 -0.067640 0.152663
v -0.417226 -0.085640 0.152663
v -0.399227 -0.085640 0.152663
v -0.013261 -0.076640 0.140573
v -0.015607 -0.067885 0.140573
v -0.022016 -0.061475 0.140573
v -0.030772 -0.059129 0.140573
v -0.039527 -0.061475 0.140573
v -0.045936 -0.067885 0.140573
v -0.048282 -0.076640 0.140573
v -0.045936 -0.085395 0.140573
v -0.039527 -0.091805 0.140573
v -0.030772 -0.094151 0.140573
v -0.022016 -0.091805 0.140573
v -0.015607 -0.085395 0.140573
v -0.013261 -0.076640 0.146174
v -0.015607 -0.067885 0.146174
v -0.022016 -0.061475 0.146174
v -0.030772 -0.059129 0.146174
v -0.039527 -0.061475 0.146174
v -0.045936 -0.067885 0.146174
v -0.048282 -0.076640 0.146174
v -0.045936 -0.085395 0.146174
v -0.039527 -0.091805 0.146174
v -0.030772 -0.094151 0.146174
v -0.022016 -0.091805 0.146174
v -0.015607 -0.085395 0.146174
v -0.017595 -0.076640 0.146174
v -0.030772 -0.063464 0.146174
v -0.043948 -0.076640 0.146174
v -0.030772 -0.089816 0.146174
v -0.017595 -0.076640 0.152663
v -0.030772 -0.063464 0.152663
v -0.043948 -0.076640 0.152663
v -0.030772 -0.089816 0.152663
v -0.021772 -0.067640 0.146174
v -0.039771 -0.067640 0.146174
v -0.039771 -0.085640 0.146174
v -0.021772 -0.085640 0.146174
v -0.021772 -0.067640 0.152663
v -0.039771 -0.067640 0.152663
v -0.039771 -0.085640 0.152663
v -0.021772 -0.085640 0.152663
v 0.049284 -0.076640 0.140573
v 0.046938 -0.067885 0.140573
v 0.040529 -0.061475 0.140573
v 0.031773 -0.059129 0.140573
v 0.023018 -0.061475 0.140573
v 0.016609 -0.067885 0.140573
v 0.014263 -0.076640 0.140573
v 0.016609 -0.085395 0.140573
v 0.023018 -0.091805 0.140573
v 0.031773 -0.094151 0.140573
v 0.040529 -0.091805 0.140573
v 0.046938 -0.085395 0.140573
v 0.049284 -0.076640 0.146174
v 0.046938 -0.067885 0.146174
v 0.040529 -0.061475 0.146174
v 0.031773 -0.059129 0.146174
v 0.023018 -0.061475 0.146174
v 0.016609 -0.067885 0.146174
v 0.014263 -0.076640 0.146174
v 0.016609 -0.085395 0.146174
v 0.023018 -0.091805 0.146174
v 0.031773 -0.094151 0.146174
v 0.040529 -0.091805 0.146174
v 0.046938 -0.085395 0.146174
v 0.044950 -0.076640 0.146174
v 0.031773 -0.063464 0.146174
v 0.018597 -0.076640 0.146174
v 0.031773 -0.089816 0.146174
v 0.044950 -0.076640 0.152663
v 0.031773 -0.063464 0.152663
v 0.018597 -0.076640 0.152663
v 0.031773 -0.089816 0.152663
v 0.040773 -0.067640 0.146174
v 0.022774 -0.067640 0.146174
v 0.022774 -0.085640 0.146174
v 0.040773 -0.085640 0.146174
v 0.040773 -0.067640 0.152663
v 0.022774 -0.067640 0.152663
v 0.022774 -0.085640 0.152663
v 0.040773 -0.085640 0.152663
v 0.426739 -0.076640 0.140573
v 0.424393 -0.067885 0.140573
v 0.417984 -0.061475 0.140573
v 0.409228 -0.059129 0.140573
v 0.400473 -0.061475 0.140573
v 0.394064 -0.067885 0.140573
v 0.391718 -0.076640 0.140573
v 0.394064 -0.085395 0.140573
v 0.400473 -0.091805 0.140573
v 0.409228 -0.094151 0.140573
v 0.417984 -0.091805 0.140573
v 0.424393 -0.085395 0.140573
v 0.426739 -0.076640 0.146174
v 0.424393 -0.067885 0.146174
v 0.417984 -0.061475 0.146174
v 0.409228 -0.059129 0.146174
v 0.400473 -0.061475 0.146174
v 0.394064 -0.067885 0.146174
v 0.391718 -0.076640 0.146174
v 0.394064 -0.085395 0.146174
v 0.400473 -0.091805 0.146174
v 0.409228 -0.094151 0.146174
v 0.417984 -0.091805 0.146174
v 0.424393 -0.085395 0.146174
v 0.422405 -0.076640 0.146174
v 0.409228 -0.063464 0.146174
v 0.396052 -0.076640 0.146174
v 0.409228 -0.089816 0.146174
v 0.422405 -0.076640 0.152663
v 0.409228 -0.063464 0.152663
v 0.396052 -0.076640 0.152663
v 0.409228 -0.089816 0.152663
v 0.418228 -0.067640 0.146174
v 0.400229 -0.067640 0.146174
v 0.400229 -0.085640 0.146174
v 0.418228 -0.085640 0.146174
v 0.418228 -0.067640 0.152663
v 0.400229 -0.067640 0.152663
v 0.400229 -0.085640 0.152663
v 0.418228 -0.085640 0.152663
v 0.489284 -0.076640 0.140573
v 0.486938 -0.067885 0.140573
v 0.480529 -0.061475 0.140573
v 0.471773 -0.059129 0.140573
v 0.463018 -0.061475 0.140573
v 0.456609 -0.067885 0.140573
v 0.454263 -0.076640 0.140573
v 0.456609 -0.085395 0.140573
v 0.463018 -0.091805 0.140573
v 0.471773 -0.094151 0.140573
v 0.480529 -0.091805 0.140573
v 0.486938 -0.085395 0.140573
v 0.489284 -0.076640 0.146174
v 0.486938 -0.067885 0.146174
v 0.480529 -0.061475 0.146174
v 0.471773 -0.059129 0.146174
v 0.463018 -0.061475 0.146174
v 0.456609 -0.067885 0.146174
v 0.454263 -0.076640 0.146174
v 0.456609 -0.085395 0.146174
v 0.463018 -0.091805 0.146174
v 0.471773 -0.094151 0.146174
v 0.480529 -0.091805 0.146174
v 0.486938 -0.085395 0.146174
v 0.484950 -0.076640 0.146174
v 0.471773 -0.063464 0.146174
v 0.458597 -0.076640 0.146174
v 0.471773 -0.089816 0.146174
v 0.484950 -0.076640 0.152663
v 0.471773 -0.063464 0.152663
v 0.458597 -0.076640 0.152663
v 0.471773 -0.089816 0.152663
v 0.480773 -0.067640 0.146174
v 0.462774 -0.067640 0.146174
v 0.462774 -0.085640 0.146174
v 0.480773 -0.085640 0.146174
v 0.480773 -0.067640 0.152663
v 0.462774 -0.067640 0.152663
v 0.462774 -0.085640 0.152663
v 0.480773 -0.085640 0.152663
vn -0.0000 -1.0000 -0.0000
vn -0.0000 1.0000 -0.0000
vn -1.0000 -0.0000 -0.0000
vn 1.0000 -0.0000 -0.0000
vn -0.0000 -0.0000 1.0000
vn 0.6728 -0.3875 0.6303
vn 0.7497 0.2017 0.6303
vn 0.3875 0.6728 0.6303
vn -0.2017 0.7497 0.6303
vn -0.6728 0.3875 0.6303
vn -0.7497 -0.2017 0.6303
vn -0.3875 -0.6728 0.6303
vn 0.2017 -0.7497 0.6303
vn 0.2598 -0.9657 -0.0000
vn -0.4991 -0.8665 -0.0000
vn -0.9657 -0.2598 -0.0000
vn 0.8665 -0.4991 -0.0000
vn 0.9657 0.2598 -0.0000
vn -0.8665 0.4991 -0.0000
vn -0.2598 0.9657 -0.0000
vn 0.4991 0.8665 -0.0000
vn 0.2655 0.7296 0.6303
vn -0.3281 0.7036 0.6303
vn -0.7296 0.2655 0.6303
vn -0.7036 -0.3281 0.6303
vn -0.2655 -0.7296 0.6303
vn 0.3281 -0.7036 0.6303
vn 0.7296 -0.2655 0.6303
vn 0.7036 0.3281 0.6303
vn 0.9063 0.4226 -0.0000
vn 0.9397 -0.3420 -0.0000
vn 0.4226 -0.9063 -0.0000
vn 0.3420 0.9397 -0.0000
vn -0.4226 0.9063 -0.0000
vn -0.3420 -0.9397 -0.0000
vn -0.9063 -0.4226 -0.0000
vn -0.9397 0.3420 -0.0000
vn -0.2829 0.7230 0.6303
vn -0.7113 0.3112 0.6303
vn -0.7230 -0.2829 0.6303
vn -0.3112 -0.7113 0.6303
vn 0.2829 -0.7230 0.6303
vn 0.7113 -0.3112 0.6303
vn 0.7230 0.2829 0.6303
vn 0.3112 0.7113 0.6303
vn 0.4008 0.9162 -0.0000
vn 0.9312 0.3644 -0.0000
vn 0.9162 -0.4008 -0.0000
vn -0.3644 0.9312 -0.0000
vn -0.9162 0.4008 -0.0000
vn 0.3644 -0.9312 -0.0000
vn -0.4008 -0.9162 -0.0000
vn -0.9312 -0.3644 -0.0000
vn 0.6952 -0.3457 0.6303
vn 0.7360 0.2471 0.6303
vn 0.3457 0.6952 0.6303
vn -0.2471 0.7360 0.6303
vn -0.6952 0.3457 0.6303
vn -0.7360 -0.2471 0.6303
vn -0.3457 -0.6952 0.6303
vn 0.2471 -0.7360 0.6303
vn 0.3183 -0.9480 -0.0000
vn -0.4453 -0.8954 -0.0000
vn -0.9480 -0.3183 -0.0000
vn 0.8954 -0.4453 -0.0000
vn 0.9480 0.3183 -0.0000
vn -0.8954 0.4453 -0.0000
vn -0.3183 0.9480 -0.0000
vn 0.4453 0.8954 -0.0000
vn -0.0704 0.7732 0.6303
vn -0.5965 0.4969 0.6303
vn -0.7732 -0.0704 0.6303
vn -0.4969 -0.5965 0.6303
vn 0.0704 -0.7732 0.6303
vn 0.5965 -0.4969 0.6303
vn 0.7732 0.0704 0.6303
vn 0.4969 0.5965 0.6303
vn 0.6401 0.7683 -0.0000
vn 0.9959 0.0907 -0.0000
vn 0.7683 -0.6401 -0.0000
vn -0.0907 0.9959 -0.0000
vn -0.7683 0.6401 -0.0000
vn 0.0907 -0.9959 -0.0000
vn -0.6401 -0.7683 -0.0000
vn -0.9959 -0.0907 -0.0000
vn 0.7657 0.1285 0.6303
vn 0.4506 0.6323 0.6303
vn -0.1285 0.7657 0.6303
vn -0.6323 0.4506 0.6303
vn -0.7657 -0.1285 0.6303
vn -0.4506 -0.6323 0.6303
vn 0.1285 -0.7657 0.6303
vn 0.6323 -0.4506 0.6303
vn 0.8144 -0.5803 -0.0000
vn 0.1655 -0.9862 -0.0000
vn -0.5803 -0.8144 -0.0000
vn 0.9862 0.1655 -0.0000
vn 0.5803 0.8144 -0.0000
vn -0.9862 -0.1655 -0.0000
vn -0.8144 0.5803 -0.0000
vn -0.1655 0.9862 -0.0000
vn 0.8660 0.5000 -0.0000
vn -0.8660 0.5000 -0.0000
vn -0.5000 -0.8660 -0.0000
vn 0.5000 0.8660 -0.0000
vn 0.8660 -0.5000 -0.0000
vn -0.8660 -0.5000 -0.0000
vn 0.5000 -0.8660 -0.0000
vn -0.5000 0.8660 -0.0000
vn 0.7071 -0.7071 -0.0000
vn -0.7071 0.7071 -0.0000
vn -0.7071 -0.7071 -0.0000
vn 0.7071 0.7071 -0.0000
vt 0.171006 0.206992
vt 0.147197 0.193087
vt 0.171006 0.179564
vt 0.195197 0.193087
vt 0.171006 0.206992
vt 0.195197 0.193087
vt 0.149940 0.189849
vt 0.149940 0.182306
vt 0.167768 0.182306
vt 0.149940 0.204249
vt 0.167768 0.204249
vt 0.149940 0.189849
vt 0.171006 0.179564
vt 0.147197 0.193087
vt 0.192454 0.189849
vt 0.192454 0.182306
vt 0.167768 0.182306
vt 0.192454 0.204249
vt 0.192454 0.189849
vt 0.167768 0.204249
vt 0.167768 0.179564
vt 0.147197 0.189849
vt 0.147197 0.179564
vt 0.167768 0.206992
vt 0.147197 0.189849
vt 0.147197 0.206992
vt 0.167768 0.206992
vt 0.195197 0.189849
vt 0.195197 0.206992
vt 0.167768 0.179564
vt 0.195197 0.189849
vt 0.195197 0.179564
vt 0.149940 0.196706
vt 0.174625 0.182306
vt 0.150391 0.179688
vt 0.174625 0.204249
vt 0.149940 0.196706
vt 0.150391 0.203125
vt 0.192454 0.196706
vt 0.174625 0.204249
vt 0.193359 0.203125
vt 0.192454 0.196706
vt 0.174625 0.182306
vt 0.193359 0.179688
vt 0.808594 0.621094
vt 0.798859 0.941728
vt 0.841797 0.621094
vt 0.974609 0.621094
vt 0.982444 0.941728
vt 0.841797 0.621094
vt 0.779297 0.632813
vt 1.000000 0.632812
vt 0.828125 1.000000
vt 1.000000 0.632812
vt 0.779297 0.632812
vt 0.450919 0.220703
vt 0.453549 0.220703
vt 0.448705 0.215357
vt 0.453549 0.215357
vt 0.453549 0.226049
vt 0.448705 0.226049
vt 0.453549 0.226049
vt 0.443359 0.213143
vt 0.453549 0.220703
vt 0.438014 0.215357
vt 0.453549 0.215357
vt 0.435799 0.220703
vt 0.453549 0.220703
vt 0.443359 0.228263
vt 0.453549 0.220703
vt 0.438014 0.226049
vt 0.453549 0.215357
vt 0.453549 0.226049
vt 0.456573 0.220703
vt 0.456573 0.215357
vt 0.456573 0.226049
vt 0.456573 0.226049
vt 0.456573 0.220703
vt 0.456573 0.215357
vt 0.456573 0.220703
vt 0.456573 0.220703
vt 0.456573 0.215357
vt 0.456573 0.226049
vt 0.450919 0.220703
vt 0.453549 0.220703
vt 0.448705 0.215357
vt 0.453549 0.215357
vt 0.453549 0.226049
vt 0.448705 0.226049
vt 0.453549 0.226049
vt 0.443359 0.213143
vt 0.453549 0.220703
vt 0.438014 0.215357
vt 0.453549 0.215357
vt 0.435799 0.220703
vt 0.453549 0.220703
vt 0.443359 0.228263
vt 0.453549 0.220703
vt 0.438014 0.226049
vt 0.453549 0.215357
vt 0.453549 0.226049
vt 0.456573 0.220703
vt 0.456573 0.215357
vt 0.456573 0.226049
vt 0.456573 0.226049
vt 0.456573 0.220703
vt 0.456573 0.215357
vt 0.456573 0.220703
vt 0.456573 0.220703
vt 0.456573 0.215357
vt 0.456573 0.226049
vt 0.450919 0.220703
vt 0.453549 0.220703
vt 0.448705 0.215357
vt 0.453549 0.215357
vt 0.453549 0.226049
vt 0.448705 0.226049
vt 0.453549 0.226049
vt 0.443359 0.213143
vt 0.453549 0.220703
vt 0.438014 0.215357
vt 0.453549 0.215357
vt 0.435799 0.220703
vt 0.453549 0.220703
vt 0.443359 0.228263
vt 0.453549 0.220703
vt 0.438014 0.226049
vt 0.453549 0.215357
vt 0.453549 0.226049
vt 0.456573 0.220703
vt 0.456573 0.215357
vt 0.456573 0.226049
vt 0.456573 0.226049
vt 0.456573 0.220703
vt 0.456573 0.215357
vt 0.456573 0.220703
vt 0.456573 0.220703
vt 0.456573 0.215357
vt 0.456573 0.226049
vt 0.450919 0.220703
vt 0.453549 0.220703
vt 0.448705 0.215357
vt 0.453549 0.215357
vt 0.453549 0.226049
vt 0.448705 0.226049
vt 0.453549 0.226049
vt 0.443359 0.213143
vt 0.453549 0.220703
vt 0.438014 0.215357
vt 0.453549 0.215357
vt 0.435799 0.220703
vt 0.453549 0.220703
vt 0.443359 0.228263
vt 0.453549 0.220703
vt 0.438014 0.226049
vt 0.453549 0.215357
vt 0.453549 0.226049
vt 0.456573 0.220703
vt 0.456573 0.215357
vt 0.456573 0.226049
vt 0.456573 0.226049
vt 0.456573 0.220703
vt 0.456573 0.215357
vt 0.456573 0.220703
vt 0.456573 0.220703
vt 0.456573 0.215357
vt 0.456573 0.226049
vt 0.798859 0.832158
vt 0.941406 0.609375
vt 0.808594 0.609375
vt 0.808594 0.609375
vt 0.798859 0.941729
vt 0.841797 0.609375
vt 0.974609 0.609375
vt 0.982444 0.941728
vt 0.841797 0.609375
vt 0.779297 0.701172
vt 0.779297 0.691406
vt 1.000000 0.529297
vt 1.000000 0.691406
vt 0.769531 0.701172
vt 1.000000 0.701172
vt 1.000000 0.691406
vt 0.779297 0.529297
vt 0.779297 0.691406
vt 0.791016 0.632812
vt 0.779297 0.780859
vt 0.990234 0.632812
vt 1.000000 0.608984
vt 0.769531 0.780859
vt 0.990234 0.632812
vt 1.000000 0.780859
vt 0.791016 0.632812
vt 0.779297 0.608984
vt 0.798859 0.832158
vt 0.941406 0.621094
vt 0.808594 0.621094
vt 0.982444 0.832158
vt 0.941406 0.621094
vt 0.974609 0.621094
vt 0.982444 0.832158
vt 0.941406 0.609375
vt 0.974609 0.609375
vt 0.450919 0.220703
vt 0.453549 0.220703
vt 0.448705 0.215357
vt 0.453549 0.215357
vt 0.453549 0.226049
vt 0.448705 0.226049
vt 0.453549 0.226049
vt 0.443359 0.213143
vt 0.453549 0.220703
vt 0.438014 0.215357
vt 0.453549 0.215357
vt 0.435799 0.220703
vt 0.453549 0.220703
vt 0.443359 0.228263
vt 0.453549 0.220703
vt 0.438014 0.226049
vt 0.453549 0.215357
vt 0.453549 0.226049
vt 0.456573 0.220703
vt 0.456573 0.215357
vt 0.456573 0.226049
vt 0.456573 0.226049
vt 0.456573 0.220703
vt 0.456573 0.215357
vt 0.456573 0.220703
vt 0.456573 0.220703
vt 0.456573 0.215357
vt 0.456573 0.226049
vt 0.450919 0.220703
vt 0.453549 0.220703
vt 0.448705 0.215357
vt 0.453549 0.215357
vt 0.453549 0.226049
vt 0.448705 0.226049
vt 0.453549 0.226049
vt 0.443359 0.213143
vt 0.453549 0.220703
vt 0.438014 0.215357
vt 0.453549 0.215357
vt 0.435799 0.220703
vt 0.453549 0.220703
vt 0.443359 0.228263
vt 0.453549 0.220703
vt 0.438014 0.226049
vt 0.453549 0.215357
vt 0.453549 0.226049
vt 0.456573 0.220703
vt 0.456573 0.215357
vt 0.456573 0.226049
vt 0.456573 0.226049
vt 0.456573 0.220703
vt 0.456573 0.215357
vt 0.456573 0.220703
vt 0.456573 0.220703
vt 0.456573 0.215357
vt 0.456573 0.226049
vt 0.934772 0.848773
vt 0.934772 0.893239
vt 0.957886 0.893239
vt 0.957886 0.848773
vt 0.171006 0.206992
vt 0.147197 0.193087
vt 0.171006 0.179564
vt 0.195197 0.193087
vt 0.171006 0.206992
vt 0.195197 0.193087
vt 0.149940 0.189849
vt 0.149940 0.182306
vt 0.167768 0.182306
vt 0.149940 0.204249
vt 0.167768 0.204249
vt 0.149940 0.189849
vt 0.171006 0.179564
vt 0.147197 0.193087
vt 0.192454 0.189849
vt 0.192454 0.182306
vt 0.167768 0.182306
vt 0.192454 0.204249
vt 0.192454 0.189849
vt 0.167768 0.204249
vt 0.167768 0.179564
vt 0.147197 0.189849
vt 0.147197 0.179564
vt 0.167768 0.206992
vt 0.147197 0.189849
vt 0.147197 0.206992
vt 0.167768 0.206992
vt 0.195197 0.189849
vt 0.195197 0.206992
vt 0.167768 0.179564
vt 0.195197 0.189849
vt 0.195197 0.179564
vt 0.149940 0.196706
vt 0.174625 0.182306
vt 0.150391 0.179688
vt 0.174625 0.204249
vt 0.149940 0.196706
vt 0.150391 0.203125
vt 0.192454 0.196706
vt 0.174625 0.204249
vt 0.193359 0.203125
vt 0.192454 0.196706
vt 0.174625 0.182306
vt 0.193359 0.179688
vt 0.808594 0.621094
vt 0.798859 0.941728
vt 0.841797 0.621094
vt 0.974609 0.621094
vt 0.982444 0.941728
vt 0.841797 0.621094
vt 0.779297 0.632812
vt 0.779297 1.000000
vt 0.828125 0.780859
vt 0.450919 0.220703
vt 0.453549 0.220703
vt 0.448705 0.215357
vt 0.453549 0.215357
vt 0.453549 0.226049
vt 0.448705 0.226049
vt 0.453549 0.226049
vt 0.443359 0.213143
vt 0.453549 0.220703
vt 0.438014 0.215357
vt 0.453549 0.215357
vt 0.435799 0.220703
vt 0.453549 0.220703
vt 0.443359 0.228263
vt 0.453549 0.220703
vt 0.438014 0.226049
vt 0.453549 0.215357
vt 0.453549 0.226049
vt 0.456573 0.220703
vt 0.456573 0.215357
vt 0.456573 0.226049
vt 0.456573 0.226049
vt 0.456573 0.220703
vt 0.456573 0.215357
vt 0.456573 0.220703
vt 0.456573 0.220703
vt 0.456573 0.215357
vt 0.456573 0.226049
vt 0.450919 0.220703
vt 0.453549 0.220703
vt 0.448705 0.215357
vt 0.453549 0.215357
vt 0.453549 0.226049
vt 0.448705 0.226049
vt 0.453549 0.226049
vt 0.443359 0.213143
vt 0.453549 0.220703
vt 0.438014 0.215357
vt 0.453549 0.215357
vt 0.435799 0.220703
vt 0.453549 0.220703
vt 0.443359 0.228263
vt 0.453549 0.220703
vt 0.438014 0.226049
vt 0.453549 0.215357
vt 0.453549 0.226049
vt 0.456573 0.220703
vt 0.456573 0.215357
vt 0.456573 0.226049
vt 0.456573 0.226049
vt 0.456573 0.220703
vt 0.456573 0.215357
vt 0.456573 0.220703
vt 0.456573 0.220703
vt 0.456573 0.215357
vt 0.456573 0.226049
vt 0.450919 0.220703
vt 0.453549 0.220703
vt 0.448705 0.215357
vt 0.453549 0.215357
vt 0.453549 0.226049
vt 0.448705 0.226049
vt 0.453549 0.226049
vt 0.443359 0.213143
vt 0.453549 0.220703
vt 0.438014 0.215357
vt 0.453549 0.215357
vt 0.435799 0.220703
vt 0.453549 0.220703
vt 0.443359 0.228263
vt 0.453549 0.220703
vt 0.438014 0.226049
vt 0.453549 0.215357
vt 0.453549 0.226049
vt 0.456573 0.220703
vt 0.456573 0.215357
vt 0.456573 0.226049
vt 0.456573 0.226049
vt 0.456573 0.220703
vt 0.456573 0.215357
vt 0.456573 0.220703
vt 0.456573 0.220703
vt 0.456573 0.215357
vt 0.456573 0.226049
vt 0.450919 0.220703
vt 0.453549 0.220703
vt 0.448705 0.215357
vt 0.453549 0.215357
vt 0.453549 0.226049
vt 0.448705 0.226049
vt 0.453549 0.226049
vt 0.443359 0.213143
vt 0.453549 0.220703
vt 0.438014 0.215357
vt 0.453549 0.215357
vt 0.435799 0.220703
vt 0.453549 0.220703
vt 0.443359 0.228263
vt 0.453549 0.220703
vt 0.438014 0.226049
vt 0.453549 0.215357
vt 0.453549 0.226049
vt 0.456573 0.220703
vt 0.456573 0.215357
vt 0.456573 0.226049
vt 0.456573 0.226049
vt 0.456573 0.220703
vt 0.456573 0.215357
vt 0.456573 0.220703
vt 0.456573 0.220703
vt 0.456573 0.215357
vt 0.456573 0.226049
vt 0.779297 0.780859
vt 0.791016 0.621094
vt 0.710938 0.780859
vt 0.779297 0.701172
vt 0.779297 1.000000
vt 0.710938 1.000000
vt 0.779297 0.780859
vt 0.791016 0.621094
vt 0.759766 0.780859
vt 1.000000 0.780859
vt 0.990234 0.621094
vt 0.779297 0.701172
vt 0.779297 1.000000
vt 1.000000 0.701172
vt 0.759766 1.000000
vt 1.000000 1.000000
vt 0.798859 0.832158
vt 0.941406 0.609375
vt 0.808594 0.609375
vt 0.808594 0.609375
vt 0.798859 0.941729
vt 0.841797 0.609375
vt 0.974609 0.609375
vt 0.982444 0.941728
vt 0.841797 0.609375
vt 0.779297 0.529297
vt 0.779297 0.691406
vt 0.720703 0.701172
vt 0.779296 0.632812
vt 0.779297 0.701172
vt 0.779297 0.632812
vt 1.000000 0.632812
vt 0.828124 0.701171
vt 0.791016 0.632812
vt 0.779297 0.608984
vt 0.720703 0.780859
vt 0.798859 0.832158
vt 0.941406 0.621094
vt 0.808594 0.621094
vt 0.982444 0.832158
vt 0.941406 0.621094
vt 0.974609 0.621094
vt 0.982444 0.832158
vt 0.941406 0.609375
vt 0.974609 0.609375
vt 0.450919 0.220703
vt 0.453549 0.220703
vt 0.448705 0.215357
vt 0.453549 0.215357
vt 0.453549 0.226049
vt 0.448705 0.226049
vt 0.453549 0.226049
vt 0.443359 0.213143
vt 0.453549 0.220703
vt 0.438014 0.215357
vt 0.453549 0.215357
vt 0.435799 0.220703
vt 0.453549 0.220703
vt 0.443359 0.228263
vt 0.453549 0.220703
vt 0.438014 0.226049
vt 0.453549 0.215357
vt 0.453549 0.226049
vt 0.456573 0.220703
vt 0.456573 0.215357
vt 0.456573 0.226049
vt 0.456573 0.226049
vt 0.456573 0.220703
vt 0.456573 0.215357
vt 0.456573 0.220703
vt 0.456573 0.220703
vt 0.456573 0.215357
vt 0.456573 0.226049
vt 0.450919 0.220703
vt 0.453549 0.220703
vt 0.448705 0.215357
vt 0.453549 0.215357
vt 0.453549 0.226049
vt 0.448705 0.226049
vt 0.453549 0.226049
vt 0.443359 0.213143
vt 0.453549 0.220703
vt 0.438014 0.215357
vt 0.453549 0.215357
vt 0.435799 0.220703
vt 0.453549 0.220703
vt 0.443359 0.228263
vt 0.453549 0.220703
vt 0.438014 0.226049
vt 0.453549 0.215357
vt 0.453549 0.226049
vt 0.456573 0.220703
vt 0.456573 0.215357
vt 0.456573 0.226049
vt 0.456573 0.226049
vt 0.456573 0.220703
vt 0.456573 0.215357
vt 0.456573 0.220703
vt 0.456573 0.220703
vt 0.456573 0.215357
vt 0.456573 0.226049
vt 0.934772 0.848773
vt 0.934772 0.893239
vt 0.957886 0.893239
vt 0.957886 0.848773
vt 0.171006 0.206992
vt 0.147197 0.193087
vt 0.171006 0.179564
vt 0.195197 0.193087
vt 0.171006 0.206992
vt 0.195197 0.193087
vt 0.149940 0.189849
vt 0.149940 0.182306
vt 0.167768 0.182306
vt 0.149940 0.204249
vt 0.167768 0.204249
vt 0.149940 0.189849
vt 0.171006 0.179564
vt 0.147197 0.193087
vt 0.192454 0.189849
vt 0.192454 0.182306
vt 0.167768 0.182306
vt 0.192454 0.204249
vt 0.192454 0.189849
vt 0.167768 0.204249
vt 0.167768 0.179564
vt 0.147197 0.189849
vt 0.147197 0.179564
vt 0.167768 0.206992
vt 0.147197 0.189849
vt 0.147197 0.206992
vt 0.167768 0.206992
vt 0.195197 0.189849
vt 0.195197 0.206992
vt 0.167768 0.179564
vt 0.195197 0.189849
vt 0.195197 0.179564
vt 0.149940 0.196706
vt 0.174625 0.182306
vt 0.150391 0.179688
vt 0.174625 0.204249
vt 0.149940 0.196706
vt 0.150391 0.203125
vt 0.192454 0.196706
vt 0.174625 0.204249
vt 0.193359 0.203125
vt 0.192454 0.196706
vt 0.174625 0.182306
vt 0.193359 0.179688
vt 0.808594 0.621094
vt 0.798859 0.941728
vt 0.841797 0.621094
vt 0.974609 0.621094
vt 0.982444 0.941728
vt 0.841797 0.621094
vt 1.000000 0.632813
vt 0.779297 1.000000
vt 0.450919 0.220703
vt 0.453549 0.220703
vt 0.448705 0.215357
vt 0.453549 0.215357
vt 0.453549 0.226049
vt 0.448705 0.226049
vt 0.453549 0.226049
vt 0.443359 0.213143
vt 0.453549 0.220703
vt 0.438014 0.215357
vt 0.453549 0.215357
vt 0.435799 0.220703
vt 0.453549 0.220703
vt 0.443359 0.228263
vt 0.453549 0.220703
vt 0.438014 0.226049
vt 0.453549 0.215357
vt 0.453549 0.226049
vt 0.456573 0.220703
vt 0.456573 0.215357
vt 0.456573 0.226049
vt 0.456573 0.226049
vt 0.456573 0.220703
vt 0.456573 0.215357
vt 0.456573 0.220703
vt 0.456573 0.220703
vt 0.456573 0.215357
vt 0.456573 0.226049
vt 0.450919 0.220703
vt 0.453549 0.220703
vt 0.448705 0.215357
vt 0.453549 0.215357
vt 0.453549 0.226049
vt 0.448705 0.226049
vt 0.453549 0.226049
vt 0.443359 0.213143
vt 0.453549 0.220703
vt 0.438014 0.215357
vt 0.453549 0.215357
vt 0.435799 0.220703
vt 0.453549 0.220703
vt 0.443359 0.228263
vt 0.453549 0.220703
vt 0.438014 0.226049
vt 0.453549 0.215357
vt 0.453549 0.226049
vt 0.456573 0.220703
vt 0.456573 0.215357
vt 0.456573 0.226049
vt 0.456573 0.226049
vt 0.456573 0.220703
vt 0.456573 0.215357
vt 0.456573 0.220703
vt 0.456573 0.220703
vt 0.456573 0.215357
vt 0.456573 0.226049
vt 0.450919 0.220703
vt 0.453549 0.220703
vt 0.448705 0.215357
vt 0.453549 0.215357
vt 0.453549 0.226049
vt 0.448705 0.226049
vt 0.453549 0.226049
vt 0.443359 0.213143
vt 0.453549 0.220703
vt 0.438014 0.215357
vt 0.453549 0.215357
vt 0.435799 0.220703
vt 0.453549 0.220703
vt 0.443359 0.228263
vt 0.453549 0.220703
vt 0.438014 0.226049
vt 0.453549 0.215357
vt 0.453549 0.226049
vt 0.456573 0.220703
vt 0.456573 0.215357
vt 0.456573 0.226049
vt 0.456573 0.226049
vt 0.456573 0.220703
vt 0.456573 0.215357
vt 0.456573 0.220703
vt 0.456573 0.220703
vt 0.456573 0.215357
vt 0.456573 0.226049
vt 0.450919 0.220703
vt 0.453549 0.220703
vt 0.448705 0.215357
vt 0.453549 0.215357
vt 0.453549 0.226049
vt 0.448705 0.226049
vt 0.453549 0.226049
vt 0.443359 0.213143
vt 0.453549 0.220703
vt 0.438014 0.215357
vt 0.453549 0.215357
vt 0.435799 0.220703
vt 0.453549 0.220703
vt 0.443359 0.228263
vt 0.453549 0.220703
vt 0.438014 0.226049
vt 0.453549 0.215357
vt 0.453549 0.226049
vt 0.456573 0.220703
vt 0.456573 0.215357
vt 0.456573 0.226049
vt 0.456573 0.226049
vt 0.456573 0.220703
vt 0.456573 0.215357
vt 0.456573 0.220703
vt 0.456573 0.220703
vt 0.456573 0.215357
vt 0.456573 0.226049
vt 1.000000 0.780859
vt 0.990234 0.621094
vt 0.779297 0.780859
vt 0.791016 0.621094
vt 1.000000 0.701172
vt 1.000000 1.000000
vt 0.779297 0.701172
vt 0.779297 1.000000
vt 1.000000 0.780859
vt 0.990234 0.621094
vt 0.710938 0.780859
vt 1.000000 0.701172
vt 1.000000 1.000000
vt 0.710938 1.000000
vt 0.798859 0.832158
vt 0.941406 0.609375
vt 0.808594 0.609375
vt 0.808594 0.609375
vt 0.798859 0.941729
vt 0.841797 0.609375
vt 0.974609 0.609375
vt 0.982444 0.941728
vt 0.841797 0.609375
vt 1.000000 0.529297
vt 1.000000 0.691406
vt 0.720703 0.701172
vt 1.000001 0.632812
vt 0.779298 0.632812
vt 1.000000 0.632812
vt 0.779296 0.701171
vt 0.990234 0.632812
vt 1.000000 0.608984
vt 0.720703 0.780859
vt 0.798859 0.832158
vt 0.941406 0.621094
vt 0.808594 0.621094
vt 0.982444 0.832158
vt 0.941406 0.621094
vt 0.974609 0.621094
vt 0.982444 0.832158
vt 0.941406 0.609375
vt 0.974609 0.609375
vt 0.450919 0.220703
vt 0.453549 0.220703
vt 0.448705 0.215357
vt 0.453549 0.215357
vt 0.453549 0.226049
vt 0.448705 0.226049
vt 0.453549 0.226049
vt 0.443359 0.213143
vt 0.453549 0.220703
vt 0.438014 0.215357
vt 0.453549 0.215357
vt 0.435799 0.220703
vt 0.453549 0.220703
vt 0.443359 0.228263
vt 0.453549 0.220703
vt 0.438014 0.226049
vt 0.453549 0.215357
vt 0.453549 0.226049
vt 0.456573 0.220703
vt 0.456573 0.215357
vt 0.456573 0.226049
vt 0.456573 0.226049
vt 0.456573 0.220703
vt 0.456573 0.215357
vt 0.456573 0.220703
vt 0.456573 0.220703
vt 0.456573 0.215357
vt 0.456573 0.226049
vt 0.450919 0.220703
vt 0.453549 0.220703
vt 0.448705 0.215357
vt 0.453549 0.215357
vt 0.453549 0.226049
vt 0.448705 0.226049
vt 0.453549 0.226049
vt 0.443359 0.213143
vt 0.453549 0.220703
vt 0.438014 0.215357
vt 0.453549 0.215357
vt 0.435799 0.220703
vt 0.453549 0.220703
vt 0.443359 0.228263
vt 0.453549 0.220703
vt 0.438014 0.226049
vt 0.453549 0.215357
vt 0.453549 0.226049
vt 0.456573 0.220703
vt 0.456573 0.215357
vt 0.456573 0.226049
vt 0.456573 0.226049
vt 0.456573 0.220703
vt 0.456573 0.215357
vt 0.456573 0.220703
vt 0.456573 0.220703
vt 0.456573 0.215357
vt 0.456573 0.226049
vt 0.934772 0.848773
vt 0.934772 0.893239
vt 0.957886 0.893239
vt 0.957886 0.848773
vt 0.139280 0.153267
vt 0.145946 0.153267
vt 0.152613 0.153267
vt 0.159280 0.153267
vt 0.165946 0.153267
vt 0.172613 0.153267
vt 0.179280 0.153267
vt 0.185946 0.153267
vt 0.192613 0.153267
vt 0.199280 0.153267
vt 0.119280 0.153267
vt 0.125946 0.153267
vt 0.132613 0.153267
vt 0.139280 0.157387
vt 0.155946 0.167767
vt 0.150173 0.164434
vt 0.145946 0.157387
vt 0.146840 0.158661
vt 0.152613 0.157387
vt 0.146840 0.151994
vt 0.159280 0.157387
vt 0.150173 0.146220
vt 0.165946 0.157387
vt 0.172613 0.157387
vt 0.155946 0.142887
vt 0.179280 0.157387
vt 0.162613 0.142887
vt 0.168387 0.146220
vt 0.185946 0.157387
vt 0.171720 0.151994
vt 0.192613 0.157387
vt 0.199280 0.157387
vt 0.119280 0.157387
vt 0.171720 0.158661
vt 0.125946 0.157387
vt 0.168387 0.164434
vt 0.132613 0.157387
vt 0.162613 0.167767
vt 0.173874 0.157713
vt 0.159280 0.157713
vt 0.144685 0.157713
vt 0.130091 0.157713
vt 0.188469 0.157713
vt 0.150489 0.151248
vt 0.173874 0.152941
vt 0.163359 0.146537
vt 0.159280 0.152941
vt 0.168070 0.159407
vt 0.144685 0.152941
vt 0.130091 0.152941
vt 0.155200 0.164118
vt 0.188469 0.152941
vt 0.166577 0.157713
vt 0.151982 0.157713
vt 0.137388 0.157713
vt 0.181172 0.157713
vt 0.156062 0.146537
vt 0.166577 0.152941
vt 0.168070 0.152110
vt 0.151982 0.152941
vt 0.162497 0.164118
vt 0.137388 0.152941
vt 0.150489 0.158545
vt 0.181172 0.152941
vt 0.179280 0.157387
vt 0.172613 0.157387
vt 0.165946 0.157387
vt 0.159280 0.157387
vt 0.152613 0.157387
vt 0.145946 0.157387
vt 0.139280 0.157387
vt 0.132613 0.157387
vt 0.125946 0.157387
vt 0.119280 0.157387
vt 0.199280 0.157387
vt 0.192613 0.157387
vt 0.185946 0.157387
vt 0.179280 0.153267
vt 0.168387 0.164434
vt 0.162613 0.167767
vt 0.172613 0.153267
vt 0.155946 0.167767
vt 0.165946 0.153267
vt 0.150173 0.164434
vt 0.159280 0.153267
vt 0.146840 0.158661
vt 0.152613 0.153267
vt 0.145946 0.153267
vt 0.146840 0.151994
vt 0.139280 0.153267
vt 0.150173 0.146220
vt 0.155946 0.142887
vt 0.132613 0.153267
vt 0.162613 0.142887
vt 0.125946 0.153267
vt 0.119280 0.153267
vt 0.199280 0.153267
vt 0.168387 0.146220
vt 0.192613 0.153267
vt 0.171720 0.151994
vt 0.185946 0.153267
vt 0.171720 0.158661
vt 0.173874 0.157713
vt 0.159280 0.157713
vt 0.144685 0.157713
vt 0.130091 0.157713
vt 0.188469 0.157713
vt 0.150489 0.159407
vt 0.173874 0.152941
vt 0.155200 0.146537
vt 0.159280 0.152941
vt 0.168070 0.151248
vt 0.144685 0.152941
vt 0.130091 0.152941
vt 0.163359 0.164118
vt 0.188469 0.152941
vt 0.166577 0.157713
vt 0.151982 0.157713
vt 0.137388 0.157713
vt 0.181172 0.157713
vt 0.150489 0.152110
vt 0.166577 0.152941
vt 0.162497 0.146537
vt 0.151982 0.152941
vt 0.168070 0.158545
vt 0.137388 0.152941
vt 0.156062 0.164118
vt 0.181172 0.152941
vt 0.139280 0.153267
vt 0.145946 0.153267
vt 0.152613 0.153267
vt 0.159280 0.153267
vt 0.165946 0.153267
vt 0.172613 0.153267
vt 0.179280 0.153267
vt 0.185946 0.153267
vt 0.192613 0.153267
vt 0.199280 0.153267
vt 0.119280 0.153267
vt 0.125946 0.153267
vt 0.132613 0.153267
vt 0.139280 0.157387
vt 0.155946 0.167767
vt 0.150173 0.164434
vt 0.145946 0.157387
vt 0.146840 0.158661
vt 0.152613 0.157387
vt 0.146840 0.151994
vt 0.159280 0.157387
vt 0.150173 0.146220
vt 0.165946 0.157387
vt 0.172613 0.157387
vt 0.155946 0.142887
vt 0.179280 0.157387
vt 0.162613 0.142887
vt 0.168387 0.146220
vt 0.185946 0.157387
vt 0.171720 0.151994
vt 0.192613 0.157387
vt 0.199280 0.157387
vt 0.119280 0.157387
vt 0.171720 0.158661
vt 0.125946 0.157387
vt 0.168387 0.164434
vt 0.132613 0.157387
vt 0.162613 0.167767
vt 0.173874 0.157713
vt 0.159280 0.157713
vt 0.144685 0.157713
vt 0.130091 0.157713
vt 0.188469 0.157713
vt 0.150489 0.151248
vt 0.173874 0.152941
vt 0.163359 0.146537
vt 0.159280 0.152941
vt 0.168070 0.159407
vt 0.144685 0.152941
vt 0.130091 0.152941
vt 0.155200 0.164118
vt 0.188469 0.152941
vt 0.166577 0.157713
vt 0.151982 0.157713
vt 0.137388 0.157713
vt 0.181172 0.157713
vt 0.156062 0.146537
vt 0.166577 0.152941
vt 0.168070 0.152110
vt 0.151982 0.152941
vt 0.162497 0.164118
vt 0.137388 0.152941
vt 0.150489 0.158545
vt 0.181172 0.152941
vt 0.179280 0.157387
vt 0.172613 0.157387
vt 0.165946 0.157387
vt 0.159280 0.157387
vt 0.152613 0.157387
vt 0.145946 0.157387
vt 0.139280 0.157387
vt 0.132613 0.157387
vt 0.125946 0.157387
vt 0.119280 0.157387
vt 0.199280 0.157387
vt 0.192613 0.157387
vt 0.185946 0.157387
vt 0.179280 0.153267
vt 0.168387 0.164434
vt 0.162613 0.167767
vt 0.172613 0.153267
vt 0.155946 0.167767
vt 0.165946 0.153267
vt 0.150173 0.164434
vt 0.159280 0.153267
vt 0.146840 0.158661
vt 0.152613 0.153267
vt 0.145946 0.153267
vt 0.146840 0.151994
vt 0.139280 0.153267
vt 0.150173 0.146220
vt 0.155946 0.142887
vt 0.132613 0.153267
vt 0.162613 0.142887
vt 0.125946 0.153267
vt 0.119280 0.153267
vt 0.199280 0.153267
vt 0.168387 0.146220
vt 0.192613 0.153267
vt 0.171720 0.151994
vt 0.185946 0.153267
vt 0.171720 0.158661
vt 0.173874 0.157713
vt 0.159280 0.157713
vt 0.144685 0.157713
vt 0.130091 0.157713
vt 0.188469 0.157713
vt 0.150489 0.159407
vt 0.173874 0.152941
vt 0.155200 0.146537
vt 0.159280 0.152941
vt 0.168070 0.151248
vt 0.144685 0.152941
vt 0.130091 0.152941
vt 0.163359 0.164118
vt 0.188469 0.152941
vt 0.166577 0.157713
vt 0.151982 0.157713
vt 0.137388 0.157713
vt 0.181172 0.157713
vt 0.150489 0.152110
vt 0.166577 0.152941
vt 0.162497 0.146537
vt 0.151982 0.152941
vt 0.168070 0.158545
vt 0.137388 0.152941
vt 0.156062 0.164118
vt 0.181172 0.152941
vt 0.139280 0.153267
vt 0.145946 0.153267
vt 0.152613 0.153267
vt 0.159280 0.153267
vt 0.165946 0.153267
vt 0.172613 0.153267
vt 0.179280 0.153267
vt 0.185946 0.153267
vt 0.192613 0.153267
vt 0.199280 0.153267
vt 0.119280 0.153267
vt 0.125946 0.153267
vt 0.132613 0.153267
vt 0.139280 0.157387
vt 0.155946 0.167767
vt 0.150173 0.164434
vt 0.145946 0.157387
vt 0.146840 0.158661
vt 0.152613 0.157387
vt 0.146840 0.151994
vt 0.159280 0.157387
vt 0.150173 0.146220
vt 0.165946 0.157387
vt 0.172613 0.157387
vt 0.155946 0.142887
vt 0.179280 0.157387
vt 0.162613 0.142887
vt 0.168387 0.146220
vt 0.185946 0.157387
vt 0.171720 0.151994
vt 0.192613 0.157387
vt 0.199280 0.157387
vt 0.119280 0.157387
vt 0.171720 0.158661
vt 0.125946 0.157387
vt 0.168387 0.164434
vt 0.132613 0.157387
vt 0.162613 0.167767
vt 0.173874 0.157713
vt 0.159280 0.157713
vt 0.144685 0.157713
vt 0.130091 0.157713
vt 0.188469 0.157713
vt 0.150489 0.151248
vt 0.173874 0.152941
vt 0.163359 0.146537
vt 0.159280 0.152941
vt 0.168070 0.159407
vt 0.144685 0.152941
vt 0.130091 0.152941
vt 0.155200 0.164118
vt 0.188469 0.152941
vt 0.166577 0.157713
vt 0.151982 0.157713
vt 0.137388 0.157713
vt 0.181172 0.157713
vt 0.156062 0.146537
vt 0.166577 0.152941
vt 0.168070 0.152110
vt 0.151982 0.152941
vt 0.162497 0.164118
vt 0.137388 0.152941
vt 0.150489 0.158545
vt 0.181172 0.152941
vt 0.179280 0.157387
vt 0.172613 0.157387
vt 0.165946 0.157387
vt 0.159280 0.157387
vt 0.152613 0.157387
vt 0.145946 0.157387
vt 0.139280 0.157387
vt 0.132613 0.157387
vt 0.125946 0.157387
vt 0.119280 0.157387
vt 0.199280 0.157387
vt 0.192613 0.157387
vt 0.185946 0.157387
vt 0.179280 0.153267
vt 0.168387 0.164434
vt 0.162613 0.167767
vt 0.172613 0.153267
vt 0.155946 0.167767
vt 0.165946 0.153267
vt 0.150173 0.164434
vt 0.159280 0.153267
vt 0.146840 0.158661
vt 0.152613 0.153267
vt 0.145946 0.153267
vt 0.146840 0.151994
vt 0.139280 0.153267
vt 0.150173 0.146220
vt 0.155946 0.142887
vt 0.132613 0.153267
vt 0.162613 0.142887
vt 0.125946 0.153267
vt 0.119280 0.153267
vt 0.199280 0.153267
vt 0.168387 0.146220
vt 0.192613 0.153267
vt 0.171720 0.151994
vt 0.185946 0.153267
vt 0.171720 0.158661
vt 0.173874 0.157713
vt 0.159280 0.157713
vt 0.144685 0.157713
vt 0.130091 0.157713
vt 0.188469 0.157713
vt 0.150489 0.159407
vt 0.173874 0.152941
vt 0.155200 0.146537
vt 0.159280 0.152941
vt 0.168070 0.151248
vt 0.144685 0.152941
vt 0.130091 0.152941
vt 0.163359 0.164118
vt 0.188469 0.152941
vt 0.166577 0.157713
vt 0.151982 0.157713
vt 0.137388 0.157713
vt 0.181172 0.157713
vt 0.150489 0.152110
vt 0.166577 0.152941
vt 0.162497 0.146537
vt 0.151982 0.152941
vt 0.168070 0.158545
vt 0.137388 0.152941
vt 0.156062 0.164118
vt 0.181172 0.152941
s 0
usemtl electronics_etx_part_2
f 361/730/8 32/82/8 31/79/8 230/468/8
f 30/76/8 29/73/8 98/199/8 99/202/8
f 104/223/11 29/74/11 230/469/11 229/463/11
f 30/77/11 105/226/11 360/726/11 361/731/11
f 105/226/11 104/223/11 229/463/11 360/726/11
f 29/74/11 30/77/11 361/731/11 230/469/11
f 142/291/11 106/229/11 99/203/11 141/290/11
f 141/290/11 99/203/11 98/200/11 97/196/11 106/229/11 142/291/11 139/288/11 140/289/11
f 105/227/10 30/78/10 99/204/10 106/230/10
f 29/75/9 104/224/9 97/197/9 98/201/9
f 229/464/7 102/214/7 103/219/7 360/727/7
f 103/220/11 102/215/11 100/205/11 101/210/11
f 100/206/7 236/487/7 368/752/7 101/211/7
f 105/228/7 106/231/7 97/198/7 104/225/7
f 230/470/8 31/80/8 161/342/8 228/460/8
f 102/218/10 162/344/10 31/81/10 230/471/10 229/465/10
f 160/339/8 159/336/8 232/476/8 233/479/8
f 238/493/11 159/337/11 228/461/11 227/457/11
f 160/340/11 239/496/11 229/466/11 230/472/11
f 239/496/11 238/493/11 227/457/11 229/466/11
f 159/337/11 160/340/11 230/472/11 228/461/11
f 276/561/11 240/499/11 233/480/11 275/560/11
f 275/560/11 233/480/11 232/477/11 231/473/11 240/499/11 276/561/11 273/558/11 274/559/11
f 239/497/10 160/341/10 233/481/10 240/500/10
f 159/338/9 238/494/9 231/474/9 232/478/9
f 227/458/7 237/490/7 102/216/7 229/467/7
f 102/217/11 237/491/11 234/482/11 100/207/11
f 234/483/7 235/485/7 236/488/7 100/208/7
f 100/209/10 236/489/10 162/344/10 102/218/10
f 239/498/7 240/501/7 231/475/7 238/495/7
f 363/737/8 295/612/8 32/83/8 361/732/8
f 294/609/8 293/606/8 365/743/8 366/746/8
f 371/759/11 293/607/11 361/733/11 360/728/11
f 294/610/11 372/762/11 362/734/11 363/738/11
f 372/762/11 371/759/11 360/728/11 362/734/11
f 293/607/11 294/610/11 363/738/11 361/733/11
f 409/827/11 373/765/11 366/747/11 408/826/11
f 408/826/11 366/747/11 365/744/11 364/740/11 373/765/11 409/827/11 406/824/11 407/825/11
f 372/763/10 294/611/10 366/748/10 373/766/10
f 293/608/9 371/760/9 364/741/9 365/745/9
f 360/729/7 103/221/7 370/756/7 362/735/7
f 370/757/11 103/222/11 101/212/11 367/749/11
f 101/213/7 368/753/7 369/754/7 367/750/7
f 372/764/7 373/767/7 364/742/7 371/761/7
f 362/736/10 370/758/10 295/613/10 363/739/10
f 367/751/10 369/755/10 295/613/10 370/758/10
f 227/459/9 228/462/9 161/343/9 237/492/9
f 161/343/9 235/486/9 234/484/9 237/492/9
usemtl electronics_etx_part_1
f 21/49/7 22/52/7 13/29/7 18/41/7
f 14/31/8 15/33/8 23/55/8 24/58/8
f 16/35/9 19/43/9 28/70/9 25/61/9
f 18/42/10 14/32/10 24/59/10 21/50/10
f 15/34/9 13/30/9 22/53/9 23/56/9
f 16/36/11 17/38/11 22/54/11 21/51/11
f 20/46/11 19/44/11 24/60/11 23/57/11
f 19/44/11 16/36/11 21/51/11 24/60/11
f 17/38/11 20/46/11 23/57/11 22/54/11
f 17/39/8 16/37/8 25/62/8 26/64/8
f 20/47/10 17/40/10 26/65/10 27/67/10
f 19/45/7 20/48/7 27/68/7 28/71/7
f 25/63/11 28/72/11 27/69/11 26/66/11
s 1
f 35/89/12 33/84/13 34/86/14 36/91/15 37/93/16 38/95/17 40/99/18 39/97/19
f 46/108/20 39/98/19 40/100/18 48/110/21
f 48/111/21 40/101/18 38/96/17 47/109/22
f 39/98/19 46/108/20 43/105/23 35/90/12
f 35/90/12 43/105/23 41/102/24 33/85/13
f 47/109/22 38/96/17 37/94/16 45/107/25
f 45/107/25 37/94/16 36/92/15 44/106/26
f 33/85/13 41/102/24 42/103/27 34/87/14
f 34/88/14 42/104/27 44/106/26 36/92/15
f 51/117/28 49/112/29 50/114/30 52/119/31 53/121/32 54/123/33 56/127/34 55/125/35
f 62/136/36 55/126/35 56/128/34 64/138/37
f 64/139/37 56/129/34 54/124/33 63/137/38
f 55/126/35 62/136/36 59/133/39 51/118/28
f 51/118/28 59/133/39 57/130/40 49/113/29
f 63/137/38 54/124/33 53/122/32 61/135/41
f 61/135/41 53/122/32 52/120/31 60/134/42
f 49/113/29 57/130/40 58/131/43 50/115/30
f 50/116/30 58/132/43 60/134/42 52/120/31
f 67/145/44 65/140/45 66/142/46 68/147/47 69/149/48 70/151/49 72/155/50 71/153/51
f 78/164/52 71/154/51 72/156/50 80/166/53
f 80/167/53 72/157/50 70/152/49 79/165/54
f 71/154/51 78/164/52 75/161/55 67/146/44
f 67/146/44 75/161/55 73/158/56 65/141/45
f 79/165/54 70/152/49 69/150/48 77/163/57
f 77/163/57 69/150/48 68/148/47 76/162/58
f 65/141/45 73/158/56 74/159/59 66/143/46
f 66/144/46 74/160/59 76/162/58 68/148/47
f 83/173/60 81/168/61 82/170/62 84/175/63 85/177/64 86/179/65 88/183/66 87/181/67
f 94/192/68 87/182/67 88/184/66 96/194/69
f 96/195/69 88/185/66 86/180/65 95/193/70
f 87/182/67 94/192/68 91/189/71 83/174/60
f 83/174/60 91/189/71 89/186/72 81/169/61
f 95/193/70 86/180/65 85/178/64 93/191/73
f 93/191/73 85/178/64 84/176/63 92/190/74
f 81/169/61 89/186/72 90/187/75 82/171/62
f 82/172/62 90/188/75 92/190/74 84/176/63
f 109/237/76 107/232/77 108/234/78 110/239/79 111/241/80 112/243/81 114/247/82 113/245/83
f 120/256/84 113/246/83 114/248/82 122/258/85
f 122/259/85 114/249/82 112/244/81 121/257/86
f 113/246/83 120/256/84 117/253/87 109/238/76
f 109/238/76 117/253/87 115/250/88 107/233/77
f 121/257/86 112/244/81 111/242/80 119/255/89
f 119/255/89 111/242/80 110/240/79 118/254/90
f 107/233/77 115/250/88 116/251/91 108/235/78
f 108/236/78 116/252/91 118/254/90 110/240/79
f 125/265/92 123/260/93 124/262/94 126/267/95 127/269/96 128/271/97 130/275/98 129/273/99
f 136/284/100 129/274/99 130/276/98 138/286/101
f 138/287/101 130/277/98 128/272/97 137/285/102
f 129/274/99 136/284/100 133/281/103 125/266/92
f 125/266/92 133/281/103 131/278/104 123/261/93
f 137/285/102 128/272/97 127/270/96 135/283/105
f 135/283/105 127/270/96 126/268/95 134/282/106
f 123/261/93 131/278/104 132/279/107 124/263/94
f 124/264/94 132/280/107 134/282/106 126/268/95
s 0
f 151/312/7 152/315/7 143/292/7 148/304/7
f 144/294/8 145/296/8 153/318/8 154/321/8
f 146/298/9 149/306/9 158/333/9 155/324/9
f 148/305/10 144/295/10 154/322/10 151/313/10
f 145/297/9 143/293/9 152/316/9 153/319/9
f 146/299/11 147/301/11 152/317/11 151/314/11
f 150/309/11 149/307/11 154/323/11 153/320/11
f 149/307/11 146/299/11 151/314/11 154/323/11
f 147/301/11 150/309/11 153/320/11 152/317/11
f 147/302/8 146/300/8 155/325/8 156/327/8
f 150/310/10 147/303/10 156/328/10 157/330/10
f 149/308/7 150/311/7 157/331/7 158/334/7
f 155/326/11 158/335/11 157/332/11 156/329/11
s 1
f 165/350/12 163/345/13 164/347/14 166/352/15 167/354/16 168/356/17 170/360/18 169/358/19
f 176/369/20 169/359/19 170/361/18 178/371/21
f 178/372/21 170/362/18 168/357/17 177/370/22
f 169/359/19 176/369/20 173/366/23 165/351/12
f 165/351/12 173/366/23 171/363/24 163/346/13
f 177/370/22 168/357/17 167/355/16 175/368/25
f 175/368/25 167/355/16 166/353/15 174/367/26
f 163/346/13 171/363/24 172/364/27 164/348/14
f 164/349/14 172/365/27 174/367/26 166/353/15
f 181/378/28 179/373/29 180/375/30 182/380/31 183/382/32 184/384/33 186/388/34 185/386/35
f 192/397/36 185/387/35 186/389/34 194/399/37
f 194/400/37 186/390/34 184/385/33 193/398/38
f 185/387/35 192/397/36 189/394/39 181/379/28
f 181/379/28 189/394/39 187/391/40 179/374/29
f 193/398/38 184/385/33 183/383/32 191/396/41
f 191/396/41 183/383/32 182/381/31 190/395/42
f 179/374/29 187/391/40 188/392/43 180/376/30
f 180/377/30 188/393/43 190/395/42 182/381/31
f 197/406/44 195/401/45 196/403/46 198/408/47 199/410/48 200/412/49 202/416/50 201/414/51
f 208/425/52 201/415/51 202/417/50 210/427/53
f 210/428/53 202/418/50 200/413/49 209/426/54
f 201/415/51 208/425/52 205/422/55 197/407/44
f 197/407/44 205/422/55 203/419/56 195/402/45
f 209/426/54 200/413/49 199/411/48 207/424/57
f 207/424/57 199/411/48 198/409/47 206/423/58
f 195/402/45 203/419/56 204/420/59 196/404/46
f 196/405/46 204/421/59 206/423/58 198/409/47
f 213/434/60 211/429/61 212/431/62 214/436/63 215/438/64 216/440/65 218/444/66 217/442/67
f 224/453/68 217/443/67 218/445/66 226/455/69
f 226/456/69 218/446/66 216/441/65 225/454/70
f 217/443/67 224/453/68 221/450/71 213/435/60
f 213/435/60 221/450/71 219/447/72 211/430/61
f 225/454/70 216/441/65 215/439/64 223/452/73
f 223/452/73 215/439/64 214/437/63 222/451/74
f 211/430/61 219/447/72 220/448/75 212/432/62
f 212/433/62 220/449/75 222/451/74 214/437/63
f 243/507/76 241/502/77 242/504/78 244/509/79 245/511/80 246/513/81 248/517/82 247/515/83
f 254/526/84 247/516/83 248/518/82 256/528/85
f 256/529/85 248/519/82 246/514/81 255/527/86
f 247/516/83 254/526/84 251/523/87 243/508/76
f 243/508/76 251/523/87 249/520/88 241/503/77
f 255/527/86 246/514/81 245/512/80 253/525/89
f 253/525/89 245/512/80 244/510/79 252/524/90
f 241/503/77 249/520/88 250/521/91 242/505/78
f 242/506/78 250/522/91 252/524/90 244/510/79
f 259/535/92 257/530/93 258/532/94 260/537/95 261/539/96 262/541/97 264/545/98 263/543/99
f 270/554/100 263/544/99 264/546/98 272/556/101
f 272/557/101 264/547/98 262/542/97 271/555/102
f 263/544/99 270/554/100 267/551/103 259/536/92
f 259/536/92 267/551/103 265/548/104 257/531/93
f 271/555/102 262/542/97 261/540/96 269/553/105
f 269/553/105 261/540/96 260/538/95 268/552/106
f 257/531/93 265/548/104 266/549/107 258/533/94
f 258/534/94 266/550/107 268/552/106 260/538/95
s 0
f 285/582/7 286/585/7 277/562/7 282/574/7
f 278/564/8 279/566/8 287/588/8 288/591/8
f 280/568/9 283/576/9 292/603/9 289/594/9
f 282/575/10 278/565/10 288/592/10 285/583/10
f 279/567/9 277/563/9 286/586/9 287/589/9
f 280/569/11 281/571/11 286/587/11 285/584/11
f 284/579/11 283/577/11 288/593/11 287/590/11
f 283/577/11 280/569/11 285/584/11 288/593/11
f 281/571/11 284/579/11 287/590/11 286/587/11
f 281/572/8 280/570/8 289/595/8 290/597/8
f 284/580/10 281/573/10 290/598/10 291/600/10
f 283/578/7 284/581/7 291/601/7 292/604/7
f 289/596/11 292/605/11 291/602/11 290/599/11
s 1
f 298/619/12 296/614/13 297/616/14 299/621/15 300/623/16 301/625/17 303/629/18 302/627/19
f 309/638/20 302/628/19 303/630/18 311/640/21
f 311/641/21 303/631/18 301/626/17 310/639/22
f 302/628/19 309/638/20 306/635/23 298/620/12
f 298/620/12 306/635/23 304/632/24 296/615/13
f 310/639/22 301/626/17 300/624/16 308/637/25
f 308/637/25 300/624/16 299/622/15 307/636/26
f 296/615/13 304/632/24 305/633/27 297/617/14
f 297/618/14 305/634/27 307/636/26 299/622/15
f 314/647/28 312/642/29 313/644/30 315/649/31 316/651/32 317/653/33 319/657/34 318/655/35
f 325/666/36 318/656/35 319/658/34 327/668/37
f 327/669/37 319/659/34 317/654/33 326/667/38
f 318/656/35 325/666/36 322/663/39 314/648/28
f 314/648/28 322/663/39 320/660/40 312/643/29
f 326/667/38 317/654/33 316/652/32 324/665/41
f 324/665/41 316/652/32 315/650/31 323/664/42
f 312/643/29 320/660/40 321/661/43 313/645/30
f 313/646/30 321/662/43 323/664/42 315/650/31
f 330/675/44 328/670/45 329/672/46 331/677/47 332/679/48 333/681/49 335/685/50 334/683/51
f 341/694/52 334/684/51 335/686/50 343/696/53
f 343/697/53 335/687/50 333/682/49 342/695/54
f 334/684/51 341/694/52 338/691/55 330/676/44
f 330/676/44 338/691/55 336/688/56 328/671/45
f 342/695/54 333/682/49 332/680/48 340/693/57
f 340/693/57 332/680/48 331/678/47 339/692/58
f 328/671/45 336/688/56 337/689/59 329/673/46
f 329/674/46 337/690/59 339/692/58 331/678/47
f 346/703/60 344/698/61 345/700/62 347/705/63 348/707/64 349/709/65 351/713/66 350/711/67
f 357/722/68 350/712/67 351/714/66 359/724/69
f 359/725/69 351/715/66 349/710/65 358/723/70
f 350/712/67 357/722/68 354/719/71 346/704/60
f 346/704/60 354/719/71 352/716/72 344/699/61
f 358/723/70 349/710/65 348/708/64 356/721/73
f 356/721/73 348/708/64 347/706/63 355/720/74
f 344/699/61 352/716/72 353/717/75 345/701/62
f 345/702/62 353/718/75 355/720/74 347/706/63
f 376/773/76 374/768/77 375/770/78 377/775/79 378/777/80 379/779/81 381/783/82 380/781/83
f 387/792/84 380/782/83 381/784/82 389/794/85
f 389/795/85 381/785/82 379/780/81 388/793/86
f 380/782/83 387/792/84 384/789/87 376/774/76
f 376/774/76 384/789/87 382/786/88 374/769/77
f 388/793/86 379/780/81 378/778/80 386/791/89
f 386/791/89 378/778/80 377/776/79 385/790/90
f 374/769/77 382/786/88 383/787/91 375/771/78
f 375/772/78 383/788/91 385/790/90 377/776/79
f 392/801/92 390/796/93 391/798/94 393/803/95 394/805/96 395/807/97 397/811/98 396/809/99
f 403/820/100 396/810/99 397/812/98 405/822/101
f 405/823/101 397/813/98 395/808/97 404/821/102
f 396/810/99 403/820/100 400/817/103 392/802/92
f 392/802/92 400/817/103 398/814/104 390/797/93
f 404/821/102 395/808/97 394/806/96 402/819/105
f 402/819/105 394/806/96 393/804/95 401/818/106
f 390/797/93 398/814/104 399/815/107 391/799/94
f 391/800/94 399/816/107 401/818/106 393/804/95
f 423/844/108 422/841/10 410/828/10 411/829/108
f 428/853/9 427/851/109 415/833/109 416/834/9
f 431/859/7 430/858/110 418/836/110 419/837/7
f 425/848/8 424/846/111 412/830/111 413/831/8
f 422/841/10 433/864/112 421/840/112 410/828/10
f 429/856/113 428/853/9 416/834/9 417/835/113
f 432/862/114 431/860/7 419/838/7 420/839/114
f 433/864/112 432/862/114 420/839/114 421/840/112
f 427/851/109 426/850/115 414/832/115 415/833/109
f 422/842/11 423/843/11 424/845/11 425/847/11 426/849/11 427/852/11 428/854/11 429/855/11 430/857/11 431/861/11 432/863/11 433/865/11
f 424/846/111 423/844/108 411/829/108 412/830/111
f 430/858/110 429/856/113 417/835/113 418/836/110
f 426/850/115 425/848/8 413/831/8 414/832/115
f 438/872/10 449/891/116 445/883/116 434/866/10
f 440/876/9 447/887/117 443/881/117 436/868/9
f 441/877/7 448/889/118 444/882/118 437/869/7
f 438/871/11 446/884/11 439/873/11 447/886/11 440/875/11 448/888/11 441/878/11 449/890/11
f 439/874/8 446/885/119 442/880/119 435/867/8
f 439/874/8 435/867/8 443/881/117 447/887/117
f 449/891/116 441/879/7 437/870/7 445/883/116
f 448/889/118 440/876/9 436/868/9 444/882/118
f 446/885/119 438/872/10 434/866/10 442/880/119
f 463/908/108 462/905/10 450/892/10 451/893/108
f 468/917/9 467/915/109 455/897/109 456/898/9
f 471/923/7 470/922/110 458/900/110 459/901/7
f 465/912/8 464/910/111 452/894/111 453/895/8
f 462/905/10 473/928/112 461/904/112 450/892/10
f 469/920/113 468/917/9 456/898/9 457/899/113
f 472/926/114 471/924/7 459/902/7 460/903/114
f 473/928/112 472/926/114 460/903/114 461/904/112
f 467/915/109 466/914/115 454/896/115 455/897/109
f 462/906/11 463/907/11 464/909/11 465/911/11 466/913/11 467/916/11 468/918/11 469/919/11 470/921/11 471/925/11 472/927/11 473/929/11
f 464/910/111 463/908/108 451/893/108 452/894/111
f 470/922/110 469/920/113 457/899/113 458/900/110
f 466/914/115 465/912/8 453/895/8 454/896/115
f 478/936/10 489/955/116 485/947/116 474/930/10
f 480/940/9 487/951/117 483/945/117 476/932/9
f 481/941/7 488/953/118 484/946/118 477/933/7
f 478/935/11 486/948/11 479/937/11 487/950/11 480/939/11 488/952/11 481/942/11 489/954/11
f 479/938/8 486/949/119 482/944/119 475/931/8
f 479/938/8 475/931/8 483/945/117 487/951/117
f 489/955/116 481/943/7 477/934/7 485/947/116
f 488/953/118 480/940/9 476/932/9 484/946/118
f 486/949/119 478/936/10 474/930/10 482/944/119
f 503/972/108 502/969/10 490/956/10 491/957/108
f 508/981/9 507/979/109 495/961/109 496/962/9
f 511/987/7 510/986/110 498/964/110 499/965/7
f 505/976/8 504/974/111 492/958/111 493/959/8
f 502/969/10 513/992/112 501/968/112 490/956/10
f 509/984/113 508/981/9 496/962/9 497/963/113
f 512/990/114 511/988/7 499/966/7 500/967/114
f 513/992/112 512/990/114 500/967/114 501/968/112
f 507/979/109 506/978/115 494/960/115 495/961/109
f 502/970/11 503/971/11 504/973/11 505/975/11 506/977/11 507/980/11 508/982/11 509/983/11 510/985/11 511/989/11 512/991/11 513/993/11
f 504/974/111 503/972/108 491/957/108 492/958/111
f 510/986/110 509/984/113 497/963/113 498/964/110
f 506/978/115 505/976/8 493/959/8 494/960/115
f 518/1000/10 529/1019/116 525/1011/116 514/994/10
f 520/1004/9 527/1015/117 523/1009/117 516/996/9
f 521/1005/7 528/1017/118 524/1010/118 517/997/7
f 518/999/11 526/1012/11 519/1001/11 527/1014/11 520/1003/11 528/1016/11 521/1006/11 529/1018/11
f 519/1002/8 526/1013/119 522/1008/119 515/995/8
f 519/1002/8 515/995/8 523/1009/117 527/1015/117
f 529/1019/116 521/1007/7 517/998/7 525/1011/116
f 528/1017/118 520/1004/9 516/996/9 524/1010/118
f 526/1013/119 518/1000/10 514/994/10 522/1008/119
f 543/1036/108 542/1033/10 530/1020/10 531/1021/108
f 548/1045/9 547/1043/109 535/1025/109 536/1026/9
f 551/1051/7 550/1050/110 538/1028/110 539/1029/7
f 545/1040/8 544/1038/111 532/1022/111 533/1023/8
f 542/1033/10 553/1056/112 541/1032/112 530/1020/10
f 549/1048/113 548/1045/9 536/1026/9 537/1027/113
f 552/1054/114 551/1052/7 539/1030/7 540/1031/114
f 553/1056/112 552/1054/114 540/1031/114 541/1032/112
f 547/1043/109 546/1042/115 534/1024/115 535/1025/109
f 542/1034/11 543/1035/11 544/1037/11 545/1039/11 546/1041/11 547/1044/11 548/1046/11 549/1047/11 550/1049/11 551/1053/11 552/1055/11 553/1057/11
f 544/1038/111 543/1036/108 531/1021/108 532/1022/111
f 550/1050/110 549/1048/113 537/1027/113 538/1028/110
f 546/1042/115 545/1040/8 533/1023/8 534/1024/115
f 558/1064/10 569/1083/116 565/1075/116 554/1058/10
f 560/1068/9 567/1079/117 563/1073/117 556/1060/9
f 561/1069/7 568/1081/118 564/1074/118 557/1061/7
f 558/1063/11 566/1076/11 559/1065/11 567/1078/11 560/1067/11 568/1080/11 561/1070/11 569/1082/11
f 559/1066/8 566/1077/119 562/1072/119 555/1059/8
f 559/1066/8 555/1059/8 563/1073/117 567/1079/117
f 569/1083/116 561/1071/7 557/1062/7 565/1075/116
f 568/1081/118 560/1068/9 556/1060/9 564/1074/118
f 566/1077/119 558/1064/10 554/1058/10 562/1072/119
f 583/1100/108 582/1097/10 570/1084/10 571/1085/108
f 588/1109/9 587/1107/109 575/1089/109 576/1090/9
f 591/1115/7 590/1114/110 578/1092/110 579/1093/7
f 585/1104/8 584/1102/111 572/1086/111 573/1087/8
f 582/1097/10 593/1120/112 581/1096/112 570/1084/10
f 589/1112/113 588/1109/9 576/1090/9 577/1091/113
f 592/1118/114 591/1116/7 579/1094/7 580/1095/114
f 593/1120/112 592/1118/114 580/1095/114 581/1096/112
f 587/1107/109 586/1106/115 574/1088/115 575/1089/109
f 582/1098/11 583/1099/11 584/1101/11 585/1103/11 586/1105/11 587/1108/11 588/1110/11 589/1111/11 590/1113/11 591/1117/11 592/1119/11 593/1121/11
f 584/1102/111 583/1100/108 571/1085/108 572/1086/111
f 590/1114/110 589/1112/113 577/1091/113 578/1092/110
f 586/1106/115 585/1104/8 573/1087/8 574/1088/115
f 598/1128/10 609/1147/116 605/1139/116 594/1122/10
f 600/1132/9 607/1143/117 603/1137/117 596/1124/9
f 601/1133/7 608/1145/118 604/1138/118 597/1125/7
f 598/1127/11 606/1140/11 599/1129/11 607/1142/11 600/1131/11 608/1144/11 601/1134/11 609/1146/11
f 599/1130/8 606/1141/119 602/1136/119 595/1123/8
f 599/1130/8 595/1123/8 603/1137/117 607/1143/117
f 609/1147/116 601/1135/7 597/1126/7 605/1139/116
f 608/1145/118 600/1132/9 596/1124/9 604/1138/118
f 606/1141/119 598/1128/10 594/1122/10 602/1136/119
f 623/1164/108 622/1161/10 610/1148/10 611/1149/108
f 628/1173/9 627/1171/109 615/1153/109 616/1154/9
f 631/1179/7 630/1178/110 618/1156/110 619/1157/7
f 625/1168/8 624/1166/111 612/1150/111 613/1151/8
f 622/1161/10 633/1184/112 621/1160/112 610/1148/10
f 629/1176/113 628/1173/9 616/1154/9 617/1155/113
f 632/1182/114 631/1180/7 619/1158/7 620/1159/114
f 633/1184/112 632/1182/114 620/1159/114 621/1160/112
f 627/1171/109 626/1170/115 614/1152/115 615/1153/109
f 622/1162/11 623/1163/11 624/1165/11 625/1167/11 626/1169/11 627/1172/11 628/1174/11 629/1175/11 630/1177/11 631/1181/11 632/1183/11 633/1185/11
f 624/1166/111 623/1164/108 611/1149/108 612/1150/111
f 630/1178/110 629/1176/113 617/1155/113 618/1156/110
f 626/1170/115 625/1168/8 613/1151/8 614/1152/115
f 638/1192/10 649/1211/116 645/1203/116 634/1186/10
f 640/1196/9 647/1207/117 643/1201/117 636/1188/9
f 641/1197/7 648/1209/118 644/1202/118 637/1189/7
f 638/1191/11 646/1204/11 639/1193/11 647/1206/11 640/1195/11 648/1208/11 641/1198/11 649/1210/11
f 639/1194/8 646/1205/119 642/1200/119 635/1187/8
f 639/1194/8 635/1187/8 643/1201/117 647/1207/117
f 649/1211/116 641/1199/7 637/1190/7 645/1203/116
f 648/1209/118 640/1196/9 636/1188/9 644/1202/118
f 646/1205/119 638/1192/10 634/1186/10 642/1200/119
o panel_etx_1_button_child_2
v 0.134600 0.012463 0.186627
v 0.091400 0.012463 0.186627
v 0.134600 -0.002592 0.163826
v 0.091400 -0.002592 0.163826
v 0.134600 0.079227 0.168737
v 0.091400 0.079227 0.168737
v 0.134600 0.080864 0.141464
v 0.091400 0.080864 0.141464
v 0.134600 0.039136 0.152645
v 0.091400 0.039136 0.152645
v 0.134600 0.043609 0.169337
v 0.091400 0.043609 0.169337
vn -0.0000 -0.8345 0.5510
vn -0.0000 0.9982 0.0599
vn -0.0000 0.4854 0.8743
vn 1.0000 -0.0000 -0.0000
vn -1.0000 -0.0000 -0.0000
vn -0.0000 0.0168 0.9999
vt 0.087891 0.410156
vt 0.121094 0.412109
vt 0.091720 0.407995
vt 0.087891 0.390625
vt 0.121094 0.392578
vt 0.091716 0.407916
vt 0.099609 0.410156
vt 0.087776 0.397070
vt 0.099609 0.390625
vt 0.087778 0.397101
vt 0.087891 0.410156
vt 0.123801 0.407995
vt 0.136719 0.412109
vt 0.087891 0.390625
vt 0.123805 0.407916
vt 0.136719 0.392578
vt 0.099609 0.410156
vt 0.127745 0.397070
vt 0.099609 0.390625
vt 0.127743 0.397101
vt 0.107778 0.397103
vt 0.107741 0.397137
vt 0.136719 0.412109
vt 0.107733 0.404239
vt 0.121094 0.412109
vt 0.136719 0.392578
vt 0.107791 0.404186
vt 0.121094 0.392578
s 0
usemtl electronics_etx_part_1
f 650/1212/120 651/1215/120 653/1220/120 652/1218/120
f 656/1228/121 657/1230/121 655/1225/121 654/1222/121
f 660/1234/122 661/1237/122 651/1216/122 650/1213/122
f 658/1232/123 656/1229/123 654/1223/123 660/1235/123
f 659/1233/124 653/1221/124 651/1217/124 661/1238/124
f 657/1231/124 659/1233/124 661/1238/124 655/1226/124
f 652/1219/123 658/1232/123 660/1235/123 650/1214/123
f 654/1224/125 655/1227/125 661/1239/125 660/1236/125
o panel_etx_1_button_child_3
v 0.574600 0.012463 0.186627
v 0.531400 0.012463 0.186627
v 0.574600 -0.002592 0.163826
v 0.531400 -0.002592 0.163826
v 0.574600 0.079227 0.168737
v 0.531400 0.079227 0.168737
v 0.574600 0.080864 0.141464
v 0.531400 0.080864 0.141464
v 0.574600 0.039136 0.152645
v 0.531400 0.039136 0.152645
v 0.574600 0.043609 0.169337
v 0.531400 0.043609 0.169337
vn -0.0000 -0.8345 0.5510
vn -0.0000 0.9982 0.0599
vn -0.0000 0.4854 0.8743
vn 1.0000 -0.0000 -0.0000
vn -1.0000 -0.0000 -0.0000
vn -0.0000 0.0168 0.9999
vt 0.138672 0.359375
vt 0.171875 0.361328
vt 0.142501 0.357214
vt 0.138672 0.339844
vt 0.171875 0.341797
vt 0.142497 0.357135
vt 0.150391 0.359375
vt 0.138558 0.346288
vt 0.150391 0.339844
vt 0.138559 0.346319
vt 0.138672 0.359375
vt 0.174582 0.357214
vt 0.187500 0.361328
vt 0.138672 0.339844
vt 0.174586 0.357135
vt 0.187500 0.341797
vt 0.150391 0.359375
vt 0.178526 0.346288
vt 0.150391 0.339844
vt 0.178524 0.346319
vt 0.158559 0.346322
vt 0.158522 0.346356
vt 0.187500 0.361328
vt 0.158514 0.353457
vt 0.171875 0.361328
vt 0.187500 0.341797
vt 0.158572 0.353404
vt 0.171875 0.341797
s 0
usemtl electronics_etx_part_1
f 662/1240/126 663/1243/126 665/1248/126 664/1246/126
f 668/1256/127 669/1258/127 667/1253/127 666/1250/127
f 672/1262/128 673/1265/128 663/1244/128 662/1241/128
f 670/1260/129 668/1257/129 666/1251/129 672/1263/129
f 671/1261/130 665/1249/130 663/1245/130 673/1266/130
f 669/1259/130 671/1261/130 673/1266/130 667/1254/130
f 664/1247/129 670/1260/129 672/1263/129 662/1242/129
f 666/1252/131 667/1255/131 673/1267/131 672/1264/131
o panel_etx_2_switch_child_1
v -0.462682 -0.079333 0.148288
v -0.470772 -0.072327 0.144243
v -0.478861 -0.079333 0.148288
v -0.470772 -0.086338 0.152333
v -0.462682 -0.073645 0.158140
v -0.470772 -0.066639 0.154095
v -0.478861 -0.073645 0.158140
v -0.470772 -0.080650 0.162185
v -0.465247 -0.074548 0.145526
v -0.476297 -0.074548 0.145526
v -0.476297 -0.084118 0.151051
v -0.465247 -0.084118 0.151051
v -0.465247 -0.068860 0.155378
v -0.476297 -0.068860 0.155378
v -0.476297 -0.078430 0.160903
v -0.465247 -0.078430 0.160903
v -0.467085 -0.076838 0.159984
v -0.467085 -0.070452 0.156297
v -0.474459 -0.070452 0.156297
v -0.474459 -0.076838 0.159984
v -0.465444 -0.066944 0.180401
v -0.465444 -0.057717 0.175074
v -0.476099 -0.057717 0.175074
v -0.476099 -0.066944 0.180401
v -0.467505 -0.061714 0.185340
v -0.467505 -0.056055 0.182072
v -0.474039 -0.056055 0.182072
v -0.474039 -0.061714 0.185340
vn 0.9791 0.1016 0.1759
vn 0.7071 -0.6124 0.3536
vn 0.9791 -0.1016 -0.1759
vn -0.0000 0.5000 0.8660
vn -0.7071 0.6124 -0.3536
vn -0.0000 0.9495 -0.3136
vn -0.0000 0.7464 -0.6655
vn -0.9791 0.1016 0.1759
vn -0.9791 -0.1016 -0.1759
vn -0.7071 -0.6124 0.3536
vn -0.0000 -0.7464 0.6655
vn -0.0000 -0.9495 0.3136
vn 0.7071 0.6124 -0.3536
vn -0.0010 0.8264 -0.5631
vn -0.0000 0.8276 -0.5613
vn 0.0010 0.8264 -0.5631
vn 0.0012 -0.6850 0.7285
vn -0.0018 -0.6862 0.7274
vn -0.1389 -0.7506 0.6460
vn 0.1724 -0.6778 0.7148
vn -0.0885 0.6207 0.7791
vn -0.0915 0.3661 0.9261
vn 0.1470 0.4146 0.8981
vn 0.0018 0.6418 0.7669
vn 0.0023 -0.9003 0.4353
vn -0.0000 -0.8999 0.4361
vn -0.0007 -0.9006 0.4346
vn -0.9914 0.0221 0.1291
vn -0.9735 -0.0278 0.2269
vn -0.9575 0.1431 0.2503
vn -0.9579 0.1455 0.2474
vn -0.9973 -0.0385 -0.0622
vn -0.9974 -0.0362 -0.0626
vn -0.9972 -0.0364 -0.0650
vn 0.9900 0.1156 0.0802
vn 0.9576 0.1448 0.2489
vn 0.9575 0.1431 0.2503
vn 0.9896 0.0090 0.1436
vn 0.0022 0.9731 -0.2304
vn 0.0620 0.9213 -0.3840
vn -0.1362 0.9340 -0.3303
vn -0.0023 0.9731 -0.2304
vn 0.9973 -0.0350 -0.0640
vn 0.9974 -0.0362 -0.0626
vn 0.9973 -0.0385 -0.0622
vt 0.307348 0.623345
vt 0.313796 0.623345
vt 0.320245 0.623345
vt 0.326694 0.623345
vt 0.300899 0.623345
vt 0.274006 0.600660
vt 0.307348 0.629367
vt 0.280037 0.601199
vt 0.313796 0.629367
vt 0.279499 0.607230
vt 0.320245 0.629367
vt 0.273467 0.606692
vt 0.326694 0.629367
vt 0.300899 0.629367
vt 0.310572 0.623345
vt 0.317021 0.623345
vt 0.323469 0.623345
vt 0.304124 0.623345
vt 0.277120 0.599826
vt 0.310572 0.629367
vt 0.280872 0.604313
vt 0.317021 0.629367
vt 0.276384 0.608065
vt 0.323469 0.629367
vt 0.272632 0.603577
vt 0.304124 0.629367
vt 0.930417 0.725520
vt 0.929228 0.725309
vt 0.925108 0.724858
vt 0.926315 0.724885
vt 0.922164 0.724885
vt 0.920968 0.725043
vt 0.933231 0.726385
vt 0.918062 0.725520
vt 0.888741 0.716549
vt 0.933166 0.713807
vt 0.886607 0.719198
vt 0.931448 0.713502
vt 0.925495 0.712850
vt 0.882919 0.715959
vt 0.880329 0.713831
vt 0.927239 0.712888
vt 0.921240 0.712888
vt 0.885647 0.707443
vt 0.919511 0.713117
vt 0.883514 0.710092
vt 0.891925 0.712809
vt 0.937232 0.715057
vt 0.889335 0.710682
vt 0.915313 0.713807
vt 0.886881 0.714297
vt 0.887057 0.714536
vt 0.886747 0.715276
vt 0.884972 0.714325
vt 0.885192 0.714126
vt 0.884281 0.713959
vt 0.885197 0.712105
vt 0.885508 0.711365
vt 0.885373 0.712343
vt 0.887973 0.712681
vt 0.887282 0.712316
vt 0.887062 0.712514
s 1
usemtl electronics_etx_part_1
f 678/1274/132 689/1293/133 685/1285/133 674/1268/134
f 678/1273/135 686/1286/135 679/1275/135 687/1288/135 680/1277/135 688/1290/135 681/1279/135 689/1292/135
f 687/1289/136 679/1276/137 675/1269/138 683/1283/136
f 680/1278/139 687/1289/136 683/1283/136 676/1270/140
f 688/1291/141 680/1278/139 676/1270/140 684/1284/141
f 681/1280/142 688/1291/141 684/1284/141 677/1271/143
f 679/1276/137 686/1287/144 682/1282/144 675/1269/138
f 681/1281/142 677/1272/143 685/1285/133 689/1293/133
f 686/1287/144 678/1274/132 674/1268/134 682/1282/144
f 695/1306/145 691/1296/146 692/1298/146 696/1310/147
f 697/1314/148 694/1302/149 698/1318/150 701/1327/151
f 698/1319/152 699/1321/153 700/1324/154 701/1328/155
f 697/1315/156 693/1300/157 690/1294/157 694/1303/158
f 701/1329/159 700/1325/160 696/1311/161 697/1316/162
f 696/1312/163 692/1299/164 693/1301/164 697/1317/165
f 698/1320/166 694/1304/167 695/1307/168 699/1322/169
f 696/1313/170 700/1326/171 699/1323/172 695/1308/173
f 694/1305/174 690/1295/175 691/1297/175 695/1309/176
o panel_etx_2_switch_child_2
v -0.400138 -0.079333 0.148288
v -0.408227 -0.072327 0.144243
v -0.416316 -0.079333 0.148288
v -0.408227 -0.086338 0.152333
v -0.400138 -0.073645 0.158140
v -0.408227 -0.066639 0.154095
v -0.416316 -0.073645 0.158140
v -0.408227 -0.080650 0.162185
v -0.402702 -0.074548 0.145526
v -0.413752 -0.074548 0.145526
v -0.413752 -0.084118 0.151051
v -0.402702 -0.084118 0.151051
v -0.402702 -0.068860 0.155378
v -0.413752 -0.068860 0.155378
v -0.413752 -0.078430 0.160903
v -0.402702 -0.078430 0.160903
v -0.404540 -0.076838 0.159984
v -0.404540 -0.070452 0.156297
v -0.411914 -0.070452 0.156297
v -0.411914 -0.076838 0.159984
v -0.402899 -0.066944 0.180401
v -0.402899 -0.057717 0.175074
v -0.413554 -0.057717 0.175074
v -0.413554 -0.066944 0.180401
v -0.404960 -0.061714 0.185340
v -0.404960 -0.056055 0.182072
v -0.411494 -0.056055 0.182072
v -0.411494 -0.061714 0.185340
vn 0.9791 0.1016 0.1759
vn 0.7071 -0.6124 0.3536
vn 0.9791 -0.1016 -0.1759
vn -0.0000 0.5000 0.8660
vn -0.7071 0.6124 -0.3536
vn -0.0000 0.9495 -0.3136
vn -0.0000 0.7464 -0.6655
vn -0.9791 0.1016 0.1759
vn -0.9791 -0.1016 -0.1759
vn -0.7071 -0.6124 0.3536
vn -0.0000 -0.7464 0.6655
vn -0.0000 -0.9495 0.3136
vn 0.7071 0.6124 -0.3536
vn -0.0010 0.8264 -0.5631
vn -0.0000 0.8276 -0.5613
vn 0.0010 0.8264 -0.5631
vn 0.0012 -0.6850 0.7285
vn -0.0018 -0.6862 0.7274
vn -0.1389 -0.7506 0.6460
vn 0.1724 -0.6778 0.7148
vn -0.0885 0.6207 0.7791
vn -0.0915 0.3661 0.9261
vn 0.1470 0.4146 0.8981
vn 0.0018 0.6418 0.7669
vn 0.0023 -0.9003 0.4353
vn -0.0000 -0.8999 0.4361
vn -0.0007 -0.9006 0.4346
vn -0.9914 0.0221 0.1291
vn -0.9735 -0.0278 0.2269
vn -0.9575 0.1431 0.2503
vn -0.9579 0.1455 0.2474
vn -0.9973 -0.0385 -0.0622
vn -0.9974 -0.0362 -0.0626
vn -0.9972 -0.0364 -0.0650
vn 0.9900 0.1156 0.0802
vn 0.9576 0.1448 0.2489
vn 0.9575 0.1431 0.2503
vn 0.9896 0.0090 0.1436
vn 0.0022 0.9731 -0.2304
vn 0.0620 0.9213 -0.3840
vn -0.1362 0.9340 -0.3303
vn -0.0023 0.9731 -0.2304
vn 0.9973 -0.0350 -0.0640
vn 0.9974 -0.0362 -0.0626
vn 0.9973 -0.0385 -0.0622
vt 0.307348 0.623345
vt 0.313796 0.623345
vt 0.320245 0.623345
vt 0.326694 0.623345
vt 0.300899 0.623345
vt 0.274006 0.600660
vt 0.307348 0.629367
vt 0.280037 0.601199
vt 0.313796 0.629367
vt 0.279499 0.607230
vt 0.320245 0.629367
vt 0.273467 0.606692
vt 0.326694 0.629367
vt 0.300899 0.629367
vt 0.310572 0.623345
vt 0.317021 0.623345
vt 0.323469 0.623345
vt 0.304124 0.623345
vt 0.277120 0.599826
vt 0.310572 0.629367
vt 0.280872 0.604313
vt 0.317021 0.629367
vt 0.276384 0.608065
vt 0.323469 0.629367
vt 0.272632 0.603577
vt 0.304124 0.629367
vt 0.930417 0.725520
vt 0.929228 0.725309
vt 0.925108 0.724858
vt 0.926315 0.724885
vt 0.922164 0.724885
vt 0.920968 0.725043
vt 0.933231 0.726385
vt 0.918062 0.725520
vt 0.888741 0.716549
vt 0.933166 0.713807
vt 0.886607 0.719198
vt 0.931448 0.713502
vt 0.925495 0.712850
vt 0.882919 0.715959
vt 0.880329 0.713831
vt 0.927239 0.712888
vt 0.921240 0.712888
vt 0.885647 0.707443
vt 0.919511 0.713117
vt 0.883514 0.710092
vt 0.891925 0.712809
vt 0.937232 0.715057
vt 0.889335 0.710682
vt 0.915313 0.713807
vt 0.886881 0.714297
vt 0.887057 0.714536
vt 0.886747 0.715276
vt 0.884972 0.714325
vt 0.885192 0.714126
vt 0.884281 0.713959
vt 0.885197 0.712105
vt 0.885508 0.711365
vt 0.885373 0.712343
vt 0.887973 0.712681
vt 0.887282 0.712316
vt 0.887062 0.712514
s 1
usemtl electronics_etx_part_1
f 706/1336/177 717/1355/178 713/1347/178 702/1330/179
f 706/1335/180 714/1348/180 707/1337/180 715/1350/180 708/1339/180 716/1352/180 709/1341/180 717/1354/180
f 715/1351/181 707/1338/182 703/1331/183 711/1345/181
f 708/1340/184 715/1351/181 711/1345/181 704/1332/185
f 716/1353/186 708/1340/184 704/1332/185 712/1346/186
f 709/1342/187 716/1353/186 712/1346/186 705/1333/188
f 707/1338/182 714/1349/189 710/1344/189 703/1331/183
f 709/1343/187 705/1334/188 713/1347/178 717/1355/178
f 714/1349/189 706/1336/177 702/1330/179 710/1344/189
f 723/1368/190 719/1358/191 720/1360/191 724/1372/192
f 725/1376/193 722/1364/194 726/1380/195 729/1389/196
f 726/1381/197 727/1383/198 728/1386/199 729/1390/200
f 725/1377/201 721/1362/202 718/1356/202 722/1365/203
f 729/1391/204 728/1387/205 724/1373/206 725/1378/207
f 724/1374/208 720/1361/209 721/1363/209 725/1379/210
f 726/1382/211 722/1366/212 723/1369/213 727/1384/214
f 724/1375/215 728/1388/216 727/1385/217 723/1370/218
f 722/1367/219 718/1357/220 719/1359/220 723/1371/221
o panel_etx_2_switch_child_3
v -0.022682 -0.079333 0.148288
v -0.030772 -0.072327 0.144243
v -0.038861 -0.079333 0.148288
v -0.030772 -0.086338 0.152333
v -0.022682 -0.073645 0.158140
v -0.030772 -0.066639 0.154095
v -0.038861 -0.073645 0.158140
v -0.030772 -0.080650 0.162185
v -0.025247 -0.074548 0.145526
v -0.036297 -0.074548 0.145526
v -0.036297 -0.084118 0.151051
v -0.025247 -0.084118 0.151051
v -0.025247 -0.068860 0.155378
v -0.036297 -0.068860 0.155378
v -0.036297 -0.078430 0.160903
v -0.025247 -0.078430 0.160903
v -0.027085 -0.076838 0.159984
v -0.027085 -0.070452 0.156297
v -0.034458 -0.070452 0.156297
v -0.034458 -0.076838 0.159984
v -0.025444 -0.066944 0.180401
v -0.025444 -0.057717 0.175074
v -0.036099 -0.057717 0.175074
v -0.036099 -0.066944 0.180401
v -0.027504 -0.061714 0.185340
v -0.027504 -0.056055 0.182072
v -0.034039 -0.056055 0.182072
v -0.034039 -0.061714 0.185340
vn 0.9791 0.1016 0.1759
vn 0.7071 -0.6124 0.3536
vn 0.9791 -0.1016 -0.1759
vn -0.0000 0.5000 0.8660
vn -0.7071 0.6124 -0.3536
vn -0.0000 0.9495 -0.3136
vn -0.0000 0.7464 -0.6655
vn -0.9791 0.1016 0.1759
vn -0.9791 -0.1016 -0.1759
vn -0.7071 -0.6124 0.3536
vn -0.0000 -0.7464 0.6655
vn -0.0000 -0.9495 0.3136
vn 0.7071 0.6124 -0.3536
vn -0.0010 0.8264 -0.5631
vn -0.0000 0.8276 -0.5613
vn 0.0010 0.8264 -0.5631
vn 0.0012 -0.6850 0.7285
vn -0.0018 -0.6862 0.7274
vn -0.1389 -0.7506 0.6460
vn 0.1724 -0.6778 0.7148
vn -0.0885 0.6207 0.7791
vn -0.0915 0.3661 0.9261
vn 0.1470 0.4146 0.8981
vn 0.0018 0.6418 0.7669
vn 0.0023 -0.9003 0.4353
vn -0.0000 -0.8999 0.4361
vn -0.0007 -0.9006 0.4346
vn -0.9914 0.0221 0.1291
vn -0.9735 -0.0278 0.2269
vn -0.9575 0.1431 0.2503
vn -0.9579 0.1455 0.2474
vn -0.9973 -0.0385 -0.0622
vn -0.9974 -0.0362 -0.0626
vn -0.9972 -0.0364 -0.0650
vn 0.9900 0.1156 0.0802
vn 0.9576 0.1448 0.2489
vn 0.9575 0.1431 0.2503
vn 0.9896 0.0090 0.1436
vn 0.0022 0.9731 -0.2304
vn 0.0620 0.9213 -0.3840
vn -0.1362 0.9340 -0.3303
vn -0.0023 0.9731 -0.2304
vn 0.9973 -0.0350 -0.0640
vn 0.9974 -0.0362 -0.0626
vn 0.9973 -0.0385 -0.0622
vt 0.307348 0.623345
vt 0.313796 0.623345
vt 0.320245 0.623345
vt 0.326694 0.623345
vt 0.300899 0.623345
vt 0.274006 0.600660
vt 0.307348 0.629367
vt 0.280037 0.601199
vt 0.313796 0.629367
vt 0.279499 0.607230
vt 0.320245 0.629367
vt 0.273467 0.606692
vt 0.326694 0.629367
vt 0.300899 0.629367
vt 0.310572 0.623345
vt 0.317021 0.623345
vt 0.323469 0.623345
vt 0.304124 0.623345
vt 0.277120 0.599826
vt 0.310572 0.629367
vt 0.280872 0.604313
vt 0.317021 0.629367
vt 0.276384 0.608065
vt 0.323469 0.629367
vt 0.272632 0.603577
vt 0.304124 0.629367
vt 0.930417 0.725520
vt 0.929228 0.725309
vt 0.925108 0.724858
vt 0.926315 0.724885
vt 0.922164 0.724885
vt 0.920968 0.725043
vt 0.933231 0.726385
vt 0.918062 0.725520
vt 0.888741 0.716549
vt 0.933166 0.713807
vt 0.886607 0.719198
vt 0.931448 0.713502
vt 0.925495 0.712850
vt 0.882919 0.715959
vt 0.880329 0.713831
vt 0.927239 0.712888
vt 0.921240 0.712888
vt 0.885647 0.707443
vt 0.919511 0.713117
vt 0.883514 0.710092
vt 0.891925 0.712809
vt 0.937232 0.715057
vt 0.889335 0.710682
vt 0.915313 0.713807
vt 0.886881 0.714297
vt 0.887057 0.714536
vt 0.886747 0.715276
vt 0.884972 0.714325
vt 0.885192 0.714126
vt 0.884281 0.713959
vt 0.885197 0.712105
vt 0.885508 0.711365
vt 0.885373 0.712343
vt 0.887973 0.712681
vt 0.887282 0.712316
vt 0.887062 0.712514
s 1
usemtl electronics_etx_part_1
f 734/1398/222 745/1417/223 741/1409/223 730/1392/224
f 734/1397/225 742/1410/225 735/1399/225 743/1412/225 736/1401/225 744/1414/225 737/1403/225 745/1416/225
f 743/1413/226 735/1400/227 731/1393/228 739/1407/226
f 736/1402/229 743/1413/226 739/1407/226 732/1394/230
f 744/1415/231 736/1402/229 732/1394/230 740/1408/231
f 737/1404/232 744/1415/231 740/1408/231 733/1395/233
f 735/1400/227 742/1411/234 738/1406/234 731/1393/228
f 737/1405/232 733/1396/233 741/1409/223 745/1417/223
f 742/1411/234 734/1398/222 730/1392/224 738/1406/234
f 751/1430/235 747/1420/236 748/1422/236 752/1434/237
f 753/1438/238 750/1426/239 754/1442/240 757/1451/241
f 754/1443/242 755/1445/243 756/1448/244 757/1452/245
f 753/1439/246 749/1424/247 746/1418/247 750/1427/248
f 757/1453/249 756/1449/250 752/1435/251 753/1440/252
f 752/1436/253 748/1423/254 749/1425/254 753/1441/255
f 754/1444/256 750/1428/257 751/1431/258 755/1446/259
f 752/1437/260 756/1450/261 755/1447/262 751/1432/263
f 750/1429/264 746/1419/265 747/1421/265 751/1433/266
o panel_etx_2_switch_child_4
v 0.039862 -0.079333 0.148288
v 0.031773 -0.072327 0.144243
v 0.023684 -0.079333 0.148288
v 0.031773 -0.086338 0.152333
v 0.039862 -0.073645 0.158140
v 0.031773 -0.066639 0.154095
v 0.023684 -0.073645 0.158140
v 0.031773 -0.080650 0.162185
v 0.037298 -0.074548 0.145526
v 0.026248 -0.074548 0.145526
v 0.026248 -0.084118 0.151051
v 0.037298 -0.084118 0.151051
v 0.037298 -0.068860 0.155378
v 0.026248 -0.068860 0.155378
v 0.026248 -0.078430 0.160903
v 0.037298 -0.078430 0.160903
v 0.035460 -0.076838 0.159984
v 0.035460 -0.070452 0.156297
v 0.028086 -0.070452 0.156297
v 0.028086 -0.076838 0.159984
v 0.037101 -0.066944 0.180401
v 0.037101 -0.057717 0.175074
v 0.026446 -0.057717 0.175074
v 0.026446 -0.066944 0.180401
v 0.035040 -0.061714 0.185340
v 0.035040 -0.056055 0.182072
v 0.028506 -0.056055 0.182072
v 0.028506 -0.061714 0.185340
vn 0.9791 0.1016 0.1759
vn 0.7071 -0.6124 0.3536
vn 0.9791 -0.1016 -0.1759
vn -0.0000 0.5000 0.8660
vn -0.7071 0.6124 -0.3536
vn -0.0000 0.9495 -0.3136
vn -0.0000 0.7464 -0.6655
vn -0.9791 0.1016 0.1759
vn -0.9791 -0.1016 -0.1759
vn -0.7071 -0.6124 0.3536
vn -0.0000 -0.7464 0.6655
vn -0.0000 -0.9495 0.3136
vn 0.7071 0.6124 -0.3536
vn -0.0010 0.8264 -0.5631
vn -0.0000 0.8276 -0.5613
vn 0.0010 0.8264 -0.5631
vn 0.0012 -0.6850 0.7285
vn -0.0018 -0.6862 0.7274
vn -0.1389 -0.7506 0.6460
vn 0.1724 -0.6778 0.7148
vn -0.0885 0.6207 0.7791
vn -0.0915 0.3661 0.9261
vn 0.1470 0.4146 0.8981
vn 0.0018 0.6418 0.7669
vn 0.0023 -0.9003 0.4353
vn -0.0000 -0.8999 0.4361
vn -0.0007 -0.9006 0.4346
vn -0.9914 0.0221 0.1291
vn -0.9735 -0.0278 0.2269
vn -0.9575 0.1431 0.2503
vn -0.9579 0.1455 0.2474
vn -0.9973 -0.0385 -0.0622
vn -0.9974 -0.0362 -0.0626
vn -0.9972 -0.0364 -0.0650
vn 0.9900 0.1156 0.0802
vn 0.9576 0.1448 0.2489
vn 0.9575 0.1431 0.2503
vn 0.9896 0.0090 0.1436
vn 0.0022 0.9731 -0.2304
vn 0.0620 0.9213 -0.3840
vn -0.1362 0.9340 -0.3303
vn -0.0023 0.9731 -0.2304
vn 0.9973 -0.0350 -0.0640
vn 0.9974 -0.0362 -0.0626
vn 0.9973 -0.0385 -0.0622
vt 0.307348 0.623345
vt 0.313796 0.623345
vt 0.320245 0.623345
vt 0.326694 0.623345
vt 0.300899 0.623345
vt 0.274006 0.600660
vt 0.307348 0.629367
vt 0.280037 0.601199
vt 0.313796 0.629367
vt 0.279499 0.607230
vt 0.320245 0.629367
vt 0.273467 0.606692
vt 0.326694 0.629367
vt 0.300899 0.629367
vt 0.310572 0.623345
vt 0.317021 0.623345
vt 0.323469 0.623345
vt 0.304124 0.623345
vt 0.277120 0.599826
vt 0.310572 0.629367
vt 0.280872 0.604313
vt 0.317021 0.629367
vt 0.276384 0.608065
vt 0.323469 0.629367
vt 0.272632 0.603577
vt 0.304124 0.629367
vt 0.930417 0.725520
vt 0.929228 0.725309
vt 0.925108 0.724858
vt 0.926315 0.724885
vt 0.922164 0.724885
vt 0.920968 0.725043
vt 0.933231 0.726385
vt 0.918062 0.725520
vt 0.888741 0.716549
vt 0.933166 0.713807
vt 0.886607 0.719198
vt 0.931448 0.713502
vt 0.925495 0.712850
vt 0.882919 0.715959
vt 0.880329 0.713831
vt 0.927239 0.712888
vt 0.921240 0.712888
vt 0.885647 0.707443
vt 0.919511 0.713117
vt 0.883514 0.710092
vt 0.891925 0.712809
vt 0.937232 0.715057
vt 0.889335 0.710682
vt 0.915313 0.713807
vt 0.886881 0.714297
vt 0.887057 0.714536
vt 0.886747 0.715276
vt 0.884972 0.714325
vt 0.885192 0.714126
vt 0.884281 0.713959
vt 0.885197 0.712105
vt 0.885508 0.711365
vt 0.885373 0.712343
vt 0.887973 0.712681
vt 0.887282 0.712316
vt 0.887062 0.712514
s 1
usemtl electronics_etx_part_1
f 762/1460/267 773/1479/268 769/1471/268 758/1454/269
f 762/1459/270 770/1472/270 763/1461/270 771/1474/270 764/1463/270 772/1476/270 765/1465/270 773/1478/270
f 771/1475/271 763/1462/272 759/1455/273 767/1469/271
f 764/1464/274 771/1475/271 767/1469/271 760/1456/275
f 772/1477/276 764/1464/274 760/1456/275 768/1470/276
f 765/1466/277 772/1477/276 768/1470/276 761/1457/278
f 763/1462/272 770/1473/279 766/1468/279 759/1455/273
f 765/1467/277 761/1458/278 769/1471/268 773/1479/268
f 770/1473/279 762/1460/267 758/1454/269 766/1468/279
f 779/1492/280 775/1482/281 776/1484/281 780/1496/282
f 781/1500/283 778/1488/284 782/1504/285 785/1513/286
f 782/1505/287 783/1507/288 784/1510/289 785/1514/290
f 781/1501/291 777/1486/292 774/1480/292 778/1489/293
f 785/1515/294 784/1511/295 780/1497/296 781/1502/297
f 780/1498/298 776/1485/299 777/1487/299 781/1503/300
f 782/1506/301 778/1490/302 779/1493/303 783/1508/304
f 780/1499/305 784/1512/306 783/1509/307 779/1494/308
f 778/1491/309 774/1481/310 775/1483/310 779/1495/311
o panel_etx_2_switch_child_5
v 0.417318 -0.079333 0.148288
v 0.409228 -0.072327 0.144243
v 0.401139 -0.079333 0.148288
v 0.409228 -0.086338 0.152333
v 0.417318 -0.073645 0.158140
v 0.409228 -0.066639 0.154095
v 0.401139 -0.073645 0.158140
v 0.409228 -0.080650 0.162185
v 0.414753 -0.074548 0.145526
v 0.403703 -0.074548 0.145526
v 0.403703 -0.084118 0.151051
v 0.414753 -0.084118 0.151051
v 0.414753 -0.068860 0.155378
v 0.403703 -0.068860 0.155378
v 0.403703 -0.078430 0.160903
v 0.414753 -0.078430 0.160903
v 0.412915 -0.076838 0.159984
v 0.412915 -0.070452 0.156297
v 0.405542 -0.070452 0.156297
v 0.405542 -0.076838 0.159984
v 0.414556 -0.066944 0.180401
v 0.414556 -0.057717 0.175074
v 0.403901 -0.057717 0.175074
v 0.403901 -0.066944 0.180401
v 0.412496 -0.061714 0.185340
v 0.412496 -0.056055 0.182072
v 0.405961 -0.056055 0.182072
v 0.405961 -0.061714 0.185340
vn 0.9791 0.1016 0.1759
vn 0.7071 -0.6124 0.3536
vn 0.9791 -0.1016 -0.1759
vn -0.0000 0.5000 0.8660
vn -0.7071 0.6124 -0.3536
vn -0.0000 0.9495 -0.3136
vn -0.0000 0.7464 -0.6655
vn -0.9791 0.1016 0.1759
vn -0.9791 -0.1016 -0.1759
vn -0.7071 -0.6124 0.3536
vn -0.0000 -0.7464 0.6655
vn -0.0000 -0.9495 0.3136
vn 0.7071 0.6124 -0.3536
vn -0.0010 0.8264 -0.5631
vn -0.0000 0.8276 -0.5613
vn 0.0010 0.8264 -0.5631
vn 0.0012 -0.6850 0.7285
vn -0.0018 -0.6862 0.7274
vn -0.1389 -0.7506 0.6460
vn 0.1724 -0.6778 0.7148
vn -0.0885 0.6207 0.7791
vn -0.0915 0.3661 0.9261
vn 0.1470 0.4146 0.8981
vn 0.0018 0.6418 0.7669
vn 0.0023 -0.9003 0.4353
vn -0.0000 -0.8999 0.4361
vn -0.0007 -0.9006 0.4346
vn -0.9914 0.0221 0.1291
vn -0.9735 -0.0278 0.2269
vn -0.9575 0.1431 0.2503
vn -0.9579 0.1455 0.2474
vn -0.9973 -0.0385 -0.0622
vn -0.9974 -0.0362 -0.0626
vn -0.9972 -0.0364 -0.0650
vn 0.9900 0.1156 0.0802
vn 0.9576 0.1448 0.2489
vn 0.9575 0.1431 0.2503
vn 0.9896 0.0090 0.1436
vn 0.0022 0.9731 -0.2304
vn 0.0620 0.9213 -0.3840
vn -0.1362 0.9340 -0.3303
vn -0.0023 0.9731 -0.2304
vn 0.9973 -0.0350 -0.0640
vn 0.9974 -0.0362 -0.0626
vn 0.9973 -0.0385 -0.0622
vt 0.307348 0.623345
vt 0.313796 0.623345
vt 0.320245 0.623345
vt 0.326694 0.623345
vt 0.300899 0.623345
vt 0.274006 0.600660
vt 0.307348 0.629367
vt 0.280037 0.601199
vt 0.313796 0.629367
vt 0.279499 0.607230
vt 0.320245 0.629367
vt 0.273467 0.606692
vt 0.326694 0.629367
vt 0.300899 0.629367
vt 0.310572 0.623345
vt 0.317021 0.623345
vt 0.323469 0.623345
vt 0.304124 0.623345
vt 0.277120 0.599826
vt 0.310572 0.629367
vt 0.280872 0.604313
vt 0.317021 0.629367
vt 0.276384 0.608065
vt 0.323469 0.629367
vt 0.272632 0.603577
vt 0.304124 0.629367
vt 0.930417 0.725520
vt 0.929228 0.725309
vt 0.925108 0.724858
vt 0.926315 0.724885
vt 0.922164 0.724885
vt 0.920968 0.725043
vt 0.933231 0.726385
vt 0.918062 0.725520
vt 0.888741 0.716549
vt 0.933166 0.713807
vt 0.886607 0.719198
vt 0.931448 0.713502
vt 0.925495 0.712850
vt 0.882919 0.715959
vt 0.880329 0.713831
vt 0.927239 0.712888
vt 0.921240 0.712888
vt 0.885647 0.707443
vt 0.919511 0.713117
vt 0.883514 0.710092
vt 0.891925 0.712809
vt 0.937232 0.715057
vt 0.889335 0.710682
vt 0.915313 0.713807
vt 0.886881 0.714297
vt 0.887057 0.714536
vt 0.886747 0.715276
vt 0.884972 0.714325
vt 0.885192 0.714126
vt 0.884281 0.713959
vt 0.885197 0.712105
vt 0.885508 0.711365
vt 0.885373 0.712343
vt 0.887973 0.712681
vt 0.887282 0.712316
vt 0.887062 0.712514
s 1
usemtl electronics_etx_part_1
f 790/1522/312 801/1541/313 797/1533/313 786/1516/314
f 790/1521/315 798/1534/315 791/1523/315 799/1536/315 792/1525/315 800/1538/315 793/1527/315 801/1540/315
f 799/1537/316 791/1524/317 787/1517/318 795/1531/316
f 792/1526/319 799/1537/316 795/1531/316 788/1518/320
f 800/1539/321 792/1526/319 788/1518/320 796/1532/321
f 793/1528/322 800/1539/321 796/1532/321 789/1519/323
f 791/1524/317 798/1535/324 794/1530/324 787/1517/318
f 793/1529/322 789/1520/323 797/1533/313 801/1541/313
f 798/1535/324 790/1522/312 786/1516/314 794/1530/324
f 807/1554/325 803/1544/326 804/1546/326 808/1558/327
f 809/1562/328 806/1550/329 810/1566/330 813/1575/331
f 810/1567/332 811/1569/333 812/1572/334 813/1576/335
f 809/1563/336 805/1548/337 802/1542/337 806/1551/338
f 813/1577/339 812/1573/340 808/1559/341 809/1564/342
f 808/1560/343 804/1547/344 805/1549/344 809/1565/345
f 810/1568/346 806/1552/347 807/1555/348 811/1570/349
f 808/1561/350 812/1574/351 811/1571/352 807/1556/353
f 806/1553/354 802/1543/355 803/1545/355 807/1557/356
o panel_etx_2_switch_child_6
v 0.479863 -0.079333 0.148288
v 0.471773 -0.072327 0.144243
v 0.463684 -0.079333 0.148288
v 0.471773 -0.086338 0.152333
v 0.479863 -0.073645 0.158140
v 0.471773 -0.066639 0.154095
v 0.463684 -0.073645 0.158140
v 0.471773 -0.080650 0.162185
v 0.477298 -0.074548 0.145526
v 0.466248 -0.074548 0.145526
v 0.466248 -0.084118 0.151051
v 0.477298 -0.084118 0.151051
v 0.477298 -0.068860 0.155378
v 0.466248 -0.068860 0.155378
v 0.466248 -0.078430 0.160903
v 0.477298 -0.078430 0.160903
v 0.475460 -0.076838 0.159984
v 0.475460 -0.070452 0.156297
v 0.468086 -0.070452 0.156297
v 0.468086 -0.076838 0.159984
v 0.477101 -0.066944 0.180401
v 0.477101 -0.057717 0.175074
v 0.466446 -0.057717 0.175074
v 0.466446 -0.066944 0.180401
v 0.475040 -0.061714 0.185340
v 0.475040 -0.056055 0.182072
v 0.468506 -0.056055 0.182072
v 0.468506 -0.061714 0.185340
vn 0.9791 0.1016 0.1759
vn 0.7071 -0.6124 0.3536
vn 0.9791 -0.1016 -0.1759
vn -0.0000 0.5000 0.8660
vn -0.7071 0.6124 -0.3536
vn -0.0000 0.9495 -0.3136
vn -0.0000 0.7464 -0.6655
vn -0.9791 0.1016 0.1759
vn -0.9791 -0.1016 -0.1759
vn -0.7071 -0.6124 0.3536
vn -0.0000 -0.7464 0.6655
vn -0.0000 -0.9495 0.3136
vn 0.7071 0.6124 -0.3536
vn -0.0010 0.8264 -0.5631
vn -0.0000 0.8276 -0.5613
vn 0.0010 0.8264 -0.5631
vn 0.0012 -0.6850 0.7285
vn -0.0018 -0.6862 0.7274
vn -0.1389 -0.7506 0.6460
vn 0.1724 -0.6778 0.7148
vn -0.0885 0.6207 0.7791
vn -0.0915 0.3661 0.9261
vn 0.1470 0.4146 0.8981
vn 0.0018 0.6418 0.7669
vn 0.0023 -0.9003 0.4353
vn -0.0000 -0.8999 0.4361
vn -0.0007 -0.9006 0.4346
vn -0.9914 0.0221 0.1291
vn -0.9735 -0.0278 0.2269
vn -0.9575 0.1431 0.2503
vn -0.9579 0.1455 0.2474
vn -0.9973 -0.0385 -0.0622
vn -0.9974 -0.0362 -0.0626
vn -0.9972 -0.0364 -0.0650
vn 0.9900 0.1156 0.0802
vn 0.9576 0.1448 0.2489
vn 0.9575 0.1431 0.2503
vn 0.9896 0.0090 0.1436
vn 0.0022 0.9731 -0.2304
vn 0.0620 0.9213 -0.3840
vn -0.1362 0.9340 -0.3303
vn -0.0023 0.9731 -0.2304
vn 0.9973 -0.0350 -0.0640
vn 0.9974 -0.0362 -0.0626
vn 0.9973 -0.0385 -0.0622
vt 0.307348 0.623345
vt 0.313796 0.623345
vt 0.320245 0.623345
vt 0.326694 0.623345
vt 0.300899 0.623345
vt 0.274006 0.600660
vt 0.307348 0.629367
vt 0.280037 0.601199
vt 0.313796 0.629367
vt 0.279499 0.607230
vt 0.320245 0.629367
vt 0.273467 0.606692
vt 0.326694 0.629367
vt 0.300899 0.629367
vt 0.310572 0.623345
vt 0.317021 0.623345
vt 0.323469 0.623345
vt 0.304124 0.623345
vt 0.277120 0.599826
vt 0.310572 0.629367
vt 0.280872 0.604313
vt 0.317021 0.629367
vt 0.276384 0.608065
vt 0.323469 0.629367
vt 0.272632 0.603577
vt 0.304124 0.629367
vt 0.930417 0.725520
vt 0.929228 0.725309
vt 0.925108 0.724858
vt 0.926315 0.724885
vt 0.922164 0.724885
vt 0.920968 0.725043
vt 0.933231 0.726385
vt 0.918062 0.725520
vt 0.888741 0.716549
vt 0.933166 0.713807
vt 0.886607 0.719198
vt 0.931448 0.713502
vt 0.925495 0.712850
vt 0.882919 0.715959
vt 0.880329 0.713831
vt 0.927239 0.712888
vt 0.921240 0.712888
vt 0.885647 0.707443
vt 0.919511 0.713117
vt 0.883514 0.710092
vt 0.891925 0.712809
vt 0.937232 0.715057
vt 0.889335 0.710682
vt 0.915313 0.713807
vt 0.886881 0.714297
vt 0.887057 0.714536
vt 0.886747 0.715276
vt 0.884972 0.714325
vt 0.885192 0.714126
vt 0.884281 0.713959
vt 0.885197 0.712105
vt 0.885508 0.711365
vt 0.885373 0.712343
vt 0.887973 0.712681
vt 0.887282 0.712316
vt 0.887062 0.712514
s 1
usemtl electronics_etx_part_1
f 818/1584/357 829/1603/358 825/1595/358 814/1578/359
f 818/1583/360 826/1596/360 819/1585/360 827/1598/360 820/1587/360 828/1600/360 821/1589/360 829/1602/360
f 827/1599/361 819/1586/362 815/1579/363 823/1593/361
f 820/1588/364 827/1599/361 823/1593/361 816/1580/365
f 828/1601/366 820/1588/364 816/1580/365 824/1594/366
f 821/1590/367 828/1601/366 824/1594/366 817/1581/368
f 819/1586/362 826/1597/369 822/1592/369 815/1579/363
f 821/1591/367 817/1582/368 825/1595/358 829/1603/358
f 826/1597/369 818/1584/357 814/1578/359 822/1592/369
f 835/1616/370 831/1606/371 832/1608/371 836/1620/372
f 837/1624/373 834/1612/374 838/1628/375 841/1637/376
f 838/1629/377 839/1631/378 840/1634/379 841/1638/380
f 837/1625/381 833/1610/382 830/1604/382 834/1613/383
f 841/1639/384 840/1635/385 836/1621/386 837/1626/387
f 836/1622/388 832/1609/389 833/1611/389 837/1627/390
f 838/1630/391 834/1614/392 835/1617/393 839/1632/394
f 836/1623/395 840/1636/396 839/1633/397 835/1618/398
f 834/1615/399 830/1605/400 831/1607/400 835/1619/401
