# Blender 3.4.0
# www.blender.org
mtllib panel_etx_1.mtl
o panel_etx_1
v 0.084200 -0.009400 0.160000
v 0.141800 0.091400 0.160000
v 0.084200 0.091400 0.160000
v 0.136040 -0.003640 0.166800
v 0.089960 -0.003640 0.166800
v 0.141800 -0.009400 0.160000
v 0.136040 0.085640 0.166800
v 0.089960 0.085640 0.166800
v 0.141800 -0.009400 0.166800
v 0.084200 -0.009400 0.166800
v 0.084200 0.091400 0.166800
v 0.141800 0.091400 0.166800
v 0.136040 -0.003640 0.152400
v 0.089960 -0.003640 0.152400
v 0.089960 0.085640 0.152400
v 0.136040 0.085640 0.152400
v -0.181000 0.183000 0.140000
v 0.185000 0.183000 0.140000
v -0.220000 0.300000 0.000000
v 0.220000 0.300000 0.000000
v -0.172455 0.268473 0.145047
v -0.178690 0.276582 0.145047
v -0.173779 0.258330 0.145047
v -0.188833 0.277907 0.145047
v -0.196942 0.271671 0.145047
v -0.198267 0.261528 0.145047
v -0.181888 0.252095 0.145047
v -0.192031 0.253419 0.145047
v -0.172455 0.268473 0.139701
v -0.178690 0.276582 0.139701
v -0.173779 0.258330 0.139701
v -0.188833 0.277907 0.139701
v -0.196942 0.271671 0.139701
v -0.181888 0.252095 0.139701
v -0.198267 0.261528 0.139701
v -0.192031 0.253419 0.139701
v 0.184364 0.277113 0.145047
v 0.177453 0.269572 0.145047
v 0.194583 0.277560 0.145047
v 0.177899 0.259352 0.145047
v 0.185441 0.252442 0.145047
v 0.195660 0.252888 0.145047
v 0.202125 0.270649 0.145047
v 0.202571 0.260430 0.145047
v 0.184364 0.277113 0.139701
v 0.177453 0.269572 0.139701
v 0.194583 0.277560 0.139701
v 0.177899 0.259352 0.139701
v 0.185441 0.252442 0.139701
v 0.202125 0.270649 0.139701
v 0.195660 0.252888 0.139701
v 0.202571 0.260430 0.139701
v 0.181978 -0.190995 0.125047
v 0.181776 -0.201222 0.125047
v 0.189352 -0.183906 0.125047
v 0.188865 -0.208596 0.125047
v 0.199092 -0.208798 0.125047
v 0.206466 -0.201709 0.125047
v 0.199579 -0.184107 0.125047
v 0.206668 -0.191481 0.125047
v 0.181978 -0.190995 0.119701
v 0.181776 -0.201222 0.119701
v 0.189352 -0.183906 0.119701
v 0.188865 -0.208596 0.119701
v 0.199092 -0.208798 0.119701
v 0.199579 -0.184107 0.119701
v 0.206466 -0.201709 0.119701
v 0.206668 -0.191481 0.119701
v -0.175537 -0.191746 0.125047
v -0.182256 -0.184032 0.125047
v -0.176240 -0.201950 0.125047
v -0.192461 -0.183329 0.125047
v -0.200174 -0.190048 0.125047
v -0.200877 -0.200253 0.125047
v -0.183953 -0.208669 0.125047
v -0.194158 -0.207966 0.125047
v -0.175537 -0.191746 0.119701
v -0.182256 -0.184032 0.119701
v -0.176240 -0.201950 0.119701
v -0.192461 -0.183329 0.119701
v -0.200174 -0.190048 0.119701
v -0.183953 -0.208669 0.119701
v -0.200877 -0.200253 0.119701
v -0.194158 -0.207966 0.119701
v -0.220000 -0.140000 0.140000
v -0.220000 0.300000 0.140000
v 0.220000 -0.140000 0.140000
v 0.220000 0.300000 0.140000
v -0.181000 -0.037000 0.160000
v -0.181000 0.183000 0.160000
v 0.185000 0.183000 0.160000
v -0.220000 -0.300000 0.120000
v 0.220000 -0.300000 0.120000
v -0.220000 -0.300000 0.000000
v 0.220000 -0.300000 0.000000
v -0.220000 -0.140000 0.120000
v 0.220000 -0.140000 0.120000
v -0.181000 -0.037000 0.140000
v 0.185000 -0.037000 0.140000
v 0.185000 -0.037000 0.160000
v -0.195629 -0.097668 0.145047
v -0.198671 -0.107435 0.145047
v -0.186573 -0.092913 0.145047
v -0.193915 -0.116492 0.145047
v -0.184149 -0.119533 0.145047
v -0.175092 -0.114777 0.145047
v -0.176806 -0.095954 0.145047
v -0.172051 -0.105011 0.145047
v -0.195629 -0.097668 0.139701
v -0.198670 -0.107435 0.139701
v -0.186573 -0.092913 0.139701
v -0.193915 -0.116492 0.139701
v -0.184149 -0.119533 0.139701
v -0.176806 -0.095954 0.139701
v -0.175092 -0.114777 0.139701
v -0.172051 -0.105011 0.139701
v 0.196359 -0.095525 0.145047
v 0.186391 -0.093228 0.145047
v 0.201783 -0.104197 0.145047
v 0.177719 -0.098653 0.145047
v 0.175422 -0.108621 0.145047
v 0.180846 -0.117293 0.145047
v 0.199487 -0.114165 0.145047
v 0.190814 -0.119590 0.145047
v 0.196359 -0.095525 0.139701
v 0.186391 -0.093228 0.139701
v 0.201783 -0.104197 0.139701
v 0.177719 -0.098653 0.139701
v 0.175422 -0.108621 0.139701
v 0.199487 -0.114165 0.139701
v 0.180846 -0.117293 0.139701
v 0.190814 -0.119590 0.139701
v 0.089960 -0.003640 0.160000
v 0.089960 0.085640 0.160000
v 0.136040 0.085640 0.160000
v 0.136040 -0.003640 0.160000
v -0.013261 -0.076640 0.140573
v -0.015607 -0.067885 0.140573
v -0.022016 -0.061475 0.140573
v -0.030772 -0.059129 0.140573
v -0.039527 -0.061475 0.140573
v -0.045936 -0.067885 0.140573
v -0.048282 -0.076640 0.140573
v -0.045936 -0.085395 0.140573
v -0.039527 -0.091805 0.140573
v -0.030772 -0.094151 0.140573
v -0.022016 -0.091805 0.140573
v -0.015607 -0.085395 0.140573
v -0.013261 -0.076640 0.146174
v -0.015607 -0.067885 0.146174
v -0.022016 -0.061475 0.146174
v -0.030772 -0.059129 0.146174
v -0.039527 -0.061475 0.146174
v -0.045936 -0.067885 0.146174
v -0.048282 -0.076640 0.146174
v -0.045936 -0.085395 0.146174
v -0.039527 -0.091805 0.146174
v -0.030772 -0.094151 0.146174
v -0.022016 -0.091805 0.146174
v -0.015607 -0.085395 0.146174
v -0.017595 -0.076640 0.146174
v -0.030772 -0.063464 0.146174
v -0.043948 -0.076640 0.146174
v -0.030772 -0.089816 0.146174
v -0.017595 -0.076640 0.152663
v -0.030772 -0.063464 0.152663
v -0.043948 -0.076640 0.152663
v -0.030772 -0.089816 0.152663
v -0.021772 -0.067640 0.146174
v -0.039771 -0.067640 0.146174
v -0.039771 -0.085640 0.146174
v -0.021772 -0.085640 0.146174
v -0.021772 -0.067640 0.152663
v -0.039771 -0.067640 0.152663
v -0.039771 -0.085640 0.152663
v -0.021772 -0.085640 0.152663
v 0.049284 -0.076640 0.140573
v 0.046938 -0.067885 0.140573
v 0.040529 -0.061475 0.140573
v 0.031773 -0.059129 0.140573
v 0.023018 -0.061475 0.140573
v 0.016609 -0.067885 0.140573
v 0.014263 -0.076640 0.140573
v 0.016609 -0.085395 0.140573
v 0.023018 -0.091805 0.140573
v 0.031773 -0.094151 0.140573
v 0.040529 -0.091805 0.140573
v 0.046938 -0.085395 0.140573
v 0.049284 -0.076640 0.146174
v 0.046938 -0.067885 0.146174
v 0.040529 -0.061475 0.146174
v 0.031773 -0.059129 0.146174
v 0.023018 -0.061475 0.146174
v 0.016609 -0.067885 0.146174
v 0.014263 -0.076640 0.146174
v 0.016609 -0.085395 0.146174
v 0.023018 -0.091805 0.146174
v 0.031773 -0.094151 0.146174
v 0.040529 -0.091805 0.146174
v 0.046938 -0.085395 0.146174
v 0.044950 -0.076640 0.146174
v 0.031773 -0.063464 0.146174
v 0.018597 -0.076640 0.146174
v 0.031773 -0.089816 0.146174
v 0.044950 -0.076640 0.152663
v 0.031773 -0.063464 0.152663
v 0.018597 -0.076640 0.152663
v 0.031773 -0.089816 0.152663
v 0.040773 -0.067640 0.146174
v 0.022774 -0.067640 0.146174
v 0.022774 -0.085640 0.146174
v 0.040773 -0.085640 0.146174
v 0.040773 -0.067640 0.152663
v 0.022774 -0.067640 0.152663
v 0.022774 -0.085640 0.152663
v 0.040773 -0.085640 0.152663
vn -0.0000 -1.0000 -0.0000
vn -0.0000 1.0000 -0.0000
vn -1.0000 -0.0000 -0.0000
vn 1.0000 -0.0000 -0.0000
vn -0.0000 -0.0000 1.0000
vn 0.6728 -0.3875 0.6303
vn 0.7497 0.2017 0.6303
vn 0.3875 0.6728 0.6303
vn -0.2017 0.7497 0.6303
vn -0.6728 0.3875 0.6303
vn -0.7497 -0.2017 0.6303
vn -0.3875 -0.6728 0.6303
vn 0.2017 -0.7497 0.6303
vn 0.2598 -0.9657 -0.0000
vn -0.4991 -0.8665 -0.0000
vn -0.9657 -0.2598 -0.0000
vn 0.8665 -0.4991 -0.0000
vn 0.9657 0.2598 -0.0000
vn -0.8665 0.4991 -0.0000
vn -0.2598 0.9657 -0.0000
vn 0.4991 0.8665 -0.0000
vn 0.2655 0.7296 0.6303
vn -0.3281 0.7036 0.6303
vn -0.7296 0.2655 0.6303
vn -0.7036 -0.3281 0.6303
vn -0.2655 -0.7296 0.6303
vn 0.3281 -0.7036 0.6303
vn 0.7296 -0.2655 0.6303
vn 0.7036 0.3281 0.6303
vn 0.9063 0.4226 -0.0000
vn 0.9397 -0.3420 -0.0000
vn 0.4226 -0.9063 -0.0000
vn 0.3420 0.9397 -0.0000
vn -0.4226 0.9063 -0.0000
vn -0.3420 -0.9397 -0.0000
vn -0.9063 -0.4226 -0.0000
vn -0.9397 0.3420 -0.0000
vn -0.2829 0.7230 0.6303
vn -0.7113 0.3112 0.6303
vn -0.7230 -0.2829 0.6303
vn -0.3112 -0.7113 0.6303
vn 0.2829 -0.7230 0.6303
vn 0.7113 -0.3112 0.6303
vn 0.7230 0.2829 0.6303
vn 0.3112 0.7113 0.6303
vn 0.4008 0.9162 -0.0000
vn 0.9312 0.3644 -0.0000
vn 0.9162 -0.4008 -0.0000
vn -0.3644 0.9312 -0.0000
vn -0.9162 0.4008 -0.0000
vn 0.3644 -0.9312 -0.0000
vn -0.4008 -0.9162 -0.0000
vn -0.9312 -0.3644 -0.0000
vn 0.6952 -0.3457 0.6303
vn 0.7360 0.2471 0.6303
vn 0.3457 0.6952 0.6303
vn -0.2471 0.7360 0.6303
vn -0.6952 0.3457 0.6303
vn -0.7360 -0.2471 0.6303
vn -0.3457 -0.6952 0.6303
vn 0.2471 -0.7360 0.6303
vn 0.3183 -0.9480 -0.0000
vn -0.4453 -0.8954 -0.0000
vn -0.9480 -0.3183 -0.0000
vn 0.8954 -0.4453 -0.0000
vn 0.9480 0.3183 -0.0000
vn -0.8954 0.4453 -0.0000
vn -0.3183 0.9480 -0.0000
vn 0.4453 0.8954 -0.0000
vn -0.0704 0.7732 0.6303
vn -0.5965 0.4969 0.6303
vn -0.7732 -0.0704 0.6303
vn -0.4969 -0.5965 0.6303
vn 0.0704 -0.7732 0.6303
vn 0.5965 -0.4969 0.6303
vn 0.7732 0.0704 0.6303
vn 0.4969 0.5965 0.6303
vn 0.6401 0.7683 -0.0000
vn 0.9959 0.0907 -0.0000
vn 0.7683 -0.6401 -0.0000
vn -0.0907 0.9959 -0.0000
vn -0.7683 0.6401 -0.0000
vn 0.0907 -0.9959 -0.0000
vn -0.6401 -0.7683 -0.0000
vn -0.9959 -0.0907 -0.0000
vn 0.7657 0.1285 0.6303
vn 0.4506 0.6323 0.6303
vn -0.1285 0.7657 0.6303
vn -0.6323 0.4506 0.6303
vn -0.7657 -0.1285 0.6303
vn -0.4506 -0.6323 0.6303
vn 0.1285 -0.7657 0.6303
vn 0.6323 -0.4506 0.6303
vn 0.8144 -0.5803 -0.0000
vn 0.1655 -0.9862 -0.0000
vn -0.5803 -0.8144 -0.0000
vn 0.9862 0.1655 -0.0000
vn 0.5803 0.8144 -0.0000
vn -0.9862 -0.1655 -0.0000
vn -0.8144 0.5803 -0.0000
vn -0.1655 0.9862 -0.0000
vn 0.8660 0.5000 -0.0000
vn -0.8660 0.5000 -0.0000
vn -0.5000 -0.8660 -0.0000
vn 0.5000 0.8660 -0.0000
vn 0.8660 -0.5000 -0.0000
vn -0.8660 -0.5000 -0.0000
vn 0.5000 -0.8660 -0.0000
vn -0.5000 0.8660 -0.0000
vn 0.7071 -0.7071 -0.0000
vn -0.7071 0.7071 -0.0000
vn -0.7071 -0.7071 -0.0000
vn 0.7071 0.7071 -0.0000
vt 0.171006 0.206992
vt 0.147197 0.193087
vt 0.171006 0.179564
vt 0.195197 0.193087
vt 0.171006 0.206992
vt 0.195197 0.193087
vt 0.149940 0.189849
vt 0.149940 0.182306
vt 0.167768 0.182306
vt 0.149940 0.204249
vt 0.167768 0.204249
vt 0.149940 0.189849
vt 0.171006 0.179564
vt 0.147197 0.193087
vt 0.192454 0.189849
vt 0.192454 0.182306
vt 0.167768 0.182306
vt 0.192454 0.204249
vt 0.192454 0.189849
vt 0.167768 0.204249
vt 0.167768 0.179564
vt 0.147197 0.189849
vt 0.147197 0.179564
vt 0.167768 0.206992
vt 0.147197 0.189849
vt 0.147197 0.206992
vt 0.167768 0.206992
vt 0.195197 0.189849
vt 0.195197 0.206992
vt 0.167768 0.179564
vt 0.195197 0.189849
vt 0.195197 0.179564
vt 0.149940 0.196706
vt 0.174625 0.182306
vt 0.150391 0.179688
vt 0.174625 0.204249
vt 0.149940 0.196706
vt 0.150391 0.203125
vt 0.192454 0.196706
vt 0.174625 0.204249
vt 0.193359 0.203125
vt 0.192454 0.196706
vt 0.174625 0.182306
vt 0.193359 0.179688
vt 0.808594 0.621094
vt 0.798859 0.941728
vt 0.841797 0.621094
vt 0.974609 0.621094
vt 0.982444 0.941728
vt 0.841797 0.621094
vt 0.779297 0.632812
vt 0.779297 1.000000
vt 1.000000 0.632812
vt 0.779297 1.000000
vt 0.450919 0.220703
vt 0.453549 0.220703
vt 0.448705 0.215357
vt 0.453549 0.215357
vt 0.453549 0.226049
vt 0.448705 0.226049
vt 0.453549 0.226049
vt 0.443359 0.213143
vt 0.453549 0.220703
vt 0.438014 0.215357
vt 0.453549 0.215357
vt 0.435799 0.220703
vt 0.453549 0.220703
vt 0.443359 0.228263
vt 0.453549 0.220703
vt 0.438014 0.226049
vt 0.453549 0.215357
vt 0.453549 0.226049
vt 0.456573 0.220703
vt 0.456573 0.215357
vt 0.456573 0.226049
vt 0.456573 0.226049
vt 0.456573 0.220703
vt 0.456573 0.215357
vt 0.456573 0.220703
vt 0.456573 0.220703
vt 0.456573 0.215357
vt 0.456573 0.226049
vt 0.450919 0.220703
vt 0.453549 0.220703
vt 0.448705 0.215357
vt 0.453549 0.215357
vt 0.453549 0.226049
vt 0.448705 0.226049
vt 0.453549 0.226049
vt 0.443359 0.213143
vt 0.453549 0.220703
vt 0.438014 0.215357
vt 0.453549 0.215357
vt 0.435799 0.220703
vt 0.453549 0.220703
vt 0.443359 0.228263
vt 0.453549 0.220703
vt 0.438014 0.226049
vt 0.453549 0.215357
vt 0.453549 0.226049
vt 0.456573 0.220703
vt 0.456573 0.215357
vt 0.456573 0.226049
vt 0.456573 0.226049
vt 0.456573 0.220703
vt 0.456573 0.215357
vt 0.456573 0.220703
vt 0.456573 0.220703
vt 0.456573 0.215357
vt 0.456573 0.226049
vt 0.450919 0.220703
vt 0.453549 0.220703
vt 0.448705 0.215357
vt 0.453549 0.215357
vt 0.453549 0.226049
vt 0.448705 0.226049
vt 0.453549 0.226049
vt 0.443359 0.213143
vt 0.453549 0.220703
vt 0.438014 0.215357
vt 0.453549 0.215357
vt 0.435799 0.220703
vt 0.453549 0.220703
vt 0.443359 0.228263
vt 0.453549 0.220703
vt 0.438014 0.226049
vt 0.453549 0.215357
vt 0.453549 0.226049
vt 0.456573 0.220703
vt 0.456573 0.215357
vt 0.456573 0.226049
vt 0.456573 0.226049
vt 0.456573 0.220703
vt 0.456573 0.215357
vt 0.456573 0.220703
vt 0.456573 0.220703
vt 0.456573 0.215357
vt 0.456573 0.226049
vt 0.450919 0.220703
vt 0.453549 0.220703
vt 0.448705 0.215357
vt 0.453549 0.215357
vt 0.453549 0.226049
vt 0.448705 0.226049
vt 0.453549 0.226049
vt 0.443359 0.213143
vt 0.453549 0.220703
vt 0.438014 0.215357
vt 0.453549 0.215357
vt 0.435799 0.220703
vt 0.453549 0.220703
vt 0.443359 0.228263
vt 0.453549 0.220703
vt 0.438014 0.226049
vt 0.453549 0.215357
vt 0.453549 0.226049
vt 0.456573 0.220703
vt 0.456573 0.215357
vt 0.456573 0.226049
vt 0.456573 0.226049
vt 0.456573 0.220703
vt 0.456573 0.215357
vt 0.456573 0.220703
vt 0.456573 0.220703
vt 0.456573 0.215357
vt 0.456573 0.226049
vt 0.779297 0.780859
vt 0.791016 0.621094
vt 0.710938 0.780859
vt 0.779297 0.701172
vt 0.779297 1.000000
vt 0.710938 1.000000
vt 1.000000 0.780859
vt 0.990234 0.621094
vt 0.710938 0.780859
vt 1.000000 0.701172
vt 1.000000 1.000000
vt 0.710938 1.000000
vt 0.798859 0.832158
vt 0.941406 0.609375
vt 0.808594 0.609375
vt 0.808594 0.609375
vt 0.798859 0.941729
vt 0.841797 0.609375
vt 0.974609 0.609375
vt 0.982444 0.941728
vt 0.841797 0.609375
vt 0.720703 0.701172
vt 0.779297 0.701172
vt 0.779297 0.691406
vt 1.000000 0.701172
vt 1.000000 0.691406
vt 0.720703 0.701172
vt 0.779297 0.701172
vt 0.779296 0.632812
vt 1.000000 0.632812
vt 0.779296 0.701171
vt 0.791016 0.632812
vt 0.779297 0.780859
vt 0.720703 0.780859
vt 0.990234 0.632812
vt 1.000000 0.780859
vt 0.720703 0.780859
vt 0.798859 0.832158
vt 0.941406 0.621094
vt 0.808594 0.621094
vt 0.982444 0.832158
vt 0.941406 0.621094
vt 0.974609 0.621094
vt 0.982444 0.832158
vt 0.941406 0.609375
vt 0.974609 0.609375
vt 0.450919 0.220703
vt 0.453549 0.220703
vt 0.448705 0.215357
vt 0.453549 0.215357
vt 0.453549 0.226049
vt 0.448705 0.226049
vt 0.453549 0.226049
vt 0.443359 0.213143
vt 0.453549 0.220703
vt 0.438014 0.215357
vt 0.453549 0.215357
vt 0.435799 0.220703
vt 0.453549 0.220703
vt 0.443359 0.228263
vt 0.453549 0.220703
vt 0.438014 0.226049
vt 0.453549 0.215357
vt 0.453549 0.226049
vt 0.456573 0.220703
vt 0.456573 0.215357
vt 0.456573 0.226049
vt 0.456573 0.226049
vt 0.456573 0.220703
vt 0.456573 0.215357
vt 0.456573 0.220703
vt 0.456573 0.220703
vt 0.456573 0.215357
vt 0.456573 0.226049
vt 0.450919 0.220703
vt 0.453549 0.220703
vt 0.448705 0.215357
vt 0.453549 0.215357
vt 0.453549 0.226049
vt 0.448705 0.226049
vt 0.453549 0.226049
vt 0.443359 0.213143
vt 0.453549 0.220703
vt 0.438014 0.215357
vt 0.453549 0.215357
vt 0.435799 0.220703
vt 0.453549 0.220703
vt 0.443359 0.228263
vt 0.453549 0.220703
vt 0.438014 0.226049
vt 0.453549 0.215357
vt 0.453549 0.226049
vt 0.456573 0.220703
vt 0.456573 0.215357
vt 0.456573 0.226049
vt 0.456573 0.226049
vt 0.456573 0.220703
vt 0.456573 0.215357
vt 0.456573 0.220703
vt 0.456573 0.220703
vt 0.456573 0.215357
vt 0.456573 0.226049
vt 0.934772 0.848773
vt 0.934772 0.893239
vt 0.957886 0.893239
vt 0.957886 0.848773
vt 0.139280 0.153267
vt 0.145946 0.153267
vt 0.152613 0.153267
vt 0.159280 0.153267
vt 0.165946 0.153267
vt 0.172613 0.153267
vt 0.179280 0.153267
vt 0.185946 0.153267
vt 0.192613 0.153267
vt 0.199280 0.153267
vt 0.119280 0.153267
vt 0.125946 0.153267
vt 0.132613 0.153267
vt 0.139280 0.157387
vt 0.155946 0.167767
vt 0.150173 0.164434
vt 0.145946 0.157387
vt 0.146840 0.158661
vt 0.152613 0.157387
vt 0.146840 0.151994
vt 0.159280 0.157387
vt 0.150173 0.146220
vt 0.165946 0.157387
vt 0.172613 0.157387
vt 0.155946 0.142887
vt 0.179280 0.157387
vt 0.162613 0.142887
vt 0.168387 0.146220
vt 0.185946 0.157387
vt 0.171720 0.151994
vt 0.192613 0.157387
vt 0.199280 0.157387
vt 0.119280 0.157387
vt 0.171720 0.158661
vt 0.125946 0.157387
vt 0.168387 0.164434
vt 0.132613 0.157387
vt 0.162613 0.167767
vt 0.173874 0.157713
vt 0.159280 0.157713
vt 0.144685 0.157713
vt 0.130091 0.157713
vt 0.188469 0.157713
vt 0.150489 0.151248
vt 0.173874 0.152941
vt 0.163359 0.146537
vt 0.159280 0.152941
vt 0.168070 0.159407
vt 0.144685 0.152941
vt 0.130091 0.152941
vt 0.155200 0.164118
vt 0.188469 0.152941
vt 0.166577 0.157713
vt 0.151982 0.157713
vt 0.137388 0.157713
vt 0.181172 0.157713
vt 0.156062 0.146537
vt 0.166577 0.152941
vt 0.168070 0.152110
vt 0.151982 0.152941
vt 0.162497 0.164118
vt 0.137388 0.152941
vt 0.150489 0.158545
vt 0.181172 0.152941
vt 0.179280 0.157387
vt 0.172613 0.157387
vt 0.165946 0.157387
vt 0.159280 0.157387
vt 0.152613 0.157387
vt 0.145946 0.157387
vt 0.139280 0.157387
vt 0.132613 0.157387
vt 0.125946 0.157387
vt 0.119280 0.157387
vt 0.199280 0.157387
vt 0.192613 0.157387
vt 0.185946 0.157387
vt 0.179280 0.153267
vt 0.168387 0.164434
vt 0.162613 0.167767
vt 0.172613 0.153267
vt 0.155946 0.167767
vt 0.165946 0.153267
vt 0.150173 0.164434
vt 0.159280 0.153267
vt 0.146840 0.158661
vt 0.152613 0.153267
vt 0.145946 0.153267
vt 0.146840 0.151994
vt 0.139280 0.153267
vt 0.150173 0.146220
vt 0.155946 0.142887
vt 0.132613 0.153267
vt 0.162613 0.142887
vt 0.125946 0.153267
vt 0.119280 0.153267
vt 0.199280 0.153267
vt 0.168387 0.146220
vt 0.192613 0.153267
vt 0.171720 0.151994
vt 0.185946 0.153267
vt 0.171720 0.158661
vt 0.173874 0.157713
vt 0.159280 0.157713
vt 0.144685 0.157713
vt 0.130091 0.157713
vt 0.188469 0.157713
vt 0.150489 0.159407
vt 0.173874 0.152941
vt 0.155200 0.146537
vt 0.159280 0.152941
vt 0.168070 0.151248
vt 0.144685 0.152941
vt 0.130091 0.152941
vt 0.163359 0.164118
vt 0.188469 0.152941
vt 0.166577 0.157713
vt 0.151982 0.157713
vt 0.137388 0.157713
vt 0.181172 0.157713
vt 0.150489 0.152110
vt 0.166577 0.152941
vt 0.162497 0.146537
vt 0.151982 0.152941
vt 0.168070 0.158545
vt 0.137388 0.152941
vt 0.156062 0.164118
vt 0.181172 0.152941
s 0
usemtl electronics_etx_part_1
f 9/21/1 10/24/1 1/1/1 6/13/1
f 2/3/2 3/5/2 11/27/2 12/30/2
f 4/7/3 7/15/3 16/42/3 13/33/3
f 6/14/4 2/4/4 12/31/4 9/22/4
f 3/6/3 1/2/3 10/25/3 11/28/3
f 4/8/5 5/10/5 10/26/5 9/23/5
f 8/18/5 7/16/5 12/32/5 11/29/5
f 7/16/5 4/8/5 9/23/5 12/32/5
f 5/10/5 8/18/5 11/29/5 10/26/5
f 5/11/2 4/9/2 13/34/2 14/36/2
f 8/19/4 5/12/4 14/37/4 15/39/4
f 7/17/1 8/20/1 15/40/1 16/43/1
f 13/35/5 16/44/5 15/41/5 14/38/5
s 1
f 23/60/6 21/55/7 22/57/8 24/62/9 25/64/10 26/66/11 28/70/12 27/68/13
f 34/79/14 27/69/13 28/71/12 36/81/15
f 36/82/15 28/72/12 26/67/11 35/80/16
f 27/69/13 34/79/14 31/76/17 23/61/6
f 23/61/6 31/76/17 29/73/18 21/56/7
f 35/80/16 26/67/11 25/65/10 33/78/19
f 33/78/19 25/65/10 24/63/9 32/77/20
f 21/56/7 29/73/18 30/74/21 22/58/8
f 22/59/8 30/75/21 32/77/20 24/63/9
f 39/88/22 37/83/23 38/85/24 40/90/25 41/92/26 42/94/27 44/98/28 43/96/29
f 50/107/30 43/97/29 44/99/28 52/109/31
f 52/110/31 44/100/28 42/95/27 51/108/32
f 43/97/29 50/107/30 47/104/33 39/89/22
f 39/89/22 47/104/33 45/101/34 37/84/23
f 51/108/32 42/95/27 41/93/26 49/106/35
f 49/106/35 41/93/26 40/91/25 48/105/36
f 37/84/23 45/101/34 46/102/37 38/86/24
f 38/87/24 46/103/37 48/105/36 40/91/25
f 55/116/38 53/111/39 54/113/40 56/118/41 57/120/42 58/122/43 60/126/44 59/124/45
f 66/135/46 59/125/45 60/127/44 68/137/47
f 68/138/47 60/128/44 58/123/43 67/136/48
f 59/125/45 66/135/46 63/132/49 55/117/38
f 55/117/38 63/132/49 61/129/50 53/112/39
f 67/136/48 58/123/43 57/121/42 65/134/51
f 65/134/51 57/121/42 56/119/41 64/133/52
f 53/112/39 61/129/50 62/130/53 54/114/40
f 54/115/40 62/131/53 64/133/52 56/119/41
f 71/144/54 69/139/55 70/141/56 72/146/57 73/148/58 74/150/59 76/154/60 75/152/61
f 82/163/62 75/153/61 76/155/60 84/165/63
f 84/166/63 76/156/60 74/151/59 83/164/64
f 75/153/61 82/163/62 79/160/65 71/145/54
f 71/145/54 79/160/65 77/157/66 69/140/55
f 83/164/64 74/151/59 73/149/58 81/162/67
f 81/162/67 73/149/58 72/147/57 80/161/68
f 69/140/55 77/157/66 78/158/69 70/142/56
f 70/143/56 78/159/69 80/161/68 72/147/57
f 103/218/70 101/213/71 102/215/72 104/220/73 105/222/74 106/224/75 108/228/76 107/226/77
f 114/237/78 107/227/77 108/229/76 116/239/79
f 116/240/79 108/230/76 106/225/75 115/238/80
f 107/227/77 114/237/78 111/234/81 103/219/70
f 103/219/70 111/234/81 109/231/82 101/214/71
f 115/238/80 106/225/75 105/223/74 113/236/83
f 113/236/83 105/223/74 104/221/73 112/235/84
f 101/214/71 109/231/82 110/232/85 102/216/72
f 102/217/72 110/233/85 112/235/84 104/221/73
f 119/246/86 117/241/87 118/243/88 120/248/89 121/250/90 122/252/91 124/256/92 123/254/93
f 130/265/94 123/255/93 124/257/92 132/267/95
f 132/268/95 124/258/92 122/253/91 131/266/96
f 123/255/93 130/265/94 127/262/97 119/247/86
f 119/247/86 127/262/97 125/259/98 117/242/87
f 131/266/96 122/253/91 121/251/90 129/264/99
f 129/264/99 121/251/90 120/249/89 128/263/100
f 117/242/87 125/259/98 126/260/101 118/244/88
f 118/245/88 126/261/101 128/263/100 120/249/89
f 150/289/102 149/286/4 137/273/4 138/274/102
f 155/298/3 154/296/103 142/278/103 143/279/3
f 158/304/1 157/303/104 145/281/104 146/282/1
f 152/293/2 151/291/105 139/275/105 140/276/2
f 149/286/4 160/309/106 148/285/106 137/273/4
f 156/301/107 155/298/3 143/279/3 144/280/107
f 159/307/108 158/305/1 146/283/1 147/284/108
f 160/309/106 159/307/108 147/284/108 148/285/106
f 154/296/103 153/295/109 141/277/109 142/278/103
f 149/287/5 150/288/5 151/290/5 152/292/5 153/294/5 154/297/5 155/299/5 156/300/5 157/302/5 158/306/5 159/308/5 160/310/5
f 151/291/105 150/289/102 138/274/102 139/275/105
f 157/303/104 156/301/107 144/280/107 145/281/104
f 153/295/109 152/293/2 140/276/2 141/277/109
f 165/317/4 176/336/110 172/328/110 161/311/4
f 167/321/3 174/332/111 170/326/111 163/313/3
f 168/322/1 175/334/112 171/327/112 164/314/1
f 165/316/5 173/329/5 166/318/5 174/331/5 167/320/5 175/333/5 168/323/5 176/335/5
f 166/319/2 173/330/113 169/325/113 162/312/2
f 166/319/2 162/312/2 170/326/111 174/332/111
f 176/336/110 168/324/1 164/315/1 172/328/110
f 175/334/112 167/321/3 163/313/3 171/327/112
f 173/330/113 165/317/4 161/311/4 169/325/113
f 190/353/102 189/350/4 177/337/4 178/338/102
f 195/362/3 194/360/103 182/342/103 183/343/3
f 198/368/1 197/367/104 185/345/104 186/346/1
f 192/357/2 191/355/105 179/339/105 180/340/2
f 189/350/4 200/373/106 188/349/106 177/337/4
f 196/365/107 195/362/3 183/343/3 184/344/107
f 199/371/108 198/369/1 186/347/1 187/348/108
f 200/373/106 199/371/108 187/348/108 188/349/106
f 194/360/103 193/359/109 181/341/109 182/342/103
f 189/351/5 190/352/5 191/354/5 192/356/5 193/358/5 194/361/5 195/363/5 196/364/5 197/366/5 198/370/5 199/372/5 200/374/5
f 191/355/105 190/353/102 178/338/102 179/339/105
f 197/367/104 196/365/107 184/344/107 185/345/104
f 193/359/109 192/357/2 180/340/2 181/341/109
f 205/381/4 216/400/110 212/392/110 201/375/4
f 207/385/3 214/396/111 210/390/111 203/377/3
f 208/386/1 215/398/112 211/391/112 204/378/1
f 205/380/5 213/393/5 206/382/5 214/395/5 207/384/5 215/397/5 208/387/5 216/399/5
f 206/383/2 213/394/113 209/389/113 202/376/2
f 206/383/2 202/376/2 210/390/111 214/396/111
f 216/400/110 208/388/1 204/379/1 212/392/110
f 215/398/112 207/385/3 203/377/3 211/391/112
f 213/394/113 205/381/4 201/375/4 209/389/113
s 0
usemtl electronics_etx_part_2
f 88/176/2 20/53/2 19/51/2 86/170/2
f 19/52/3 94/194/3 92/188/3 96/200/3
f 18/48/2 17/45/2 90/182/2 91/185/2
f 98/204/5 17/46/5 86/171/5 85/167/5
f 18/49/5 99/207/5 87/173/5 88/177/5
f 99/207/5 98/204/5 85/167/5 87/173/5
f 17/46/5 18/49/5 88/177/5 86/171/5
f 136/272/5 100/210/5 91/186/5 135/271/5
f 135/271/5 91/186/5 90/183/5 89/179/5 100/210/5 136/272/5 133/269/5 134/270/5
f 99/208/4 18/50/4 91/187/4 100/211/4
f 17/47/3 98/205/3 89/180/3 90/184/3
f 85/168/1 96/198/1 97/201/1 87/174/1
f 97/202/5 96/199/5 92/189/5 93/191/5
f 92/190/1 94/195/1 95/196/1 93/192/1
f 99/209/1 100/212/1 89/181/1 98/206/1
f 85/169/3 86/172/3 19/52/3 96/200/3
f 87/175/4 97/203/4 20/54/4 88/178/4
f 93/193/4 95/197/4 20/54/4 97/203/4
o panel_etx_1_button_child
v 0.134601 0.012463 0.186627
v 0.091401 0.012463 0.186627
v 0.134601 -0.002592 0.163826
v 0.091401 -0.002592 0.163826
v 0.134601 0.079227 0.168737
v 0.091401 0.079227 0.168737
v 0.134601 0.080864 0.141464
v 0.091401 0.080864 0.141464
v 0.134601 0.039136 0.152645
v 0.091401 0.039136 0.152645
v 0.134601 0.043609 0.169337
v 0.091401 0.043609 0.169337
vn -0.0000 -0.8345 0.5510
vn -0.0000 0.9982 0.0599
vn -0.0000 0.4854 0.8743
vn 1.0000 -0.0000 -0.0000
vn -1.0000 -0.0000 -0.0000
vn -0.0000 0.0168 0.9999
vt 0.087891 0.359375
vt 0.121094 0.361328
vt 0.091720 0.357214
vt 0.087891 0.339844
vt 0.121094 0.341797
vt 0.091716 0.357135
vt 0.099609 0.359375
vt 0.087776 0.346288
vt 0.099609 0.339844
vt 0.087778 0.346319
vt 0.087891 0.359375
vt 0.123801 0.357214
vt 0.136719 0.361328
vt 0.087891 0.339844
vt 0.123805 0.357135
vt 0.136719 0.341797
vt 0.099609 0.359375
vt 0.127745 0.346288
vt 0.099609 0.339844
vt 0.127743 0.346319
vt 0.107778 0.346322
vt 0.107741 0.346356
vt 0.136719 0.361328
vt 0.107733 0.353457
vt 0.121094 0.361328
vt 0.136719 0.341797
vt 0.107791 0.353404
vt 0.121094 0.341797
s 0
usemtl electronics_etx_part_1
f 217/401/114 218/404/114 220/409/114 219/407/114
f 223/417/115 224/419/115 222/414/115 221/411/115
f 227/423/116 228/426/116 218/405/116 217/402/116
f 225/421/117 223/418/117 221/412/117 227/424/117
f 226/422/118 220/410/118 218/406/118 228/427/118
f 224/420/118 226/422/118 228/427/118 222/415/118
f 219/408/117 225/421/117 227/424/117 217/403/117
f 221/413/119 222/416/119 228/428/119 227/425/119
o panel_etx_1_switch_child
v -0.022683 -0.079333 0.148288
v -0.030772 -0.072327 0.144243
v -0.038861 -0.079333 0.148288
v -0.030772 -0.086338 0.152333
v -0.022683 -0.073645 0.158140
v -0.030772 -0.066639 0.154095
v -0.038861 -0.073645 0.158140
v -0.030772 -0.080650 0.162185
v -0.025247 -0.074548 0.145526
v -0.036297 -0.074548 0.145526
v -0.036297 -0.084118 0.151051
v -0.025247 -0.084118 0.151051
v -0.025247 -0.068860 0.155378
v -0.036297 -0.068860 0.155378
v -0.036297 -0.078430 0.160903
v -0.025247 -0.078430 0.160903
v -0.027085 -0.076838 0.159984
v -0.027085 -0.070452 0.156297
v -0.034459 -0.070452 0.156297
v -0.034459 -0.076838 0.159984
v -0.025445 -0.066944 0.180401
v -0.025445 -0.057717 0.175074
v -0.036100 -0.057717 0.175074
v -0.036100 -0.066944 0.180401
v -0.027505 -0.061714 0.185340
v -0.027505 -0.056055 0.182072
v -0.034039 -0.056055 0.182072
v -0.034039 -0.061714 0.185340
vn 0.9791 0.1016 0.1759
vn 0.7071 -0.6124 0.3536
vn 0.9791 -0.1016 -0.1759
vn -0.0000 0.5000 0.8660
vn -0.7071 0.6124 -0.3536
vn -0.0000 0.9495 -0.3136
vn -0.0000 0.7464 -0.6655
vn -0.9791 0.1016 0.1759
vn -0.9791 -0.1016 -0.1759
vn -0.7071 -0.6124 0.3536
vn -0.0000 -0.7464 0.6655
vn -0.0000 -0.9495 0.3136
vn 0.7071 0.6124 -0.3536
vn -0.0010 0.8264 -0.5631
vn -0.0000 0.8276 -0.5613
vn 0.0010 0.8264 -0.5631
vn 0.0012 -0.6850 0.7285
vn -0.0018 -0.6862 0.7274
vn -0.1389 -0.7506 0.6460
vn 0.1724 -0.6778 0.7148
vn -0.0885 0.6207 0.7791
vn -0.0915 0.3661 0.9261
vn 0.1470 0.4146 0.8981
vn 0.0018 0.6418 0.7669
vn 0.0023 -0.9003 0.4353
vn -0.0000 -0.8999 0.4361
vn -0.0007 -0.9006 0.4346
vn -0.9914 0.0221 0.1291
vn -0.9735 -0.0278 0.2269
vn -0.9575 0.1431 0.2503
vn -0.9579 0.1455 0.2474
vn -0.9973 -0.0385 -0.0622
vn -0.9974 -0.0362 -0.0626
vn -0.9972 -0.0364 -0.0650
vn 0.9900 0.1156 0.0802
vn 0.9576 0.1448 0.2489
vn 0.9575 0.1431 0.2503
vn 0.9896 0.0090 0.1436
vn 0.0022 0.9731 -0.2304
vn 0.0620 0.9213 -0.3840
vn -0.1362 0.9340 -0.3303
vn -0.0023 0.9731 -0.2304
vn 0.9973 -0.0350 -0.0640
vn 0.9974 -0.0362 -0.0626
vn 0.9973 -0.0385 -0.0622
vt 0.307348 0.623345
vt 0.313796 0.623345
vt 0.320245 0.623345
vt 0.326694 0.623345
vt 0.300899 0.623345
vt 0.274006 0.600660
vt 0.307348 0.629367
vt 0.280037 0.601199
vt 0.313796 0.629367
vt 0.279499 0.607230
vt 0.320245 0.629367
vt 0.273467 0.606692
vt 0.326694 0.629367
vt 0.300899 0.629367
vt 0.310572 0.623345
vt 0.317021 0.623345
vt 0.323469 0.623345
vt 0.304124 0.623345
vt 0.277120 0.599826
vt 0.310572 0.629367
vt 0.280872 0.604313
vt 0.317021 0.629367
vt 0.276384 0.608065
vt 0.323469 0.629367
vt 0.272632 0.603577
vt 0.304124 0.629367
vt 0.930417 0.725520
vt 0.929228 0.725309
vt 0.925108 0.724858
vt 0.926315 0.724885
vt 0.922164 0.724885
vt 0.920968 0.725043
vt 0.933231 0.726385
vt 0.918062 0.725520
vt 0.888741 0.716549
vt 0.933166 0.713807
vt 0.886607 0.719198
vt 0.931448 0.713502
vt 0.925495 0.712850
vt 0.882919 0.715959
vt 0.880329 0.713831
vt 0.927239 0.712888
vt 0.921240 0.712888
vt 0.885647 0.707443
vt 0.919511 0.713117
vt 0.883514 0.710092
vt 0.891925 0.712809
vt 0.937232 0.715057
vt 0.889335 0.710682
vt 0.915313 0.713807
vt 0.886881 0.714297
vt 0.887057 0.714536
vt 0.886747 0.715276
vt 0.884972 0.714325
vt 0.885192 0.714126
vt 0.884281 0.713959
vt 0.885197 0.712105
vt 0.885508 0.711365
vt 0.885373 0.712343
vt 0.887973 0.712681
vt 0.887282 0.712316
vt 0.887062 0.712514
s 1
usemtl electronics_etx_part_1
f 233/435/120 244/454/121 240/446/121 229/429/122
f 233/434/123 241/447/123 234/436/123 242/449/123 235/438/123 243/451/123 236/440/123 244/453/123
f 242/450/124 234/437/125 230/430/126 238/444/124
f 235/439/127 242/450/124 238/444/124 231/431/128
f 243/452/129 235/439/127 231/431/128 239/445/129
f 236/441/130 243/452/129 239/445/129 232/432/131
f 234/437/125 241/448/132 237/443/132 230/430/126
f 236/442/130 232/433/131 240/446/121 244/454/121
f 241/448/132 233/435/120 229/429/122 237/443/132
f 250/467/133 246/457/134 247/459/134 251/471/135
f 252/475/136 249/463/137 253/479/138 256/488/139
f 253/480/140 254/482/141 255/485/142 256/489/143
f 252/476/144 248/461/145 245/455/145 249/464/146
f 256/490/147 255/486/148 251/472/149 252/477/150
f 251/473/151 247/460/152 248/462/152 252/478/153
f 253/481/154 249/465/155 250/468/156 254/483/157
f 251/474/158 255/487/159 254/484/160 250/469/161
f 249/466/162 245/456/163 246/458/163 250/470/164
o panel_etx_1_switch_child_1
v 0.039863 -0.079333 0.148288
v 0.031774 -0.072327 0.144243
v 0.023684 -0.079333 0.148288
v 0.031774 -0.086338 0.152333
v 0.039863 -0.073645 0.158140
v 0.031774 -0.066639 0.154095
v 0.023684 -0.073645 0.158140
v 0.031774 -0.080650 0.162185
v 0.037299 -0.074548 0.145526
v 0.026249 -0.074548 0.145526
v 0.026249 -0.084118 0.151051
v 0.037299 -0.084118 0.151051
v 0.037299 -0.068860 0.155378
v 0.026249 -0.068860 0.155378
v 0.026249 -0.078430 0.160903
v 0.037299 -0.078430 0.160903
v 0.035460 -0.076838 0.159984
v 0.035460 -0.070452 0.156297
v 0.028087 -0.070452 0.156297
v 0.028087 -0.076838 0.159984
v 0.037101 -0.066944 0.180401
v 0.037101 -0.057717 0.175074
v 0.026446 -0.057717 0.175074
v 0.026446 -0.066944 0.180401
v 0.035041 -0.061714 0.185340
v 0.035041 -0.056055 0.182072
v 0.028506 -0.056055 0.182072
v 0.028506 -0.061714 0.185340
vn 0.9791 0.1016 0.1759
vn 0.7071 -0.6124 0.3536
vn 0.9791 -0.1016 -0.1759
vn -0.0000 0.5000 0.8660
vn -0.7071 0.6124 -0.3536
vn -0.0000 0.9495 -0.3136
vn -0.0000 0.7464 -0.6655
vn -0.9791 0.1016 0.1759
vn -0.9791 -0.1016 -0.1759
vn -0.7071 -0.6124 0.3536
vn -0.0000 -0.7464 0.6655
vn -0.0000 -0.9495 0.3136
vn 0.7071 0.6124 -0.3536
vn -0.0010 0.8264 -0.5631
vn -0.0000 0.8276 -0.5613
vn 0.0010 0.8264 -0.5631
vn 0.0012 -0.6850 0.7285
vn -0.0018 -0.6862 0.7274
vn -0.1389 -0.7506 0.6460
vn 0.1724 -0.6778 0.7148
vn -0.0885 0.6207 0.7791
vn -0.0915 0.3661 0.9261
vn 0.1470 0.4146 0.8981
vn 0.0018 0.6418 0.7669
vn 0.0023 -0.9003 0.4353
vn -0.0000 -0.8999 0.4361
vn -0.0007 -0.9006 0.4346
vn -0.9914 0.0221 0.1291
vn -0.9735 -0.0278 0.2269
vn -0.9575 0.1431 0.2503
vn -0.9579 0.1455 0.2474
vn -0.9973 -0.0385 -0.0622
vn -0.9974 -0.0362 -0.0626
vn -0.9972 -0.0364 -0.0650
vn 0.9900 0.1156 0.0802
vn 0.9576 0.1448 0.2489
vn 0.9575 0.1431 0.2503
vn 0.9896 0.0090 0.1436
vn 0.0022 0.9731 -0.2304
vn 0.0620 0.9213 -0.3840
vn -0.1362 0.9340 -0.3303
vn -0.0023 0.9731 -0.2304
vn 0.9973 -0.0350 -0.0640
vn 0.9974 -0.0362 -0.0626
vn 0.9973 -0.0385 -0.0622
vt 0.307348 0.623345
vt 0.313796 0.623345
vt 0.320245 0.623345
vt 0.326694 0.623345
vt 0.300899 0.623345
vt 0.274006 0.600660
vt 0.307348 0.629367
vt 0.280037 0.601199
vt 0.313796 0.629367
vt 0.279499 0.607230
vt 0.320245 0.629367
vt 0.273467 0.606692
vt 0.326694 0.629367
vt 0.300899 0.629367
vt 0.310572 0.623345
vt 0.317021 0.623345
vt 0.323469 0.623345
vt 0.304124 0.623345
vt 0.277120 0.599826
vt 0.310572 0.629367
vt 0.280872 0.604313
vt 0.317021 0.629367
vt 0.276384 0.608065
vt 0.323469 0.629367
vt 0.272632 0.603577
vt 0.304124 0.629367
vt 0.930417 0.725520
vt 0.929228 0.725309
vt 0.925108 0.724858
vt 0.926315 0.724885
vt 0.922164 0.724885
vt 0.920968 0.725043
vt 0.933231 0.726385
vt 0.918062 0.725520
vt 0.888741 0.716549
vt 0.933166 0.713807
vt 0.886607 0.719198
vt 0.931448 0.713502
vt 0.925495 0.712850
vt 0.882919 0.715959
vt 0.880329 0.713831
vt 0.927239 0.712888
vt 0.921240 0.712888
vt 0.885647 0.707443
vt 0.919511 0.713117
vt 0.883514 0.710092
vt 0.891925 0.712809
vt 0.937232 0.715057
vt 0.889335 0.710682
vt 0.915313 0.713807
vt 0.886881 0.714297
vt 0.887057 0.714536
vt 0.886747 0.715276
vt 0.884972 0.714325
vt 0.885192 0.714126
vt 0.884281 0.713959
vt 0.885197 0.712105
vt 0.885508 0.711365
vt 0.885373 0.712343
vt 0.887973 0.712681
vt 0.887282 0.712316
vt 0.887062 0.712514
s 1
usemtl electronics_etx_part_1
f 261/497/165 272/516/166 268/508/166 257/491/167
f 261/496/168 269/509/168 262/498/168 270/511/168 263/500/168 271/513/168 264/502/168 272/515/168
f 270/512/169 262/499/170 258/492/171 266/506/169
f 263/501/172 270/512/169 266/506/169 259/493/173
f 271/514/174 263/501/172 259/493/173 267/507/174
f 264/503/175 271/514/174 267/507/174 260/494/176
f 262/499/170 269/510/177 265/505/177 258/492/171
f 264/504/175 260/495/176 268/508/166 272/516/166
f 269/510/177 261/497/165 257/491/167 265/505/177
f 278/529/178 274/519/179 275/521/179 279/533/180
f 280/537/181 277/525/182 281/541/183 284/550/184
f 281/542/185 282/544/186 283/547/187 284/551/188
f 280/538/189 276/523/190 273/517/190 277/526/191
f 284/552/192 283/548/193 279/534/194 280/539/195
f 279/535/196 275/522/197 276/524/197 280/540/198
f 281/543/199 277/527/200 278/530/201 282/545/202
f 279/536/203 283/549/204 282/546/205 278/531/206
f 277/528/207 273/518/208 274/520/208 278/532/209
