# Blender 3.4.0
# www.blender.org
mtllib screen_etx_1_stand.mtl
o screen_etx_1_whole
v -0.153001 -0.118451 -0.008358
v -0.153001 0.108449 -0.048367
v 0.152999 -0.118451 -0.008358
v 0.152999 0.108449 -0.048367
v 0.188999 0.169532 0.090739
v -0.189001 0.169532 0.090739
v -0.189001 -0.128273 0.143251
v -0.153001 -0.092820 0.136999
v -0.153001 0.134079 0.096991
v 0.152999 -0.092820 0.136999
v 0.152999 0.134079 0.096991
v 0.188999 -0.128273 0.143251
v -0.136801 -0.079992 0.116460
v -0.136801 0.115000 0.082077
v 0.136799 0.115000 0.082077
v 0.136799 -0.079992 0.116460
v -0.189001 0.143902 -0.054618
v -0.189001 -0.153904 -0.002107
v 0.188999 -0.153904 -0.002107
v 0.188999 0.143902 -0.054618
v -0.122401 0.060753 -0.186178
v -0.122401 -0.120766 -0.154171
v 0.122399 -0.120766 -0.154171
v 0.122399 0.060753 -0.186178
v -0.025201 -0.107733 0.156079
v -0.036001 -0.107733 0.156079
v -0.025201 -0.167164 0.130003
v -0.036001 -0.167164 0.130003
v -0.025201 -0.189044 0.005917
v -0.036001 -0.189044 0.005917
v -0.025201 -0.135864 -0.003460
v -0.036001 -0.135864 -0.003460
v -0.025201 -0.125460 0.159205
v -0.036001 -0.125460 0.159205
v 0.035998 -0.107733 0.156079
v 0.025199 -0.107733 0.156079
v 0.035998 -0.167164 0.130003
v 0.025199 -0.167164 0.130003
v 0.035998 -0.189044 0.005917
v 0.025199 -0.189044 0.005917
v 0.035998 -0.135864 -0.003460
v 0.025199 -0.135864 -0.003460
v 0.035998 -0.125460 0.159205
v 0.025199 -0.125460 0.159205
v -0.025201 0.154620 0.109819
v -0.036001 0.154620 0.109819
v -0.025201 0.201548 0.064989
v -0.036001 0.201548 0.064989
v -0.025201 0.179668 -0.059097
v -0.036001 0.179668 -0.059097
v -0.025201 0.126488 -0.049720
v -0.036001 0.126488 -0.049720
v -0.025201 0.172346 0.106693
v -0.036001 0.172346 0.106693
v 0.035998 0.154620 0.109819
v 0.025199 0.154620 0.109819
v 0.035998 0.201548 0.064989
v 0.025199 0.201548 0.064989
v 0.035998 0.179668 -0.059097
v 0.025199 0.179668 -0.059097
v 0.035998 0.126488 -0.049720
v 0.025199 0.126488 -0.049720
v 0.035998 0.172346 0.106693
v 0.025199 0.172346 0.106693
v 0.025199 -0.154619 -0.109819
v 0.035999 -0.154619 -0.109819
v 0.025199 -0.201547 -0.064989
v 0.035999 -0.201547 -0.064989
v 0.025199 -0.172345 -0.106693
v 0.035999 -0.172345 -0.106693
v -0.036001 -0.154619 -0.109819
v -0.025201 -0.154619 -0.109819
v -0.036001 -0.201547 -0.064989
v -0.025201 -0.201547 -0.064989
v -0.036001 -0.172345 -0.106693
v -0.025201 -0.172345 -0.106693
v 0.025199 0.107734 -0.156079
v 0.035999 0.107734 -0.156079
v 0.025199 0.167165 -0.130003
v 0.035999 0.167165 -0.130003
v 0.025199 0.125461 -0.159205
v 0.035999 0.125461 -0.159205
v -0.036001 0.107734 -0.156079
v -0.025201 0.107734 -0.156079
v -0.036001 0.167165 -0.130003
v -0.025201 0.167165 -0.130003
v -0.036001 0.125461 -0.159205
v -0.025201 0.125461 -0.159205
v -0.025201 0.091035 -0.043469
v -0.036001 0.091035 -0.043469
v 0.035998 0.091035 -0.043469
v 0.025199 0.091035 -0.043469
v 0.025199 0.072281 -0.149828
v 0.035999 0.072281 -0.149828
v -0.036001 0.072281 -0.149828
v -0.025201 0.072281 -0.149828
v -0.025201 -0.100411 -0.009711
v -0.036001 -0.100411 -0.009711
v 0.035998 -0.100411 -0.009711
v 0.025199 -0.100411 -0.009711
v 0.025199 -0.119165 -0.116071
v 0.035999 -0.119165 -0.116071
v -0.036001 -0.119165 -0.116071
v -0.025201 -0.119165 -0.116071
v 0.188996 -0.040989 0.078510
v 0.188996 -0.023263 0.075385
v 0.188996 -0.044428 0.059011
v 0.188996 -0.026701 0.055886
v 0.206996 -0.040989 0.078510
v 0.206996 -0.023263 0.075385
v 0.206996 -0.044428 0.059011
v 0.206996 -0.026701 0.055886
v 0.226088 -0.042363 0.070722
v 0.226088 -0.024636 0.067596
v 0.213360 -0.044885 0.056415
v 0.213360 -0.027159 0.053289
v 0.233996 -0.045991 0.050147
v 0.233996 -0.028264 0.047022
v 0.215996 -0.045991 0.050147
v 0.215996 -0.028264 0.047022
v 0.188996 0.047643 0.062882
v 0.188996 0.065370 0.059756
v 0.188996 0.044205 0.043383
v 0.188996 0.061931 0.040257
v 0.206996 0.047643 0.062882
v 0.206996 0.065370 0.059756
v 0.206996 0.044205 0.043383
v 0.206996 0.061931 0.040257
v 0.226088 0.046270 0.055094
v 0.226088 0.063996 0.051968
v 0.213360 0.043747 0.040787
v 0.213360 0.061474 0.037661
v 0.233996 0.042642 0.034519
v 0.233996 0.060369 0.031393
v 0.215996 0.042642 0.034519
v 0.215996 0.060369 0.031393
v 0.188996 0.091959 0.055068
v 0.188996 0.109686 0.051942
v 0.188996 0.088521 0.035569
v 0.188996 0.106248 0.032443
v 0.206996 0.091959 0.055068
v 0.206996 0.109686 0.051942
v 0.206996 0.088521 0.035569
v 0.206996 0.106248 0.032443
v 0.226088 0.090586 0.047280
v 0.226088 0.108313 0.044154
v 0.213360 0.088063 0.032972
v 0.213360 0.105790 0.029847
v 0.233996 0.086958 0.026705
v 0.233996 0.104685 0.023579
v 0.215996 0.086958 0.026705
v 0.215996 0.104685 0.023579
v 0.188996 -0.085306 0.086325
v 0.188996 -0.067579 0.083199
v 0.188996 -0.088744 0.066825
v 0.188996 -0.071017 0.063700
v 0.206996 -0.085306 0.086325
v 0.206996 -0.067579 0.083199
v 0.206996 -0.088744 0.066825
v 0.206996 -0.071017 0.063700
v 0.226088 -0.086679 0.078536
v 0.226088 -0.068953 0.075411
v 0.213360 -0.089202 0.064229
v 0.213360 -0.071475 0.061103
v 0.233996 -0.090307 0.057962
v 0.233996 -0.072580 0.054836
v 0.215996 -0.090307 0.057962
v 0.215996 -0.072580 0.054836
v 0.233996 -0.052644 -0.091245
v 0.233996 -0.034918 -0.094371
v 0.215996 -0.052644 -0.091245
v 0.215996 -0.034918 -0.094371
v 0.233996 0.000535 -0.100622
v 0.233996 0.018262 -0.103748
v 0.215996 0.000535 -0.100622
v 0.215996 0.018262 -0.103748
v 0.233996 0.044852 -0.108436
v 0.233996 0.062578 -0.111562
v 0.215996 0.044852 -0.108436
v 0.215996 0.062578 -0.111562
v 0.233996 -0.096961 -0.083431
v 0.233996 -0.079234 -0.086557
v 0.215996 -0.096961 -0.083431
v 0.215996 -0.079234 -0.086557
v -0.188998 -0.040989 0.078510
v -0.188998 -0.023263 0.075385
v -0.188998 -0.044428 0.059011
v -0.188998 -0.026701 0.055886
v -0.206998 -0.040989 0.078510
v -0.206998 -0.023263 0.075385
v -0.206998 -0.044428 0.059011
v -0.206998 -0.026701 0.055886
v -0.226090 -0.042363 0.070722
v -0.226090 -0.024636 0.067596
v -0.213362 -0.044885 0.056415
v -0.213362 -0.027159 0.053289
v -0.233997 -0.045991 0.050147
v -0.233997 -0.028264 0.047022
v -0.215997 -0.045991 0.050147
v -0.215997 -0.028264 0.047022
v -0.188998 0.047643 0.062882
v -0.188998 0.065370 0.059756
v -0.188998 0.044205 0.043383
v -0.188998 0.061931 0.040257
v -0.206998 0.047643 0.062882
v -0.206998 0.065370 0.059756
v -0.206998 0.044205 0.043383
v -0.206998 0.061931 0.040257
v -0.226090 0.046270 0.055094
v -0.226090 0.063996 0.051968
v -0.213362 0.043747 0.040787
v -0.213362 0.061474 0.037661
v -0.233997 0.042642 0.034519
v -0.233997 0.060369 0.031393
v -0.215997 0.042642 0.034519
v -0.215997 0.060369 0.031393
v -0.188998 0.091959 0.055068
v -0.188998 0.109686 0.051942
v -0.188998 0.088521 0.035569
v -0.188998 0.106248 0.032443
v -0.206998 0.091959 0.055068
v -0.206998 0.109686 0.051942
v -0.206998 0.088521 0.035569
v -0.206998 0.106248 0.032443
v -0.226090 0.090586 0.047280
v -0.226090 0.108313 0.044154
v -0.213362 0.088063 0.032972
v -0.213362 0.105790 0.029847
v -0.233997 0.086958 0.026705
v -0.233997 0.104685 0.023579
v -0.215997 0.086958 0.026705
v -0.215997 0.104685 0.023579
v -0.188998 -0.085306 0.086325
v -0.188998 -0.067579 0.083199
v -0.188998 -0.088744 0.066825
v -0.188998 -0.071017 0.063700
v -0.206998 -0.085306 0.086325
v -0.206998 -0.067579 0.083199
v -0.206998 -0.088744 0.066825
v -0.206998 -0.071017 0.063700
v -0.226090 -0.086679 0.078536
v -0.226090 -0.068953 0.075411
v -0.213362 -0.089202 0.064229
v -0.213362 -0.071475 0.061103
v -0.233997 -0.090307 0.057962
v -0.233997 -0.072580 0.054836
v -0.215997 -0.090307 0.057962
v -0.215997 -0.072580 0.054836
v -0.233997 -0.034918 -0.094371
v -0.233997 0.000535 -0.100622
v -0.215997 0.000535 -0.100622
v -0.233997 0.044852 -0.108436
v -0.233997 0.062578 -0.111562
v -0.215997 0.044852 -0.108436
v -0.233997 -0.096961 -0.083431
v -0.233997 -0.079234 -0.086557
v -0.215997 -0.096961 -0.083431
v -0.215997 -0.079234 -0.086557
v -0.116998 -0.057645 -0.119607
v -0.116998 -0.039919 -0.122733
v -0.116998 -0.054207 -0.100108
v -0.116998 -0.036481 -0.103234
v -0.206998 -0.057645 -0.119607
v -0.206998 -0.039919 -0.122733
v -0.206998 -0.054207 -0.100108
v -0.206998 -0.036481 -0.103234
v -0.226090 -0.056272 -0.111819
v -0.226090 -0.038545 -0.114944
v -0.213362 -0.053749 -0.097512
v -0.213362 -0.036023 -0.100637
v -0.233998 -0.052644 -0.091244
v -0.215998 -0.052644 -0.091244
v -0.215998 -0.034918 -0.094370
v -0.116998 -0.004466 -0.128984
v -0.116998 0.013261 -0.132110
v -0.116998 -0.001028 -0.109485
v -0.116998 0.016699 -0.112611
v -0.206998 -0.004466 -0.128984
v -0.206998 0.013261 -0.132110
v -0.206998 -0.001028 -0.109485
v -0.206998 0.016699 -0.112611
v -0.226090 -0.003092 -0.121196
v -0.226090 0.014634 -0.124321
v -0.213362 -0.000570 -0.106889
v -0.213362 0.017157 -0.110014
v -0.233998 0.018262 -0.103747
v -0.215998 0.018262 -0.103747
v -0.116998 0.039851 -0.136798
v -0.116998 0.057577 -0.139924
v -0.116998 0.043289 -0.117299
v -0.116998 0.061015 -0.120425
v -0.206998 0.039851 -0.136798
v -0.206998 0.057577 -0.139924
v -0.206998 0.043289 -0.117299
v -0.206998 0.061015 -0.120425
v -0.226090 0.041224 -0.129010
v -0.226090 0.058950 -0.132136
v -0.213362 0.043747 -0.114703
v -0.213362 0.061473 -0.117828
v -0.215998 0.062578 -0.111561
v -0.116998 -0.101962 -0.111793
v -0.116998 -0.084235 -0.114919
v -0.116998 -0.098523 -0.092294
v -0.116998 -0.080797 -0.095419
v -0.206998 -0.101962 -0.111793
v -0.206998 -0.084235 -0.114919
v -0.206998 -0.098523 -0.092294
v -0.206998 -0.080797 -0.095419
v -0.226090 -0.100588 -0.104005
v -0.226090 -0.082862 -0.107130
v -0.213362 -0.098066 -0.089697
v -0.213362 -0.080339 -0.092823
v 0.116996 -0.057645 -0.119607
v 0.116996 -0.039919 -0.122733
v 0.116996 -0.054207 -0.100108
v 0.116996 -0.036480 -0.103234
v 0.206996 -0.057645 -0.119607
v 0.206996 -0.039919 -0.122733
v 0.206996 -0.054207 -0.100108
v 0.206996 -0.036480 -0.103234
v 0.226088 -0.056272 -0.111819
v 0.226088 -0.038545 -0.114944
v 0.213360 -0.053749 -0.097512
v 0.213360 -0.036023 -0.100637
v 0.116996 -0.004466 -0.128984
v 0.116996 0.013261 -0.132110
v 0.116996 -0.001028 -0.109485
v 0.116996 0.016699 -0.112611
v 0.206996 -0.004466 -0.128984
v 0.206996 0.013261 -0.132110
v 0.206996 -0.001028 -0.109485
v 0.206996 0.016699 -0.112611
v 0.226088 -0.003092 -0.121196
v 0.226088 0.014634 -0.124321
v 0.213360 -0.000570 -0.106889
v 0.213360 0.017157 -0.110014
v 0.116996 0.039851 -0.136798
v 0.116996 0.057577 -0.139924
v 0.116996 0.043289 -0.117299
v 0.116996 0.061015 -0.120425
v 0.206996 0.039851 -0.136798
v 0.206996 0.057577 -0.139924
v 0.206996 0.043289 -0.117299
v 0.206996 0.061015 -0.120425
v 0.226088 0.041224 -0.129010
v 0.226088 0.058950 -0.132136
v 0.213360 0.043747 -0.114703
v 0.213360 0.061473 -0.117828
v 0.116996 -0.101962 -0.111793
v 0.116996 -0.084235 -0.114919
v 0.116996 -0.098523 -0.092294
v 0.116996 -0.080797 -0.095419
v 0.206996 -0.101962 -0.111793
v 0.206996 -0.084235 -0.114919
v 0.206996 -0.098523 -0.092294
v 0.206996 -0.080797 -0.095419
v 0.226088 -0.100588 -0.104005
v 0.226088 -0.082862 -0.107130
v 0.213360 -0.098066 -0.089697
v 0.213360 -0.080339 -0.092823
v 0.164126 -0.103115 0.142689
v 0.161279 -0.109884 0.143883
v 0.170999 -0.100311 0.142195
v 0.164126 -0.116652 0.145076
v 0.170999 -0.119456 0.145571
v 0.177872 -0.116652 0.145076
v 0.177872 -0.103115 0.142689
v 0.180719 -0.109884 0.143883
v 0.164126 -0.103790 0.138861
v 0.161279 -0.110559 0.140054
v 0.170999 -0.100986 0.138366
v 0.164126 -0.117327 0.141248
v 0.170999 -0.120131 0.141742
v 0.177872 -0.103790 0.138861
v 0.177872 -0.117327 0.141248
v 0.180719 -0.110559 0.140054
v 0.164126 0.159238 0.096430
v 0.161279 0.152469 0.097623
v 0.170999 0.162042 0.095935
v 0.164126 0.145701 0.098817
v 0.170999 0.142897 0.099311
v 0.177872 0.145701 0.098817
v 0.177872 0.159238 0.096430
v 0.180719 0.152469 0.097623
v 0.164126 0.158563 0.092601
v 0.161279 0.151794 0.093794
v 0.170999 0.161367 0.092106
v 0.164126 0.145026 0.094988
v 0.170999 0.142222 0.095482
v 0.177872 0.158563 0.092601
v 0.177872 0.145026 0.094988
v 0.180719 0.151794 0.093794
v -0.177874 -0.103115 0.142689
v -0.180721 -0.109884 0.143883
v -0.171001 -0.100311 0.142195
v -0.177874 -0.116652 0.145076
v -0.171001 -0.119456 0.145571
v -0.164128 -0.116652 0.145076
v -0.164128 -0.103115 0.142689
v -0.161281 -0.109884 0.143883
v -0.177874 -0.103790 0.138861
v -0.180721 -0.110559 0.140054
v -0.171001 -0.100986 0.138366
v -0.177874 -0.117327 0.141248
v -0.171001 -0.120131 0.141742
v -0.164128 -0.103790 0.138861
v -0.164128 -0.117327 0.141248
v -0.161281 -0.110559 0.140054
v -0.177874 0.159238 0.096430
v -0.180721 0.152469 0.097623
v -0.171001 0.162042 0.095935
v -0.177874 0.145701 0.098817
v -0.171001 0.142897 0.099311
v -0.164128 0.145701 0.098817
v -0.164128 0.159238 0.096430
v -0.161281 0.152469 0.097623
v -0.177874 0.158563 0.092601
v -0.180721 0.151794 0.093794
v -0.171001 0.161367 0.092106
v -0.177874 0.145026 0.094988
v -0.171001 0.142222 0.095482
v -0.164128 0.158563 0.092601
v -0.164128 0.145026 0.094988
v -0.161281 0.151794 0.093794
vn 1.0000 -0.0000 -0.0000
vn -0.0000 -0.9848 0.1736
vn -1.0000 -0.0000 -0.0000
vn -0.0000 0.9848 -0.1736
vn -0.0000 -0.6158 0.7879
vn -0.0000 0.1736 0.9848
vn -0.7433 0.1162 0.6588
vn -0.0000 0.8482 0.5297
vn 0.7433 0.1162 0.6588
vn -0.0000 0.9450 -0.3271
vn -0.0000 -0.1736 -0.9848
vn -0.9782 -0.0361 -0.2047
vn 0.9782 -0.0361 -0.2047
vn -0.0000 -0.9999 0.0159
vn -0.0000 -0.5736 0.8192
vn -0.0000 0.8192 0.5736
vn -0.0000 -0.8192 -0.5736
vn -0.0000 0.5736 -0.8192
vn 0.9352 0.0615 0.3486
vn -0.3827 -0.1604 -0.9098
vn 0.3827 0.1604 0.9098
vn -0.9239 -0.0664 -0.3768
vn -0.0000 -0.9989 0.0470
vn -0.0000 -0.9547 0.2975
vn -0.0000 0.9989 -0.0470
vn -0.0000 0.9547 -0.2975
vn -0.9352 0.0615 0.3486
vn 0.3827 -0.1604 -0.9098
vn -0.3827 0.1604 0.9098
vn 0.9239 -0.0664 -0.3768
vn -0.9352 -0.0615 -0.3486
vn 0.9239 0.0664 0.3768
vn 0.9352 -0.0615 -0.3486
vn -0.9239 0.0665 0.3769
vn 0.5490 0.6501 0.5254
vn -0.0000 0.8740 0.4859
vn -0.5490 0.6501 0.5254
vn -0.7764 0.1094 0.6207
vn -0.5490 -0.4312 0.7160
vn -0.0000 -0.6551 0.7555
vn 0.5490 -0.4312 0.7160
vn 0.7764 0.1094 0.6207
vn 0.7071 0.6964 -0.1228
vn 0.7071 -0.6964 0.1228
vn -0.7071 0.6964 -0.1228
vn -0.7071 -0.6964 0.1228
vn -0.0000 0.9848 -0.1737
vn -0.0000 -0.9848 0.1737
vt 0.596632 0.362888
vt 0.629350 0.316309
vt 0.677517 0.222633
vt 0.677517 0.222633
vt 0.672371 0.362888
vt 0.629350 0.392049
vt 0.596632 0.463480
vt 0.629350 0.316309
vt 0.677517 0.323225
vt 0.677517 0.323225
vt 0.672371 0.463480
vt 0.629350 0.392049
vt 0.333984 0.287109
vt 0.333984 0.212891
vt 0.333984 0.240926
vt 0.216797 0.212891
vt 0.212891 0.212891
vt 0.333984 0.212891
vt 0.240234 0.240926
vt 0.212891 0.113281
vt 0.224609 0.125000
vt 0.228437 0.200107
vt 0.321729 0.196467
vt 0.228437 0.200107
vt 0.224609 0.201172
vt 0.321729 0.128702
vt 0.322266 0.125000
vt 0.321729 0.196497
vt 0.318438 0.200107
vt 0.318438 0.200107
vt 0.322266 0.201172
vt 0.321729 0.128733
vt 0.240234 0.287109
vt 0.216797 0.212891
vt 0.333984 0.113281
vt 0.232422 0.132812
vt 0.233202 0.194813
vt 0.316435 0.191702
vt 0.233202 0.194813
vt 0.232422 0.193359
vt 0.316435 0.133467
vt 0.313673 0.194813
vt 0.314453 0.193359
vt 0.316435 0.133497
vt 0.314453 0.132812
vt 0.316435 0.191733
vt 0.313673 0.194813
vt 0.333984 0.287031
vt 0.216797 0.258996
vt 0.684206 0.351054
vt 0.333984 0.258996
vt 0.240234 0.287031
vt 0.584797 0.351054
vt 0.240234 0.241004
vt 0.216797 0.258996
vt 0.584797 0.475314
vt 0.333984 0.241004
vt 0.333984 0.258996
vt 0.684206 0.475314
vt 0.629578 0.232692
vt 0.599831 0.459652
vt 0.677744 0.384475
vt 0.660422 0.459652
vt 0.677744 0.323883
vt 0.629578 0.232692
vt 0.660422 0.379179
vt 0.677744 0.323883
vt 0.629578 0.313166
vt 0.629578 0.313166
vt 0.599831 0.379179
vt 0.677744 0.384475
vt 0.857422 0.967773
vt 0.873047 0.938476
vt 0.857422 0.971679
vt 0.873047 0.938476
vt 0.857422 0.967773
vt 0.894531 0.952148
vt 0.878906 0.967773
vt 0.857422 0.971679
vt 0.894531 0.952148
vt 0.878906 0.971679
vt 0.905274 0.967773
vt 0.905274 0.971680
vt 0.893888 1.000000
vt 0.905274 0.971680
vt 0.905274 0.967773
vt 0.893888 1.000000
vt 0.873047 1.000000
vt 0.872548 1.000000
vt 0.918945 0.967773
vt 0.872548 1.000000
vt 0.873047 1.000000
vt 0.918945 0.971680
vt 0.880859 0.938476
vt 0.865234 0.967773
vt 0.880859 0.938476
vt 0.865234 0.971679
vt 0.857422 0.967773
vt 0.873047 0.938476
vt 0.857422 0.971679
vt 0.873047 0.938476
vt 0.857422 0.967773
vt 0.894531 0.952148
vt 0.878906 0.967773
vt 0.857422 0.971679
vt 0.894531 0.952148
vt 0.878906 0.971679
vt 0.905274 0.967773
vt 0.905274 0.971680
vt 0.893888 1.000000
vt 0.905274 0.971680
vt 0.905274 0.967773
vt 0.893888 1.000000
vt 0.873047 1.000000
vt 0.872548 1.000000
vt 0.918945 0.967773
vt 0.872548 1.000000
vt 0.918945 0.971680
vt 0.873047 1.000000
vt 0.880859 0.938476
vt 0.865234 0.967773
vt 0.880859 0.938476
vt 0.865234 0.971679
vt 0.857422 0.967773
vt 0.873047 0.938476
vt 0.857422 0.971679
vt 0.873047 0.938476
vt 0.857422 0.967773
vt 0.894531 0.952148
vt 0.878906 0.967773
vt 0.857422 0.971679
vt 0.894531 0.952148
vt 0.878906 0.971679
vt 0.905274 0.967773
vt 0.905274 0.971679
vt 0.893888 1.000000
vt 0.905274 0.971679
vt 0.905274 0.967773
vt 0.893888 1.000000
vt 0.918945 0.967773
vt 0.872548 1.000000
vt 0.873047 1.000000
vt 0.918945 0.971679
vt 0.872548 1.000000
vt 0.873047 1.000000
vt 0.880859 0.938476
vt 0.865234 0.967773
vt 0.880859 0.938476
vt 0.865234 0.971679
vt 0.857422 0.967773
vt 0.873047 0.938476
vt 0.857422 0.971679
vt 0.873047 0.938476
vt 0.857422 0.967773
vt 0.894531 0.952148
vt 0.878906 0.967773
vt 0.857422 0.971679
vt 0.894531 0.952148
vt 0.878906 0.971679
vt 0.905274 0.967773
vt 0.905274 0.971679
vt 0.893888 1.000000
vt 0.905274 0.971679
vt 0.905274 0.967773
vt 0.893888 1.000000
vt 0.872548 1.000000
vt 0.873047 1.000000
vt 0.918945 0.967773
vt 0.872548 1.000000
vt 0.873047 1.000000
vt 0.918945 0.971680
vt 0.880859 0.938476
vt 0.865234 0.967773
vt 0.880859 0.938476
vt 0.865234 0.971679
vt 0.873047 0.967773
vt 0.873047 0.958984
vt 0.873047 0.958984
vt 0.873047 0.971679
vt 0.877930 0.967773
vt 0.894256 0.972656
vt 0.889160 0.967773
vt 0.877930 0.971679
vt 0.894256 0.972656
vt 0.889160 0.971679
vt 0.865234 0.967773
vt 0.880428 0.958984
vt 0.880859 0.958984
vt 0.875488 0.967773
vt 0.865234 0.971679
vt 0.880859 0.958984
vt 0.880428 0.958984
vt 0.875488 0.971679
vt 0.873047 0.967773
vt 0.873047 0.958984
vt 0.873047 0.958984
vt 0.873047 0.971679
vt 0.877930 0.967773
vt 0.894256 0.972656
vt 0.889160 0.967773
vt 0.877930 0.971679
vt 0.894256 0.972656
vt 0.889160 0.971679
vt 0.865234 0.967773
vt 0.880428 0.958984
vt 0.880859 0.958984
vt 0.875488 0.967773
vt 0.865234 0.971679
vt 0.880859 0.958984
vt 0.880428 0.958984
vt 0.875488 0.971679
vt 0.873047 0.958984
vt 0.873047 0.967773
vt 0.873047 0.971679
vt 0.873047 0.958984
vt 0.877930 0.967773
vt 0.894256 0.972656
vt 0.889160 0.967773
vt 0.877930 0.971679
vt 0.894256 0.972656
vt 0.889160 0.971679
vt 0.865234 0.967773
vt 0.880429 0.958984
vt 0.880859 0.958984
vt 0.875488 0.967773
vt 0.865234 0.971679
vt 0.880859 0.958984
vt 0.880429 0.958984
vt 0.875488 0.971679
vt 0.873047 0.958984
vt 0.873047 0.967773
vt 0.873047 0.958984
vt 0.873047 0.971679
vt 0.877930 0.967773
vt 0.894256 0.972656
vt 0.889160 0.967773
vt 0.877930 0.971679
vt 0.894256 0.972656
vt 0.889160 0.971680
vt 0.865234 0.967773
vt 0.880429 0.958984
vt 0.880859 0.958984
vt 0.875488 0.967773
vt 0.865234 0.971679
vt 0.880859 0.958984
vt 0.880429 0.958984
vt 0.875488 0.971679
vt 0.918945 0.967773
vt 0.918945 0.971680
vt 0.857422 1.000000
vt 0.918945 0.971679
vt 0.857422 1.000000
vt 0.918945 0.967773
vt 0.918945 0.971679
vt 0.857422 1.000000
vt 0.918945 0.967773
vt 0.918945 0.967773
vt 0.857422 1.000000
vt 0.918945 0.971680
vt 0.877930 0.967773
vt 0.857422 0.958984
vt 0.857422 0.967773
vt 0.877930 0.971679
vt 0.857422 0.971679
vt 0.857422 0.958984
vt 0.857422 0.958984
vt 0.877930 0.967773
vt 0.857422 0.967773
vt 0.877930 0.971680
vt 0.857422 0.958984
vt 0.857422 0.971679
vt 0.857422 1.000000
vt 0.918945 0.971680
vt 0.918945 0.967773
vt 0.918945 0.967773
vt 0.857422 1.000000
vt 0.918945 0.971680
vt 0.857422 1.000000
vt 0.918945 0.971680
vt 0.918945 0.967773
vt 0.918945 0.967773
vt 0.918945 0.971680
vt 0.857422 1.000000
vt 0.877930 0.967773
vt 0.857422 0.967773
vt 0.857422 0.958984
vt 0.857422 0.958984
vt 0.877930 0.971679
vt 0.857422 0.971679
vt 0.877930 0.967773
vt 0.857422 0.967773
vt 0.857422 0.958984
vt 0.857422 0.958984
vt 0.877930 0.971679
vt 0.857422 0.971679
vt 0.914974 0.990994
vt 0.860807 0.971554
vt 0.914974 0.984514
vt 0.860807 0.971554
vt 0.914974 0.990994
vt 0.869141 0.971554
vt 0.914974 0.984514
vt 0.869141 0.971554
vt 0.906641 0.990994
vt 0.860807 0.980194
vt 0.860807 0.980194
vt 0.906641 0.984514
vt 0.906641 0.990994
vt 0.869141 0.980194
vt 0.869141 0.980194
vt 0.906641 0.984514
vt 0.892057 0.984514
vt 0.898307 0.990994
vt 0.864974 0.988834
vt 0.892057 0.990994
vt 0.898307 0.984514
vt 0.864974 0.988834
vt 0.904557 0.990994
vt 0.871224 0.982354
vt 0.898307 0.984514
vt 0.904557 0.984514
vt 0.871224 0.982354
vt 0.898307 0.990994
vt 0.886849 0.984514
vt 0.873307 0.990994
vt 0.949219 0.994141
vt 0.949219 1.000000
vt 0.886849 0.990994
vt 0.873307 0.990994
vt 0.949219 0.994141
vt 0.873307 0.984514
vt 0.886849 0.984514
vt 0.949219 1.000000
vt 0.873307 0.984514
vt 0.886849 0.990994
vt 0.949219 0.994141
vt 0.949219 1.000000
vt 0.914974 0.990994
vt 0.860807 0.971554
vt 0.914974 0.984514
vt 0.860807 0.971554
vt 0.914974 0.990994
vt 0.869141 0.971554
vt 0.914974 0.984514
vt 0.869141 0.971554
vt 0.906641 0.990994
vt 0.860807 0.980194
vt 0.860807 0.980194
vt 0.906641 0.984514
vt 0.906641 0.990994
vt 0.869141 0.980194
vt 0.869141 0.980194
vt 0.906641 0.984514
vt 0.892057 0.984514
vt 0.898307 0.990994
vt 0.864974 0.988834
vt 0.892057 0.990994
vt 0.898307 0.984514
vt 0.864974 0.988834
vt 0.904557 0.990994
vt 0.871224 0.982354
vt 0.898307 0.984514
vt 0.904557 0.984514
vt 0.871224 0.982354
vt 0.898307 0.990994
vt 0.886849 0.984514
vt 0.873307 0.990994
vt 0.949219 1.000000
vt 0.949219 0.994141
vt 0.886849 0.990994
vt 0.873307 0.990994
vt 0.949219 1.000000
vt 0.873307 0.984514
vt 0.886849 0.984514
vt 0.949219 0.994141
vt 0.873307 0.984514
vt 0.886849 0.990994
vt 0.949219 1.000000
vt 0.949219 0.994141
vt 0.914974 0.990994
vt 0.860807 0.971554
vt 0.914974 0.984514
vt 0.860807 0.971554
vt 0.914974 0.990994
vt 0.869141 0.971554
vt 0.914974 0.984514
vt 0.869141 0.971554
vt 0.906641 0.990994
vt 0.860807 0.980194
vt 0.860807 0.980194
vt 0.906641 0.984514
vt 0.906641 0.990994
vt 0.869141 0.980194
vt 0.869141 0.980194
vt 0.906641 0.984514
vt 0.892057 0.984514
vt 0.898307 0.990994
vt 0.864974 0.988834
vt 0.892057 0.990994
vt 0.898307 0.984514
vt 0.864974 0.988834
vt 0.904557 0.990994
vt 0.871224 0.982354
vt 0.898307 0.984514
vt 0.904557 0.984514
vt 0.871224 0.982354
vt 0.898307 0.990994
vt 0.886849 0.984514
vt 0.873307 0.990994
vt 0.949219 1.000000
vt 0.949219 0.994141
vt 0.886849 0.990994
vt 0.873307 0.990994
vt 0.949219 1.000000
vt 0.873307 0.984514
vt 0.886849 0.984514
vt 0.949219 0.994141
vt 0.873307 0.984514
vt 0.886849 0.990994
vt 0.949219 1.000000
vt 0.949219 0.994141
vt 0.914974 0.990994
vt 0.860807 0.971554
vt 0.914974 0.984514
vt 0.860807 0.971554
vt 0.914974 0.990994
vt 0.869141 0.971554
vt 0.914974 0.984514
vt 0.869141 0.971554
vt 0.906641 0.990994
vt 0.860807 0.980194
vt 0.860807 0.980194
vt 0.906641 0.984514
vt 0.906641 0.990994
vt 0.869141 0.980194
vt 0.869141 0.980194
vt 0.906641 0.984514
vt 0.892057 0.984514
vt 0.898307 0.990994
vt 0.864974 0.988834
vt 0.892057 0.990994
vt 0.898307 0.984514
vt 0.864974 0.988834
vt 0.904557 0.990994
vt 0.871224 0.982354
vt 0.898307 0.984514
vt 0.904557 0.984514
vt 0.871224 0.982354
vt 0.898307 0.990994
vt 0.886849 0.984514
vt 0.873307 0.990994
vt 0.949219 0.994141
vt 0.949219 1.000000
vt 0.886849 0.990994
vt 0.873307 0.990994
vt 0.949219 0.994141
vt 0.873307 0.984514
vt 0.886849 0.984514
vt 0.949219 1.000000
vt 0.873307 0.984514
vt 0.886849 0.990994
vt 0.949219 0.994141
vt 0.949219 1.000000
vt 1.000000 0.994141
vt 0.886849 0.990994
vt 0.873307 0.990994
vt 1.000000 0.994141
vt 1.000000 0.988281
vt 0.886849 0.997474
vt 0.873307 0.990994
vt 1.000000 0.994141
vt 1.000000 1.000000
vt 0.873307 0.984514
vt 0.886849 0.990994
vt 1.000000 0.988281
vt 1.000000 1.000000
vt 0.873307 0.984514
vt 0.886849 0.997474
vt 1.000000 1.000000
vt 1.000000 0.988281
vt 0.886849 0.978035
vt 0.873307 0.990994
vt 1.000000 1.000000
vt 1.000000 0.994141
vt 0.886849 0.984514
vt 0.873307 0.990994
vt 1.000000 0.988281
vt 1.000000 0.994141
vt 0.873307 0.984514
vt 0.886849 0.978034
vt 1.000000 0.994141
vt 0.873307 0.984514
vt 0.886849 0.984514
vt 1.000000 1.000000
vt 1.000000 0.988281
vt 0.886849 0.978035
vt 0.873307 0.990994
vt 1.000000 1.000000
vt 1.000000 0.994141
vt 0.886849 0.984514
vt 0.873307 0.990994
vt 1.000000 0.988281
vt 1.000000 0.994141
vt 0.873307 0.984514
vt 0.886849 0.978034
vt 1.000000 0.994141
vt 0.873307 0.984514
vt 0.886849 0.984514
vt 1.000000 0.994141
vt 0.886849 0.990994
vt 0.873307 0.990994
vt 1.000000 0.994141
vt 1.000000 0.988281
vt 0.886849 0.997474
vt 0.873307 0.990994
vt 1.000000 0.994141
vt 1.000000 1.000000
vt 0.873307 0.984514
vt 0.886849 0.990994
vt 1.000000 0.988281
vt 1.000000 1.000000
vt 0.873307 0.984514
vt 0.886849 0.997474
vt 0.914974 0.990994
vt 0.860807 0.971554
vt 0.914974 0.984514
vt 0.860807 0.971554
vt 0.914974 0.990994
vt 0.869141 0.971554
vt 0.914974 0.984514
vt 0.869141 0.971554
vt 0.906641 0.990994
vt 0.860807 0.980194
vt 0.860807 0.980194
vt 0.906641 0.984514
vt 0.906641 0.990994
vt 0.869141 0.980194
vt 0.869141 0.980194
vt 0.906641 0.984514
vt 0.892057 0.984514
vt 0.898307 0.990994
vt 0.864974 0.988834
vt 0.892057 0.990994
vt 0.898307 0.984514
vt 0.864974 0.988834
vt 0.904557 0.990994
vt 0.871224 0.982354
vt 0.898307 0.984514
vt 0.904557 0.984514
vt 0.871224 0.982354
vt 0.898307 0.990994
vt 0.886849 0.984514
vt 0.873307 0.990994
vt 0.949219 0.994141
vt 0.949219 1.000000
vt 0.886849 0.990994
vt 0.873307 0.990994
vt 0.949219 0.994141
vt 0.873307 0.984514
vt 0.886849 0.984514
vt 0.949219 1.000000
vt 0.873307 0.984514
vt 0.886849 0.990994
vt 0.949219 0.994141
vt 0.949219 1.000000
vt 0.914974 0.990994
vt 0.860807 0.971554
vt 0.914974 0.984514
vt 0.860807 0.971554
vt 0.914974 0.990994
vt 0.869141 0.971554
vt 0.914974 0.984514
vt 0.869141 0.971554
vt 0.906641 0.990994
vt 0.860807 0.980194
vt 0.860807 0.980194
vt 0.906641 0.984514
vt 0.906641 0.990994
vt 0.869141 0.980194
vt 0.869141 0.980194
vt 0.906641 0.984514
vt 0.892057 0.984514
vt 0.898307 0.990994
vt 0.864974 0.988834
vt 0.892057 0.990994
vt 0.898307 0.984514
vt 0.864974 0.988834
vt 0.904557 0.990994
vt 0.871224 0.982354
vt 0.898307 0.984514
vt 0.904557 0.984514
vt 0.871224 0.982354
vt 0.898307 0.990994
vt 0.886849 0.984514
vt 0.873307 0.990994
vt 0.949219 1.000000
vt 0.949219 0.994141
vt 0.886849 0.990994
vt 0.873307 0.990994
vt 0.949219 1.000000
vt 0.873307 0.984514
vt 0.886849 0.984514
vt 0.949219 0.994141
vt 0.873307 0.984514
vt 0.886849 0.990994
vt 0.949219 1.000000
vt 0.949219 0.994141
vt 0.914974 0.990994
vt 0.860807 0.971554
vt 0.914974 0.984514
vt 0.860807 0.971554
vt 0.914974 0.990994
vt 0.869141 0.971554
vt 0.914974 0.984514
vt 0.869141 0.971554
vt 0.906641 0.990994
vt 0.860807 0.980194
vt 0.860807 0.980194
vt 0.906641 0.984514
vt 0.906641 0.990994
vt 0.869141 0.980194
vt 0.869141 0.980194
vt 0.906641 0.984514
vt 0.892057 0.984514
vt 0.898307 0.990994
vt 0.864974 0.988834
vt 0.892057 0.990994
vt 0.898307 0.984514
vt 0.864974 0.988834
vt 0.904557 0.990994
vt 0.871224 0.982354
vt 0.898307 0.984514
vt 0.904557 0.984514
vt 0.871224 0.982354
vt 0.898307 0.990994
vt 0.886849 0.984514
vt 0.873307 0.990994
vt 0.949219 1.000000
vt 0.949219 0.994141
vt 0.886849 0.990994
vt 0.873307 0.990994
vt 0.949219 1.000000
vt 0.873307 0.984514
vt 0.886849 0.984514
vt 0.949219 0.994141
vt 0.873307 0.984514
vt 0.886849 0.990994
vt 0.949219 1.000000
vt 0.949219 0.994141
vt 0.914974 0.990994
vt 0.860807 0.971554
vt 0.914974 0.984514
vt 0.860807 0.971554
vt 0.914974 0.990994
vt 0.869141 0.971554
vt 0.914974 0.984514
vt 0.869141 0.971554
vt 0.906641 0.990994
vt 0.860807 0.980194
vt 0.860807 0.980194
vt 0.906641 0.984514
vt 0.906641 0.990994
vt 0.869141 0.980194
vt 0.869141 0.980194
vt 0.906641 0.984514
vt 0.892057 0.984514
vt 0.898307 0.990994
vt 0.864974 0.988834
vt 0.892057 0.990994
vt 0.898307 0.984514
vt 0.864974 0.988834
vt 0.904557 0.990994
vt 0.871224 0.982354
vt 0.898307 0.984514
vt 0.904557 0.984514
vt 0.871224 0.982354
vt 0.898307 0.990994
vt 0.886849 0.984514
vt 0.873307 0.990994
vt 0.949219 0.994141
vt 0.949219 1.000000
vt 0.886849 0.990994
vt 0.873307 0.990994
vt 0.949219 0.994141
vt 0.873307 0.984514
vt 0.886849 0.984514
vt 0.949219 1.000000
vt 0.873307 0.984514
vt 0.886849 0.990994
vt 0.949219 0.994141
vt 0.949219 1.000000
vt 1.000000 0.994141
vt 1.000000 0.988281
vt 0.886849 0.997474
vt 0.873307 0.990994
vt 1.000000 1.000000
vt 1.000000 0.988281
vt 0.886849 0.978034
vt 0.873307 0.990994
vt 1.000000 0.988281
vt 1.000000 0.994141
vt 0.873307 0.984514
vt 0.886848 0.978034
vt 1.000000 1.000000
vt 1.000000 0.988281
vt 0.886849 0.978034
vt 0.873307 0.990994
vt 1.000000 1.000000
vt 1.000000 0.994141
vt 0.886849 0.984514
vt 0.873307 0.990994
vt 1.000000 0.988281
vt 1.000000 0.994141
vt 0.873307 0.984514
vt 0.886848 0.978035
vt 1.000000 0.994141
vt 0.886849 0.990994
vt 0.873307 0.990994
vt 1.000000 0.994141
vt 1.000000 0.988281
vt 0.886849 0.997474
vt 0.873307 0.990994
vt 1.000000 0.994141
vt 1.000000 1.000000
vt 0.873307 0.984514
vt 0.886849 0.990994
vt 1.000000 0.988281
vt 1.000000 1.000000
vt 0.873307 0.984514
vt 0.886849 0.997474
vt 0.948308 0.984515
vt 0.860807 0.936995
vt 0.948308 0.978034
vt 0.860807 0.936995
vt 0.948307 0.984514
vt 0.869141 0.936995
vt 0.948307 0.978034
vt 0.869141 0.936995
vt 0.906641 0.984514
vt 0.860807 0.980194
vt 0.860807 0.980194
vt 0.906640 0.978034
vt 0.906641 0.984514
vt 0.869141 0.980194
vt 0.869141 0.980194
vt 0.906641 0.978034
vt 0.892057 0.990994
vt 0.898307 0.984514
vt 0.864974 0.988834
vt 0.892057 0.997474
vt 0.898307 0.978034
vt 0.864974 0.988834
vt 0.904557 0.984514
vt 0.871224 0.982354
vt 0.898307 0.990994
vt 0.904557 0.978034
vt 0.871224 0.982354
vt 0.898307 0.997474
vt 1.000000 0.994141
vt 0.886849 0.990994
vt 0.873307 0.990994
vt 1.000000 0.994141
vt 1.000000 1.000000
vt 0.873307 0.984514
vt 0.886849 0.990994
vt 1.000000 0.988281
vt 1.000000 1.000000
vt 0.873307 0.984514
vt 0.886849 0.997474
vt 0.948308 0.997474
vt 0.860807 0.936995
vt 0.948308 0.990994
vt 0.860807 0.936994
vt 0.948308 0.997474
vt 0.869141 0.936995
vt 0.948308 0.990994
vt 0.869141 0.936995
vt 0.906641 0.997475
vt 0.860807 0.980194
vt 0.860807 0.980194
vt 0.906641 0.990994
vt 0.906641 0.997474
vt 0.869141 0.980194
vt 0.869141 0.980194
vt 0.906641 0.990994
vt 0.892057 0.978035
vt 0.898307 0.997475
vt 0.864974 0.988834
vt 0.892057 0.984514
vt 0.898307 0.990994
vt 0.864974 0.988834
vt 0.904557 0.997474
vt 0.871224 0.982354
vt 0.898306 0.978035
vt 0.904557 0.990994
vt 0.871224 0.982354
vt 0.898307 0.984514
vt 1.000000 1.000000
vt 1.000000 0.994141
vt 0.886849 0.984514
vt 0.873307 0.990994
vt 1.000000 0.994141
vt 0.873307 0.984514
vt 0.886847 0.984514
vt 0.948307 0.997474
vt 0.860807 0.936994
vt 0.948307 0.990994
vt 0.860807 0.936994
vt 0.948308 0.997474
vt 0.869141 0.936994
vt 0.948308 0.990994
vt 0.869141 0.936994
vt 0.906641 0.997475
vt 0.860807 0.980194
vt 0.860807 0.980194
vt 0.906641 0.990994
vt 0.906641 0.997474
vt 0.869141 0.980194
vt 0.869141 0.980194
vt 0.906641 0.990994
vt 0.892057 0.978034
vt 0.898307 0.997475
vt 0.864974 0.988834
vt 0.892057 0.984514
vt 0.898307 0.990994
vt 0.864974 0.988834
vt 0.904557 0.997474
vt 0.871224 0.982354
vt 0.898306 0.978035
vt 0.904557 0.990994
vt 0.871224 0.982354
vt 0.898307 0.984514
vt 1.000000 0.994141
vt 0.873307 0.984514
vt 0.886847 0.984514
vt 0.948308 0.984515
vt 0.860807 0.936995
vt 0.948308 0.978035
vt 0.860807 0.936994
vt 0.948307 0.984514
vt 0.869141 0.936995
vt 0.948308 0.978034
vt 0.869141 0.936994
vt 0.906641 0.984514
vt 0.860807 0.980194
vt 0.860807 0.980194
vt 0.906641 0.978035
vt 0.906641 0.984514
vt 0.869141 0.980194
vt 0.869141 0.980194
vt 0.906641 0.978035
vt 0.892057 0.990994
vt 0.898307 0.984514
vt 0.864974 0.988834
vt 0.892057 0.997474
vt 0.898307 0.978034
vt 0.864974 0.988834
vt 0.904557 0.984514
vt 0.871224 0.982354
vt 0.898307 0.990994
vt 0.904557 0.978034
vt 0.871224 0.982354
vt 0.898307 0.997474
vt 0.948307 0.984515
vt 0.860808 0.936995
vt 0.948307 0.978034
vt 0.860807 0.936994
vt 0.948307 0.984515
vt 0.869141 0.936995
vt 0.948307 0.978035
vt 0.869140 0.936994
vt 0.906641 0.984514
vt 0.860807 0.980194
vt 0.860807 0.980194
vt 0.906641 0.978035
vt 0.906641 0.984514
vt 0.869141 0.980194
vt 0.869141 0.980194
vt 0.906641 0.978034
vt 0.892057 0.990994
vt 0.898307 0.984514
vt 0.864974 0.988834
vt 0.892057 0.997474
vt 0.898307 0.978035
vt 0.864974 0.988834
vt 0.904557 0.984514
vt 0.871224 0.982354
vt 0.898307 0.990994
vt 0.904557 0.978034
vt 0.871224 0.982354
vt 0.898307 0.997474
vt 0.948308 0.997475
vt 0.860808 0.936995
vt 0.948308 0.990995
vt 0.860807 0.936994
vt 0.948307 0.997474
vt 0.869141 0.936995
vt 0.948307 0.990994
vt 0.869141 0.936994
vt 0.906641 0.997474
vt 0.860807 0.980194
vt 0.860807 0.980194
vt 0.906641 0.990994
vt 0.906641 0.997474
vt 0.869141 0.980194
vt 0.869141 0.980194
vt 0.906641 0.990994
vt 0.892057 0.978035
vt 0.898307 0.997474
vt 0.864974 0.988834
vt 0.892057 0.984514
vt 0.898307 0.990994
vt 0.864974 0.988834
vt 0.904557 0.997474
vt 0.871224 0.982354
vt 0.898307 0.978034
vt 0.904557 0.990994
vt 0.871224 0.982354
vt 0.898307 0.984514
vt 0.948308 0.997475
vt 0.860807 0.936995
vt 0.948308 0.990995
vt 0.860807 0.936995
vt 0.948307 0.997474
vt 0.869141 0.936995
vt 0.948307 0.990994
vt 0.869141 0.936995
vt 0.906641 0.997474
vt 0.860807 0.980194
vt 0.860807 0.980194
vt 0.906641 0.990994
vt 0.906640 0.997474
vt 0.869141 0.980194
vt 0.869141 0.980194
vt 0.906641 0.990994
vt 0.892057 0.978035
vt 0.898307 0.997474
vt 0.864974 0.988834
vt 0.892057 0.984514
vt 0.898307 0.990994
vt 0.864974 0.988834
vt 0.904557 0.997474
vt 0.871224 0.982354
vt 0.898307 0.978034
vt 0.904557 0.990994
vt 0.871224 0.982354
vt 0.898307 0.984514
vt 0.948308 0.984515
vt 0.860808 0.936995
vt 0.948308 0.978035
vt 0.860807 0.936995
vt 0.948308 0.984514
vt 0.869141 0.936995
vt 0.948308 0.978034
vt 0.869141 0.936995
vt 0.906641 0.984514
vt 0.860807 0.980194
vt 0.860807 0.980194
vt 0.906641 0.978034
vt 0.906641 0.984514
vt 0.869141 0.980194
vt 0.869141 0.980194
vt 0.906641 0.978034
vt 0.892057 0.990994
vt 0.898307 0.984514
vt 0.864974 0.988834
vt 0.892057 0.997474
vt 0.898307 0.978034
vt 0.864974 0.988834
vt 0.904557 0.984514
vt 0.871224 0.982354
vt 0.898307 0.990994
vt 0.904557 0.978035
vt 0.871224 0.982354
vt 0.898307 0.997474
vt 0.450919 0.220703
vt 0.453549 0.220703
vt 0.448705 0.215357
vt 0.453549 0.215357
vt 0.453549 0.226049
vt 0.448705 0.226049
vt 0.453549 0.226049
vt 0.443359 0.213143
vt 0.453549 0.220703
vt 0.438014 0.215357
vt 0.453549 0.215357
vt 0.435799 0.220703
vt 0.453549 0.220703
vt 0.443359 0.228263
vt 0.453549 0.220703
vt 0.438014 0.226049
vt 0.453549 0.215357
vt 0.453549 0.226049
vt 0.456573 0.220703
vt 0.456573 0.215357
vt 0.456573 0.226049
vt 0.456573 0.226049
vt 0.456573 0.220703
vt 0.456573 0.215357
vt 0.456573 0.220703
vt 0.456573 0.220703
vt 0.456573 0.215357
vt 0.456573 0.226049
vt 0.450919 0.220703
vt 0.453549 0.220703
vt 0.448705 0.215357
vt 0.453549 0.215357
vt 0.453549 0.226049
vt 0.448705 0.226049
vt 0.453549 0.226049
vt 0.443359 0.213143
vt 0.453549 0.220703
vt 0.438014 0.215357
vt 0.453549 0.215357
vt 0.435799 0.220703
vt 0.453549 0.220703
vt 0.443359 0.228263
vt 0.453549 0.220703
vt 0.438014 0.226049
vt 0.453549 0.215357
vt 0.453549 0.226049
vt 0.456573 0.220703
vt 0.456573 0.215357
vt 0.456573 0.226049
vt 0.456573 0.226049
vt 0.456573 0.220703
vt 0.456573 0.215357
vt 0.456573 0.220703
vt 0.456573 0.220703
vt 0.456573 0.215357
vt 0.456573 0.226049
vt 0.450919 0.220703
vt 0.453549 0.220703
vt 0.448705 0.215357
vt 0.453549 0.215357
vt 0.453549 0.226049
vt 0.448705 0.226049
vt 0.453549 0.226049
vt 0.443359 0.213143
vt 0.453549 0.220703
vt 0.438014 0.215357
vt 0.453549 0.215357
vt 0.435799 0.220703
vt 0.453549 0.220703
vt 0.443359 0.228263
vt 0.453549 0.220703
vt 0.438014 0.226049
vt 0.453549 0.215357
vt 0.453549 0.226049
vt 0.456573 0.220703
vt 0.456573 0.215357
vt 0.456573 0.226049
vt 0.456573 0.226049
vt 0.456573 0.220703
vt 0.456573 0.215357
vt 0.456573 0.220703
vt 0.456573 0.220703
vt 0.456573 0.215357
vt 0.456573 0.226049
vt 0.450919 0.220703
vt 0.453549 0.220703
vt 0.448705 0.215357
vt 0.453549 0.215357
vt 0.453549 0.226049
vt 0.448705 0.226049
vt 0.453549 0.226049
vt 0.443359 0.213143
vt 0.453549 0.220703
vt 0.438014 0.215357
vt 0.453549 0.215357
vt 0.435799 0.220703
vt 0.453549 0.220703
vt 0.443359 0.228263
vt 0.453549 0.220703
vt 0.438014 0.226049
vt 0.453549 0.215357
vt 0.453549 0.226049
vt 0.456573 0.220703
vt 0.456573 0.215357
vt 0.456573 0.226049
vt 0.456573 0.226049
vt 0.456573 0.220703
vt 0.456573 0.215357
vt 0.456573 0.220703
vt 0.456573 0.220703
vt 0.456573 0.215357
vt 0.456573 0.226049
s 0
usemtl electronics_etx_part_1
f 5/13/1 12/33/1 19/54/1 20/57/1
f 12/34/2 7/18/2 18/51/2 19/55/2
f 7/19/3 6/15/3 17/48/3 18/52/3
f 17/49/4 6/16/4 5/14/4 20/58/4
f 14/39/5 15/42/5 11/30/5 9/24/5
f 8/21/6 9/25/6 6/17/6 7/20/6
f 11/31/6 10/27/6 12/35/6 5/14/6
f 10/27/6 8/21/6 7/20/6 12/35/6
f 9/25/6 11/31/6 5/14/6 6/17/6
f 16/45/6 15/43/6 14/40/6 13/36/6
f 15/44/7 16/46/7 10/28/7 11/32/7
f 16/47/8 13/37/8 8/22/8 10/29/8
f 13/38/9 14/41/9 9/26/9 8/23/9
f 2/4/10 4/10/10 24/69/10 21/60/10
f 2/5/11 1/1/11 18/53/11 17/50/11
f 1/1/11 3/7/11 19/56/11 18/53/11
f 4/11/11 2/5/11 17/50/11 20/59/11
f 3/7/11 4/11/11 20/59/11 19/56/11
f 22/63/11 21/61/11 24/70/11 23/66/11
f 1/2/12 2/6/12 21/62/12 22/64/12
f 4/12/13 3/8/13 23/67/13 24/71/13
f 3/9/14 1/3/14 22/65/14 23/68/14
f 25/72/4 31/90/4 32/93/4 26/74/4
f 29/82/2 27/76/2 28/79/2 30/85/2
f 33/95/6 25/72/6 26/74/6 34/97/6
f 31/89/1 33/94/1 27/77/1 29/84/1
f 32/92/3 34/96/3 26/75/3
f 30/87/3 28/80/3 34/96/3 32/91/3
f 31/88/1 25/73/1 33/94/1
f 27/78/15 33/95/15 34/97/15 28/81/15
f 35/98/4 41/116/4 42/118/4 36/100/4
f 39/108/2 37/102/2 38/105/2 40/111/2
f 43/121/6 35/98/6 36/100/6 44/123/6
f 41/115/1 43/120/1 37/103/1 39/110/1
f 42/119/3 44/122/3 36/101/3
f 40/113/3 38/106/3 44/122/3 42/117/3
f 41/114/1 35/99/1 43/120/1
f 37/104/15 43/121/15 44/123/15 38/107/15
f 45/124/2 46/126/2 52/143/2 51/140/2
f 49/134/4 50/137/4 48/131/4 47/128/4
f 53/147/6 54/149/6 46/126/6 45/124/6
f 51/141/1 49/136/1 47/129/1 53/146/1
f 52/145/3 46/127/3 54/148/3
f 50/139/3 52/144/3 54/148/3 48/132/3
f 51/142/1 53/146/1 45/125/1
f 47/130/16 48/133/16 54/149/16 53/147/16
f 55/150/2 56/152/2 62/171/2 61/168/2
f 59/160/4 60/163/4 58/157/4 57/154/4
f 63/173/6 64/175/6 56/152/6 55/150/6
f 61/166/1 59/162/1 57/155/1 63/172/1
f 62/170/3 56/153/3 64/174/3
f 60/165/3 62/169/3 64/174/3 58/158/3
f 61/167/1 63/172/1 55/151/1
f 57/156/16 58/159/16 64/175/16 63/173/16
f 41/114/1 66/178/1 102/287/1 99/278/1
f 40/112/2 67/180/2 68/183/2 39/109/2
f 69/186/11 65/176/11 66/179/11 70/190/11
f 42/117/3 69/187/3 67/181/3 40/113/3
f 41/114/1 70/191/1 66/178/1
f 39/110/1 68/184/1 70/192/1 41/115/1
f 42/119/3 65/177/3 69/188/3
f 67/182/17 69/189/17 70/193/17 68/185/17
f 31/88/1 72/196/1 104/293/1 97/272/1
f 30/86/2 73/198/2 74/201/2 29/83/2
f 75/204/11 71/194/11 72/197/11 76/208/11
f 32/91/3 75/205/3 73/199/3 30/87/3
f 31/88/1 76/209/1 72/196/1
f 29/84/1 74/202/1 76/210/1 31/89/1
f 32/92/3 71/195/3 75/206/3
f 73/200/17 75/207/17 76/211/17 74/203/17
f 51/140/6 52/143/6 90/251/6 89/248/6
f 60/164/4 59/161/4 80/219/4 79/216/4
f 81/222/11 82/226/11 78/214/11 77/213/11
f 62/169/3 60/165/3 79/217/3 81/223/3
f 61/167/1 78/215/1 82/227/1
f 59/162/1 61/166/1 82/228/1 80/220/1
f 62/170/3 81/224/3 77/212/3
f 79/218/18 80/221/18 82/229/18 81/225/18
f 52/145/3 83/230/3 95/266/3 90/252/3
f 50/138/4 49/135/4 86/237/4 85/234/4
f 87/240/11 88/244/11 84/233/11 83/231/11
f 52/144/3 50/139/3 85/235/3 87/241/3
f 51/142/1 84/232/1 88/245/1
f 49/136/1 51/141/1 88/246/1 86/238/1
f 52/145/3 87/242/3 83/230/3
f 85/236/18 86/239/18 88/247/18 87/243/18
f 93/260/2 94/263/2 91/254/2 92/257/2
f 95/267/2 96/269/2 89/249/2 90/253/2
f 62/170/3 77/212/3 93/261/3 92/258/3
f 84/232/1 51/142/1 89/250/1 96/270/1
f 77/213/11 78/214/11 94/264/11 93/262/11
f 78/215/1 61/167/1 91/255/1 94/265/1
f 61/168/6 62/171/6 92/259/6 91/256/6
f 83/231/11 84/233/11 96/271/11 95/268/11
f 101/284/4 100/281/4 99/279/4 102/288/4
f 103/290/4 98/275/4 97/273/4 104/294/4
f 66/179/11 65/176/11 101/285/11 102/289/11
f 42/118/6 41/116/6 99/280/6 100/282/6
f 72/197/11 71/194/11 103/291/11 104/295/11
f 71/195/3 32/92/3 98/276/3 103/292/3
f 32/93/6 31/90/6 97/274/6 98/277/6
f 65/177/3 42/119/3 100/283/3 101/286/3
f 107/300/11 108/302/11 112/311/11 111/308/11
f 112/310/4 110/306/4 114/317/4 116/322/4
f 109/304/6 110/307/6 106/298/6 105/296/6
f 107/301/2 111/309/2 109/305/2 105/297/2
f 112/310/4 108/303/4 106/299/4 110/306/4
f 114/315/19 113/312/19 117/324/19 118/328/19
f 111/308/20 112/311/20 116/321/20 115/318/20
f 110/307/21 109/304/21 113/313/21 114/316/21
f 109/305/2 111/309/2 115/319/2 113/314/2
f 113/314/2 115/319/2 119/331/2 117/325/2
f 116/322/4 114/317/4 118/329/4 120/334/4
f 115/320/22 116/323/22 120/335/22 119/332/22
f 123/342/11 124/344/11 128/353/11 127/350/11
f 128/352/4 126/348/4 130/359/4 132/364/4
f 125/346/6 126/349/6 122/340/6 121/338/6
f 123/343/2 127/351/2 125/347/2 121/339/2
f 128/352/4 124/345/4 122/341/4 126/348/4
f 130/357/19 129/354/19 133/366/19 134/370/19
f 127/350/20 128/353/20 132/363/20 131/360/20
f 126/349/21 125/346/21 129/355/21 130/358/21
f 125/347/2 127/351/2 131/361/2 129/356/2
f 129/356/2 131/361/2 135/373/2 133/367/2
f 132/364/4 130/359/4 134/371/4 136/376/4
f 131/362/22 132/365/22 136/377/22 135/374/22
f 139/384/11 140/386/11 144/395/11 143/392/11
f 144/394/4 142/390/4 146/401/4 148/406/4
f 141/388/6 142/391/6 138/382/6 137/380/6
f 139/385/2 143/393/2 141/389/2 137/381/2
f 144/394/4 140/387/4 138/383/4 142/390/4
f 146/399/19 145/396/19 149/408/19 150/412/19
f 143/392/20 144/395/20 148/405/20 147/402/20
f 142/391/21 141/388/21 145/397/21 146/400/21
f 141/389/2 143/393/2 147/403/2 145/398/2
f 145/398/2 147/403/2 151/415/2 149/409/2
f 148/406/4 146/401/4 150/413/4 152/418/4
f 147/404/22 148/407/22 152/419/22 151/416/22
f 155/426/11 156/428/11 160/437/11 159/434/11
f 160/436/4 158/432/4 162/443/4 164/448/4
f 157/430/6 158/433/6 154/424/6 153/422/6
f 155/427/2 159/435/2 157/431/2 153/423/2
f 160/436/4 156/429/4 154/425/4 158/432/4
f 162/441/19 161/438/19 165/450/19 166/454/19
f 159/434/20 160/437/20 164/447/20 163/444/20
f 158/433/21 157/430/21 161/439/21 162/442/21
f 157/431/2 159/435/2 163/445/2 161/440/2
f 161/440/2 163/445/2 167/457/2 165/451/2
f 164/448/4 162/443/4 166/455/4 168/460/4
f 163/446/22 164/449/22 168/461/22 167/458/22
f 167/459/3 168/462/3 184/520/3 183/516/3
f 135/375/3 136/378/3 176/491/3 175/487/3
f 165/452/23 167/459/23 183/517/23 181/509/23
f 133/368/24 135/375/24 175/488/24 173/479/24
f 168/463/25 166/456/25 182/512/25 184/521/25
f 119/333/3 120/336/3 172/475/3 171/471/3
f 136/379/26 134/372/26 174/483/26 176/491/26
f 166/456/1 165/453/1 181/509/1 182/513/1
f 151/417/3 152/420/3 180/506/3 179/502/3
f 117/326/23 119/333/23 171/472/23 169/464/23
f 134/372/1 133/369/1 173/480/1 174/484/1
f 149/410/24 151/417/24 179/503/24 177/494/24
f 120/337/25 118/330/25 170/467/25 172/476/25
f 118/330/1 117/327/1 169/464/1 170/468/1
f 152/421/26 150/414/26 178/498/26 180/506/26
f 150/414/1 149/411/1 177/495/1 178/499/1
f 187/528/11 191/536/11 192/539/11 188/530/11
f 192/538/4 196/550/4 194/545/4 190/534/4
f 189/532/6 185/524/6 186/526/6 190/535/6
f 187/529/2 185/525/2 189/533/2 191/537/2
f 192/538/4 190/534/4 186/527/4 188/531/4
f 194/543/27 198/556/27 197/552/27 193/540/27
f 191/536/28 195/546/28 196/549/28 192/539/28
f 190/535/29 194/544/29 193/541/29 189/532/29
f 189/533/2 193/542/2 195/547/2 191/537/2
f 193/542/2 197/553/2 199/559/2 195/547/2
f 196/550/4 200/562/4 198/557/4 194/545/4
f 195/548/30 199/560/30 200/563/30 196/551/30
f 203/570/11 207/578/11 208/581/11 204/572/11
f 208/580/4 212/592/4 210/587/4 206/576/4
f 205/574/6 201/566/6 202/568/6 206/577/6
f 203/571/2 201/567/2 205/575/2 207/579/2
f 208/580/4 206/576/4 202/569/4 204/573/4
f 210/585/27 214/598/27 213/594/27 209/582/27
f 207/578/28 211/588/28 212/591/28 208/581/28
f 206/577/29 210/586/29 209/583/29 205/574/29
f 205/575/2 209/584/2 211/589/2 207/579/2
f 209/584/2 213/595/2 215/601/2 211/589/2
f 212/592/4 216/604/4 214/599/4 210/587/4
f 211/590/30 215/602/30 216/605/30 212/593/30
f 219/612/11 223/620/11 224/623/11 220/614/11
f 224/622/4 228/634/4 226/629/4 222/618/4
f 221/616/6 217/608/6 218/610/6 222/619/6
f 219/613/2 217/609/2 221/617/2 223/621/2
f 224/622/4 222/618/4 218/611/4 220/615/4
f 226/627/27 230/640/27 229/636/27 225/624/27
f 223/620/28 227/630/28 228/633/28 224/623/28
f 222/619/29 226/628/29 225/625/29 221/616/29
f 221/617/2 225/626/2 227/631/2 223/621/2
f 225/626/2 229/637/2 231/643/2 227/631/2
f 228/634/4 232/646/4 230/641/4 226/629/4
f 227/632/30 231/644/30 232/647/30 228/635/30
f 235/654/11 239/662/11 240/665/11 236/656/11
f 240/664/4 244/676/4 242/671/4 238/660/4
f 237/658/6 233/650/6 234/652/6 238/661/6
f 235/655/2 233/651/2 237/659/2 239/663/2
f 240/664/4 238/660/4 234/653/4 236/657/4
f 242/669/27 246/682/27 245/678/27 241/666/27
f 239/662/28 243/672/28 244/675/28 240/665/28
f 238/661/29 242/670/29 241/667/29 237/658/29
f 237/659/2 241/668/2 243/673/2 239/663/2
f 241/668/2 245/679/2 247/685/2 243/673/2
f 244/676/4 248/688/4 246/683/4 242/671/4
f 243/674/30 247/686/30 248/689/30 244/677/30
f 247/687/1 257/723/1 258/727/1 248/690/1
f 215/603/1 251/700/1 287/802/1 216/606/1
f 245/680/23 255/716/23 257/724/23 247/687/23
f 213/596/24 250/696/24 251/701/24 215/603/24
f 248/691/25 258/728/25 256/719/25 246/684/25
f 199/561/1 272/762/1 273/766/1 200/564/1
f 216/607/26 287/802/26 286/798/26 214/600/26
f 246/684/3 256/720/3 255/716/3 245/681/3
f 231/645/1 254/712/1 300/833/1 232/648/1
f 197/554/23 271/759/23 272/763/23 199/561/23
f 214/600/3 286/799/3 250/697/3 213/597/3
f 229/638/24 252/704/24 254/713/24 231/645/24
f 200/565/25 273/767/25 249/692/25 198/558/25
f 198/558/3 249/693/3 271/759/3 197/555/3
f 232/649/26 300/833/26 253/708/26 230/642/26
f 230/642/3 253/709/3 252/705/3 229/639/3
f 261/735/6 262/737/6 266/746/6 265/743/6
f 266/745/4 264/741/4 268/752/4 270/757/4
f 263/739/11 264/742/11 260/733/11 259/731/11
f 261/736/2 265/744/2 263/740/2 259/732/2
f 266/745/4 262/738/4 260/734/4 264/741/4
f 268/750/31 267/747/31 271/760/31 249/694/31
f 265/743/21 266/746/21 270/756/21 269/753/21
f 264/742/20 263/739/20 267/748/20 268/751/20
f 263/740/2 265/744/2 269/754/2 267/749/2
f 267/749/2 269/754/2 272/764/2 271/761/2
f 270/757/4 268/752/4 249/695/4 273/768/4
f 269/755/32 270/758/32 273/769/32 272/765/32
f 276/774/6 277/776/6 281/785/6 280/782/6
f 281/784/4 279/780/4 283/791/4 285/796/4
f 278/778/11 279/781/11 275/772/11 274/770/11
f 276/775/2 280/783/2 278/779/2 274/771/2
f 281/784/4 277/777/4 275/773/4 279/780/4
f 283/789/31 282/786/31 250/698/31 286/800/31
f 280/782/21 281/785/21 285/795/21 284/792/21
f 279/781/20 278/778/20 282/787/20 283/790/20
f 278/779/2 280/783/2 284/793/2 282/788/2
f 282/788/2 284/793/2 251/702/2 250/699/2
f 285/796/4 283/791/4 286/801/4 287/803/4
f 284/794/32 285/797/32 287/804/32 251/703/32
f 290/809/6 291/811/6 295/820/6 294/817/6
f 295/819/4 293/815/4 297/826/4 299/831/4
f 292/813/11 293/816/11 289/807/11 288/805/11
f 290/810/2 294/818/2 292/814/2 288/806/2
f 295/819/4 291/812/4 289/808/4 293/815/4
f 297/824/31 296/821/31 252/706/31 253/710/31
f 294/817/21 295/820/21 299/830/21 298/827/21
f 293/816/20 292/813/20 296/822/20 297/825/20
f 292/814/2 294/818/2 298/828/2 296/823/2
f 296/823/2 298/828/2 254/714/2 252/707/2
f 299/831/4 297/826/4 253/711/4 300/834/4
f 298/829/32 299/832/32 300/835/32 254/715/32
f 303/840/6 304/842/6 308/851/6 307/848/6
f 308/850/4 306/846/4 310/857/4 312/862/4
f 305/844/11 306/847/11 302/838/11 301/836/11
f 303/841/2 307/849/2 305/845/2 301/837/2
f 308/850/4 304/843/4 302/839/4 306/846/4
f 310/855/31 309/852/31 255/717/31 256/721/31
f 307/848/21 308/851/21 312/861/21 311/858/21
f 306/847/20 305/844/20 309/853/20 310/856/20
f 305/845/2 307/849/2 311/859/2 309/854/2
f 309/854/2 311/859/2 257/725/2 255/718/2
f 312/862/4 310/857/4 256/722/4 258/729/4
f 311/860/32 312/863/32 258/730/32 257/726/32
f 315/868/6 319/876/6 320/879/6 316/870/6
f 320/878/4 324/890/4 322/885/4 318/874/4
f 317/872/11 313/864/11 314/866/11 318/875/11
f 315/869/2 313/865/2 317/873/2 319/877/2
f 320/878/4 318/874/4 314/867/4 316/871/4
f 322/883/33 170/469/33 169/465/33 321/880/33
f 319/876/29 323/886/29 324/889/29 320/879/29
f 318/875/28 322/884/28 321/881/28 317/872/28
f 317/873/2 321/882/2 323/887/2 319/877/2
f 321/882/2 169/466/2 171/473/2 323/887/2
f 324/890/4 172/477/4 170/470/4 322/885/4
f 323/888/34 171/474/34 172/478/34 324/891/34
f 327/896/6 331/904/6 332/907/6 328/898/6
f 332/906/4 336/918/4 334/913/4 330/902/4
f 329/900/11 325/892/11 326/894/11 330/903/11
f 327/897/2 325/893/2 329/901/2 331/905/2
f 332/906/4 330/902/4 326/895/4 328/899/4
f 334/911/33 174/485/33 173/481/33 333/908/33
f 331/904/29 335/914/29 336/917/29 332/907/29
f 330/903/28 334/912/28 333/909/28 329/900/28
f 329/901/2 333/910/2 335/915/2 331/905/2
f 333/910/2 173/482/2 175/489/2 335/915/2
f 336/918/4 176/492/4 174/486/4 334/913/4
f 335/916/34 175/490/34 176/493/34 336/919/34
f 339/924/6 343/932/6 344/935/6 340/926/6
f 344/934/4 348/946/4 346/941/4 342/930/4
f 341/928/11 337/920/11 338/922/11 342/931/11
f 339/925/2 337/921/2 341/929/2 343/933/2
f 344/934/4 342/930/4 338/923/4 340/927/4
f 346/939/33 178/500/33 177/496/33 345/936/33
f 343/932/29 347/942/29 348/945/29 344/935/29
f 342/931/28 346/940/28 345/937/28 341/928/28
f 341/929/2 345/938/2 347/943/2 343/933/2
f 345/938/2 177/497/2 179/504/2 347/943/2
f 348/946/4 180/507/4 178/501/4 346/941/4
f 347/944/34 179/505/34 180/508/34 348/947/34
f 351/952/6 355/960/6 356/963/6 352/954/6
f 356/962/4 360/974/4 358/969/4 354/958/4
f 353/956/11 349/948/11 350/950/11 354/959/11
f 351/953/2 349/949/2 353/957/2 355/961/2
f 356/962/4 354/958/4 350/951/4 352/955/4
f 358/967/33 182/514/33 181/510/33 357/964/33
f 355/960/29 359/970/29 360/973/29 356/963/29
f 354/959/28 358/968/28 357/965/28 353/956/28
f 353/957/2 357/966/2 359/971/2 355/961/2
f 357/966/2 181/511/2 183/518/2 359/971/2
f 360/974/4 184/522/4 182/515/4 358/969/4
f 359/972/34 183/519/34 184/523/34 360/975/34
s 1
f 367/989/35 363/981/36 361/976/37 362/978/38 364/983/39 365/985/40 366/987/41 368/991/42
f 374/1000/43 367/990/35 368/992/42 376/1002/1
f 376/1003/1 368/993/42 366/988/41 375/1001/44
f 367/990/35 374/1000/43 371/997/4 363/982/36
f 363/982/36 371/997/4 369/994/45 361/977/37
f 375/1001/44 366/988/41 365/986/40 373/999/2
f 373/999/2 365/986/40 364/984/39 372/998/46
f 361/977/37 369/994/45 370/995/3 362/979/38
f 362/980/38 370/996/3 372/998/46 364/984/39
f 383/1017/35 379/1009/36 377/1004/37 378/1006/38 380/1011/39 381/1013/40 382/1015/41 384/1019/42
f 390/1028/43 383/1018/35 384/1020/42 392/1030/1
f 392/1031/1 384/1021/42 382/1016/41 391/1029/44
f 383/1018/35 390/1028/43 387/1025/47 379/1010/36
f 379/1010/36 387/1025/47 385/1022/45 377/1005/37
f 391/1029/44 382/1016/41 381/1014/40 389/1027/2
f 389/1027/2 381/1014/40 380/1012/39 388/1026/46
f 377/1005/37 385/1022/45 386/1023/3 378/1007/38
f 378/1008/38 386/1024/3 388/1026/46 380/1012/39
f 399/1045/35 395/1037/36 393/1032/37 394/1034/38 396/1039/39 397/1041/40 398/1043/41 400/1047/42
f 406/1056/43 399/1046/35 400/1048/42 408/1058/1
f 408/1059/1 400/1049/42 398/1044/41 407/1057/44
f 399/1046/35 406/1056/43 403/1053/47 395/1038/36
f 395/1038/36 403/1053/47 401/1050/45 393/1033/37
f 407/1057/44 398/1044/41 397/1042/40 405/1055/48
f 405/1055/48 397/1042/40 396/1040/39 404/1054/46
f 393/1033/37 401/1050/45 402/1051/3 394/1035/38
f 394/1036/38 402/1052/3 404/1054/46 396/1040/39
f 415/1073/35 411/1065/36 409/1060/37 410/1062/38 412/1067/39 413/1069/40 414/1071/41 416/1075/42
f 422/1084/43 415/1074/35 416/1076/42 424/1086/1
f 424/1087/1 416/1077/42 414/1072/41 423/1085/44
f 415/1074/35 422/1084/43 419/1081/4 411/1066/36
f 411/1066/36 419/1081/4 417/1078/45 409/1061/37
f 423/1085/44 414/1072/41 413/1070/40 421/1083/2
f 421/1083/2 413/1070/40 412/1068/39 420/1082/46
f 409/1061/37 417/1078/45 418/1079/3 410/1063/38
f 410/1064/38 418/1080/3 420/1082/46 412/1068/39
o screen_etx_1_stand
v -0.140000 -0.244000 0.114000
v -0.140000 -0.224000 0.114000
v -0.140000 -0.244000 -0.116000
v -0.140000 -0.224000 -0.116000
v 0.140000 -0.244000 0.114000
v 0.140000 -0.224000 0.114000
v 0.140000 -0.244000 -0.116000
v 0.140000 -0.224000 -0.116000
v -0.050000 -0.164000 0.014000
v -0.050000 -0.164000 -0.046000
v 0.050000 -0.164000 0.014000
v 0.050000 -0.164000 -0.046000
vn -1.0000 -0.0000 -0.0000
vn -0.0000 -0.0000 -1.0000
vn 1.0000 -0.0000 -0.0000
vn -0.0000 -0.0000 1.0000
vn -0.0000 -1.0000 -0.0000
vn -0.5547 0.8321 -0.0000
vn -0.0000 1.0000 -0.0000
vn -0.0000 0.8575 0.5145
vn -0.0000 0.7593 -0.6508
vn 0.5547 0.8321 -0.0000
vt 0.216797 0.425781
vt 0.207031 0.425781
vt 0.357422 0.556641
vt 0.216797 0.437500
vt 0.207031 0.437500
vt 0.109375 0.492188
vt 0.199219 0.439453
vt 0.345703 0.425781
vt 0.207031 0.425781
vt 0.357422 0.687500
vt 0.345703 0.437500
vt 0.207031 0.437500
vt 0.240234 0.492188
vt 0.199219 0.439453
vt 0.216797 0.425781
vt 0.355469 0.425781
vt 0.517578 0.556641
vt 0.216797 0.437500
vt 0.355469 0.437500
vt 0.359375 0.439453
vt 0.109375 0.492188
vt 0.355469 0.425781
vt 0.345703 0.425781
vt 0.517578 0.687500
vt 0.355469 0.437500
vt 0.345703 0.437500
vt 0.359375 0.439453
vt 0.240234 0.492188
vt 0.166016 0.447266
vt 0.408203 0.613281
vt 0.250000 0.492188
vt 0.201172 0.447266
vt 0.408203 0.648438
vt 0.250000 0.492188
vt 0.466797 0.613281
vt 0.308594 0.492188
vt 0.166016 0.447266
vt 0.466797 0.648438
vt 0.308594 0.492188
vt 0.201172 0.447266
s 0
usemtl electronics_etx_part_1
f 425/1088/49 426/1091/49 428/1098/49 427/1095/49
f 427/1096/50 428/1099/50 432/1112/50 431/1109/50
f 431/1110/51 432/1113/51 430/1105/51 429/1102/51
f 429/1103/52 430/1106/52 426/1092/52 425/1089/52
f 427/1097/53 431/1111/53 429/1104/53 425/1090/53
f 428/1100/54 426/1093/54 433/1116/54 434/1119/54
f 436/1125/55 434/1120/55 433/1117/55 435/1122/55
f 426/1094/56 430/1107/56 435/1123/56 433/1118/56
f 432/1114/57 428/1101/57 434/1121/57 436/1126/57
f 430/1108/58 432/1115/58 436/1127/58 435/1124/58
o screen_etx_1_whole_round_screen
v -0.136801 -0.079992 0.116460
v -0.136801 0.115000 0.082078
v 0.136799 0.115000 0.082078
v 0.136799 -0.079992 0.116460
v -0.111684 -0.052421 0.128177
v -0.037801 0.024276 0.137676
v -0.075595 -0.014097 0.137699
v -0.111684 0.093099 0.102517
v -0.075595 0.060343 0.124573
v 0.111682 0.093099 0.102517
v 0.037799 0.024276 0.137676
v 0.075593 0.060343 0.124573
v 0.111682 -0.052421 0.128177
v 0.075593 -0.014097 0.137699
vn 0.2728 -0.1084 0.9559
vn -0.2728 -0.1084 0.9559
vn -0.2953 -0.1330 0.9461
vn 0.2953 -0.1330 0.9461
vn -0.2728 0.4288 0.8612
vn 0.2728 0.4288 0.8612
vn 0.2953 0.4486 0.8435
vn -0.2953 0.4486 0.8435
vn -0.0437 0.1735 0.9839
vn -0.1798 0.3450 0.9212
vn -0.1798 -0.0091 0.9837
vn 0.0437 0.1735 0.9839
vn 0.1798 -0.0091 0.9837
vn 0.1798 0.3450 0.9212
vt 0.232422 0.132812
vt 0.232422 0.193359
vt 0.314453 0.193359
vt 0.314453 0.132812
vt 0.239953 0.140493
vt 0.262104 0.163086
vt 0.250592 0.151344
vt 0.239953 0.185679
vt 0.250592 0.174827
vt 0.306922 0.185679
vt 0.284771 0.163086
vt 0.296283 0.174827
vt 0.306922 0.140493
vt 0.296283 0.151344
s 1
usemtl electronics_etx_part_1_screen
f 449/1140/59 441/1132/60 437/1128/61 440/1131/62
f 444/1135/63 446/1137/64 439/1130/65 438/1129/66
f 446/1137/64 449/1140/59 440/1131/62 439/1130/65
f 442/1133/67 445/1136/68 443/1134/69
f 443/1134/69 445/1136/68 444/1135/63 441/1132/60
f 447/1138/70 450/1141/71 448/1139/72
f 448/1139/72 450/1141/71 449/1140/59 446/1137/64
f 441/1132/60 449/1140/59 450/1141/71 443/1134/69
f 443/1134/69 450/1141/71 447/1138/70 442/1133/67
f 446/1137/64 444/1135/63 445/1136/68 448/1139/72
f 448/1139/72 445/1136/68 442/1133/67 447/1138/70
f 441/1132/60 444/1135/63 438/1129/66 437/1128/61
