# Blender 3.4.0
# www.blender.org
mtllib signal_receiver_etx_1.mtl
o signal_receiver_etx_1
v 0.134244 0.000000 0.044324
v 0.134244 0.000000 -0.044324
v -0.134244 0.000000 0.044324
v -0.134244 0.000000 -0.044324
v 0.134244 0.188667 0.044324
v 0.134244 0.188329 -0.044324
v -0.134244 0.188667 0.044324
v -0.134244 0.188329 -0.044324
v 0.123732 0.025378 0.044324
v 0.127311 0.036114 0.044324
v 0.112997 0.021800 0.044324
v 0.123732 0.025378 0.054583
v 0.112997 0.021800 0.054583
v 0.127311 0.036114 0.054583
v -0.029502 0.025378 0.054583
v -0.033081 0.036114 0.054583
v -0.018767 0.021800 0.054583
v -0.029502 0.025378 0.044324
v -0.018767 0.021800 0.044324
v -0.033081 0.036114 0.044324
v 0.123732 0.148708 0.044324
v 0.112997 0.152286 0.044324
v 0.127311 0.137972 0.044324
v 0.123732 0.148708 0.054583
v 0.127311 0.137972 0.054583
v 0.112997 0.152286 0.054583
v -0.029502 0.148708 0.044324
v -0.033081 0.137972 0.044324
v -0.018767 0.152286 0.044324
v -0.029502 0.148708 0.054583
v -0.018767 0.152286 0.054583
v -0.033081 0.137972 0.054583
v -0.018767 0.036114 0.054583
v 0.112997 0.036114 0.054583
v 0.112997 0.137972 0.054583
v -0.018767 0.137972 0.054583
v -0.006932 0.129834 0.054583
v 0.005749 0.129834 0.075452
v 0.024728 0.129834 0.088133
v 0.047115 0.129834 0.092586
v 0.069502 0.129834 0.088133
v 0.088481 0.129834 0.075452
v 0.101163 0.129834 0.054583
v 0.007672 0.134879 0.073529
v 0.025769 0.134879 0.085621
v 0.047115 0.134879 0.089867
v 0.068462 0.134879 0.085621
v 0.086558 0.134879 0.073529
v 0.014594 0.137972 0.066607
v 0.029515 0.137972 0.076577
v 0.047115 0.137972 0.080077
v 0.064715 0.137972 0.076577
v 0.079636 0.137972 0.066607
v -0.003725 0.134879 0.054583
v 0.097955 0.134879 0.054583
v 0.007823 0.137972 0.054583
v 0.086408 0.137972 0.054583
v -0.000560 0.129834 0.066010
v 0.002002 0.134879 0.065043
v 0.011225 0.137972 0.061565
v 0.083005 0.137972 0.061565
v 0.092228 0.134879 0.065043
v 0.094790 0.129834 0.066010
v 0.007672 0.127774 0.073529
v 0.002002 0.127774 0.065043
v 0.092228 0.127774 0.065043
v 0.086558 0.127774 0.073529
v 0.068462 0.127774 0.085620
v 0.047115 0.127774 0.089866
v 0.025769 0.127774 0.085621
v -0.000560 0.044252 0.066010
v -0.006932 0.044252 0.054583
v 0.025769 0.046312 0.085621
v 0.007672 0.046312 0.073529
v 0.047115 0.046312 0.089866
v 0.068462 0.046312 0.085620
v 0.086558 0.046312 0.073529
v 0.092228 0.046312 0.065043
v 0.005749 0.044252 0.075452
v 0.024728 0.044252 0.088133
v 0.025769 0.039207 0.085621
v 0.007672 0.039207 0.073529
v 0.047115 0.044252 0.092586
v 0.047115 0.039207 0.089867
v 0.069502 0.044252 0.088133
v 0.068462 0.039207 0.085621
v 0.088481 0.044252 0.075452
v 0.086558 0.039207 0.073529
v 0.094790 0.044252 0.066010
v 0.092228 0.039207 0.065043
v 0.029515 0.036114 0.076577
v 0.014594 0.036114 0.066607
v 0.047115 0.036114 0.080077
v 0.064715 0.036114 0.076577
v 0.079636 0.036114 0.066607
v 0.083005 0.036114 0.061565
v 0.002002 0.039207 0.065043
v -0.003725 0.039207 0.054583
v 0.011225 0.036114 0.061565
v 0.007823 0.036114 0.054583
v 0.002002 0.046312 0.065043
v 0.101163 0.044252 0.054583
v 0.097955 0.039207 0.054583
v 0.086408 0.036114 0.054583
v -0.047668 0.043125 0.044324
v -0.049311 0.049254 0.044324
v -0.053797 0.053741 0.044324
v -0.059926 0.055383 0.044324
v -0.066055 0.053741 0.044324
v -0.070541 0.049254 0.044324
v -0.072183 0.043125 0.044324
v -0.066055 0.032510 0.044324
v -0.059926 0.030868 0.044324
v -0.053797 0.032510 0.044324
v -0.070541 0.036997 0.044324
v -0.050702 0.043125 0.050864
v -0.055314 0.051113 0.050864
v -0.064538 0.051113 0.050864
v -0.069149 0.043125 0.050864
v -0.064538 0.035138 0.050864
v -0.055314 0.035138 0.050864
v -0.049311 0.036997 0.044324
v 0.148189 0.108154 0.041207
v 0.148189 0.108154 -0.052226
v 0.148189 0.201347 0.058694
v 0.148189 0.201347 -0.052226
v 0.134244 0.108154 0.041207
v 0.134244 0.108154 -0.052226
v 0.134244 0.188667 -0.052226
v 0.134244 0.188667 0.056904
v -0.148189 0.108154 0.041207
v -0.134244 0.108154 0.041207
v -0.148189 0.201347 0.058694
v -0.148189 0.108154 -0.052226
v -0.134244 0.108154 -0.052226
v -0.134244 0.188667 -0.052226
v -0.148189 0.201347 -0.052226
v -0.134244 0.188667 0.056904
v 0.148189 0.153493 -0.040233
v 0.148189 0.167738 -0.037400
v 0.148189 0.179814 -0.029331
v 0.148189 0.187883 -0.017254
v 0.148189 0.190717 -0.003009
v 0.148189 0.187883 0.011236
v 0.148189 0.179814 0.023312
v 0.148189 0.167738 0.031382
v 0.148189 0.153493 0.034215
v 0.148189 0.139248 0.031382
v 0.148189 0.127171 0.023312
v 0.148189 0.119102 0.011236
v 0.148189 0.116268 -0.003009
v 0.148189 0.119102 -0.017254
v 0.148189 0.127171 -0.029331
v 0.148189 0.139248 -0.037400
v 0.152451 0.153493 -0.040233
v 0.152451 0.167738 -0.037400
v 0.152451 0.179814 -0.029331
v 0.152451 0.187883 -0.017254
v 0.152451 0.190717 -0.003009
v 0.152451 0.187883 0.011236
v 0.152451 0.179814 0.023312
v 0.152451 0.167738 0.031382
v 0.152451 0.153493 0.034215
v 0.152451 0.139248 0.031382
v 0.152451 0.127171 0.023312
v 0.152451 0.119102 0.011236
v 0.152451 0.116268 -0.003009
v 0.152451 0.119102 -0.017254
v 0.152451 0.127171 -0.029331
v 0.152451 0.139248 -0.037400
v -0.148189 0.167738 -0.037400
v -0.148189 0.153493 -0.040233
v -0.148189 0.179814 -0.029331
v -0.148189 0.187883 -0.017254
v -0.148189 0.190717 -0.003009
v -0.148189 0.187883 0.011236
v -0.148189 0.179814 0.023312
v -0.148189 0.167738 0.031382
v -0.148189 0.153493 0.034215
v -0.148189 0.139248 0.031382
v -0.148189 0.127171 0.023312
v -0.148189 0.119102 0.011236
v -0.148189 0.116269 -0.003009
v -0.148189 0.119102 -0.017254
v -0.148189 0.127171 -0.029331
v -0.148189 0.139248 -0.037400
v -0.152451 0.167738 -0.037400
v -0.152451 0.153493 -0.040233
v -0.152451 0.179814 -0.029331
v -0.152451 0.187883 -0.017254
v -0.152451 0.190717 -0.003009
v -0.152451 0.187883 0.011236
v -0.152451 0.179814 0.023312
v -0.152451 0.167738 0.031382
v -0.152451 0.153493 0.034215
v -0.152451 0.139248 0.031382
v -0.152451 0.127171 0.023312
v -0.152451 0.119102 0.011236
v -0.152451 0.116269 -0.003009
v -0.152451 0.119102 -0.017254
v -0.152451 0.127171 -0.029331
v -0.152451 0.139248 -0.037400
v 0.097711 0.201347 -0.023987
v 0.078463 0.201347 -0.016014
v 0.070490 0.201347 0.003234
v 0.078463 0.201347 0.022482
v 0.097711 0.201347 0.030455
v 0.116958 0.201347 0.022482
v 0.124931 0.201347 0.003234
v 0.116958 0.201347 -0.016014
v 0.097711 0.209404 -0.023987
v 0.078463 0.209404 -0.016014
v 0.070490 0.209404 0.003234
v 0.078463 0.209404 0.022482
v 0.097711 0.209404 0.030455
v 0.116958 0.209404 0.022482
v 0.124931 0.209404 0.003234
v 0.116958 0.209404 -0.016014
v 0.097711 0.209404 -0.015603
v 0.084391 0.209404 -0.010086
v 0.078873 0.209404 0.003234
v 0.084391 0.209404 0.016554
v 0.097711 0.209404 0.022071
v 0.111030 0.209404 0.016554
v 0.116548 0.209404 0.003234
v 0.111030 0.209404 -0.010086
v 0.097711 0.221958 -0.015603
v 0.084391 0.221958 -0.010086
v 0.078873 0.221958 0.003234
v 0.084391 0.221958 0.016554
v 0.097711 0.221958 0.022071
v 0.111030 0.221958 0.016554
v 0.116548 0.221958 0.003234
v 0.111030 0.221958 -0.010086
v 0.097711 0.224492 -0.011588
v 0.087230 0.224492 -0.007247
v 0.082889 0.224492 0.003234
v 0.087230 0.224492 0.013715
v 0.097711 0.224492 0.018056
v 0.108191 0.224492 0.013715
v 0.112532 0.224492 0.003234
v 0.108191 0.224492 -0.007247
v 0.097711 0.224492 -0.008001
v 0.089766 0.224492 -0.004710
v 0.086476 0.224492 0.003234
v 0.089766 0.224492 0.011178
v 0.097711 0.224492 0.014469
v 0.105655 0.224492 0.011178
v 0.108945 0.224492 0.003234
v 0.105655 0.224492 -0.004710
v 0.097711 0.213900 -0.008001
v 0.089766 0.213900 -0.004710
v 0.086476 0.213900 0.003234
v 0.089766 0.213900 0.011178
v 0.097711 0.213900 0.014469
v 0.105655 0.213900 0.011178
v 0.108945 0.213900 0.003234
v 0.105655 0.213900 -0.004710
v -0.094005 0.043125 0.044324
v -0.095647 0.049254 0.044324
v -0.100133 0.053741 0.044324
v -0.106262 0.055383 0.044324
v -0.112391 0.053741 0.044324
v -0.116877 0.049254 0.044324
v -0.118520 0.043125 0.044324
v -0.112391 0.032510 0.044324
v -0.106262 0.030868 0.044324
v -0.100133 0.032510 0.044324
v -0.116877 0.036997 0.044324
v -0.097039 0.043125 0.050864
v -0.101650 0.051113 0.050864
v -0.110874 0.051113 0.050864
v -0.115486 0.043125 0.050864
v -0.110874 0.035138 0.050864
v -0.101650 0.035138 0.050864
v -0.095647 0.036997 0.044324
v 0.037711 0.201347 -0.023987
v 0.018463 0.201347 -0.016014
v 0.010490 0.201347 0.003234
v 0.018463 0.201347 0.022482
v 0.037711 0.201347 0.030455
v 0.056958 0.201347 0.022482
v 0.064931 0.201347 0.003234
v 0.056958 0.201347 -0.016014
v 0.037711 0.209404 -0.023987
v 0.018463 0.209404 -0.016014
v 0.010490 0.209404 0.003234
v 0.018463 0.209404 0.022482
v 0.037711 0.209404 0.030455
v 0.056958 0.209404 0.022482
v 0.064931 0.209404 0.003234
v 0.056958 0.209404 -0.016014
v 0.037711 0.209404 -0.015603
v 0.024391 0.209404 -0.010086
v 0.018873 0.209404 0.003234
v 0.024391 0.209404 0.016554
v 0.037711 0.209404 0.022071
v 0.051030 0.209404 0.016554
v 0.056548 0.209404 0.003234
v 0.051030 0.209404 -0.010086
v 0.037711 0.221958 -0.015603
v 0.024391 0.221958 -0.010086
v 0.018873 0.221958 0.003234
v 0.024391 0.221958 0.016554
v 0.037711 0.221958 0.022071
v 0.051030 0.221958 0.016554
v 0.056548 0.221958 0.003234
v 0.051030 0.221958 -0.010086
v 0.037711 0.224492 -0.011588
v 0.027230 0.224492 -0.007247
v 0.022889 0.224492 0.003234
v 0.027230 0.224492 0.013715
v 0.037711 0.224492 0.018056
v 0.048191 0.224492 0.013715
v 0.052532 0.224492 0.003234
v 0.048191 0.224492 -0.007247
v 0.037711 0.224492 -0.008001
v 0.029766 0.224492 -0.004710
v 0.026476 0.224492 0.003234
v 0.029766 0.224492 0.011178
v 0.037711 0.224492 0.014469
v 0.045655 0.224492 0.011178
v 0.048945 0.224492 0.003234
v 0.045655 0.224492 -0.004710
v 0.037711 0.213900 -0.008001
v 0.029766 0.213900 -0.004710
v 0.026476 0.213900 0.003234
v 0.029766 0.213900 0.011178
v 0.037711 0.213900 0.014469
v 0.045655 0.213900 0.011178
v 0.048945 0.213900 0.003234
v 0.045655 0.213900 -0.004710
v 0.166047 0.156658 -0.015866
v 0.166047 0.164767 -0.009631
v 0.166047 0.146515 -0.014541
v 0.166047 0.166092 0.000512
v 0.166047 0.159857 0.008621
v 0.166047 0.149714 0.009946
v 0.166047 0.140280 -0.006432
v 0.166047 0.141605 0.003711
v 0.160701 0.156658 -0.015866
v 0.160701 0.164767 -0.009631
v 0.160701 0.146515 -0.014541
v 0.160701 0.166092 0.000512
v 0.160701 0.159857 0.008621
v 0.160701 0.140280 -0.006432
v 0.160701 0.149714 0.009946
v 0.160701 0.141605 0.003711
v -0.013726 0.141736 0.057256
v -0.016844 0.145791 0.057256
v -0.014389 0.136665 0.057256
v -0.021915 0.146453 0.057256
v -0.025970 0.143336 0.057256
v -0.026632 0.138264 0.057256
v -0.018443 0.133547 0.057256
v -0.023515 0.134210 0.057256
v -0.013726 0.141736 0.054583
v -0.016844 0.145791 0.054583
v -0.014389 0.136665 0.054583
v -0.021915 0.146453 0.054583
v -0.025970 0.143336 0.054583
v -0.018443 0.133547 0.054583
v -0.026632 0.138264 0.054583
v -0.023515 0.134210 0.054583
v 0.118080 0.134430 0.057256
v 0.121141 0.138528 0.057256
v 0.113018 0.133697 0.057256
v 0.120408 0.143590 0.057256
v 0.116310 0.146651 0.057256
v 0.111248 0.145918 0.057256
v 0.108920 0.136758 0.057256
v 0.108187 0.141820 0.057256
v 0.118080 0.134430 0.054583
v 0.121141 0.138528 0.054583
v 0.113018 0.133697 0.054583
v 0.120408 0.143590 0.054583
v 0.116310 0.146651 0.054583
v 0.108920 0.136758 0.054583
v 0.111248 0.145918 0.054583
v 0.108187 0.141820 0.054583
v -0.014817 0.031563 0.057256
v -0.013480 0.036500 0.057256
v -0.019253 0.029017 0.057256
v -0.016026 0.040936 0.057256
v -0.020963 0.042272 0.057256
v -0.025399 0.039726 0.057256
v -0.024190 0.030354 0.057256
v -0.026735 0.034789 0.057256
v -0.014817 0.031563 0.054583
v -0.013480 0.036500 0.054583
v -0.019253 0.029017 0.054583
v -0.016026 0.040936 0.054583
v -0.020963 0.042272 0.054583
v -0.024190 0.030354 0.054583
v -0.025399 0.039726 0.054583
v -0.026735 0.034789 0.054583
v 0.117368 0.041443 0.057256
v 0.112257 0.041621 0.057256
v 0.120856 0.037703 0.057256
v 0.108516 0.038133 0.057256
v 0.108338 0.033021 0.057256
v 0.111826 0.029281 0.057256
v 0.120678 0.032591 0.057256
v 0.116938 0.029103 0.057256
v 0.117368 0.041443 0.054583
v 0.112257 0.041621 0.054583
v 0.120856 0.037703 0.054583
v 0.108516 0.038133 0.054583
v 0.108338 0.033021 0.054583
v 0.120678 0.032591 0.054583
v 0.111826 0.029281 0.054583
v 0.116938 0.029103 0.054583
v -0.166047 0.156658 0.009866
v -0.166047 0.164767 0.003631
v -0.166047 0.146515 0.008541
v -0.166047 0.166092 -0.006512
v -0.166047 0.159857 -0.014621
v -0.166047 0.149714 -0.015946
v -0.166047 0.140280 0.000432
v -0.166047 0.141605 -0.009711
v -0.160701 0.156658 0.009866
v -0.160701 0.164767 0.003631
v -0.160701 0.146515 0.008541
v -0.160701 0.166092 -0.006512
v -0.160701 0.159857 -0.014621
v -0.160701 0.140280 0.000432
v -0.160701 0.149714 -0.015946
v -0.160701 0.141605 -0.009711
v 0.002002 0.127774 0.061565
v 0.007672 0.127774 0.061565
v 0.002002 0.046312 0.061565
v 0.086558 0.127774 0.061565
v 0.092228 0.127774 0.061565
v 0.068462 0.127774 0.061565
v 0.047115 0.127774 0.061565
v 0.025769 0.127774 0.061565
v 0.007672 0.046312 0.061565
v 0.025769 0.046312 0.061565
v 0.047115 0.046312 0.061565
v 0.068462 0.046312 0.061565
v 0.086558 0.046312 0.061565
v 0.092228 0.046312 0.061565
v 0.007672 0.127774 0.073529
v 0.002002 0.127774 0.065043
v 0.092228 0.127774 0.065043
v 0.086558 0.127774 0.073529
v 0.068462 0.127774 0.085620
v 0.047115 0.127774 0.089866
v 0.025769 0.127774 0.085621
v 0.025769 0.046312 0.085621
v 0.007672 0.046312 0.073529
v 0.047115 0.046312 0.089866
v 0.068462 0.046312 0.085620
v 0.086558 0.046312 0.073529
v 0.092228 0.046312 0.065043
v 0.002002 0.046312 0.065043
v -0.084085 0.131475 0.045324
v -0.084085 0.141475 0.045324
v -0.084085 0.131475 0.044324
v -0.084085 0.141475 0.044324
v -0.082085 0.131475 0.045324
v -0.082085 0.141475 0.045324
v -0.082085 0.131475 0.044324
v -0.082085 0.141475 0.044324
v -0.059958 0.121183 0.045324
v -0.059958 0.121183 0.044324
v -0.057501 0.121183 0.045324
v -0.051958 0.128183 0.045324
v -0.057501 0.121183 0.044324
v -0.051958 0.128183 0.044324
v -0.052958 0.130183 0.045324
v -0.052958 0.130183 0.044324
v -0.042958 0.128183 0.045324
v -0.042958 0.128183 0.044324
v -0.042958 0.130183 0.045324
v -0.042958 0.130183 0.044324
v -0.106199 0.121183 0.045324
v -0.106199 0.121183 0.044324
v -0.108657 0.121183 0.045324
v -0.114199 0.128183 0.045324
v -0.108657 0.121183 0.044324
v -0.114199 0.128183 0.044324
v -0.113199 0.130183 0.045324
v -0.113199 0.130183 0.044324
v -0.123199 0.128183 0.045324
v -0.123199 0.128183 0.044324
v -0.123199 0.130183 0.045324
v -0.123199 0.130183 0.044324
vn -0.0000 -0.0000 1.0000
vn -0.0000 -0.0000 -1.0000
vn 0.9071 -0.0000 0.4208
vn 0.8512 -0.0000 0.5248
vn 0.7647 -0.4415 0.4693
vn -0.0000 -1.0000 -0.0000
vn -0.7071 -0.7071 -0.0000
vn -0.9871 -0.1602 -0.0000
vn -0.0000 -0.1398 0.9902
vn -0.0000 1.0000 -0.0000
vn 0.2540 0.7480 0.6132
vn -0.0000 0.7480 0.6637
vn -0.0000 0.4745 0.8803
vn 0.3369 0.4745 0.8133
vn -0.2540 -0.7480 0.6132
vn -0.3369 -0.4745 0.8133
vn -0.6224 -0.4745 0.6224
vn -0.4693 -0.7480 0.4693
vn 0.4693 -0.7480 0.4693
vn 0.6224 -0.4745 0.6224
vn 0.3369 -0.4745 0.8133
vn 0.2540 -0.7480 0.6132
vn -0.0000 -0.4745 0.8803
vn -0.0000 -0.7480 0.6637
vn -0.5504 0.7654 0.3335
vn -0.8156 0.3236 0.4796
vn -0.6224 0.4745 0.6224
vn -0.4693 0.7480 0.4693
vn -0.0654 -0.9853 0.1579
vn -0.1209 -0.9853 0.1209
vn 0.0654 -0.9853 0.1579
vn -0.0000 -0.9853 0.1709
vn 0.1209 -0.9853 0.1209
vn -0.6217 -0.7053 0.3406
vn -0.5504 -0.7654 0.3335
vn -0.8156 -0.3236 0.4796
vn -0.8518 -0.2248 0.4732
vn -0.0000 0.9853 0.1709
vn 0.0654 0.9853 0.1579
vn -0.0654 0.9853 0.1579
vn 0.6217 -0.7053 0.3406
vn 0.8518 -0.2248 0.4732
vn 0.8156 -0.3236 0.4796
vn 0.5504 -0.7654 0.3335
vn -0.1698 -0.9815 0.0889
vn -0.1360 -0.9873 0.0818
vn 0.3530 -0.0000 0.9356
vn 0.4270 0.7971 0.4270
vn 0.5082 0.7914 0.3396
vn -0.3530 -0.0000 0.9356
vn 0.1698 -0.9815 0.0889
vn 0.1360 -0.9873 0.0818
vn -0.0000 0.7971 0.6038
vn 0.2311 0.7972 0.5578
vn -0.2540 0.7480 0.6132
vn -0.3369 0.4745 0.8133
vn 0.4693 0.7480 0.4693
vn 0.6224 0.4745 0.6224
vn 0.5504 0.7654 0.3335
vn 0.8156 0.3236 0.4796
vn -0.1209 0.9853 0.1209
vn 0.1360 0.9873 0.0818
vn 0.1209 0.9853 0.1209
vn -0.1698 0.9815 0.0889
vn -0.6217 0.7053 0.3406
vn -0.1360 0.9873 0.0818
vn -0.8518 0.2248 0.4732
vn 0.1698 0.9815 0.0889
vn 0.6217 0.7053 0.3406
vn -0.5082 -0.7914 0.3396
vn -0.4270 -0.7971 0.4270
vn 0.4270 -0.7971 0.4270
vn 0.5082 -0.7914 0.3396
vn 0.4270 -0.7971 0.4269
vn 0.2311 -0.7972 0.5578
vn -0.0000 -0.7971 0.6038
vn -0.2311 -0.7971 0.5579
vn 0.4535 -0.7856 0.4208
vn 0.4256 -0.7372 0.5248
vn -0.9071 -0.0000 0.4208
vn -0.7647 -0.4415 0.4693
vn -0.8556 0.0289 0.5169
vn -0.7071 0.7071 -0.0000
vn -0.1602 0.9871 -0.0000
vn -0.4911 0.7300 0.4754
vn -0.7680 0.4289 0.4756
vn -0.4272 0.7338 0.5283
vn -0.4256 -0.7372 0.5248
vn -0.0000 0.8830 0.4693
vn -0.4536 -0.7856 0.4208
vn -0.0000 -0.8830 0.4693
vn 0.7647 0.4415 0.4693
vn 0.4536 0.7856 0.4208
vn 0.4256 0.7372 0.5248
vn -0.5241 0.8517 -0.0000
vn -0.5241 -0.8517 -0.0000
vn -0.2311 0.7971 0.5579
vn -0.9871 0.1602 -0.0000
vn 0.0223 -0.1876 0.9820
vn 0.8518 0.2248 0.4732
vn -0.4270 0.7971 0.4270
vn 1.0000 -0.0000 -0.0000
vn -0.1602 -0.9871 -0.0000
vn 0.1602 -0.9871 -0.0000
vn 0.1602 0.9871 -0.0000
vn 0.9871 -0.1602 -0.0000
vn 0.9871 0.1602 -0.0000
vn -0.0223 -0.1876 0.9820
vn 0.7071 0.7071 -0.0000
vn -1.0000 -0.0000 -0.0000
vn -0.5082 0.7914 0.3396
vn 0.7071 -0.7071 -0.0000
vn 0.5241 0.8517 -0.0000
vn -0.0000 -0.7071 0.7071
vn -0.0000 -0.3827 0.9239
vn -0.0000 -0.7071 -0.7071
vn -0.0000 -0.3827 -0.9239
vn -0.0000 0.7071 -0.7071
vn -0.0000 0.3827 -0.9239
vn -0.0000 -0.9239 -0.3827
vn -0.0000 0.9239 0.3827
vn -0.0000 0.7071 0.7071
vn -0.0000 0.9239 -0.3827
vn -0.0000 0.3827 0.9239
vn -0.0000 -0.9239 0.3827
vn -0.9239 -0.0000 -0.3827
vn 0.3827 -0.0000 -0.9239
vn 0.3827 -0.0000 0.9239
vn -0.3827 -0.0000 -0.9239
vn -0.9239 -0.0000 0.3827
vn -0.3827 -0.0000 0.9239
vn 0.9239 -0.0000 0.3827
vn 0.9239 -0.0000 -0.3827
vn -0.0000 0.9407 -0.3392
vn -0.2398 0.9407 -0.2398
vn -0.3392 0.9407 -0.0000
vn 0.2398 0.9407 -0.2398
vn 0.3774 0.8456 -0.3774
vn -0.0000 0.8456 -0.5338
vn 0.3392 0.9407 -0.0000
vn 0.5338 0.8456 -0.0000
vn -0.3774 0.8456 -0.3774
vn -0.5338 0.8456 -0.0000
vn -0.2398 0.9407 0.2398
vn -0.0000 0.9407 0.3392
vn 0.2398 0.9407 0.2398
vn -0.3774 0.8456 0.3774
vn -0.0000 0.8456 0.5338
vn 0.3774 0.8456 0.3774
vn 0.6303 -0.3875 -0.6728
vn 0.6303 0.2017 -0.7497
vn 0.6303 0.6728 -0.3875
vn 0.6303 0.7497 0.2017
vn 0.6303 0.3875 0.6728
vn 0.6303 -0.2017 0.7497
vn 0.6303 -0.6728 0.3875
vn 0.6303 -0.7497 -0.2017
vn -0.0000 -0.9657 -0.2598
vn -0.0000 -0.8665 0.4991
vn -0.0000 -0.2598 0.9657
vn -0.0000 -0.4991 -0.8665
vn -0.0000 0.2598 -0.9657
vn -0.0000 0.4991 0.8665
vn -0.0000 0.9657 0.2598
vn -0.0000 0.8665 -0.4991
vn 0.6728 -0.3875 0.6303
vn 0.7497 0.2017 0.6303
vn 0.3875 0.6728 0.6303
vn -0.2017 0.7497 0.6303
vn -0.6728 0.3875 0.6303
vn -0.7497 -0.2017 0.6303
vn -0.3875 -0.6728 0.6303
vn 0.2017 -0.7497 0.6303
vn 0.2598 -0.9657 -0.0000
vn -0.4991 -0.8665 -0.0000
vn -0.9657 -0.2598 -0.0000
vn 0.8665 -0.4991 -0.0000
vn 0.9657 0.2598 -0.0000
vn -0.8665 0.4991 -0.0000
vn -0.2598 0.9657 -0.0000
vn 0.4991 0.8665 -0.0000
vn -0.1912 -0.7525 0.6303
vn 0.3968 -0.6673 0.6303
vn 0.7525 -0.1912 0.6303
vn 0.6673 0.3968 0.6303
vn 0.1912 0.7525 0.6303
vn -0.3968 0.6673 0.6303
vn -0.7525 0.1912 0.6303
vn -0.6673 -0.3968 0.6303
vn -0.8595 -0.5111 -0.0000
vn -0.9692 0.2463 -0.0000
vn -0.5111 0.8595 -0.0000
vn -0.2463 -0.9692 -0.0000
vn 0.5111 -0.8595 -0.0000
vn 0.2463 0.9692 -0.0000
vn 0.8595 0.5111 -0.0000
vn 0.9692 -0.2463 -0.0000
vn 0.0994 -0.7700 0.6303
vn 0.6147 -0.4742 0.6303
vn 0.7700 0.0994 0.6303
vn 0.4742 0.6147 0.6303
vn -0.0994 0.7700 0.6303
vn -0.6147 0.4742 0.6303
vn -0.7700 -0.0994 0.6303
vn -0.4742 -0.6147 0.6303
vn -0.6108 -0.7918 -0.0000
vn -0.9918 -0.1280 -0.0000
vn -0.7918 0.6108 -0.0000
vn 0.1280 -0.9918 -0.0000
vn 0.7918 -0.6108 -0.0000
vn -0.1280 0.9918 -0.0000
vn 0.6108 0.7918 -0.0000
vn 0.9918 0.1280 -0.0000
vn 0.7272 0.2719 0.6303
vn 0.3219 0.7065 0.6303
vn -0.2719 0.7272 0.6303
vn -0.7065 0.3219 0.6303
vn -0.7272 -0.2719 0.6303
vn -0.3219 -0.7065 0.6303
vn 0.2719 -0.7272 0.6303
vn 0.7065 -0.3219 0.6303
vn 0.9100 -0.4146 -0.0000
vn 0.3503 -0.9366 -0.0000
vn -0.4146 -0.9100 -0.0000
vn 0.9366 0.3503 -0.0000
vn 0.4146 0.9100 -0.0000
vn -0.9366 -0.3503 -0.0000
vn -0.9100 0.4146 -0.0000
vn -0.3503 0.9366 -0.0000
vn -0.6303 -0.3875 0.6728
vn -0.6303 0.2017 0.7497
vn -0.6303 0.6728 0.3875
vn -0.6303 0.7497 -0.2017
vn -0.6303 0.3875 -0.6728
vn -0.6303 -0.2017 -0.7497
vn -0.6303 -0.6728 -0.3875
vn -0.6303 -0.7497 0.2017
vn -0.0000 -0.9657 0.2598
vn -0.0000 -0.8665 -0.4991
vn -0.0000 -0.2598 -0.9657
vn -0.0000 -0.4991 0.8665
vn -0.0000 0.2598 0.9657
vn -0.0000 0.4991 -0.8665
vn -0.0000 0.9657 -0.2598
vn -0.0000 0.8665 0.4991
vn 0.5241 -0.8517 -0.0000
vn 0.7071 -0.0000 0.7071
vn 0.8315 -0.0000 0.5556
vn -0.7071 -0.0000 0.7071
vn -0.8315 -0.0000 0.5556
vn -0.7894 0.6139 -0.0000
vn 0.7840 -0.6208 -0.0000
vn 0.7894 0.6139 -0.0000
vn -0.7840 -0.6208 -0.0000
vt 0.820312 0.000000
vt 1.000000 0.121094
vt 0.943359 0.121094
vt 0.820312 0.173828
vt 0.820312 0.173828
vt 1.000000 0.292969
vt 1.000000 0.121094
vt 0.943359 0.292969
vt 0.820312 0.000000
vt 0.943359 0.121094
vt 0.945312 0.000000
vt 1.000000 0.000000
vt 0.943359 0.000000
vt 0.945312 0.173828
vt 0.945312 0.173828
vt 1.000000 0.000000
vt 0.945312 0.000000
vt 0.943359 0.000000
vt 0.666581 0.288316
vt 0.687338 0.370272
vt 0.687338 0.363004
vt 0.666581 0.295583
vt 0.573083 0.293757
vt 0.673169 0.288316
vt 0.693926 0.370272
vt 0.673169 0.295583
vt 0.570785 0.300652
vt 0.579977 0.291459
vt 0.693926 0.363004
vt 0.687338 0.369941
vt 0.573083 0.392165
vt 0.673169 0.387469
vt 0.579977 0.394463
vt 0.687338 0.362674
vt 0.570785 0.385270
vt 0.673169 0.380202
vt 0.693926 0.369941
vt 0.666581 0.387469
vt 0.666581 0.380202
vt 0.693926 0.362674
vt 0.673044 0.288316
vt 0.687338 0.290324
vt 0.673044 0.295583
vt 0.687338 0.297591
vt 0.652285 0.293757
vt 0.666456 0.288316
vt 0.693926 0.290324
vt 0.645391 0.291459
vt 0.693926 0.297591
vt 0.654583 0.300652
vt 0.666456 0.295583
vt 0.673044 0.387469
vt 0.693926 0.289993
vt 0.693926 0.297261
vt 0.673044 0.380202
vt 0.652285 0.392165
vt 0.666456 0.387469
vt 0.687338 0.289993
vt 0.666456 0.380202
vt 0.654583 0.385270
vt 0.645391 0.394463
vt 0.687338 0.297261
vt 0.579977 0.385270
vt 0.579977 0.300652
vt 0.645391 0.300652
vt 0.645391 0.385270
vt 0.604158 0.084074
vt 0.611623 0.087754
vt 0.590927 0.074540
vt 0.579379 0.019315
vt 0.582667 0.062009
vt 0.572761 0.032395
vt 0.579629 0.047151
vt 0.570481 0.046875
vt 0.582498 0.032189
vt 0.572761 0.061355
vt 0.590752 0.019361
vt 0.579379 0.074435
vt 0.604141 0.009676
vt 0.603221 0.087754
vt 0.593636 0.071968
vt 0.586149 0.060532
vt 0.583437 0.047090
vt 0.586060 0.033573
vt 0.593603 0.021976
vt 0.598359 0.067489
vt 0.592112 0.058037
vt 0.589921 0.047026
vt 0.592122 0.035969
vt 0.598367 0.026388
vt 0.605421 0.080278
vt 0.605419 0.013506
vt 0.606113 0.072211
vt 0.606113 0.021619
vt 0.607871 0.014283
vt 0.596861 0.079234
vt 0.584512 0.014134
vt 0.603221 0.087754
vt 0.598792 0.075976
vt 0.601583 0.069783
vt 0.601585 0.024068
vt 0.598753 0.017861
vt 0.755082 0.383634
vt 0.584512 0.079616
vt 0.596783 0.014567
vt 0.611623 0.087754
vt 0.581156 0.020596
vt 0.583145 0.485829
vt 0.585769 0.015940
vt 0.579375 0.491472
vt 0.606113 0.015606
vt 0.585769 0.077810
vt 0.753324 0.382311
vt 0.639375 0.491472
vt 0.581156 0.073154
vt 0.635605 0.485829
vt 0.574846 0.060682
vt 0.623570 0.477788
vt 0.572672 0.046875
vt 0.609375 0.474965
vt 0.574845 0.033068
vt 0.595180 0.477788
vt 0.597740 0.014516
vt 0.607871 0.069244
vt 0.603221 0.142715
vt 0.584512 0.079616
vt 0.605037 0.009676
vt 0.611623 0.142715
vt 0.574845 0.060682
vt 0.595180 0.477788
vt 0.581156 0.073154
vt 0.583145 0.485829
vt 0.572672 0.046875
vt 0.609375 0.474965
vt 0.574846 0.033068
vt 0.623570 0.477788
vt 0.581156 0.020596
vt 0.635605 0.485829
vt 0.585769 0.015940
vt 0.753324 0.329996
vt 0.639375 0.491472
vt 0.591806 0.019210
vt 0.579379 0.074435
vt 0.572761 0.061355
vt 0.583546 0.031741
vt 0.587028 0.033218
vt 0.594515 0.021782
vt 0.570481 0.046875
vt 0.580508 0.046599
vt 0.584316 0.046660
vt 0.583377 0.061561
vt 0.572761 0.032394
vt 0.586939 0.060177
vt 0.579379 0.019315
vt 0.591631 0.074389
vt 0.594482 0.071774
vt 0.584512 0.014134
vt 0.755082 0.328673
vt 0.597662 0.079183
vt 0.611623 0.142715
vt 0.599632 0.075889
vt 0.592992 0.035713
vt 0.599238 0.026261
vt 0.590801 0.046724
vt 0.593001 0.057781
vt 0.599246 0.067362
vt 0.602464 0.069682
vt 0.599671 0.017774
vt 0.606300 0.013472
vt 0.602462 0.023967
vt 0.606992 0.021539
vt 0.585769 0.077810
vt 0.579375 0.491472
vt 0.606113 0.067921
vt 0.605020 0.084074
vt 0.603221 0.142715
vt 0.606298 0.080244
vt 0.606992 0.072131
vt 0.632444 0.450540
vt 0.637540 0.450427
vt 0.641881 0.453108
vt 0.644657 0.457389
vt 0.644657 0.462486
vt 0.642307 0.467025
vt 0.637816 0.469484
vt 0.628293 0.466999
vt 0.625535 0.462665
vt 0.625598 0.457533
vt 0.632687 0.469660
vt 0.684071 0.453673
vt 0.633678 0.455138
vt 0.689201 0.456635
vt 0.638473 0.456592
vt 0.689201 0.462558
vt 0.640032 0.461353
vt 0.684071 0.465520
vt 0.636548 0.464836
vt 0.678941 0.462558
vt 0.631685 0.463532
vt 0.678941 0.456635
vt 0.630273 0.458699
vt 0.627958 0.452989
vt 0.764311 0.368745
vt 0.714574 0.190334
vt 0.761616 0.218549
vt 0.764311 0.308743
vt 0.761616 0.278552
vt 0.715486 0.190334
vt 0.701458 0.000000
vt 0.775467 0.190391
vt 0.701767 0.207319
vt 0.772691 0.000000
vt 0.701767 0.278552
vt 0.775335 0.190334
vt 0.755355 0.368745
vt 0.714564 0.199289
vt 0.675752 0.000000
vt 0.755355 0.308743
vt 0.615749 0.000000
vt 0.715486 0.199289
vt 0.615749 0.051705
vt 0.767192 0.199289
vt 0.767243 0.199346
vt 0.685833 0.051705
vt 0.764164 0.308934
vt 0.714574 0.380782
vt 0.761663 0.218550
vt 0.675752 0.275834
vt 0.755209 0.308934
vt 0.714564 0.371827
vt 0.701458 0.190334
vt 0.775467 0.380725
vt 0.701815 0.207319
vt 0.715486 0.380668
vt 0.764164 0.368937
vt 0.761663 0.278552
vt 0.715486 0.371713
vt 0.615749 0.275834
vt 0.755209 0.368937
vt 0.615749 0.224129
vt 0.767192 0.371712
vt 0.772691 0.190334
vt 0.701815 0.278552
vt 0.775335 0.380668
vt 0.685833 0.224129
vt 0.767243 0.371770
vt 0.564375 0.040000
vt 0.564375 0.050000
vt 0.564375 0.060000
vt 0.564375 0.070000
vt 0.564375 0.080000
vt 0.564375 0.090000
vt 0.564375 0.100000
vt 0.564375 0.110000
vt 0.564375 0.120000
vt 0.564375 0.130000
vt 0.564375 0.140000
vt 0.564375 0.150000
vt 0.564375 0.000000
vt 0.564375 0.160000
vt 0.564375 0.010000
vt 0.564375 0.020000
vt 0.564375 0.030000
vt 0.561440 0.040000
vt 0.610898 0.434512
vt 0.561440 0.050000
vt 0.607072 0.443751
vt 0.561440 0.060000
vt 0.600000 0.450822
vt 0.561440 0.070000
vt 0.590762 0.454648
vt 0.561440 0.080000
vt 0.580762 0.454648
vt 0.561440 0.090000
vt 0.571523 0.450822
vt 0.561440 0.100000
vt 0.564452 0.443750
vt 0.561440 0.110000
vt 0.560625 0.434512
vt 0.561440 0.120000
vt 0.560625 0.424512
vt 0.561440 0.130000
vt 0.564452 0.415273
vt 0.571523 0.408202
vt 0.561440 0.140000
vt 0.580762 0.404375
vt 0.561440 0.150000
vt 0.561440 0.000000
vt 0.561440 0.160000
vt 0.590762 0.404375
vt 0.561440 0.010000
vt 0.600001 0.408202
vt 0.561440 0.020000
vt 0.607072 0.415273
vt 0.561440 0.030000
vt 0.610898 0.424512
vt 0.564375 0.110000
vt 0.564375 0.120000
vt 0.564375 0.100000
vt 0.564375 0.090000
vt 0.564375 0.080000
vt 0.564375 0.070000
vt 0.564375 0.060000
vt 0.564375 0.050000
vt 0.564375 0.040000
vt 0.564375 0.030000
vt 0.564375 0.020000
vt 0.564375 0.010000
vt 0.564375 0.160000
vt 0.564375 0.000000
vt 0.564375 0.150000
vt 0.564375 0.140000
vt 0.564375 0.130000
vt 0.561440 0.110000
vt 0.610898 0.434512
vt 0.561440 0.120000
vt 0.607072 0.443750
vt 0.610898 0.424512
vt 0.561440 0.100000
vt 0.561440 0.090000
vt 0.607072 0.415273
vt 0.561440 0.080000
vt 0.600001 0.408202
vt 0.561440 0.070000
vt 0.590762 0.404375
vt 0.580762 0.404375
vt 0.561440 0.060000
vt 0.561440 0.050000
vt 0.571523 0.408202
vt 0.561440 0.040000
vt 0.564452 0.415273
vt 0.561440 0.030000
vt 0.560625 0.424512
vt 0.561440 0.020000
vt 0.560625 0.434512
vt 0.561440 0.010000
vt 0.564452 0.443750
vt 0.561440 0.160000
vt 0.561440 0.000000
vt 0.571523 0.450822
vt 0.561440 0.150000
vt 0.580762 0.454648
vt 0.561440 0.140000
vt 0.590762 0.454648
vt 0.561440 0.130000
vt 0.600001 0.450822
vt 0.772085 0.637242
vt 0.772085 0.690943
vt 0.772085 0.677564
vt 0.772085 0.664184
vt 0.772085 0.650805
vt 0.772085 0.690760
vt 0.772085 0.637425
vt 0.772085 0.677380
vt 0.772085 0.664001
vt 0.772085 0.650621
vt 0.777259 0.637242
vt 0.777259 0.690943
vt 0.750523 0.683224
vt 0.777259 0.677564
vt 0.741062 0.692685
vt 0.777259 0.664184
vt 0.727683 0.692685
vt 0.777259 0.650805
vt 0.718222 0.683224
vt 0.777259 0.690760
vt 0.777259 0.637425
vt 0.718222 0.669845
vt 0.777259 0.677380
vt 0.727683 0.660384
vt 0.777259 0.664001
vt 0.741062 0.660384
vt 0.777259 0.650621
vt 0.750523 0.669845
vt 0.772085 0.611103
vt 0.772085 0.537032
vt 0.745549 0.681164
vt 0.739002 0.687711
vt 0.772085 0.546291
vt 0.772085 0.555550
vt 0.729743 0.687711
vt 0.723196 0.681164
vt 0.772085 0.564809
vt 0.723196 0.671905
vt 0.772085 0.574068
vt 0.729743 0.665358
vt 0.772085 0.583326
vt 0.739002 0.665358
vt 0.772085 0.592585
vt 0.772085 0.601844
vt 0.745549 0.671905
vt 0.764023 0.611103
vt 0.764023 0.537032
vt 0.739601 0.556440
vt 0.764023 0.546291
vt 0.739601 0.546816
vt 0.764023 0.555550
vt 0.746406 0.540011
vt 0.756030 0.540011
vt 0.764023 0.564809
vt 0.762835 0.546816
vt 0.764023 0.574068
vt 0.762835 0.556440
vt 0.764023 0.583326
vt 0.756030 0.563245
vt 0.764023 0.592585
vt 0.764023 0.601844
vt 0.746406 0.563245
vt 0.742510 0.555187
vt 0.742544 0.547987
vt 0.747659 0.542920
vt 0.754859 0.542954
vt 0.759926 0.548069
vt 0.759892 0.555269
vt 0.754777 0.560337
vt 0.747577 0.560303
vt 0.744627 0.554319
vt 0.747438 0.549524
vt 0.744655 0.548871
vt 0.747417 0.552799
vt 0.748527 0.545038
vt 0.749306 0.555457
vt 0.752434 0.555753
vt 0.753975 0.545065
vt 0.754856 0.553644
vt 0.757808 0.548937
vt 0.757780 0.554386
vt 0.755109 0.550362
vt 0.753908 0.558219
vt 0.753020 0.547825
vt 0.748460 0.558191
vt 0.749832 0.547487
vt 0.739964 0.323470
vt 0.739575 0.546815
vt 0.739964 0.328993
vt 0.739739 0.556282
vt 0.736060 0.332897
vt 0.746342 0.563244
vt 0.730537 0.332897
vt 0.755978 0.563331
vt 0.726633 0.328993
vt 0.762783 0.556486
vt 0.726633 0.323470
vt 0.762783 0.546812
vt 0.730537 0.319566
vt 0.755970 0.539915
vt 0.736060 0.319566
vt 0.746279 0.539900
vt 0.632444 0.450540
vt 0.637540 0.450427
vt 0.641881 0.453108
vt 0.644657 0.457389
vt 0.644657 0.462486
vt 0.642307 0.467025
vt 0.637816 0.469484
vt 0.628293 0.466999
vt 0.625535 0.462665
vt 0.625598 0.457533
vt 0.632687 0.469660
vt 0.684071 0.453673
vt 0.633678 0.455138
vt 0.689201 0.456635
vt 0.638473 0.456592
vt 0.689201 0.462558
vt 0.640032 0.461353
vt 0.684071 0.465520
vt 0.636548 0.464836
vt 0.678941 0.462558
vt 0.631685 0.463532
vt 0.678941 0.456635
vt 0.630273 0.458699
vt 0.627958 0.452989
vt 0.772085 0.637242
vt 0.772085 0.690943
vt 0.772085 0.677564
vt 0.772085 0.664184
vt 0.772085 0.650805
vt 0.772085 0.690760
vt 0.772085 0.637425
vt 0.772085 0.677380
vt 0.772085 0.664001
vt 0.772085 0.650621
vt 0.777259 0.637242
vt 0.777259 0.690943
vt 0.750523 0.683224
vt 0.777259 0.677564
vt 0.741062 0.692685
vt 0.777259 0.664184
vt 0.727683 0.692685
vt 0.777259 0.650805
vt 0.718222 0.683224
vt 0.777259 0.690760
vt 0.777259 0.637425
vt 0.718222 0.669845
vt 0.777259 0.677380
vt 0.727683 0.660384
vt 0.777259 0.664001
vt 0.741062 0.660384
vt 0.777259 0.650621
vt 0.750523 0.669845
vt 0.772085 0.611103
vt 0.772085 0.537032
vt 0.745549 0.681164
vt 0.739002 0.687711
vt 0.772085 0.546291
vt 0.772085 0.555550
vt 0.729743 0.687711
vt 0.723196 0.681164
vt 0.772085 0.564809
vt 0.723196 0.671905
vt 0.772085 0.574068
vt 0.729743 0.665358
vt 0.772085 0.583326
vt 0.739002 0.665358
vt 0.772085 0.592585
vt 0.772085 0.601844
vt 0.745549 0.671905
vt 0.764023 0.611103
vt 0.764023 0.537032
vt 0.739601 0.556440
vt 0.764023 0.546291
vt 0.739601 0.546816
vt 0.764023 0.555550
vt 0.746406 0.540011
vt 0.756030 0.540011
vt 0.764023 0.564809
vt 0.762835 0.546816
vt 0.764023 0.574068
vt 0.762835 0.556440
vt 0.764023 0.583326
vt 0.756030 0.563245
vt 0.764023 0.592585
vt 0.764023 0.601844
vt 0.746406 0.563245
vt 0.742510 0.555187
vt 0.742544 0.547987
vt 0.747659 0.542920
vt 0.754859 0.542954
vt 0.759926 0.548069
vt 0.759892 0.555269
vt 0.754777 0.560337
vt 0.747577 0.560303
vt 0.744627 0.554319
vt 0.747438 0.549524
vt 0.744655 0.548871
vt 0.747417 0.552799
vt 0.748527 0.545038
vt 0.749306 0.555457
vt 0.752434 0.555753
vt 0.753975 0.545065
vt 0.754856 0.553644
vt 0.757808 0.548937
vt 0.757780 0.554386
vt 0.755109 0.550362
vt 0.753908 0.558219
vt 0.753020 0.547825
vt 0.748460 0.558191
vt 0.749832 0.547487
vt 0.739964 0.323470
vt 0.739575 0.546815
vt 0.739964 0.328993
vt 0.739739 0.556282
vt 0.736060 0.332897
vt 0.746342 0.563244
vt 0.730537 0.332897
vt 0.755978 0.563331
vt 0.726633 0.328993
vt 0.762783 0.556486
vt 0.726633 0.323470
vt 0.762783 0.546812
vt 0.730537 0.319566
vt 0.755970 0.539915
vt 0.736060 0.319566
vt 0.746279 0.539900
vt 0.450919 0.220703
vt 0.453549 0.220703
vt 0.448705 0.215357
vt 0.453549 0.215357
vt 0.453549 0.226049
vt 0.448705 0.226049
vt 0.453549 0.226049
vt 0.443359 0.213143
vt 0.453549 0.220703
vt 0.438014 0.215357
vt 0.453549 0.215357
vt 0.435799 0.220703
vt 0.453549 0.220703
vt 0.443359 0.228263
vt 0.453549 0.220703
vt 0.438014 0.226049
vt 0.453549 0.215357
vt 0.453549 0.226049
vt 0.456573 0.220703
vt 0.456573 0.215357
vt 0.456573 0.226049
vt 0.456573 0.226049
vt 0.456573 0.220703
vt 0.456573 0.215357
vt 0.456573 0.220703
vt 0.456573 0.220703
vt 0.456573 0.215357
vt 0.456573 0.226049
vt 0.450919 0.220703
vt 0.453549 0.220703
vt 0.448705 0.215357
vt 0.453549 0.215357
vt 0.453549 0.226049
vt 0.448705 0.226049
vt 0.453549 0.226049
vt 0.443359 0.213143
vt 0.453549 0.220703
vt 0.438014 0.215357
vt 0.453549 0.215357
vt 0.435799 0.220703
vt 0.453549 0.220703
vt 0.443359 0.228263
vt 0.453549 0.220703
vt 0.438014 0.226049
vt 0.453549 0.215357
vt 0.453549 0.226049
vt 0.456573 0.220703
vt 0.456573 0.215357
vt 0.456573 0.226049
vt 0.456573 0.226049
vt 0.456573 0.220703
vt 0.456573 0.215357
vt 0.456573 0.220703
vt 0.456573 0.220703
vt 0.456573 0.215357
vt 0.456573 0.226049
vt 0.450919 0.220703
vt 0.453549 0.220703
vt 0.448705 0.215357
vt 0.453549 0.215357
vt 0.453549 0.226049
vt 0.448705 0.226049
vt 0.453549 0.226049
vt 0.443359 0.213143
vt 0.453549 0.220703
vt 0.438014 0.215357
vt 0.453549 0.215357
vt 0.435799 0.220703
vt 0.453549 0.220703
vt 0.443359 0.228263
vt 0.453549 0.220703
vt 0.438014 0.226049
vt 0.453549 0.215357
vt 0.453549 0.226049
vt 0.456573 0.220703
vt 0.456573 0.215357
vt 0.456573 0.226049
vt 0.456573 0.226049
vt 0.456573 0.220703
vt 0.456573 0.215357
vt 0.456573 0.220703
vt 0.456573 0.220703
vt 0.456573 0.215357
vt 0.456573 0.226049
vt 0.450919 0.220703
vt 0.453549 0.220703
vt 0.448705 0.215357
vt 0.453549 0.215357
vt 0.453549 0.226049
vt 0.448705 0.226049
vt 0.453549 0.226049
vt 0.443359 0.213143
vt 0.453549 0.220703
vt 0.438014 0.215357
vt 0.453549 0.215357
vt 0.435799 0.220703
vt 0.453549 0.220703
vt 0.443359 0.228263
vt 0.453549 0.220703
vt 0.438014 0.226049
vt 0.453549 0.215357
vt 0.453549 0.226049
vt 0.456573 0.220703
vt 0.456573 0.215357
vt 0.456573 0.226049
vt 0.456573 0.226049
vt 0.456573 0.220703
vt 0.456573 0.215357
vt 0.456573 0.220703
vt 0.456573 0.220703
vt 0.456573 0.215357
vt 0.456573 0.226049
vt 0.450919 0.220703
vt 0.453549 0.220703
vt 0.448705 0.215357
vt 0.453549 0.215357
vt 0.453549 0.226049
vt 0.448705 0.226049
vt 0.453549 0.226049
vt 0.443359 0.213143
vt 0.453549 0.220703
vt 0.438014 0.215357
vt 0.453549 0.215357
vt 0.435799 0.220703
vt 0.453549 0.220703
vt 0.443359 0.228263
vt 0.453549 0.220703
vt 0.438014 0.226049
vt 0.453549 0.215357
vt 0.453549 0.226049
vt 0.456573 0.220703
vt 0.456573 0.215357
vt 0.456573 0.226049
vt 0.456573 0.226049
vt 0.456573 0.220703
vt 0.456573 0.215357
vt 0.456573 0.220703
vt 0.456573 0.220703
vt 0.456573 0.215357
vt 0.456573 0.226049
vt 0.450919 0.220703
vt 0.453549 0.220703
vt 0.448705 0.215357
vt 0.453549 0.215357
vt 0.453549 0.226049
vt 0.448705 0.226049
vt 0.453549 0.226049
vt 0.443359 0.213143
vt 0.453549 0.220703
vt 0.438014 0.215357
vt 0.453549 0.215357
vt 0.435799 0.220703
vt 0.453549 0.220703
vt 0.443359 0.228263
vt 0.453549 0.220703
vt 0.438014 0.226049
vt 0.453549 0.215357
vt 0.453549 0.226049
vt 0.456573 0.220703
vt 0.456573 0.215357
vt 0.456573 0.226049
vt 0.456573 0.226049
vt 0.456573 0.220703
vt 0.456573 0.215357
vt 0.456573 0.220703
vt 0.456573 0.220703
vt 0.456573 0.215357
vt 0.456573 0.226049
vt 0.941406 0.242188
vt 0.579375 0.493785
vt 0.606660 0.015606
vt 0.941406 0.238281
vt 0.583145 0.493785
vt 0.579375 0.493785
vt 0.886719 0.242188
vt 0.606660 0.067921
vt 0.941406 0.179688
vt 0.635605 0.493785
vt 0.753871 0.382311
vt 0.941406 0.173828
vt 0.639375 0.493785
vt 0.941406 0.191406
vt 0.623570 0.493785
vt 0.609375 0.493785
vt 0.941406 0.208984
vt 0.941406 0.224609
vt 0.595180 0.493785
vt 0.886719 0.238281
vt 0.583145 0.493785
vt 0.886719 0.224609
vt 0.595180 0.493785
vt 0.886719 0.208984
vt 0.609375 0.493785
vt 0.886719 0.191406
vt 0.623570 0.493785
vt 0.886719 0.179688
vt 0.635605 0.493785
vt 0.753871 0.329996
vt 0.639375 0.493785
vt 0.886719 0.173828
vt 0.382812 0.375000
vt 0.382812 0.351562
vt 0.382812 0.648438
vt 0.382812 0.625000
vt 0.382812 0.562500
vt 0.382812 0.500000
vt 0.382812 0.437500
vt 0.617188 0.437500
vt 0.617188 0.375000
vt 0.617188 0.500000
vt 0.617188 0.562500
vt 0.617188 0.625000
vt 0.617188 0.648438
vt 0.617188 0.351562
vt 0.702144 0.516637
vt 0.702144 0.517275
vt 0.702144 0.516637
vt 0.702144 0.516697
vt 0.702235 0.517275
vt 0.702144 0.516697
vt 0.702264 0.516637
vt 0.702264 0.517275
vt 0.702264 0.516637
vt 0.702264 0.516697
vt 0.702235 0.517275
vt 0.702264 0.516697
vt 0.702175 0.516058
vt 0.701639 0.516058
vt 0.701639 0.516637
vt 0.702235 0.516058
vt 0.701639 0.516697
vt 0.702175 0.516058
vt 0.701786 0.516058
vt 0.701786 0.516637
vt 0.702119 0.516637
vt 0.702119 0.516478
vt 0.702235 0.516058
vt 0.701786 0.516697
vt 0.702235 0.516478
vt 0.702119 0.516697
vt 0.702119 0.516478
vt 0.702175 0.516598
vt 0.702059 0.516637
vt 0.702235 0.516598
vt 0.702059 0.516697
vt 0.702659 0.516637
vt 0.702175 0.516478
vt 0.702659 0.516478
vt 0.702659 0.516697
vt 0.702235 0.516478
vt 0.702659 0.516478
vt 0.702175 0.516598
vt 0.702659 0.516637
vt 0.702235 0.516598
vt 0.702659 0.516697
vt 0.702175 0.516058
vt 0.702770 0.516058
vt 0.702770 0.516637
vt 0.702235 0.516058
vt 0.702770 0.516697
vt 0.702175 0.516058
vt 0.702623 0.516058
vt 0.702623 0.516637
vt 0.702175 0.516478
vt 0.702290 0.516637
vt 0.702290 0.516478
vt 0.702235 0.516058
vt 0.702623 0.516697
vt 0.702290 0.516697
vt 0.702290 0.516478
vt 0.702175 0.516598
vt 0.702350 0.516637
vt 0.702235 0.516598
vt 0.702350 0.516697
vt 0.701750 0.516637
vt 0.702175 0.516478
vt 0.701750 0.516478
vt 0.701750 0.516697
vt 0.702235 0.516478
vt 0.701750 0.516478
vt 0.702175 0.516598
vt 0.701750 0.516637
vt 0.702235 0.516598
vt 0.701750 0.516697
s 1
usemtl electronics_etx_part_1
f 335/580/150 333/575/151 334/577/152 336/582/153 337/584/154 338/586/155 340/590/156 339/588/157
f 346/599/158 339/589/157 340/591/156 348/601/159
f 348/602/159 340/592/156 338/587/155 347/600/160
f 339/589/157 346/599/158 343/596/161 335/581/150
f 335/581/150 343/596/161 341/593/162 333/576/151
f 347/600/160 338/587/155 337/585/154 345/598/163
f 345/598/163 337/585/154 336/583/153 344/597/164
f 333/576/151 341/593/162 342/594/165 334/578/152
f 334/579/152 342/595/165 344/597/164 336/583/153
f 351/608/166 349/603/167 350/605/168 352/610/169 353/612/170 354/614/171 356/618/172 355/616/173
f 362/627/174 355/617/173 356/619/172 364/629/175
f 364/630/175 356/620/172 354/615/171 363/628/176
f 355/617/173 362/627/174 359/624/177 351/609/166
f 351/609/166 359/624/177 357/621/178 349/604/167
f 363/628/176 354/615/171 353/613/170 361/626/179
f 361/626/179 353/613/170 352/611/169 360/625/180
f 349/604/167 357/621/178 358/622/181 350/606/168
f 350/607/168 358/623/181 360/625/180 352/611/169
f 367/636/182 365/631/183 366/633/184 368/638/185 369/640/186 370/642/187 372/646/188 371/644/189
f 378/655/190 371/645/189 372/647/188 380/657/191
f 380/658/191 372/648/188 370/643/187 379/656/192
f 371/645/189 378/655/190 375/652/193 367/637/182
f 367/637/182 375/652/193 373/649/194 365/632/183
f 379/656/192 370/643/187 369/641/186 377/654/195
f 377/654/195 369/641/186 368/639/185 376/653/196
f 365/632/183 373/649/194 374/650/197 366/634/184
f 366/635/184 374/651/197 376/653/196 368/639/185
f 383/664/198 381/659/199 382/661/200 384/666/201 385/668/202 386/670/203 388/674/204 387/672/205
f 394/683/206 387/673/205 388/675/204 396/685/207
f 396/686/207 388/676/204 386/671/203 395/684/208
f 387/673/205 394/683/206 391/680/209 383/665/198
f 383/665/198 391/680/209 389/677/210 381/660/199
f 395/684/208 386/671/203 385/669/202 393/682/211
f 393/682/211 385/669/202 384/667/201 392/681/212
f 381/660/199 389/677/210 390/678/213 382/662/200
f 382/663/200 390/679/213 392/681/212 384/667/201
f 399/692/214 397/687/215 398/689/216 400/694/217 401/696/218 402/698/219 404/702/220 403/700/221
f 410/711/222 403/701/221 404/703/220 412/713/223
f 412/714/223 404/704/220 402/699/219 411/712/224
f 403/701/221 410/711/222 407/708/225 399/693/214
f 399/693/214 407/708/225 405/705/226 397/688/215
f 411/712/224 402/699/219 401/697/218 409/710/227
f 409/710/227 401/697/218 400/695/217 408/709/228
f 397/688/215 405/705/226 406/706/229 398/690/216
f 398/691/216 406/707/229 408/709/228 400/695/217
f 415/720/230 413/715/231 414/717/232 416/722/233 417/724/234 418/726/235 420/730/236 419/728/237
f 426/739/238 419/729/237 420/731/236 428/741/239
f 428/742/239 420/732/236 418/727/235 427/740/240
f 419/729/237 426/739/238 423/736/241 415/721/230
f 415/721/230 423/736/241 421/733/242 413/716/231
f 427/740/240 418/727/235 417/725/234 425/738/243
f 425/738/243 417/725/234 416/723/233 424/737/244
f 413/716/231 421/733/242 422/734/245 414/718/232
f 414/719/232 422/735/245 424/737/244 416/723/233
usemtl electronics_etx_part_2
f 5/11/1 7/15/1 3/5/1 1/1/1
f 136/241/2 135/237/2 134/234/2 137/244/2
f 105/179/3 116/191/4 122/202/5
f 127/215/6 128/218/6 124/206/6 123/203/6
f 18/37/7 15/30/7 16/34/8 20/40/8
f 130/223/9 125/210/9 133/232/9 138/246/9
f 34/64/1 14/28/1 25/48/1 35/65/1
f 126/212/10 137/242/10 133/231/10 125/209/10
f 12/23/1 14/28/1 34/64/1 13/27/1
f 26/50/1 35/65/1 25/48/1 24/45/1
f 32/61/1 36/66/1 31/60/1 30/56/1
f 47/84/11 46/83/12 40/73/13 41/75/14
f 81/146/15 80/145/16 79/142/17 82/147/18
f 88/156/19 87/155/20 85/151/21 86/153/22
f 86/153/22 85/151/21 83/149/23 84/150/24
f 59/99/25 58/96/26 38/69/27 44/81/28
f 91/162/29 81/146/15 82/147/18 92/163/30
f 94/165/31 86/153/22 84/150/24 93/164/32
f 95/166/33 88/156/19 86/153/22 94/165/31
f 98/169/34 97/168/35 71/123/36 72/127/37
f 33/63/1 16/33/1 15/31/1 17/35/1
f 91/162/29 92/163/30 95/166/33 94/165/31
f 51/88/38 52/89/39 50/87/40
f 103/177/41 102/175/42 89/159/43 90/161/44
f 100/171/45 99/170/46 97/168/35 98/169/34
f 97/168/35 82/147/18 79/142/17 71/123/36
f 99/170/46 92/163/30 82/147/18 97/168/35
f 65/111/47 58/95/47 71/124/47 101/174/47
f 77/137/48 87/154/48 89/157/49 78/139/49
f 89/158/50 63/103/50 66/113/50 78/140/50
f 104/178/51 103/177/41 90/161/44 96/167/52
f 75/133/53 83/148/53 85/152/54 76/135/54
f 76/135/54 85/152/54 87/154/48 77/137/48
f 45/82/55 44/81/28 38/69/27 39/71/56
f 46/83/12 45/82/55 39/71/56 40/73/13
f 48/85/57 47/84/11 41/75/14 42/77/58
f 62/102/59 48/85/57 42/77/58 63/105/60
f 93/164/32 84/150/24 81/146/15 91/162/29
f 51/88/38 50/87/40 45/82/55 46/83/12
f 52/89/39 51/88/38 46/83/12 47/84/11
f 50/87/40 49/86/61 44/81/28 45/82/55
f 61/101/62 53/90/63 48/85/57 62/102/59
f 56/93/64 54/91/65 59/99/25 60/100/66
f 49/86/61 53/90/63 61/101/62 60/100/66
f 93/164/32 91/162/29 94/165/31
f 54/91/65 37/67/67 58/96/26 59/99/25
f 57/94/68 61/101/62 62/102/59 55/92/69
f 69/120/6 70/122/6 436/761/6 435/758/6
f 96/167/52 90/161/44 88/156/19 95/166/33
f 60/100/66 61/101/62 57/94/68 56/93/64
f 65/109/70 64/107/71 38/70/71 58/97/70
f 67/115/72 66/112/73 63/104/73 42/78/74
f 68/117/75 67/115/72 42/78/74 41/76/75
f 69/119/76 68/117/75 41/76/75 40/74/76
f 70/121/77 69/119/76 40/74/76 39/72/77
f 64/107/71 70/121/77 39/72/77 38/70/71
f 114/188/78 122/202/5 121/201/79
f 111/185/80 115/189/81 119/197/82
f 27/52/83 30/57/83 31/59/84 29/55/84
f 109/183/85 110/184/86 119/197/82 118/195/87
f 120/199/88 119/197/82 115/189/81
f 108/182/89 109/183/85 118/195/87
f 116/190/1 117/192/1 118/194/1 119/196/1
f 121/200/1 116/190/1 119/196/1 120/198/1
f 116/191/4 121/201/79 122/202/5
f 72/128/37 71/125/36 58/98/26 37/68/67
f 120/199/88 112/186/90 113/187/91
f 115/189/81 112/186/90 120/199/88
f 106/180/92 107/181/93 117/193/94
f 78/140/95 66/113/96 433/753/7 442/772/83
f 116/191/4 106/180/92 117/193/94
f 116/191/4 105/179/3 106/180/92
f 108/182/89 117/193/94 107/181/93
f 114/188/78 121/201/79 113/187/91
f 119/197/82 110/184/86 111/185/80
f 73/129/97 80/144/97 83/148/53 75/133/53
f 53/90/63 52/89/39 47/84/11 48/85/57
f 32/61/1 16/33/1 33/63/1 36/66/1
f 30/58/83 27/53/83 28/54/98 32/62/98
f 123/204/99 125/210/99 130/223/99 127/216/99
f 55/92/69 62/102/59 63/105/60 43/79/100
f 60/100/66 59/99/25 44/81/28 49/86/61
f 50/87/40 52/89/39 53/90/63 49/86/61
f 74/131/101 79/143/101 80/144/97 73/129/97
f 92/163/30 99/170/46 96/167/52 95/166/33
f 123/205/102 124/207/102 126/213/102 125/211/102
f 138/245/102 132/228/102 135/238/102 136/240/102
f 17/36/103 19/39/103 11/22/104 13/26/104
f 131/225/6 134/235/6 135/239/6 132/229/6
f 26/51/105 22/43/105 29/55/84 31/59/84
f 90/161/44 89/159/43 87/155/20 88/156/19
f 36/66/1 35/65/1 26/50/1 31/60/1
f 129/221/6 130/224/6 138/245/6 136/240/6
f 33/63/1 34/64/1 35/65/1 36/66/1
f 14/29/106 10/21/106 23/44/107 25/49/107
f 133/232/108 131/226/108 132/230/108 138/246/108
f 24/46/109 21/41/109 22/43/105 26/51/105
f 130/224/110 129/221/110 128/219/110 127/217/110
f 21/42/109 24/47/109 25/49/107 23/44/107
f 6/13/102 5/12/102 1/2/102 2/3/102
f 4/8/6 2/3/6 1/2/6 3/6/6
f 133/233/110 137/243/110 134/236/110 131/227/110
f 124/208/2 128/220/2 129/222/2 126/214/2
f 101/172/111 71/126/111 79/143/101 74/131/101
f 9/19/112 12/24/112 13/26/104 11/22/104
f 84/150/24 83/149/23 80/145/16 81/146/15
f 12/25/112 9/20/112 10/21/106 14/29/106
f 32/62/98 28/54/98 20/40/8 16/34/8
f 101/173/113 74/132/10 437/763/10 431/748/109
f 77/138/10 78/141/95 442/773/83 441/771/10
f 75/134/10 76/136/10 440/769/10 439/767/10
f 89/160/43 102/176/42 43/80/100 63/106/60
f 8/17/2 6/14/2 2/4/2 4/9/2
f 99/170/46 100/171/45 104/178/51 96/167/52
f 34/64/1 33/63/1 17/35/1 13/27/1
f 68/118/6 69/120/6 435/758/6 434/757/6
f 15/32/7 18/38/7 19/39/103 17/36/103
f 7/16/110 8/18/110 4/10/110 3/7/110
f 129/222/2 136/241/2 137/244/2 126/214/2
f 118/195/87 117/193/94 108/182/89
f 121/201/79 120/199/88 113/187/91
f 165/285/114 164/282/115 148/256/115 149/257/114
f 180/306/115 196/332/115 197/334/114 181/307/114
f 164/282/115 163/280/1 147/255/1 148/256/115
f 185/312/116 201/343/116 202/345/117 186/313/117
f 157/268/118 156/266/119 140/248/119 141/249/118
f 163/281/102 164/283/102 170/296/102 155/265/102
f 186/313/117 202/345/117 188/316/2 172/298/2
f 183/309/6 199/338/6 200/341/120 184/311/120
f 179/305/1 195/330/1 196/332/115 180/306/115
f 176/302/121 192/324/121 193/327/122 177/303/122
f 174/300/123 190/320/123 191/322/10 175/301/10
f 173/299/118 189/319/118 190/320/123 174/300/123
f 155/264/2 170/295/117 154/263/117 139/247/2
f 168/291/120 167/288/6 151/259/6 152/261/120
f 163/280/1 162/278/124 146/254/124 147/255/1
f 161/276/122 160/274/121 144/252/121 145/253/122
f 160/274/121 159/272/10 143/251/10 144/252/121
f 159/272/10 158/270/123 142/250/123 143/251/10
f 158/270/123 157/268/118 141/249/118 142/250/123
f 156/266/119 155/264/2 139/247/2 140/248/119
f 195/331/110 188/317/110 202/346/110 196/333/110
f 161/277/102 157/269/102 158/271/102 160/275/102
f 197/335/110 201/344/110 200/342/110 198/337/110
f 193/326/110 189/318/110 187/315/110 194/329/110
f 162/278/124 161/276/122 145/253/122 146/254/124
f 184/311/120 200/341/120 201/343/116 185/312/116
f 167/289/6 166/287/125 150/258/125 151/260/6
f 169/293/116 168/291/120 152/261/120 153/262/116
f 170/295/117 169/293/116 153/262/116 154/263/117
f 170/296/102 164/283/102 165/284/102 169/294/102
f 165/284/102 166/286/102 168/292/102 169/294/102
f 155/265/102 156/267/102 162/279/102 163/281/102
f 162/279/102 156/267/102 157/269/102 161/277/102
f 168/292/102 166/286/102 167/290/102
f 160/275/102 158/271/102 159/273/102
f 192/325/110 190/321/110 189/318/110 193/326/110
f 172/298/2 188/316/2 187/314/119 171/297/119
f 171/297/119 187/314/119 189/319/118 173/299/118
f 175/301/10 191/322/10 192/324/121 176/302/121
f 177/303/122 193/327/122 194/328/124 178/304/124
f 178/304/124 194/328/124 195/330/1 179/305/1
f 181/307/114 197/334/114 198/336/125 182/308/125
f 166/287/125 165/285/114 149/257/114 150/258/125
f 182/308/125 198/336/125 199/339/6 183/310/6
f 200/342/110 199/340/110 198/337/110
f 190/321/110 192/325/110 191/323/110
f 194/329/110 187/315/110 188/317/110 195/331/110
f 196/333/110 202/346/110 201/344/110 197/335/110
f 229/397/126 228/395/126 220/379/126 221/380/126
f 211/357/127 218/373/127 210/356/127 203/347/127
f 216/369/128 215/366/128 207/352/128 208/354/128
f 253/437/10 254/439/10 257/445/10 258/447/10
f 254/439/10 255/441/10 256/443/10 257/445/10
f 255/442/127 254/440/127 246/423/127 247/425/127
f 252/436/128 251/434/128 243/418/128 244/420/128
f 212/360/129 211/358/129 203/348/129 204/349/129
f 213/362/126 212/360/126 204/349/126 205/350/126
f 214/364/130 213/362/130 205/350/130 206/351/130
f 215/367/131 214/364/131 206/351/131 207/353/131
f 217/371/132 216/369/132 208/354/132 209/355/132
f 218/373/133 217/371/133 209/355/133 210/356/133
f 226/391/10 225/388/10 217/372/10 218/374/10
f 244/419/10 243/417/10 235/409/134 236/410/135
f 220/378/10 219/377/10 211/359/10 212/361/10
f 245/421/10 244/419/10 236/410/135 237/411/136
f 221/381/10 220/378/10 212/361/10 213/363/10
f 227/392/127 234/407/127 226/390/127 219/375/127
f 234/407/133 233/406/133 225/389/133 226/390/133
f 232/404/128 231/402/128 223/385/128 224/387/128
f 230/400/130 229/397/130 221/380/130 222/383/130
f 228/395/129 227/393/129 219/376/129 220/379/129
f 235/409/134 242/416/137 234/408/138 227/394/139
f 242/416/137 241/415/140 233/405/141 234/408/138
f 236/410/135 235/409/134 227/394/139 228/396/142
f 237/411/136 236/410/135 228/396/142 229/398/143
f 250/431/10 249/429/10 241/415/140 242/416/137
f 254/440/133 253/438/133 245/422/133 246/423/133
f 256/444/129 255/442/129 247/425/129 248/428/129
f 252/435/10 253/437/10 258/447/10 251/433/10
f 247/426/10 246/424/10 238/412/144 239/413/145
f 222/382/10 221/381/10 213/363/10 214/365/10
f 248/427/10 247/426/10 239/413/145 240/414/146
f 238/412/144 237/411/136 229/398/143 230/399/147
f 240/414/146 239/413/145 231/401/148 232/403/149
f 241/415/140 240/414/146 232/403/149 233/405/141
f 239/413/145 238/412/144 230/399/147 231/401/148
f 246/424/10 245/421/10 237/411/136 238/412/144
f 243/417/10 250/431/10 242/416/137 235/409/134
f 223/384/10 222/382/10 214/365/10 215/368/10
f 219/377/10 226/391/10 218/374/10 211/359/10
f 225/388/10 224/386/10 216/370/10 217/372/10
f 249/429/10 248/427/10 240/414/146 241/415/140
f 224/386/10 223/384/10 215/368/10 216/370/10
f 231/402/131 230/400/131 222/383/131 223/385/131
f 251/434/131 258/448/131 250/432/131 243/418/131
f 258/448/130 257/446/130 249/430/130 250/432/130
f 257/446/126 256/444/126 248/428/126 249/430/126
f 253/438/132 252/436/132 244/420/132 245/422/132
f 233/406/132 232/404/132 224/387/132 225/389/132
f 259/449/3 270/461/4 276/472/5
f 268/458/78 276/472/5 275/471/79
f 265/455/80 269/459/81 273/467/82
f 263/453/85 264/454/86 273/467/82 272/465/87
f 274/469/88 273/467/82 269/459/81
f 262/452/89 263/453/85 272/465/87
f 270/460/1 271/462/1 272/464/1 273/466/1
f 275/470/1 270/460/1 273/466/1 274/468/1
f 270/461/4 275/471/79 276/472/5
f 274/469/88 266/456/90 267/457/91
f 269/459/81 266/456/90 274/469/88
f 260/450/92 261/451/93 271/463/94
f 270/461/4 260/450/92 271/463/94
f 270/461/4 259/449/3 260/450/92
f 262/452/89 271/463/94 261/451/93
f 268/458/78 275/471/79 267/457/91
f 273/467/82 264/454/86 265/455/80
f 272/465/87 271/463/94 262/452/89
f 275/471/79 274/469/88 267/457/91
f 303/523/126 302/521/126 294/505/126 295/506/126
f 285/483/127 292/499/127 284/482/127 277/473/127
f 290/495/128 289/492/128 281/478/128 282/480/128
f 327/563/10 328/565/10 331/571/10 332/573/10
f 328/565/10 329/567/10 330/569/10 331/571/10
f 329/568/127 328/566/127 320/549/127 321/551/127
f 326/562/128 325/560/128 317/544/128 318/546/128
f 286/486/129 285/484/129 277/474/129 278/475/129
f 287/488/126 286/486/126 278/475/126 279/476/126
f 288/490/130 287/488/130 279/476/130 280/477/130
f 289/493/131 288/490/131 280/477/131 281/479/131
f 291/497/132 290/495/132 282/480/132 283/481/132
f 292/499/133 291/497/133 283/481/133 284/482/133
f 300/517/10 299/514/10 291/498/10 292/500/10
f 318/545/10 317/543/10 309/535/134 310/536/135
f 294/504/10 293/503/10 285/485/10 286/487/10
f 319/547/10 318/545/10 310/536/135 311/537/136
f 295/507/10 294/504/10 286/487/10 287/489/10
f 301/518/127 308/533/127 300/516/127 293/501/127
f 308/533/133 307/532/133 299/515/133 300/516/133
f 306/530/128 305/528/128 297/511/128 298/513/128
f 304/526/130 303/523/130 295/506/130 296/509/130
f 302/521/129 301/519/129 293/502/129 294/505/129
f 309/535/134 316/542/137 308/534/138 301/520/139
f 316/542/137 315/541/140 307/531/141 308/534/138
f 310/536/135 309/535/134 301/520/139 302/522/142
f 311/537/136 310/536/135 302/522/142 303/524/143
f 324/557/10 323/555/10 315/541/140 316/542/137
f 328/566/133 327/564/133 319/548/133 320/549/133
f 330/570/129 329/568/129 321/551/129 322/554/129
f 326/561/10 327/563/10 332/573/10 325/559/10
f 321/552/10 320/550/10 312/538/144 313/539/145
f 296/508/10 295/507/10 287/489/10 288/491/10
f 322/553/10 321/552/10 313/539/145 314/540/146
f 312/538/144 311/537/136 303/524/143 304/525/147
f 314/540/146 313/539/145 305/527/148 306/529/149
f 315/541/140 314/540/146 306/529/149 307/531/141
f 313/539/145 312/538/144 304/525/147 305/527/148
f 320/550/10 319/547/10 311/537/136 312/538/144
f 317/543/10 324/557/10 316/542/137 309/535/134
f 297/510/10 296/508/10 288/491/10 289/494/10
f 293/503/10 300/517/10 292/500/10 285/485/10
f 299/514/10 298/512/10 290/496/10 291/498/10
f 323/555/10 322/553/10 314/540/146 315/541/140
f 298/512/10 297/510/10 289/494/10 290/496/10
f 305/528/131 304/526/131 296/509/131 297/511/131
f 325/560/131 332/574/131 324/558/131 317/544/131
f 332/574/130 331/572/130 323/556/130 324/558/130
f 331/572/126 330/570/126 322/554/126 323/556/126
f 327/564/132 326/562/132 318/546/132 319/548/132
f 307/532/132 306/530/132 298/513/132 299/515/132
f 441/770/1 442/774/1 433/754/1 432/751/1
f 437/762/1 430/746/1 429/743/1 431/749/1
f 438/764/1 436/760/1 430/746/1 437/762/1
f 439/766/1 435/759/1 436/760/1 438/764/1
f 441/770/1 432/751/1 434/756/1 440/768/1
f 440/768/1 434/756/1 435/759/1 439/766/1
f 76/136/10 77/138/10 441/771/10 440/769/10
f 66/114/96 67/116/6 432/752/6 433/755/7
f 70/122/6 64/108/6 430/747/6 436/761/6
f 74/132/10 73/130/10 438/765/10 437/763/10
f 64/108/6 65/110/246 429/744/112 430/747/6
f 67/116/6 68/118/6 434/757/6 432/752/6
f 73/130/10 75/134/10 439/767/10 438/765/10
f 65/111/246 101/174/113 431/750/109 429/745/112
s 0
f 457/789/110 458/790/110 460/793/110 459/792/110
f 463/798/102 464/799/102 462/796/102 461/795/102
f 461/795/1 462/796/1 458/790/1 457/789/1
f 459/792/6 463/798/6 461/795/6 457/789/6
f 458/791/10 462/797/10 464/800/10 460/794/10
f 465/801/251 471/816/251 472/818/251 466/804/251
f 469/811/252 470/813/252 468/810/252 467/806/252
f 467/807/1 468/810/1 471/817/1 465/802/1
f 466/805/6 469/812/6 467/808/6 465/803/6
f 468/809/6 470/814/6 474/823/6 473/820/6
f 473/821/102 474/824/102 476/828/102 475/826/102
f 471/817/1 468/810/1 473/822/1 475/827/1
f 470/815/2 472/819/2 476/829/2 474/825/2
f 472/819/10 471/817/10 475/827/10 476/829/10
f 477/830/253 478/833/253 484/847/253 483/845/253
f 481/841/254 479/835/254 480/838/254 482/844/254
f 479/836/1 477/831/1 483/846/1 480/840/1
f 478/834/6 477/832/6 479/837/6 481/842/6
f 480/839/6 485/849/6 486/852/6 482/843/6
f 485/850/110 487/855/110 488/857/110 486/853/110
f 483/846/1 487/856/1 485/851/1 480/840/1
f 482/844/2 486/854/2 488/858/2 484/848/2
f 484/848/10 488/858/10 487/856/10 483/846/10
s 1
usemtl glass_etx_1
f 454/786/247 455/787/248 445/777/248 446/778/247
f 451/783/249 443/775/249 444/776/250 456/788/250
f 450/782/131 449/781/131 443/775/249 451/783/249
f 452/784/1 448/780/1 449/781/131 450/782/131
f 454/786/247 446/778/247 447/779/128 453/785/128
f 453/785/128 447/779/128 448/780/1 452/784/1
o signal_receiver_etx_1_pointer_child_1
v 0.046352 0.076842 0.061562
v 0.049361 0.075893 0.061562
v 0.044895 0.079640 0.061562
v 0.052160 0.077350 0.061562
v 0.053108 0.080359 0.061562
v 0.051652 0.083158 0.061562
v 0.045844 0.082649 0.061562
v 0.048643 0.084106 0.061562
v 0.046352 0.076842 0.065882
v 0.044895 0.079640 0.065882
v 0.051652 0.083158 0.065882
v 0.053108 0.080359 0.065882
v 0.049361 0.075893 0.065882
v 0.048643 0.084106 0.065882
v 0.045844 0.082649 0.065882
v 0.052160 0.077350 0.065882
v 0.062620 0.072333 0.063482
v 0.058917 0.067920 0.063482
v 0.062620 0.072333 0.064442
v 0.058917 0.067920 0.064442
v 0.025588 0.098394 0.063482
v 0.026822 0.099864 0.063482
v 0.025588 0.098394 0.064442
v 0.026822 0.099864 0.064442
vn -0.4617 0.8870 -0.0000
vn -0.0000 -0.0000 1.0000
vn 0.3007 0.9537 -0.0000
vn 0.8870 0.4617 -0.0000
vn 0.4617 -0.8870 -0.0000
vn -0.9537 0.3007 -0.0000
vn -0.3007 -0.9537 -0.0000
vn -0.8870 -0.4617 -0.0000
vn 0.9537 -0.3007 -0.0000
vn -0.6748 -0.7380 -0.0000
vn -0.0000 -0.0000 -1.0000
vn 0.6096 0.7927 -0.0000
vn 0.7660 -0.6428 -0.0000
vn -0.7660 0.6428 -0.0000
vt 0.184572 0.186206
vt 0.185430 0.185848
vt 0.185430 0.188681
vt 0.187500 0.189250
vt 0.189570 0.185848
vt 0.190428 0.186206
vt 0.187500 0.191099
vt 0.189570 0.188681
vt 0.184572 0.186206
vt 0.185430 0.188681
vt 0.190428 0.186206
vt 0.189570 0.185848
vt 0.185430 0.185848
vt 0.189570 0.188681
vt 0.187500 0.191099
vt 0.187500 0.189250
vt 0.189725 0.183054
vt 0.187841 0.183052
vt 0.189620 0.195653
vt 0.187841 0.183052
vt 0.185275 0.183054
vt 0.185380 0.195653
vt 0.186989 0.183052
vt 0.189586 0.183055
vt 0.189620 0.194801
vt 0.186989 0.183052
vt 0.185414 0.183055
vt 0.185381 0.194801
vt 0.187841 0.215064
vt 0.186574 0.215062
vt 0.186389 0.195653
vt 0.188426 0.215062
vt 0.187841 0.215064
vt 0.188611 0.195653
vt 0.186989 0.215064
vt 0.186450 0.215064
vt 0.186389 0.194801
vt 0.186989 0.215064
vt 0.188550 0.215064
vt 0.188611 0.194801
s 0
usemtl electronics_etx_part_1
f 496/866/255 495/865/255 503/873/255 502/872/255
f 504/874/256 500/870/256 499/869/256 502/872/256 503/873/256 498/868/256 497/867/256 501/871/256
f 494/864/257 496/866/257 502/872/257 499/869/257
f 493/863/258 494/864/258 499/869/258 500/870/258
f 490/860/259 492/862/259 504/874/259 501/871/259
f 495/865/260 491/861/260 498/868/260 503/873/260
f 489/859/261 490/860/261 501/871/261 497/867/261
f 491/861/262 489/859/262 497/867/262 498/868/262
f 492/862/263 493/863/263 500/870/263 504/874/263
f 506/878/264 508/884/264 511/893/264 509/887/264
f 505/875/265 506/879/265 509/888/265 510/890/265
f 505/876/266 510/891/266 512/896/266 507/881/266
f 511/894/256 508/885/256 507/882/256 512/897/256
f 505/877/267 507/883/267 508/886/267 506/880/267
f 510/892/268 509/889/268 511/895/268 512/898/268
o signal_receiver_etx_1_handle_child_4
v 0.120913 0.259899 0.005350
v 0.121404 0.268400 0.004606
v 0.121404 0.265332 -0.030464
v 0.120913 0.256830 -0.029720
v 0.134902 0.256704 0.005630
v 0.138677 0.264388 0.004957
v 0.138677 0.261320 -0.030113
v 0.134902 0.253635 -0.029441
v 0.149244 0.242416 0.006880
v 0.156958 0.246176 0.006551
v 0.156958 0.243108 -0.028520
v 0.149244 0.239348 -0.028191
v 0.152451 0.228480 0.008099
v 0.160986 0.228969 0.008056
v 0.160986 0.225901 -0.027014
v 0.152451 0.225412 -0.026972
v 0.152451 0.145162 0.015388
v 0.160986 0.145162 0.015388
v 0.160986 0.142094 -0.019682
v 0.152451 0.142094 -0.019682
v 0.160986 0.132662 -0.000903
v 0.152451 0.132662 -0.000903
v 0.160986 0.133844 -0.009761
v 0.152451 0.133844 -0.009761
v 0.160986 0.135388 0.007896
v 0.152451 0.135388 0.007896
v -0.120913 0.259899 0.005350
v -0.121404 0.268400 0.004606
v -0.121404 0.265332 -0.030464
v -0.120913 0.256830 -0.029720
v -0.134902 0.256704 0.005629
v -0.138677 0.264388 0.004957
v -0.138677 0.261320 -0.030113
v -0.134902 0.253635 -0.029441
v -0.149244 0.242416 0.006880
v -0.156958 0.246176 0.006551
v -0.156958 0.243108 -0.028520
v -0.149244 0.239348 -0.028191
v -0.152451 0.228480 0.008099
v -0.160986 0.228969 0.008056
v -0.160986 0.225901 -0.027015
v -0.152451 0.225412 -0.026972
v -0.152451 0.145162 0.015388
v -0.160986 0.145162 0.015388
v -0.160986 0.135388 0.007896
v -0.160986 0.142094 -0.019682
v -0.152451 0.142094 -0.019682
v -0.152451 0.133844 -0.009761
v -0.160986 0.133844 -0.009761
v -0.160986 0.132662 -0.000903
v -0.152451 0.132662 -0.000903
v -0.152451 0.135388 0.007896
v 0.149164 0.256624 0.005637
v 0.143129 0.250612 0.006162
v 0.143129 0.247543 -0.028908
v 0.149164 0.253555 -0.029434
v -0.143129 0.250612 0.006162
v -0.149164 0.256624 0.005636
v -0.149164 0.253555 -0.029434
v -0.143129 0.247543 -0.028908
vn -0.0000 0.0872 0.9962
vn -0.4206 0.9038 -0.0791
vn -0.7071 0.7044 -0.0616
vn -0.0000 -0.0872 -0.9962
vn 0.4189 -0.9046 0.0791
vn 0.1124 -0.9899 0.0866
vn -0.9934 0.1139 -0.0100
vn -0.9072 0.4190 -0.0367
vn 0.7071 0.7044 -0.0616
vn 0.9072 0.4190 -0.0367
vn 0.9934 0.1139 -0.0100
vn -0.0000 -0.8204 0.5717
vn -0.0000 -0.2796 0.9601
vn 1.0000 -0.0000 -0.0000
vn -0.0000 -0.9965 0.0838
vn -0.9937 -0.1120 0.0098
vn -0.9080 -0.4173 0.0365
vn -0.7071 -0.7044 0.0616
vn -0.4189 -0.9046 0.0791
vn 0.7071 -0.7044 0.0616
vn 0.4206 0.9038 -0.0791
vn 0.1143 0.9897 -0.0866
vn -0.0000 -0.4637 -0.8860
vn -0.1124 -0.9899 0.0866
vn -1.0000 -0.0000 -0.0000
vn -0.0000 -0.9159 -0.4015
vn 0.9080 -0.4173 0.0365
vn 0.9937 -0.1120 0.0098
vn -0.1143 0.9897 -0.0866
vt 0.847494 0.270130
vt 0.994279 0.338235
vt 0.798371 0.100674
vt 0.999760 0.337920
vt 0.999861 0.493851
vt 0.820979 0.100674
vt 0.994380 0.493536
vt 0.824886 0.270130
vt 0.847494 0.260914
vt 0.992220 0.329251
vt 0.798371 0.089284
vt 0.997173 0.326827
vt 0.820979 0.089284
vt 0.997274 0.504944
vt 0.824886 0.260914
vt 0.992321 0.502520
vt 0.847494 0.247747
vt 0.983009 0.320040
vt 0.798371 0.072502
vt 0.985433 0.315087
vt 0.820979 0.072502
vt 0.985534 0.516684
vt 0.983110 0.511730
vt 0.824886 0.247747
vt 0.974026 0.317981
vt 0.847494 0.238531
vt 0.974341 0.312500
vt 0.798371 0.061112
vt 0.974441 0.519271
vt 0.820979 0.061112
vt 0.974126 0.513790
vt 0.824886 0.238531
vt 0.920314 0.317981
vt 0.847494 0.184819
vt 0.798371 0.007085
vt 0.920314 0.312500
vt 0.820980 0.007085
vt 0.920415 0.519271
vt 0.920415 0.513790
vt 0.824886 0.184819
vt 0.906490 0.312500
vt 0.906389 0.519271
vt 0.809493 0.000000
vt 0.906490 0.317981
vt 0.836372 0.177734
vt 0.906389 0.513790
vt 0.912128 0.519271
vt 0.815094 0.001252
vt 0.912128 0.513790
vt 0.830772 0.178986
vt 0.912405 0.312500
vt 0.803712 0.001252
vt 0.912405 0.317981
vt 0.842154 0.178986
vt 0.847494 0.425432
vt 0.994279 0.493536
vt 0.798371 0.256606
vt 0.999760 0.493851
vt 0.999861 0.337920
vt 0.820979 0.256606
vt 0.994380 0.338235
vt 0.824886 0.425432
vt 0.847494 0.434648
vt 0.992220 0.502520
vt 0.798371 0.267996
vt 0.997173 0.504944
vt 0.997274 0.326827
vt 0.820979 0.267996
vt 0.992321 0.329251
vt 0.824886 0.434648
vt 0.847494 0.447815
vt 0.983009 0.511730
vt 0.798371 0.284779
vt 0.985433 0.516684
vt 0.820979 0.284779
vt 0.985534 0.315087
vt 0.983110 0.320041
vt 0.824886 0.447815
vt 0.974025 0.513790
vt 0.847494 0.457031
vt 0.974341 0.519271
vt 0.798371 0.296169
vt 0.974441 0.312500
vt 0.820979 0.296169
vt 0.974126 0.317981
vt 0.824886 0.457031
vt 0.920314 0.513790
vt 0.847494 0.510743
vt 0.920314 0.519271
vt 0.798371 0.350195
vt 0.912405 0.519271
vt 0.803712 0.356029
vt 0.920415 0.312500
vt 0.820979 0.350195
vt 0.920415 0.317981
vt 0.824886 0.510743
vt 0.912128 0.317981
vt 0.830771 0.516576
vt 0.912128 0.312500
vt 0.815094 0.356029
vt 0.906389 0.312500
vt 0.906490 0.519271
vt 0.809493 0.357280
vt 0.836372 0.517828
vt 0.906389 0.317981
vt 0.906490 0.513790
vt 0.912405 0.513790
vt 0.842154 0.516576
vt 0.798371 0.080893
vt 0.992168 0.320092
vt 0.847494 0.254331
vt 0.988293 0.323968
vt 0.824886 0.254331
vt 0.988393 0.507803
vt 0.820979 0.080893
vt 0.992269 0.511679
vt 0.847494 0.441231
vt 0.988293 0.507803
vt 0.798371 0.276387
vt 0.992168 0.511679
vt 0.820979 0.276387
vt 0.992269 0.320092
vt 0.988393 0.323968
vt 0.824886 0.441231
s 1
usemtl electronics_etx_part_2
f 548/972/269 552/979/269 551/977/269 547/970/269
f 544/963/270 545/966/270 571/1019/271 570/1017/271
f 542/959/272 546/967/272 545/965/272 541/957/272
f 546/968/273 542/960/274 539/953/274 543/961/273
f 553/982/275 552/980/275 548/971/276 549/973/276
f 568/1013/277 565/1007/277 522/917/278 523/919/278
f 517/908/269 566/1010/269 565/1008/269 518/910/269
f 527/928/279 523/919/278 522/917/278 526/926/279
f 564/1005/280 555/985/281 556/987/281 557/989/280
f 535/946/282 531/935/282 530/933/282 537/950/282
f 564/1006/282 563/1002/282 560/996/282
f 534/942/283 533/939/283 537/949/280 538/951/280
f 551/977/269 552/979/269 556/987/281 555/985/281
f 523/920/272 527/927/272 528/929/272 524/921/272
f 570/1017/271 571/1019/271 549/973/276 548/971/276
f 550/975/272 554/983/272 553/981/272 549/974/272
f 525/924/284 521/915/285 524/922/285 528/930/284
f 515/903/272 519/912/272 520/914/272 516/905/272
f 521/916/269 525/923/269 526/925/269 522/918/269
f 571/1020/272 572/1021/272 550/975/272 549/974/272
f 546/967/272 572/1021/272 571/1020/272 545/965/272
f 568/1014/272 523/920/272 524/921/272 567/1012/272
f 566/1009/286 517/907/287 520/913/287 567/1011/286
f 543/961/273 569/1015/288 572/1022/288 546/968/273
f 519/911/289 515/904/290 514/901/290 518/909/289
f 553/981/272 554/983/272 559/993/291 558/991/291
f 517/907/287 513/899/292 516/906/292 520/913/287
f 553/982/275 558/992/293 556/988/293 552/980/275
f 560/995/294 563/1003/283 562/999/283 561/997/294
f 563/1004/283 564/1005/280 557/989/280 562/1000/283
f 572/1022/288 569/1015/288 547/969/295 550/976/295
f 555/986/282 559/994/282 554/984/296 551/978/296
f 554/984/296 550/976/295 547/969/295 551/978/296
f 566/1009/286 567/1011/286 524/922/285 521/915/285
f 519/911/289 518/909/289 565/1007/277 568/1013/277
f 516/905/272 542/959/272 541/957/272 515/903/272
f 541/958/297 540/955/297 514/901/290 515/904/290
f 519/912/272 568/1014/272 567/1012/272 520/914/272
f 566/1010/269 521/916/269 522/918/269 565/1008/269
f 513/900/269 514/902/269 540/956/269 539/954/269
f 544/963/270 540/955/297 541/958/297 545/966/270
f 559/993/291 560/995/294 561/997/294 558/991/291
f 525/923/269 529/931/281 530/934/281 526/925/269
f 527/927/272 531/936/291 532/937/291 528/929/272
f 513/899/292 539/953/274 542/960/274 516/906/292
f 538/952/293 536/948/293 534/943/293
f 569/1016/269 570/1018/269 548/972/269 547/970/269
f 536/947/294 535/945/294 533/940/283 534/944/283
f 530/933/282 531/935/282 527/928/279 526/926/279
f 538/951/280 537/949/280 530/934/281 529/931/281
f 529/932/293 525/924/284 528/930/284 532/938/293
f 532/937/291 531/936/291 535/945/294 536/947/294
f 513/900/269 517/908/269 518/910/269 514/902/269
f 540/956/269 544/964/269 543/962/269 539/954/269
f 557/990/293 561/998/293 562/1001/293
f 544/964/269 570/1018/269 569/1016/269 543/962/269
f 556/988/293 558/992/293 561/998/293 557/990/293
f 555/986/282 564/1006/282 560/996/282 559/994/282
f 533/941/282 535/946/282 537/950/282
f 529/932/293 532/938/293 536/948/293 538/952/293
o signal_receiver_etx_1_button_child_2
v -0.100600 0.043125 0.050864
v -0.103431 0.048029 0.050864
v -0.109093 0.048029 0.050864
v -0.111925 0.043125 0.050864
v -0.109093 0.038222 0.050864
v -0.103431 0.038222 0.050864
v -0.100600 0.043125 0.055327
v -0.103431 0.048029 0.055327
v -0.109093 0.048029 0.055327
v -0.111925 0.043125 0.055327
v -0.109093 0.038222 0.055327
v -0.103431 0.038222 0.055327
vn -0.0000 1.0000 -0.0000
vn -0.0000 -0.0000 1.0000
vn -0.8660 0.5000 -0.0000
vn -0.8660 -0.5000 -0.0000
vn -0.0000 -1.0000 -0.0000
vn 0.8660 -0.5000 -0.0000
vn 0.8660 0.5000 -0.0000
vt 0.718081 0.582242
vt 0.718081 0.585878
vt 0.718081 0.589515
vt 0.718081 0.593151
vt 0.718081 0.596788
vt 0.718081 0.574969
vt 0.718081 0.578605
vt 0.721947 0.586059
vt 0.715215 0.582242
vt 0.721947 0.582422
vt 0.715215 0.585878
vt 0.725096 0.580604
vt 0.715215 0.589515
vt 0.728246 0.582422
vt 0.715215 0.593151
vt 0.728246 0.586059
vt 0.715215 0.596788
vt 0.715215 0.574969
vt 0.725096 0.587877
vt 0.715215 0.578605
s 1
usemtl electronics_etx_part_2
f 581/1035/298 580/1033/298 574/1024/298 575/1025/298
f 579/1030/299 580/1032/299 581/1034/299 582/1036/299 583/1038/299 584/1041/299
f 581/1035/300 575/1025/300 576/1026/300 582/1037/300
f 583/1039/301 582/1037/301 576/1026/301 577/1027/301
f 583/1040/302 577/1028/302 578/1029/302 584/1042/302
f 579/1031/303 584/1042/303 578/1029/303 573/1023/303
f 580/1033/304 579/1031/304 573/1023/304 574/1024/304
o signal_receiver_etx_1_button_child_3
v -0.054263 0.043125 0.050864
v -0.057095 0.048029 0.050864
v -0.062757 0.048029 0.050864
v -0.065588 0.043125 0.050864
v -0.062757 0.038222 0.050864
v -0.057095 0.038222 0.050864
v -0.054263 0.043125 0.055327
v -0.057095 0.048029 0.055327
v -0.062757 0.048029 0.055327
v -0.065588 0.043125 0.055327
v -0.062757 0.038222 0.055327
v -0.057095 0.038222 0.055327
vn -0.0000 1.0000 -0.0000
vn -0.0000 -0.0000 1.0000
vn -0.8660 0.5000 -0.0000
vn -0.8660 -0.5000 -0.0000
vn -0.0000 -1.0000 -0.0000
vn 0.8660 -0.5000 -0.0000
vn 0.8660 0.5000 -0.0000
vt 0.718081 0.582242
vt 0.718081 0.585878
vt 0.718081 0.589515
vt 0.718081 0.593151
vt 0.718081 0.596788
vt 0.718081 0.574969
vt 0.718081 0.578605
vt 0.721947 0.586059
vt 0.715215 0.582242
vt 0.721947 0.582422
vt 0.715215 0.585878
vt 0.725096 0.580604
vt 0.715215 0.589515
vt 0.728246 0.582422
vt 0.715215 0.593151
vt 0.728246 0.586059
vt 0.715215 0.596788
vt 0.715215 0.574969
vt 0.725096 0.587877
vt 0.715215 0.578605
s 1
usemtl electronics_etx_part_2
f 593/1055/305 592/1053/305 586/1044/305 587/1045/305
f 591/1050/306 592/1052/306 593/1054/306 594/1056/306 595/1058/306 596/1061/306
f 593/1055/307 587/1045/307 588/1046/307 594/1057/307
f 595/1059/308 594/1057/308 588/1046/308 589/1047/308
f 595/1060/309 589/1048/309 590/1049/309 596/1062/309
f 591/1051/310 596/1062/310 590/1049/310 585/1043/310
f 592/1053/311 591/1051/311 585/1043/311 586/1044/311
o signal_receiver_etx_1_knob_child
v -0.053606 0.096484 0.044324
v -0.055851 0.107769 0.044324
v -0.062243 0.117335 0.044324
v -0.071810 0.123728 0.044324
v -0.083094 0.125972 0.044324
v -0.094379 0.123728 0.044324
v -0.103946 0.117335 0.044324
v -0.110338 0.107769 0.044324
v -0.112583 0.096484 0.044324
v -0.110338 0.085200 0.044324
v -0.103946 0.075633 0.044324
v -0.094379 0.069241 0.044324
v -0.083094 0.066996 0.044324
v -0.071810 0.069241 0.044324
v -0.062243 0.075633 0.044324
v -0.055851 0.085200 0.044324
v -0.053606 0.096484 0.050980
v -0.055851 0.107769 0.050980
v -0.062243 0.117335 0.050980
v -0.071810 0.123728 0.050980
v -0.083094 0.125972 0.050980
v -0.094379 0.123728 0.050980
v -0.103946 0.117335 0.050980
v -0.110338 0.107769 0.050980
v -0.112583 0.096484 0.050980
v -0.110338 0.085200 0.050980
v -0.103946 0.075633 0.050980
v -0.094379 0.069241 0.050980
v -0.083094 0.066996 0.050980
v -0.071810 0.069241 0.050980
v -0.062243 0.075633 0.050980
v -0.055851 0.085200 0.050980
v -0.060776 0.096484 0.055713
v -0.062475 0.105025 0.055713
v -0.067313 0.112265 0.055713
v -0.074554 0.117103 0.055713
v -0.083094 0.118802 0.055713
v -0.091635 0.117103 0.055713
v -0.098876 0.112265 0.055713
v -0.103714 0.105025 0.055713
v -0.105413 0.096484 0.055713
v -0.103714 0.087943 0.055713
v -0.098876 0.080703 0.055713
v -0.091635 0.075865 0.055713
v -0.083094 0.074166 0.055713
v -0.074554 0.075865 0.055713
v -0.067313 0.080703 0.055713
v -0.062475 0.087943 0.055713
v -0.066094 0.103526 0.072279
v -0.076053 0.113485 0.072279
v -0.090136 0.113485 0.072279
v -0.100095 0.103526 0.072279
v -0.100095 0.089442 0.072279
v -0.090136 0.079483 0.072279
v -0.076053 0.079483 0.072279
v -0.066094 0.089442 0.072279
v -0.084024 0.119535 0.055816
v -0.084024 0.124935 0.052216
v -0.084024 0.119535 0.054832
v -0.084024 0.124935 0.051232
v -0.082224 0.119535 0.055816
v -0.082224 0.124935 0.052216
v -0.082224 0.119535 0.054832
v -0.082224 0.124935 0.051232
vn -0.3827 0.9239 -0.0000
vn -0.0000 1.0000 -0.0000
vn 0.3827 -0.9239 -0.0000
vn -0.0000 -1.0000 -0.0000
vn 0.9239 -0.3827 -0.0000
vn 0.7071 -0.7071 -0.0000
vn -0.3827 -0.9239 -0.0000
vn 0.7071 0.7071 -0.0000
vn 0.9239 0.3827 -0.0000
vn -0.7071 0.7071 -0.0000
vn 1.0000 -0.0000 -0.0000
vn 0.3827 0.9239 -0.0000
vn -0.9239 0.3827 -0.0000
vn -0.2109 -0.5090 0.8345
vn -0.3896 -0.3896 0.8345
vn -0.0000 -0.5510 0.8345
vn -0.5090 0.2109 0.8345
vn -0.3896 0.3896 0.8345
vn 0.2109 0.5090 0.8345
vn 0.3896 0.3896 0.8345
vn 0.2109 -0.5090 0.8345
vn -0.5510 -0.0000 0.8345
vn -0.0000 0.5510 0.8345
vn -0.2109 0.5090 0.8345
vn 0.5090 -0.2109 0.8345
vn 0.3896 -0.3896 0.8345
vn -0.5090 -0.2109 0.8345
vn 0.5510 -0.0000 0.8345
vn 0.5090 0.2109 0.8345
vn -0.8816 0.3652 0.2991
vn -0.3652 0.8816 0.2991
vn -0.6847 0.6847 0.2496
vn -0.9683 -0.0000 0.2496
vn -0.8816 -0.3652 0.2991
vn 0.8816 0.3652 0.2991
vn 0.6847 0.6847 0.2496
vn 0.3652 0.8816 0.2991
vn -0.3652 -0.8816 0.2991
vn -0.6847 -0.6847 0.2496
vn 0.8816 -0.3652 0.2991
vn 0.3652 -0.8816 0.2991
vn 0.6847 -0.6847 0.2496
vn -0.0000 0.9683 0.2496
vn -0.0000 -0.9683 0.2496
vn -0.0000 -0.0000 1.0000
vn -0.9239 -0.3827 -0.0000
vn -1.0000 -0.0000 -0.0000
vn -0.7071 -0.7071 -0.0000
vn 0.9683 -0.0000 0.2496
vn 0.3724 0.8991 0.2301
vn -0.3724 0.8991 0.2301
vn -0.8991 0.3724 0.2301
vn -0.8991 -0.3724 0.2301
vn -0.3724 -0.8991 0.2301
vn 0.3724 -0.8991 0.2301
vn 0.8991 -0.3724 0.2301
vn 0.8991 0.3724 0.2301
vn -0.0000 0.5547 0.8321
vt 0.560491 0.261510
vt 0.560491 0.253300
vt 0.560491 0.245090
vt 0.560491 0.236880
vt 0.560491 0.228670
vt 0.560491 0.220460
vt 0.560491 0.212250
vt 0.560491 0.204040
vt 0.560491 0.195830
vt 0.560491 0.187620
vt 0.560491 0.179410
vt 0.560491 0.171200
vt 0.560491 0.294350
vt 0.560491 0.162990
vt 0.560491 0.286140
vt 0.560491 0.277930
vt 0.560491 0.269720
vt 0.565241 0.261510
vt 0.722746 0.430308
vt 0.565241 0.253300
vt 0.714107 0.433923
vt 0.704720 0.433923
vt 0.565241 0.245090
vt 0.696041 0.430304
vt 0.565241 0.236880
vt 0.565241 0.228670
vt 0.689407 0.423623
vt 0.565241 0.220460
vt 0.685833 0.414908
vt 0.565241 0.212250
vt 0.685863 0.405491
vt 0.689487 0.396810
vt 0.565241 0.204040
vt 0.696148 0.390190
vt 0.565241 0.195830
vt 0.704821 0.386642
vt 0.565241 0.187620
vt 0.714168 0.386700
vt 0.565241 0.179410
vt 0.722764 0.390367
vt 0.565241 0.171200
vt 0.565241 0.294350
vt 0.565241 0.162990
vt 0.729278 0.397068
vt 0.732741 0.405735
vt 0.565241 0.286140
vt 0.732773 0.415018
vt 0.565241 0.277930
vt 0.565241 0.269720
vt 0.729298 0.423654
vt 0.719595 0.425230
vt 0.719025 0.425609
vt 0.753994 0.494820
vt 0.712485 0.428134
vt 0.713159 0.428004
vt 0.751370 0.489164
vt 0.705456 0.427940
vt 0.706129 0.428080
vt 0.749265 0.483295
vt 0.699593 0.425439
vt 0.699023 0.425051
vt 0.747786 0.477238
vt 0.694179 0.419907
vt 0.694557 0.420485
vt 0.746855 0.471073
vt 0.691793 0.413975
vt 0.691664 0.413296
vt 0.746575 0.464950
vt 0.746575 0.464844
vt 0.691863 0.406227
vt 0.691723 0.406903
vt 0.746855 0.471179
vt 0.694354 0.400348
vt 0.694741 0.399777
vt 0.747786 0.477344
vt 0.699282 0.395310
vt 0.699857 0.394932
vt 0.749265 0.483401
vt 0.706420 0.392428
vt 0.705747 0.392556
vt 0.751370 0.489270
vt 0.713410 0.392640
vt 0.712742 0.392498
vt 0.753994 0.494926
vt 0.719201 0.395162
vt 0.719762 0.395553
vt 0.757194 0.500277
vt 0.724132 0.400134
vt 0.724500 0.400713
vt 0.760862 0.505319
vt 0.726794 0.406652
vt 0.726922 0.407328
vt 0.765038 0.509950
vt 0.765038 0.509844
vt 0.726828 0.414353
vt 0.726958 0.413681
vt 0.760862 0.505213
vt 0.724442 0.420200
vt 0.724065 0.420769
vt 0.757194 0.500171
vt 0.678453 0.464170
vt 0.762647 0.484537
vt 0.688503 0.464170
vt 0.759744 0.474880
vt 0.695609 0.471276
vt 0.758764 0.464950
vt 0.758764 0.464844
vt 0.695609 0.481325
vt 0.759744 0.474986
vt 0.688503 0.488431
vt 0.762647 0.484644
vt 0.678453 0.488431
vt 0.767363 0.493557
vt 0.671347 0.481325
vt 0.773714 0.501390
vt 0.773714 0.501284
vt 0.671347 0.471276
vt 0.767363 0.493451
vt 0.708069 0.534241
vt 0.708069 0.534241
vt 0.708069 0.534241
vt 0.708069 0.534241
vt 0.708069 0.534241
vt 0.708069 0.534241
vt 0.708069 0.534241
vt 0.708069 0.534241
s 1
usemtl electronics_etx_part_2
f 618/1090/312 617/1088/313 601/1067/313 602/1068/312
f 626/1108/314 625/1104/315 609/1075/315 610/1077/314
f 628/1111/316 627/1110/317 611/1078/317 612/1079/316
f 625/1105/315 624/1103/318 608/1074/318 609/1076/315
f 615/1085/319 614/1082/320 598/1064/320 599/1065/319
f 619/1092/321 618/1090/312 602/1068/312 603/1069/321
f 613/1080/322 628/1111/316 612/1079/316 597/1063/322
f 617/1088/313 616/1087/323 600/1066/323 601/1067/313
f 620/1095/324 619/1092/321 603/1069/321 604/1070/324
f 640/1147/325 639/1144/326 623/1100/326 624/1102/325
f 641/1150/327 640/1148/325 624/1102/325 625/1106/327
f 636/1135/328 635/1132/329 619/1093/329 620/1094/328
f 632/1122/330 631/1119/331 615/1084/331 616/1086/330
f 642/1153/332 641/1151/327 625/1106/327 626/1107/332
f 637/1138/333 636/1136/328 620/1094/328 621/1096/333
f 617/1089/334 618/1091/335 634/1128/335 633/1125/334
f 644/1160/336 643/1157/337 627/1109/337 628/1112/336
f 639/1145/326 638/1141/338 622/1098/338 623/1100/326
f 638/1142/338 637/1139/333 621/1096/333 622/1098/338
f 629/1113/339 644/1161/336 628/1112/336 613/1081/339
f 643/1158/337 642/1154/332 626/1107/332 627/1109/337
f 633/1126/334 632/1123/330 616/1086/330 617/1089/334
f 631/1120/331 630/1116/340 614/1083/340 615/1084/331
f 635/1133/329 634/1129/335 618/1091/335 619/1093/329
f 648/1171/341 647/1168/342 635/1134/343
f 648/1171/341 637/1140/344 649/1173/345
f 645/1164/346 631/1121/347 646/1166/348
f 650/1175/349 649/1173/345 639/1146/350
f 652/1180/351 651/1178/352 643/1159/353
f 647/1169/342 646/1166/348 633/1127/354
f 651/1177/352 650/1175/349 641/1152/355
f 652/1179/356 645/1163/356 646/1165/356 647/1167/356 648/1170/356 649/1172/356 650/1174/356 651/1176/356
f 622/1099/357 621/1097/358 605/1071/358 606/1072/357
f 623/1101/359 622/1099/357 606/1072/357 607/1073/359
f 624/1103/318 623/1101/359 607/1073/359 608/1074/318
f 614/1082/320 613/1080/322 597/1063/322 598/1064/320
f 627/1110/317 626/1108/314 610/1077/314 611/1078/317
f 616/1087/323 615/1085/319 599/1065/319 600/1066/323
f 621/1097/358 620/1095/324 604/1070/324 605/1071/358
f 630/1117/340 629/1114/339 613/1081/339 614/1083/340
f 645/1164/346 652/1180/351 629/1115/360
f 633/1127/354 646/1166/348 632/1124/361
f 635/1134/343 647/1168/342 634/1130/362
f 633/1127/354 634/1131/362 647/1169/342
f 635/1134/343 636/1137/363 648/1171/341
f 637/1140/344 638/1143/364 649/1173/345
f 637/1140/344 648/1171/341 636/1137/363
f 639/1146/350 649/1173/345 638/1143/364
f 639/1146/350 640/1149/365 650/1175/349
f 641/1152/355 650/1175/349 640/1149/365
f 641/1152/355 642/1155/366 651/1177/352
f 643/1159/353 651/1178/352 642/1156/366
f 629/1115/360 652/1180/351 644/1162/367
f 643/1159/353 644/1162/367 652/1180/351
f 631/1121/347 632/1124/361 646/1166/348
f 629/1115/360 630/1118/368 645/1164/346
f 631/1121/347 645/1164/346 630/1118/368
s 0
f 653/1181/358 654/1182/358 656/1184/358 655/1183/358
f 659/1187/322 660/1188/322 658/1186/322 657/1185/322
f 657/1185/369 658/1186/369 654/1182/369 653/1181/369
f 655/1183/315 659/1187/315 657/1185/315 653/1181/315
f 660/1188/313 656/1184/313 654/1182/313 658/1186/313
