# Blender 3.4.0
# www.blender.org
mtllib button_etx_black_1.mtl
o button_etx_black_1
v -0.072000 -0.057600 0.014400
v -0.057600 -0.072000 0.014400
v -0.057600 0.072000 0.014400
v -0.072000 0.057600 0.014400
v -0.057600 -0.072000 0.000000
v -0.072000 -0.057600 0.000000
v -0.072000 0.057600 0.000000
v -0.057600 0.072000 0.000000
v 0.057600 -0.072000 0.014400
v 0.072000 -0.057600 0.014400
v 0.072000 0.057600 0.014400
v 0.057600 0.072000 0.014400
v 0.072000 -0.057600 0.000000
v 0.057600 -0.072000 0.000000
v 0.057600 0.072000 0.000000
v 0.072000 0.057600 0.000000
v -0.021600 -0.037412 0.014400
v -0.037412 -0.021600 0.014400
v -0.043200 -0.000000 0.014400
v -0.037412 0.021600 0.014400
v -0.021600 0.037412 0.014400
v 0.000000 -0.043200 0.014400
v 0.037412 -0.021600 0.014400
v 0.021600 -0.037412 0.014400
v 0.000000 0.043200 0.014400
v 0.043200 0.000000 0.014400
v 0.021600 0.037412 0.014400
v 0.037412 0.021600 0.014400
v 0.043200 -0.000000 0.022000
v 0.037412 -0.021600 0.022000
v -0.021600 0.037412 0.022000
v 0.000000 0.043200 0.022000
v -0.037412 -0.021600 0.022000
v -0.043200 0.000000 0.022000
v 0.000000 -0.043200 0.022000
v -0.021600 -0.037412 0.022000
v -0.037412 0.021600 0.022000
v 0.021600 -0.037412 0.022000
v 0.021600 0.037412 0.022000
v 0.037412 0.021600 0.022000
v 0.043620 -0.050288 0.017834
v 0.043912 -0.056977 0.017834
v 0.048143 -0.045351 0.017834
v 0.048848 -0.061500 0.017834
v 0.055537 -0.061208 0.017834
v 0.060060 -0.056272 0.017834
v 0.054832 -0.045059 0.017834
v 0.059768 -0.049583 0.017834
v 0.043620 -0.050288 0.014335
v 0.043912 -0.056977 0.014335
v 0.048143 -0.045351 0.014335
v 0.048848 -0.061500 0.014335
v 0.055537 -0.061208 0.014335
v 0.054832 -0.045059 0.014335
v 0.060060 -0.056272 0.014335
v 0.059768 -0.049583 0.014335
v 0.045654 0.059466 0.017834
v 0.043092 0.053281 0.017834
v 0.051840 0.062029 0.017834
v 0.045654 0.047095 0.017834
v 0.051840 0.044533 0.017834
v 0.058026 0.047095 0.017834
v 0.058026 0.059466 0.017834
v 0.060588 0.053281 0.017834
v 0.045654 0.059466 0.014335
v 0.043092 0.053281 0.014335
v 0.051840 0.062029 0.014335
v 0.045654 0.047095 0.014335
v 0.051840 0.044533 0.014335
v 0.058026 0.059466 0.014335
v 0.058026 0.047095 0.014335
v 0.060588 0.053281 0.014335
v -0.054832 0.045060 0.017834
v -0.048143 0.045352 0.017834
v -0.059768 0.049583 0.017834
v -0.043619 0.050288 0.017834
v -0.043911 0.056977 0.017834
v -0.048848 0.061501 0.017834
v -0.060060 0.056272 0.017834
v -0.055537 0.061209 0.017834
v -0.054832 0.045060 0.014335
v -0.048143 0.045352 0.014335
v -0.059768 0.049583 0.014335
v -0.043619 0.050288 0.014335
v -0.043911 0.056977 0.014335
v -0.060060 0.056272 0.014335
v -0.048848 0.061501 0.014335
v -0.055537 0.061209 0.014335
v -0.059416 -0.048905 0.017834
v -0.060290 -0.055544 0.017834
v -0.054104 -0.044830 0.017834
v -0.056214 -0.060855 0.017834
v -0.049576 -0.061729 0.017834
v -0.044264 -0.057653 0.017834
v -0.047466 -0.045703 0.017834
v -0.043390 -0.051015 0.017834
v -0.059416 -0.048905 0.014335
v -0.060290 -0.055544 0.014335
v -0.054104 -0.044830 0.014335
v -0.056214 -0.060855 0.014335
v -0.049576 -0.061729 0.014335
v -0.047466 -0.045703 0.014335
v -0.044264 -0.057653 0.014335
v -0.043390 -0.051015 0.014335
vn -0.0000 -0.0000 1.0000
vn 1.0000 -0.0000 -0.0000
vn -0.0000 1.0000 -0.0000
vn -1.0000 -0.0000 -0.0000
vn -0.7071 -0.7071 -0.0000
vn -0.7071 0.7071 -0.0000
vn 0.7071 -0.7071 -0.0000
vn 0.7071 0.7071 -0.0000
vn -0.0000 -1.0000 -0.0000
vn -0.5000 -0.8660 -0.0000
vn -0.8660 -0.5000 -0.0000
vn -0.5000 0.8660 -0.0000
vn -0.8660 0.5000 -0.0000
vn 0.5000 -0.8660 -0.0000
vn 0.8660 -0.5000 -0.0000
vn 0.5000 0.8660 -0.0000
vn 0.8660 0.5000 -0.0000
vn 0.2655 0.7296 0.6303
vn -0.3281 0.7036 0.6303
vn -0.7296 0.2655 0.6303
vn -0.7036 -0.3281 0.6303
vn -0.2655 -0.7296 0.6303
vn 0.3281 -0.7036 0.6303
vn 0.7296 -0.2655 0.6303
vn 0.7036 0.3281 0.6303
vn 0.3420 0.9397 -0.0000
vn 0.9063 0.4226 -0.0000
vn 0.9397 -0.3420 -0.0000
vn -0.4226 0.9063 -0.0000
vn -0.9397 0.3420 -0.0000
vn 0.4226 -0.9063 -0.0000
vn -0.3420 -0.9397 -0.0000
vn -0.9063 -0.4226 -0.0000
vn 0.5490 0.5490 0.6303
vn -0.0000 0.7764 0.6303
vn -0.5490 0.5490 0.6303
vn -0.7764 -0.0000 0.6303
vn -0.5490 -0.5490 0.6303
vn -0.0000 -0.7764 0.6303
vn 0.5490 -0.5490 0.6303
vn 0.7764 -0.0000 0.6303
vn 0.3882 0.6724 0.6303
vn -0.2009 0.7499 0.6303
vn -0.6724 0.3882 0.6303
vn -0.7499 -0.2009 0.6303
vn -0.3882 -0.6724 0.6303
vn 0.2009 -0.7499 0.6303
vn 0.6724 -0.3882 0.6303
vn 0.7499 0.2009 0.6303
vn 0.9659 0.2588 -0.0000
vn -0.2588 0.9659 -0.0000
vn 0.2588 -0.9659 -0.0000
vn -0.9659 -0.2588 -0.0000
vt 0.117547 0.070963
vt 0.203125 0.074219
vt 0.123912 0.064598
vt 0.203125 0.064453
vt 0.203125 0.125000
vt 0.123912 0.128254
vt 0.203125 0.074219
vt 0.117547 0.121889
vt 0.203125 0.125000
vt 0.203125 0.064453
vt 0.197266 0.064453
vt 0.197266 0.125000
vt 0.197266 0.074219
vt 0.197266 0.125000
vt 0.197266 0.064453
vt 0.197266 0.074219
vt 0.174838 0.064598
vt 0.203125 0.074219
vt 0.181203 0.070963
vt 0.203125 0.125000
vt 0.203125 0.064453
vt 0.181203 0.121889
vt 0.203125 0.074219
vt 0.174838 0.128254
vt 0.203125 0.125000
vt 0.203125 0.064453
vt 0.197266 0.125000
vt 0.197266 0.064453
vt 0.197266 0.074219
vt 0.197266 0.125000
vt 0.197266 0.064453
vt 0.197266 0.074219
vt 0.140558 0.173725
vt 0.133237 0.173725
vt 0.160549 0.173750
vt 0.150549 0.173750
vt 0.133237 0.173725
vt 0.140549 0.173750
vt 0.140558 0.173725
vt 0.150558 0.173725
vt 0.167878 0.173725
vt 0.160549 0.173750
vt 0.160558 0.173725
vt 0.150558 0.173725
vt 0.150549 0.173750
vt 0.160558 0.173725
vt 0.167878 0.173725
vt 0.140549 0.173750
vt 0.150549 0.170231
vt 0.168605 0.152344
vt 0.167878 0.170207
vt 0.160549 0.170231
vt 0.165925 0.142344
vt 0.140558 0.170207
vt 0.138605 0.169664
vt 0.150558 0.170207
vt 0.148605 0.172344
vt 0.133237 0.170207
vt 0.160549 0.170231
vt 0.131284 0.142344
vt 0.150549 0.170231
vt 0.128605 0.152344
vt 0.150558 0.170207
vt 0.148605 0.132344
vt 0.140558 0.170207
vt 0.138605 0.135023
vt 0.133237 0.170207
vt 0.140549 0.170231
vt 0.131284 0.162344
vt 0.160558 0.170207
vt 0.158605 0.135023
vt 0.160558 0.170207
vt 0.158605 0.169664
vt 0.167878 0.170207
vt 0.140549 0.170231
vt 0.165925 0.162344
vt 0.450919 0.205078
vt 0.453549 0.205078
vt 0.448705 0.199732
vt 0.453549 0.199732
vt 0.453549 0.210424
vt 0.448705 0.210424
vt 0.453549 0.210424
vt 0.443359 0.197518
vt 0.453549 0.205078
vt 0.438014 0.199732
vt 0.453549 0.199732
vt 0.435799 0.205078
vt 0.453549 0.205078
vt 0.443359 0.212638
vt 0.453549 0.205078
vt 0.438014 0.210424
vt 0.453549 0.199732
vt 0.453549 0.210424
vt 0.456573 0.205078
vt 0.456573 0.199732
vt 0.456573 0.210424
vt 0.456573 0.210424
vt 0.456573 0.205078
vt 0.456573 0.199732
vt 0.456573 0.205078
vt 0.456573 0.205078
vt 0.456573 0.199732
vt 0.456573 0.210424
vt 0.450919 0.220703
vt 0.453549 0.220703
vt 0.448705 0.215357
vt 0.453549 0.215357
vt 0.453549 0.226049
vt 0.448705 0.226049
vt 0.453549 0.226049
vt 0.443359 0.213143
vt 0.453549 0.220703
vt 0.438014 0.215357
vt 0.453549 0.215357
vt 0.435799 0.220703
vt 0.453549 0.220703
vt 0.443359 0.228263
vt 0.453549 0.220703
vt 0.438014 0.226049
vt 0.453549 0.215357
vt 0.453549 0.226049
vt 0.456573 0.220703
vt 0.456573 0.215357
vt 0.456573 0.226049
vt 0.456573 0.226049
vt 0.456573 0.220703
vt 0.456573 0.215357
vt 0.456573 0.220703
vt 0.456573 0.220703
vt 0.456573 0.215357
vt 0.456573 0.226049
vt 0.450919 0.205078
vt 0.453549 0.205078
vt 0.448705 0.199732
vt 0.453549 0.199732
vt 0.453549 0.210424
vt 0.448705 0.210424
vt 0.453549 0.210424
vt 0.443359 0.197518
vt 0.453549 0.205078
vt 0.438014 0.199732
vt 0.453549 0.199732
vt 0.435799 0.205078
vt 0.453549 0.205078
vt 0.443359 0.212638
vt 0.453549 0.205078
vt 0.438014 0.210424
vt 0.453549 0.199732
vt 0.453549 0.210424
vt 0.456573 0.205078
vt 0.456573 0.199732
vt 0.456573 0.210424
vt 0.456573 0.210424
vt 0.456573 0.205078
vt 0.456573 0.199732
vt 0.456573 0.205078
vt 0.456573 0.205078
vt 0.456573 0.199732
vt 0.456573 0.210424
vt 0.450919 0.220703
vt 0.453549 0.220703
vt 0.448705 0.215357
vt 0.453549 0.215357
vt 0.453549 0.226049
vt 0.448705 0.226049
vt 0.453549 0.226049
vt 0.443359 0.213143
vt 0.453549 0.220703
vt 0.438014 0.215357
vt 0.453549 0.215357
vt 0.435799 0.220703
vt 0.453549 0.220703
vt 0.443359 0.228263
vt 0.453549 0.220703
vt 0.438014 0.226049
vt 0.453549 0.215357
vt 0.453549 0.226049
vt 0.456573 0.220703
vt 0.456573 0.215357
vt 0.456573 0.226049
vt 0.456573 0.226049
vt 0.456573 0.220703
vt 0.456573 0.215357
vt 0.456573 0.220703
vt 0.456573 0.220703
vt 0.456573 0.215357
vt 0.456573 0.226049
s 0
usemtl electronics_etx_part_1
f 9/17/1 10/19/1 11/22/1 12/24/1 3/6/1 4/8/1 1/1/1 2/3/1
f 13/27/2 16/32/2 11/23/2 10/20/2
f 15/30/3 8/16/3 3/7/3 12/25/3
f 1/2/4 4/9/4 7/14/4 6/13/4
f 5/11/5 2/4/5 1/2/5 6/13/5
f 3/7/6 8/16/6 7/15/6 4/10/6
f 9/18/7 14/29/7 13/28/7 10/21/7
f 15/31/8 12/26/8 11/23/8 16/32/8
f 5/12/9 14/29/9 9/18/9 2/5/9
s 1
f 22/40/9 35/63/9 36/65/10 17/33/10
f 17/33/10 36/65/10 33/58/11 18/34/11
f 18/35/11 33/59/11 34/61/4 19/36/4
f 32/56/3 25/44/3 21/39/12 31/54/12
f 31/54/12 21/39/12 20/37/13 37/67/13
f 37/68/13 20/38/13 19/36/4 34/61/4
f 35/63/9 22/40/9 24/43/14 38/70/14
f 38/70/14 24/43/14 23/41/15 30/51/15
f 30/52/15 23/42/15 26/45/2 29/49/2
f 25/44/3 32/56/3 39/72/16 27/46/16
f 27/46/16 39/72/16 40/74/17 28/47/17
f 28/48/17 40/75/17 29/49/2 26/45/2
f 39/73/1 32/57/1 31/55/1 37/69/1 34/62/1 33/60/1 36/66/1 35/64/1 38/71/1 30/53/1 29/50/1 40/76/1
f 47/90/18 43/82/19 41/77/20 42/79/21 44/84/22 45/86/23 46/88/24 48/92/25
f 54/101/26 47/91/18 48/93/25 56/103/27
f 56/104/27 48/94/25 46/89/24 55/102/28
f 47/91/18 54/101/26 51/98/29 43/83/19
f 43/83/19 51/98/29 49/95/30 41/78/20
f 55/102/28 46/89/24 45/87/23 53/100/31
f 53/100/31 45/87/23 44/85/22 52/99/32
f 41/78/20 49/95/30 50/96/33 42/80/21
f 42/81/21 50/97/33 52/99/32 44/85/22
f 63/118/34 59/110/35 57/105/36 58/107/37 60/112/38 61/114/39 62/116/40 64/120/41
f 70/129/8 63/119/34 64/121/41 72/131/2
f 72/132/2 64/122/41 62/117/40 71/130/7
f 63/119/34 70/129/8 67/126/3 59/111/35
f 59/111/35 67/126/3 65/123/6 57/106/36
f 71/130/7 62/117/40 61/115/39 69/128/9
f 69/128/9 61/115/39 60/113/38 68/127/5
f 57/106/36 65/123/6 66/124/4 58/108/37
f 58/109/37 66/125/4 68/127/5 60/113/38
f 79/146/20 75/138/21 73/133/22 74/135/23 76/140/24 77/142/25 78/144/18 80/148/19
f 86/157/30 79/147/20 80/149/19 88/159/29
f 88/160/29 80/150/19 78/145/18 87/158/26
f 79/147/20 86/157/30 83/154/33 75/139/21
f 75/139/21 83/154/33 81/151/32 73/134/22
f 87/158/26 78/145/18 77/143/25 85/156/27
f 85/156/27 77/143/25 76/141/24 84/155/28
f 73/134/22 81/151/32 82/152/31 74/136/23
f 74/137/23 82/153/31 84/155/28 76/141/24
f 95/174/42 91/166/43 89/161/44 90/163/45 92/168/46 93/170/47 94/172/48 96/176/49
f 102/185/16 95/175/42 96/177/49 104/187/50
f 104/188/50 96/178/49 94/173/48 103/186/15
f 95/175/42 102/185/16 99/182/51 91/167/43
f 91/167/43 99/182/51 97/179/13 89/162/44
f 103/186/15 94/173/48 93/171/47 101/184/52
f 101/184/52 93/171/47 92/169/46 100/183/10
f 89/162/44 97/179/13 98/180/53 90/164/45
f 90/165/45 98/181/53 100/183/10 92/169/46
o button_etx_black_1_child
v 0.035746 -0.000000 0.022000
v 0.020838 -0.000000 0.036400
v 0.033749 -0.000000 0.029200
v 0.028292 -0.000000 0.034471
v 0.018046 -0.010419 0.036400
v 0.030957 -0.017873 0.022000
v 0.024502 -0.014146 0.034471
v 0.029227 -0.016874 0.029200
v -0.017873 0.030957 0.022000
v -0.010419 0.018046 0.036400
v -0.016874 0.029227 0.029200
v -0.014146 0.024501 0.034471
v 0.000000 0.020838 0.036400
v 0.000000 0.035746 0.022000
v 0.000000 0.028292 0.034471
v 0.000000 0.033749 0.029200
v -0.030957 -0.017873 0.022000
v -0.018046 -0.010419 0.036400
v -0.029227 -0.016874 0.029200
v -0.024502 -0.014146 0.034471
v -0.020838 -0.000000 0.036400
v -0.035746 -0.000000 0.022000
v -0.028292 -0.000000 0.034471
v -0.033749 -0.000000 0.029200
v 0.000000 -0.035746 0.022000
v 0.000000 -0.020838 0.036400
v 0.000000 -0.033749 0.029200
v 0.000000 -0.028292 0.034471
v -0.010419 -0.018046 0.036400
v -0.017873 -0.030957 0.022000
v -0.014146 -0.024502 0.034471
v -0.016874 -0.029227 0.029200
v -0.030957 0.017873 0.022000
v -0.018046 0.010419 0.036400
v -0.029227 0.016874 0.029200
v -0.024502 0.014146 0.034471
v 0.017873 -0.030957 0.022000
v 0.010419 -0.018046 0.036400
v 0.016874 -0.029227 0.029200
v 0.014146 -0.024502 0.034471
v 0.010419 0.018046 0.036400
v 0.017873 0.030957 0.022000
v 0.014146 0.024501 0.034471
v 0.016874 0.029227 0.029200
v 0.018046 0.010419 0.036400
v 0.030957 0.017873 0.022000
v 0.024502 0.014146 0.034471
v 0.029227 0.016874 0.029200
v 0.000000 -0.000000 0.036400
vn -0.0000 -0.0000 1.0000
vn 0.1469 -0.0000 0.9892
vn 0.1272 0.0734 0.9892
vn 0.1272 -0.0734 0.9892
vn 0.4500 -0.2598 0.8544
vn 0.5197 -0.0000 0.8544
vn 0.7534 -0.4350 0.4931
vn 0.8700 -0.0000 0.4931
vn 0.8345 -0.4818 0.2673
vn 0.9636 -0.0000 0.2673
vn -0.0734 0.1272 0.9892
vn -0.0000 0.1469 0.9892
vn -0.0000 0.5197 0.8544
vn -0.2598 0.4500 0.8544
vn -0.0000 0.8700 0.4931
vn -0.4350 0.7534 0.4931
vn -0.0000 0.9636 0.2673
vn -0.4818 0.8345 0.2673
vn -0.1272 -0.0734 0.9892
vn -0.1469 -0.0000 0.9892
vn -0.5197 -0.0000 0.8544
vn -0.4500 -0.2598 0.8544
vn -0.8700 -0.0000 0.4931
vn -0.7534 -0.4350 0.4931
vn -0.9636 -0.0000 0.2673
vn -0.8345 -0.4818 0.2673
vn -0.0000 -0.1469 0.9892
vn -0.0734 -0.1272 0.9892
vn -0.2598 -0.4500 0.8544
vn -0.0000 -0.5197 0.8544
vn -0.4350 -0.7534 0.4931
vn -0.0000 -0.8700 0.4931
vn -0.4818 -0.8345 0.2673
vn -0.0000 -0.9636 0.2673
vn -0.1272 0.0734 0.9892
vn -0.4500 0.2598 0.8544
vn -0.7534 0.4350 0.4931
vn -0.8345 0.4818 0.2673
vn 0.0734 -0.1272 0.9892
vn 0.2598 -0.4500 0.8544
vn 0.4350 -0.7534 0.4931
vn 0.4818 -0.8345 0.2673
vn 0.0734 0.1272 0.9892
vn 0.2598 0.4500 0.8544
vn 0.4350 0.7534 0.4931
vn 0.4818 0.8345 0.2673
vn 0.4500 0.2598 0.8544
vn 0.7534 0.4350 0.4931
vn 0.8345 0.4818 0.2673
vt 0.166086 0.404820
vt 0.178624 0.377986
vt 0.184602 0.377986
vt 0.166086 0.401486
vt 0.182075 0.377986
vt 0.177332 0.373162
vt 0.174360 0.404820
vt 0.180321 0.371437
vt 0.182508 0.370174
vt 0.173898 0.401486
vt 0.160703 0.404846
vt 0.164154 0.386341
vt 0.161165 0.391517
vt 0.161165 0.401513
vt 0.162428 0.389329
vt 0.168977 0.387633
vt 0.168977 0.404846
vt 0.168977 0.391084
vt 0.168977 0.393610
vt 0.168977 0.401513
vt 0.174360 0.404820
vt 0.154645 0.404846
vt 0.160622 0.373162
vt 0.173898 0.401486
vt 0.155446 0.370174
vt 0.155446 0.401513
vt 0.157634 0.371437
vt 0.159330 0.377986
vt 0.166086 0.404820
vt 0.155879 0.377986
vt 0.153353 0.377986
vt 0.166086 0.401486
vt 0.168977 0.404846
vt 0.168977 0.368339
vt 0.168977 0.362361
vt 0.168977 0.401513
vt 0.168977 0.364888
vt 0.164154 0.369631
vt 0.160703 0.404846
vt 0.162428 0.366643
vt 0.161165 0.364455
vt 0.161165 0.401513
vt 0.154645 0.404846
vt 0.157811 0.404820
vt 0.160622 0.382809
vt 0.155446 0.401513
vt 0.155446 0.385798
vt 0.158274 0.401486
vt 0.157634 0.384535
vt 0.177252 0.404846
vt 0.180418 0.404820
vt 0.173801 0.369631
vt 0.176789 0.401513
vt 0.176789 0.364455
vt 0.179617 0.401486
vt 0.175526 0.366643
vt 0.173801 0.386341
vt 0.177252 0.404846
vt 0.175526 0.389329
vt 0.176789 0.391517
vt 0.176789 0.401513
vt 0.177332 0.382809
vt 0.183309 0.404846
vt 0.157811 0.404820
vt 0.180321 0.384535
vt 0.182508 0.401513
vt 0.182508 0.385798
vt 0.158274 0.401486
vt 0.168977 0.377986
s 1
usemtl electronics_etx_part_1
f 153/257/54 106/190/55 149/250/56
f 106/190/55 109/194/57 111/196/58 108/193/59
f 108/193/59 111/196/58 112/197/60 107/191/61
f 107/192/61 112/198/60 110/195/62 105/189/63
f 114/200/64 117/204/65 119/206/66 116/203/67
f 116/203/67 119/206/66 120/207/68 115/201/69
f 115/202/69 120/208/68 118/205/70 113/199/71
f 122/211/72 125/216/73 127/218/74 124/215/75
f 124/215/75 127/218/74 128/219/76 123/213/77
f 123/212/77 128/220/76 126/217/78 121/209/79
f 130/222/80 133/226/81 135/228/82 132/225/83
f 132/225/83 135/228/82 136/229/84 131/223/85
f 131/224/85 136/230/84 134/227/86 129/221/87
f 133/226/81 122/211/72 124/215/75 135/228/82
f 135/228/82 124/215/75 123/213/77 136/229/84
f 136/230/84 123/214/77 121/210/79 134/227/86
f 138/233/88 114/200/64 116/203/67 140/237/89
f 140/237/89 116/203/67 115/201/69 139/235/90
f 139/234/90 115/202/69 113/199/71 137/231/91
f 125/216/73 138/233/88 140/237/89 127/218/74
f 127/218/74 140/237/89 139/235/90 128/219/76
f 128/220/76 139/236/90 137/232/91 126/217/78
f 142/240/92 130/222/80 132/225/83 144/244/93
f 144/244/93 132/225/83 131/223/85 143/242/94
f 143/241/94 131/224/85 129/221/87 141/238/95
f 109/194/57 142/240/92 144/244/93 111/196/58
f 111/196/58 144/244/93 143/242/94 112/197/60
f 112/198/60 143/243/94 141/239/95 110/195/62
f 117/204/65 145/245/96 147/247/97 119/206/66
f 119/206/66 147/247/97 148/248/98 120/207/68
f 120/208/68 148/249/98 146/246/99 118/205/70
f 145/245/96 149/250/56 151/253/100 147/247/97
f 147/247/97 151/253/100 152/255/101 148/248/98
f 148/249/98 152/254/101 150/251/102 146/246/99
f 149/250/56 106/190/55 108/193/59 151/253/100
f 151/253/100 108/193/59 107/191/61 152/255/101
f 152/256/101 107/192/61 105/189/63 150/252/102
f 153/257/54 117/204/65 114/200/64
f 122/211/72 153/257/54 125/216/73
f 153/257/54 109/194/57 106/190/55
f 125/216/73 153/257/54 138/233/88
f 142/240/92 109/194/57 153/257/54
f 153/257/54 149/250/56 145/245/96
f 133/226/81 130/222/80 153/257/54
f 130/222/80 142/240/92 153/257/54
f 138/233/88 153/257/54 114/200/64
f 117/204/65 153/257/54 145/245/96
f 122/211/72 133/226/81 153/257/54
