# Blender 3.4.0
# www.blender.org
mtllib computer_terminal_etx_1.mtl
o computer_terminal_etx_1
v -0.396000 0.045000 0.216000
v -0.414000 0.063000 0.216000
v -0.414000 0.621000 0.216000
v -0.396000 0.639000 0.216000
v 0.414000 0.063000 0.216000
v 0.396000 0.045000 0.216000
v 0.396000 0.639000 0.216000
v 0.414000 0.621000 0.216000
v -0.414000 0.063000 0.198000
v -0.396000 0.045000 0.198000
v -0.396000 0.639000 0.198000
v -0.414000 0.621000 0.198000
v 0.414000 0.621000 0.198000
v 0.396000 0.639000 0.198000
v 0.396000 0.045000 0.198000
v 0.414000 0.063000 0.198000
v -0.414000 -0.000000 -0.216000
v -0.459000 0.045000 -0.216000
v -0.459000 0.639000 -0.216000
v -0.414000 0.684000 -0.216000
v 0.459000 0.045000 -0.216000
v 0.414000 -0.000000 -0.216000
v 0.414000 0.684000 -0.216000
v 0.459000 0.639000 -0.216000
v -0.459000 0.045000 0.216000
v -0.414000 -0.000000 0.216000
v -0.414000 0.684000 0.216000
v -0.459000 0.639000 0.216000
v 0.459000 0.639000 0.216000
v 0.414000 0.684000 0.216000
v 0.414000 -0.000000 0.216000
v 0.459000 0.045000 0.216000
v -0.395592 0.080592 0.202770
v -0.399150 0.072000 0.202770
v -0.387000 0.084150 0.202770
v -0.395592 0.063409 0.202770
v -0.387000 0.059850 0.202770
v -0.378409 0.063409 0.202770
v -0.378409 0.080592 0.202770
v -0.374850 0.072000 0.202770
v -0.395592 0.080592 0.197910
v -0.399150 0.072000 0.197910
v -0.387000 0.084150 0.197910
v -0.395592 0.063409 0.197910
v -0.387000 0.059850 0.197910
v -0.378409 0.080592 0.197910
v -0.378409 0.063409 0.197910
v -0.374850 0.072000 0.197910
v 0.378408 0.080592 0.202770
v 0.374849 0.072000 0.202770
v 0.386999 0.084150 0.202770
v 0.378408 0.063409 0.202770
v 0.386999 0.059850 0.202770
v 0.395591 0.063409 0.202770
v 0.395591 0.080592 0.202770
v 0.399150 0.072000 0.202770
v 0.378408 0.080592 0.197910
v 0.374849 0.072000 0.197910
v 0.386999 0.084150 0.197910
v 0.378408 0.063409 0.197910
v 0.386999 0.059850 0.197910
v 0.395591 0.080592 0.197910
v 0.395591 0.063409 0.197910
v 0.399150 0.072000 0.197910
v 0.378408 0.620592 0.202770
v 0.374849 0.612000 0.202770
v 0.386999 0.624150 0.202770
v 0.378408 0.603409 0.202770
v 0.386999 0.599850 0.202770
v 0.395591 0.603409 0.202770
v 0.395591 0.620592 0.202770
v 0.399149 0.612000 0.202770
v 0.378408 0.620592 0.197910
v 0.374849 0.612000 0.197910
v 0.386999 0.624150 0.197910
v 0.378408 0.603409 0.197910
v 0.386999 0.599850 0.197910
v 0.395591 0.620592 0.197910
v 0.395591 0.603409 0.197910
v 0.399149 0.612000 0.197910
v -0.395592 0.620592 0.202770
v -0.399151 0.612000 0.202770
v -0.387001 0.624150 0.202770
v -0.395592 0.603409 0.202770
v -0.387001 0.599850 0.202770
v -0.378409 0.603409 0.202770
v -0.378409 0.620592 0.202770
v -0.374850 0.612000 0.202770
v -0.395592 0.620592 0.197910
v -0.399150 0.612000 0.197910
v -0.387001 0.624150 0.197910
v -0.395592 0.603409 0.197910
v -0.387001 0.599850 0.197910
v -0.378409 0.620592 0.197910
v -0.378409 0.603409 0.197910
v -0.374850 0.612000 0.197910
v -0.364992 0.553991 0.220770
v -0.368551 0.545400 0.220770
v -0.356401 0.557550 0.220770
v -0.364992 0.536809 0.220770
v -0.356400 0.533250 0.220770
v -0.347809 0.536809 0.220770
v -0.347809 0.553991 0.220770
v -0.344250 0.545400 0.220770
v -0.364992 0.553991 0.215910
v -0.368551 0.545400 0.215910
v -0.356401 0.557550 0.215910
v -0.364992 0.536809 0.215910
v -0.356400 0.533250 0.215910
v -0.347809 0.553991 0.215910
v -0.347809 0.536809 0.215910
v -0.344250 0.545400 0.215910
v 0.079608 0.553991 0.220770
v 0.076050 0.545400 0.220770
v 0.088200 0.557550 0.220770
v 0.079608 0.536809 0.220770
v 0.088200 0.533250 0.220770
v 0.096791 0.536809 0.220770
v 0.096791 0.553991 0.220770
v 0.100350 0.545400 0.220770
v 0.079608 0.553991 0.215910
v 0.076050 0.545400 0.215910
v 0.088200 0.557550 0.215910
v 0.079608 0.536809 0.215910
v 0.088200 0.533250 0.215910
v 0.096791 0.553991 0.215910
v 0.096791 0.536809 0.215910
v 0.100350 0.545400 0.215910
v -0.364992 0.235392 0.220770
v -0.368551 0.226800 0.220770
v -0.356401 0.238950 0.220770
v -0.364992 0.218209 0.220770
v -0.356400 0.214650 0.220770
v -0.347809 0.218209 0.220770
v -0.347809 0.235392 0.220770
v -0.344250 0.226800 0.220770
v -0.364992 0.235392 0.215910
v -0.368551 0.226800 0.215910
v -0.356401 0.238950 0.215910
v -0.364992 0.218209 0.215910
v -0.356400 0.214650 0.215910
v -0.347809 0.235392 0.215910
v -0.347809 0.218209 0.215910
v -0.344250 0.226800 0.215910
v 0.079608 0.235392 0.220770
v 0.076050 0.226800 0.220770
v 0.088200 0.238950 0.220770
v 0.079608 0.218209 0.220770
v 0.088200 0.214650 0.220770
v 0.096791 0.218209 0.220770
v 0.096791 0.235392 0.220770
v 0.100350 0.226800 0.220770
v 0.079608 0.235392 0.215910
v 0.076050 0.226800 0.215910
v 0.088200 0.238950 0.215910
v 0.079608 0.218209 0.215910
v 0.088200 0.214650 0.215910
v 0.096791 0.235392 0.215910
v 0.096791 0.218209 0.215910
v 0.100350 0.226800 0.215910
v 0.234000 0.090000 0.203400
v 0.243000 0.081000 0.203400
v 0.243000 0.207000 0.203400
v 0.234000 0.198000 0.203400
v 0.243000 0.081000 0.198000
v 0.234000 0.090000 0.198000
v 0.234000 0.198000 0.198000
v 0.243000 0.207000 0.198000
v 0.351000 0.081000 0.203400
v 0.360000 0.090000 0.203400
v 0.360000 0.198000 0.203400
v 0.351000 0.207000 0.203400
v 0.360000 0.090000 0.198000
v 0.351000 0.081000 0.198000
v 0.351000 0.207000 0.198000
v 0.360000 0.198000 0.198000
v 0.252000 0.090000 0.212400
v 0.243000 0.090000 0.203400
v 0.243000 0.108000 0.203400
v 0.342000 0.090000 0.212400
v 0.351000 0.090000 0.203400
v 0.252000 0.180000 0.212400
v 0.243000 0.180000 0.203400
v 0.243000 0.198000 0.203400
v 0.342000 0.180000 0.212400
v 0.351000 0.180000 0.203400
v 0.351000 0.198000 0.203400
v 0.252000 0.162000 0.212400
v 0.243000 0.162000 0.203400
v 0.342000 0.162000 0.212400
v 0.252000 0.144000 0.212400
v 0.243000 0.144000 0.203400
v 0.342000 0.144000 0.212400
v 0.351000 0.162000 0.203400
v 0.252000 0.126000 0.212400
v 0.342000 0.126000 0.212400
v 0.351000 0.144000 0.203400
v 0.252000 0.108000 0.212400
v 0.243000 0.126000 0.203400
v 0.342000 0.108000 0.212400
v 0.351000 0.108000 0.203400
v 0.351000 0.126000 0.203400
v 0.157500 0.265500 0.216000
v 0.157500 0.508500 0.216000
v 0.144000 0.252000 0.198000
v 0.144000 0.522000 0.198000
v 0.166500 0.265500 0.216000
v 0.166500 0.508500 0.216000
v 0.180000 0.252000 0.198000
v 0.180000 0.522000 0.198000
v 0.144000 0.252000 0.216000
v 0.144000 0.522000 0.216000
v 0.180000 0.522000 0.216000
v 0.180000 0.252000 0.216000
v 0.157500 0.265500 0.207000
v 0.157500 0.508500 0.207000
v 0.166500 0.508500 0.207000
v 0.166500 0.265500 0.207000
v -0.342000 0.243000 0.216000
v -0.333000 0.252000 0.207000
v -0.333000 0.522000 0.207000
v -0.342000 0.531000 0.216000
v 0.063000 0.252000 0.207000
v 0.072000 0.243000 0.216000
v 0.072000 0.531000 0.216000
v 0.063000 0.522000 0.207000
v -0.342000 0.198000 0.198000
v -0.387000 0.243000 0.198000
v -0.364500 0.204029 0.198000
v -0.380971 0.220500 0.198000
v -0.387000 0.531000 0.198000
v -0.342000 0.576000 0.198000
v -0.380971 0.553500 0.198000
v -0.364500 0.569971 0.198000
v 0.117000 0.243000 0.198000
v 0.072000 0.198000 0.198000
v 0.110971 0.220500 0.198000
v 0.094500 0.204029 0.198000
v 0.072000 0.576000 0.198000
v 0.117000 0.531000 0.198000
v 0.094500 0.569971 0.198000
v 0.110971 0.553500 0.198000
v -0.387000 0.243000 0.216000
v -0.342000 0.198000 0.216000
v -0.380971 0.220500 0.216000
v -0.364500 0.204029 0.216000
v -0.342000 0.576000 0.216000
v -0.387000 0.531000 0.216000
v -0.364500 0.569971 0.216000
v -0.380971 0.553500 0.216000
v 0.117000 0.531000 0.216000
v 0.072000 0.576000 0.216000
v 0.110971 0.553500 0.216000
v 0.094500 0.569971 0.216000
v 0.072000 0.198000 0.216000
v 0.117000 0.243000 0.216000
v 0.094500 0.204029 0.216000
v 0.110971 0.220500 0.216000
v -0.245000 0.106000 0.198000
v -0.025000 0.182000 0.198000
v -0.245000 0.182000 0.198000
v -0.032200 0.113200 0.212000
v -0.237800 0.113200 0.212000
v -0.025000 0.106000 0.198000
v -0.032200 0.174800 0.212000
v -0.237800 0.174800 0.212000
v -0.025000 0.106000 0.212000
v -0.245000 0.106000 0.212000
v -0.245000 0.182000 0.212000
v -0.025000 0.182000 0.212000
v -0.032200 0.113200 0.203000
v -0.237800 0.113200 0.203000
v -0.237800 0.174800 0.203000
v -0.032200 0.174800 0.203000
v -0.245000 0.174800 0.198000
v -0.245000 0.113200 0.198000
v -0.025000 0.113200 0.212000
v -0.025000 0.174800 0.212000
v -0.245000 0.174800 0.212000
v -0.245000 0.113200 0.212000
v -0.025000 0.174800 0.198000
v -0.025000 0.113200 0.198000
v -0.255000 0.154000 0.198000
v -0.255000 0.134000 0.198000
v -0.015000 0.134000 0.212000
v -0.015000 0.154000 0.212000
v -0.255000 0.154000 0.212000
v -0.255000 0.134000 0.212000
v -0.022000 0.134000 0.212000
v -0.022000 0.154000 0.212000
v -0.248000 0.154000 0.212000
v -0.248000 0.134000 0.212000
v -0.022000 0.134000 0.203000
v -0.022000 0.154000 0.203000
v -0.248000 0.154000 0.203000
v -0.248000 0.134000 0.203000
v -0.015000 0.154000 0.198000
v -0.015000 0.134000 0.198000
v 0.202000 0.266000 0.198000
v 0.392000 0.526000 0.198000
v 0.202000 0.526000 0.198000
v 0.384800 0.273200 0.212000
v 0.209200 0.273200 0.212000
v 0.392000 0.266000 0.198000
v 0.384800 0.518800 0.212000
v 0.209200 0.518800 0.212000
v 0.392000 0.266000 0.212000
v 0.202000 0.266000 0.212000
v 0.202000 0.526000 0.212000
v 0.392000 0.526000 0.212000
v 0.384800 0.273200 0.203000
v 0.209200 0.273200 0.203000
v 0.209200 0.518800 0.203000
v 0.384800 0.518800 0.203000
vn -0.0000 -0.0000 -1.0000
vn -0.0000 1.0000 -0.0000
vn -1.0000 -0.0000 -0.0000
vn 1.0000 -0.0000 -0.0000
vn -0.0000 -0.0000 1.0000
vn -0.0000 -1.0000 -0.0000
vn -0.7071 0.7071 -0.0000
vn 0.7071 0.7071 -0.0000
vn 0.7071 -0.7071 -0.0000
vn -0.7071 -0.7071 -0.0000
vn 0.5490 0.5490 0.6303
vn -0.0000 0.7764 0.6303
vn -0.5490 0.5490 0.6303
vn -0.7764 -0.0000 0.6303
vn -0.5490 -0.5490 0.6303
vn -0.0000 -0.7764 0.6303
vn 0.5490 -0.5490 0.6303
vn 0.7764 -0.0000 0.6303
vn -0.7071 -0.0000 0.7071
vn 0.7071 -0.0000 0.7071
vn -0.0000 0.4472 0.8944
vn -0.0000 0.7071 0.7071
vn -0.0000 -0.7071 0.7071
vn -0.2588 -0.9659 -0.0000
vn -0.9659 -0.2588 -0.0000
vn -0.2588 0.9659 -0.0000
vn -0.9659 0.2588 -0.0000
vn 0.2588 -0.9659 -0.0000
vn 0.9659 -0.2588 -0.0000
vn 0.2588 0.9659 -0.0000
vn 0.9659 0.2588 -0.0000
vn -1.0000 -0.0001 -0.0000
vn 0.8978 0.4403 -0.0000
vn -1.0000 0.0001 -0.0000
vn -0.9013 -0.4333 -0.0000
vn 0.9013 0.4333 -0.0000
vn -0.8979 -0.4403 -0.0000
vn -0.8979 0.4403 -0.0000
vn 0.9013 -0.4333 -0.0000
vn -0.9013 0.4333 -0.0000
vn 0.8978 -0.4403 -0.0000
vt 0.719910 0.671493
vt 0.712996 0.249063
vt 0.714702 0.666174
vt 0.706954 0.255105
vt 0.714880 0.475449
vt 0.706954 0.442413
vt 0.720331 0.470075
vt 0.712996 0.448455
vt 0.994594 0.665434
vt 0.984895 0.255105
vt 0.989331 0.670661
vt 0.978852 0.249063
vt 0.989395 0.470859
vt 0.978852 0.448455
vt 0.994760 0.476212
vt 0.984895 0.442413
vt 0.716993 0.479018
vt 0.709620 0.668543
vt 0.723035 0.472976
vt 0.717522 0.676515
vt 0.723035 0.669849
vt 0.717875 0.464955
vt 0.716993 0.663807
vt 0.709620 0.473009
vt 0.992036 0.663807
vt 1.000000 0.473808
vt 0.985994 0.669849
vt 0.991854 0.465765
vt 0.985994 0.472976
vt 0.991715 0.675700
vt 0.992036 0.479019
vt 0.999624 0.667811
vt 0.706954 0.229603
vt 0.691718 0.498660
vt 0.546706 0.477377
vt 0.691849 0.214498
vt 0.691718 0.199392
vt 0.691718 0.477298
vt 0.691849 0.015105
vt 0.691718 0.000000
vt 0.691718 0.498660
vt 0.706954 0.000000
vt 0.546706 0.199437
vt 0.691718 0.477298
vt 1.000000 0.214498
vt 0.546706 0.199392
vt 0.546706 0.477298
vt 0.984895 0.229603
vt 0.546706 0.498660
vt 0.546706 0.199437
vt 0.984895 0.000000
vt 0.546706 0.477377
vt 0.691718 0.498660
vt 1.000000 0.015105
vt 0.546706 0.000000
vt 0.691718 0.477298
vt 0.546706 0.199392
vt 0.546706 0.477298
vt 0.691849 0.249063
vt 0.546706 0.498660
vt 0.691718 0.477377
vt 0.706954 0.233958
vt 0.691718 0.199437
vt 0.546706 0.477298
vt 0.706954 0.463561
vt 0.546706 0.000000
vt 0.546706 0.498660
vt 0.691849 0.448455
vt 0.691718 0.000000
vt 0.546706 0.477298
vt 1.000000 0.448455
vt 0.691718 0.477377
vt 0.546706 0.498660
vt 0.984895 0.463561
vt 0.691718 0.498660
vt 0.691718 0.199437
vt 0.984895 0.233958
vt 0.691718 0.199392
vt 0.691718 0.477298
vt 1.000000 0.249063
vt 0.450919 0.220703
vt 0.453549 0.220703
vt 0.448705 0.215357
vt 0.453549 0.215357
vt 0.453549 0.226049
vt 0.448705 0.226049
vt 0.453549 0.226049
vt 0.443359 0.213143
vt 0.453549 0.220703
vt 0.438014 0.215357
vt 0.453549 0.215357
vt 0.435799 0.220703
vt 0.453549 0.220703
vt 0.443359 0.228263
vt 0.453549 0.220703
vt 0.438014 0.226049
vt 0.453549 0.215357
vt 0.453549 0.226049
vt 0.456573 0.220703
vt 0.456573 0.215357
vt 0.456573 0.226049
vt 0.456573 0.226049
vt 0.456573 0.220703
vt 0.456573 0.215357
vt 0.456573 0.220703
vt 0.456573 0.220703
vt 0.456573 0.215357
vt 0.456573 0.226049
vt 0.450919 0.220703
vt 0.453549 0.220703
vt 0.448705 0.215357
vt 0.453549 0.215357
vt 0.453549 0.226049
vt 0.448705 0.226049
vt 0.453549 0.226049
vt 0.443359 0.213143
vt 0.453549 0.220703
vt 0.438014 0.215357
vt 0.453549 0.215357
vt 0.435799 0.220703
vt 0.453549 0.220703
vt 0.443359 0.228263
vt 0.453549 0.220703
vt 0.438014 0.226049
vt 0.453549 0.215357
vt 0.453549 0.226049
vt 0.456573 0.220703
vt 0.456573 0.215357
vt 0.456573 0.226049
vt 0.456573 0.226049
vt 0.456573 0.220703
vt 0.456573 0.215357
vt 0.456573 0.220703
vt 0.456573 0.220703
vt 0.456573 0.215357
vt 0.456573 0.226049
vt 0.450919 0.220703
vt 0.453549 0.220703
vt 0.448705 0.215357
vt 0.453549 0.215357
vt 0.453549 0.226049
vt 0.448705 0.226049
vt 0.453549 0.226049
vt 0.443359 0.213143
vt 0.453549 0.220703
vt 0.438014 0.215357
vt 0.453549 0.215357
vt 0.435799 0.220703
vt 0.453549 0.220703
vt 0.443359 0.228263
vt 0.453549 0.220703
vt 0.438014 0.226049
vt 0.453549 0.215357
vt 0.453549 0.226049
vt 0.456573 0.220703
vt 0.456573 0.215357
vt 0.456573 0.226049
vt 0.456573 0.226049
vt 0.456573 0.220703
vt 0.456573 0.215357
vt 0.456573 0.220703
vt 0.456573 0.220703
vt 0.456573 0.215357
vt 0.456573 0.226049
vt 0.450919 0.220703
vt 0.453549 0.220703
vt 0.448705 0.215357
vt 0.453549 0.215357
vt 0.453549 0.226049
vt 0.448705 0.226049
vt 0.453549 0.226049
vt 0.443359 0.213143
vt 0.453549 0.220703
vt 0.438014 0.215357
vt 0.453549 0.215357
vt 0.435799 0.220703
vt 0.453549 0.220703
vt 0.443359 0.228263
vt 0.453549 0.220703
vt 0.438014 0.226049
vt 0.453549 0.215357
vt 0.453549 0.226049
vt 0.456573 0.220703
vt 0.456573 0.215357
vt 0.456573 0.226049
vt 0.456573 0.226049
vt 0.456573 0.220703
vt 0.456573 0.215357
vt 0.456573 0.220703
vt 0.456573 0.220703
vt 0.456573 0.215357
vt 0.456573 0.226049
vt 0.450919 0.220703
vt 0.453549 0.220703
vt 0.448705 0.215357
vt 0.453549 0.215357
vt 0.453549 0.226049
vt 0.448705 0.226049
vt 0.453549 0.226049
vt 0.443359 0.213143
vt 0.453549 0.220703
vt 0.438014 0.215357
vt 0.453549 0.215357
vt 0.435799 0.220703
vt 0.453549 0.220703
vt 0.443359 0.228263
vt 0.453549 0.220703
vt 0.438014 0.226049
vt 0.453549 0.215357
vt 0.453549 0.226049
vt 0.456573 0.220703
vt 0.456573 0.215357
vt 0.456573 0.226049
vt 0.456573 0.226049
vt 0.456573 0.220703
vt 0.456573 0.215357
vt 0.456573 0.220703
vt 0.456573 0.220703
vt 0.456573 0.215357
vt 0.456573 0.226049
vt 0.450919 0.220703
vt 0.453549 0.220703
vt 0.448705 0.215357
vt 0.453549 0.215357
vt 0.453549 0.226049
vt 0.448705 0.226049
vt 0.453549 0.226049
vt 0.443359 0.213143
vt 0.453549 0.220703
vt 0.438014 0.215357
vt 0.453549 0.215357
vt 0.435799 0.220703
vt 0.453549 0.220703
vt 0.443359 0.228263
vt 0.453549 0.220703
vt 0.438014 0.226049
vt 0.453549 0.215357
vt 0.453549 0.226049
vt 0.456573 0.220703
vt 0.456573 0.215357
vt 0.456573 0.226049
vt 0.456573 0.226049
vt 0.456573 0.220703
vt 0.456573 0.215357
vt 0.456573 0.220703
vt 0.456573 0.220703
vt 0.456573 0.215357
vt 0.456573 0.226049
vt 0.450919 0.220703
vt 0.453549 0.220703
vt 0.448705 0.215357
vt 0.453549 0.215357
vt 0.453549 0.226049
vt 0.448705 0.226049
vt 0.453549 0.226049
vt 0.443359 0.213143
vt 0.453549 0.220703
vt 0.438014 0.215357
vt 0.453549 0.215357
vt 0.435799 0.220703
vt 0.453549 0.220703
vt 0.443359 0.228263
vt 0.453549 0.220703
vt 0.438014 0.226049
vt 0.453549 0.215357
vt 0.453549 0.226049
vt 0.456573 0.220703
vt 0.456573 0.215357
vt 0.456573 0.226049
vt 0.456573 0.226049
vt 0.456573 0.220703
vt 0.456573 0.215357
vt 0.456573 0.220703
vt 0.456573 0.220703
vt 0.456573 0.215357
vt 0.456573 0.226049
vt 0.450919 0.220703
vt 0.453549 0.220703
vt 0.448705 0.215357
vt 0.453549 0.215357
vt 0.453549 0.226049
vt 0.448705 0.226049
vt 0.453549 0.226049
vt 0.443359 0.213143
vt 0.453549 0.220703
vt 0.438014 0.215357
vt 0.453549 0.215357
vt 0.435799 0.220703
vt 0.453549 0.220703
vt 0.443359 0.228263
vt 0.453549 0.220703
vt 0.438014 0.226049
vt 0.453549 0.215357
vt 0.453549 0.226049
vt 0.456573 0.220703
vt 0.456573 0.215357
vt 0.456573 0.226049
vt 0.456573 0.226049
vt 0.456573 0.220703
vt 0.456573 0.215357
vt 0.456573 0.220703
vt 0.456573 0.220703
vt 0.456573 0.215357
vt 0.456573 0.226049
vt 0.811870 0.906025
vt 0.811870 0.885454
vt 0.809012 0.903168
vt 0.809012 0.885454
vt 0.829584 0.903168
vt 0.849012 0.903168
vt 0.829584 0.903168
vt 0.846155 0.906025
vt 0.846155 0.885454
vt 0.829584 0.906025
vt 0.809012 0.883739
vt 0.831298 0.903168
vt 0.811870 0.883739
vt 0.846155 0.883739
vt 0.831298 0.906025
vt 0.831298 0.903168
vt 0.809012 0.868882
vt 0.809012 0.885454
vt 0.829584 0.868882
vt 0.811870 0.866025
vt 0.811870 0.885454
vt 0.846155 0.866025
vt 0.846155 0.885454
vt 0.829584 0.866025
vt 0.849012 0.868882
vt 0.829584 0.868882
vt 0.811870 0.883739
vt 0.809012 0.883739
vt 0.831298 0.868882
vt 0.831298 0.868882
vt 0.846155 0.883739
vt 0.831298 0.866025
vt 0.826727 0.900311
vt 0.811870 0.900311
vt 0.811870 0.903168
vt 0.829584 0.903168
vt 0.817584 0.903168
vt 0.829584 0.903168
vt 0.826727 0.871739
vt 0.811870 0.871739
vt 0.811870 0.868882
vt 0.829584 0.868882
vt 0.826727 0.900311
vt 0.840441 0.900311
vt 0.829584 0.903168
vt 0.840441 0.903168
vt 0.846155 0.903168
vt 0.826727 0.871739
vt 0.840441 0.871739
vt 0.829584 0.868882
vt 0.840441 0.868882
vt 0.846155 0.868882
vt 0.826727 0.900311
vt 0.834727 0.900311
vt 0.829584 0.903168
vt 0.834727 0.903168
vt 0.826727 0.871739
vt 0.834727 0.871739
vt 0.826727 0.900311
vt 0.829012 0.900311
vt 0.829584 0.903168
vt 0.829012 0.903168
vt 0.826727 0.871739
vt 0.829012 0.871739
vt 0.829584 0.868882
vt 0.834727 0.868882
vt 0.826727 0.900311
vt 0.823298 0.900311
vt 0.826727 0.871739
vt 0.823298 0.871739
vt 0.829584 0.868882
vt 0.829012 0.868882
vt 0.826727 0.900311
vt 0.817584 0.900311
vt 0.829584 0.903168
vt 0.823298 0.903168
vt 0.826727 0.871739
vt 0.817584 0.871739
vt 0.817584 0.868882
vt 0.829584 0.868882
vt 0.829584 0.868882
vt 0.823298 0.868882
vt 0.716898 0.278125
vt 0.768261 0.264897
vt 0.716898 0.326273
vt 0.716898 0.378125
vt 0.858261 0.264897
vt 0.716898 0.326273
vt 0.763261 0.259767
vt 0.763261 0.269897
vt 0.871278 0.269897
vt 0.863261 0.259767
vt 0.863261 0.269897
vt 0.871278 0.269897
vt 0.768261 0.261564
vt 0.716898 0.278125
vt 0.720602 0.326273
vt 0.858261 0.261564
vt 0.720602 0.326273
vt 0.716898 0.378125
vt 0.763261 0.256564
vt 0.763261 0.259767
vt 0.871278 0.256564
vt 0.863261 0.256564
vt 0.863261 0.259767
vt 0.871278 0.256564
vt 0.763261 0.266434
vt 0.864611 0.269897
vt 0.763261 0.269897
vt 0.863261 0.266434
vt 0.864611 0.269897
vt 0.863261 0.269897
vt 0.863261 0.266434
vt 0.864611 0.256564
vt 0.863261 0.256564
vt 0.763261 0.266434
vt 0.864611 0.256564
vt 0.763261 0.256564
vt 0.720602 0.278125
vt 0.716898 0.278125
vt 0.716898 0.329977
vt 0.720602 0.378125
vt 0.716898 0.378125
vt 0.716898 0.329977
vt 0.720602 0.329977
vt 0.720602 0.378125
vt 0.720602 0.278125
vt 0.720602 0.329977
vt 0.731861 0.272413
vt 0.866052 0.365963
vt 0.736328 0.277344
vt 0.735361 0.275918
vt 0.736328 0.361328
vt 0.735335 0.362552
vt 0.731819 0.366065
vt 0.866052 0.272515
vt 0.860962 0.277344
vt 0.862436 0.275925
vt 0.865953 0.272413
vt 0.731720 0.365963
vt 0.865910 0.366065
vt 0.731720 0.272515
vt 0.861328 0.361328
vt 0.862411 0.362559
vt 0.731793 0.380469
vt 0.717286 0.366423
vt 0.724843 0.378265
vt 0.719668 0.373269
vt 0.717069 0.272237
vt 0.731212 0.257910
vt 0.719552 0.265463
vt 0.724479 0.260396
vt 0.880705 0.365742
vt 0.866484 0.379681
vt 0.878428 0.372500
vt 0.873358 0.377472
vt 0.866115 0.257957
vt 0.880361 0.272128
vt 0.872866 0.260388
vt 0.877827 0.265403
vt 0.880653 0.365963
vt 0.711185 0.367708
vt 0.866052 0.380564
vt 0.730610 0.386412
vt 0.878697 0.373263
vt 0.714672 0.376646
vt 0.873352 0.378608
vt 0.721657 0.383341
vt 0.866052 0.257913
vt 0.729936 0.252065
vt 0.880653 0.272515
vt 0.711185 0.270976
vt 0.873352 0.259869
vt 0.721189 0.255452
vt 0.878697 0.265214
vt 0.714539 0.262202
vt 0.717119 0.272515
vt 0.886204 0.270837
vt 0.731720 0.257913
vt 0.867373 0.252104
vt 0.719075 0.265214
vt 0.882801 0.262114
vt 0.724419 0.259869
vt 0.876118 0.255430
vt 0.731720 0.380564
vt 0.867714 0.385589
vt 0.717119 0.365963
vt 0.886586 0.366960
vt 0.724419 0.378608
vt 0.876550 0.382450
vt 0.719075 0.373263
vt 0.883349 0.375752
vt 0.669098 0.021494
vt 0.659955 0.031399
vt 0.585288 0.021494
vt 0.659954 0.002446
vt 0.669098 0.021494
vt 0.659955 0.002446
vt 0.588030 0.028656
vt 0.588031 0.026827
vt 0.588030 0.029154
vt 0.654622 0.029090
vt 0.666355 0.026827
vt 0.654621 0.029090
vt 0.666431 0.028658
vt 0.666355 0.029154
vt 0.585288 0.021494
vt 0.659954 0.031399
vt 0.588031 0.026828
vt 0.587955 0.005188
vt 0.654622 0.004755
vt 0.588031 0.004692
vt 0.666355 0.005189
vt 0.666355 0.026827
vt 0.666355 0.004692
vt 0.654621 0.004755
vt 0.585288 0.026827
vt 0.585287 0.031399
vt 0.654621 0.031399
vt 0.669098 0.026827
vt 0.654622 0.031399
vt 0.669098 0.031399
vt 0.669098 0.026827
vt 0.669098 0.002447
vt 0.654622 0.002446
vt 0.585288 0.026827
vt 0.654621 0.002447
vt 0.585288 0.002447
vt 0.588031 0.023399
vt 0.658050 0.029090
vt 0.581494 0.028521
vt 0.666355 0.023399
vt 0.658050 0.029090
vt 0.665153 0.028521
vt 0.666355 0.023399
vt 0.665153 0.003797
vt 0.658050 0.004755
vt 0.588031 0.023399
vt 0.581494 0.003797
vt 0.658050 0.004755
vt 0.659955 0.005142
vt 0.659955 0.004755
vt 0.659955 0.028703
vt 0.659955 0.029090
vt 0.585288 0.028704
vt 0.585287 0.029154
vt 0.654621 0.028703
vt 0.654621 0.029090
vt 0.654621 0.005142
vt 0.585288 0.005142
vt 0.654621 0.004755
vt 0.585287 0.004692
vt 0.669097 0.005141
vt 0.669097 0.004691
vt 0.654621 0.005142
vt 0.654621 0.004755
vt 0.654621 0.028703
vt 0.669097 0.028704
vt 0.654622 0.029090
vt 0.669098 0.029154
vt 0.659954 0.005142
vt 0.659954 0.004755
vt 0.659954 0.028703
vt 0.659954 0.029090
vt 0.659955 0.012951
vt 0.659955 0.020894
vt 0.654621 0.020894
vt 0.581368 0.020894
vt 0.654621 0.012951
vt 0.581369 0.012952
vt 0.654621 0.012951
vt 0.673016 0.012951
vt 0.654622 0.020894
vt 0.673016 0.020894
vt 0.654621 0.020894
vt 0.584111 0.020894
vt 0.654621 0.012951
vt 0.584112 0.012952
vt 0.670273 0.012951
vt 0.654621 0.012951
vt 0.670273 0.020894
vt 0.654621 0.020894
vt 0.658050 0.020894
vt 0.577433 0.020172
vt 0.658050 0.012952
vt 0.577433 0.012145
vt 0.658050 0.012952
vt 0.669214 0.012145
vt 0.658050 0.020894
vt 0.669214 0.020172
vt 0.659954 0.012952
vt 0.659954 0.020894
vt 0.114659 0.726778
vt 0.036183 0.716493
vt 0.114659 0.654397
vt 0.135230 0.716492
vt 0.114659 0.726778
vt 0.135230 0.716493
vt 0.038926 0.711159
vt 0.038926 0.657139
vt 0.109326 0.657140
vt 0.038926 0.724036
vt 0.109326 0.724036
vt 0.038926 0.711159
vt 0.114659 0.654398
vt 0.036183 0.716492
vt 0.132487 0.711159
vt 0.132488 0.657142
vt 0.109326 0.657140
vt 0.132487 0.724036
vt 0.132487 0.711159
vt 0.109326 0.724036
vt 0.109326 0.654398
vt 0.036183 0.711159
vt 0.036183 0.654396
vt 0.109326 0.726778
vt 0.036183 0.711159
vt 0.036183 0.726778
vt 0.109326 0.726778
vt 0.135230 0.711159
vt 0.135230 0.726778
vt 0.109326 0.654397
vt 0.135230 0.711159
vt 0.135231 0.654399
vt 0.038926 0.714588
vt 0.112754 0.657140
vt 0.038831 0.651459
vt 0.112754 0.724036
vt 0.038926 0.714588
vt 0.038831 0.722911
vt 0.132487 0.714588
vt 0.112754 0.724036
vt 0.133393 0.722911
vt 0.132487 0.714588
vt 0.112754 0.657140
vt 0.133393 0.651459
s 0
usemtl electronics_etx_part_1
f 17/33/1 18/36/1 19/39/1 20/42/1 23/51/1 24/54/1 21/45/1 22/48/1
f 23/52/2 20/43/2 27/63/2 30/72/2
f 25/57/3 28/66/3 19/40/3 18/37/3
f 21/46/4 24/55/4 29/69/4 32/78/4
f 1/1/2 6/11/2 15/30/2 10/20/2
f 15/29/5 16/31/5 13/25/5 14/27/5 11/21/5 12/23/5 9/17/5 10/19/5
f 7/13/6 4/7/6 11/22/6 14/28/6
f 5/9/3 8/15/3 13/26/3 16/32/3
f 6/12/5 31/77/5 32/80/5 5/10/5
f 5/9/7 16/32/7 15/30/7 6/11/7
f 9/18/8 2/3/8 1/1/8 10/20/8
f 11/22/9 4/7/9 3/5/9 12/24/9
f 13/26/10 8/15/10 7/13/10 14/28/10
f 3/5/4 2/3/4 9/18/4 12/24/4
f 17/34/10 26/60/10 25/58/10 18/38/10
f 27/64/7 20/44/7 19/41/7 28/67/7
f 31/75/9 22/49/9 21/47/9 32/79/9
f 23/53/8 30/73/8 29/70/8 24/56/8
f 17/35/6 22/50/6 31/76/6 26/61/6
f 4/8/5 7/14/5 30/74/5 27/65/5
f 8/16/5 5/10/5 32/80/5 29/71/5
f 6/12/5 1/2/5 26/62/5 31/77/5
f 1/2/5 2/4/5 25/59/5 26/62/5
f 2/4/5 3/6/5 28/68/5 25/59/5
f 3/6/5 4/8/5 27/65/5 28/68/5
f 7/14/5 8/16/5 29/71/5 30/74/5
s 1
f 39/94/11 35/86/12 33/81/13 34/83/14 36/88/15 37/90/16 38/92/17 40/96/18
f 46/105/8 39/95/11 40/97/18 48/107/4
f 48/108/4 40/98/18 38/93/17 47/106/9
f 39/95/11 46/105/8 43/102/2 35/87/12
f 35/87/12 43/102/2 41/99/7 33/82/13
f 47/106/9 38/93/17 37/91/16 45/104/6
f 45/104/6 37/91/16 36/89/15 44/103/10
f 33/82/13 41/99/7 42/100/3 34/84/14
f 34/85/14 42/101/3 44/103/10 36/89/15
f 55/122/11 51/114/12 49/109/13 50/111/14 52/116/15 53/118/16 54/120/17 56/124/18
f 62/133/8 55/123/11 56/125/18 64/135/4
f 64/136/4 56/126/18 54/121/17 63/134/9
f 55/123/11 62/133/8 59/130/2 51/115/12
f 51/115/12 59/130/2 57/127/7 49/110/13
f 63/134/9 54/121/17 53/119/16 61/132/6
f 61/132/6 53/119/16 52/117/15 60/131/10
f 49/110/13 57/127/7 58/128/3 50/112/14
f 50/113/14 58/129/3 60/131/10 52/117/15
f 71/150/11 67/142/12 65/137/13 66/139/14 68/144/15 69/146/16 70/148/17 72/152/18
f 78/161/8 71/151/11 72/153/18 80/163/4
f 80/164/4 72/154/18 70/149/17 79/162/9
f 71/151/11 78/161/8 75/158/2 67/143/12
f 67/143/12 75/158/2 73/155/7 65/138/13
f 79/162/9 70/149/17 69/147/16 77/160/6
f 77/160/6 69/147/16 68/145/15 76/159/10
f 65/138/13 73/155/7 74/156/3 66/140/14
f 66/141/14 74/157/3 76/159/10 68/145/15
f 87/178/11 83/170/12 81/165/13 82/167/14 84/172/15 85/174/16 86/176/17 88/180/18
f 94/189/8 87/179/11 88/181/18 96/191/4
f 96/192/4 88/182/18 86/177/17 95/190/9
f 87/179/11 94/189/8 91/186/2 83/171/12
f 83/171/12 91/186/2 89/183/7 81/166/13
f 95/190/9 86/177/17 85/175/16 93/188/6
f 93/188/6 85/175/16 84/173/15 92/187/10
f 81/166/13 89/183/7 90/184/3 82/168/14
f 82/169/14 90/185/3 92/187/10 84/173/15
f 103/206/11 99/198/12 97/193/13 98/195/14 100/200/15 101/202/16 102/204/17 104/208/18
f 110/217/8 103/207/11 104/209/18 112/219/4
f 112/220/4 104/210/18 102/205/17 111/218/9
f 103/207/11 110/217/8 107/214/2 99/199/12
f 99/199/12 107/214/2 105/211/7 97/194/13
f 111/218/9 102/205/17 101/203/16 109/216/6
f 109/216/6 101/203/16 100/201/15 108/215/10
f 97/194/13 105/211/7 106/212/3 98/196/14
f 98/197/14 106/213/3 108/215/10 100/201/15
f 119/234/11 115/226/12 113/221/13 114/223/14 116/228/15 117/230/16 118/232/17 120/236/18
f 126/245/8 119/235/11 120/237/18 128/247/4
f 128/248/4 120/238/18 118/233/17 127/246/9
f 119/235/11 126/245/8 123/242/2 115/227/12
f 115/227/12 123/242/2 121/239/7 113/222/13
f 127/246/9 118/233/17 117/231/16 125/244/6
f 125/244/6 117/231/16 116/229/15 124/243/10
f 113/222/13 121/239/7 122/240/3 114/224/14
f 114/225/14 122/241/3 124/243/10 116/229/15
f 135/262/11 131/254/12 129/249/13 130/251/14 132/256/15 133/258/16 134/260/17 136/264/18
f 142/273/8 135/263/11 136/265/18 144/275/4
f 144/276/4 136/266/18 134/261/17 143/274/9
f 135/263/11 142/273/8 139/270/2 131/255/12
f 131/255/12 139/270/2 137/267/7 129/250/13
f 143/274/9 134/261/17 133/259/16 141/272/6
f 141/272/6 133/259/16 132/257/15 140/271/10
f 129/250/13 137/267/7 138/268/3 130/252/14
f 130/253/14 138/269/3 140/271/10 132/257/15
f 151/290/11 147/282/12 145/277/13 146/279/14 148/284/15 149/286/16 150/288/17 152/292/18
f 158/301/8 151/291/11 152/293/18 160/303/4
f 160/304/4 152/294/18 150/289/17 159/302/9
f 151/291/11 158/301/8 155/298/2 147/283/12
f 147/283/12 155/298/2 153/295/7 145/278/13
f 159/302/9 150/289/17 149/287/16 157/300/6
f 157/300/6 149/287/16 148/285/15 156/299/10
f 145/278/13 153/295/7 154/296/3 146/280/14
f 146/281/14 154/297/3 156/299/10 148/285/15
s 0
f 169/321/5 170/324/5 171/326/5 172/329/5 163/310/5 164/312/5 161/305/5 162/307/5
f 173/331/4 176/335/4 171/327/4 170/325/4
f 175/334/2 168/320/2 163/311/2 172/330/2
f 161/306/3 164/313/3 167/318/3 166/317/3
f 165/315/10 162/308/10 161/306/10 166/317/10
f 163/311/7 168/320/7 167/319/7 164/314/7
f 169/322/9 174/332/9 173/331/9 170/325/9
f 175/334/8 172/330/8 171/328/8 176/336/8
f 165/316/6 174/333/6 169/323/6 162/309/6
f 177/338/19 179/341/19 178/339/19
f 181/345/20 201/383/20 180/344/20
f 178/340/6 181/346/6 180/343/6 177/337/6
f 201/383/21 179/341/21 177/338/21 180/344/21
f 182/348/19 184/351/19 183/350/19
f 186/355/20 187/356/20 185/353/20
f 183/349/6 186/354/6 185/352/6 182/347/6
f 187/356/21 184/351/21 182/348/21 185/353/21
f 188/358/19 183/350/19 189/360/19
f 194/370/20 186/355/20 190/362/20
f 189/359/6 194/369/6 190/361/6 188/357/6
f 186/355/21 183/350/21 188/358/21 190/362/21
f 191/364/19 189/360/19 192/366/19
f 197/376/20 194/370/20 193/368/20
f 192/365/6 197/375/6 193/367/6 191/363/6
f 194/370/21 189/360/21 191/364/21 193/368/21
f 195/372/19 192/366/19 199/380/19
f 202/386/20 197/376/20 196/374/20
f 199/379/6 202/385/6 196/373/6 195/371/6
f 197/376/21 192/366/21 195/372/21 196/374/21
f 198/378/19 199/380/19 179/341/19
f 201/383/20 202/386/20 200/382/20
f 179/342/6 201/384/6 200/381/6 198/377/6
f 202/386/21 199/380/21 198/378/21 200/382/21
f 211/411/3 212/414/3 206/396/3 205/393/3
f 205/394/1 206/397/1 210/408/1 209/405/1
f 209/406/4 210/409/4 213/417/4 214/420/4
f 204/390/4 203/387/4 215/423/4 216/426/4
f 205/395/6 209/407/6 214/421/6 211/412/6
f 210/410/2 206/398/2 212/415/2 213/418/2
f 203/388/5 204/391/5 212/416/5 211/413/5
f 208/402/5 207/399/5 214/422/5 213/419/5
f 207/399/5 203/388/5 211/413/5 214/422/5
f 204/391/5 208/402/5 213/419/5 212/416/5
f 218/431/5 217/430/5 216/427/5 215/424/5
f 208/403/6 204/392/6 216/428/6 217/429/6
f 207/400/3 208/404/3 217/430/3 218/431/3
f 203/389/2 207/401/2 218/432/2 215/425/2
f 239/461/2 232/454/2 247/474/2 252/484/2
f 219/434/5 222/440/5 248/475/5 243/465/5
f 243/466/3 248/476/3 231/453/3 228/450/3
f 235/457/4 240/462/4 251/482/4 256/492/4
f 225/446/5 224/444/5 256/491/5 251/481/5
f 223/441/5 226/447/5 221/437/5 220/435/5
f 222/440/5 225/446/5 252/483/5 247/473/5
f 224/444/5 219/434/5 244/467/5 255/489/5
f 220/436/20 221/438/20 222/439/20 219/433/20
f 226/448/19 223/442/19 224/443/19 225/445/19
f 219/433/22 224/443/22 223/442/22 220/436/22
f 225/445/23 222/439/23 221/438/23 226/448/23
f 243/465/5 245/469/5 219/434/5
f 245/469/5 246/471/5 219/434/5
f 246/471/5 244/467/5 219/434/5
f 247/473/5 249/477/5 222/440/5
f 249/477/5 250/479/5 222/440/5
f 250/479/5 248/475/5 222/440/5
f 251/481/5 253/485/5 225/446/5
f 253/485/5 254/487/5 225/446/5
f 254/487/5 252/483/5 225/446/5
f 255/489/5 257/493/5 224/444/5
f 257/493/5 258/495/5 224/444/5
f 258/495/5 256/491/5 224/444/5
f 227/449/24 244/468/24 246/472/24 229/451/24
f 229/451/10 246/472/10 245/470/10 230/452/10
f 230/452/25 245/470/25 243/466/25 228/450/25
f 247/474/26 232/454/26 234/456/26 249/478/26
f 249/478/7 234/456/7 233/455/7 250/480/7
f 250/480/27 233/455/27 231/453/27 248/476/27
f 255/490/28 236/458/28 238/460/28 257/494/28
f 257/494/9 238/460/9 237/459/9 258/496/9
f 258/496/29 237/459/29 235/457/29 256/492/29
f 239/461/30 252/484/30 254/488/30 241/463/30
f 241/463/8 254/488/8 253/486/8 242/464/8
f 242/464/31 253/486/31 251/482/31 240/462/31
f 227/449/6 236/458/6 255/490/6 244/468/6
f 267/521/6 268/524/6 259/497/6 264/511/6
f 260/499/2 261/501/2 269/527/2 270/530/2
f 281/565/4 260/500/4 270/531/4 278/553/4
f 276/547/32 259/498/32 268/525/32 280/561/32
f 262/503/5 263/509/5 268/526/5 267/522/5
f 266/517/5 265/514/5 270/532/5 269/528/5
f 262/503/5 267/522/5 277/549/5
f 266/517/5 269/528/5 279/557/5
f 263/507/2 262/504/2 271/533/2 272/536/2
f 265/513/6 266/518/6 273/539/6 274/542/6
f 294/590/5 274/543/5 273/540/5 295/592/5
f 292/586/33 263/508/33 272/537/33 296/593/33
f 263/509/5 280/562/5 268/526/5
f 291/583/5 266/519/5 279/558/5 287/576/5
f 265/514/5 278/554/5 270/532/5
f 289/580/5 262/505/5 277/550/5 285/572/5
f 261/502/34 275/545/34 279/559/34 269/529/34
f 284/570/35 276/548/35 280/563/35 288/577/35
f 264/512/4 282/567/4 277/551/4 267/523/4
f 297/595/36 281/566/36 278/555/36 286/573/36
f 290/581/37 265/515/37 274/544/37 294/589/37
f 262/506/38 289/579/38 293/587/38 271/534/38
f 289/579/3 290/581/3 294/589/3 293/587/3
f 282/568/39 298/596/39 285/571/39 277/552/39
f 298/596/4 297/595/4 286/573/4 285/571/4
f 275/546/40 283/569/40 287/575/40 279/560/40
f 283/569/3 284/570/3 288/577/3 287/575/3
f 265/516/5 290/582/5 286/574/5 278/556/5
f 290/582/5 289/580/5 285/572/5 286/574/5
f 263/510/5 292/585/5 288/578/5 280/564/5
f 292/585/5 291/583/5 287/576/5 288/578/5
f 266/520/41 291/584/41 295/591/41 273/541/41
f 291/584/4 292/586/4 296/593/4 295/591/4
f 271/535/5 293/588/5 296/594/5 272/538/5
f 293/588/5 294/590/5 295/592/5 296/594/5
f 307/617/6 308/620/6 299/597/6 304/609/6
f 300/599/2 301/601/2 309/623/2 310/626/2
f 302/603/3 305/611/3 314/638/3 311/629/3
f 304/610/4 300/600/4 310/627/4 307/618/4
f 301/602/3 299/598/3 308/621/3 309/624/3
f 302/604/5 303/606/5 308/622/5 307/619/5
f 306/614/5 305/612/5 310/628/5 309/625/5
f 305/612/5 302/604/5 307/619/5 310/628/5
f 303/606/5 306/614/5 309/625/5 308/622/5
f 303/607/2 302/605/2 311/630/2 312/632/2
f 306/615/4 303/608/4 312/633/4 313/635/4
f 305/613/6 306/616/6 313/636/6 314/639/6
f 311/631/5 314/640/5 313/637/5 312/634/5
o computer_terminal_etx_1_round_screen
v -0.333000 0.252000 0.207000
v -0.333000 0.522000 0.207000
v 0.063000 0.252000 0.207000
v 0.063000 0.522000 0.207000
v -0.304498 0.280502 0.221964
v -0.198000 0.387000 0.249000
v -0.251974 0.333026 0.241081
v -0.304498 0.493498 0.221964
v -0.251974 0.440974 0.241081
v 0.034498 0.493498 0.221964
v -0.072000 0.387000 0.249000
v -0.018026 0.440974 0.241081
v 0.034498 0.280502 0.221964
v -0.018026 0.333026 0.241081
vn 0.2276 -0.2276 0.9468
vn -0.2276 -0.2276 0.9468
vn -0.2461 -0.2461 0.9375
vn 0.2461 -0.2461 0.9375
vn -0.2276 0.2276 0.9468
vn 0.2276 0.2276 0.9468
vn 0.2461 0.2461 0.9375
vn -0.2461 0.2461 0.9375
vn -0.0365 -0.0000 0.9993
vn -0.1499 0.1499 0.9773
vn -0.1499 -0.1499 0.9773
vn 0.0365 -0.0000 0.9993
vn 0.1499 -0.1499 0.9773
vn 0.1499 0.1499 0.9773
vt 0.736328 0.277344
vt 0.736328 0.361328
vt 0.860962 0.277344
vt 0.861328 0.361328
vt 0.745308 0.286209
vt 0.778879 0.319336
vt 0.761694 0.302388
vt 0.745316 0.352463
vt 0.761717 0.336284
vt 0.852302 0.352463
vt 0.818594 0.319336
vt 0.835830 0.336284
vt 0.852021 0.286209
vt 0.835706 0.302388
s 1
usemtl electronics_etx_part_1_screen
f 327/653/42 319/645/43 315/641/44 317/643/45
f 322/648/46 324/650/47 318/644/48 316/642/49
f 324/650/47 327/653/42 317/643/45 318/644/48
f 320/646/50 323/649/51 321/647/52
f 321/647/52 323/649/51 322/648/46 319/645/43
f 325/651/53 328/654/54 326/652/55
f 326/652/55 328/654/54 327/653/42 324/650/47
f 325/651/53 320/646/50 321/647/52 328/654/54
f 328/654/54 321/647/52 319/645/43 327/653/42
f 320/646/50 325/651/53 326/652/55 323/649/51
f 323/649/51 326/652/55 324/650/47 322/648/46
f 319/645/43 322/648/46 316/642/49 315/641/44
o circuit_board_etx_1_child
v 0.159999 0.302000 0.002000
v 0.159999 0.465000 0.002000
v 0.163999 0.302000 0.002000
v 0.163999 0.465000 0.002000
v 0.163999 0.506000 0.044000
v 0.159999 0.268000 0.044000
v 0.159999 0.506000 0.044000
v 0.163999 0.268000 0.044000
v 0.159999 0.465000 0.033000
v 0.163999 0.302000 0.033000
v 0.163999 0.465000 0.033000
v 0.159999 0.302000 0.033000
v 0.159999 0.268000 0.232000
v 0.159999 0.288000 0.252000
v 0.159999 0.486000 0.252000
v 0.159999 0.506000 0.232000
v 0.163999 0.506000 0.232000
v 0.163999 0.486000 0.252000
v 0.163999 0.288000 0.252000
v 0.163999 0.268000 0.232000
vn -0.0000 -0.0000 -1.0000
vn -0.0000 1.0000 -0.0000
vn -1.0000 -0.0000 -0.0000
vn -0.0000 -0.0000 1.0000
vn 1.0000 -0.0000 -0.0000
vn -0.0000 -0.3078 -0.9514
vn -0.0000 -1.0000 -0.0000
vn -0.0000 0.2591 -0.9658
vn -0.0000 0.7071 0.7071
vn -0.0000 -0.7071 0.7071
vt 0.539062 0.373047
vt 0.400391 0.373047
vt 0.361328 0.349609
vt 0.539062 0.466682
vt 0.400391 0.466682
vt 0.361328 0.349609
vt 0.541016 0.373047
vt 0.400391 0.373047
vt 0.361328 0.351562
vt 0.541016 0.466682
vt 0.361328 0.351562
vt 0.400391 0.466682
vt 0.392578 0.351562
vt 0.424016 0.490234
vt 0.365234 0.351562
vt 0.541016 0.349609
vt 0.392578 0.349609
vt 0.424016 0.353516
vt 0.392578 0.349609
vt 0.365234 0.349609
vt 0.424016 0.490234
vt 0.541016 0.351562
vt 0.392578 0.351562
vt 0.424016 0.353516
vt 0.384766 0.349609
vt 0.396484 0.349609
vt 0.417828 0.466682
vt 0.513672 0.351562
vt 0.384766 0.351562
vt 0.417828 0.373047
vt 0.384766 0.351562
vt 0.417828 0.466682
vt 0.396484 0.351562
vt 0.513672 0.349609
vt 0.384766 0.349609
vt 0.417828 0.373047
vt 0.529297 0.349609
vt 0.541016 0.349609
vt 0.529766 0.353516
vt 0.525391 0.349609
vt 0.541016 0.365005
vt 0.380859 0.349609
vt 0.541016 0.478745
vt 0.529297 0.349609
vt 0.365234 0.349609
vt 0.529766 0.490234
vt 0.529297 0.351562
vt 0.529766 0.490234
vt 0.365234 0.351562
vt 0.541016 0.478745
vt 0.380859 0.351562
vt 0.541016 0.365005
vt 0.525391 0.351562
vt 0.529766 0.353516
vt 0.529297 0.351562
vt 0.541016 0.351562
s 0
usemtl electronics_etx_part_1
f 329/655/56 330/658/56 332/664/56 331/661/56
f 345/701/57 333/667/57 335/673/57 344/698/57
f 340/690/58 337/681/58 330/659/58 329/656/58
f 347/707/59 346/705/59 343/696/59 342/694/59
f 339/685/57 332/665/57 330/660/57 337/679/57
f 338/684/60 331/662/60 332/666/60 339/686/60
f 347/706/60 348/708/60 336/678/60 333/668/60 345/702/60 346/704/60
f 338/682/61 336/676/61 334/670/61 340/688/61
f 336/677/62 348/709/62 341/691/62 334/671/62
f 331/663/62 338/683/62 340/689/62 329/657/62
f 336/678/60 338/684/60 339/686/60 333/668/60
f 333/669/63 339/687/63 337/680/63 335/674/63
f 334/672/58 335/675/58 337/681/58 340/690/58
f 345/703/64 344/699/64 343/696/64 346/705/64
f 341/692/65 348/710/65 347/707/65 342/694/65
f 341/693/58 342/695/58 343/697/58 344/700/58 335/675/58 334/672/58
o computer_terminal_etx_1_knob_child_2
v -0.079199 0.163304 0.217800
v -0.088104 0.146196 0.217800
v -0.060804 0.169103 0.217800
v -0.082305 0.127801 0.217800
v -0.065197 0.118895 0.217800
v -0.046802 0.124695 0.217800
v -0.043696 0.160197 0.217800
v -0.037896 0.141803 0.217800
v -0.052250 0.164650 0.217800
v -0.040796 0.151000 0.217800
v -0.085205 0.136998 0.217800
v -0.073751 0.123348 0.217800
v -0.052250 0.164650 0.230400
v -0.043696 0.160197 0.236700
v -0.073751 0.123348 0.230400
v -0.082305 0.127801 0.236700
v -0.040796 0.151000 0.230400
v -0.085205 0.136998 0.230400
v -0.043696 0.160197 0.205200
v -0.060804 0.169103 0.205200
v -0.088104 0.146196 0.205200
v -0.082305 0.127801 0.205200
v -0.079199 0.163304 0.205200
v -0.046802 0.124695 0.205200
v -0.037896 0.141803 0.205200
v -0.065197 0.118895 0.205200
v -0.074518 0.145007 0.205200
v -0.070432 0.152856 0.205200
v -0.061993 0.155517 0.205200
v -0.055569 0.135142 0.205200
v -0.071857 0.136567 0.205200
v -0.064008 0.132481 0.205200
v -0.054143 0.151431 0.205200
v -0.051483 0.142992 0.205200
v -0.054143 0.151431 0.198000
v -0.061993 0.155517 0.198000
v -0.074518 0.145007 0.198000
v -0.071857 0.136567 0.198000
v -0.070432 0.152856 0.198000
v -0.055569 0.135142 0.198000
v -0.051483 0.142992 0.198000
v -0.064008 0.132481 0.198000
vn 0.6428 -0.7660 -0.0000
vn -0.9537 -0.3007 -0.0000
vn -0.8870 0.4617 -0.0000
vn 0.4617 0.8870 -0.0000
vn -0.3007 0.9537 -0.0000
vn -0.4617 -0.8870 -0.0000
vn 0.3007 -0.9537 -0.0000
vn 0.9537 0.3007 -0.0000
vn 0.8870 -0.4617 -0.0000
vn -0.0000 -0.0000 1.0000
vn -0.3711 0.4423 0.8165
vn -0.6428 0.7660 -0.0000
vn 0.3711 -0.4423 0.8165
vn -0.0000 -0.0000 -1.0000
vn 0.4618 0.8870 -0.0000
vn -0.4618 -0.8870 -0.0000
vn 0.8870 -0.4618 -0.0000
vn -0.8870 0.4618 -0.0000
vt 0.187893 0.187500
vt 0.176833 0.187500
vt 0.179958 0.187893
vt 0.187893 0.179958
vt 0.179958 0.179958
vt 0.179958 0.187893
vt 0.187893 0.195042
vt 0.179958 0.195042
vt 0.187500 0.187893
vt 0.195042 0.187893
vt 0.187893 0.179958
vt 0.195042 0.179958
vt 0.187893 0.187500
vt 0.198167 0.187500
vt 0.187500 0.187893
vt 0.195042 0.187893
vt 0.187893 0.195042
vt 0.195042 0.195042
vt 0.183729 0.196605
vt 0.183729 0.187893
vt 0.187893 0.196605
vt 0.187893 0.196605
vt 0.191271 0.196605
vt 0.191271 0.187893
vt 0.183729 0.178395
vt 0.183729 0.187893
vt 0.187893 0.178395
vt 0.187893 0.178395
vt 0.191271 0.178395
vt 0.191271 0.187893
vt 0.183729 0.196605
vt 0.183729 0.182560
vt 0.182560 0.196605
vt 0.187500 0.179893
vt 0.187500 0.198167
vt 0.182560 0.178395
vt 0.191271 0.182560
vt 0.191271 0.178395
vt 0.187500 0.179893
vt 0.187500 0.176833
vt 0.182560 0.196605
vt 0.191271 0.182560
vt 0.191271 0.196605
vt 0.183729 0.178395
vt 0.183729 0.182560
vt 0.182560 0.178395
vt 0.187500 0.193226
vt 0.187500 0.198167
vt 0.179958 0.193226
vt 0.193226 0.195042
vt 0.179958 0.195042
vt 0.179958 0.193226
vt 0.193226 0.179958
vt 0.179958 0.179958
vt 0.187500 0.193226
vt 0.187500 0.176833
vt 0.193226 0.187500
vt 0.176833 0.187500
vt 0.193226 0.187500
vt 0.198167 0.187500
vt 0.195042 0.193226
vt 0.193226 0.195042
vt 0.195042 0.195042
vt 0.195042 0.193226
vt 0.193226 0.179958
vt 0.195042 0.179958
vt 0.184039 0.184040
vt 0.182606 0.187500
vt 0.184040 0.190961
vt 0.192394 0.187500
vt 0.187500 0.182606
vt 0.190961 0.184040
vt 0.187500 0.192394
vt 0.190961 0.190961
vt 0.187500 0.192394
vt 0.184040 0.190961
vt 0.184039 0.184040
vt 0.187500 0.182606
vt 0.182606 0.187500
vt 0.192394 0.187500
vt 0.190961 0.190961
vt 0.190961 0.184040
s 0
usemtl electronics_etx_part_1
f 360/738/66 358/732/66 365/751/66 363/746/66
f 370/765/67 352/719/67 359/736/67 350/713/67 369/762/67
f 369/763/68 350/714/68 349/711/68 371/767/68
f 355/725/69 367/757/69 368/759/69 351/716/69 357/730/69
f 351/717/70 368/760/70 371/767/70 349/711/70
f 352/719/71 370/765/71 374/774/71 353/720/71 360/740/71
f 353/721/72 374/775/72 372/769/72 354/723/72
f 367/757/73 355/725/73 358/734/73 356/726/73 373/771/73
f 373/772/74 356/727/74 354/723/74 372/769/74
f 359/735/75 357/729/75 351/718/75 349/712/75 350/715/75
f 364/750/76 362/745/76 361/741/76 366/754/76
f 360/739/75 353/722/75 354/724/75 356/728/75 358/733/75
f 355/725/69 357/730/69 361/742/69 362/744/69
f 359/736/67 352/719/67 364/749/67 366/755/67
f 352/719/71 360/740/71 363/747/71 364/749/71
f 358/734/73 355/725/73 362/744/73 365/752/73
f 357/731/77 359/737/77 366/756/77 361/743/77
f 363/748/78 365/753/78 362/745/78 364/750/78
f 373/773/79 372/770/79 374/776/79 370/766/79 369/764/79 371/768/79 368/761/79 367/758/79
f 377/779/80 381/783/80 383/785/80 384/786/80
f 381/783/73 382/784/73 389/791/73 383/785/73
f 380/782/81 379/781/81 386/788/81 390/792/81
f 382/784/82 378/780/82 388/790/82 389/791/82
f 379/781/67 375/777/67 385/787/67 386/788/67
f 378/780/72 380/782/72 390/792/72 388/790/72
f 376/778/70 377/779/70 384/786/70 387/789/70
f 375/777/83 376/778/83 387/789/83 385/787/83
o computer_terminal_etx_1_knob_child
v -0.223198 0.163304 0.217800
v -0.232104 0.146196 0.217800
v -0.204803 0.169104 0.217800
v -0.226304 0.127801 0.217800
v -0.209196 0.118895 0.217800
v -0.190801 0.124695 0.217800
v -0.187695 0.160198 0.217800
v -0.181895 0.141803 0.217800
v -0.196249 0.164651 0.217800
v -0.184795 0.151001 0.217800
v -0.229204 0.136999 0.217800
v -0.217750 0.123348 0.217800
v -0.196249 0.164651 0.230400
v -0.187695 0.160198 0.236700
v -0.217750 0.123348 0.230400
v -0.226304 0.127801 0.236700
v -0.184795 0.151001 0.230400
v -0.229204 0.136999 0.230400
v -0.187695 0.160198 0.205200
v -0.204803 0.169104 0.205200
v -0.232104 0.146196 0.205200
v -0.226304 0.127801 0.205200
v -0.223198 0.163304 0.205200
v -0.190801 0.124695 0.205200
v -0.181895 0.141803 0.205200
v -0.209196 0.118895 0.205200
v -0.218517 0.145007 0.205200
v -0.214431 0.152856 0.205200
v -0.205992 0.155517 0.205200
v -0.199568 0.135143 0.205200
v -0.215856 0.136568 0.205200
v -0.208007 0.132482 0.205200
v -0.198143 0.151431 0.205200
v -0.195482 0.142992 0.205200
v -0.198143 0.151431 0.198000
v -0.205992 0.155517 0.198000
v -0.218517 0.145007 0.198000
v -0.215856 0.136568 0.198000
v -0.214431 0.152856 0.198000
v -0.199568 0.135143 0.198000
v -0.195482 0.142992 0.198000
v -0.208007 0.132482 0.198000
vn 0.6428 -0.7660 -0.0000
vn -0.9537 -0.3007 -0.0000
vn -0.8870 0.4617 -0.0000
vn 0.4617 0.8870 -0.0000
vn -0.3007 0.9537 -0.0000
vn -0.4617 -0.8870 -0.0000
vn 0.3007 -0.9537 -0.0000
vn 0.9537 0.3007 -0.0000
vn 0.8870 -0.4617 -0.0000
vn -0.0000 -0.0000 1.0000
vn -0.3711 0.4423 0.8165
vn -0.6428 0.7660 -0.0000
vn 0.3711 -0.4423 0.8165
vn -0.0000 -0.0000 -1.0000
vt 0.187893 0.187500
vt 0.176833 0.187500
vt 0.179958 0.187893
vt 0.187893 0.179958
vt 0.179958 0.179958
vt 0.179958 0.187893
vt 0.187893 0.195042
vt 0.179958 0.195042
vt 0.187500 0.187893
vt 0.195042 0.187893
vt 0.187893 0.179958
vt 0.195042 0.179958
vt 0.187893 0.187500
vt 0.198167 0.187500
vt 0.187500 0.187893
vt 0.195042 0.187893
vt 0.187893 0.195042
vt 0.195042 0.195042
vt 0.183729 0.196605
vt 0.183729 0.187893
vt 0.187893 0.196605
vt 0.187893 0.196605
vt 0.191271 0.196605
vt 0.191271 0.187893
vt 0.183729 0.178395
vt 0.183729 0.187893
vt 0.187893 0.178395
vt 0.187893 0.178395
vt 0.191271 0.178395
vt 0.191271 0.187893
vt 0.183729 0.196605
vt 0.183729 0.182560
vt 0.182560 0.196605
vt 0.187500 0.179893
vt 0.187500 0.198167
vt 0.182560 0.178395
vt 0.191271 0.182560
vt 0.191271 0.178395
vt 0.187500 0.179893
vt 0.187500 0.176833
vt 0.182560 0.196605
vt 0.191271 0.182560
vt 0.191271 0.196605
vt 0.183729 0.178395
vt 0.183729 0.182560
vt 0.182560 0.178395
vt 0.187500 0.193226
vt 0.187500 0.198167
vt 0.179958 0.193226
vt 0.193226 0.195042
vt 0.179958 0.195042
vt 0.179958 0.193226
vt 0.193226 0.179958
vt 0.179958 0.179958
vt 0.187500 0.193226
vt 0.187500 0.176833
vt 0.193226 0.187500
vt 0.176833 0.187500
vt 0.193226 0.187500
vt 0.198167 0.187500
vt 0.195042 0.193226
vt 0.193226 0.195042
vt 0.195042 0.195042
vt 0.195042 0.193226
vt 0.193226 0.179958
vt 0.195042 0.179958
vt 0.184039 0.184040
vt 0.182606 0.187500
vt 0.184040 0.190961
vt 0.192394 0.187500
vt 0.187500 0.182606
vt 0.190961 0.184040
vt 0.187500 0.192394
vt 0.190961 0.190961
vt 0.187500 0.192394
vt 0.184040 0.190961
vt 0.184039 0.184040
vt 0.187500 0.182606
vt 0.182606 0.187500
vt 0.192394 0.187500
vt 0.190961 0.190961
vt 0.190961 0.184040
s 0
usemtl electronics_etx_part_1
f 402/820/84 400/814/84 407/833/84 405/828/84
f 412/847/85 394/801/85 401/818/85 392/795/85 411/844/85
f 411/845/86 392/796/86 391/793/86 413/849/86
f 397/807/87 409/839/87 410/841/87 393/798/87 399/812/87
f 393/799/88 410/842/88 413/849/88 391/793/88
f 394/801/89 412/847/89 416/856/89 395/802/89 402/822/89
f 395/803/90 416/857/90 414/851/90 396/805/90
f 409/839/91 397/807/91 400/816/91 398/808/91 415/853/91
f 415/854/92 398/809/92 396/805/92 414/851/92
f 401/817/93 399/811/93 393/800/93 391/794/93 392/797/93
f 406/832/94 404/827/94 403/823/94 408/836/94
f 402/821/93 395/804/93 396/806/93 398/810/93 400/815/93
f 397/807/87 399/812/87 403/824/87 404/826/87
f 401/818/85 394/801/85 406/831/85 408/837/85
f 394/801/89 402/822/89 405/829/89 406/831/89
f 400/816/91 397/807/91 404/826/91 407/834/91
f 399/813/95 401/819/95 408/838/95 403/825/95
f 405/830/96 407/835/96 404/827/96 406/832/96
f 415/855/97 414/852/97 416/858/97 412/848/97 411/846/97 413/850/97 410/843/97 409/840/97
f 419/861/87 423/865/87 425/867/87 426/868/87
f 423/865/91 424/866/91 431/873/91 425/867/91
f 422/864/89 421/863/89 428/870/89 432/874/89
f 424/866/92 420/862/92 430/872/92 431/873/92
f 421/863/85 417/859/85 427/869/85 428/870/85
f 420/862/90 422/864/90 432/874/90 430/872/90
f 418/860/88 419/861/88 426/868/88 429/871/88
f 417/859/86 418/860/86 429/871/86 427/869/86
o computer_terminal_etx_1_knob_child_1
v -0.118802 0.124696 0.217800
v -0.109896 0.141804 0.217800
v -0.137196 0.118896 0.217800
v -0.115695 0.160198 0.217800
v -0.132803 0.169104 0.217800
v -0.151198 0.163304 0.217800
v -0.154304 0.127802 0.217800
v -0.160104 0.146196 0.217800
v -0.145750 0.123349 0.217800
v -0.157204 0.136999 0.217800
v -0.112796 0.151001 0.217800
v -0.124249 0.164651 0.217800
v -0.145750 0.123349 0.230400
v -0.154304 0.127802 0.236700
v -0.124249 0.164651 0.230400
v -0.115695 0.160198 0.236700
v -0.157204 0.136999 0.230400
v -0.112796 0.151001 0.230400
v -0.154304 0.127802 0.205200
v -0.137196 0.118896 0.205200
v -0.109896 0.141804 0.205200
v -0.115695 0.160198 0.205200
v -0.118802 0.124696 0.205200
v -0.151198 0.163304 0.205200
v -0.160104 0.146196 0.205200
v -0.132803 0.169104 0.205200
v -0.123482 0.142992 0.205200
v -0.127568 0.135143 0.205200
v -0.136008 0.132482 0.205200
v -0.142432 0.152857 0.205200
v -0.126143 0.151432 0.205200
v -0.133992 0.155518 0.205200
v -0.143857 0.136568 0.205200
v -0.146518 0.145008 0.205200
v -0.143857 0.136568 0.198000
v -0.136008 0.132482 0.198000
v -0.123482 0.142992 0.198000
v -0.126143 0.151432 0.198000
v -0.127568 0.135143 0.198000
v -0.142432 0.152857 0.198000
v -0.146518 0.145008 0.198000
v -0.133992 0.155518 0.198000
vn -0.6428 0.7660 -0.0000
vn 0.9537 0.3007 -0.0000
vn 0.8870 -0.4617 -0.0000
vn -0.4617 -0.8870 -0.0000
vn 0.3007 -0.9537 -0.0000
vn 0.4617 0.8870 -0.0000
vn -0.3007 0.9537 -0.0000
vn -0.9537 -0.3007 -0.0000
vn -0.8870 0.4617 -0.0000
vn -0.0000 -0.0000 1.0000
vn 0.3711 -0.4423 0.8165
vn -0.4618 -0.8870 -0.0000
vn 0.4618 0.8870 -0.0000
vn 0.6428 -0.7660 -0.0000
vn -0.3711 0.4423 0.8165
vn -0.0000 -0.0000 -1.0000
vn 0.8870 -0.4618 -0.0000
vt 0.187893 0.187500
vt 0.176833 0.187500
vt 0.179958 0.187893
vt 0.187893 0.179958
vt 0.179958 0.179958
vt 0.179958 0.187893
vt 0.187893 0.195042
vt 0.179958 0.195042
vt 0.187500 0.187893
vt 0.195042 0.187893
vt 0.187893 0.179958
vt 0.195042 0.179958
vt 0.187893 0.187500
vt 0.198167 0.187500
vt 0.187500 0.187893
vt 0.195042 0.187893
vt 0.187893 0.195042
vt 0.195042 0.195042
vt 0.183729 0.196605
vt 0.183729 0.187893
vt 0.187893 0.196605
vt 0.187893 0.196605
vt 0.191271 0.196605
vt 0.191271 0.187893
vt 0.183729 0.178395
vt 0.183729 0.187893
vt 0.187893 0.178395
vt 0.187893 0.178395
vt 0.191271 0.178395
vt 0.191271 0.187893
vt 0.183729 0.196605
vt 0.183729 0.182560
vt 0.182560 0.196605
vt 0.187500 0.179893
vt 0.187500 0.198167
vt 0.182560 0.178395
vt 0.191271 0.182560
vt 0.191271 0.178395
vt 0.187500 0.179893
vt 0.187500 0.176833
vt 0.182560 0.196605
vt 0.191271 0.182560
vt 0.191271 0.196605
vt 0.183729 0.178395
vt 0.183729 0.182560
vt 0.182560 0.178395
vt 0.187500 0.193226
vt 0.187500 0.198167
vt 0.179958 0.193226
vt 0.193226 0.195042
vt 0.179958 0.195042
vt 0.179958 0.193226
vt 0.193226 0.179958
vt 0.179958 0.179958
vt 0.187500 0.193226
vt 0.187500 0.176833
vt 0.193226 0.187500
vt 0.176833 0.187500
vt 0.193226 0.187500
vt 0.198167 0.187500
vt 0.195042 0.193226
vt 0.193226 0.195042
vt 0.195042 0.195042
vt 0.195042 0.193226
vt 0.193226 0.179958
vt 0.195042 0.179958
vt 0.184039 0.184040
vt 0.182606 0.187500
vt 0.184040 0.190961
vt 0.192394 0.187500
vt 0.187500 0.182606
vt 0.190961 0.184040
vt 0.187500 0.192394
vt 0.190961 0.190961
vt 0.187500 0.192394
vt 0.184040 0.190961
vt 0.184039 0.184040
vt 0.187500 0.182606
vt 0.182606 0.187500
vt 0.192394 0.187500
vt 0.190961 0.190961
vt 0.190961 0.184040
s 0
usemtl electronics_etx_part_1
f 444/902/98 442/896/98 449/915/98 447/910/98
f 454/929/99 436/883/99 443/900/99 434/877/99 453/926/99
f 453/927/100 434/878/100 433/875/100 455/931/100
f 439/889/101 451/921/101 452/923/101 435/880/101 441/894/101
f 435/881/102 452/924/102 455/931/102 433/875/102
f 436/883/103 454/929/103 458/938/103 437/884/103 444/904/103
f 437/885/104 458/939/104 456/933/104 438/887/104
f 451/921/105 439/889/105 442/898/105 440/890/105 457/935/105
f 457/936/106 440/891/106 438/887/106 456/933/106
f 443/899/107 441/893/107 435/882/107 433/876/107 434/879/107
f 448/914/108 446/909/108 445/905/108 450/918/108
f 444/903/107 437/886/107 438/888/107 440/892/107 442/897/107
f 439/889/109 441/894/109 445/906/109 446/908/109
f 443/900/99 436/883/99 448/913/99 450/919/99
f 436/883/110 444/904/110 447/911/110 448/913/110
f 442/898/105 439/889/105 446/908/105 449/916/105
f 441/895/111 443/901/111 450/920/111 445/907/111
f 447/912/112 449/917/112 446/909/112 448/914/112
f 457/937/113 456/934/113 458/940/113 454/930/113 453/928/113 455/932/113 452/925/113 451/922/113
f 461/943/101 465/947/101 467/949/101 468/950/101
f 465/947/105 466/948/105 473/955/105 467/949/105
f 464/946/103 463/945/103 470/952/103 474/956/103
f 466/948/106 462/944/106 472/954/106 473/955/106
f 463/945/99 459/941/99 469/951/99 470/952/99
f 462/944/104 464/946/104 474/956/104 472/954/104
f 460/942/102 461/943/102 468/950/102 471/953/102
f 459/941/114 460/942/114 471/953/114 469/951/114
o computer_terminal_etx_1_button_child_16
v 0.333000 0.278100 0.212400
v 0.333000 0.306900 0.212400
v 0.329400 0.274500 0.203400
v 0.329400 0.310500 0.203400
v 0.379800 0.278100 0.212400
v 0.379800 0.306900 0.212400
v 0.383400 0.274500 0.203400
v 0.383400 0.310500 0.203400
vn -0.9285 -0.0000 0.3714
vn 0.9285 -0.0000 0.3714
vn -0.0000 -0.0000 1.0000
vn -0.0000 -0.9285 0.3714
vn -0.0000 0.9285 0.3714
vt 0.542141 0.026181
vt 0.531250 0.021484
vt 0.536686 0.022818
vt 0.542141 0.036412
vt 0.517578 0.021484
vt 0.536686 0.022818
vt 0.537973 0.024848
vt 0.531840 0.021484
vt 0.537973 0.037745
vt 0.531840 0.021484
vt 0.542151 0.026181
vt 0.531250 0.041016
vt 0.536686 0.039715
vt 0.542151 0.036412
vt 0.517578 0.041016
vt 0.536686 0.039715
vt 0.538008 0.024848
vt 0.531840 0.041048
vt 0.538008 0.037745
vt 0.531840 0.041048
s 0
usemtl electronics_etx_part_1
f 475/957/115 476/960/115 478/965/115 477/963/115
f 481/973/116 482/975/116 480/970/116 479/967/116
f 479/968/117 480/971/117 476/961/117 475/958/117
f 477/964/118 481/974/118 479/969/118 475/959/118
f 482/976/119 478/966/119 476/962/119 480/972/119
o computer_terminal_etx_1_button_child
v 0.264600 0.517500 0.203400
v 0.264600 0.481500 0.203400
v 0.261000 0.513900 0.212400
v 0.261000 0.485100 0.212400
v 0.210600 0.517500 0.203400
v 0.210600 0.481500 0.203400
v 0.214200 0.513900 0.212400
v 0.214200 0.485100 0.212400
vn -0.0000 -0.9285 0.3714
vn -0.9285 -0.0000 0.3714
vn -0.0000 -0.0000 1.0000
vn -0.0000 0.9285 0.3714
vn 0.9285 -0.0000 0.3714
vt 0.531840 0.019564
vt 0.538008 0.016261
vt 0.531840 0.019564
vt 0.538008 0.003364
vt 0.517578 0.019531
vt 0.536686 0.018231
vt 0.542151 0.014928
vt 0.536686 0.018231
vt 0.531250 0.019531
vt 0.542151 0.004697
vt 0.537973 0.016261
vt 0.531840 0.000000
vt 0.531840 0.000000
vt 0.537973 0.003364
vt 0.542141 0.014928
vt 0.517578 0.000000
vt 0.536686 0.001333
vt 0.536686 0.001333
vt 0.542141 0.004697
vt 0.531250 0.000000
s 0
usemtl electronics_etx_part_1
f 488/989/120 484/979/120 486/984/120 490/994/120
f 490/995/121 489/991/121 487/987/121 488/990/121
f 486/985/122 485/981/122 489/992/122 490/996/122
f 483/977/123 487/988/123 489/993/123 485/982/123
f 484/980/124 483/978/124 485/983/124 486/986/124
o computer_terminal_etx_1_button_child_1
v 0.324000 0.517500 0.203400
v 0.324000 0.481500 0.203400
v 0.320400 0.513900 0.212400
v 0.320400 0.485100 0.212400
v 0.270000 0.517500 0.203400
v 0.270000 0.481500 0.203400
v 0.273600 0.513900 0.212400
v 0.273600 0.485100 0.212400
vn -0.0000 -0.9285 0.3714
vn -0.9285 -0.0000 0.3714
vn -0.0000 -0.0000 1.0000
vn -0.0000 0.9285 0.3714
vn 0.9285 -0.0000 0.3714
vt 0.531840 0.019564
vt 0.538008 0.016261
vt 0.531840 0.019564
vt 0.538008 0.003364
vt 0.517578 0.019531
vt 0.536686 0.018231
vt 0.542151 0.014928
vt 0.536686 0.018231
vt 0.531250 0.019531
vt 0.542151 0.004697
vt 0.537973 0.016261
vt 0.531840 0.000000
vt 0.531840 0.000000
vt 0.537973 0.003364
vt 0.542141 0.014928
vt 0.517578 0.000000
vt 0.536686 0.001333
vt 0.536686 0.001333
vt 0.542141 0.004697
vt 0.531250 0.000000
s 0
usemtl electronics_etx_part_1
f 496/1009/125 492/999/125 494/1004/125 498/1014/125
f 498/1015/126 497/1011/126 495/1007/126 496/1010/126
f 494/1005/127 493/1001/127 497/1012/127 498/1016/127
f 491/997/128 495/1008/128 497/1013/128 493/1002/128
f 492/1000/129 491/998/129 493/1003/129 494/1006/129
o computer_terminal_etx_1_button_child_2
v 0.383400 0.517500 0.203400
v 0.383400 0.481500 0.203400
v 0.379800 0.513900 0.212400
v 0.379800 0.485100 0.212400
v 0.329400 0.517500 0.203400
v 0.329400 0.481500 0.203400
v 0.333000 0.513900 0.212400
v 0.333000 0.485100 0.212400
vn -0.0000 -0.9285 0.3714
vn -0.9285 -0.0000 0.3714
vn -0.0000 -0.0000 1.0000
vn -0.0000 0.9285 0.3714
vn 0.9285 -0.0000 0.3714
vt 0.531840 0.019564
vt 0.538008 0.016261
vt 0.531840 0.019564
vt 0.538008 0.003364
vt 0.517578 0.019531
vt 0.536686 0.018231
vt 0.542151 0.014928
vt 0.536686 0.018231
vt 0.531250 0.019531
vt 0.542151 0.004697
vt 0.537973 0.016261
vt 0.531840 0.000000
vt 0.531840 0.000000
vt 0.537973 0.003364
vt 0.542141 0.014928
vt 0.517578 0.000000
vt 0.536686 0.001333
vt 0.536686 0.001333
vt 0.542141 0.004697
vt 0.531250 0.000000
s 0
usemtl electronics_etx_part_1
f 504/1029/130 500/1019/130 502/1024/130 506/1034/130
f 506/1035/131 505/1031/131 503/1027/131 504/1030/131
f 502/1025/132 501/1021/132 505/1032/132 506/1036/132
f 499/1017/133 503/1028/133 505/1033/133 501/1022/133
f 500/1020/134 499/1018/134 501/1023/134 502/1026/134
o computer_terminal_etx_1_button_child_3
v 0.264600 0.476100 0.203400
v 0.264600 0.440100 0.203400
v 0.261000 0.472500 0.212400
v 0.261000 0.443700 0.212400
v 0.210600 0.476100 0.203400
v 0.210600 0.440100 0.203400
v 0.214200 0.472500 0.212400
v 0.214200 0.443700 0.212400
vn -0.0000 -0.9285 0.3714
vn -0.9285 -0.0000 0.3714
vn -0.0000 -0.0000 1.0000
vn -0.0000 0.9285 0.3714
vn 0.9285 -0.0000 0.3714
vt 0.531840 0.019564
vt 0.538008 0.016261
vt 0.531840 0.019564
vt 0.538008 0.003364
vt 0.517578 0.019531
vt 0.536686 0.018231
vt 0.542151 0.014928
vt 0.536686 0.018231
vt 0.531250 0.019531
vt 0.542151 0.004697
vt 0.537973 0.016261
vt 0.531840 0.000000
vt 0.531840 0.000000
vt 0.537973 0.003364
vt 0.542141 0.014928
vt 0.517578 0.000000
vt 0.536686 0.001333
vt 0.536686 0.001333
vt 0.542141 0.004697
vt 0.531250 0.000000
s 0
usemtl electronics_etx_part_1
f 512/1049/135 508/1039/135 510/1044/135 514/1054/135
f 514/1055/136 513/1051/136 511/1047/136 512/1050/136
f 510/1045/137 509/1041/137 513/1052/137 514/1056/137
f 507/1037/138 511/1048/138 513/1053/138 509/1042/138
f 508/1040/139 507/1038/139 509/1043/139 510/1046/139
o computer_terminal_etx_1_button_child_4
v 0.324000 0.476100 0.203400
v 0.324000 0.440100 0.203400
v 0.320400 0.472500 0.212400
v 0.320400 0.443700 0.212400
v 0.270000 0.476100 0.203400
v 0.270000 0.440100 0.203400
v 0.273600 0.472500 0.212400
v 0.273600 0.443700 0.212400
vn -0.0000 -0.9285 0.3714
vn -0.9285 -0.0000 0.3714
vn -0.0000 -0.0000 1.0000
vn -0.0000 0.9285 0.3714
vn 0.9285 -0.0000 0.3714
vt 0.531840 0.019564
vt 0.538008 0.016261
vt 0.531840 0.019564
vt 0.538008 0.003364
vt 0.517578 0.019531
vt 0.536686 0.018231
vt 0.542151 0.014928
vt 0.536686 0.018231
vt 0.531250 0.019531
vt 0.542151 0.004697
vt 0.537973 0.016261
vt 0.531840 0.000000
vt 0.531840 0.000000
vt 0.537973 0.003364
vt 0.542141 0.014928
vt 0.517578 0.000000
vt 0.536686 0.001333
vt 0.536686 0.001333
vt 0.542141 0.004697
vt 0.531250 0.000000
s 0
usemtl electronics_etx_part_1
f 520/1069/140 516/1059/140 518/1064/140 522/1074/140
f 522/1075/141 521/1071/141 519/1067/141 520/1070/141
f 518/1065/142 517/1061/142 521/1072/142 522/1076/142
f 515/1057/143 519/1068/143 521/1073/143 517/1062/143
f 516/1060/144 515/1058/144 517/1063/144 518/1066/144
o computer_terminal_etx_1_button_child_5
v 0.383400 0.476100 0.203400
v 0.383400 0.440100 0.203400
v 0.379800 0.472500 0.212400
v 0.379800 0.443700 0.212400
v 0.329400 0.476100 0.203400
v 0.329400 0.440100 0.203400
v 0.333000 0.472500 0.212400
v 0.333000 0.443700 0.212400
vn -0.0000 -0.9285 0.3714
vn -0.9285 -0.0000 0.3714
vn -0.0000 -0.0000 1.0000
vn -0.0000 0.9285 0.3714
vn 0.9285 -0.0000 0.3714
vt 0.531840 0.019564
vt 0.538008 0.016261
vt 0.531840 0.019564
vt 0.538008 0.003364
vt 0.517578 0.019531
vt 0.536686 0.018231
vt 0.542151 0.014928
vt 0.536686 0.018231
vt 0.531250 0.019531
vt 0.542151 0.004697
vt 0.537973 0.016261
vt 0.531840 0.000000
vt 0.531840 0.000000
vt 0.537973 0.003364
vt 0.542141 0.014928
vt 0.517578 0.000000
vt 0.536686 0.001333
vt 0.536686 0.001333
vt 0.542141 0.004697
vt 0.531250 0.000000
s 0
usemtl electronics_etx_part_1
f 528/1089/145 524/1079/145 526/1084/145 530/1094/145
f 530/1095/146 529/1091/146 527/1087/146 528/1090/146
f 526/1085/147 525/1081/147 529/1092/147 530/1096/147
f 523/1077/148 527/1088/148 529/1093/148 525/1082/148
f 524/1080/149 523/1078/149 525/1083/149 526/1086/149
o computer_terminal_etx_1_button_child_6
v 0.264600 0.434700 0.203400
v 0.264600 0.398700 0.203400
v 0.261000 0.431100 0.212400
v 0.261000 0.402300 0.212400
v 0.210600 0.434700 0.203400
v 0.210600 0.398700 0.203400
v 0.214200 0.431100 0.212400
v 0.214200 0.402300 0.212400
vn -0.0000 -0.9285 0.3714
vn -0.9285 -0.0000 0.3714
vn -0.0000 -0.0000 1.0000
vn -0.0000 0.9285 0.3714
vn 0.9285 -0.0000 0.3714
vt 0.531840 0.019564
vt 0.538008 0.016261
vt 0.531840 0.019564
vt 0.538008 0.003364
vt 0.517578 0.019531
vt 0.536686 0.018231
vt 0.542151 0.014928
vt 0.536686 0.018231
vt 0.531250 0.019531
vt 0.542151 0.004697
vt 0.537973 0.016261
vt 0.531840 0.000000
vt 0.531840 0.000000
vt 0.537973 0.003364
vt 0.542141 0.014928
vt 0.517578 0.000000
vt 0.536686 0.001333
vt 0.536686 0.001333
vt 0.542141 0.004697
vt 0.531250 0.000000
s 0
usemtl electronics_etx_part_1
f 536/1109/150 532/1099/150 534/1104/150 538/1114/150
f 538/1115/151 537/1111/151 535/1107/151 536/1110/151
f 534/1105/152 533/1101/152 537/1112/152 538/1116/152
f 531/1097/153 535/1108/153 537/1113/153 533/1102/153
f 532/1100/154 531/1098/154 533/1103/154 534/1106/154
o computer_terminal_etx_1_button_child_7
v 0.324000 0.434700 0.203400
v 0.324000 0.398700 0.203400
v 0.320400 0.431100 0.212400
v 0.320400 0.402300 0.212400
v 0.270000 0.434700 0.203400
v 0.270000 0.398700 0.203400
v 0.273600 0.431100 0.212400
v 0.273600 0.402300 0.212400
vn -0.0000 -0.9285 0.3714
vn -0.9285 -0.0000 0.3714
vn -0.0000 -0.0000 1.0000
vn -0.0000 0.9285 0.3714
vn 0.9285 -0.0000 0.3714
vt 0.531840 0.019564
vt 0.538008 0.016261
vt 0.531840 0.019564
vt 0.538008 0.003364
vt 0.517578 0.019531
vt 0.536686 0.018231
vt 0.542151 0.014928
vt 0.536686 0.018231
vt 0.531250 0.019531
vt 0.542151 0.004697
vt 0.537973 0.016261
vt 0.531840 0.000000
vt 0.531840 0.000000
vt 0.537973 0.003364
vt 0.542141 0.014928
vt 0.517578 0.000000
vt 0.536686 0.001333
vt 0.536686 0.001333
vt 0.542141 0.004697
vt 0.531250 0.000000
s 0
usemtl electronics_etx_part_1
f 544/1129/155 540/1119/155 542/1124/155 546/1134/155
f 546/1135/156 545/1131/156 543/1127/156 544/1130/156
f 542/1125/157 541/1121/157 545/1132/157 546/1136/157
f 539/1117/158 543/1128/158 545/1133/158 541/1122/158
f 540/1120/159 539/1118/159 541/1123/159 542/1126/159
o computer_terminal_etx_1_button_child_8
v 0.383400 0.434700 0.203400
v 0.383400 0.398700 0.203400
v 0.379800 0.431100 0.212400
v 0.379800 0.402300 0.212400
v 0.329400 0.434700 0.203400
v 0.329400 0.398700 0.203400
v 0.333000 0.431100 0.212400
v 0.333000 0.402300 0.212400
vn -0.0000 -0.9285 0.3714
vn -0.9285 -0.0000 0.3714
vn -0.0000 -0.0000 1.0000
vn -0.0000 0.9285 0.3714
vn 0.9285 -0.0000 0.3714
vt 0.531840 0.019564
vt 0.538008 0.016261
vt 0.531840 0.019564
vt 0.538008 0.003364
vt 0.517578 0.019531
vt 0.536686 0.018231
vt 0.542151 0.014928
vt 0.536686 0.018231
vt 0.531250 0.019531
vt 0.542151 0.004697
vt 0.537973 0.016261
vt 0.531840 0.000000
vt 0.531840 0.000000
vt 0.537973 0.003364
vt 0.542141 0.014928
vt 0.517578 0.000000
vt 0.536686 0.001333
vt 0.536686 0.001333
vt 0.542141 0.004697
vt 0.531250 0.000000
s 0
usemtl electronics_etx_part_1
f 552/1149/160 548/1139/160 550/1144/160 554/1154/160
f 554/1155/161 553/1151/161 551/1147/161 552/1150/161
f 550/1145/162 549/1141/162 553/1152/162 554/1156/162
f 547/1137/163 551/1148/163 553/1153/163 549/1142/163
f 548/1140/164 547/1138/164 549/1143/164 550/1146/164
o computer_terminal_etx_1_button_child_9
v 0.264600 0.393300 0.203400
v 0.264600 0.357300 0.203400
v 0.261000 0.389700 0.212400
v 0.261000 0.360900 0.212400
v 0.210600 0.393300 0.203400
v 0.210600 0.357300 0.203400
v 0.214200 0.389700 0.212400
v 0.214200 0.360900 0.212400
vn -0.0000 -0.9285 0.3714
vn -0.9285 -0.0000 0.3714
vn -0.0000 -0.0000 1.0000
vn -0.0000 0.9285 0.3714
vn 0.9285 -0.0000 0.3714
vt 0.531840 0.019564
vt 0.538008 0.016261
vt 0.531840 0.019564
vt 0.538008 0.003364
vt 0.517578 0.019531
vt 0.536686 0.018231
vt 0.542151 0.014928
vt 0.536686 0.018231
vt 0.531250 0.019531
vt 0.542151 0.004697
vt 0.537973 0.016261
vt 0.531840 0.000000
vt 0.531840 0.000000
vt 0.537973 0.003364
vt 0.542141 0.014928
vt 0.517578 0.000000
vt 0.536686 0.001333
vt 0.536686 0.001333
vt 0.542141 0.004697
vt 0.531250 0.000000
s 0
usemtl electronics_etx_part_1
f 560/1169/165 556/1159/165 558/1164/165 562/1174/165
f 562/1175/166 561/1171/166 559/1167/166 560/1170/166
f 558/1165/167 557/1161/167 561/1172/167 562/1176/167
f 555/1157/168 559/1168/168 561/1173/168 557/1162/168
f 556/1160/169 555/1158/169 557/1163/169 558/1166/169
o computer_terminal_etx_1_button_child_10
v 0.324000 0.393300 0.203400
v 0.324000 0.357300 0.203400
v 0.320400 0.389700 0.212400
v 0.320400 0.360900 0.212400
v 0.270000 0.393300 0.203400
v 0.270000 0.357300 0.203400
v 0.273600 0.389700 0.212400
v 0.273600 0.360900 0.212400
vn -0.0000 -0.9285 0.3714
vn -0.9285 -0.0000 0.3714
vn -0.0000 -0.0000 1.0000
vn -0.0000 0.9285 0.3714
vn 0.9285 -0.0000 0.3714
vt 0.531840 0.019564
vt 0.538008 0.016261
vt 0.531840 0.019564
vt 0.538008 0.003364
vt 0.517578 0.019531
vt 0.536686 0.018231
vt 0.542151 0.014928
vt 0.536686 0.018231
vt 0.531250 0.019531
vt 0.542151 0.004697
vt 0.537973 0.016261
vt 0.531840 0.000000
vt 0.531840 0.000000
vt 0.537973 0.003364
vt 0.542141 0.014928
vt 0.517578 0.000000
vt 0.536686 0.001333
vt 0.536686 0.001333
vt 0.542141 0.004697
vt 0.531250 0.000000
s 0
usemtl electronics_etx_part_1
f 568/1189/170 564/1179/170 566/1184/170 570/1194/170
f 570/1195/171 569/1191/171 567/1187/171 568/1190/171
f 566/1185/172 565/1181/172 569/1192/172 570/1196/172
f 563/1177/173 567/1188/173 569/1193/173 565/1182/173
f 564/1180/174 563/1178/174 565/1183/174 566/1186/174
o computer_terminal_etx_1_button_child_11
v 0.383400 0.393300 0.203400
v 0.383400 0.357300 0.203400
v 0.379800 0.389700 0.212400
v 0.379800 0.360900 0.212400
v 0.329400 0.393300 0.203400
v 0.329400 0.357300 0.203400
v 0.333000 0.389700 0.212400
v 0.333000 0.360900 0.212400
vn -0.0000 -0.9285 0.3714
vn -0.9285 -0.0000 0.3714
vn -0.0000 -0.0000 1.0000
vn -0.0000 0.9285 0.3714
vn 0.9285 -0.0000 0.3714
vt 0.531840 0.019564
vt 0.538008 0.016261
vt 0.531840 0.019564
vt 0.538008 0.003364
vt 0.517578 0.019531
vt 0.536686 0.018231
vt 0.542151 0.014928
vt 0.536686 0.018231
vt 0.531250 0.019531
vt 0.542151 0.004697
vt 0.537973 0.016261
vt 0.531840 0.000000
vt 0.531840 0.000000
vt 0.537973 0.003364
vt 0.542141 0.014928
vt 0.517578 0.000000
vt 0.536686 0.001333
vt 0.536686 0.001333
vt 0.542141 0.004697
vt 0.531250 0.000000
s 0
usemtl electronics_etx_part_1
f 576/1209/175 572/1199/175 574/1204/175 578/1214/175
f 578/1215/176 577/1211/176 575/1207/176 576/1210/176
f 574/1205/177 573/1201/177 577/1212/177 578/1216/177
f 571/1197/178 575/1208/178 577/1213/178 573/1202/178
f 572/1200/179 571/1198/179 573/1203/179 574/1206/179
o computer_terminal_etx_1_button_child_12
v 0.264600 0.351900 0.203400
v 0.264600 0.315900 0.203400
v 0.261000 0.348300 0.212400
v 0.261000 0.319500 0.212400
v 0.210600 0.351900 0.203400
v 0.210600 0.315900 0.203400
v 0.214200 0.348300 0.212400
v 0.214200 0.319500 0.212400
vn -0.0000 -0.9285 0.3714
vn -0.9285 -0.0000 0.3714
vn -0.0000 -0.0000 1.0000
vn -0.0000 0.9285 0.3714
vn 0.9285 -0.0000 0.3714
vt 0.531840 0.019564
vt 0.538008 0.016261
vt 0.531840 0.019564
vt 0.538008 0.003364
vt 0.517578 0.019531
vt 0.536686 0.018231
vt 0.542151 0.014928
vt 0.536686 0.018231
vt 0.531250 0.019531
vt 0.542151 0.004697
vt 0.537973 0.016261
vt 0.531840 0.000000
vt 0.531840 0.000000
vt 0.537973 0.003364
vt 0.542141 0.014928
vt 0.517578 0.000000
vt 0.536686 0.001333
vt 0.536686 0.001333
vt 0.542141 0.004697
vt 0.531250 0.000000
s 0
usemtl electronics_etx_part_1
f 584/1229/180 580/1219/180 582/1224/180 586/1234/180
f 586/1235/181 585/1231/181 583/1227/181 584/1230/181
f 582/1225/182 581/1221/182 585/1232/182 586/1236/182
f 579/1217/183 583/1228/183 585/1233/183 581/1222/183
f 580/1220/184 579/1218/184 581/1223/184 582/1226/184
o computer_terminal_etx_1_button_child_13
v 0.324000 0.351900 0.203400
v 0.324000 0.315900 0.203400
v 0.320400 0.348300 0.212400
v 0.320400 0.319500 0.212400
v 0.270000 0.351900 0.203400
v 0.270000 0.315900 0.203400
v 0.273600 0.348300 0.212400
v 0.273600 0.319500 0.212400
vn -0.0000 -0.9285 0.3714
vn -0.9285 -0.0000 0.3714
vn -0.0000 -0.0000 1.0000
vn -0.0000 0.9285 0.3714
vn 0.9285 -0.0000 0.3714
vt 0.531840 0.019564
vt 0.538008 0.016261
vt 0.531840 0.019564
vt 0.538008 0.003364
vt 0.517578 0.019531
vt 0.536686 0.018231
vt 0.542151 0.014928
vt 0.536686 0.018231
vt 0.531250 0.019531
vt 0.542151 0.004697
vt 0.537973 0.016261
vt 0.531840 0.000000
vt 0.531840 0.000000
vt 0.537973 0.003364
vt 0.542141 0.014928
vt 0.517578 0.000000
vt 0.536686 0.001333
vt 0.536686 0.001333
vt 0.542141 0.004697
vt 0.531250 0.000000
s 0
usemtl electronics_etx_part_1
f 592/1249/185 588/1239/185 590/1244/185 594/1254/185
f 594/1255/186 593/1251/186 591/1247/186 592/1250/186
f 590/1245/187 589/1241/187 593/1252/187 594/1256/187
f 587/1237/188 591/1248/188 593/1253/188 589/1242/188
f 588/1240/189 587/1238/189 589/1243/189 590/1246/189
o computer_terminal_etx_1_button_child_14
v 0.383400 0.351900 0.203400
v 0.383400 0.315900 0.203400
v 0.379800 0.348300 0.212400
v 0.379800 0.319500 0.212400
v 0.329400 0.351900 0.203400
v 0.329400 0.315900 0.203400
v 0.333000 0.348300 0.212400
v 0.333000 0.319500 0.212400
vn -0.0000 -0.9285 0.3714
vn -0.9285 -0.0000 0.3714
vn -0.0000 -0.0000 1.0000
vn -0.0000 0.9285 0.3714
vn 0.9285 -0.0000 0.3714
vt 0.531840 0.019564
vt 0.538008 0.016261
vt 0.531840 0.019564
vt 0.538008 0.003364
vt 0.517578 0.019531
vt 0.536686 0.018231
vt 0.542151 0.014928
vt 0.536686 0.018231
vt 0.531250 0.019531
vt 0.542151 0.004697
vt 0.537973 0.016261
vt 0.531840 0.000000
vt 0.531840 0.000000
vt 0.537973 0.003364
vt 0.542141 0.014928
vt 0.517578 0.000000
vt 0.536686 0.001333
vt 0.536686 0.001333
vt 0.542141 0.004697
vt 0.531250 0.000000
s 0
usemtl electronics_etx_part_1
f 600/1269/190 596/1259/190 598/1264/190 602/1274/190
f 602/1275/191 601/1271/191 599/1267/191 600/1270/191
f 598/1265/192 597/1261/192 601/1272/192 602/1276/192
f 595/1257/193 599/1268/193 601/1273/193 597/1262/193
f 596/1260/194 595/1258/194 597/1263/194 598/1266/194
o computer_terminal_etx_1_button_child_15
v 0.214200 0.278100 0.212400
v 0.214200 0.306900 0.212400
v 0.210600 0.274500 0.203400
v 0.210600 0.310500 0.203400
v 0.261000 0.278100 0.212400
v 0.261000 0.306900 0.212400
v 0.264600 0.274500 0.203400
v 0.264600 0.310500 0.203400
vn -0.9285 -0.0000 0.3714
vn 0.9285 -0.0000 0.3714
vn -0.0000 -0.0000 1.0000
vn -0.0000 -0.9285 0.3714
vn -0.0000 0.9285 0.3714
vt 0.542141 0.047666
vt 0.531250 0.042969
vt 0.536686 0.044302
vt 0.542141 0.057896
vt 0.517578 0.042969
vt 0.536686 0.044302
vt 0.537973 0.046332
vt 0.531840 0.042969
vt 0.537973 0.059230
vt 0.531840 0.042969
vt 0.542151 0.047666
vt 0.531250 0.062500
vt 0.536686 0.061200
vt 0.542151 0.057896
vt 0.517578 0.062500
vt 0.536686 0.061200
vt 0.538008 0.046332
vt 0.531840 0.062533
vt 0.538008 0.059230
vt 0.531840 0.062533
s 0
usemtl electronics_etx_part_1
f 603/1277/195 604/1280/195 606/1285/195 605/1283/195
f 609/1293/196 610/1295/196 608/1290/196 607/1287/196
f 607/1288/197 608/1291/197 604/1281/197 603/1278/197
f 605/1284/198 609/1294/198 607/1289/198 603/1279/198
f 610/1296/199 606/1286/199 604/1282/199 608/1292/199
