# Blender 3.4.0
# www.blender.org
mtllib fader_etx_1_1.mtl
o fader_etx_1_1
v -0.005400 -0.108000 0.036000
v -0.005400 0.108000 0.036000
v 0.005400 -0.108000 0.036000
v 0.005400 0.108000 0.036000
v -0.005400 -0.108000 0.018000
v -0.005400 0.108000 0.018000
v 0.005400 0.108000 0.018000
v 0.005400 -0.108000 0.018000
v -0.027000 -0.144000 0.000000
v -0.045000 -0.126000 0.000000
v -0.045000 0.126000 0.000000
v -0.027000 0.144000 0.000000
v 0.045000 -0.126000 0.000000
v 0.027000 -0.144000 0.000000
v 0.027000 0.144000 0.000000
v 0.045000 0.126000 0.000000
v -0.045000 -0.126000 0.036000
v -0.027000 -0.144000 0.036000
v -0.027000 0.144000 0.036000
v -0.045000 0.126000 0.036000
v 0.045000 0.126000 0.036000
v 0.027000 0.144000 0.036000
v 0.027000 -0.144000 0.036000
v 0.045000 -0.126000 0.036000
v 0.018000 -0.149400 0.005400
v -0.018000 -0.149400 0.005400
v 0.018000 -0.144000 0.000000
v -0.018000 -0.144000 0.000000
v 0.018000 -0.144000 0.018000
v 0.009000 -0.144000 0.027000
v -0.009000 -0.144000 0.027000
v -0.018000 -0.144000 0.018000
v 0.009000 -0.149400 0.027000
v 0.018000 -0.149400 0.018000
v -0.018000 -0.149400 0.018000
v -0.009000 -0.149400 0.027000
v 0.018000 -0.180000 0.005400
v 0.009000 -0.189000 0.005400
v -0.009000 -0.189000 0.005400
v -0.018000 -0.180000 0.005400
v 0.009000 -0.189000 0.000000
v 0.018000 -0.180000 0.000000
v -0.018000 -0.180000 0.000000
v -0.009000 -0.189000 0.000000
v -0.008591 -0.160608 0.010170
v 0.000000 -0.157050 0.010170
v -0.012150 -0.169200 0.010170
v 0.008591 -0.160609 0.010170
v 0.012150 -0.169200 0.010170
v 0.008591 -0.177791 0.010170
v -0.008591 -0.177791 0.010170
v 0.000000 -0.181350 0.010170
v -0.008591 -0.160608 0.005310
v 0.000000 -0.157050 0.005310
v -0.012150 -0.169200 0.005310
v 0.008591 -0.160609 0.005310
v 0.012150 -0.169200 0.005310
v -0.008591 -0.177791 0.005310
v 0.008591 -0.177791 0.005310
v 0.000000 -0.181350 0.005310
v -0.005728 -0.163472 0.016650
v -0.000000 -0.161100 0.016650
v -0.008100 -0.169200 0.016650
v 0.005728 -0.163472 0.016650
v 0.008100 -0.169200 0.016650
v 0.005728 -0.174927 0.016650
v -0.005728 -0.174927 0.016650
v 0.000000 -0.177300 0.016650
v -0.005728 -0.163472 0.010170
v -0.000000 -0.161100 0.010170
v -0.008100 -0.169200 0.010170
v 0.005728 -0.163472 0.010170
v 0.008100 -0.169200 0.010170
v -0.005728 -0.174927 0.010170
v 0.005728 -0.174927 0.010170
v 0.000000 -0.177300 0.010170
v 0.018000 0.149400 0.005400
v -0.018000 0.149400 0.005400
v 0.018000 0.144000 0.000000
v -0.018000 0.144000 0.000000
v 0.018000 0.144000 0.018000
v 0.009000 0.144000 0.027000
v -0.009000 0.144000 0.027000
v -0.018000 0.144000 0.018000
v 0.009000 0.149400 0.027000
v 0.018000 0.149400 0.018000
v -0.018000 0.149400 0.018000
v -0.009000 0.149400 0.027000
v 0.018000 0.180000 0.005400
v 0.009000 0.189000 0.005400
v -0.009000 0.189000 0.005400
v -0.018000 0.180000 0.005400
v 0.009000 0.189000 0.000000
v 0.018000 0.180000 0.000000
v -0.018000 0.180000 0.000000
v -0.009000 0.189000 0.000000
v -0.008591 0.160608 0.010170
v 0.000000 0.157050 0.010170
v -0.012150 0.169200 0.010170
v 0.008591 0.160608 0.010170
v 0.012150 0.169200 0.010170
v 0.008591 0.177791 0.010170
v -0.008591 0.177791 0.010170
v 0.000000 0.181350 0.010170
v -0.008591 0.160608 0.005310
v 0.000000 0.157050 0.005310
v -0.012150 0.169200 0.005310
v 0.008591 0.160608 0.005310
v 0.012150 0.169200 0.005310
v -0.008591 0.177791 0.005310
v 0.008591 0.177791 0.005310
v 0.000000 0.181350 0.005310
v -0.005728 0.163472 0.016650
v -0.000000 0.161100 0.016650
v -0.008100 0.169200 0.016650
v 0.005728 0.163472 0.016650
v 0.008100 0.169200 0.016650
v 0.005728 0.174927 0.016650
v -0.005728 0.174927 0.016650
v 0.000000 0.177300 0.016650
v -0.005728 0.163472 0.010170
v -0.000000 0.161100 0.010170
v -0.008100 0.169200 0.010170
v 0.005728 0.163472 0.010170
v 0.008100 0.169200 0.010170
v -0.005728 0.174927 0.010170
v 0.005728 0.174927 0.010170
v 0.000000 0.177300 0.010170
v 0.034200 -0.001800 0.037800
v 0.016200 -0.001800 0.037800
v 0.034200 -0.001800 0.036000
v 0.016200 -0.001800 0.036000
v 0.034200 0.001800 0.037800
v 0.016200 0.001800 0.037800
v 0.034200 0.001800 0.036000
v 0.016200 0.001800 0.036000
v -0.016200 -0.001800 0.037800
v -0.034200 -0.001800 0.037800
v -0.016200 -0.001800 0.036000
v -0.034200 -0.001800 0.036000
v -0.016200 0.001800 0.037800
v -0.034200 0.001800 0.037800
v -0.016200 0.001800 0.036000
v -0.034200 0.001800 0.036000
v -0.034200 -0.070200 0.036000
v -0.016200 -0.070200 0.036000
v -0.034200 -0.070200 0.037800
v -0.016200 -0.070200 0.037800
v -0.034200 -0.073800 0.036000
v -0.016200 -0.073800 0.036000
v -0.034200 -0.073800 0.037800
v -0.016200 -0.073800 0.037800
v 0.016200 -0.070200 0.036000
v 0.034200 -0.070200 0.036000
v 0.016200 -0.070200 0.037800
v 0.034200 -0.070200 0.037800
v 0.016200 -0.073800 0.036000
v 0.034200 -0.073800 0.036000
v 0.016200 -0.073800 0.037800
v 0.034200 -0.073800 0.037800
v 0.034200 0.016200 0.037800
v 0.016200 0.016200 0.037800
v 0.034200 0.016200 0.036000
v 0.016200 0.016200 0.036000
v 0.034200 0.019800 0.037800
v 0.016200 0.019800 0.037800
v 0.034200 0.019800 0.036000
v 0.016200 0.019800 0.036000
v -0.016200 0.016200 0.037800
v -0.034200 0.016200 0.037800
v -0.016200 0.016200 0.036000
v -0.034200 0.016200 0.036000
v -0.016200 0.019800 0.037800
v -0.034200 0.019800 0.037800
v -0.016200 0.019800 0.036000
v -0.034200 0.019800 0.036000
v 0.034200 0.034200 0.037800
v 0.016200 0.034200 0.037800
v 0.034200 0.034200 0.036000
v 0.016200 0.034200 0.036000
v 0.034200 0.037800 0.037800
v 0.016200 0.037800 0.037800
v 0.034200 0.037800 0.036000
v 0.016200 0.037800 0.036000
v -0.016200 0.034200 0.037800
v -0.034200 0.034200 0.037800
v -0.016200 0.034200 0.036000
v -0.034200 0.034200 0.036000
v -0.016200 0.037800 0.037800
v -0.034200 0.037800 0.037800
v -0.016200 0.037800 0.036000
v -0.034200 0.037800 0.036000
v 0.034200 0.052200 0.037800
v 0.016200 0.052200 0.037800
v 0.034200 0.052200 0.036000
v 0.016200 0.052200 0.036000
v 0.034200 0.055800 0.037800
v 0.016200 0.055800 0.037800
v 0.034200 0.055800 0.036000
v 0.016200 0.055800 0.036000
v -0.016200 0.052200 0.037800
v -0.034200 0.052200 0.037800
v -0.016200 0.052200 0.036000
v -0.034200 0.052200 0.036000
v -0.016200 0.055800 0.037800
v -0.034200 0.055800 0.037800
v -0.016200 0.055800 0.036000
v -0.034200 0.055800 0.036000
v 0.034200 0.070200 0.037800
v 0.016200 0.070200 0.037800
v 0.034200 0.070200 0.036000
v 0.016200 0.070200 0.036000
v 0.034200 0.073800 0.037800
v 0.016200 0.073800 0.037800
v 0.034200 0.073800 0.036000
v 0.016200 0.073800 0.036000
v -0.016200 0.070200 0.037800
v -0.034200 0.070200 0.037800
v -0.016200 0.070200 0.036000
v -0.034200 0.070200 0.036000
v -0.016200 0.073800 0.037800
v -0.034200 0.073800 0.037800
v -0.016200 0.073800 0.036000
v -0.034200 0.073800 0.036000
v 0.034200 0.088200 0.037800
v 0.016200 0.088200 0.037800
v 0.034200 0.088200 0.036000
v 0.016200 0.088200 0.036000
v 0.034200 0.091800 0.037800
v 0.016200 0.091800 0.037800
v 0.034200 0.091800 0.036000
v 0.016200 0.091800 0.036000
v -0.016200 0.088200 0.037800
v -0.034200 0.088200 0.037800
v -0.016200 0.088200 0.036000
v -0.034200 0.088200 0.036000
v -0.016200 0.091800 0.037800
v -0.034200 0.091800 0.037800
v -0.016200 0.091800 0.036000
v -0.034200 0.091800 0.036000
v 0.034200 -0.055800 0.037800
v 0.016200 -0.055800 0.037800
v 0.034200 -0.055800 0.036000
v 0.016200 -0.055800 0.036000
v 0.034200 -0.052200 0.037800
v 0.016200 -0.052200 0.037800
v 0.034200 -0.052200 0.036000
v 0.016200 -0.052200 0.036000
v -0.016200 -0.055800 0.037800
v -0.034200 -0.055800 0.037800
v -0.016200 -0.055800 0.036000
v -0.034200 -0.055800 0.036000
v -0.016200 -0.052200 0.037800
v -0.034200 -0.052200 0.037800
v -0.016200 -0.052200 0.036000
v -0.034200 -0.052200 0.036000
v 0.034200 -0.037800 0.037800
v 0.016200 -0.037800 0.037800
v 0.034200 -0.037800 0.036000
v 0.016200 -0.037800 0.036000
v 0.034200 -0.034200 0.037800
v 0.016200 -0.034200 0.037800
v 0.034200 -0.034200 0.036000
v 0.016200 -0.034200 0.036000
v -0.016200 -0.037800 0.037800
v -0.034200 -0.037800 0.037800
v -0.016200 -0.037800 0.036000
v -0.034200 -0.037800 0.036000
v -0.016200 -0.034200 0.037800
v -0.034200 -0.034200 0.037800
v -0.016200 -0.034200 0.036000
v -0.034200 -0.034200 0.036000
v 0.034200 -0.019800 0.037800
v 0.016200 -0.019800 0.037800
v 0.034200 -0.019800 0.036000
v 0.016200 -0.019800 0.036000
v 0.034200 -0.016200 0.037800
v 0.016200 -0.016200 0.037800
v 0.034200 -0.016200 0.036000
v 0.016200 -0.016200 0.036000
v -0.016200 -0.019800 0.037800
v -0.034200 -0.019800 0.037800
v -0.016200 -0.019800 0.036000
v -0.034200 -0.019800 0.036000
v -0.016200 -0.016200 0.037800
v -0.034200 -0.016200 0.037800
v -0.016200 -0.016200 0.036000
v -0.034200 -0.016200 0.036000
v -0.034200 -0.088200 0.036000
v -0.016200 -0.088200 0.036000
v -0.034200 -0.088200 0.037800
v -0.016200 -0.088200 0.037800
v -0.034200 -0.091800 0.036000
v -0.016200 -0.091800 0.036000
v -0.034200 -0.091800 0.037800
v -0.016200 -0.091800 0.037800
v 0.016200 -0.088200 0.036000
v 0.034200 -0.088200 0.036000
v 0.016200 -0.088200 0.037800
v 0.034200 -0.088200 0.037800
v 0.016200 -0.091800 0.036000
v 0.034200 -0.091800 0.036000
v 0.016200 -0.091800 0.037800
v 0.034200 -0.091800 0.037800
vn -0.0000 1.0000 -0.0000
vn -0.0000 -0.0000 1.0000
vn -1.0000 -0.0000 -0.0000
vn 1.0000 -0.0000 -0.0000
vn -0.0000 -1.0000 -0.0000
vn -0.7071 -0.7071 -0.0000
vn -0.7071 0.7071 -0.0000
vn 0.7071 -0.7071 -0.0000
vn 0.7071 0.7071 -0.0000
vn 0.7071 -0.0000 0.7071
vn -0.7071 -0.0000 0.7071
vn -0.3827 -0.9239 -0.0000
vn 0.3827 -0.9239 -0.0000
vn -0.9239 -0.3827 -0.0000
vn -0.9239 0.3827 -0.0000
vn 0.9239 -0.3827 -0.0000
vn 0.9239 0.3827 -0.0000
vn -0.3827 0.9239 -0.0000
vn 0.3827 0.9239 -0.0000
vn -0.0000 -0.0000 -1.0000
vt 0.378906 0.042969
vt 0.361328 0.083984
vt 0.318198 0.014154
vt 0.361328 0.000000
vt 0.382812 0.042969
vt 0.318206 0.097511
vt 0.384766 0.083984
vt 0.382812 0.042969
vt 0.322435 0.013911
vt 0.384766 0.000000
vt 0.378906 0.042969
vt 0.322389 0.097511
vt 0.375000 0.083984
vt 0.378906 0.050781
vt 0.353516 0.083984
vt 0.375000 0.000000
vt 0.353516 0.000000
vt 0.382812 0.050781
vt 0.392578 0.000000
vt 0.371094 0.000000
vt 0.378906 0.050781
vt 0.392578 0.083984
vt 0.371094 0.083984
vt 0.382812 0.050781
vt 0.384766 0.027344
vt 0.400391 0.027344
vt 0.339844 0.000000
vt 0.394531 0.027344
vt 0.339844 0.097656
vt 0.384766 0.027344
vt 0.400391 0.000000
vt 0.394531 0.027344
vt 0.339844 0.097656
vt 0.384766 0.027344
vt 0.394531 0.027344
vt 0.378906 0.027344
vt 0.378906 0.000000
vt 0.384766 0.027344
vt 0.339844 0.000000
vt 0.394531 0.027344
vt 0.353516 0.000000
vt 0.302887 0.007155
vt 0.394531 0.013672
vt 0.309869 0.000157
vt 0.384766 0.013672
vt 0.400391 0.013672
vt 0.400391 0.013672
vt 0.309833 0.111451
vt 0.394531 0.013672
vt 0.353516 0.097656
vt 0.302862 0.104473
vt 0.384766 0.013672
vt 0.353516 0.000000
vt 0.337721 0.104482
vt 0.394531 0.013672
vt 0.378906 0.013672
vt 0.330751 0.111454
vt 0.384766 0.013672
vt 0.330713 0.000000
vt 0.394531 0.013672
vt 0.378906 0.013672
vt 0.353516 0.097656
vt 0.337721 0.006933
vt 0.384766 0.013672
vt 0.127302 0.157291
vt 0.127302 0.165958
vt 0.138841 0.165958
vt 0.138841 0.165958
vt 0.140636 0.157291
vt 0.140636 0.165958
vt 0.140841 0.167958
vt 0.140841 0.167958
vt 0.134174 0.167958
vt 0.130841 0.167958
vt 0.131174 0.167958
vt 0.127507 0.167958
vt 0.137841 0.167958
vt 0.127507 0.167958
vt 0.134174 0.167958
vt 0.130841 0.167958
vt 0.130636 0.165291
vt 0.131174 0.165958
vt 0.127507 0.165958
vt 0.134174 0.165958
vt 0.127302 0.161958
vt 0.130841 0.165958
vt 0.134174 0.165958
vt 0.140636 0.161958
vt 0.130841 0.165958
vt 0.137302 0.165291
vt 0.137841 0.165958
vt 0.127507 0.165958
vt 0.127302 0.154624
vt 0.138841 0.154624
vt 0.127505 0.167942
vt 0.130636 0.151291
vt 0.130838 0.167942
vt 0.137302 0.151291
vt 0.137505 0.167942
vt 0.138841 0.154624
vt 0.140636 0.154624
vt 0.140838 0.167942
vt 0.130838 0.165942
vt 0.140841 0.154624
vt 0.127505 0.165942
vt 0.140841 0.154624
vt 0.140838 0.165942
vt 0.137505 0.165942
vt 0.161290 0.199219
vt 0.156533 0.199219
vt 0.159814 0.195655
vt 0.156533 0.195655
vt 0.156533 0.202783
vt 0.159814 0.202783
vt 0.156533 0.202783
vt 0.156250 0.194179
vt 0.156533 0.199219
vt 0.152686 0.195655
vt 0.156533 0.195655
vt 0.151210 0.199219
vt 0.156533 0.199219
vt 0.156250 0.204259
vt 0.156533 0.199219
vt 0.152686 0.202783
vt 0.156533 0.195655
vt 0.156533 0.202783
vt 0.158549 0.199219
vt 0.158549 0.195655
vt 0.158549 0.202783
vt 0.158549 0.202783
vt 0.158549 0.199219
vt 0.158549 0.195655
vt 0.158549 0.199219
vt 0.158549 0.199219
vt 0.158549 0.195655
vt 0.158549 0.202783
vt 0.159610 0.199219
vt 0.153845 0.199219
vt 0.158626 0.196843
vt 0.153845 0.196843
vt 0.153845 0.201595
vt 0.158626 0.201595
vt 0.153845 0.201595
vt 0.156250 0.195859
vt 0.153845 0.199219
vt 0.153845 0.196843
vt 0.152890 0.199219
vt 0.153845 0.199219
vt 0.156250 0.202579
vt 0.153845 0.199219
vt 0.153845 0.196843
vt 0.153845 0.201595
vt 0.159610 0.199219
vt 0.156533 0.199219
vt 0.158626 0.196843
vt 0.156533 0.196843
vt 0.156533 0.201595
vt 0.158626 0.201595
vt 0.156533 0.201595
vt 0.156250 0.195859
vt 0.156533 0.199219
vt 0.153874 0.196843
vt 0.156533 0.196843
vt 0.156250 0.202579
vt 0.156533 0.199219
vt 0.152890 0.199219
vt 0.156533 0.199219
vt 0.153874 0.201595
vt 0.156533 0.196843
vt 0.156533 0.201595
vt 0.127302 0.157291
vt 0.127302 0.165958
vt 0.138841 0.165958
vt 0.138841 0.165958
vt 0.140636 0.157291
vt 0.140636 0.165958
vt 0.140841 0.167958
vt 0.140841 0.167958
vt 0.134174 0.167958
vt 0.130841 0.167958
vt 0.131174 0.167958
vt 0.127507 0.167958
vt 0.137841 0.167958
vt 0.127507 0.167958
vt 0.134174 0.167958
vt 0.130841 0.167958
vt 0.130636 0.165291
vt 0.131174 0.165958
vt 0.127507 0.165958
vt 0.134174 0.165958
vt 0.127302 0.161958
vt 0.130841 0.165958
vt 0.134174 0.165958
vt 0.140636 0.161958
vt 0.130841 0.165958
vt 0.137302 0.165291
vt 0.137841 0.165958
vt 0.127507 0.165958
vt 0.127302 0.154624
vt 0.138841 0.154624
vt 0.127505 0.167942
vt 0.130636 0.151291
vt 0.130838 0.167942
vt 0.137302 0.151291
vt 0.137505 0.167942
vt 0.138841 0.154624
vt 0.140636 0.154624
vt 0.140838 0.167942
vt 0.130838 0.165942
vt 0.140841 0.154624
vt 0.127505 0.165942
vt 0.140841 0.154624
vt 0.140838 0.165942
vt 0.137505 0.165942
vt 0.161290 0.199219
vt 0.156533 0.199219
vt 0.159814 0.195655
vt 0.156533 0.195655
vt 0.156533 0.202783
vt 0.159814 0.202783
vt 0.156533 0.202783
vt 0.156250 0.194179
vt 0.156533 0.199219
vt 0.152686 0.195655
vt 0.156533 0.195655
vt 0.151210 0.199219
vt 0.156533 0.199219
vt 0.156250 0.204259
vt 0.156533 0.199219
vt 0.152686 0.202783
vt 0.156533 0.195655
vt 0.156533 0.202783
vt 0.158549 0.199219
vt 0.158549 0.195655
vt 0.158549 0.202783
vt 0.158549 0.202783
vt 0.158549 0.199219
vt 0.158549 0.195655
vt 0.158549 0.199219
vt 0.158549 0.199219
vt 0.158549 0.195655
vt 0.158549 0.202783
vt 0.159610 0.199219
vt 0.153845 0.199219
vt 0.158626 0.196843
vt 0.153845 0.196843
vt 0.153845 0.201595
vt 0.158626 0.201595
vt 0.153845 0.201595
vt 0.156250 0.195859
vt 0.153845 0.199219
vt 0.153845 0.196843
vt 0.152890 0.199219
vt 0.153845 0.199219
vt 0.156250 0.202579
vt 0.153845 0.199219
vt 0.153845 0.196843
vt 0.153845 0.201595
vt 0.159610 0.199219
vt 0.156533 0.199219
vt 0.158626 0.196843
vt 0.156533 0.196843
vt 0.156533 0.201595
vt 0.158626 0.201595
vt 0.156533 0.201595
vt 0.156250 0.195859
vt 0.156533 0.199219
vt 0.153874 0.196843
vt 0.156533 0.196843
vt 0.156250 0.202579
vt 0.156533 0.199219
vt 0.152890 0.199219
vt 0.156533 0.199219
vt 0.153874 0.201595
vt 0.156533 0.196843
vt 0.156533 0.201595
vt 0.152344 0.177734
vt 0.146484 0.177734
vt 0.142578 0.177734
vt 0.146484 0.177734
vt 0.152344 0.179688
vt 0.148438 0.177734
vt 0.142578 0.179688
vt 0.148438 0.177734
vt 0.152344 0.177734
vt 0.152344 0.179688
vt 0.146484 0.179688
vt 0.142578 0.177734
vt 0.142578 0.179688
vt 0.146484 0.179688
vt 0.152344 0.179688
vt 0.148438 0.179688
vt 0.142578 0.179688
vt 0.148438 0.179688
vt 0.152344 0.177734
vt 0.146484 0.177734
vt 0.142578 0.177734
vt 0.146484 0.177734
vt 0.152344 0.179688
vt 0.148438 0.177734
vt 0.142578 0.179688
vt 0.148438 0.177734
vt 0.152344 0.177734
vt 0.152344 0.179688
vt 0.146484 0.179688
vt 0.142578 0.177734
vt 0.142578 0.179688
vt 0.146484 0.179688
vt 0.152344 0.179688
vt 0.148438 0.179688
vt 0.142578 0.179688
vt 0.148438 0.179688
vt 0.148438 0.179688
vt 0.142578 0.179688
vt 0.148438 0.179688
vt 0.152344 0.179688
vt 0.142578 0.179688
vt 0.146484 0.179688
vt 0.142578 0.177734
vt 0.146484 0.179688
vt 0.152344 0.179688
vt 0.152344 0.177734
vt 0.142578 0.179688
vt 0.148438 0.177734
vt 0.148438 0.177734
vt 0.152344 0.179688
vt 0.142578 0.177734
vt 0.146484 0.177734
vt 0.146484 0.177734
vt 0.152344 0.177734
vt 0.148438 0.179688
vt 0.142578 0.179688
vt 0.148438 0.179688
vt 0.152344 0.179688
vt 0.142578 0.179688
vt 0.146484 0.179688
vt 0.142578 0.177734
vt 0.146484 0.179688
vt 0.152344 0.179688
vt 0.152344 0.177734
vt 0.142578 0.179688
vt 0.148438 0.177734
vt 0.148438 0.177734
vt 0.152344 0.179688
vt 0.142578 0.177734
vt 0.146484 0.177734
vt 0.146484 0.177734
vt 0.152344 0.177734
vt 0.152344 0.177734
vt 0.146484 0.177734
vt 0.142578 0.177734
vt 0.146484 0.177734
vt 0.152344 0.179688
vt 0.148438 0.177734
vt 0.142578 0.179688
vt 0.148438 0.177734
vt 0.152344 0.177734
vt 0.152344 0.179688
vt 0.146484 0.179688
vt 0.142578 0.177734
vt 0.142578 0.179688
vt 0.146484 0.179688
vt 0.152344 0.179688
vt 0.148438 0.179688
vt 0.142578 0.179688
vt 0.148438 0.179688
vt 0.152344 0.177734
vt 0.146484 0.177734
vt 0.142578 0.177734
vt 0.146484 0.177734
vt 0.152344 0.179688
vt 0.148438 0.177734
vt 0.142578 0.179688
vt 0.148438 0.177734
vt 0.152344 0.177734
vt 0.152344 0.179688
vt 0.146484 0.179688
vt 0.142578 0.177734
vt 0.142578 0.179688
vt 0.146484 0.179688
vt 0.152344 0.179688
vt 0.148438 0.179688
vt 0.142578 0.179688
vt 0.148438 0.179688
vt 0.152344 0.177734
vt 0.146484 0.177734
vt 0.142578 0.177734
vt 0.146484 0.177734
vt 0.152344 0.179688
vt 0.148438 0.177734
vt 0.142578 0.179688
vt 0.148438 0.177734
vt 0.152344 0.177734
vt 0.152344 0.179688
vt 0.146484 0.179688
vt 0.142578 0.177734
vt 0.142578 0.179688
vt 0.146484 0.179688
vt 0.152344 0.179688
vt 0.148438 0.179688
vt 0.142578 0.179688
vt 0.148438 0.179688
vt 0.152344 0.177734
vt 0.146484 0.177734
vt 0.142578 0.177734
vt 0.146484 0.177734
vt 0.152344 0.179688
vt 0.148438 0.177734
vt 0.142578 0.179688
vt 0.148438 0.177734
vt 0.152344 0.177734
vt 0.152344 0.179688
vt 0.146484 0.179688
vt 0.142578 0.177734
vt 0.142578 0.179688
vt 0.146484 0.179688
vt 0.152344 0.179688
vt 0.148438 0.179688
vt 0.142578 0.179688
vt 0.148438 0.179688
vt 0.152344 0.177734
vt 0.146484 0.177734
vt 0.142578 0.177734
vt 0.146484 0.177734
vt 0.152344 0.179688
vt 0.148438 0.177734
vt 0.142578 0.179688
vt 0.148438 0.177734
vt 0.152344 0.177734
vt 0.152344 0.179688
vt 0.146484 0.179688
vt 0.142578 0.177734
vt 0.142578 0.179688
vt 0.146484 0.179688
vt 0.152344 0.179688
vt 0.148438 0.179688
vt 0.142578 0.179688
vt 0.148438 0.179688
vt 0.152344 0.177734
vt 0.146484 0.177734
vt 0.142578 0.177734
vt 0.146484 0.177734
vt 0.152344 0.179688
vt 0.148438 0.177734
vt 0.142578 0.179688
vt 0.148438 0.177734
vt 0.152344 0.177734
vt 0.152344 0.179688
vt 0.146484 0.179688
vt 0.142578 0.177734
vt 0.142578 0.179688
vt 0.146484 0.179688
vt 0.152344 0.179688
vt 0.148438 0.179688
vt 0.142578 0.179688
vt 0.148438 0.179688
vt 0.152344 0.177734
vt 0.146484 0.177734
vt 0.142578 0.177734
vt 0.146484 0.177734
vt 0.152344 0.179688
vt 0.148438 0.177734
vt 0.142578 0.179688
vt 0.148438 0.177734
vt 0.152344 0.177734
vt 0.152344 0.179688
vt 0.146484 0.179688
vt 0.142578 0.177734
vt 0.142578 0.179688
vt 0.146484 0.179688
vt 0.152344 0.179688
vt 0.148438 0.179688
vt 0.142578 0.179688
vt 0.148438 0.179688
vt 0.152344 0.177734
vt 0.146484 0.177734
vt 0.142578 0.177734
vt 0.146484 0.177734
vt 0.152344 0.179688
vt 0.148438 0.177734
vt 0.142578 0.179688
vt 0.148438 0.177734
vt 0.152344 0.177734
vt 0.152344 0.179688
vt 0.146484 0.179688
vt 0.142578 0.177734
vt 0.142578 0.179688
vt 0.146484 0.179688
vt 0.152344 0.179688
vt 0.148438 0.179688
vt 0.142578 0.179688
vt 0.148438 0.179688
vt 0.152344 0.177734
vt 0.146484 0.177734
vt 0.142578 0.177734
vt 0.146484 0.177734
vt 0.152344 0.179688
vt 0.148438 0.177734
vt 0.142578 0.179688
vt 0.148438 0.177734
vt 0.152344 0.177734
vt 0.152344 0.179688
vt 0.146484 0.179688
vt 0.142578 0.177734
vt 0.142578 0.179688
vt 0.146484 0.179688
vt 0.152344 0.179688
vt 0.148438 0.179688
vt 0.142578 0.179688
vt 0.148438 0.179688
vt 0.152344 0.177734
vt 0.146484 0.177734
vt 0.142578 0.177734
vt 0.146484 0.177734
vt 0.152344 0.179688
vt 0.148438 0.177734
vt 0.142578 0.179688
vt 0.148438 0.177734
vt 0.152344 0.177734
vt 0.152344 0.179688
vt 0.146484 0.179688
vt 0.142578 0.177734
vt 0.142578 0.179688
vt 0.146484 0.179688
vt 0.152344 0.179688
vt 0.148438 0.179688
vt 0.142578 0.179688
vt 0.148438 0.179688
vt 0.152344 0.177734
vt 0.146484 0.177734
vt 0.142578 0.177734
vt 0.146484 0.177734
vt 0.152344 0.179688
vt 0.148438 0.177734
vt 0.142578 0.179688
vt 0.148438 0.177734
vt 0.152344 0.177734
vt 0.152344 0.179688
vt 0.146484 0.179688
vt 0.142578 0.177734
vt 0.142578 0.179688
vt 0.146484 0.179688
vt 0.152344 0.179688
vt 0.148438 0.179688
vt 0.142578 0.179688
vt 0.148438 0.179688
vt 0.152344 0.177734
vt 0.146484 0.177734
vt 0.142578 0.177734
vt 0.146484 0.177734
vt 0.152344 0.179688
vt 0.148438 0.177734
vt 0.142578 0.179688
vt 0.148438 0.177734
vt 0.152344 0.177734
vt 0.152344 0.179688
vt 0.146484 0.179688
vt 0.142578 0.177734
vt 0.142578 0.179688
vt 0.146484 0.179688
vt 0.152344 0.179688
vt 0.148438 0.179688
vt 0.142578 0.179688
vt 0.148438 0.179688
vt 0.152344 0.177734
vt 0.146484 0.177734
vt 0.142578 0.177734
vt 0.146484 0.177734
vt 0.152344 0.179688
vt 0.148438 0.177734
vt 0.142578 0.179688
vt 0.148438 0.177734
vt 0.152344 0.177734
vt 0.152344 0.179688
vt 0.146484 0.179688
vt 0.142578 0.177734
vt 0.142578 0.179688
vt 0.146484 0.179688
vt 0.152344 0.179688
vt 0.148438 0.179688
vt 0.142578 0.179688
vt 0.148438 0.179688
vt 0.152344 0.177734
vt 0.146484 0.177734
vt 0.142578 0.177734
vt 0.146484 0.177734
vt 0.152344 0.179688
vt 0.148438 0.177734
vt 0.142578 0.179688
vt 0.148438 0.177734
vt 0.152344 0.177734
vt 0.152344 0.179688
vt 0.146484 0.179688
vt 0.142578 0.177734
vt 0.142578 0.179688
vt 0.146484 0.179688
vt 0.152344 0.179688
vt 0.148438 0.179688
vt 0.142578 0.179688
vt 0.148438 0.179688
vt 0.152344 0.177734
vt 0.146484 0.177734
vt 0.142578 0.177734
vt 0.146484 0.177734
vt 0.152344 0.179688
vt 0.148438 0.177734
vt 0.142578 0.179688
vt 0.148438 0.177734
vt 0.152344 0.177734
vt 0.152344 0.179688
vt 0.146484 0.179688
vt 0.142578 0.177734
vt 0.142578 0.179688
vt 0.146484 0.179688
vt 0.152344 0.179688
vt 0.148438 0.179688
vt 0.142578 0.179688
vt 0.148438 0.179688
vt 0.152344 0.177734
vt 0.146484 0.177734
vt 0.142578 0.177734
vt 0.146484 0.177734
vt 0.152344 0.179688
vt 0.148438 0.177734
vt 0.142578 0.179688
vt 0.148438 0.177734
vt 0.152344 0.177734
vt 0.152344 0.179688
vt 0.146484 0.179688
vt 0.142578 0.177734
vt 0.142578 0.179688
vt 0.146484 0.179688
vt 0.152344 0.179688
vt 0.148438 0.179688
vt 0.142578 0.179688
vt 0.148438 0.179688
vt 0.148438 0.179688
vt 0.142578 0.179688
vt 0.148438 0.179688
vt 0.152344 0.179688
vt 0.142578 0.179688
vt 0.146484 0.179688
vt 0.142578 0.177734
vt 0.146484 0.179688
vt 0.152344 0.179688
vt 0.152344 0.177734
vt 0.142578 0.179688
vt 0.148438 0.177734
vt 0.148438 0.177734
vt 0.152344 0.179688
vt 0.142578 0.177734
vt 0.146484 0.177734
vt 0.146484 0.177734
vt 0.152344 0.177734
vt 0.148438 0.179688
vt 0.142578 0.179688
vt 0.148438 0.179688
vt 0.152344 0.179688
vt 0.142578 0.179688
vt 0.146484 0.179688
vt 0.142578 0.177734
vt 0.146484 0.179688
vt 0.152344 0.179688
vt 0.152344 0.177734
vt 0.142578 0.179688
vt 0.148438 0.177734
vt 0.148438 0.177734
vt 0.152344 0.179688
vt 0.142578 0.177734
vt 0.146484 0.177734
vt 0.146484 0.177734
vt 0.152344 0.177734
s 0
usemtl electronics_etx_part_1
f 15/37/1 12/31/1 19/47/1 22/56/1
f 1/3/2 2/6/2 20/51/2 17/42/2
f 3/7/3 4/10/3 7/19/3 8/22/3
f 17/41/3 20/50/3 11/29/3 10/27/3
f 13/33/4 16/39/4 21/53/4 24/62/4
f 2/6/2 4/12/2 22/57/2 19/48/2
f 4/12/2 3/9/2 24/63/2 21/54/2
f 8/23/2 7/20/2 6/16/2 5/13/2
f 1/1/1 3/8/1 8/24/1 5/14/1
f 2/4/4 1/2/4 5/15/4 6/17/4
f 4/11/5 2/5/5 6/18/5 7/21/5
f 3/9/2 1/3/2 18/44/2 23/59/2
f 17/42/2 18/44/2 1/3/2
f 19/48/2 20/51/2 2/6/2
f 21/54/2 22/57/2 4/12/2
f 23/59/2 24/63/2 3/9/2
f 9/25/6 18/45/6 17/43/6 10/28/6
f 19/49/7 12/32/7 11/30/7 20/52/7
f 23/60/8 14/35/8 13/34/8 24/64/8
f 15/38/9 22/58/9 21/55/9 16/40/9
f 9/26/5 14/36/5 23/61/5 18/46/5
f 26/68/3 35/87/3 32/79/3 28/72/3
f 26/68/3 28/72/3 43/106/3 40/100/3
f 39/99/5 44/108/5 41/103/5 38/97/5
f 29/73/4 34/84/4 25/67/4 27/71/4
f 25/65/5 34/85/5 33/81/5 36/90/5 35/88/5 26/69/5
f 26/70/2 40/101/2 39/98/2 38/96/2 37/93/2 25/66/2
f 27/71/4 25/67/4 37/94/4 42/104/4
f 33/82/2 30/75/2 31/77/2 36/91/2
f 29/74/10 30/76/10 33/83/10 34/86/10
f 35/89/11 36/92/11 31/78/11 32/80/11
f 37/95/8 38/97/8 41/103/8 42/105/8
f 43/107/6 44/108/6 39/99/6 40/102/6
f 51/122/2 52/124/2 50/120/2 49/118/2 48/116/2 46/111/2 45/109/2 47/114/2
f 58/133/12 60/135/12 52/125/12 51/123/12
f 60/136/13 59/134/13 50/121/13 52/126/13
f 51/123/14 47/115/14 55/130/14 58/133/14
f 47/115/15 45/110/15 53/127/15 55/130/15
f 59/134/16 57/132/16 49/119/16 50/121/16
f 57/132/17 56/131/17 48/117/17 49/119/17
f 45/110/18 46/112/18 54/128/18 53/127/18
f 46/113/19 48/117/19 56/131/19 54/129/19
f 69/153/20 70/155/20 72/160/20 73/162/20 75/166/20 76/168/20 74/164/20 71/158/20
f 67/149/2 68/152/2 66/147/2 65/146/2 64/144/2 62/139/2 61/137/2 63/142/2
f 74/165/12 76/169/12 68/151/12 67/150/12
f 76/170/13 75/167/13 66/148/13 68/152/13
f 67/150/14 63/143/14 71/159/14 74/165/14
f 63/143/15 61/138/15 69/154/15 71/159/15
f 75/167/16 73/163/16 65/146/16 66/148/16
f 73/163/17 72/161/17 64/145/17 65/146/17
f 61/138/18 62/140/18 70/156/18 69/154/18
f 62/141/19 64/145/19 72/161/19 70/157/19
f 78/174/3 80/178/3 84/185/3 87/193/3
f 78/174/3 92/206/3 95/212/3 80/178/3
f 91/205/1 90/203/1 93/209/1 96/214/1
f 81/179/4 79/177/4 77/173/4 86/190/4
f 77/171/1 78/175/1 87/194/1 88/196/1 85/187/1 86/191/1
f 78/176/2 77/172/2 89/199/2 90/202/2 91/204/2 92/207/2
f 79/177/4 94/210/4 89/200/4 77/173/4
f 85/188/2 88/197/2 83/183/2 82/181/2
f 81/180/10 86/192/10 85/189/10 82/182/10
f 87/195/11 84/186/11 83/184/11 88/198/11
f 89/201/9 94/211/9 93/209/9 90/203/9
f 95/213/7 92/208/7 91/205/7 96/214/7
f 103/228/2 99/220/2 97/215/2 98/217/2 100/222/2 101/224/2 102/226/2 104/230/2
f 110/239/18 103/229/18 104/231/18 112/241/18
f 112/242/19 104/232/19 102/227/19 111/240/19
f 103/229/15 110/239/15 107/236/15 99/221/15
f 99/221/14 107/236/14 105/233/14 97/216/14
f 111/240/17 102/227/17 101/225/17 109/238/17
f 109/238/16 101/225/16 100/223/16 108/237/16
f 97/216/12 105/233/12 106/234/12 98/218/12
f 98/219/13 106/235/13 108/237/13 100/223/13
f 121/259/20 123/264/20 126/270/20 128/274/20 127/272/20 125/268/20 124/266/20 122/261/20
f 119/255/2 115/248/2 113/243/2 114/245/2 116/250/2 117/252/2 118/253/2 120/258/2
f 126/271/18 119/256/18 120/257/18 128/275/18
f 128/276/19 120/258/19 118/254/19 127/273/19
f 119/256/15 126/271/15 123/265/15 115/249/15
f 115/249/14 123/265/14 121/260/14 113/244/14
f 127/273/17 118/254/17 117/252/17 125/269/17
f 125/269/16 117/252/16 116/251/16 124/267/16
f 113/244/12 121/260/12 122/262/12 114/246/12
f 114/247/13 122/263/13 124/267/13 116/251/13
f 129/277/5 130/279/5 132/283/5 131/281/5
f 135/291/1 136/293/1 134/288/1 133/285/1
f 133/286/2 134/289/2 130/279/2 129/277/2
f 131/282/4 135/292/4 133/287/4 129/278/4
f 136/294/3 132/284/3 130/280/3 134/290/3
f 137/295/5 138/297/5 140/301/5 139/299/5
f 143/309/1 144/311/1 142/306/1 141/303/1
f 141/304/2 142/307/2 138/297/2 137/295/2
f 139/300/4 143/310/4 141/305/4 137/296/4
f 144/312/3 140/302/3 138/298/3 142/308/3
f 150/325/4 146/315/4 148/320/4 152/329/4
f 152/330/5 151/327/5 149/323/5 150/326/5
f 148/321/2 147/317/2 151/327/2 152/330/2
f 145/313/3 149/324/3 151/328/3 147/318/3
f 146/316/1 145/314/1 147/319/1 148/322/1
f 158/343/4 154/333/4 156/338/4 160/347/4
f 160/348/5 159/345/5 157/341/5 158/344/5
f 156/339/2 155/335/2 159/345/2 160/348/2
f 153/331/3 157/342/3 159/346/3 155/336/3
f 154/334/1 153/332/1 155/337/1 156/340/1
f 161/349/5 162/351/5 164/355/5 163/353/5
f 167/363/1 168/365/1 166/360/1 165/357/1
f 165/358/2 166/361/2 162/351/2 161/349/2
f 163/354/4 167/364/4 165/359/4 161/350/4
f 168/366/3 164/356/3 162/352/3 166/362/3
f 169/367/5 170/369/5 172/373/5 171/371/5
f 175/381/1 176/383/1 174/378/1 173/375/1
f 173/376/2 174/379/2 170/369/2 169/367/2
f 171/372/4 175/382/4 173/377/4 169/368/4
f 176/384/3 172/374/3 170/370/3 174/380/3
f 177/385/5 178/387/5 180/391/5 179/389/5
f 183/399/1 184/401/1 182/396/1 181/393/1
f 181/394/2 182/397/2 178/387/2 177/385/2
f 179/390/4 183/400/4 181/395/4 177/386/4
f 184/402/3 180/392/3 178/388/3 182/398/3
f 185/403/5 186/405/5 188/409/5 187/407/5
f 191/417/1 192/419/1 190/414/1 189/411/1
f 189/412/2 190/415/2 186/405/2 185/403/2
f 187/408/4 191/418/4 189/413/4 185/404/4
f 192/420/3 188/410/3 186/406/3 190/416/3
f 193/421/5 194/423/5 196/427/5 195/425/5
f 199/435/1 200/437/1 198/432/1 197/429/1
f 197/430/2 198/433/2 194/423/2 193/421/2
f 195/426/4 199/436/4 197/431/4 193/422/4
f 200/438/3 196/428/3 194/424/3 198/434/3
f 201/439/5 202/441/5 204/445/5 203/443/5
f 207/453/1 208/455/1 206/450/1 205/447/1
f 205/448/2 206/451/2 202/441/2 201/439/2
f 203/444/4 207/454/4 205/449/4 201/440/4
f 208/456/3 204/446/3 202/442/3 206/452/3
f 209/457/5 210/459/5 212/463/5 211/461/5
f 215/471/1 216/473/1 214/468/1 213/465/1
f 213/466/2 214/469/2 210/459/2 209/457/2
f 211/462/4 215/472/4 213/467/4 209/458/4
f 216/474/3 212/464/3 210/460/3 214/470/3
f 217/475/5 218/477/5 220/481/5 219/479/5
f 223/489/1 224/491/1 222/486/1 221/483/1
f 221/484/2 222/487/2 218/477/2 217/475/2
f 219/480/4 223/490/4 221/485/4 217/476/4
f 224/492/3 220/482/3 218/478/3 222/488/3
f 225/493/5 226/495/5 228/499/5 227/497/5
f 231/507/1 232/509/1 230/504/1 229/501/1
f 229/502/2 230/505/2 226/495/2 225/493/2
f 227/498/4 231/508/4 229/503/4 225/494/4
f 232/510/3 228/500/3 226/496/3 230/506/3
f 233/511/5 234/513/5 236/517/5 235/515/5
f 239/525/1 240/527/1 238/522/1 237/519/1
f 237/520/2 238/523/2 234/513/2 233/511/2
f 235/516/4 239/526/4 237/521/4 233/512/4
f 240/528/3 236/518/3 234/514/3 238/524/3
f 241/529/5 242/531/5 244/535/5 243/533/5
f 247/543/1 248/545/1 246/540/1 245/537/1
f 245/538/2 246/541/2 242/531/2 241/529/2
f 243/534/4 247/544/4 245/539/4 241/530/4
f 248/546/3 244/536/3 242/532/3 246/542/3
f 249/547/5 250/549/5 252/553/5 251/551/5
f 255/561/1 256/563/1 254/558/1 253/555/1
f 253/556/2 254/559/2 250/549/2 249/547/2
f 251/552/4 255/562/4 253/557/4 249/548/4
f 256/564/3 252/554/3 250/550/3 254/560/3
f 257/565/5 258/567/5 260/571/5 259/569/5
f 263/579/1 264/581/1 262/576/1 261/573/1
f 261/574/2 262/577/2 258/567/2 257/565/2
f 259/570/4 263/580/4 261/575/4 257/566/4
f 264/582/3 260/572/3 258/568/3 262/578/3
f 265/583/5 266/585/5 268/589/5 267/587/5
f 271/597/1 272/599/1 270/594/1 269/591/1
f 269/592/2 270/595/2 266/585/2 265/583/2
f 267/588/4 271/598/4 269/593/4 265/584/4
f 272/600/3 268/590/3 266/586/3 270/596/3
f 273/601/5 274/603/5 276/607/5 275/605/5
f 279/615/1 280/617/1 278/612/1 277/609/1
f 277/610/2 278/613/2 274/603/2 273/601/2
f 275/606/4 279/616/4 277/611/4 273/602/4
f 280/618/3 276/608/3 274/604/3 278/614/3
f 281/619/5 282/621/5 284/625/5 283/623/5
f 287/633/1 288/635/1 286/630/1 285/627/1
f 285/628/2 286/631/2 282/621/2 281/619/2
f 283/624/4 287/634/4 285/629/4 281/620/4
f 288/636/3 284/626/3 282/622/3 286/632/3
f 294/649/4 290/639/4 292/644/4 296/653/4
f 296/654/5 295/651/5 293/647/5 294/650/5
f 292/645/2 291/641/2 295/651/2 296/654/2
f 289/637/3 293/648/3 295/652/3 291/642/3
f 290/640/1 289/638/1 291/643/1 292/646/1
f 302/667/4 298/657/4 300/662/4 304/671/4
f 304/672/5 303/669/5 301/665/5 302/668/5
f 300/663/2 299/659/2 303/669/2 304/672/2
f 297/655/3 301/666/3 303/670/3 299/660/3
f 298/658/1 297/656/1 299/661/1 300/664/1
o fader_etx_1_1_child
v -0.027000 -0.005401 0.046800
v -0.027000 0.005399 0.046800
v 0.027000 -0.005401 0.046800
v 0.027000 0.005399 0.046800
v -0.018000 -0.005401 0.072000
v -0.027000 -0.005401 0.063000
v -0.027000 0.005399 0.063000
v -0.018000 0.005399 0.072000
v 0.027000 -0.005401 0.063000
v 0.018000 -0.005401 0.072000
v 0.018000 0.005399 0.072000
v 0.027000 0.005399 0.063000
v -0.005400 -0.003601 0.018000
v -0.005400 0.003599 0.018000
v -0.005400 -0.003601 0.046800
v -0.005400 0.003599 0.046800
v 0.005400 -0.003601 0.018000
v 0.005400 0.003599 0.018000
v 0.005400 -0.003601 0.046800
v 0.005400 0.003599 0.046800
vn -0.0000 -0.0000 1.0000
vn -0.0000 1.0000 -0.0000
vn -0.0000 -1.0000 -0.0000
vn 1.0000 -0.0000 -0.0000
vn -0.7071 -0.0000 0.7071
vn 0.7071 -0.0000 0.7071
vn -1.0000 -0.0000 -0.0000
vn -0.0000 -0.0000 -1.0000
vt 0.145450 0.150489
vt 0.154948 0.150391
vt 0.144531 0.150391
vt 0.145450 0.150489
vt 0.154948 0.154297
vt 0.144531 0.154297
vt 0.167050 0.150489
vt 0.154948 0.150391
vt 0.167969 0.150391
vt 0.167050 0.150489
vt 0.154948 0.154297
vt 0.167969 0.154297
vt 0.148438 0.150391
vt 0.149050 0.140409
vt 0.150391 0.150391
vt 0.145450 0.144009
vt 0.146484 0.150391
vt 0.149089 0.150391
vt 0.145450 0.144009
vt 0.146484 0.154297
vt 0.149089 0.154297
vt 0.148438 0.154297
vt 0.149050 0.140409
vt 0.150391 0.154297
vt 0.167050 0.144009
vt 0.149089 0.150391
vt 0.166016 0.150391
vt 0.164062 0.150391
vt 0.163450 0.140409
vt 0.162109 0.150391
vt 0.164062 0.154297
vt 0.163450 0.140409
vt 0.162109 0.154297
vt 0.167050 0.144009
vt 0.149089 0.154297
vt 0.166016 0.154297
vt 0.166530 0.150289
vt 0.154090 0.162009
vt 0.166530 0.153169
vt 0.154090 0.162009
vt 0.155010 0.150289
vt 0.154090 0.150489
vt 0.155010 0.153169
vt 0.154090 0.150489
vt 0.166530 0.150289
vt 0.158410 0.162009
vt 0.166530 0.153169
vt 0.158410 0.162009
vt 0.155010 0.150289
vt 0.158410 0.150489
vt 0.155010 0.153169
vt 0.158410 0.150489
s 0
usemtl electronics_etx_part_1
f 315/703/21 312/694/21 309/685/21 314/700/21
f 308/682/22 306/676/22 311/691/22 312/695/22 315/704/22 316/706/22
f 314/701/23 309/686/23 310/688/23 305/673/23 307/679/23 313/697/23
f 308/683/24 316/707/24 313/698/24 307/680/24
f 309/687/25 312/696/25 311/692/25 310/689/25
f 313/699/26 316/708/26 315/705/26 314/702/26
f 306/677/27 305/674/27 310/690/27 311/693/27
f 318/711/27 317/709/27 319/713/27 320/715/27
f 322/719/24 324/723/24 323/721/24 321/717/24
f 323/722/23 319/714/23 317/710/23 321/718/23
f 322/720/22 318/712/22 320/716/22 324/724/22
f 306/678/28 308/684/28 307/681/28 305/675/28
