# Blender 3.4.0
# www.blender.org
mtllib gauge_etx_3.mtl
o gauge_etx_3
v -0.277647 0.280000 0.040000
v -0.265637 0.235176 0.040000
v -0.232824 0.202363 0.040000
v -0.232824 0.357637 0.040000
v -0.265637 0.324823 0.040000
v -0.288000 0.280000 -0.040000
v -0.238000 0.193397 -0.040000
v -0.274603 0.230000 -0.040000
v -0.274603 0.330000 -0.040000
v -0.238000 0.366602 -0.040000
v -0.188000 0.190353 0.040000
v -0.098353 0.280000 0.040000
v -0.143177 0.202363 0.040000
v -0.110363 0.235176 0.040000
v -0.188000 0.369647 0.040000
v -0.110363 0.324823 0.040000
v -0.143177 0.357637 0.040000
v -0.188000 0.180000 -0.040000
v -0.101398 0.230000 -0.040000
v -0.138000 0.193397 -0.040000
v -0.188000 0.380000 -0.040000
v -0.088000 0.280000 -0.040000
v -0.138000 0.366602 -0.040000
v -0.101398 0.330000 -0.040000
v -0.101398 0.330000 0.040000
v -0.088000 0.280000 0.040000
v -0.288000 0.280000 0.040000
v -0.274603 0.330000 0.040000
v -0.188000 0.180000 0.040000
v -0.238000 0.193397 0.040000
v -0.238000 0.366602 0.040000
v -0.188000 0.380000 0.040000
v -0.274603 0.230000 0.040000
v -0.138000 0.193397 0.040000
v -0.101398 0.230000 0.040000
v -0.138000 0.366602 0.040000
v -0.277647 0.280000 0.020000
v -0.188000 0.190353 0.020000
v -0.232824 0.357637 0.020000
v -0.143177 0.202363 0.020000
v -0.110363 0.235176 0.020000
v -0.110363 0.324824 0.020000
v -0.098353 0.280000 0.020000
v -0.265637 0.324824 0.020000
v -0.232824 0.202363 0.020000
v -0.188000 0.369647 0.020000
v -0.265637 0.235176 0.020000
v -0.143177 0.357637 0.020000
v -0.277647 0.280000 0.030000
v -0.188000 0.190353 0.030000
v -0.232824 0.357637 0.030000
v -0.143177 0.202363 0.030000
v -0.110363 0.235176 0.030000
v -0.110363 0.324824 0.030000
v -0.098353 0.280000 0.030000
v -0.265637 0.324824 0.030000
v -0.232824 0.202363 0.030000
v -0.188000 0.369647 0.030000
v -0.265637 0.235176 0.030000
v -0.143177 0.357637 0.030000
v -0.020000 0.014142 -0.014142
v -0.148000 0.014142 -0.014142
v -0.020000 0.020000 -0.000000
v -0.020000 0.014142 0.014142
v -0.148000 0.020000 0.000000
v -0.148000 0.014142 0.014142
v -0.020000 0.000000 -0.020000
v -0.020000 -0.014142 -0.014142
v -0.148000 0.000000 -0.020000
v -0.148000 -0.014142 -0.014142
v -0.020000 0.000000 0.020000
v -0.020000 -0.020000 -0.000000
v -0.020000 -0.014142 0.014142
v -0.148000 -0.020000 0.000000
v -0.148000 0.000000 0.020000
v -0.148000 -0.014142 0.014142
v 0.000000 0.021213 -0.021213
v -0.020000 0.016971 -0.016971
v 0.000000 0.030000 0.000000
v 0.000000 0.021213 0.021213
v -0.020000 0.024000 0.000000
v -0.020000 0.016971 0.016971
v 0.000000 0.000000 -0.030000
v 0.000000 -0.021213 -0.021213
v -0.020000 0.000000 -0.024000
v -0.020000 -0.016971 -0.016971
v 0.000000 0.000000 0.030000
v 0.000000 -0.030000 0.000000
v 0.000000 -0.021213 0.021213
v -0.020000 -0.024000 0.000000
v -0.020000 0.000000 0.024000
v -0.020000 -0.016971 0.016971
v -0.202142 0.040000 -0.014142
v -0.208000 0.040000 0.000000
v -0.202142 0.040000 0.014142
v -0.188000 0.040000 -0.020000
v -0.173858 0.040000 -0.014142
v -0.168000 0.040000 0.000000
v -0.188000 0.040000 0.020000
v -0.173858 0.040000 0.014142
v -0.209213 0.188000 -0.021213
v -0.204971 0.168000 -0.016971
v -0.218000 0.188000 0.000000
v -0.209213 0.188000 0.021213
v -0.212000 0.168000 0.000000
v -0.204971 0.168000 0.016971
v -0.188000 0.188000 -0.030000
v -0.166787 0.188000 -0.021213
v -0.188000 0.168000 -0.024000
v -0.171029 0.168000 -0.016971
v -0.188000 0.188000 0.030000
v -0.158000 0.188000 0.000000
v -0.166787 0.188000 0.021213
v -0.164000 0.168000 0.000000
v -0.188000 0.168000 0.024000
v -0.171029 0.168000 0.016971
v -0.170389 0.026607 0.014142
v -0.161393 0.017611 0.014142
v -0.168427 0.005342 0.020000
v -0.182658 0.019573 0.020000
v -0.175461 -0.006927 0.014142
v -0.194927 0.012539 0.014142
v -0.178375 -0.012008 0.000000
v -0.200008 0.009625 0.000000
v -0.175461 -0.006927 -0.014142
v -0.194927 0.012539 -0.014142
v -0.168427 0.005342 -0.020000
v -0.182658 0.019573 -0.020000
v -0.161393 0.017611 -0.014142
v -0.170389 0.026607 -0.014142
v -0.158479 0.022693 0.000000
v -0.165307 0.029521 0.000000
v -0.277647 0.280000 0.057000
v -0.232824 0.357637 0.069000
v -0.265637 0.324824 0.069000
v -0.288000 0.280000 0.040000
v -0.274603 0.330000 0.040000
v -0.238000 0.366602 0.040000
v -0.098353 0.280000 0.057000
v -0.188000 0.369647 0.069000
v -0.110363 0.324824 0.069000
v -0.143176 0.357637 0.069000
v -0.188000 0.380000 0.040000
v -0.088000 0.280000 0.040000
v -0.138000 0.366602 0.040000
v -0.101397 0.330000 0.040000
v -0.101397 0.330000 0.069000
v -0.088000 0.280000 0.057000
v -0.288000 0.280000 0.057000
v -0.274603 0.330000 0.069000
v -0.238000 0.366602 0.069000
v -0.188000 0.380000 0.069000
v -0.138000 0.366602 0.069000
v -0.110363 0.324824 0.040000
v -0.098353 0.280000 0.040000
v -0.277647 0.280000 0.040000
v -0.265637 0.324824 0.040000
v -0.232824 0.357637 0.040000
v -0.143176 0.357637 0.040000
v -0.188000 0.369647 0.040000
v -0.094699 0.303706 0.069000
v -0.094699 0.303706 0.040000
v -0.104358 0.303706 0.069000
v -0.104358 0.303706 0.040000
v -0.281324 0.303625 0.040000
v -0.281324 0.303625 0.069000
v -0.271662 0.303625 0.069000
v -0.271662 0.303625 0.040000
v -0.202143 0.168000 -0.014142
v -0.202143 0.040000 -0.014142
v -0.208001 0.168000 -0.000000
v -0.202143 0.168000 0.014142
v -0.208001 0.040000 0.000000
v -0.202143 0.040000 0.014142
v -0.188001 0.168000 -0.020000
v -0.173859 0.168000 -0.014142
v -0.188001 0.040000 -0.020000
v -0.173859 0.040000 -0.014142
v -0.188001 0.168000 0.020000
v -0.168001 0.168000 -0.000000
v -0.173859 0.168000 0.014142
v -0.168001 0.040000 0.000000
v -0.188001 0.040000 0.020000
v -0.173859 0.040000 0.014142
v -0.202143 0.059600 -0.014142
v -0.209214 0.071800 -0.021213
v -0.209214 0.116200 -0.021213
v -0.202143 0.128400 -0.014142
v -0.202143 0.128400 0.014142
v -0.209214 0.116200 0.021213
v -0.209214 0.071800 0.021213
v -0.202143 0.059600 0.014142
v -0.208001 0.128400 0.000000
v -0.218001 0.116200 -0.000000
v -0.218001 0.071800 -0.000000
v -0.208001 0.059600 0.000000
v -0.168001 0.059600 0.000000
v -0.158001 0.071800 -0.000000
v -0.158001 0.116200 -0.000000
v -0.168001 0.128400 0.000000
v -0.173859 0.128400 0.014142
v -0.166787 0.116200 0.021213
v -0.166787 0.071800 0.021213
v -0.173859 0.059600 0.014142
v -0.188001 0.128400 0.020000
v -0.188001 0.116200 0.030000
v -0.188001 0.071800 0.030000
v -0.188001 0.059600 0.020000
v -0.188001 0.059600 -0.020000
v -0.188001 0.071800 -0.030000
v -0.188001 0.116200 -0.030000
v -0.188001 0.128400 -0.020000
v -0.173859 0.128400 -0.014142
v -0.166787 0.116200 -0.021213
v -0.166787 0.071800 -0.021213
v -0.173859 0.059600 -0.014142
vn -0.5000 0.8660 -0.0000
vn -0.8660 0.5000 -0.0000
vn -0.0000 -0.0000 -1.0000
vn -0.0000 -1.0000 -0.0000
vn -0.5000 -0.8660 -0.0000
vn -0.8660 -0.5000 -0.0000
vn -1.0000 -0.0000 -0.0000
vn -0.0000 1.0000 -0.0000
vn 0.5000 -0.8660 -0.0000
vn 0.8660 -0.5000 -0.0000
vn 1.0000 -0.0000 -0.0000
vn 0.5000 0.8660 -0.0000
vn 0.8660 0.5000 -0.0000
vn -0.0000 -0.0000 1.0000
vn -0.0083 -0.0310 -0.9995
vn 0.0882 0.6878 -0.7205
vn -0.0000 0.7071 -0.7071
vn 0.1300 0.9915 -0.0000
vn -0.0083 -0.0310 0.9995
vn -0.0000 0.7071 0.7071
vn 0.0882 0.6878 0.7205
vn -0.1244 -0.9922 -0.0000
vn -0.0000 -0.7071 0.7071
vn -0.0933 -0.7181 0.6897
vn -0.0000 -0.7071 -0.7071
vn -0.0933 -0.7181 -0.6897
vn -0.2873 -0.0000 -0.9578
vn -0.2873 0.6773 -0.6773
vn -0.2873 0.9578 -0.0000
vn -0.2873 -0.0000 0.9578
vn -0.2873 0.6773 0.6773
vn -0.2873 -0.9578 -0.0000
vn -0.2873 -0.6773 0.6773
vn -0.2873 -0.6773 -0.6773
vn -0.0000 -0.2873 -0.9578
vn -0.6773 -0.2873 -0.6773
vn -0.9578 -0.2873 -0.0000
vn -0.0000 -0.2873 0.9578
vn -0.6773 -0.2873 0.6773
vn 0.9578 -0.2873 -0.0000
vn 0.6773 -0.2873 0.6773
vn 0.6773 -0.2873 -0.6773
vn 0.6879 0.0882 0.7205
vn -0.0310 -0.0083 0.9995
vn -0.0557 -0.0321 0.9979
vn 0.5830 0.3334 0.7410
vn -0.7181 -0.0933 0.6897
vn -0.6385 -0.3666 0.6766
vn -0.9922 -0.1244 -0.0000
vn -0.8672 -0.4979 -0.0000
vn -0.7181 -0.0933 -0.6897
vn -0.6385 -0.3666 -0.6766
vn -0.0310 -0.0083 -0.9995
vn -0.0557 -0.0321 -0.9979
vn 0.6879 0.0882 -0.7205
vn 0.5830 0.3334 -0.7410
vn 0.9915 0.1300 -0.0000
vn 0.8684 0.4959 -0.0000
vn -0.0321 -0.0557 0.9979
vn 0.3334 0.5830 0.7410
vn -0.3666 -0.6385 0.6766
vn -0.4979 -0.8672 -0.0000
vn -0.3666 -0.6385 -0.6766
vn -0.0321 -0.0557 -0.9979
vn 0.3334 0.5830 -0.7410
vn 0.4959 0.8684 -0.0000
vn -0.8691 0.4947 -0.0000
vn -0.9825 0.0656 0.1744
vn -0.9658 0.2595 -0.0000
vn -0.9999 0.0136 -0.0000
vn -0.9546 0.2851 0.0859
vn 0.8691 0.4946 -0.0000
vn 0.9666 0.1264 -0.2229
vn 0.9663 0.2573 -0.0000
vn 0.9695 0.2327 -0.0776
vn 0.9999 0.0136 -0.0000
vn -0.0000 -0.1958 0.9807
vn 0.1736 -0.4448 0.8787
vn 0.0261 -0.3757 0.9264
vn -0.0000 -0.2687 0.9632
vn -0.0000 -0.1963 0.9805
vn -0.0000 -0.2695 0.9630
vn 0.8622 -0.5065 -0.0000
vn -1.0000 -0.0048 -0.0000
vn -0.8622 -0.5066 -0.0000
vn -0.9657 -0.2596 -0.0000
vn 0.9651 -0.2619 -0.0000
vn 0.9791 -0.1918 -0.0680
vn 0.9999 0.0137 -0.0000
vn 1.0000 -0.0023 -0.0000
vn -0.9929 -0.0908 0.0765
vn -0.9999 0.0137 -0.0000
vn -0.0320 -0.3789 0.9249
vn 0.0394 -0.5204 0.8530
vn -0.0000 -0.9659 -0.2588
vn -0.0755 -0.9962 0.0436
vn -0.0000 -0.9848 -0.1736
vn -0.0000 -0.9659 0.2588
vn -0.0755 -0.9962 -0.0436
vn -0.7071 -0.0000 -0.7071
vn -0.7071 -0.0000 0.7071
vn 0.7071 -0.0000 0.7071
vn 0.7071 -0.0000 -0.7071
vn 0.5469 -0.6339 -0.5469
vn 0.7734 -0.6339 -0.0000
vn 0.5469 0.6339 -0.5469
vn 0.7734 0.6339 -0.0000
vn -0.0000 -0.6339 -0.7734
vn -0.0000 0.6339 -0.7734
vn 0.5469 -0.6339 0.5469
vn -0.0000 -0.6339 0.7734
vn 0.5469 0.6339 0.5469
vn -0.0000 0.6339 0.7734
vn -0.5469 -0.6339 0.5469
vn -0.7734 -0.6339 -0.0000
vn -0.5469 0.6339 0.5469
vn -0.7734 0.6339 -0.0000
vn -0.5469 0.6339 -0.5469
vn -0.5469 -0.6339 -0.5469
vt 0.008337 0.698438
vt 0.123047 0.732422
vt 0.123047 0.716797
vt 0.012204 0.684005
vt 0.123047 0.716797
vt 0.123047 0.732422
vt 0.022769 0.673440
vt 0.123047 0.732422
vt 0.123047 0.716797
vt 0.022769 0.723435
vt 0.123047 0.732422
vt 0.123047 0.716797
vt 0.012204 0.712870
vt 0.123047 0.716797
vt 0.123047 0.732422
vt 0.009317 0.714536
vt 0.113281 0.732422
vt 0.113281 0.716797
vt 0.037201 0.730635
vt 0.113281 0.732422
vt 0.113281 0.716797
vt 0.021102 0.726321
vt 0.113281 0.732422
vt 0.113281 0.716797
vt 0.005003 0.698438
vt 0.113281 0.716797
vt 0.113281 0.732422
vt 0.009317 0.682339
vt 0.113281 0.716797
vt 0.113281 0.732422
vt 0.037201 0.669573
vt 0.123047 0.716797
vt 0.123047 0.732422
vt 0.066065 0.698438
vt 0.123047 0.716797
vt 0.123047 0.732422
vt 0.123047 0.732422
vt 0.051633 0.673440
vt 0.123047 0.716797
vt 0.123047 0.716797
vt 0.062198 0.684005
vt 0.123047 0.732422
vt 0.037201 0.727302
vt 0.123047 0.732422
vt 0.123047 0.716797
vt 0.062198 0.712870
vt 0.123047 0.716797
vt 0.123047 0.732422
vt 0.051633 0.723435
vt 0.123047 0.732422
vt 0.123047 0.716797
vt 0.053300 0.726321
vt 0.113281 0.716797
vt 0.113281 0.732422
vt 0.069398 0.698438
vt 0.113281 0.716797
vt 0.113281 0.732422
vt 0.065085 0.714536
vt 0.113281 0.716797
vt 0.113281 0.732422
vt 0.021102 0.670554
vt 0.113281 0.732422
vt 0.113281 0.716797
vt 0.065085 0.682339
vt 0.113281 0.716797
vt 0.113281 0.732422
vt 0.037201 0.666240
vt 0.113281 0.732422
vt 0.113281 0.716797
vt 0.053300 0.670554
vt 0.113281 0.732422
vt 0.113281 0.716797
vt 0.140625 0.732422
vt 0.140625 0.716797
vt 0.065085 0.714536
vt 0.140625 0.716797
vt 0.140625 0.732422
vt 0.069398 0.698438
vt 0.140625 0.732422
vt 0.140625 0.716797
vt 0.005003 0.698438
vt 0.140625 0.716797
vt 0.140625 0.732422
vt 0.009317 0.714536
vt 0.140625 0.716797
vt 0.140625 0.732422
vt 0.037201 0.666240
vt 0.140625 0.732422
vt 0.140625 0.716797
vt 0.021102 0.670554
vt 0.140625 0.716797
vt 0.140625 0.732422
vt 0.021102 0.726321
vt 0.140625 0.732422
vt 0.140625 0.716797
vt 0.037201 0.730635
vt 0.140625 0.732422
vt 0.140625 0.716797
vt 0.009317 0.682339
vt 0.140625 0.716797
vt 0.140625 0.732422
vt 0.053300 0.670554
vt 0.140625 0.716797
vt 0.140625 0.732422
vt 0.065085 0.682339
vt 0.140625 0.732422
vt 0.140625 0.716797
vt 0.053300 0.726321
vt 0.130859 0.732422
vt 0.130859 0.716797
vt 0.000000 0.906134
vt 0.130859 0.716797
vt 0.130859 0.732422
vt 0.093367 0.812767
vt 0.130859 0.732422
vt 0.130859 0.716797
vt 0.046683 0.986992
vt 0.130859 0.732422
vt 0.130859 0.716797
vt 0.140051 0.825276
vt 0.130859 0.716797
vt 0.130859 0.732422
vt 0.174225 0.859450
vt 0.130859 0.716797
vt 0.130859 0.732422
vt 0.174225 0.952817
vt 0.130859 0.716797
vt 0.130859 0.732422
vt 0.186734 0.906134
vt 0.130859 0.716797
vt 0.130859 0.732422
vt 0.012509 0.952817
vt 0.130859 0.732422
vt 0.130859 0.716797
vt 0.046683 0.825276
vt 0.130859 0.732422
vt 0.130859 0.716797
vt 0.093367 0.999501
vt 0.130859 0.716797
vt 0.130859 0.732422
vt 0.012509 0.859450
vt 0.130859 0.732422
vt 0.130859 0.716797
vt 0.140051 0.986992
vt 0.375000 0.500000
vt 0.500000 0.375000
vt 0.437500 0.608253
vt 0.562500 0.391747
vt 0.608253 0.437500
vt 0.608253 0.562500
vt 0.625000 0.500000
vt 0.391747 0.562500
vt 0.437500 0.391747
vt 0.500000 0.625000
vt 0.391747 0.437500
vt 0.562500 0.608253
vt 0.113281 0.720703
vt 0.113281 0.676784
vt 0.118330 0.711082
vt 0.119141 0.720703
vt 0.107422 0.720703
vt 0.113281 0.720703
vt 0.119141 0.676784
vt 0.107422 0.676784
vt 0.117734 0.717228
vt 0.121831 0.692928
vt 0.113281 0.676784
vt 0.121235 0.699074
vt 0.107422 0.720703
vt 0.119141 0.720703
vt 0.113281 0.720703
vt 0.107422 0.676784
vt 0.119141 0.676784
vt 0.119740 0.705079
vt 0.113281 0.676784
vt 0.121151 0.699075
vt 0.119141 0.720703
vt 0.107422 0.720703
vt 0.119141 0.720703
vt 0.107422 0.720703
vt 0.113281 0.720703
vt 0.119141 0.676784
vt 0.107422 0.676784
vt 0.117829 0.717228
vt 0.121736 0.692928
vt 0.119141 0.676784
vt 0.107422 0.676784
vt 0.119825 0.705078
vt 0.113281 0.676784
vt 0.118414 0.711081
vt 0.167969 0.246094
vt 0.188424 0.238712
vt 0.175781 0.245312
vt 0.175781 0.246875
vt 0.167969 0.253906
vt 0.167969 0.238281
vt 0.167969 0.246094
vt 0.184098 0.243038
vt 0.175781 0.253125
vt 0.175781 0.239062
vt 0.184098 0.249156
vt 0.175781 0.246875
vt 0.175781 0.245312
vt 0.167969 0.238281
vt 0.167969 0.253906
vt 0.167969 0.246094
vt 0.194541 0.238712
vt 0.175781 0.239063
vt 0.175781 0.253125
vt 0.198867 0.243038
vt 0.175781 0.246875
vt 0.175781 0.245312
vt 0.167969 0.253906
vt 0.167969 0.238281
vt 0.167969 0.253906
vt 0.167969 0.238281
vt 0.167969 0.246094
vt 0.198867 0.249156
vt 0.175781 0.253125
vt 0.175781 0.239062
vt 0.188424 0.253482
vt 0.175781 0.253125
vt 0.175781 0.239063
vt 0.194541 0.253482
vt 0.175781 0.246875
vt 0.175781 0.245312
vt 0.118478 0.711081
vt 0.113321 0.717228
vt 0.117876 0.717228
vt 0.112736 0.711081
vt 0.119929 0.705078
vt 0.121379 0.699074
vt 0.121993 0.692928
vt 0.109319 0.692928
vt 0.111326 0.705078
vt 0.109915 0.699074
vt 0.167969 0.246094
vt 0.188424 0.238712
vt 0.175781 0.245312
vt 0.175781 0.246875
vt 0.167969 0.253906
vt 0.167969 0.238281
vt 0.167969 0.246094
vt 0.184098 0.243038
vt 0.175781 0.253125
vt 0.175781 0.239062
vt 0.184098 0.249156
vt 0.175781 0.246875
vt 0.175781 0.245312
vt 0.167969 0.238281
vt 0.167969 0.253906
vt 0.167969 0.246094
vt 0.194541 0.238712
vt 0.175781 0.239063
vt 0.175781 0.253125
vt 0.198867 0.243038
vt 0.175781 0.246875
vt 0.175781 0.245312
vt 0.167969 0.253906
vt 0.167969 0.238281
vt 0.167969 0.253906
vt 0.167969 0.238281
vt 0.167969 0.246094
vt 0.198867 0.249156
vt 0.175781 0.253125
vt 0.175781 0.239062
vt 0.188424 0.253482
vt 0.175781 0.253125
vt 0.175781 0.239063
vt 0.194541 0.253482
vt 0.175781 0.246875
vt 0.175781 0.245312
vt 0.104488 0.699093
vt 0.097605 0.699073
vt 0.092471 0.699073
vt 0.126991 0.699093
vt 0.090978 0.705067
vt 0.128436 0.705088
vt 0.103043 0.705088
vt 0.099098 0.705067
vt 0.089485 0.711060
vt 0.129881 0.711082
vt 0.101598 0.711082
vt 0.100592 0.711060
vt 0.088866 0.717205
vt 0.130479 0.717228
vt 0.121783 0.692951
vt 0.109415 0.692928
vt 0.101000 0.717228
vt 0.130549 0.717228
vt 0.101210 0.717205
vt 0.109438 0.692951
vt 0.121164 0.699097
vt 0.110013 0.699074
vt 0.129934 0.711082
vt 0.110057 0.699097
vt 0.119671 0.705090
vt 0.111458 0.705069
vt 0.128448 0.705088
vt 0.111550 0.705090
vt 0.118177 0.711083
vt 0.112903 0.711064
vt 0.126961 0.699093
vt 0.113044 0.711083
vt 0.117558 0.717228
vt 0.113490 0.717210
vt 0.093090 0.692928
vt 0.126405 0.692946
vt 0.126358 0.692946
vt 0.105075 0.692946
vt 0.113662 0.717228
vt 0.096986 0.692928
vt 0.132031 0.716797
vt 0.008337 0.699250
vt -0.078253 0.686103
vt 0.022769 0.723435
vt 0.127344 0.732422
vt 0.127344 0.716797
vt 0.012204 0.712870
vt 0.127344 0.716797
vt 0.127344 0.732422
vt 0.126953 0.716797
vt 0.126953 0.716797
vt 0.126953 0.732422
vt 0.126953 0.716797
vt 0.126953 0.732422
vt 0.066065 0.699251
vt 0.132031 0.732422
vt 0.102312 0.713765
vt 0.037201 0.727302
vt 0.127344 0.732422
vt 0.127344 0.716797
vt 0.127344 0.716797
vt 0.127344 0.732422
vt 0.062198 0.712870
vt 0.051633 0.723435
vt 0.127344 0.732422
vt 0.127344 0.716797
vt 0.126953 0.732422
vt 0.126953 0.716797
vt 0.126953 0.732422
vt 0.126953 0.732422
vt 0.126953 0.716797
vt 0.126953 0.732422
vt 0.126953 0.716797
vt 0.136865 0.732422
vt 0.065085 0.714536
vt 0.136865 0.716797
vt 0.132764 0.732422
vt 0.069398 0.699251
vt 0.058829 0.693824
vt 0.132764 0.716797
vt 0.005003 0.699250
vt -0.085007 0.686103
vt 0.136865 0.716797
vt 0.009317 0.714536
vt 0.136865 0.732422
vt 0.136865 0.716797
vt 0.136865 0.732422
vt 0.021102 0.726321
vt 0.136865 0.732422
vt 0.136865 0.716797
vt 0.037201 0.730635
vt 0.136865 0.732422
vt 0.136865 0.716797
vt 0.053300 0.726321
vt 0.138672 0.716797
vt 0.138672 0.732422
vt 0.138672 0.732422
vt 0.138672 0.716797
vt 0.138672 0.716797
vt 0.138672 0.732422
vt 0.138672 0.732422
vt 0.138672 0.716797
vt 0.138672 0.732422
vt 0.138672 0.716797
vt 0.138672 0.732422
vt 0.138672 0.716797
vt 0.067242 0.704201
vt 0.067242 0.706070
vt 0.136865 0.724987
vt 0.126953 0.724987
vt 0.064132 0.704201
vt 0.127344 0.724188
vt 0.064132 0.706070
vt 0.138672 0.724189
vt 0.126953 0.724207
vt 0.007153 0.706044
vt 0.007153 0.704176
vt 0.136865 0.724207
vt 0.010264 0.706044
vt 0.127344 0.725002
vt 0.010264 0.704176
vt 0.138672 0.725002
vt 0.133750 0.704007
vt 0.130261 0.704007
vt 0.133750 0.698445
vt 0.133750 0.692882
vt 0.130261 0.698445
vt 0.130261 0.692882
vt 0.133750 0.665069
vt 0.133750 0.709570
vt 0.133750 0.670632
vt 0.130261 0.709570
vt 0.130261 0.665069
vt 0.130261 0.670632
vt 0.133750 0.687319
vt 0.133750 0.676194
vt 0.133750 0.681757
vt 0.130261 0.676194
vt 0.130261 0.687320
vt 0.130261 0.681757
vt 0.137384 0.704007
vt 0.083728 0.673618
vt 0.084584 0.673002
vt 0.069885 0.673413
vt 0.080923 0.668818
vt 0.102099 0.711907
vt 0.053750 0.673413
vt 0.104904 0.707106
vt 0.119360 0.704007
vt 0.105760 0.707723
vt 0.119360 0.692882
vt 0.097797 0.697386
vt 0.097470 0.696383
vt 0.053750 0.690101
vt 0.092372 0.698603
vt 0.071196 0.682122
vt 0.069885 0.690101
vt 0.076621 0.683339
vt 0.137384 0.692882
vt 0.076294 0.684342
vt 0.100334 0.702336
vt 0.119360 0.698445
vt 0.100956 0.703188
vt 0.096177 0.706029
vt 0.053750 0.681757
vt 0.069885 0.681757
vt 0.075001 0.674696
vt 0.137384 0.698445
vt 0.079158 0.678389
vt 0.079780 0.677537
vt 0.079780 0.703188
vt 0.137384 0.676194
vt 0.079158 0.702336
vt 0.075001 0.706029
vt 0.069885 0.715132
vt 0.053750 0.715132
vt 0.096177 0.674696
vt 0.119360 0.676194
vt 0.100956 0.677537
vt 0.100334 0.678389
vt 0.119360 0.681757
vt 0.097470 0.684342
vt 0.097797 0.683339
vt 0.053750 0.706789
vt 0.092372 0.682122
vt 0.071196 0.698603
vt 0.069885 0.706789
vt 0.076294 0.696383
vt 0.137384 0.681757
vt 0.076621 0.697386
vt 0.119360 0.687319
vt 0.096596 0.689835
vt 0.096596 0.690890
vt 0.053750 0.698445
vt 0.091061 0.690362
vt 0.069885 0.690362
vt 0.069885 0.698445
vt 0.075419 0.690890
vt 0.137384 0.687320
vt 0.075419 0.689835
vt 0.137384 0.709570
vt 0.137384 0.665069
vt 0.089553 0.710222
vt 0.089553 0.670503
vt 0.088377 0.715656
vt 0.069885 0.731820
vt 0.069885 0.665069
vt 0.088377 0.665069
vt 0.053750 0.731820
vt 0.109553 0.665069
vt 0.109553 0.715656
vt 0.053750 0.665069
vt 0.119360 0.665069
vt 0.110730 0.670503
vt 0.119360 0.709570
vt 0.110729 0.710222
vt 0.119360 0.670632
vt 0.104904 0.673618
vt 0.105760 0.673002
vt 0.053750 0.723476
vt 0.102099 0.668818
vt 0.080923 0.711907
vt 0.069885 0.723476
vt 0.083728 0.707106
vt 0.137384 0.670632
vt 0.084584 0.707723
s 1
usemtl electronics_etx_part_1
f 13/37/1 14/40/2 41/121/2 40/118/1
f 18/52/3 7/19/3 8/22/3 6/16/3 9/25/3 10/28/3 21/61/3 23/67/3 24/70/3 22/64/3 19/55/3 20/58/3
f 18/53/4 29/85/4 30/88/5 7/20/5
f 7/21/5 30/89/5 33/97/6 8/23/6
f 8/24/6 33/98/6 27/79/7 6/17/7
f 32/94/8 21/62/8 10/29/1 31/91/1
f 31/92/1 10/30/1 9/26/2 28/82/2
f 28/83/2 9/27/2 6/18/7 27/80/7
f 29/86/4 18/54/4 20/59/9 34/100/9
f 34/101/9 20/60/9 19/56/10 35/103/10
f 35/104/10 19/57/10 22/65/11 26/76/11
f 21/63/8 32/95/8 36/106/12 23/68/12
f 23/69/12 36/107/12 25/73/13 24/71/13
f 24/72/13 25/74/13 26/77/11 22/66/11
f 16/46/14 12/34/14 26/78/14 25/75/14
f 1/1/14 5/13/14 28/84/14 27/81/14
f 11/31/14 3/7/14 30/90/14 29/87/14
f 4/10/14 15/43/14 32/96/14 31/93/14
f 3/7/14 2/4/14 33/99/14 30/90/14
f 2/4/14 1/1/14 27/81/14 33/99/14
f 5/13/14 4/10/14 31/93/14 28/84/14
f 13/38/14 11/31/14 29/87/14 34/102/14
f 14/41/14 13/38/14 34/102/14 35/105/14
f 12/34/14 14/41/14 35/105/14 26/78/14
f 15/43/14 17/49/14 36/108/14 32/96/14
f 17/49/14 16/46/14 25/75/14 36/108/14
f 1/2/11 2/5/13 47/139/13 37/109/11
f 3/8/12 11/32/8 38/112/8 45/133/12
f 14/42/2 12/35/7 43/127/7 41/122/2
f 4/11/9 5/14/10 44/130/10 39/115/9
f 15/44/4 4/12/9 39/116/9 46/136/4
f 17/50/5 15/45/4 46/137/4 48/142/5
f 12/36/7 16/47/6 42/124/6 43/128/7
f 11/33/8 13/39/1 40/119/1 38/113/8
f 2/6/13 3/9/12 45/134/12 47/140/13
f 16/48/6 17/51/5 48/143/5 42/125/6
f 5/15/10 1/3/11 37/110/11 44/131/10
f 67/169/3 69/172/15 62/158/16 61/157/17
f 61/157/17 62/158/16 65/163/18 63/160/8
f 75/186/19 71/177/14 64/162/20 66/167/21
f 66/167/21 64/162/20 63/161/8 65/164/18
f 74/182/22 72/179/4 73/181/23 76/189/24
f 76/189/24 73/181/23 71/178/14 75/187/19
f 69/173/15 67/170/3 68/171/25 70/175/26
f 70/175/26 68/171/25 72/180/4 74/183/22
f 90/218/7 92/224/7 91/221/7 82/201/7 81/198/7 78/192/7 85/207/7 86/210/7
f 83/204/27 85/208/27 78/193/28 77/191/28
f 77/191/28 78/194/28 81/199/29 79/195/29
f 91/222/30 87/213/30 80/197/31 82/202/31
f 82/203/31 80/197/31 79/196/29 81/200/29
f 90/219/32 88/215/32 89/217/33 92/225/33
f 92/226/33 89/217/33 87/214/30 91/223/30
f 85/209/27 83/205/27 84/206/34 86/211/34
f 86/212/34 84/206/34 88/216/32 90/220/32
f 114/264/4 116/270/4 115/267/4 106/247/4 105/244/4 102/238/4 109/253/4 110/256/4
f 107/250/35 109/254/35 102/239/36 101/237/36
f 101/237/36 102/240/36 105/245/37 103/241/37
f 115/268/38 111/259/38 104/243/39 106/248/39
f 106/249/39 104/243/39 103/242/37 105/246/37
f 114/265/40 112/261/40 113/263/41 116/271/41
f 116/272/41 113/263/41 111/260/38 115/269/38
f 109/255/35 107/251/35 108/252/42 110/257/42
f 110/258/42 108/252/42 112/262/40 114/266/40
f 100/236/43 99/235/44 120/279/45 117/273/46
f 99/235/44 95/230/47 122/283/48 120/279/45
f 95/230/47 94/228/49 124/289/50 122/283/48
f 94/229/49 93/227/51 126/295/52 124/290/50
f 93/227/51 96/231/53 128/299/54 126/295/52
f 96/231/53 97/232/55 130/303/56 128/299/54
f 97/232/55 98/233/57 132/309/58 130/303/56
f 98/234/57 100/236/43 117/273/46 132/310/58
f 117/274/46 120/280/45 119/277/59 118/275/60
f 118/276/60 119/278/59 75/188/19 66/168/21
f 120/280/45 122/284/48 121/281/61 119/277/59
f 119/278/59 121/282/61 76/190/24 75/188/19
f 122/284/48 124/291/50 123/285/62 121/281/61
f 121/282/61 123/286/62 74/184/22 76/190/24
f 124/292/50 126/296/52 125/293/63 123/287/62
f 123/288/62 125/294/63 70/176/26 74/185/22
f 126/296/52 128/300/54 127/297/64 125/293/63
f 125/294/63 127/298/64 69/174/15 70/176/26
f 128/300/54 130/304/56 129/301/65 127/297/64
f 127/298/64 129/302/65 62/159/16 69/174/15
f 130/304/56 132/311/58 131/305/66 129/301/65
f 129/302/65 131/306/66 65/165/18 62/159/16
f 132/312/58 117/274/46 118/275/60 131/307/66
f 131/308/66 118/276/60 66/168/21 65/166/18
f 152/361/8 143/339/8 138/325/1 151/358/1
f 151/359/1 138/326/1 137/323/67 150/355/67
f 166/390/68 165/387/69 136/322/70 149/352/71
f 143/340/8 152/362/8 153/364/12 145/342/12
f 145/343/12 153/365/12 147/346/72 146/344/72
f 162/382/73 161/381/74 148/349/75 144/341/76
f 163/383/77 139/327/78 148/350/79 161/379/80
f 167/391/81 135/319/14 150/356/14 166/388/82
f 134/316/14 140/330/14 152/363/14 151/360/14
f 135/319/14 134/316/14 151/360/14 150/356/14
f 140/330/14 142/336/14 153/366/14 152/363/14
f 142/336/14 141/335/14 147/347/14 153/366/14
f 134/317/9 135/320/83 157/371/83 158/373/9
f 140/331/4 134/318/9 158/374/9 160/377/4
f 142/337/5 140/332/4 160/378/4 159/375/5
f 163/384/84 141/333/85 154/367/85 164/386/86
f 141/334/85 142/338/5 159/376/5 154/368/85
f 167/392/87 133/313/88 156/370/89 168/394/90
f 139/328/91 163/384/84 164/386/86 155/369/92
f 141/335/14 163/385/77 161/380/80 147/347/14
f 146/345/72 147/348/72 161/381/74 162/382/73
f 135/321/83 167/392/87 168/394/90 157/372/83
f 133/314/93 167/393/81 166/389/82 149/353/94
f 150/357/67 137/324/67 165/387/69 166/390/68
f 144/341/95 148/351/96 139/329/97 155/369/98
f 149/354/99 136/322/95 156/370/98 133/315/99
f 209/473/3 177/404/3 170/396/100 185/413/100
f 185/413/100 170/396/100 173/399/7 196/440/7
f 205/463/14 179/407/14 172/398/101 189/423/101
f 189/423/101 172/398/101 171/397/7 193/434/7
f 200/450/11 180/408/11 181/409/102 201/453/102
f 201/453/102 181/409/102 179/407/14 205/463/14
f 212/485/3 175/401/3 176/403/103 213/489/103
f 213/489/103 176/403/103 180/408/11 200/450/11
f 178/406/103 216/497/103 197/444/11 182/410/11
f 216/496/104 215/494/104 198/446/105 197/443/105
f 215/495/103 214/492/103 199/448/11 198/447/11
f 214/493/106 213/490/106 200/451/107 199/449/107
f 177/405/3 209/474/3 216/497/103 178/406/103
f 209/475/108 210/477/108 215/494/104 216/498/104
f 210/478/3 211/481/3 214/492/103 215/495/103
f 211/482/109 212/486/109 213/491/106 214/493/106
f 184/412/102 204/461/102 208/471/14 183/411/14
f 204/460/110 203/458/110 207/468/111 208/470/111
f 203/459/102 202/456/102 206/466/14 207/469/14
f 202/457/112 201/454/112 205/464/113 206/467/113
f 182/410/11 197/444/11 204/461/102 184/412/102
f 197/445/105 198/446/105 203/458/110 204/462/110
f 198/447/11 199/448/11 202/456/102 203/459/102
f 199/449/107 200/452/107 201/455/112 202/457/112
f 174/400/101 192/431/101 196/440/7 173/399/7
f 192/430/114 191/428/114 195/439/115 196/441/115
f 191/429/101 190/426/101 194/437/7 195/438/7
f 190/427/116 189/424/116 193/433/117 194/436/117
f 183/411/14 208/471/14 192/431/101 174/400/101
f 208/472/111 207/468/111 191/428/114 192/432/114
f 207/469/14 206/466/14 190/426/101 191/429/101
f 206/467/113 205/465/113 189/425/116 190/427/116
f 169/395/100 188/421/100 193/434/7 171/397/7
f 188/420/118 187/418/118 194/436/117 193/435/117
f 187/419/100 186/416/100 195/438/7 194/437/7
f 186/417/119 185/414/119 196/442/115 195/439/115
f 175/402/3 212/487/3 188/421/100 169/395/100
f 212/488/109 211/483/109 187/418/118 188/422/118
f 211/484/3 210/479/3 186/416/100 187/419/100
f 210/480/108 209/476/108 185/415/119 186/417/119
usemtl electronics_etx_part_2
f 38/114/14 40/120/14 41/123/14 43/129/14 42/126/14 48/144/14 46/138/14 39/117/14 44/132/14 37/111/14 47/141/14 45/135/14
usemtl glass_etx_1
f 50/146/14 52/148/14 53/149/14 55/151/14 54/150/14 60/156/14 58/154/14 51/147/14 56/152/14 49/145/14 59/155/14 57/153/14
o gauge_pointer_etx_3_child
v -0.181928 0.273928 0.020000
v -0.179412 0.280000 0.020000
v -0.188000 0.271412 0.020000
v -0.181928 0.286073 0.020000
v -0.188000 0.288588 0.020000
v -0.194073 0.286073 0.020000
v -0.194073 0.273928 0.020000
v -0.196588 0.280000 0.020000
v -0.181928 0.273928 0.029000
v -0.188000 0.271412 0.029000
v -0.194073 0.286073 0.029000
v -0.188000 0.288588 0.029000
v -0.179412 0.280000 0.029000
v -0.196588 0.280000 0.029000
v -0.194073 0.273928 0.029000
v -0.181928 0.286073 0.029000
v -0.162544 0.313942 0.024000
v -0.154059 0.305456 0.024000
v -0.162544 0.313942 0.026000
v -0.154059 0.305456 0.026000
v -0.230426 0.234746 0.024000
v -0.233255 0.237574 0.024000
v -0.230426 0.234746 0.026000
v -0.233255 0.237574 0.026000
vn -0.9239 -0.3827 -0.0000
vn -0.0000 -0.0000 1.0000
vn -0.9239 0.3827 -0.0000
vn -0.3827 0.9239 -0.0000
vn 0.9239 0.3827 -0.0000
vn -0.3827 -0.9239 -0.0000
vn 0.9239 -0.3827 -0.0000
vn 0.3827 -0.9239 -0.0000
vn 0.3827 0.9239 -0.0000
vn 0.6794 -0.7338 -0.0000
vn -0.0000 -0.0000 -1.0000
vn -0.7338 0.6794 -0.0000
vn 0.7071 0.7071 -0.0000
vn -0.7071 -0.7071 -0.0000
vt 0.184572 0.186206
vt 0.185430 0.185848
vt 0.185430 0.188681
vt 0.187500 0.189250
vt 0.189570 0.185848
vt 0.190428 0.186206
vt 0.187500 0.191099
vt 0.189570 0.188681
vt 0.184572 0.186206
vt 0.185430 0.188681
vt 0.190428 0.186206
vt 0.189570 0.185848
vt 0.185430 0.185848
vt 0.189570 0.188681
vt 0.187500 0.191099
vt 0.187500 0.189250
vt 0.189705 0.179649
vt 0.187841 0.179652
vt 0.189620 0.195653
vt 0.187841 0.179652
vt 0.185295 0.179649
vt 0.185380 0.195653
vt 0.186989 0.179652
vt 0.189547 0.179649
vt 0.189620 0.194801
vt 0.186989 0.179652
vt 0.185453 0.179649
vt 0.185381 0.194801
vt 0.187841 0.215064
vt 0.186574 0.215062
vt 0.186389 0.195653
vt 0.188426 0.215062
vt 0.187841 0.215064
vt 0.188611 0.195653
vt 0.186989 0.215064
vt 0.186450 0.215064
vt 0.186389 0.194801
vt 0.186989 0.215064
vt 0.188550 0.215064
vt 0.188611 0.194801
s 0
usemtl electronics_etx_part_1
f 224/506/120 223/505/120 231/513/120 230/512/120
f 232/514/121 228/510/121 227/509/121 230/512/121 231/513/121 226/508/121 225/507/121 229/511/121
f 222/504/122 224/506/122 230/512/122 227/509/122
f 221/503/123 222/504/123 227/509/123 228/510/123
f 218/500/124 220/502/124 232/514/124 229/511/124
f 223/505/125 219/501/125 226/508/125 231/513/125
f 217/499/126 218/500/126 229/511/126 225/507/126
f 219/501/127 217/499/127 225/507/127 226/508/127
f 220/502/128 221/503/128 228/510/128 232/514/128
f 234/518/129 236/524/129 239/533/129 237/527/129
f 233/515/130 234/519/130 237/528/130 238/530/130
f 233/516/131 238/531/131 240/536/131 235/521/131
f 239/534/121 236/525/121 235/522/121 240/537/121
f 233/517/132 235/523/132 236/526/132 234/520/132
f 238/532/133 237/529/133 239/535/133 240/538/133
o gauge_etx_3_tiny_valve_child
v -0.207618 0.113502 0.051580
v -0.215737 0.093901 0.051580
v -0.188017 0.121621 0.051580
v -0.207618 0.074300 0.051580
v -0.188017 0.066181 0.051580
v -0.168416 0.074300 0.051580
v -0.168416 0.113502 0.051580
v -0.160297 0.093901 0.051580
v -0.178216 0.117561 0.051580
v -0.164356 0.103701 0.051580
v -0.211678 0.084100 0.051580
v -0.197818 0.070240 0.051580
v -0.178216 0.117561 0.065440
v -0.168416 0.113502 0.072370
v -0.197818 0.070240 0.065440
v -0.207618 0.074300 0.072370
v -0.164356 0.103701 0.065440
v -0.211678 0.084100 0.065440
v -0.168416 0.113502 0.037720
v -0.188017 0.121621 0.037720
v -0.215737 0.093901 0.037720
v -0.207618 0.074300 0.037720
v -0.207618 0.113502 0.037720
v -0.168416 0.074300 0.037720
v -0.160297 0.093901 0.037720
v -0.188017 0.066181 0.037720
v -0.200735 0.093901 0.037720
v -0.197010 0.102894 0.037720
v -0.188017 0.106619 0.037720
v -0.179024 0.084908 0.037720
v -0.197010 0.084908 0.037720
v -0.188017 0.081183 0.037720
v -0.179024 0.102894 0.037720
v -0.175299 0.093901 0.037720
v -0.179024 0.102894 0.019800
v -0.188017 0.106619 0.019800
v -0.200735 0.093901 0.019800
v -0.197010 0.084908 0.019800
v -0.197010 0.102894 0.019800
v -0.179024 0.084908 0.019800
v -0.175299 0.093901 0.019800
v -0.188017 0.081183 0.019800
vn 0.7071 -0.7071 -0.0000
vn -0.9239 -0.3827 -0.0000
vn -0.9239 0.3827 -0.0000
vn 0.3827 0.9239 -0.0000
vn -0.3827 0.9239 -0.0000
vn -0.3827 -0.9239 -0.0000
vn 0.3827 -0.9239 -0.0000
vn 0.9239 0.3827 -0.0000
vn 0.9239 -0.3827 -0.0000
vn -0.0000 -0.0000 1.0000
vn -0.4082 0.4082 0.8165
vn -0.7071 0.7071 -0.0000
vn 0.4082 -0.4082 0.8165
vn -0.0000 -0.0000 -1.0000
vt 0.094143 0.156250
vt 0.083083 0.156250
vt 0.086208 0.156643
vt 0.094143 0.148708
vt 0.086208 0.148708
vt 0.086208 0.156643
vt 0.094143 0.163792
vt 0.086208 0.163792
vt 0.093750 0.156643
vt 0.101292 0.156643
vt 0.094143 0.148708
vt 0.101292 0.148708
vt 0.094143 0.156250
vt 0.104417 0.156250
vt 0.093750 0.156643
vt 0.101292 0.156643
vt 0.094143 0.163792
vt 0.101292 0.163792
vt 0.089979 0.165355
vt 0.089979 0.156643
vt 0.094143 0.165355
vt 0.094143 0.165355
vt 0.097521 0.165355
vt 0.097521 0.156643
vt 0.089979 0.147145
vt 0.089979 0.156643
vt 0.094143 0.147145
vt 0.094143 0.147145
vt 0.097521 0.147145
vt 0.097521 0.156643
vt 0.089979 0.165355
vt 0.089979 0.151310
vt 0.088810 0.165355
vt 0.093750 0.148643
vt 0.093750 0.166917
vt 0.088810 0.147145
vt 0.097521 0.151310
vt 0.097521 0.147145
vt 0.093750 0.148643
vt 0.093750 0.145583
vt 0.088810 0.165355
vt 0.097521 0.151310
vt 0.097521 0.165355
vt 0.089979 0.147145
vt 0.089979 0.151310
vt 0.088810 0.147145
vt 0.093750 0.161976
vt 0.093750 0.166917
vt 0.086208 0.161976
vt 0.099476 0.163792
vt 0.086208 0.163792
vt 0.086208 0.161976
vt 0.099476 0.148708
vt 0.086208 0.148708
vt 0.093750 0.161976
vt 0.093750 0.145583
vt 0.099476 0.156250
vt 0.083083 0.156250
vt 0.099476 0.156250
vt 0.104417 0.156250
vt 0.101292 0.161976
vt 0.099476 0.163792
vt 0.101292 0.163792
vt 0.101292 0.161976
vt 0.099476 0.148708
vt 0.101292 0.148708
vt 0.090289 0.152790
vt 0.088856 0.156250
vt 0.090290 0.159711
vt 0.098644 0.156250
vt 0.093750 0.151356
vt 0.097211 0.152790
vt 0.093750 0.161144
vt 0.097211 0.159711
vt 0.093750 0.161144
vt 0.090290 0.159711
vt 0.090289 0.152790
vt 0.093750 0.151356
vt 0.088856 0.156250
vt 0.098644 0.156250
vt 0.097211 0.159711
vt 0.097211 0.152789
s 0
usemtl electronics_etx_part_1
f 252/566/134 250/560/134 257/579/134 255/574/134
f 262/593/135 244/547/135 251/564/135 242/541/135 261/590/135
f 261/591/136 242/542/136 241/539/136 263/595/136
f 247/553/137 259/585/137 260/587/137 243/544/137 249/558/137
f 243/545/138 260/588/138 263/595/138 241/539/138
f 244/547/139 262/593/139 266/602/139 245/548/139 252/568/139
f 245/549/140 266/603/140 264/597/140 246/551/140
f 259/585/141 247/553/141 250/562/141 248/554/141 265/599/141
f 265/600/142 248/555/142 246/551/142 264/597/142
f 251/563/143 249/557/143 243/546/143 241/540/143 242/543/143
f 256/578/144 254/573/144 253/569/144 258/582/144
f 252/567/143 245/550/143 246/552/143 248/556/143 250/561/143
f 247/553/137 249/558/137 253/570/137 254/572/137
f 251/564/135 244/547/135 256/577/135 258/583/135
f 244/547/139 252/568/139 255/575/139 256/577/139
f 250/562/141 247/553/141 254/572/141 257/580/141
f 249/559/145 251/565/145 258/584/145 253/571/145
f 255/576/146 257/581/146 254/573/146 256/578/146
f 265/601/147 264/598/147 266/604/147 262/594/147 261/592/147 263/596/147 260/589/147 259/586/147
f 269/607/137 273/611/137 275/613/137 276/614/137
f 273/611/141 274/612/141 281/619/141 275/613/141
f 272/610/139 271/609/139 278/616/139 282/620/139
f 274/612/142 270/608/142 280/618/142 281/619/142
f 271/609/135 267/605/135 277/615/135 278/616/135
f 270/608/140 272/610/140 282/620/140 280/618/140
f 268/606/138 269/607/138 276/614/138 279/617/138
f 267/605/136 268/606/136 279/617/136 277/615/136
