# Blender 3.4.0
# www.blender.org
mtllib gauge_etx_1_1.mtl
o gauge_etx_1_1
v -0.089647 0.000000 0.080000
v -0.077637 -0.044824 0.080000
v -0.044824 -0.077637 0.080000
v -0.044824 0.077637 0.080000
v -0.077637 0.044824 0.080000
v -0.100000 0.000000 0.000000
v -0.050000 -0.086603 0.000000
v -0.086603 -0.050000 0.000000
v -0.086603 0.050000 0.000000
v -0.050000 0.086603 0.000000
v 0.000000 -0.089647 0.080000
v 0.089647 0.000000 0.080000
v 0.044824 -0.077637 0.080000
v 0.077637 -0.044824 0.080000
v 0.000000 0.089647 0.080000
v 0.077637 0.044824 0.080000
v 0.044824 0.077637 0.080000
v 0.000000 -0.100000 0.000000
v 0.086603 -0.050000 0.000000
v 0.050000 -0.086603 0.000000
v 0.000000 0.100000 0.000000
v 0.100000 0.000000 0.000000
v 0.050000 0.086603 0.000000
v 0.086603 0.050000 0.000000
v 0.086603 0.050000 0.080000
v 0.100000 0.000000 0.080000
v -0.100000 0.000000 0.080000
v -0.086603 0.050000 0.080000
v 0.000000 -0.100000 0.080000
v -0.050000 -0.086603 0.080000
v -0.050000 0.086603 0.080000
v 0.000000 0.100000 0.080000
v -0.086603 -0.050000 0.080000
v 0.050000 -0.086603 0.080000
v 0.086603 -0.050000 0.080000
v 0.050000 0.086603 0.080000
v 0.077637 0.044824 0.060000
v 0.089647 0.000000 0.060000
v -0.089647 0.000000 0.060000
v -0.077637 0.044824 0.060000
v 0.000000 -0.089647 0.060000
v -0.044824 -0.077637 0.060000
v -0.044824 0.077637 0.060000
v -0.077637 -0.044824 0.060000
v 0.044824 -0.077637 0.060000
v 0.077637 -0.044824 0.060000
v 0.044824 0.077637 0.060000
v -0.000000 0.089647 0.060000
v -0.089647 -0.000000 0.070000
v -0.000000 -0.089647 0.070000
v -0.044824 0.077637 0.070000
v 0.044823 -0.077637 0.070000
v 0.077637 -0.044824 0.070000
v 0.077637 0.044824 0.070000
v 0.089647 0.000000 0.070000
v -0.077637 0.044824 0.070000
v -0.044824 -0.077637 0.070000
v -0.000000 0.089647 0.070000
v -0.077637 -0.044824 0.070000
v 0.044823 0.077637 0.070000
vn -0.5000 0.8660 -0.0000
vn -0.8660 0.5000 -0.0000
vn -0.0000 -0.0000 -1.0000
vn -0.0000 -1.0000 -0.0000
vn -0.5000 -0.8660 -0.0000
vn -0.8660 -0.5000 -0.0000
vn -1.0000 -0.0000 -0.0000
vn -0.0000 1.0000 -0.0000
vn 0.5000 -0.8660 -0.0000
vn 0.8660 -0.5000 -0.0000
vn 1.0000 -0.0000 -0.0000
vn 0.5000 0.8660 -0.0000
vn 0.8660 0.5000 -0.0000
vn -0.0000 -0.0000 1.0000
vt 0.164587 0.698438
vt 0.216797 0.748047
vt 0.216797 0.732422
vt 0.168454 0.684005
vt 0.216797 0.732422
vt 0.216797 0.748047
vt 0.179019 0.673440
vt 0.216797 0.748047
vt 0.216797 0.732422
vt 0.179019 0.723435
vt 0.216797 0.748047
vt 0.216797 0.732422
vt 0.168454 0.712870
vt 0.216797 0.732422
vt 0.216797 0.748047
vt 0.165567 0.714536
vt 0.207031 0.748047
vt 0.207031 0.732422
vt 0.193451 0.730635
vt 0.207031 0.748047
vt 0.207031 0.732422
vt 0.177352 0.726321
vt 0.207031 0.748047
vt 0.207031 0.732422
vt 0.161253 0.698438
vt 0.207031 0.732422
vt 0.207031 0.748047
vt 0.165567 0.682339
vt 0.207031 0.732422
vt 0.207031 0.748047
vt 0.193451 0.669573
vt 0.216797 0.732422
vt 0.216797 0.748047
vt 0.222315 0.698438
vt 0.216797 0.732422
vt 0.216797 0.748047
vt 0.216797 0.748047
vt 0.207883 0.673440
vt 0.216797 0.732422
vt 0.216797 0.732422
vt 0.218448 0.684005
vt 0.216797 0.748047
vt 0.193451 0.727302
vt 0.216797 0.748047
vt 0.216797 0.732422
vt 0.218448 0.712870
vt 0.216797 0.732422
vt 0.216797 0.748047
vt 0.207883 0.723435
vt 0.216797 0.748047
vt 0.216797 0.732422
vt 0.209550 0.726321
vt 0.207031 0.732422
vt 0.207031 0.748047
vt 0.225648 0.698438
vt 0.207031 0.732422
vt 0.207031 0.748047
vt 0.221335 0.714536
vt 0.207031 0.732422
vt 0.207031 0.748047
vt 0.177352 0.670554
vt 0.207031 0.748047
vt 0.207031 0.732422
vt 0.221335 0.682339
vt 0.207031 0.732422
vt 0.207031 0.748047
vt 0.193451 0.666240
vt 0.207031 0.748047
vt 0.207031 0.732422
vt 0.209550 0.670554
vt 0.207031 0.748047
vt 0.207031 0.732422
vt 0.234375 0.748047
vt 0.234375 0.732422
vt 0.221335 0.714536
vt 0.234375 0.732422
vt 0.234375 0.748047
vt 0.225648 0.698438
vt 0.234375 0.748047
vt 0.234375 0.732422
vt 0.161253 0.698438
vt 0.234375 0.732422
vt 0.234375 0.748047
vt 0.165567 0.714536
vt 0.234375 0.732422
vt 0.234375 0.748047
vt 0.193451 0.666240
vt 0.234375 0.748047
vt 0.234375 0.732422
vt 0.177352 0.670554
vt 0.234375 0.732422
vt 0.234375 0.748047
vt 0.177352 0.726321
vt 0.234375 0.748047
vt 0.234375 0.732422
vt 0.193451 0.730635
vt 0.234375 0.748047
vt 0.234375 0.732422
vt 0.165567 0.682339
vt 0.234375 0.732422
vt 0.234375 0.748047
vt 0.209550 0.670554
vt 0.234375 0.732422
vt 0.234375 0.748047
vt 0.221335 0.682339
vt 0.234375 0.748047
vt 0.234375 0.732422
vt 0.209550 0.726321
vt 0.224609 0.732422
vt 0.224609 0.748047
vt 0.174225 0.952817
vt 0.224609 0.732422
vt 0.224609 0.748047
vt 0.186734 0.906134
vt 0.224609 0.748047
vt 0.224609 0.732422
vt 0.000000 0.906134
vt 0.224609 0.732422
vt 0.224609 0.748047
vt 0.012509 0.952817
vt 0.224609 0.732422
vt 0.224609 0.748047
vt 0.093367 0.812767
vt 0.224609 0.748047
vt 0.224609 0.732422
vt 0.046683 0.825276
vt 0.224609 0.748047
vt 0.224609 0.732422
vt 0.046683 0.986992
vt 0.224609 0.732422
vt 0.224609 0.748047
vt 0.012509 0.859450
vt 0.224609 0.748047
vt 0.224609 0.732422
vt 0.140051 0.825276
vt 0.224609 0.732422
vt 0.224609 0.748047
vt 0.174225 0.859450
vt 0.224609 0.748047
vt 0.224609 0.732422
vt 0.140051 0.986992
vt 0.224609 0.748047
vt 0.224609 0.732422
vt 0.093367 0.999501
vt 0.375000 0.500000
vt 0.500000 0.375000
vt 0.437500 0.608253
vt 0.562500 0.391747
vt 0.608253 0.437500
vt 0.608253 0.562500
vt 0.625000 0.500000
vt 0.391747 0.562500
vt 0.437500 0.391747
vt 0.500000 0.625000
vt 0.391747 0.437500
vt 0.562500 0.608253
s 1
usemtl electronics_etx_part_1
f 13/37/1 14/40/2 46/136/2 45/133/1
f 18/52/3 7/19/3 8/22/3 6/16/3 9/25/3 10/28/3 21/61/3 23/67/3 24/70/3 22/64/3 19/55/3 20/58/3
f 18/53/4 29/85/4 30/88/5 7/20/5
f 7/21/5 30/89/5 33/97/6 8/23/6
f 8/24/6 33/98/6 27/79/7 6/17/7
f 32/94/8 21/62/8 10/29/1 31/91/1
f 31/92/1 10/30/1 9/26/2 28/82/2
f 28/83/2 9/27/2 6/18/7 27/80/7
f 29/86/4 18/54/4 20/59/9 34/100/9
f 34/101/9 20/60/9 19/56/10 35/103/10
f 35/104/10 19/57/10 22/65/11 26/76/11
f 21/63/8 32/95/8 36/106/12 23/68/12
f 23/69/12 36/107/12 25/73/13 24/71/13
f 24/72/13 25/74/13 26/77/11 22/66/11
f 16/46/14 12/34/14 26/78/14 25/75/14
f 1/1/14 5/13/14 28/84/14 27/81/14
f 11/31/14 3/7/14 30/90/14 29/87/14
f 4/10/14 15/43/14 32/96/14 31/93/14
f 3/7/14 2/4/14 33/99/14 30/90/14
f 2/4/14 1/1/14 27/81/14 33/99/14
f 5/13/14 4/10/14 31/93/14 28/84/14
f 13/38/14 11/31/14 29/87/14 34/102/14
f 14/41/14 13/38/14 34/102/14 35/105/14
f 12/34/14 14/41/14 35/105/14 26/78/14
f 15/43/14 17/49/14 36/108/14 32/96/14
f 17/49/14 16/46/14 25/75/14 36/108/14
f 1/2/11 2/5/13 44/130/13 39/115/11
f 3/8/12 11/32/8 41/121/8 42/124/12
f 14/42/2 12/35/7 38/112/7 46/137/2
f 4/11/9 5/14/10 40/118/10 43/127/9
f 15/44/4 4/12/9 43/128/9 48/142/4
f 17/50/5 15/45/4 48/143/4 47/139/5
f 12/36/7 16/47/6 37/109/6 38/113/7
f 11/33/8 13/39/1 45/134/1 41/122/8
f 2/6/13 3/9/12 42/125/12 44/131/13
f 16/48/6 17/51/5 47/140/5 37/110/6
f 5/15/10 1/3/11 39/116/11 40/119/10
usemtl electronics_etx_part_2
f 41/123/14 45/135/14 46/138/14 38/114/14 37/111/14 47/141/14 48/144/14 43/129/14 40/120/14 39/117/14 44/132/14 42/126/14
usemtl glass_etx_1
f 50/146/14 52/148/14 53/149/14 55/151/14 54/150/14 60/156/14 58/154/14 51/147/14 56/152/14 49/145/14 59/155/14 57/153/14
o gauge_pointer_etx_1_1_child
v 0.006073 -0.006072 0.060000
v 0.008588 0.000001 0.060000
v -0.000000 -0.008587 0.060000
v 0.006073 0.006073 0.060000
v -0.000000 0.008589 0.060000
v -0.006073 0.006073 0.060000
v -0.006073 -0.006072 0.060000
v -0.008588 0.000001 0.060000
v 0.006073 -0.006072 0.069000
v -0.000000 -0.008587 0.069000
v -0.006073 0.006073 0.069000
v -0.000000 0.008589 0.069000
v 0.008588 0.000001 0.069000
v -0.008588 0.000001 0.069000
v -0.006073 -0.006072 0.069000
v 0.006073 0.006073 0.069000
v 0.018385 0.026871 0.064000
v 0.026870 0.018386 0.064000
v 0.018385 0.026871 0.066000
v 0.026870 0.018386 0.066000
v -0.042426 -0.045254 0.064000
v -0.045255 -0.042425 0.064000
v -0.042426 -0.045254 0.066000
v -0.045255 -0.042425 0.066000
vn -0.9239 -0.3827 -0.0000
vn -0.0000 -0.0000 1.0000
vn -0.9239 0.3827 -0.0000
vn -0.3827 0.9239 -0.0000
vn 0.9239 0.3827 -0.0000
vn -0.3827 -0.9239 -0.0000
vn 0.9239 -0.3827 -0.0000
vn 0.3827 -0.9239 -0.0000
vn 0.3827 0.9239 -0.0000
vn 0.6764 -0.7365 -0.0000
vn -0.0000 -0.0000 -1.0000
vn -0.7365 0.6764 -0.0000
vn 0.7071 0.7071 -0.0000
vn -0.7071 -0.7071 -0.0000
vt 0.184572 0.186206
vt 0.185430 0.185848
vt 0.185430 0.188681
vt 0.187500 0.189250
vt 0.189570 0.185848
vt 0.190428 0.186206
vt 0.187500 0.191099
vt 0.189570 0.188681
vt 0.184572 0.186206
vt 0.185430 0.188681
vt 0.190428 0.186206
vt 0.189570 0.185848
vt 0.185430 0.185848
vt 0.189570 0.188681
vt 0.187500 0.191099
vt 0.187500 0.189250
vt 0.189725 0.183054
vt 0.187841 0.183052
vt 0.189620 0.195653
vt 0.187841 0.183052
vt 0.185275 0.183054
vt 0.185380 0.195653
vt 0.186989 0.183052
vt 0.189586 0.183055
vt 0.189620 0.194801
vt 0.186989 0.183052
vt 0.185414 0.183055
vt 0.185381 0.194801
vt 0.187841 0.215064
vt 0.186574 0.215062
vt 0.186389 0.195653
vt 0.188426 0.215062
vt 0.187841 0.215064
vt 0.188611 0.195653
vt 0.186989 0.215064
vt 0.186450 0.215064
vt 0.186389 0.194801
vt 0.186989 0.215064
vt 0.188550 0.215064
vt 0.188611 0.194801
s 0
usemtl electronics_etx_part_1
f 68/164/15 67/163/15 75/171/15 74/170/15
f 76/172/16 72/168/16 71/167/16 74/170/16 75/171/16 70/166/16 69/165/16 73/169/16
f 66/162/17 68/164/17 74/170/17 71/167/17
f 65/161/18 66/162/18 71/167/18 72/168/18
f 62/158/19 64/160/19 76/172/19 73/169/19
f 67/163/20 63/159/20 70/166/20 75/171/20
f 61/157/21 62/158/21 73/169/21 69/165/21
f 63/159/22 61/157/22 69/165/22 70/166/22
f 64/160/23 65/161/23 72/168/23 76/172/23
f 78/176/24 80/182/24 83/191/24 81/185/24
f 77/173/25 78/177/25 81/186/25 82/188/25
f 77/174/26 82/189/26 84/194/26 79/179/26
f 83/192/16 80/183/16 79/180/16 84/195/16
f 77/175/27 79/181/27 80/184/27 78/178/27
f 82/190/28 81/187/28 83/193/28 84/196/28
