# Blender 3.4.0
# www.blender.org
mtllib lever_etx_9.mtl
o lever_etx_9
v -0.054000 -0.189000 -0.036000
v -0.054000 0.189000 -0.036000
v -0.054000 -0.189000 -0.126000
v -0.054000 0.189000 -0.126000
v 0.054000 -0.189000 -0.036000
v 0.054000 0.189000 -0.036000
v 0.054000 -0.189000 -0.126000
v 0.054000 0.189000 -0.126000
v -0.054000 -0.153000 -0.000000
v -0.054000 0.153000 -0.000000
v 0.054000 -0.153000 -0.000000
v 0.054000 0.153000 -0.000000
v 0.054000 -0.037412 -0.041400
v 0.054000 -0.021600 -0.025588
v 0.054000 0.000000 -0.019800
v 0.054000 0.021600 -0.025588
v 0.054000 0.037413 -0.041400
v 0.054000 -0.043200 -0.063000
v 0.054000 -0.021600 -0.100412
v 0.054000 -0.037412 -0.084600
v 0.054000 0.043200 -0.063000
v 0.054000 0.000000 -0.106200
v 0.054000 0.037413 -0.084600
v 0.054000 0.021600 -0.100412
v 0.075600 -0.014146 -0.087502
v 0.075600 -0.014146 -0.038498
v 0.075600 -0.028292 -0.063000
v 0.075600 -0.024501 -0.048854
v 0.075600 0.014146 -0.038498
v 0.075600 -0.024501 -0.077146
v 0.075600 0.024502 -0.077146
v 0.075600 0.014146 -0.087502
v 0.061200 0.000000 -0.106200
v 0.061200 -0.021600 -0.100412
v 0.061200 0.037413 -0.041400
v 0.061200 0.043200 -0.063000
v 0.061200 -0.021600 -0.025588
v 0.061200 0.000000 -0.019800
v 0.061200 -0.043200 -0.063000
v 0.061200 -0.037412 -0.041400
v 0.061200 0.021600 -0.025588
v 0.061200 -0.037412 -0.084600
v 0.061200 0.037413 -0.084600
v 0.061200 0.021600 -0.100412
v 0.075600 0.000000 -0.091292
v 0.075600 0.024502 -0.048854
v 0.075600 0.028292 -0.063000
v 0.075600 0.000000 -0.034708
v -0.054000 -0.037412 -0.041400
v -0.054000 -0.021600 -0.025588
v -0.054000 0.000000 -0.019800
v -0.054000 0.021600 -0.025588
v -0.054000 0.037413 -0.041400
v -0.054000 -0.043200 -0.063000
v -0.054000 -0.021600 -0.100412
v -0.054000 -0.037412 -0.084600
v -0.054000 0.043200 -0.063000
v -0.054000 0.000000 -0.106200
v -0.054000 0.037413 -0.084600
v -0.054000 0.021600 -0.100412
v -0.075600 -0.014146 -0.087502
v -0.075600 -0.014146 -0.038498
v -0.075600 -0.028292 -0.063000
v -0.075600 -0.024501 -0.048854
v -0.075600 0.014146 -0.038498
v -0.075600 -0.024501 -0.077146
v -0.075600 0.024502 -0.077146
v -0.075600 0.014146 -0.087502
v -0.061200 0.000000 -0.106200
v -0.061200 -0.021600 -0.100412
v -0.061200 0.037413 -0.041400
v -0.061200 0.043200 -0.063000
v -0.061200 -0.021600 -0.025588
v -0.061200 0.000000 -0.019800
v -0.061200 -0.043200 -0.063000
v -0.061200 -0.037412 -0.041400
v -0.061200 0.021600 -0.025588
v -0.061200 -0.037412 -0.084600
v -0.061200 0.037413 -0.084600
v -0.061200 0.021600 -0.100412
v -0.075600 0.000000 -0.091292
v -0.075600 0.024502 -0.048854
v -0.075600 0.028292 -0.063000
v -0.075600 0.000000 -0.034708
v -0.059400 0.054000 -0.120600
v -0.059400 0.153000 -0.120600
v -0.054000 0.054000 -0.126000
v -0.054000 0.153000 -0.126000
v -0.054000 0.054000 -0.036000
v -0.054000 0.063000 -0.027000
v -0.054000 0.144000 -0.027000
v -0.054000 0.153000 -0.036000
v -0.059400 0.063000 -0.027000
v -0.059400 0.054000 -0.036000
v -0.059400 0.153000 -0.036000
v -0.059400 0.144000 -0.027000
v -0.090000 0.054000 -0.120600
v -0.099000 0.063000 -0.120600
v -0.099000 0.144000 -0.120600
v -0.090000 0.153000 -0.120600
v -0.099000 0.063000 -0.126000
v -0.090000 0.054000 -0.126000
v -0.090000 0.153000 -0.126000
v -0.099000 0.144000 -0.126000
v -0.070608 0.141791 -0.115830
v -0.067050 0.133200 -0.115830
v -0.079200 0.145350 -0.115830
v -0.070608 0.124609 -0.115830
v -0.079200 0.121050 -0.115830
v -0.087791 0.124609 -0.115830
v -0.087791 0.141791 -0.115830
v -0.091350 0.133200 -0.115830
v -0.070608 0.141791 -0.120690
v -0.067050 0.133200 -0.120690
v -0.079200 0.145350 -0.120690
v -0.070608 0.124609 -0.120690
v -0.079200 0.121050 -0.120690
v -0.087791 0.141791 -0.120690
v -0.087791 0.124609 -0.120690
v -0.091350 0.133200 -0.120690
v -0.073472 0.138928 -0.109350
v -0.071100 0.133200 -0.109350
v -0.079200 0.141300 -0.109350
v -0.073472 0.127473 -0.109350
v -0.079200 0.125100 -0.109350
v -0.084927 0.127473 -0.109350
v -0.084927 0.138928 -0.109350
v -0.087300 0.133200 -0.109350
v -0.073472 0.138928 -0.115830
v -0.071100 0.133200 -0.115830
v -0.079200 0.141300 -0.115830
v -0.073472 0.127473 -0.115830
v -0.079200 0.125100 -0.115830
v -0.084927 0.138928 -0.115830
v -0.084927 0.127473 -0.115830
v -0.087300 0.133200 -0.115830
v 0.059400 0.054000 -0.120600
v 0.059400 0.153000 -0.120600
v 0.054000 0.054000 -0.126000
v 0.054000 0.153000 -0.126000
v 0.054000 0.054000 -0.036000
v 0.054000 0.063000 -0.027000
v 0.054000 0.144000 -0.027000
v 0.054000 0.153000 -0.036000
v 0.059400 0.063000 -0.027000
v 0.059400 0.054000 -0.036000
v 0.059400 0.153000 -0.036000
v 0.059400 0.144000 -0.027000
v 0.090000 0.054000 -0.120600
v 0.099000 0.063000 -0.120600
v 0.099000 0.144000 -0.120600
v 0.090000 0.153000 -0.120600
v 0.099000 0.063000 -0.126000
v 0.090000 0.054000 -0.126000
v 0.090000 0.153000 -0.126000
v 0.099000 0.144000 -0.126000
v 0.070609 0.141791 -0.115830
v 0.067050 0.133200 -0.115830
v 0.079200 0.145350 -0.115830
v 0.070609 0.124609 -0.115830
v 0.079200 0.121050 -0.115830
v 0.087791 0.124609 -0.115830
v 0.087791 0.141791 -0.115830
v 0.091350 0.133200 -0.115830
v 0.070609 0.141791 -0.120690
v 0.067050 0.133200 -0.120690
v 0.079200 0.145350 -0.120690
v 0.070609 0.124609 -0.120690
v 0.079200 0.121050 -0.120690
v 0.087791 0.141791 -0.120690
v 0.087791 0.124609 -0.120690
v 0.091350 0.133200 -0.120690
v 0.073472 0.138928 -0.109350
v 0.071100 0.133200 -0.109350
v 0.079200 0.141300 -0.109350
v 0.073472 0.127473 -0.109350
v 0.079200 0.125100 -0.109350
v 0.084927 0.127473 -0.109350
v 0.084927 0.138928 -0.109350
v 0.087300 0.133200 -0.109350
v 0.073472 0.138928 -0.115830
v 0.071100 0.133200 -0.115830
v 0.079200 0.141300 -0.115830
v 0.073472 0.127473 -0.115830
v 0.079200 0.125100 -0.115830
v 0.084927 0.138928 -0.115830
v 0.084927 0.127473 -0.115830
v 0.087300 0.133200 -0.115830
v -0.070608 0.082391 -0.115830
v -0.067050 0.073800 -0.115830
v -0.079200 0.085950 -0.115830
v -0.070608 0.065209 -0.115830
v -0.079200 0.061650 -0.115830
v -0.087791 0.065209 -0.115830
v -0.087791 0.082391 -0.115830
v -0.091350 0.073800 -0.115830
v -0.070608 0.082391 -0.120690
v -0.067050 0.073800 -0.120690
v -0.079200 0.085950 -0.120690
v -0.070608 0.065209 -0.120690
v -0.079200 0.061650 -0.120690
v -0.087791 0.082391 -0.120690
v -0.087791 0.065209 -0.120690
v -0.091350 0.073800 -0.120690
v -0.073472 0.079528 -0.109350
v -0.071100 0.073800 -0.109350
v -0.079200 0.081900 -0.109350
v -0.073472 0.068073 -0.109350
v -0.079200 0.065700 -0.109350
v -0.084927 0.068073 -0.109350
v -0.084927 0.079528 -0.109350
v -0.087300 0.073800 -0.109350
v -0.073472 0.079528 -0.115830
v -0.071100 0.073800 -0.115830
v -0.079200 0.081900 -0.115830
v -0.073472 0.068073 -0.115830
v -0.079200 0.065700 -0.115830
v -0.084927 0.079528 -0.115830
v -0.084927 0.068073 -0.115830
v -0.087300 0.073800 -0.115830
v 0.070609 0.082391 -0.115830
v 0.067050 0.073800 -0.115830
v 0.079200 0.085950 -0.115830
v 0.070609 0.065209 -0.115830
v 0.079200 0.061650 -0.115830
v 0.087791 0.065209 -0.115830
v 0.087791 0.082391 -0.115830
v 0.091350 0.073800 -0.115830
v 0.070609 0.082391 -0.120690
v 0.067050 0.073800 -0.120690
v 0.079200 0.085950 -0.120690
v 0.070609 0.065209 -0.120690
v 0.079200 0.061650 -0.120690
v 0.087791 0.082391 -0.120690
v 0.087791 0.065209 -0.120690
v 0.091350 0.073800 -0.120690
v 0.073472 0.079528 -0.109350
v 0.071100 0.073800 -0.109350
v 0.079200 0.081900 -0.109350
v 0.073472 0.068073 -0.109350
v 0.079200 0.065700 -0.109350
v 0.084927 0.068073 -0.109350
v 0.084927 0.079528 -0.109350
v 0.087300 0.073800 -0.109350
v 0.073472 0.079528 -0.115830
v 0.071100 0.073800 -0.115830
v 0.079200 0.081900 -0.115830
v 0.073472 0.068073 -0.115830
v 0.079200 0.065700 -0.115830
v 0.084927 0.079528 -0.115830
v 0.084927 0.068073 -0.115830
v 0.087300 0.073800 -0.115830
v 0.059400 0.100800 -0.036000
v 0.059400 0.106200 -0.036000
v 0.059400 0.100800 -0.120600
v 0.059400 0.106200 -0.120600
v 0.090000 0.100800 -0.120600
v 0.090000 0.106200 -0.120600
v -0.059400 0.100800 -0.036000
v -0.059400 0.106200 -0.036000
v -0.059400 0.100800 -0.120600
v -0.059400 0.106200 -0.120600
v -0.090000 0.100800 -0.120600
v -0.090000 0.106200 -0.120600
v -0.059400 -0.153000 -0.120600
v -0.059400 -0.054000 -0.120600
v -0.054000 -0.153000 -0.126000
v -0.054000 -0.054000 -0.126000
v -0.054000 -0.153000 -0.036000
v -0.054000 -0.144000 -0.027000
v -0.054000 -0.063000 -0.027000
v -0.054000 -0.054000 -0.036000
v -0.059400 -0.144000 -0.027000
v -0.059400 -0.153000 -0.036000
v -0.059400 -0.054000 -0.036000
v -0.059400 -0.063000 -0.027000
v -0.090000 -0.153000 -0.120600
v -0.099000 -0.144000 -0.120600
v -0.099000 -0.063000 -0.120600
v -0.090000 -0.054000 -0.120600
v -0.099000 -0.144000 -0.126000
v -0.090000 -0.153000 -0.126000
v -0.090000 -0.054000 -0.126000
v -0.099000 -0.063000 -0.126000
v -0.070608 -0.065209 -0.115830
v -0.067050 -0.073800 -0.115830
v -0.079200 -0.061650 -0.115830
v -0.070608 -0.082391 -0.115830
v -0.079200 -0.085950 -0.115830
v -0.087791 -0.082391 -0.115830
v -0.087791 -0.065209 -0.115830
v -0.091350 -0.073800 -0.115830
v -0.070608 -0.065209 -0.120690
v -0.067050 -0.073800 -0.120690
v -0.079200 -0.061650 -0.120690
v -0.070608 -0.082391 -0.120690
v -0.079200 -0.085950 -0.120690
v -0.087791 -0.065209 -0.120690
v -0.087791 -0.082391 -0.120690
v -0.091350 -0.073800 -0.120690
v -0.073472 -0.068072 -0.109350
v -0.071100 -0.073800 -0.109350
v -0.079200 -0.065700 -0.109350
v -0.073472 -0.079527 -0.109350
v -0.079200 -0.081900 -0.109350
v -0.084927 -0.079527 -0.109350
v -0.084927 -0.068072 -0.109350
v -0.087300 -0.073800 -0.109350
v -0.073472 -0.068072 -0.115830
v -0.071100 -0.073800 -0.115830
v -0.079200 -0.065700 -0.115830
v -0.073472 -0.079527 -0.115830
v -0.079200 -0.081900 -0.115830
v -0.084927 -0.068072 -0.115830
v -0.084927 -0.079527 -0.115830
v -0.087300 -0.073800 -0.115830
v 0.059400 -0.153000 -0.120600
v 0.059400 -0.054000 -0.120600
v 0.054000 -0.153000 -0.126000
v 0.054000 -0.054000 -0.126000
v 0.054000 -0.153000 -0.036000
v 0.054000 -0.144000 -0.027000
v 0.054000 -0.063000 -0.027000
v 0.054000 -0.054000 -0.036000
v 0.059400 -0.144000 -0.027000
v 0.059400 -0.153000 -0.036000
v 0.059400 -0.054000 -0.036000
v 0.059400 -0.063000 -0.027000
v 0.090000 -0.153000 -0.120600
v 0.099000 -0.144000 -0.120600
v 0.099000 -0.063000 -0.120600
v 0.090000 -0.054000 -0.120600
v 0.099000 -0.144000 -0.126000
v 0.090000 -0.153000 -0.126000
v 0.090000 -0.054000 -0.126000
v 0.099000 -0.063000 -0.126000
v 0.070609 -0.065209 -0.115830
v 0.067050 -0.073800 -0.115830
v 0.079200 -0.061650 -0.115830
v 0.070609 -0.082391 -0.115830
v 0.079200 -0.085950 -0.115830
v 0.087791 -0.082391 -0.115830
v 0.087791 -0.065209 -0.115830
v 0.091350 -0.073800 -0.115830
v 0.070609 -0.065209 -0.120690
v 0.067050 -0.073800 -0.120690
v 0.079200 -0.061650 -0.120690
v 0.070609 -0.082391 -0.120690
v 0.079200 -0.085950 -0.120690
v 0.087791 -0.065209 -0.120690
v 0.087791 -0.082391 -0.120690
v 0.091350 -0.073800 -0.120690
v 0.073472 -0.068072 -0.109350
v 0.071100 -0.073800 -0.109350
v 0.079200 -0.065700 -0.109350
v 0.073472 -0.079527 -0.109350
v 0.079200 -0.081900 -0.109350
v 0.084927 -0.079527 -0.109350
v 0.084927 -0.068072 -0.109350
v 0.087300 -0.073800 -0.109350
v 0.073472 -0.068072 -0.115830
v 0.071100 -0.073800 -0.115830
v 0.079200 -0.065700 -0.115830
v 0.073472 -0.079527 -0.115830
v 0.079200 -0.081900 -0.115830
v 0.084927 -0.068072 -0.115830
v 0.084927 -0.079527 -0.115830
v 0.087300 -0.073800 -0.115830
v -0.070608 -0.124609 -0.115830
v -0.067050 -0.133200 -0.115830
v -0.079200 -0.121050 -0.115830
v -0.070608 -0.141791 -0.115830
v -0.079200 -0.145350 -0.115830
v -0.087791 -0.141791 -0.115830
v -0.087791 -0.124609 -0.115830
v -0.091350 -0.133200 -0.115830
v -0.070608 -0.124609 -0.120690
v -0.067050 -0.133200 -0.120690
v -0.079200 -0.121050 -0.120690
v -0.070608 -0.141791 -0.120690
v -0.079200 -0.145350 -0.120690
v -0.087791 -0.124609 -0.120690
v -0.087791 -0.141791 -0.120690
v -0.091350 -0.133200 -0.120690
v -0.073472 -0.127472 -0.109350
v -0.071100 -0.133200 -0.109350
v -0.079200 -0.125100 -0.109350
v -0.073472 -0.138927 -0.109350
v -0.079200 -0.141300 -0.109350
v -0.084927 -0.138927 -0.109350
v -0.084927 -0.127472 -0.109350
v -0.087300 -0.133200 -0.109350
v -0.073472 -0.127472 -0.115830
v -0.071100 -0.133200 -0.115830
v -0.079200 -0.125100 -0.115830
v -0.073472 -0.138927 -0.115830
v -0.079200 -0.141300 -0.115830
v -0.084927 -0.127472 -0.115830
v -0.084927 -0.138927 -0.115830
v -0.087300 -0.133200 -0.115830
v 0.070609 -0.124609 -0.115830
v 0.067050 -0.133200 -0.115830
v 0.079200 -0.121050 -0.115830
v 0.070609 -0.141791 -0.115830
v 0.079200 -0.145350 -0.115830
v 0.087791 -0.141791 -0.115830
v 0.087791 -0.124609 -0.115830
v 0.091350 -0.133200 -0.115830
v 0.070609 -0.124609 -0.120690
v 0.067050 -0.133200 -0.120690
v 0.079200 -0.121050 -0.120690
v 0.070609 -0.141791 -0.120690
v 0.079200 -0.145350 -0.120690
v 0.087791 -0.124609 -0.120690
v 0.087791 -0.141791 -0.120690
v 0.091350 -0.133200 -0.120690
v 0.073472 -0.127472 -0.109350
v 0.071100 -0.133200 -0.109350
v 0.079200 -0.125100 -0.109350
v 0.073472 -0.138927 -0.109350
v 0.079200 -0.141300 -0.109350
v 0.084927 -0.138927 -0.109350
v 0.084927 -0.127472 -0.109350
v 0.087300 -0.133200 -0.109350
v 0.073472 -0.127472 -0.115830
v 0.071100 -0.133200 -0.115830
v 0.079200 -0.125100 -0.115830
v 0.073472 -0.138927 -0.115830
v 0.079200 -0.141300 -0.115830
v 0.084927 -0.127472 -0.115830
v 0.084927 -0.138927 -0.115830
v 0.087300 -0.133200 -0.115830
v 0.059400 -0.106200 -0.036000
v 0.059400 -0.100800 -0.036000
v 0.059400 -0.106200 -0.120600
v 0.059400 -0.100800 -0.120600
v 0.090000 -0.106200 -0.120600
v 0.090000 -0.100800 -0.120600
v -0.059400 -0.106200 -0.036000
v -0.059400 -0.100800 -0.036000
v -0.059400 -0.106200 -0.120600
v -0.059400 -0.100800 -0.120600
v -0.090000 -0.106200 -0.120600
v -0.090000 -0.100800 -0.120600
vn -1.0000 -0.0000 -0.0000
vn 1.0000 -0.0000 -0.0000
vn -0.0000 0.7071 0.7071
vn -0.0000 -1.0000 -0.0000
vn -0.0000 1.0000 -0.0000
vn -0.0000 -0.0000 1.0000
vn -0.0000 -0.7071 0.7071
vn -0.0000 -0.8660 0.5000
vn -0.0000 -0.5000 0.8660
vn -0.0000 0.8660 0.5000
vn -0.0000 0.5000 0.8660
vn -0.0000 -0.8660 -0.5000
vn -0.0000 -0.5000 -0.8660
vn -0.0000 -0.0000 -1.0000
vn -0.0000 0.8660 -0.5000
vn -0.0000 0.5000 -0.8660
vn 0.7193 -0.0000 -0.6947
vn 0.7193 -0.3474 -0.6017
vn 0.7193 0.6017 0.3474
vn 0.7193 0.6947 -0.0000
vn 0.7193 -0.3474 0.6017
vn 0.7193 -0.0000 0.6947
vn 0.7193 -0.6947 -0.0000
vn 0.7193 -0.6017 0.3474
vn 0.7193 0.3474 0.6017
vn 0.7193 -0.6017 -0.3474
vn 0.7193 0.6017 -0.3474
vn 0.7193 0.3474 -0.6017
vn -0.7193 -0.0000 -0.6947
vn -0.7193 -0.3474 -0.6017
vn -0.7193 0.6017 0.3474
vn -0.7193 0.6947 -0.0000
vn -0.7193 -0.3474 0.6017
vn -0.7193 -0.0000 0.6947
vn -0.7193 -0.6947 -0.0000
vn -0.7193 -0.6017 0.3474
vn -0.7193 0.3474 0.6017
vn -0.7193 -0.6017 -0.3474
vn -0.7193 0.6017 -0.3474
vn -0.7193 0.3474 -0.6017
vn -0.7071 -0.7071 -0.0000
vn -0.7071 0.7071 -0.0000
vn -0.9239 0.3827 -0.0000
vn -0.9239 -0.3827 -0.0000
vn -0.3827 0.9239 -0.0000
vn 0.3827 0.9239 -0.0000
vn -0.3827 -0.9239 -0.0000
vn 0.3827 -0.9239 -0.0000
vn 0.9239 0.3827 -0.0000
vn 0.9239 -0.3827 -0.0000
vn 0.7071 -0.7071 -0.0000
vn 0.7071 0.7071 -0.0000
vn 0.9404 -0.0000 0.3401
vn -0.9404 -0.0000 0.3401
vt 0.085083 0.530402
vt 0.013077 0.537953
vt 0.045813 0.511856
vt 0.045813 0.530349
vt 0.085083 0.563093
vt 0.013077 0.400649
vt 0.045768 0.537953
vt 0.085083 0.563093
vt 0.045768 0.400649
vt 0.085083 0.530402
vt 0.045853 0.530402
vt 0.013077 0.537953
vt 0.085043 0.511856
vt 0.085043 0.530349
vt 0.045853 0.563093
vt 0.013077 0.400649
vt 0.045768 0.537953
vt 0.045853 0.563093
vt 0.045768 0.400649
vt 0.045853 0.530402
vt 0.084999 0.511786
vt 0.000000 0.524876
vt 0.045813 0.530349
vt 0.045813 0.511856
vt 0.084999 0.400635
vt 0.000000 0.413725
vt 0.045769 0.511786
vt 0.000000 0.524876
vt 0.085043 0.530349
vt 0.085043 0.511856
vt 0.045769 0.400635
vt 0.000000 0.413725
vt 0.101495 0.283100
vt 0.094175 0.283100
vt 0.121486 0.283125
vt 0.111486 0.283125
vt 0.094175 0.283100
vt 0.101486 0.283125
vt 0.101495 0.283100
vt 0.111495 0.283100
vt 0.128816 0.283100
vt 0.121486 0.283125
vt 0.121495 0.283100
vt 0.111495 0.283100
vt 0.111486 0.283125
vt 0.121495 0.283100
vt 0.128816 0.283100
vt 0.101486 0.283125
vt 0.122839 0.249310
vt 0.100152 0.249310
vt 0.111495 0.242761
vt 0.104946 0.244516
vt 0.100152 0.262408
vt 0.118044 0.244516
vt 0.118044 0.267203
vt 0.122839 0.262408
vt 0.111486 0.279791
vt 0.131495 0.255859
vt 0.128816 0.279767
vt 0.121486 0.279791
vt 0.128816 0.245859
vt 0.101495 0.279767
vt 0.101495 0.273180
vt 0.111495 0.279767
vt 0.111495 0.275859
vt 0.094175 0.279767
vt 0.121486 0.279791
vt 0.094175 0.245859
vt 0.111486 0.279791
vt 0.091495 0.255859
vt 0.111495 0.279767
vt 0.111495 0.235859
vt 0.101495 0.279767
vt 0.101495 0.238539
vt 0.094175 0.279767
vt 0.101486 0.279791
vt 0.094175 0.265859
vt 0.121495 0.279767
vt 0.121495 0.238539
vt 0.121495 0.279767
vt 0.121495 0.273180
vt 0.128816 0.279767
vt 0.101486 0.279791
vt 0.128816 0.265859
vt 0.124594 0.255859
vt 0.104946 0.267203
vt 0.111495 0.268958
vt 0.098397 0.255859
vt 0.101495 0.283100
vt 0.094175 0.283100
vt 0.121486 0.283125
vt 0.111486 0.283125
vt 0.094175 0.283100
vt 0.101486 0.283125
vt 0.101495 0.283100
vt 0.111495 0.283100
vt 0.128816 0.283100
vt 0.121486 0.283125
vt 0.121495 0.283100
vt 0.111495 0.283100
vt 0.111486 0.283125
vt 0.121495 0.283100
vt 0.128816 0.283100
vt 0.101486 0.283125
vt 0.122839 0.249310
vt 0.100152 0.249310
vt 0.111495 0.242761
vt 0.104946 0.244516
vt 0.100152 0.262408
vt 0.118044 0.244516
vt 0.118044 0.267203
vt 0.122839 0.262408
vt 0.111486 0.279791
vt 0.131495 0.255859
vt 0.128816 0.279767
vt 0.121486 0.279791
vt 0.128816 0.245859
vt 0.101495 0.279767
vt 0.101495 0.273180
vt 0.111495 0.279767
vt 0.111495 0.275859
vt 0.094175 0.279767
vt 0.121486 0.279791
vt 0.094175 0.245859
vt 0.111486 0.279791
vt 0.091495 0.255859
vt 0.111495 0.279767
vt 0.111495 0.235859
vt 0.101495 0.279767
vt 0.101495 0.238539
vt 0.094175 0.279767
vt 0.101486 0.279791
vt 0.094175 0.265859
vt 0.121495 0.279767
vt 0.121495 0.238539
vt 0.121495 0.279767
vt 0.121495 0.273180
vt 0.128816 0.279767
vt 0.101486 0.279791
vt 0.128816 0.265859
vt 0.124594 0.255859
vt 0.104946 0.267203
vt 0.111495 0.268958
vt 0.098397 0.255859
vt 0.129760 0.258893
vt 0.121094 0.258893
vt 0.121094 0.287098
vt 0.121094 0.287098
vt 0.129761 0.295560
vt 0.121094 0.295560
vt 0.119094 0.289098
vt 0.119094 0.289098
vt 0.119094 0.255765
vt 0.119094 0.274098
vt 0.119094 0.262765
vt 0.119094 0.270765
vt 0.119094 0.292765
vt 0.119094 0.265765
vt 0.119094 0.255765
vt 0.119094 0.269098
vt 0.095094 0.262227
vt 0.121094 0.262765
vt 0.121094 0.270765
vt 0.121094 0.255765
vt 0.098427 0.258893
vt 0.121094 0.274098
vt 0.121094 0.255765
vt 0.098427 0.295560
vt 0.121094 0.269098
vt 0.095094 0.292227
vt 0.121094 0.292765
vt 0.121094 0.265765
vt 0.132427 0.258893
vt 0.132427 0.287098
vt 0.119110 0.267429
vt 0.119110 0.262429
vt 0.135761 0.262227
vt 0.119110 0.270763
vt 0.119110 0.292429
vt 0.135761 0.292227
vt 0.119110 0.289096
vt 0.132427 0.287098
vt 0.132427 0.295560
vt 0.119110 0.292429
vt 0.121110 0.262429
vt 0.121110 0.270763
vt 0.132427 0.289098
vt 0.121110 0.267429
vt 0.132427 0.289098
vt 0.121110 0.292429
vt 0.121110 0.292429
vt 0.121110 0.289096
vt 0.048009 0.324219
vt 0.043252 0.324219
vt 0.046533 0.320655
vt 0.043252 0.320655
vt 0.043252 0.327783
vt 0.046533 0.327783
vt 0.043252 0.327783
vt 0.042969 0.319179
vt 0.043252 0.324219
vt 0.039405 0.320655
vt 0.043252 0.320655
vt 0.037929 0.324219
vt 0.043252 0.324219
vt 0.042969 0.329259
vt 0.043252 0.324219
vt 0.039405 0.327783
vt 0.043252 0.320655
vt 0.043252 0.327783
vt 0.045268 0.324219
vt 0.045268 0.320655
vt 0.045268 0.327783
vt 0.045268 0.327783
vt 0.045268 0.324219
vt 0.045268 0.320655
vt 0.045268 0.324219
vt 0.045268 0.324219
vt 0.045268 0.320655
vt 0.045268 0.327783
vt 0.046329 0.324219
vt 0.040564 0.324219
vt 0.045345 0.321843
vt 0.040564 0.321843
vt 0.040564 0.326595
vt 0.045345 0.326595
vt 0.040564 0.326595
vt 0.042969 0.320859
vt 0.040564 0.324219
vt 0.040564 0.321843
vt 0.039609 0.324219
vt 0.040564 0.324219
vt 0.042969 0.327579
vt 0.040564 0.324219
vt 0.040564 0.321843
vt 0.040564 0.326595
vt 0.046329 0.324219
vt 0.043252 0.324219
vt 0.045345 0.321843
vt 0.043252 0.321843
vt 0.043252 0.326595
vt 0.045345 0.326595
vt 0.043252 0.326595
vt 0.042969 0.320859
vt 0.043252 0.324219
vt 0.040593 0.321843
vt 0.043252 0.321843
vt 0.042969 0.327579
vt 0.043252 0.324219
vt 0.039609 0.324219
vt 0.043252 0.324219
vt 0.040593 0.326595
vt 0.043252 0.321843
vt 0.043252 0.326595
vt 0.129761 0.258893
vt 0.121094 0.258893
vt 0.121094 0.287098
vt 0.121094 0.287098
vt 0.129761 0.295560
vt 0.121094 0.295560
vt 0.119094 0.289098
vt 0.119094 0.289098
vt 0.119094 0.255765
vt 0.119094 0.274098
vt 0.119094 0.262765
vt 0.119094 0.270765
vt 0.119094 0.292765
vt 0.119094 0.265765
vt 0.119094 0.255765
vt 0.119094 0.269098
vt 0.095094 0.262227
vt 0.121094 0.262765
vt 0.121094 0.270765
vt 0.121094 0.255765
vt 0.098427 0.258893
vt 0.121094 0.274099
vt 0.121094 0.255765
vt 0.098427 0.295560
vt 0.121094 0.269098
vt 0.095094 0.292227
vt 0.121094 0.292765
vt 0.121094 0.265765
vt 0.132427 0.258893
vt 0.132427 0.287098
vt 0.119110 0.267429
vt 0.119110 0.262429
vt 0.135761 0.262227
vt 0.119110 0.270763
vt 0.119110 0.292429
vt 0.135761 0.292227
vt 0.119110 0.289096
vt 0.132427 0.287098
vt 0.132427 0.295560
vt 0.119110 0.292429
vt 0.121110 0.262429
vt 0.121110 0.270763
vt 0.132427 0.289098
vt 0.121110 0.267429
vt 0.132427 0.289098
vt 0.121110 0.292429
vt 0.121110 0.292429
vt 0.121110 0.289096
vt 0.048009 0.324219
vt 0.043252 0.324219
vt 0.046533 0.320655
vt 0.043252 0.320655
vt 0.043252 0.327783
vt 0.046533 0.327783
vt 0.043252 0.327783
vt 0.042969 0.319179
vt 0.043252 0.324219
vt 0.039405 0.320655
vt 0.043252 0.320655
vt 0.037929 0.324219
vt 0.043252 0.324219
vt 0.042969 0.329259
vt 0.043252 0.324219
vt 0.039405 0.327783
vt 0.043252 0.320655
vt 0.043252 0.327783
vt 0.045268 0.324219
vt 0.045268 0.320655
vt 0.045268 0.327783
vt 0.045268 0.327783
vt 0.045268 0.324219
vt 0.045268 0.320655
vt 0.045268 0.324219
vt 0.045268 0.324219
vt 0.045268 0.320655
vt 0.045268 0.327783
vt 0.046329 0.324219
vt 0.040564 0.324219
vt 0.045345 0.321843
vt 0.040564 0.321843
vt 0.040564 0.326595
vt 0.045345 0.326595
vt 0.040564 0.326595
vt 0.042969 0.320859
vt 0.040564 0.324219
vt 0.040564 0.321843
vt 0.039609 0.324219
vt 0.040564 0.324219
vt 0.042969 0.327579
vt 0.040564 0.324219
vt 0.040564 0.321843
vt 0.040564 0.326595
vt 0.046329 0.324219
vt 0.043252 0.324219
vt 0.045345 0.321843
vt 0.043252 0.321843
vt 0.043252 0.326595
vt 0.045345 0.326595
vt 0.043252 0.326595
vt 0.042969 0.320859
vt 0.043252 0.324219
vt 0.040593 0.321843
vt 0.043252 0.321843
vt 0.042969 0.327579
vt 0.043252 0.324219
vt 0.039609 0.324219
vt 0.043252 0.324219
vt 0.040593 0.326595
vt 0.043252 0.321843
vt 0.043252 0.326595
vt 0.048009 0.324219
vt 0.043252 0.324219
vt 0.046533 0.320655
vt 0.043252 0.320655
vt 0.043252 0.327783
vt 0.046533 0.327783
vt 0.043252 0.327783
vt 0.042969 0.319179
vt 0.043252 0.324219
vt 0.039405 0.320655
vt 0.043252 0.320655
vt 0.037929 0.324219
vt 0.043252 0.324219
vt 0.042969 0.329259
vt 0.043252 0.324219
vt 0.039405 0.327783
vt 0.043252 0.320655
vt 0.043252 0.327783
vt 0.045268 0.324219
vt 0.045268 0.320655
vt 0.045268 0.327783
vt 0.045268 0.327783
vt 0.045268 0.324219
vt 0.045268 0.320655
vt 0.045268 0.324219
vt 0.045268 0.324219
vt 0.045268 0.320655
vt 0.045268 0.327783
vt 0.046329 0.324219
vt 0.040564 0.324219
vt 0.045345 0.321843
vt 0.040564 0.321843
vt 0.040564 0.326595
vt 0.045345 0.326595
vt 0.040564 0.326595
vt 0.042969 0.320859
vt 0.040564 0.324219
vt 0.040564 0.321843
vt 0.039609 0.324219
vt 0.040564 0.324219
vt 0.042969 0.327579
vt 0.040564 0.324219
vt 0.040564 0.321843
vt 0.040564 0.326595
vt 0.046329 0.324219
vt 0.043252 0.324219
vt 0.045345 0.321843
vt 0.043252 0.321843
vt 0.043252 0.326595
vt 0.045345 0.326595
vt 0.043252 0.326595
vt 0.042969 0.320859
vt 0.043252 0.324219
vt 0.040593 0.321843
vt 0.043252 0.321843
vt 0.042969 0.327579
vt 0.043252 0.324219
vt 0.039609 0.324219
vt 0.043252 0.324219
vt 0.040593 0.326595
vt 0.043252 0.321843
vt 0.043252 0.326595
vt 0.048009 0.324219
vt 0.043252 0.324219
vt 0.046533 0.320655
vt 0.043252 0.320655
vt 0.043252 0.327783
vt 0.046533 0.327783
vt 0.043252 0.327783
vt 0.042969 0.319179
vt 0.043252 0.324219
vt 0.039405 0.320655
vt 0.043252 0.320655
vt 0.037929 0.324219
vt 0.043252 0.324219
vt 0.042969 0.329259
vt 0.043252 0.324219
vt 0.039405 0.327783
vt 0.043252 0.320655
vt 0.043252 0.327783
vt 0.045268 0.324219
vt 0.045268 0.320655
vt 0.045268 0.327783
vt 0.045268 0.327783
vt 0.045268 0.324219
vt 0.045268 0.320655
vt 0.045268 0.324219
vt 0.045268 0.324219
vt 0.045268 0.320655
vt 0.045268 0.327783
vt 0.046329 0.324219
vt 0.040564 0.324219
vt 0.045345 0.321843
vt 0.040564 0.321843
vt 0.040564 0.326595
vt 0.045345 0.326595
vt 0.040564 0.326595
vt 0.042969 0.320859
vt 0.040564 0.324219
vt 0.040564 0.321843
vt 0.039609 0.324219
vt 0.040564 0.324219
vt 0.042969 0.327579
vt 0.040564 0.324219
vt 0.040564 0.321843
vt 0.040564 0.326595
vt 0.046329 0.324219
vt 0.043252 0.324219
vt 0.045345 0.321843
vt 0.043252 0.321843
vt 0.043252 0.326595
vt 0.045345 0.326595
vt 0.043252 0.326595
vt 0.042969 0.320859
vt 0.043252 0.324219
vt 0.040593 0.321843
vt 0.043252 0.321843
vt 0.042969 0.327579
vt 0.043252 0.324219
vt 0.039609 0.324219
vt 0.043252 0.324219
vt 0.040593 0.326595
vt 0.043252 0.321843
vt 0.043252 0.326595
vt 0.129021 0.302849
vt 0.109375 0.302849
vt 0.129021 0.259651
vt 0.111328 0.302849
vt 0.107422 0.281250
vt 0.107422 0.281250
vt 0.115234 0.273438
vt 0.109375 0.273438
vt 0.115234 0.289062
vt 0.111328 0.273438
vt 0.129021 0.302849
vt 0.109375 0.302849
vt 0.129021 0.259651
vt 0.111328 0.302849
vt 0.107422 0.281250
vt 0.107422 0.281250
vt 0.115234 0.273438
vt 0.109375 0.273438
vt 0.115234 0.289062
vt 0.111328 0.273438
vt 0.129760 0.258893
vt 0.121094 0.258893
vt 0.121094 0.287098
vt 0.121094 0.287098
vt 0.129761 0.295560
vt 0.121094 0.295560
vt 0.119094 0.289098
vt 0.119094 0.289098
vt 0.119094 0.255765
vt 0.119094 0.274098
vt 0.119094 0.262765
vt 0.119094 0.270765
vt 0.119094 0.292765
vt 0.119094 0.265765
vt 0.119094 0.255765
vt 0.119094 0.269098
vt 0.095094 0.262227
vt 0.121094 0.262765
vt 0.121094 0.270765
vt 0.121094 0.255765
vt 0.098427 0.258893
vt 0.121094 0.274098
vt 0.121094 0.255765
vt 0.098427 0.295560
vt 0.121094 0.269098
vt 0.095094 0.292227
vt 0.121094 0.292765
vt 0.121094 0.265765
vt 0.132427 0.258893
vt 0.132427 0.287098
vt 0.119110 0.267429
vt 0.119110 0.262429
vt 0.135761 0.262227
vt 0.119110 0.270763
vt 0.119110 0.292429
vt 0.135761 0.292227
vt 0.119110 0.289096
vt 0.132427 0.287098
vt 0.132427 0.295560
vt 0.119110 0.292429
vt 0.121110 0.262429
vt 0.121110 0.270763
vt 0.132427 0.289098
vt 0.121110 0.267429
vt 0.132427 0.289098
vt 0.121110 0.292429
vt 0.121110 0.292429
vt 0.121110 0.289096
vt 0.048009 0.324219
vt 0.043252 0.324219
vt 0.046533 0.320655
vt 0.043252 0.320655
vt 0.043252 0.327783
vt 0.046533 0.327783
vt 0.043252 0.327783
vt 0.042969 0.319179
vt 0.043252 0.324219
vt 0.039405 0.320655
vt 0.043252 0.320655
vt 0.037929 0.324219
vt 0.043252 0.324219
vt 0.042969 0.329259
vt 0.043252 0.324219
vt 0.039405 0.327783
vt 0.043252 0.320655
vt 0.043252 0.327783
vt 0.045268 0.324219
vt 0.045268 0.320655
vt 0.045268 0.327783
vt 0.045268 0.327783
vt 0.045268 0.324219
vt 0.045268 0.320655
vt 0.045268 0.324219
vt 0.045268 0.324219
vt 0.045268 0.320655
vt 0.045268 0.327783
vt 0.046329 0.324219
vt 0.040564 0.324219
vt 0.045345 0.321843
vt 0.040564 0.321843
vt 0.040564 0.326595
vt 0.045345 0.326595
vt 0.040564 0.326595
vt 0.042969 0.320859
vt 0.040564 0.324219
vt 0.040564 0.321843
vt 0.039609 0.324219
vt 0.040564 0.324219
vt 0.042969 0.327579
vt 0.040564 0.324219
vt 0.040564 0.321843
vt 0.040564 0.326595
vt 0.046329 0.324219
vt 0.043252 0.324219
vt 0.045345 0.321843
vt 0.043252 0.321843
vt 0.043252 0.326595
vt 0.045345 0.326595
vt 0.043252 0.326595
vt 0.042969 0.320859
vt 0.043252 0.324219
vt 0.040593 0.321843
vt 0.043252 0.321843
vt 0.042969 0.327579
vt 0.043252 0.324219
vt 0.039609 0.324219
vt 0.043252 0.324219
vt 0.040593 0.326595
vt 0.043252 0.321843
vt 0.043252 0.326595
vt 0.129761 0.258893
vt 0.121094 0.258893
vt 0.121094 0.287098
vt 0.121094 0.287098
vt 0.129761 0.295560
vt 0.121094 0.295560
vt 0.119094 0.289098
vt 0.119094 0.289098
vt 0.119094 0.255765
vt 0.119094 0.274098
vt 0.119094 0.262765
vt 0.119094 0.270765
vt 0.119094 0.292765
vt 0.119094 0.265765
vt 0.119094 0.255765
vt 0.119094 0.269098
vt 0.095094 0.262227
vt 0.121094 0.262765
vt 0.121094 0.270765
vt 0.121094 0.255765
vt 0.098427 0.258893
vt 0.121094 0.274098
vt 0.121094 0.255765
vt 0.098427 0.295560
vt 0.121094 0.269098
vt 0.095094 0.292227
vt 0.121094 0.292765
vt 0.121094 0.265765
vt 0.132427 0.258893
vt 0.132427 0.287098
vt 0.119110 0.267429
vt 0.119110 0.262429
vt 0.135761 0.262227
vt 0.119110 0.270763
vt 0.119110 0.292429
vt 0.135761 0.292227
vt 0.119110 0.289096
vt 0.132427 0.287098
vt 0.132427 0.295560
vt 0.119110 0.292429
vt 0.121110 0.262429
vt 0.121110 0.270763
vt 0.132427 0.289098
vt 0.121110 0.267429
vt 0.132427 0.289098
vt 0.121110 0.292429
vt 0.121110 0.292429
vt 0.121110 0.289096
vt 0.048009 0.324219
vt 0.043252 0.324219
vt 0.046533 0.320655
vt 0.043252 0.320655
vt 0.043252 0.327783
vt 0.046533 0.327783
vt 0.043252 0.327783
vt 0.042969 0.319179
vt 0.043252 0.324219
vt 0.039405 0.320655
vt 0.043252 0.320655
vt 0.037929 0.324219
vt 0.043252 0.324219
vt 0.042969 0.329259
vt 0.043252 0.324219
vt 0.039405 0.327783
vt 0.043252 0.320655
vt 0.043252 0.327783
vt 0.045268 0.324219
vt 0.045268 0.320655
vt 0.045268 0.327783
vt 0.045268 0.327783
vt 0.045268 0.324219
vt 0.045268 0.320655
vt 0.045268 0.324219
vt 0.045268 0.324219
vt 0.045268 0.320655
vt 0.045268 0.327783
vt 0.046329 0.324219
vt 0.040564 0.324219
vt 0.045345 0.321843
vt 0.040564 0.321843
vt 0.040564 0.326595
vt 0.045345 0.326595
vt 0.040564 0.326595
vt 0.042969 0.320859
vt 0.040564 0.324219
vt 0.040564 0.321843
vt 0.039609 0.324219
vt 0.040564 0.324219
vt 0.042969 0.327579
vt 0.040564 0.324219
vt 0.040564 0.321843
vt 0.040564 0.326595
vt 0.046329 0.324219
vt 0.043252 0.324219
vt 0.045345 0.321843
vt 0.043252 0.321843
vt 0.043252 0.326595
vt 0.045345 0.326595
vt 0.043252 0.326595
vt 0.042969 0.320859
vt 0.043252 0.324219
vt 0.040593 0.321843
vt 0.043252 0.321843
vt 0.042969 0.327579
vt 0.043252 0.324219
vt 0.039609 0.324219
vt 0.043252 0.324219
vt 0.040593 0.326595
vt 0.043252 0.321843
vt 0.043252 0.326595
vt 0.048009 0.324219
vt 0.043252 0.324219
vt 0.046533 0.320655
vt 0.043252 0.320655
vt 0.043252 0.327783
vt 0.046533 0.327783
vt 0.043252 0.327783
vt 0.042969 0.319179
vt 0.043252 0.324219
vt 0.039405 0.320655
vt 0.043252 0.320655
vt 0.037929 0.324219
vt 0.043252 0.324219
vt 0.042969 0.329259
vt 0.043252 0.324219
vt 0.039405 0.327783
vt 0.043252 0.320655
vt 0.043252 0.327783
vt 0.045268 0.324219
vt 0.045268 0.320655
vt 0.045268 0.327783
vt 0.045268 0.327783
vt 0.045268 0.324219
vt 0.045268 0.320655
vt 0.045268 0.324219
vt 0.045268 0.324219
vt 0.045268 0.320655
vt 0.045268 0.327783
vt 0.046329 0.324219
vt 0.040564 0.324219
vt 0.045345 0.321843
vt 0.040564 0.321843
vt 0.040564 0.326595
vt 0.045345 0.326595
vt 0.040564 0.326595
vt 0.042969 0.320859
vt 0.040564 0.324219
vt 0.040564 0.321843
vt 0.039609 0.324219
vt 0.040564 0.324219
vt 0.042969 0.327579
vt 0.040564 0.324219
vt 0.040564 0.321843
vt 0.040564 0.326595
vt 0.046329 0.324219
vt 0.043252 0.324219
vt 0.045345 0.321843
vt 0.043252 0.321843
vt 0.043252 0.326595
vt 0.045345 0.326595
vt 0.043252 0.326595
vt 0.042969 0.320859
vt 0.043252 0.324219
vt 0.040593 0.321843
vt 0.043252 0.321843
vt 0.042969 0.327579
vt 0.043252 0.324219
vt 0.039609 0.324219
vt 0.043252 0.324219
vt 0.040593 0.326595
vt 0.043252 0.321843
vt 0.043252 0.326595
vt 0.048009 0.324219
vt 0.043252 0.324219
vt 0.046533 0.320655
vt 0.043252 0.320655
vt 0.043252 0.327783
vt 0.046533 0.327783
vt 0.043252 0.327783
vt 0.042969 0.319179
vt 0.043252 0.324219
vt 0.039405 0.320655
vt 0.043252 0.320655
vt 0.037929 0.324219
vt 0.043252 0.324219
vt 0.042969 0.329259
vt 0.043252 0.324219
vt 0.039405 0.327783
vt 0.043252 0.320655
vt 0.043252 0.327783
vt 0.045268 0.324219
vt 0.045268 0.320655
vt 0.045268 0.327783
vt 0.045268 0.327783
vt 0.045268 0.324219
vt 0.045268 0.320655
vt 0.045268 0.324219
vt 0.045268 0.324219
vt 0.045268 0.320655
vt 0.045268 0.327783
vt 0.046329 0.324219
vt 0.040564 0.324219
vt 0.045345 0.321843
vt 0.040564 0.321843
vt 0.040564 0.326595
vt 0.045345 0.326595
vt 0.040564 0.326595
vt 0.042969 0.320859
vt 0.040564 0.324219
vt 0.040564 0.321843
vt 0.039609 0.324219
vt 0.040564 0.324219
vt 0.042969 0.327579
vt 0.040564 0.324219
vt 0.040564 0.321843
vt 0.040564 0.326595
vt 0.046329 0.324219
vt 0.043252 0.324219
vt 0.045345 0.321843
vt 0.043252 0.321843
vt 0.043252 0.326595
vt 0.045345 0.326595
vt 0.043252 0.326595
vt 0.042969 0.320859
vt 0.043252 0.324219
vt 0.040593 0.321843
vt 0.043252 0.321843
vt 0.042969 0.327579
vt 0.043252 0.324219
vt 0.039609 0.324219
vt 0.043252 0.324219
vt 0.040593 0.326595
vt 0.043252 0.321843
vt 0.043252 0.326595
vt 0.129021 0.302849
vt 0.109375 0.302849
vt 0.129021 0.259651
vt 0.111328 0.302849
vt 0.107422 0.281250
vt 0.107422 0.281250
vt 0.115234 0.273438
vt 0.109375 0.273438
vt 0.115234 0.289062
vt 0.111328 0.273438
vt 0.129021 0.302849
vt 0.109375 0.302849
vt 0.129021 0.259651
vt 0.111328 0.302849
vt 0.107422 0.281250
vt 0.107422 0.281250
vt 0.115234 0.273438
vt 0.109375 0.273438
vt 0.115234 0.289062
vt 0.111328 0.273438
s 0
usemtl electronics_etx_part_1
f 1/2/1 2/6/1 4/9/1 3/7/1
f 7/17/2 8/19/2 6/16/2 5/12/2
f 6/14/3 2/4/3 10/24/3 12/30/3
f 3/8/4 7/18/4 5/11/4 1/1/4
f 8/20/5 4/10/5 2/5/5 6/15/5
f 11/27/6 12/31/6 10/25/6 9/21/6
f 5/12/2 6/16/2 12/32/2 11/28/2
f 2/6/1 1/2/1 9/22/1 10/26/1
f 1/3/7 5/13/7 11/29/7 9/23/7
s 1
f 18/40/4 39/71/4 40/73/8 13/33/8
f 13/33/8 40/73/8 37/66/9 14/34/9
f 14/35/9 37/67/9 38/69/6 15/36/6
f 36/64/5 21/44/5 17/39/10 35/62/10
f 35/62/10 17/39/10 16/37/11 41/75/11
f 41/76/11 16/38/11 15/36/6 38/69/6
f 39/71/4 18/40/4 20/43/12 42/78/12
f 42/78/12 20/43/12 19/41/13 34/59/13
f 34/60/13 19/42/13 22/45/14 33/57/14
f 21/44/5 36/64/5 43/80/15 23/46/15
f 23/46/15 43/80/15 44/82/16 24/47/16
f 24/48/16 44/83/16 33/57/14 22/45/14
f 45/85/17 25/49/18 34/61/18 33/58/17
f 46/86/19 47/87/20 36/65/20 35/63/19
f 26/50/21 48/88/22 38/70/22 37/68/21
f 27/51/23 28/52/24 40/74/24 39/72/23
f 28/52/24 26/50/21 37/68/21 40/74/24
f 29/53/25 46/86/19 35/63/19 41/77/25
f 48/88/22 29/53/25 41/77/25 38/70/22
f 30/54/26 27/51/23 39/72/23 42/79/26
f 25/49/18 30/54/26 42/79/26 34/61/18
f 47/87/20 31/55/27 43/81/27 36/65/20
f 31/55/27 32/56/28 44/84/28 43/81/27
f 32/56/28 45/85/17 33/58/17 44/84/28
f 31/55/2 47/87/2 46/86/2 29/53/2 48/88/2 26/50/2 28/52/2 27/51/2 30/54/2 25/49/2 45/85/2 32/56/2
f 54/96/4 49/89/8 76/129/8 75/127/4
f 49/89/8 50/90/9 73/122/9 76/129/8
f 50/91/9 51/92/6 74/125/6 73/123/9
f 72/120/5 71/118/10 53/95/10 57/100/5
f 71/118/10 77/131/11 52/93/11 53/95/10
f 77/132/11 74/125/6 51/92/6 52/94/11
f 75/127/4 78/134/12 56/99/12 54/96/4
f 78/134/12 70/115/13 55/97/13 56/99/12
f 70/116/13 69/113/14 58/101/14 55/98/13
f 57/100/5 59/102/15 79/136/15 72/120/5
f 59/102/15 60/103/16 80/138/16 79/136/15
f 60/104/16 58/101/14 69/113/14 80/139/16
f 81/141/29 69/114/29 70/117/30 61/105/30
f 82/142/31 71/119/31 72/121/32 83/143/32
f 62/106/33 73/124/33 74/126/34 84/144/34
f 63/107/35 75/128/35 76/130/36 64/108/36
f 64/108/36 76/130/36 73/124/33 62/106/33
f 65/109/37 77/133/37 71/119/31 82/142/31
f 84/144/34 74/126/34 77/133/37 65/109/37
f 66/110/38 78/135/38 75/128/35 63/107/35
f 61/105/30 70/117/30 78/135/38 66/110/38
f 83/143/32 72/121/32 79/137/39 67/111/39
f 67/111/39 79/137/39 80/140/40 68/112/40
f 68/112/40 80/140/40 69/114/29 81/141/29
f 67/111/1 68/112/1 81/141/1 61/105/1 66/110/1 63/107/1 64/108/1 62/106/1 84/144/1 65/109/1 82/142/1 83/143/1
s 0
f 86/148/5 95/167/5 92/159/5 88/152/5
f 86/148/5 88/152/5 103/189/5 100/182/5
f 99/179/1 104/191/1 101/185/1 98/176/1
f 89/153/4 94/164/4 85/147/4 87/151/4
f 85/145/1 94/165/1 93/161/1 96/170/1 95/168/1 86/149/1
f 86/150/6 100/183/6 99/180/6 98/177/6 97/173/6 85/146/6
f 87/151/4 85/147/4 97/174/4 102/187/4
f 93/162/6 90/155/6 91/157/6 96/171/6
f 89/154/7 90/156/7 93/163/7 94/166/7
f 95/169/3 96/172/3 91/158/3 92/160/3
f 97/175/41 98/178/41 101/186/41 102/188/41
f 103/190/42 104/192/42 99/181/42 100/184/42
f 111/206/6 112/208/6 110/204/6 109/202/6 108/200/6 106/195/6 105/193/6 107/198/6
f 118/217/43 120/219/43 112/209/43 111/207/43
f 120/220/44 119/218/44 110/205/44 112/210/44
f 111/207/45 107/199/45 115/214/45 118/217/45
f 107/199/46 105/194/46 113/211/46 115/214/46
f 119/218/47 117/216/47 109/203/47 110/205/47
f 117/216/48 116/215/48 108/201/48 109/203/48
f 105/194/49 106/196/49 114/212/49 113/211/49
f 106/197/50 108/201/50 116/215/50 114/213/50
f 129/237/14 130/239/14 132/244/14 133/246/14 135/250/14 136/252/14 134/248/14 131/242/14
f 127/233/6 128/236/6 126/231/6 125/230/6 124/228/6 122/223/6 121/221/6 123/226/6
f 134/249/43 136/253/43 128/235/43 127/234/43
f 136/254/44 135/251/44 126/232/44 128/236/44
f 127/234/45 123/227/45 131/243/45 134/249/45
f 123/227/46 121/222/46 129/238/46 131/243/46
f 135/251/47 133/247/47 125/230/47 126/232/47
f 133/247/48 132/245/48 124/229/48 125/230/48
f 121/222/49 122/224/49 130/240/49 129/238/49
f 122/225/50 124/229/50 132/245/50 130/241/50
f 138/258/5 140/262/5 144/269/5 147/277/5
f 138/258/5 152/292/5 155/299/5 140/262/5
f 151/289/2 150/286/2 153/295/2 156/301/2
f 141/263/4 139/261/4 137/257/4 146/274/4
f 137/255/2 138/259/2 147/278/2 148/280/2 145/271/2 146/275/2
f 138/260/6 137/256/6 149/283/6 150/287/6 151/290/6 152/293/6
f 139/261/4 154/297/4 149/284/4 137/257/4
f 145/272/6 148/281/6 143/267/6 142/265/6
f 141/264/7 146/276/7 145/273/7 142/266/7
f 147/279/3 144/270/3 143/268/3 148/282/3
f 149/285/51 154/298/51 153/296/51 150/288/51
f 155/300/52 152/294/52 151/291/52 156/302/52
f 163/316/6 159/308/6 157/303/6 158/305/6 160/310/6 161/312/6 162/314/6 164/318/6
f 170/327/49 163/317/49 164/319/49 172/329/49
f 172/330/50 164/320/50 162/315/50 171/328/50
f 163/317/46 170/327/46 167/324/46 159/309/46
f 159/309/45 167/324/45 165/321/45 157/304/45
f 171/328/48 162/315/48 161/313/48 169/326/48
f 169/326/47 161/313/47 160/311/47 168/325/47
f 157/304/43 165/321/43 166/322/43 158/306/43
f 158/307/44 166/323/44 168/325/44 160/311/44
f 181/347/14 183/352/14 186/358/14 188/362/14 187/360/14 185/356/14 184/354/14 182/349/14
f 179/343/6 175/336/6 173/331/6 174/333/6 176/338/6 177/340/6 178/341/6 180/346/6
f 186/359/49 179/344/49 180/345/49 188/363/49
f 188/364/50 180/346/50 178/342/50 187/361/50
f 179/344/46 186/359/46 183/353/46 175/337/46
f 175/337/45 183/353/45 181/348/45 173/332/45
f 187/361/48 178/342/48 177/340/48 185/357/48
f 185/357/47 177/340/47 176/339/47 184/355/47
f 173/332/43 181/348/43 182/350/43 174/334/43
f 174/335/44 182/351/44 184/355/44 176/339/44
f 195/378/6 196/380/6 194/376/6 193/374/6 192/372/6 190/367/6 189/365/6 191/370/6
f 202/389/43 204/391/43 196/381/43 195/379/43
f 204/392/44 203/390/44 194/377/44 196/382/44
f 195/379/45 191/371/45 199/386/45 202/389/45
f 191/371/46 189/366/46 197/383/46 199/386/46
f 203/390/47 201/388/47 193/375/47 194/377/47
f 201/388/48 200/387/48 192/373/48 193/375/48
f 189/366/49 190/368/49 198/384/49 197/383/49
f 190/369/50 192/373/50 200/387/50 198/385/50
f 213/409/14 214/411/14 216/416/14 217/418/14 219/422/14 220/424/14 218/420/14 215/414/14
f 211/405/6 212/408/6 210/403/6 209/402/6 208/400/6 206/395/6 205/393/6 207/398/6
f 218/421/43 220/425/43 212/407/43 211/406/43
f 220/426/44 219/423/44 210/404/44 212/408/44
f 211/406/45 207/399/45 215/415/45 218/421/45
f 207/399/46 205/394/46 213/410/46 215/415/46
f 219/423/47 217/419/47 209/402/47 210/404/47
f 217/419/48 216/417/48 208/401/48 209/402/48
f 205/394/49 206/396/49 214/412/49 213/410/49
f 206/397/50 208/401/50 216/417/50 214/413/50
f 227/440/6 223/432/6 221/427/6 222/429/6 224/434/6 225/436/6 226/438/6 228/442/6
f 234/451/49 227/441/49 228/443/49 236/453/49
f 236/454/50 228/444/50 226/439/50 235/452/50
f 227/441/46 234/451/46 231/448/46 223/433/46
f 223/433/45 231/448/45 229/445/45 221/428/45
f 235/452/48 226/439/48 225/437/48 233/450/48
f 233/450/47 225/437/47 224/435/47 232/449/47
f 221/428/43 229/445/43 230/446/43 222/430/43
f 222/431/44 230/447/44 232/449/44 224/435/44
f 245/471/14 247/476/14 250/482/14 252/486/14 251/484/14 249/480/14 248/478/14 246/473/14
f 243/467/6 239/460/6 237/455/6 238/457/6 240/462/6 241/464/6 242/465/6 244/470/6
f 250/483/49 243/468/49 244/469/49 252/487/49
f 252/488/50 244/470/50 242/466/50 251/485/50
f 243/468/46 250/483/46 247/477/46 239/461/46
f 239/461/45 247/477/45 245/472/45 237/456/45
f 251/485/48 242/466/48 241/464/48 249/481/48
f 249/481/47 241/464/47 240/463/47 248/479/47
f 237/456/43 245/472/43 246/474/43 238/458/43
f 238/459/44 246/475/44 248/479/44 240/463/44
f 255/493/4 257/495/4 253/489/4
f 258/497/5 256/494/5 254/491/5
f 258/498/53 254/492/53 253/490/53 257/496/53
f 261/503/4 259/499/4 263/505/4
f 264/507/5 260/501/5 262/504/5
f 264/508/54 263/506/54 259/500/54 260/502/54
f 266/512/5 275/531/5 272/523/5 268/516/5
f 266/512/5 268/516/5 283/553/5 280/546/5
f 279/543/1 284/555/1 281/549/1 278/540/1
f 269/517/4 274/528/4 265/511/4 267/515/4
f 265/509/1 274/529/1 273/525/1 276/534/1 275/532/1 266/513/1
f 266/514/6 280/547/6 279/544/6 278/541/6 277/537/6 265/510/6
f 267/515/4 265/511/4 277/538/4 282/551/4
f 273/526/6 270/519/6 271/521/6 276/535/6
f 269/518/7 270/520/7 273/527/7 274/530/7
f 275/533/3 276/536/3 271/522/3 272/524/3
f 277/539/41 278/542/41 281/550/41 282/552/41
f 283/554/42 284/556/42 279/545/42 280/548/42
f 291/570/6 292/572/6 290/568/6 289/566/6 288/564/6 286/559/6 285/557/6 287/562/6
f 298/581/43 300/583/43 292/573/43 291/571/43
f 300/584/44 299/582/44 290/569/44 292/574/44
f 291/571/45 287/563/45 295/578/45 298/581/45
f 287/563/46 285/558/46 293/575/46 295/578/46
f 299/582/47 297/580/47 289/567/47 290/569/47
f 297/580/48 296/579/48 288/565/48 289/567/48
f 285/558/49 286/560/49 294/576/49 293/575/49
f 286/561/50 288/565/50 296/579/50 294/577/50
f 309/601/14 310/603/14 312/608/14 313/610/14 315/614/14 316/616/14 314/612/14 311/606/14
f 307/597/6 308/600/6 306/595/6 305/594/6 304/592/6 302/587/6 301/585/6 303/590/6
f 314/613/43 316/617/43 308/599/43 307/598/43
f 316/618/44 315/615/44 306/596/44 308/600/44
f 307/598/45 303/591/45 311/607/45 314/613/45
f 303/591/46 301/586/46 309/602/46 311/607/46
f 315/615/47 313/611/47 305/594/47 306/596/47
f 313/611/48 312/609/48 304/593/48 305/594/48
f 301/586/49 302/588/49 310/604/49 309/602/49
f 302/589/50 304/593/50 312/609/50 310/605/50
f 318/622/5 320/626/5 324/633/5 327/641/5
f 318/622/5 332/656/5 335/663/5 320/626/5
f 331/653/2 330/650/2 333/659/2 336/665/2
f 321/627/4 319/625/4 317/621/4 326/638/4
f 317/619/2 318/623/2 327/642/2 328/644/2 325/635/2 326/639/2
f 318/624/6 317/620/6 329/647/6 330/651/6 331/654/6 332/657/6
f 319/625/4 334/661/4 329/648/4 317/621/4
f 325/636/6 328/645/6 323/631/6 322/629/6
f 321/628/7 326/640/7 325/637/7 322/630/7
f 327/643/3 324/634/3 323/632/3 328/646/3
f 329/649/51 334/662/51 333/660/51 330/652/51
f 335/664/52 332/658/52 331/655/52 336/666/52
f 343/680/6 339/672/6 337/667/6 338/669/6 340/674/6 341/676/6 342/678/6 344/682/6
f 350/691/49 343/681/49 344/683/49 352/693/49
f 352/694/50 344/684/50 342/679/50 351/692/50
f 343/681/46 350/691/46 347/688/46 339/673/46
f 339/673/45 347/688/45 345/685/45 337/668/45
f 351/692/48 342/679/48 341/677/48 349/690/48
f 349/690/47 341/677/47 340/675/47 348/689/47
f 337/668/43 345/685/43 346/686/43 338/670/43
f 338/671/44 346/687/44 348/689/44 340/675/44
f 361/711/14 363/716/14 366/722/14 368/726/14 367/724/14 365/720/14 364/718/14 362/713/14
f 359/707/6 355/700/6 353/695/6 354/697/6 356/702/6 357/704/6 358/705/6 360/710/6
f 366/723/49 359/708/49 360/709/49 368/727/49
f 368/728/50 360/710/50 358/706/50 367/725/50
f 359/708/46 366/723/46 363/717/46 355/701/46
f 355/701/45 363/717/45 361/712/45 353/696/45
f 367/725/48 358/706/48 357/704/48 365/721/48
f 365/721/47 357/704/47 356/703/47 364/719/47
f 353/696/43 361/712/43 362/714/43 354/698/43
f 354/699/44 362/715/44 364/719/44 356/703/44
f 375/742/6 376/744/6 374/740/6 373/738/6 372/736/6 370/731/6 369/729/6 371/734/6
f 382/753/43 384/755/43 376/745/43 375/743/43
f 384/756/44 383/754/44 374/741/44 376/746/44
f 375/743/45 371/735/45 379/750/45 382/753/45
f 371/735/46 369/730/46 377/747/46 379/750/46
f 383/754/47 381/752/47 373/739/47 374/741/47
f 381/752/48 380/751/48 372/737/48 373/739/48
f 369/730/49 370/732/49 378/748/49 377/747/49
f 370/733/50 372/737/50 380/751/50 378/749/50
f 393/773/14 394/775/14 396/780/14 397/782/14 399/786/14 400/788/14 398/784/14 395/778/14
f 391/769/6 392/772/6 390/767/6 389/766/6 388/764/6 386/759/6 385/757/6 387/762/6
f 398/785/43 400/789/43 392/771/43 391/770/43
f 400/790/44 399/787/44 390/768/44 392/772/44
f 391/770/45 387/763/45 395/779/45 398/785/45
f 387/763/46 385/758/46 393/774/46 395/779/46
f 399/787/47 397/783/47 389/766/47 390/768/47
f 397/783/48 396/781/48 388/765/48 389/766/48
f 385/758/49 386/760/49 394/776/49 393/774/49
f 386/761/50 388/765/50 396/781/50 394/777/50
f 407/804/6 403/796/6 401/791/6 402/793/6 404/798/6 405/800/6 406/802/6 408/806/6
f 414/815/49 407/805/49 408/807/49 416/817/49
f 416/818/50 408/808/50 406/803/50 415/816/50
f 407/805/46 414/815/46 411/812/46 403/797/46
f 403/797/45 411/812/45 409/809/45 401/792/45
f 415/816/48 406/803/48 405/801/48 413/814/48
f 413/814/47 405/801/47 404/799/47 412/813/47
f 401/792/43 409/809/43 410/810/43 402/794/43
f 402/795/44 410/811/44 412/813/44 404/799/44
f 425/835/14 427/840/14 430/846/14 432/850/14 431/848/14 429/844/14 428/842/14 426/837/14
f 423/831/6 419/824/6 417/819/6 418/821/6 420/826/6 421/828/6 422/829/6 424/834/6
f 430/847/49 423/832/49 424/833/49 432/851/49
f 432/852/50 424/834/50 422/830/50 431/849/50
f 423/832/46 430/847/46 427/841/46 419/825/46
f 419/825/45 427/841/45 425/836/45 417/820/45
f 431/849/48 422/830/48 421/828/48 429/845/48
f 429/845/47 421/828/47 420/827/47 428/843/47
f 417/820/43 425/836/43 426/838/43 418/822/43
f 418/823/44 426/839/44 428/843/44 420/827/44
f 435/857/4 437/859/4 433/853/4
f 438/861/5 436/858/5 434/855/5
f 438/862/53 434/856/53 433/854/53 437/860/53
f 441/867/4 439/863/4 443/869/4
f 444/871/5 440/865/5 442/868/5
f 444/872/54 443/870/54 439/864/54 440/866/54
o lever_etx_9_child
v 0.093600 -0.122188 0.043915
v 0.093600 -0.106914 0.059188
v 0.082800 -0.122188 0.043915
v 0.082800 -0.106914 0.059188
v 0.093600 -0.015273 -0.063000
v 0.093600 0.000000 -0.047726
v 0.082800 -0.015273 -0.063000
v 0.082800 0.000000 -0.047726
v 0.093600 -0.089095 0.051551
v 0.093600 -0.114551 0.026096
v -0.098640 -0.085623 0.038823
v -0.098640 -0.090368 0.027368
v -0.098640 -0.090368 0.050279
v -0.098640 -0.101823 0.022623
v -0.098640 -0.113278 0.027368
v -0.098640 -0.118023 0.038823
v -0.098640 -0.101823 0.055023
v -0.098640 -0.113278 0.050279
v -0.093600 -0.085623 0.038823
v -0.093600 -0.090368 0.027368
v -0.093600 -0.090368 0.050279
v -0.093600 -0.101823 0.022623
v -0.093600 -0.113278 0.027368
v -0.093600 -0.101823 0.055023
v -0.093600 -0.118023 0.038823
v -0.093600 -0.113278 0.050279
v -0.107280 -0.091023 0.038823
v -0.107280 -0.094186 0.031187
v -0.107280 -0.094186 0.046460
v -0.107280 -0.101823 0.028023
v -0.107280 -0.109460 0.031187
v -0.107280 -0.112623 0.038823
v -0.107280 -0.101823 0.049623
v -0.107280 -0.109460 0.046460
v -0.098640 -0.091023 0.038823
v -0.098640 -0.094186 0.031187
v -0.098640 -0.094186 0.046460
v -0.098640 -0.101823 0.028023
v -0.098640 -0.109460 0.031187
v -0.098640 -0.101823 0.049623
v -0.098640 -0.112623 0.038823
v -0.098640 -0.109460 0.046460
v 0.098640 -0.101823 0.022624
v 0.098640 -0.090368 0.027368
v 0.098640 -0.113278 0.027368
v 0.098640 -0.085623 0.038824
v 0.098640 -0.090368 0.050279
v 0.098640 -0.101823 0.055024
v 0.098640 -0.118023 0.038824
v 0.098640 -0.113278 0.050279
v 0.093600 -0.101823 0.022624
v 0.093600 -0.090368 0.027368
v 0.093600 -0.113278 0.027368
v 0.093600 -0.085623 0.038824
v 0.093600 -0.090368 0.050279
v 0.093600 -0.118023 0.038824
v 0.093600 -0.101823 0.055024
v 0.093600 -0.113278 0.050279
v 0.107280 -0.101823 0.028024
v 0.107280 -0.094186 0.031187
v 0.107280 -0.109460 0.031187
v 0.107280 -0.091023 0.038824
v 0.107280 -0.094186 0.046460
v 0.107280 -0.101823 0.049624
v 0.107280 -0.112623 0.038824
v 0.107280 -0.109460 0.046460
v 0.098640 -0.101823 0.028024
v 0.098640 -0.094186 0.031187
v 0.098640 -0.109460 0.031187
v 0.098640 -0.091023 0.038824
v 0.098640 -0.094186 0.046460
v 0.098640 -0.112623 0.038824
v 0.098640 -0.101823 0.049624
v 0.098640 -0.109460 0.046460
v 0.093600 -0.081459 0.033732
v 0.093600 -0.096732 0.018459
v 0.082800 -0.081459 0.033732
v 0.082800 -0.096732 0.018459
v 0.082800 -0.089095 0.051551
v 0.082800 -0.114551 0.026095
v 0.093600 -0.057276 0.019731
v 0.093600 -0.082731 -0.005724
v 0.082800 -0.057276 0.019731
v 0.082800 -0.082731 -0.005724
v -0.082800 -0.122188 0.043915
v -0.082800 -0.106914 0.059188
v -0.093600 -0.122188 0.043915
v -0.093600 -0.106914 0.059188
v -0.082800 -0.015273 -0.063000
v -0.082800 0.000000 -0.047726
v -0.093600 -0.015273 -0.063000
v -0.093600 0.000000 -0.047726
v -0.082800 -0.089095 0.051551
v -0.082800 -0.114551 0.026096
v -0.082800 -0.081459 0.033732
v -0.082800 -0.096732 0.018459
v -0.093600 -0.081459 0.033732
v -0.093600 -0.096732 0.018459
v -0.093600 -0.089095 0.051551
v -0.093600 -0.114551 0.026095
v -0.082800 -0.057276 0.019731
v -0.082800 -0.082731 -0.005724
v -0.093600 -0.057276 0.019731
v -0.093600 -0.082731 -0.005724
v -0.082800 -0.085277 0.022277
v -0.082800 -0.101823 0.015423
v -0.082800 -0.078423 0.038823
v -0.082800 -0.118370 0.022277
v -0.082800 -0.125223 0.038823
v -0.082800 -0.118370 0.055370
v -0.082800 -0.085277 0.055370
v -0.082800 -0.101823 0.062223
v 0.082800 -0.085277 0.022277
v 0.082800 -0.101823 0.015423
v 0.082800 -0.078423 0.038823
v 0.082800 -0.118370 0.022277
v 0.082800 -0.125223 0.038823
v 0.082800 -0.085277 0.055370
v 0.082800 -0.118370 0.055370
v 0.082800 -0.101823 0.062223
v 0.093600 -0.015273 -0.022271
v 0.093600 -0.040729 -0.047727
v 0.082800 -0.015273 -0.022271
v 0.082800 -0.040729 -0.047727
v -0.082800 -0.015273 -0.022271
v -0.082800 -0.040729 -0.047727
v -0.093600 -0.015273 -0.022271
v -0.093600 -0.040729 -0.047727
v -0.101700 0.020250 -0.063000
v -0.101700 0.014319 -0.077319
v -0.101700 0.014319 -0.048681
v -0.101700 0.000000 -0.083250
v -0.101700 -0.014319 -0.077319
v -0.101700 -0.020250 -0.063000
v -0.101700 0.000000 -0.042750
v -0.101700 -0.014319 -0.048681
v -0.075600 0.020250 -0.063000
v -0.075600 0.014319 -0.077319
v -0.075600 0.014319 -0.048681
v -0.075600 0.000000 -0.083250
v -0.075600 -0.014319 -0.077319
v -0.075600 0.000000 -0.042750
v -0.075600 -0.020250 -0.063000
v -0.075600 -0.014319 -0.048681
v -0.112500 0.013500 -0.063000
v -0.112500 0.009546 -0.072546
v -0.112500 0.009546 -0.053454
v -0.112500 0.000000 -0.076500
v -0.112500 -0.009546 -0.072546
v -0.112500 -0.013500 -0.063000
v -0.112500 0.000000 -0.049500
v -0.112500 -0.009546 -0.053454
v -0.101700 0.013500 -0.063000
v -0.101700 0.009546 -0.072546
v -0.101700 0.009546 -0.053454
v -0.101700 0.000000 -0.076500
v -0.101700 -0.009546 -0.072546
v -0.101700 0.000000 -0.049500
v -0.101700 -0.013500 -0.063000
v -0.101700 -0.009546 -0.053454
v 0.101700 0.000000 -0.083250
v 0.101700 0.014319 -0.077319
v 0.101700 -0.014319 -0.077319
v 0.101700 0.020250 -0.063000
v 0.101700 0.014319 -0.048681
v 0.101700 0.000000 -0.042750
v 0.101700 -0.020250 -0.063000
v 0.101700 -0.014319 -0.048681
v 0.075600 0.000000 -0.083250
v 0.075600 0.014319 -0.077319
v 0.075600 -0.014319 -0.077319
v 0.075600 0.020250 -0.063000
v 0.075600 0.014319 -0.048681
v 0.075600 -0.020250 -0.063000
v 0.075600 0.000000 -0.042750
v 0.075600 -0.014319 -0.048681
v 0.112500 0.000000 -0.076500
v 0.112500 0.009546 -0.072546
v 0.112500 -0.009546 -0.072546
v 0.112500 0.013500 -0.063000
v 0.112500 0.009546 -0.053454
v 0.112500 0.000000 -0.049500
v 0.112500 -0.013500 -0.063000
v 0.112500 -0.009546 -0.053454
v 0.101700 0.000000 -0.076500
v 0.101700 0.009546 -0.072546
v 0.101700 -0.009546 -0.072546
v 0.101700 0.013500 -0.063000
v 0.101700 0.009546 -0.053454
v 0.101700 -0.013500 -0.063000
v 0.101700 0.000000 -0.049500
v 0.101700 -0.009546 -0.053454
vn -0.0000 0.8575 0.5145
vn 1.0000 -0.0000 -0.0000
vn -1.0000 -0.0000 -0.0000
vn -0.0000 -0.5145 -0.8575
vn -0.0000 -0.9191 -0.3939
vn -0.0000 0.3939 0.9191
vn -0.0000 -0.3827 0.9239
vn -0.0000 -0.9239 0.3827
vn -0.0000 0.3827 0.9239
vn -0.0000 0.9239 0.3827
vn -0.0000 -0.9239 -0.3827
vn -0.0000 -0.3827 -0.9239
vn -0.0000 0.9239 -0.3827
vn -0.0000 0.3827 -0.9239
vn -0.0000 -0.3939 -0.9191
vn -0.0000 0.9191 0.3939
vn -0.0000 -0.8654 -0.5010
vn -0.0000 0.5010 0.8654
vn -0.0000 -0.7071 0.7071
vn -0.0000 0.7071 0.7071
vn -0.0000 -0.0000 1.0000
vn -0.0000 1.0000 -0.0000
vn -0.0000 0.7071 -0.7071
vn -0.0000 -1.0000 -0.0000
vn -0.0000 -0.7071 -0.7071
vn -0.0000 -0.0000 -1.0000
vt 0.108068 0.242000
vt 0.091339 0.241210
vt 0.103460 0.241990
vt 0.100519 0.241210
vt 0.103478 0.242000
vt 0.103460 0.232810
vt 0.103478 0.242000
vt 0.100519 0.241210
vt 0.108050 0.241990
vt 0.091339 0.241210
vt 0.108068 0.242000
vt 0.108050 0.232810
vt 0.091338 0.176943
vt 0.108068 0.175839
vt 0.103488 0.175919
vt 0.100509 0.176878
vt 0.100509 0.176878
vt 0.103488 0.175919
vt 0.108068 0.175839
vt 0.091338 0.176943
vt 0.103579 0.233560
vt 0.103478 0.233761
vt 0.108067 0.233761
vt 0.088279 0.233560
vt 0.049449 0.324219
vt 0.043909 0.324219
vt 0.047551 0.319637
vt 0.043909 0.319637
vt 0.043909 0.328801
vt 0.047551 0.328801
vt 0.043909 0.328801
vt 0.042969 0.317739
vt 0.043909 0.324219
vt 0.038387 0.319637
vt 0.043909 0.319637
vt 0.036489 0.324219
vt 0.043909 0.324219
vt 0.042969 0.330699
vt 0.043909 0.324219
vt 0.038387 0.328801
vt 0.043909 0.319637
vt 0.043909 0.328801
vt 0.045925 0.324219
vt 0.045925 0.319637
vt 0.045925 0.328801
vt 0.045925 0.328801
vt 0.045925 0.324219
vt 0.045925 0.319637
vt 0.045925 0.324219
vt 0.045925 0.324219
vt 0.045925 0.319637
vt 0.045925 0.328801
vt 0.047289 0.324219
vt 0.040453 0.324219
vt 0.046023 0.321164
vt 0.040453 0.321164
vt 0.040453 0.327273
vt 0.046023 0.327273
vt 0.040453 0.327273
vt 0.042969 0.319899
vt 0.040453 0.324219
vt 0.039914 0.321164
vt 0.040453 0.321164
vt 0.038649 0.324219
vt 0.040453 0.324219
vt 0.042969 0.328539
vt 0.040453 0.324219
vt 0.039914 0.327273
vt 0.040453 0.321164
vt 0.040453 0.327273
vt 0.047289 0.324219
vt 0.043909 0.324219
vt 0.046023 0.321164
vt 0.043909 0.321164
vt 0.043909 0.327273
vt 0.046023 0.327273
vt 0.043909 0.327273
vt 0.042969 0.319899
vt 0.043909 0.324219
vt 0.039914 0.321164
vt 0.043909 0.321164
vt 0.042969 0.328539
vt 0.043909 0.324219
vt 0.038649 0.324219
vt 0.043909 0.324219
vt 0.039914 0.327273
vt 0.043909 0.321164
vt 0.043909 0.327273
vt 0.049449 0.324219
vt 0.043909 0.324219
vt 0.047551 0.319637
vt 0.043909 0.319637
vt 0.043909 0.328801
vt 0.047551 0.328801
vt 0.043909 0.328801
vt 0.042969 0.317739
vt 0.043909 0.324219
vt 0.038387 0.319637
vt 0.043909 0.319637
vt 0.036489 0.324219
vt 0.043909 0.324219
vt 0.042969 0.330699
vt 0.043909 0.324219
vt 0.038387 0.328801
vt 0.043909 0.319637
vt 0.043909 0.328801
vt 0.045925 0.324219
vt 0.045925 0.319637
vt 0.045925 0.328801
vt 0.045925 0.328801
vt 0.045925 0.324219
vt 0.045925 0.319637
vt 0.045925 0.324219
vt 0.045925 0.324219
vt 0.045925 0.319637
vt 0.045925 0.328801
vt 0.047289 0.324219
vt 0.040453 0.324219
vt 0.046023 0.321164
vt 0.040453 0.321164
vt 0.040453 0.327273
vt 0.046023 0.327273
vt 0.040453 0.327273
vt 0.042969 0.319899
vt 0.040453 0.324219
vt 0.039914 0.321164
vt 0.040453 0.321164
vt 0.038649 0.324219
vt 0.040453 0.324219
vt 0.042969 0.328539
vt 0.040453 0.324219
vt 0.039914 0.327273
vt 0.040453 0.321164
vt 0.040453 0.327273
vt 0.047289 0.324219
vt 0.043909 0.324219
vt 0.046023 0.321164
vt 0.043909 0.321164
vt 0.043909 0.327273
vt 0.046023 0.327273
vt 0.043909 0.327273
vt 0.042969 0.319899
vt 0.043909 0.324219
vt 0.039914 0.321164
vt 0.043909 0.321164
vt 0.042969 0.328539
vt 0.043909 0.324219
vt 0.038649 0.324219
vt 0.043909 0.324219
vt 0.039914 0.327273
vt 0.043909 0.321164
vt 0.043909 0.327273
vt 0.100519 0.225911
vt 0.103478 0.225522
vt 0.108068 0.225522
vt 0.091339 0.225911
vt 0.091339 0.225911
vt 0.108067 0.225522
vt 0.103478 0.225522
vt 0.100519 0.225911
vt 0.088279 0.233560
vt 0.108067 0.233761
vt 0.103478 0.233761
vt 0.103578 0.233560
vt 0.103578 0.214436
vt 0.103478 0.213646
vt 0.108068 0.213646
vt 0.088279 0.214436
vt 0.088279 0.214436
vt 0.108067 0.213646
vt 0.103478 0.213646
vt 0.103579 0.214436
vt 0.108068 0.242000
vt 0.091339 0.241210
vt 0.103460 0.241990
vt 0.100519 0.241210
vt 0.103478 0.242000
vt 0.103460 0.232810
vt 0.103478 0.242000
vt 0.100519 0.241210
vt 0.108050 0.241990
vt 0.091339 0.241210
vt 0.108068 0.242000
vt 0.108050 0.232810
vt 0.091338 0.176943
vt 0.108068 0.175839
vt 0.103488 0.175919
vt 0.100509 0.176878
vt 0.100509 0.176878
vt 0.103488 0.175919
vt 0.108068 0.175839
vt 0.091338 0.176943
vt 0.103579 0.233560
vt 0.103478 0.233761
vt 0.108067 0.233761
vt 0.088279 0.233560
vt 0.100519 0.225911
vt 0.103478 0.225522
vt 0.108068 0.225522
vt 0.091339 0.225911
vt 0.091339 0.225911
vt 0.108067 0.225522
vt 0.103478 0.225522
vt 0.100519 0.225911
vt 0.088279 0.233560
vt 0.108067 0.233761
vt 0.103478 0.233761
vt 0.103578 0.233560
vt 0.103578 0.214436
vt 0.103478 0.213646
vt 0.108068 0.213646
vt 0.088279 0.214436
vt 0.088279 0.214436
vt 0.108067 0.213646
vt 0.103478 0.213646
vt 0.103579 0.214436
vt 0.046143 0.164424
vt 0.029297 0.132706
vt 0.041016 0.132706
vt 0.051530 0.164424
vt 0.035156 0.132706
vt 0.042334 0.168233
vt 0.035156 0.132706
vt 0.055340 0.168233
vt 0.041016 0.132706
vt 0.029297 0.132706
vt 0.055340 0.173620
vt 0.035156 0.132706
vt 0.051530 0.177429
vt 0.041016 0.132706
vt 0.029297 0.132706
vt 0.042334 0.173620
vt 0.029297 0.132706
vt 0.041016 0.132706
vt 0.046143 0.177429
vt 0.035156 0.132706
vt 0.046140 0.164424
vt 0.029297 0.191513
vt 0.041016 0.191513
vt 0.042331 0.168233
vt 0.035156 0.191513
vt 0.051527 0.164424
vt 0.035156 0.191513
vt 0.042331 0.173620
vt 0.041016 0.191513
vt 0.029297 0.191513
vt 0.046140 0.177429
vt 0.035156 0.191513
vt 0.055336 0.168233
vt 0.029297 0.191513
vt 0.041016 0.191513
vt 0.051527 0.177429
vt 0.041016 0.191513
vt 0.029297 0.191513
vt 0.055336 0.173620
vt 0.035156 0.191513
vt 0.103511 0.187941
vt 0.103547 0.188534
vt 0.103523 0.188422
vt 0.108073 0.187791
vt 0.108084 0.188197
vt 0.088265 0.188708
vt 0.108078 0.188370
vt 0.088271 0.189566
vt 0.088266 0.189448
vt 0.108083 0.188863
vt 0.103545 0.189370
vt 0.103507 0.188527
vt 0.103532 0.189191
vt 0.103511 0.187941
vt 0.103547 0.188534
vt 0.103523 0.188422
vt 0.108073 0.187791
vt 0.108084 0.188197
vt 0.088265 0.188708
vt 0.108078 0.188370
vt 0.088271 0.189566
vt 0.088266 0.189448
vt 0.108083 0.188863
vt 0.103545 0.189370
vt 0.103507 0.188527
vt 0.103532 0.189191
vt 0.133094 0.277344
vt 0.111101 0.277344
vt 0.129579 0.268858
vt 0.111101 0.268858
vt 0.111101 0.285829
vt 0.129579 0.285829
vt 0.111101 0.285829
vt 0.121094 0.265344
vt 0.111101 0.277344
vt 0.112608 0.268858
vt 0.111101 0.268858
vt 0.109094 0.277344
vt 0.111101 0.277344
vt 0.121094 0.289344
vt 0.111101 0.277344
vt 0.112608 0.285829
vt 0.111101 0.268858
vt 0.111101 0.285829
vt 0.126567 0.277344
vt 0.126567 0.268858
vt 0.126567 0.285829
vt 0.126567 0.285829
vt 0.126567 0.277344
vt 0.126567 0.268858
vt 0.126567 0.277344
vt 0.126567 0.277344
vt 0.126567 0.268858
vt 0.126567 0.285829
vt 0.064641 0.277344
vt 0.053920 0.292969
vt 0.062297 0.271687
vt 0.053920 0.287312
vt 0.053919 0.298626
vt 0.062297 0.283001
vt 0.053919 0.298626
vt 0.056641 0.269344
vt 0.053919 0.292969
vt 0.050984 0.271687
vt 0.053919 0.287312
vt 0.048641 0.277344
vt 0.053919 0.292969
vt 0.056641 0.285344
vt 0.053919 0.292969
vt 0.050984 0.283001
vt 0.053919 0.287312
vt 0.053919 0.298626
vt 0.064641 0.277344
vt 0.060320 0.292969
vt 0.062297 0.271687
vt 0.060320 0.287312
vt 0.060320 0.298626
vt 0.062297 0.283001
vt 0.060320 0.298626
vt 0.056641 0.269344
vt 0.060320 0.292969
vt 0.050984 0.271687
vt 0.060320 0.287312
vt 0.056641 0.285344
vt 0.060320 0.292969
vt 0.048641 0.277344
vt 0.060320 0.292969
vt 0.050984 0.283001
vt 0.060320 0.287312
vt 0.060320 0.298626
vt 0.133094 0.277344
vt 0.111101 0.277344
vt 0.129579 0.268858
vt 0.111101 0.268858
vt 0.111101 0.285829
vt 0.129579 0.285829
vt 0.111101 0.285829
vt 0.121094 0.265344
vt 0.111101 0.277344
vt 0.112608 0.268858
vt 0.111101 0.268858
vt 0.109094 0.277344
vt 0.111101 0.277344
vt 0.121094 0.289344
vt 0.111101 0.277344
vt 0.112608 0.285829
vt 0.111101 0.268858
vt 0.111101 0.285829
vt 0.126567 0.277344
vt 0.126567 0.268858
vt 0.126567 0.285829
vt 0.126567 0.285829
vt 0.126567 0.277344
vt 0.126567 0.268858
vt 0.126567 0.277344
vt 0.126567 0.277344
vt 0.126567 0.268858
vt 0.126567 0.285829
vt 0.064641 0.277344
vt 0.053919 0.292969
vt 0.062297 0.271687
vt 0.053919 0.287312
vt 0.053919 0.298626
vt 0.062297 0.283001
vt 0.053919 0.298626
vt 0.056641 0.269344
vt 0.053919 0.292969
vt 0.050984 0.271687
vt 0.053919 0.287312
vt 0.048641 0.277344
vt 0.053919 0.292969
vt 0.056641 0.285344
vt 0.053919 0.292969
vt 0.050984 0.283001
vt 0.053919 0.287312
vt 0.053919 0.298625
vt 0.064641 0.277344
vt 0.060320 0.292969
vt 0.062297 0.271687
vt 0.060319 0.287312
vt 0.060319 0.298626
vt 0.062297 0.283001
vt 0.060320 0.298626
vt 0.056641 0.269344
vt 0.060320 0.292969
vt 0.050984 0.271687
vt 0.060320 0.287312
vt 0.056641 0.285344
vt 0.060320 0.292969
vt 0.048641 0.277344
vt 0.060320 0.292969
vt 0.050984 0.283001
vt 0.060319 0.287312
vt 0.060319 0.298626
s 1
usemtl electronics_etx_part_1
f 567/1135/55 565/1129/55 450/887/55 452/891/55
f 565/1130/56 566/1134/56 449/885/56 450/888/56
f 568/1139/57 567/1136/57 452/892/57 451/889/57
f 566/1132/58 568/1140/58 451/890/58 449/886/58
f 445/873/59 447/879/59 524/1035/59 454/895/59
f 447/880/57 448/882/57 523/1033/57 524/1036/57
f 446/876/56 445/874/56 454/896/56 453/893/56
f 448/883/60 446/877/60 453/894/60 523/1034/60
f 461/910/57 457/902/57 455/897/57 456/899/57 458/904/57 459/906/57 460/908/57 462/912/57
f 468/921/61 461/911/61 462/913/61 470/923/61
f 470/924/62 462/914/62 460/909/62 469/922/62
f 461/911/63 468/921/63 465/918/63 457/903/63
f 457/903/64 465/918/64 463/915/64 455/898/64
f 469/922/65 460/909/65 459/907/65 467/920/65
f 467/920/66 459/907/66 458/905/66 466/919/66
f 455/898/67 463/915/67 464/916/67 456/900/67
f 456/901/68 464/917/68 466/919/68 458/905/68
f 479/943/56 481/948/56 484/954/56 486/958/56 485/956/56 483/952/56 482/950/56 480/945/56
f 477/938/57 473/930/57 471/925/57 472/927/57 474/932/57 475/934/57 476/936/57 478/940/57
f 484/955/61 477/939/61 478/941/61 486/959/61
f 486/960/62 478/942/62 476/937/62 485/957/62
f 477/939/63 484/955/63 481/949/63 473/931/63
f 473/931/64 481/949/64 479/944/64 471/926/64
f 485/957/65 476/937/65 475/935/65 483/953/65
f 483/953/66 475/935/66 474/933/66 482/951/66
f 471/926/67 479/944/67 480/946/67 472/928/67
f 472/929/68 480/947/68 482/951/68 474/933/68
f 493/974/56 489/966/56 487/961/56 488/963/56 490/968/56 491/970/56 492/972/56 494/976/56
f 500/985/62 493/975/62 494/977/62 502/987/62
f 502/988/61 494/978/61 492/973/61 501/986/61
f 493/975/65 500/985/65 497/982/65 489/967/65
f 489/967/66 497/982/66 495/979/66 487/962/66
f 501/986/63 492/973/63 491/971/63 499/984/63
f 499/984/64 491/971/64 490/969/64 498/983/64
f 487/962/68 495/979/68 496/980/68 488/964/68
f 488/965/67 496/981/67 498/983/67 490/969/67
f 511/1007/57 513/1012/57 516/1018/57 518/1022/57 517/1020/57 515/1016/57 514/1014/57 512/1009/57
f 509/1002/56 505/994/56 503/989/56 504/991/56 506/996/56 507/998/56 508/1000/56 510/1004/56
f 516/1019/62 509/1003/62 510/1005/62 518/1023/62
f 518/1024/61 510/1006/61 508/1001/61 517/1021/61
f 509/1003/65 516/1019/65 513/1013/65 505/995/65
f 505/995/66 513/1013/66 511/1008/66 503/990/66
f 517/1021/63 508/1001/63 507/999/63 515/1017/63
f 515/1017/64 507/999/64 506/997/64 514/1015/64
f 503/990/68 511/1008/68 512/1010/68 504/992/68
f 504/993/67 512/1011/67 514/1015/67 506/997/67
f 454/895/69 524/1035/69 522/1031/69 520/1027/69
f 524/1036/57 523/1033/57 521/1029/57 522/1032/57
f 453/893/56 454/896/56 520/1028/56 519/1025/56
f 523/1034/70 453/894/70 519/1026/70 521/1030/70
f 520/1027/71 522/1031/71 528/1043/71 526/1039/71
f 522/1032/57 521/1029/57 527/1041/57 528/1044/57
f 519/1025/56 520/1028/56 526/1040/56 525/1037/56
f 521/1030/72 519/1026/72 525/1038/72 527/1042/72
f 445/875/73 446/878/73 448/884/73 447/881/73
f 571/1148/55 569/1142/55 534/1059/55 536/1063/55
f 569/1143/56 570/1147/56 533/1057/56 534/1060/56
f 572/1152/57 571/1149/57 536/1064/57 535/1061/57
f 570/1145/58 572/1153/58 535/1062/58 533/1058/58
f 529/1045/59 531/1051/59 544/1079/59 538/1067/59
f 531/1052/57 532/1054/57 543/1077/57 544/1080/57
f 530/1048/56 529/1046/56 538/1068/56 537/1065/56
f 532/1055/60 530/1049/60 537/1066/60 543/1078/60
f 538/1067/69 544/1079/69 542/1075/69 540/1071/69
f 544/1080/57 543/1077/57 541/1073/57 542/1076/57
f 537/1065/56 538/1068/56 540/1072/56 539/1069/56
f 543/1078/70 537/1066/70 539/1070/70 541/1074/70
f 540/1071/71 542/1075/71 548/1087/71 546/1083/71
f 542/1076/57 541/1073/57 547/1085/57 548/1088/57
f 539/1069/56 540/1072/56 546/1084/56 545/1081/56
f 541/1074/72 539/1070/72 545/1082/72 547/1086/72
f 529/1047/73 530/1050/73 532/1056/73 531/1053/73
f 557/1109/56 559/1114/56 562/1121/56 564/1127/56 563/1124/56 561/1119/56 560/1116/56 558/1112/56
f 555/1104/57 551/1094/57 549/1089/57 550/1092/57 552/1096/57 553/1099/57 554/1101/57 556/1107/57
f 562/1122/74 555/1105/74 556/1108/75 564/1128/75
f 564/1128/75 556/1108/75 554/1102/73 563/1125/73
f 555/1106/74 562/1123/74 559/1115/76 551/1095/76
f 551/1095/76 559/1115/76 557/1110/77 549/1090/77
f 563/1126/73 554/1103/73 553/1100/78 561/1120/78
f 561/1120/78 553/1100/78 552/1097/79 560/1117/79
f 549/1091/77 557/1111/77 558/1113/80 550/1093/80
f 550/1093/80 558/1113/80 560/1118/79 552/1098/79
f 526/1039/79 528/1043/79 568/1141/79 566/1133/79
f 528/1044/57 527/1041/57 567/1137/57 568/1141/57
f 525/1037/56 526/1040/56 566/1134/56 565/1131/56
f 527/1042/74 525/1038/74 565/1131/74 567/1138/74
f 546/1083/79 548/1087/79 572/1154/79 570/1146/79
f 548/1088/57 547/1085/57 571/1150/57 572/1154/57
f 545/1081/56 546/1084/56 570/1147/56 569/1144/56
f 547/1086/74 545/1082/74 569/1144/74 571/1151/74
f 579/1168/57 575/1160/57 573/1155/57 574/1157/57 576/1162/57 577/1164/57 578/1166/57 580/1170/57
f 586/1179/61 579/1169/61 580/1171/61 588/1181/61
f 588/1182/62 580/1172/62 578/1167/62 587/1180/62
f 579/1169/63 586/1179/63 583/1176/63 575/1161/63
f 575/1161/64 583/1176/64 581/1173/64 573/1156/64
f 587/1180/65 578/1167/65 577/1165/65 585/1178/65
f 585/1178/66 577/1165/66 576/1163/66 584/1177/66
f 573/1156/67 581/1173/67 582/1174/67 574/1158/67
f 574/1159/68 582/1175/68 584/1177/68 576/1163/68
f 597/1201/56 599/1206/56 602/1212/56 604/1216/56 603/1214/56 601/1210/56 600/1208/56 598/1203/56
f 595/1196/57 591/1188/57 589/1183/57 590/1185/57 592/1190/57 593/1192/57 594/1194/57 596/1198/57
f 602/1213/61 595/1197/61 596/1199/61 604/1217/61
f 604/1218/62 596/1200/62 594/1195/62 603/1215/62
f 595/1197/63 602/1213/63 599/1207/63 591/1189/63
f 591/1189/64 599/1207/64 597/1202/64 589/1184/64
f 603/1215/65 594/1195/65 593/1193/65 601/1211/65
f 601/1211/66 593/1193/66 592/1191/66 600/1209/66
f 589/1184/67 597/1202/67 598/1204/67 590/1186/67
f 590/1187/68 598/1205/68 600/1209/68 592/1191/68
f 611/1232/56 607/1224/56 605/1219/56 606/1221/56 608/1226/56 609/1228/56 610/1230/56 612/1234/56
f 618/1243/62 611/1233/62 612/1235/62 620/1245/62
f 620/1246/61 612/1236/61 610/1231/61 619/1244/61
f 611/1233/65 618/1243/65 615/1240/65 607/1225/65
f 607/1225/66 615/1240/66 613/1237/66 605/1220/66
f 619/1244/63 610/1231/63 609/1229/63 617/1242/63
f 617/1242/64 609/1229/64 608/1227/64 616/1241/64
f 605/1220/68 613/1237/68 614/1238/68 606/1222/68
f 606/1223/67 614/1239/67 616/1241/67 608/1227/67
f 629/1265/57 631/1270/57 634/1276/57 636/1280/57 635/1278/57 633/1274/57 632/1272/57 630/1267/57
f 627/1260/56 623/1252/56 621/1247/56 622/1249/56 624/1254/56 625/1256/56 626/1258/56 628/1262/56
f 634/1277/62 627/1261/62 628/1263/62 636/1281/62
f 636/1282/61 628/1264/61 626/1259/61 635/1279/61
f 627/1261/65 634/1277/65 631/1271/65 623/1253/65
f 623/1253/66 631/1271/66 629/1266/66 621/1248/66
f 635/1279/63 626/1259/63 625/1257/63 633/1275/63
f 633/1275/64 625/1257/64 624/1255/64 632/1273/64
f 621/1248/68 629/1266/68 630/1268/68 622/1250/68
f 622/1251/67 630/1269/67 632/1273/67 624/1255/67
