# Blender 3.4.0
# www.blender.org
mtllib panel_etx_1_1.mtl
o panel_etx_1_1
v 0.084200 -0.009400 0.160000
v 0.141800 0.091400 0.160000
v 0.084200 0.091400 0.160000
v 0.136040 -0.003640 0.166800
v 0.089960 -0.003640 0.166800
v 0.141800 -0.009400 0.160000
v 0.136040 0.085640 0.166800
v 0.089960 0.085640 0.166800
v 0.141800 -0.009400 0.166800
v 0.084200 -0.009400 0.166800
v 0.084200 0.091400 0.166800
v 0.141800 0.091400 0.166800
v 0.136040 -0.003640 0.152400
v 0.089960 -0.003640 0.152400
v 0.089960 0.085640 0.152400
v 0.136040 0.085640 0.152400
v -0.181000 0.183000 0.140000
v 0.185000 0.183000 0.140000
v -0.220000 0.300000 0.000000
v 0.220000 0.300000 0.000000
v -0.172455 0.268473 0.145047
v -0.178690 0.276582 0.145047
v -0.173779 0.258330 0.145047
v -0.188833 0.277907 0.145047
v -0.196942 0.271671 0.145047
v -0.198267 0.261528 0.145047
v -0.181888 0.252095 0.145047
v -0.192031 0.253419 0.145047
v -0.172455 0.268473 0.139701
v -0.178690 0.276582 0.139701
v -0.173779 0.258330 0.139701
v -0.188833 0.277907 0.139701
v -0.196942 0.271671 0.139701
v -0.181888 0.252095 0.139701
v -0.198267 0.261528 0.139701
v -0.192031 0.253419 0.139701
v 0.184364 0.277113 0.145047
v 0.177453 0.269572 0.145047
v 0.194583 0.277560 0.145047
v 0.177899 0.259352 0.145047
v 0.185441 0.252442 0.145047
v 0.195660 0.252888 0.145047
v 0.202125 0.270649 0.145047
v 0.202571 0.260430 0.145047
v 0.184364 0.277113 0.139701
v 0.177453 0.269572 0.139701
v 0.194583 0.277560 0.139701
v 0.177899 0.259352 0.139701
v 0.185441 0.252442 0.139701
v 0.202125 0.270649 0.139701
v 0.195660 0.252888 0.139701
v 0.202571 0.260430 0.139701
v 0.178885 -0.190995 0.125047
v 0.178683 -0.201222 0.125047
v 0.186259 -0.183906 0.125047
v 0.185773 -0.208596 0.125047
v 0.196000 -0.208798 0.125047
v 0.203374 -0.201709 0.125047
v 0.196486 -0.184107 0.125047
v 0.203576 -0.191481 0.125047
v 0.178885 -0.190995 0.119701
v 0.178683 -0.201222 0.119701
v 0.186259 -0.183906 0.119701
v 0.185773 -0.208596 0.119701
v 0.196000 -0.208798 0.119701
v 0.196486 -0.184107 0.119701
v 0.203374 -0.201709 0.119701
v 0.203576 -0.191481 0.119701
v -0.175537 -0.191746 0.125047
v -0.182256 -0.184032 0.125047
v -0.176240 -0.201950 0.125047
v -0.192461 -0.183329 0.125047
v -0.200174 -0.190048 0.125047
v -0.200877 -0.200253 0.125047
v -0.183953 -0.208669 0.125047
v -0.194158 -0.207966 0.125047
v -0.175537 -0.191746 0.119701
v -0.182256 -0.184032 0.119701
v -0.176240 -0.201950 0.119701
v -0.192461 -0.183329 0.119701
v -0.200174 -0.190048 0.119701
v -0.183953 -0.208669 0.119701
v -0.200877 -0.200253 0.119701
v -0.194158 -0.207966 0.119701
v -0.220000 -0.140000 0.140000
v -0.220000 0.300000 0.140000
v 0.220000 -0.140000 0.140000
v 0.220000 0.300000 0.140000
v -0.181000 -0.037000 0.160000
v -0.181000 0.183000 0.160000
v 0.185000 0.183000 0.160000
v -0.220000 -0.300000 0.120000
v 0.220000 -0.300000 0.120000
v -0.220000 -0.300000 0.000000
v 0.220000 -0.300000 0.000000
v -0.220000 -0.140000 0.120000
v 0.220000 -0.140000 0.120000
v -0.181000 -0.037000 0.140000
v 0.185000 -0.037000 0.140000
v 0.185000 -0.037000 0.160000
v -0.195629 -0.097668 0.145047
v -0.198671 -0.107435 0.145047
v -0.186573 -0.092913 0.145047
v -0.193915 -0.116492 0.145047
v -0.184149 -0.119533 0.145047
v -0.175092 -0.114777 0.145047
v -0.176806 -0.095954 0.145047
v -0.172051 -0.105011 0.145047
v -0.195629 -0.097668 0.139701
v -0.198670 -0.107435 0.139701
v -0.186573 -0.092913 0.139701
v -0.193915 -0.116492 0.139701
v -0.184149 -0.119533 0.139701
v -0.176806 -0.095954 0.139701
v -0.175092 -0.114777 0.139701
v -0.172051 -0.105011 0.139701
v 0.196359 -0.095525 0.145047
v 0.186391 -0.093228 0.145047
v 0.201783 -0.104197 0.145047
v 0.177719 -0.098653 0.145047
v 0.175422 -0.108621 0.145047
v 0.180846 -0.117293 0.145047
v 0.199487 -0.114165 0.145047
v 0.190814 -0.119590 0.145047
v 0.196359 -0.095525 0.139701
v 0.186391 -0.093228 0.139701
v 0.201783 -0.104197 0.139701
v 0.177719 -0.098653 0.139701
v 0.175422 -0.108621 0.139701
v 0.199487 -0.114165 0.139701
v 0.180846 -0.117293 0.139701
v 0.190814 -0.119590 0.139701
v 0.089960 -0.003640 0.160000
v 0.089960 0.085640 0.160000
v 0.136040 0.085640 0.160000
v 0.136040 -0.003640 0.160000
v -0.013261 -0.076640 0.140573
v -0.015607 -0.067885 0.140573
v -0.022016 -0.061475 0.140573
v -0.030772 -0.059129 0.140573
v -0.039527 -0.061475 0.140573
v -0.045936 -0.067885 0.140573
v -0.048282 -0.076640 0.140573
v -0.045936 -0.085395 0.140573
v -0.039527 -0.091805 0.140573
v -0.030772 -0.094151 0.140573
v -0.022016 -0.091805 0.140573
v -0.015607 -0.085395 0.140573
v -0.013261 -0.076640 0.146174
v -0.015607 -0.067885 0.146174
v -0.022016 -0.061475 0.146174
v -0.030772 -0.059129 0.146174
v -0.039527 -0.061475 0.146174
v -0.045936 -0.067885 0.146174
v -0.048282 -0.076640 0.146174
v -0.045936 -0.085395 0.146174
v -0.039527 -0.091805 0.146174
v -0.030772 -0.094151 0.146174
v -0.022016 -0.091805 0.146174
v -0.015607 -0.085395 0.146174
v -0.017595 -0.076640 0.146174
v -0.030772 -0.063464 0.146174
v -0.043948 -0.076640 0.146174
v -0.030772 -0.089816 0.146174
v -0.017595 -0.076640 0.152663
v -0.030772 -0.063464 0.152663
v -0.043948 -0.076640 0.152663
v -0.030772 -0.089816 0.152663
v -0.021772 -0.067640 0.146174
v -0.039771 -0.067640 0.146174
v -0.039771 -0.085640 0.146174
v -0.021772 -0.085640 0.146174
v -0.021772 -0.067640 0.152663
v -0.039771 -0.067640 0.152663
v -0.039771 -0.085640 0.152663
v -0.021772 -0.085640 0.152663
v 0.049284 -0.076640 0.140573
v 0.046938 -0.067885 0.140573
v 0.040529 -0.061475 0.140573
v 0.031773 -0.059129 0.140573
v 0.023018 -0.061475 0.140573
v 0.016609 -0.067885 0.140573
v 0.014263 -0.076640 0.140573
v 0.016609 -0.085395 0.140573
v 0.023018 -0.091805 0.140573
v 0.031773 -0.094151 0.140573
v 0.040529 -0.091805 0.140573
v 0.046938 -0.085395 0.140573
v 0.049284 -0.076640 0.146174
v 0.046938 -0.067885 0.146174
v 0.040529 -0.061475 0.146174
v 0.031773 -0.059129 0.146174
v 0.023018 -0.061475 0.146174
v 0.016609 -0.067885 0.146174
v 0.014263 -0.076640 0.146174
v 0.016609 -0.085395 0.146174
v 0.023018 -0.091805 0.146174
v 0.031773 -0.094151 0.146174
v 0.040529 -0.091805 0.146174
v 0.046938 -0.085395 0.146174
v 0.044950 -0.076640 0.146174
v 0.031773 -0.063464 0.146174
v 0.018597 -0.076640 0.146174
v 0.031773 -0.089816 0.146174
v 0.044950 -0.076640 0.152663
v 0.031773 -0.063464 0.152663
v 0.018597 -0.076640 0.152663
v 0.031773 -0.089816 0.152663
v 0.040773 -0.067640 0.146174
v 0.022774 -0.067640 0.146174
v 0.022774 -0.085640 0.146174
v 0.040773 -0.085640 0.146174
v 0.040773 -0.067640 0.152663
v 0.022774 -0.067640 0.152663
v 0.022774 -0.085640 0.152663
v 0.040773 -0.085640 0.152663
v -0.053789 -0.220000 0.148000
v -0.046582 -0.246894 0.148000
v -0.026894 -0.266582 0.148000
v -0.026894 -0.173418 0.148000
v -0.046582 -0.193106 0.148000
v -0.060000 -0.220000 0.120000
v -0.030000 -0.271962 0.120000
v -0.051962 -0.250000 0.120000
v -0.051962 -0.190000 0.120000
v -0.030000 -0.168039 0.120000
v -0.000000 -0.273788 0.148000
v 0.053788 -0.220000 0.148000
v 0.026894 -0.266582 0.148000
v 0.046582 -0.246894 0.148000
v -0.000000 -0.166212 0.148000
v 0.046582 -0.193106 0.148000
v 0.026894 -0.173418 0.148000
v -0.000000 -0.280000 0.120000
v 0.051961 -0.250000 0.120000
v 0.030000 -0.271962 0.120000
v -0.000000 -0.160000 0.120000
v 0.060000 -0.220000 0.120000
v 0.030000 -0.168039 0.120000
v 0.051961 -0.190000 0.120000
v 0.051961 -0.190000 0.148000
v 0.060000 -0.220000 0.148000
v -0.060000 -0.220000 0.148000
v -0.051962 -0.190000 0.148000
v -0.000000 -0.280000 0.148000
v -0.030000 -0.271962 0.148000
v -0.030000 -0.168039 0.148000
v -0.000000 -0.160000 0.148000
v -0.051962 -0.250000 0.148000
v 0.030000 -0.271962 0.148000
v 0.051961 -0.250000 0.148000
v 0.030000 -0.168039 0.148000
v 0.046582 -0.193106 0.136000
v 0.053788 -0.220000 0.136000
v -0.053789 -0.220000 0.136000
v -0.046582 -0.193106 0.136000
v -0.000000 -0.273788 0.136000
v -0.026894 -0.266582 0.136000
v -0.026894 -0.173418 0.136000
v -0.046582 -0.246894 0.136000
v 0.026894 -0.266582 0.136000
v 0.046582 -0.246894 0.136000
v 0.026894 -0.173418 0.136000
v -0.000001 -0.166212 0.136000
v 0.076969 -0.220000 0.142400
v 0.082734 -0.241515 0.142400
v 0.098485 -0.257266 0.142400
v 0.098485 -0.182734 0.142400
v 0.082734 -0.198485 0.142400
v 0.072000 -0.220000 0.120000
v 0.096000 -0.261569 0.120000
v 0.078431 -0.244000 0.120000
v 0.078431 -0.196000 0.120000
v 0.096000 -0.178431 0.120000
v 0.120000 -0.263031 0.142400
v 0.163031 -0.220000 0.142400
v 0.141515 -0.257266 0.142400
v 0.157266 -0.241515 0.142400
v 0.120000 -0.176969 0.142400
v 0.157266 -0.198485 0.142400
v 0.141515 -0.182734 0.142400
v 0.120000 -0.268000 0.120000
v 0.161569 -0.244000 0.120000
v 0.144000 -0.261569 0.120000
v 0.120000 -0.172000 0.120000
v 0.168000 -0.220000 0.120000
v 0.144000 -0.178431 0.120000
v 0.161569 -0.196000 0.120000
v 0.161569 -0.196000 0.142400
v 0.168000 -0.220000 0.142400
v 0.072000 -0.220000 0.142400
v 0.078431 -0.196000 0.142400
v 0.120000 -0.268000 0.142400
v 0.096000 -0.261569 0.142400
v 0.096000 -0.178431 0.142400
v 0.120000 -0.172000 0.142400
v 0.078431 -0.244000 0.142400
v 0.144000 -0.261569 0.142400
v 0.161569 -0.244000 0.142400
v 0.144000 -0.178431 0.142400
v 0.157266 -0.198485 0.132800
v 0.163031 -0.220000 0.132800
v 0.076969 -0.220000 0.132800
v 0.082734 -0.198485 0.132800
v 0.120000 -0.263031 0.132800
v 0.098485 -0.257266 0.132800
v 0.098485 -0.182734 0.132800
v 0.082734 -0.241515 0.132800
v 0.141515 -0.257266 0.132800
v 0.157266 -0.241515 0.132800
v 0.141515 -0.182734 0.132800
v 0.120000 -0.176969 0.132800
v -0.163031 -0.220000 0.142400
v -0.157266 -0.241515 0.142400
v -0.141515 -0.257266 0.142400
v -0.141515 -0.182734 0.142400
v -0.157266 -0.198485 0.142400
v -0.168000 -0.220000 0.120000
v -0.144000 -0.261569 0.120000
v -0.161569 -0.244000 0.120000
v -0.161569 -0.196000 0.120000
v -0.144000 -0.178431 0.120000
v -0.120000 -0.263031 0.142400
v -0.076969 -0.220000 0.142400
v -0.098485 -0.257266 0.142400
v -0.082734 -0.241515 0.142400
v -0.120000 -0.176969 0.142400
v -0.082734 -0.198485 0.142400
v -0.098485 -0.182734 0.142400
v -0.120000 -0.268000 0.120000
v -0.078431 -0.244000 0.120000
v -0.096000 -0.261569 0.120000
v -0.120000 -0.172000 0.120000
v -0.072000 -0.220000 0.120000
v -0.096000 -0.178431 0.120000
v -0.078431 -0.196000 0.120000
v -0.078431 -0.196000 0.142400
v -0.072000 -0.220000 0.142400
v -0.168000 -0.220000 0.142400
v -0.161569 -0.196000 0.142400
v -0.120000 -0.268000 0.142400
v -0.144000 -0.261569 0.142400
v -0.144000 -0.178431 0.142400
v -0.120000 -0.172000 0.142400
v -0.161569 -0.244000 0.142400
v -0.096000 -0.261569 0.142400
v -0.078431 -0.244000 0.142400
v -0.096000 -0.178431 0.142400
v -0.082734 -0.198485 0.132800
v -0.076969 -0.220000 0.132800
v -0.163031 -0.220000 0.132800
v -0.157266 -0.198485 0.132800
v -0.120000 -0.263031 0.132800
v -0.141515 -0.257266 0.132800
v -0.141515 -0.182734 0.132800
v -0.157266 -0.241515 0.132800
v -0.098485 -0.257266 0.132800
v -0.082734 -0.241515 0.132800
v -0.098485 -0.182734 0.132800
v -0.120000 -0.176969 0.132800
vn -0.0000 -1.0000 -0.0000
vn -0.0000 1.0000 -0.0000
vn -1.0000 -0.0000 -0.0000
vn 1.0000 -0.0000 -0.0000
vn -0.0000 -0.0000 1.0000
vn 0.6728 -0.3875 0.6303
vn 0.7497 0.2017 0.6303
vn 0.3875 0.6728 0.6303
vn -0.2017 0.7497 0.6303
vn -0.6728 0.3875 0.6303
vn -0.7497 -0.2017 0.6303
vn -0.3875 -0.6728 0.6303
vn 0.2017 -0.7497 0.6303
vn 0.2598 -0.9657 -0.0000
vn -0.4991 -0.8665 -0.0000
vn -0.9657 -0.2598 -0.0000
vn 0.8665 -0.4991 -0.0000
vn 0.9657 0.2598 -0.0000
vn -0.8665 0.4991 -0.0000
vn -0.2598 0.9657 -0.0000
vn 0.4991 0.8665 -0.0000
vn 0.2655 0.7296 0.6303
vn -0.3281 0.7036 0.6303
vn -0.7296 0.2655 0.6303
vn -0.7036 -0.3281 0.6303
vn -0.2655 -0.7296 0.6303
vn 0.3281 -0.7036 0.6303
vn 0.7296 -0.2655 0.6303
vn 0.7036 0.3281 0.6303
vn 0.9063 0.4226 -0.0000
vn 0.9397 -0.3420 -0.0000
vn 0.4226 -0.9063 -0.0000
vn 0.3420 0.9397 -0.0000
vn -0.4226 0.9063 -0.0000
vn -0.3420 -0.9397 -0.0000
vn -0.9063 -0.4226 -0.0000
vn -0.9397 0.3420 -0.0000
vn -0.2829 0.7230 0.6303
vn -0.7113 0.3112 0.6303
vn -0.7230 -0.2829 0.6303
vn -0.3112 -0.7113 0.6303
vn 0.2829 -0.7230 0.6303
vn 0.7113 -0.3112 0.6303
vn 0.7230 0.2829 0.6303
vn 0.3112 0.7113 0.6303
vn 0.4008 0.9162 -0.0000
vn 0.9312 0.3644 -0.0000
vn 0.9162 -0.4008 -0.0000
vn -0.3644 0.9312 -0.0000
vn -0.9162 0.4008 -0.0000
vn 0.3644 -0.9312 -0.0000
vn -0.4008 -0.9162 -0.0000
vn -0.9312 -0.3644 -0.0000
vn 0.6952 -0.3457 0.6303
vn 0.7360 0.2471 0.6303
vn 0.3457 0.6952 0.6303
vn -0.2471 0.7360 0.6303
vn -0.6952 0.3457 0.6303
vn -0.7360 -0.2471 0.6303
vn -0.3457 -0.6952 0.6303
vn 0.2471 -0.7360 0.6303
vn 0.3183 -0.9480 -0.0000
vn -0.4453 -0.8954 -0.0000
vn -0.9480 -0.3183 -0.0000
vn 0.8954 -0.4453 -0.0000
vn 0.9480 0.3183 -0.0000
vn -0.8954 0.4453 -0.0000
vn -0.3183 0.9480 -0.0000
vn 0.4453 0.8954 -0.0000
vn -0.0704 0.7732 0.6303
vn -0.5965 0.4969 0.6303
vn -0.7732 -0.0704 0.6303
vn -0.4969 -0.5965 0.6303
vn 0.0704 -0.7732 0.6303
vn 0.5965 -0.4969 0.6303
vn 0.7732 0.0704 0.6303
vn 0.4969 0.5965 0.6303
vn 0.6401 0.7683 -0.0000
vn 0.9959 0.0907 -0.0000
vn 0.7683 -0.6401 -0.0000
vn -0.0907 0.9959 -0.0000
vn -0.7683 0.6401 -0.0000
vn 0.0907 -0.9959 -0.0000
vn -0.6401 -0.7683 -0.0000
vn -0.9959 -0.0907 -0.0000
vn 0.7657 0.1285 0.6303
vn 0.4506 0.6323 0.6303
vn -0.1285 0.7657 0.6303
vn -0.6323 0.4506 0.6303
vn -0.7657 -0.1285 0.6303
vn -0.4506 -0.6323 0.6303
vn 0.1285 -0.7657 0.6303
vn 0.6323 -0.4506 0.6303
vn 0.8144 -0.5803 -0.0000
vn 0.1655 -0.9862 -0.0000
vn -0.5803 -0.8144 -0.0000
vn 0.9862 0.1655 -0.0000
vn 0.5803 0.8144 -0.0000
vn -0.9862 -0.1655 -0.0000
vn -0.8144 0.5803 -0.0000
vn -0.1655 0.9862 -0.0000
vn 0.8660 0.5000 -0.0000
vn -0.8660 0.5000 -0.0000
vn -0.5000 -0.8660 -0.0000
vn 0.5000 0.8660 -0.0000
vn 0.8660 -0.5000 -0.0000
vn -0.8660 -0.5000 -0.0000
vn 0.5000 -0.8660 -0.0000
vn -0.5000 0.8660 -0.0000
vn 0.7071 -0.7071 -0.0000
vn -0.7071 0.7071 -0.0000
vn -0.7071 -0.7071 -0.0000
vn 0.7071 0.7071 -0.0000
vt 0.171006 0.206992
vt 0.147197 0.193087
vt 0.171006 0.179564
vt 0.195197 0.193087
vt 0.171006 0.206992
vt 0.195197 0.193087
vt 0.149940 0.189849
vt 0.149940 0.182306
vt 0.167768 0.182306
vt 0.149940 0.204249
vt 0.167768 0.204249
vt 0.149940 0.189849
vt 0.171006 0.179564
vt 0.147197 0.193087
vt 0.192454 0.189849
vt 0.192454 0.182306
vt 0.167768 0.182306
vt 0.192454 0.204249
vt 0.192454 0.189849
vt 0.167768 0.204249
vt 0.167768 0.179564
vt 0.147197 0.189849
vt 0.147197 0.179564
vt 0.167768 0.206992
vt 0.147197 0.189849
vt 0.147197 0.206992
vt 0.167768 0.206992
vt 0.195197 0.189849
vt 0.195197 0.206992
vt 0.167768 0.179564
vt 0.195197 0.189849
vt 0.195197 0.179564
vt 0.149940 0.196706
vt 0.174625 0.182306
vt 0.150391 0.179688
vt 0.174625 0.204249
vt 0.149940 0.196706
vt 0.150391 0.203125
vt 0.192454 0.196706
vt 0.174625 0.204249
vt 0.193359 0.203125
vt 0.192454 0.196706
vt 0.174625 0.182306
vt 0.193359 0.179688
vt 0.519531 0.632812
vt 0.509797 0.941728
vt 0.552734 0.632812
vt 0.685547 0.632812
vt 0.693382 0.941728
vt 0.552734 0.632812
vt 0.490234 0.632812
vt 0.490234 1.000000
vt 0.710938 0.632812
vt 0.490234 1.000000
vt 0.450919 0.220703
vt 0.453549 0.220703
vt 0.448705 0.215357
vt 0.453549 0.215357
vt 0.453549 0.226049
vt 0.448705 0.226049
vt 0.453549 0.226049
vt 0.443359 0.213143
vt 0.453549 0.220703
vt 0.438014 0.215357
vt 0.453549 0.215357
vt 0.435799 0.220703
vt 0.453549 0.220703
vt 0.443359 0.228263
vt 0.453549 0.220703
vt 0.438014 0.226049
vt 0.453549 0.215357
vt 0.453549 0.226049
vt 0.456573 0.220703
vt 0.456573 0.215357
vt 0.456573 0.226049
vt 0.456573 0.226049
vt 0.456573 0.220703
vt 0.456573 0.215357
vt 0.456573 0.220703
vt 0.456573 0.220703
vt 0.456573 0.215357
vt 0.456573 0.226049
vt 0.450919 0.220703
vt 0.453549 0.220703
vt 0.448705 0.215357
vt 0.453549 0.215357
vt 0.453549 0.226049
vt 0.448705 0.226049
vt 0.453549 0.226049
vt 0.443359 0.213143
vt 0.453549 0.220703
vt 0.438014 0.215357
vt 0.453549 0.215357
vt 0.435799 0.220703
vt 0.453549 0.220703
vt 0.443359 0.228263
vt 0.453549 0.220703
vt 0.438014 0.226049
vt 0.453549 0.215357
vt 0.453549 0.226049
vt 0.456573 0.220703
vt 0.456573 0.215357
vt 0.456573 0.226049
vt 0.456573 0.226049
vt 0.456573 0.220703
vt 0.456573 0.215357
vt 0.456573 0.220703
vt 0.456573 0.220703
vt 0.456573 0.215357
vt 0.456573 0.226049
vt 0.450919 0.220703
vt 0.453549 0.220703
vt 0.448705 0.215357
vt 0.453549 0.215357
vt 0.453549 0.226049
vt 0.448705 0.226049
vt 0.453549 0.226049
vt 0.443359 0.213143
vt 0.453549 0.220703
vt 0.438014 0.215357
vt 0.453549 0.215357
vt 0.435799 0.220703
vt 0.453549 0.220703
vt 0.443359 0.228263
vt 0.453549 0.220703
vt 0.438014 0.226049
vt 0.453549 0.215357
vt 0.453549 0.226049
vt 0.456573 0.220703
vt 0.456573 0.215357
vt 0.456573 0.226049
vt 0.456573 0.226049
vt 0.456573 0.220703
vt 0.456573 0.215357
vt 0.456573 0.220703
vt 0.456573 0.220703
vt 0.456573 0.215357
vt 0.456573 0.226049
vt 0.450919 0.220703
vt 0.453549 0.220703
vt 0.448705 0.215357
vt 0.453549 0.215357
vt 0.453549 0.226049
vt 0.448705 0.226049
vt 0.453549 0.226049
vt 0.443359 0.213143
vt 0.453549 0.220703
vt 0.438014 0.215357
vt 0.453549 0.215357
vt 0.435799 0.220703
vt 0.453549 0.220703
vt 0.443359 0.228263
vt 0.453549 0.220703
vt 0.438014 0.226049
vt 0.453549 0.215357
vt 0.453549 0.226049
vt 0.456573 0.220703
vt 0.456573 0.215357
vt 0.456573 0.226049
vt 0.456573 0.226049
vt 0.456573 0.220703
vt 0.456573 0.215357
vt 0.456573 0.220703
vt 0.456573 0.220703
vt 0.456573 0.215357
vt 0.456573 0.226049
vt 0.490234 0.780859
vt 0.501953 0.621094
vt 0.421875 0.780859
vt 0.490234 0.701172
vt 0.490234 1.000000
vt 0.421875 1.000000
vt 0.710938 0.780859
vt 0.701172 0.621094
vt 0.421875 0.780859
vt 0.710938 0.701172
vt 0.710938 1.000000
vt 0.421875 1.000000
vt 0.509797 0.832158
vt 0.652344 0.621094
vt 0.519531 0.621094
vt 0.519531 0.621094
vt 0.509797 0.941729
vt 0.552734 0.621094
vt 0.685547 0.621094
vt 0.693382 0.941728
vt 0.552734 0.621094
vt 0.431641 0.701172
vt 0.490234 0.701172
vt 0.490234 0.691406
vt 0.710938 0.701172
vt 0.710938 0.691406
vt 0.431641 0.701172
vt 0.490234 0.701172
vt 0.490234 0.632812
vt 0.710937 0.632812
vt 0.490234 0.701171
vt 0.501953 0.632812
vt 0.490234 0.780859
vt 0.431641 0.780859
vt 0.701172 0.632812
vt 0.710938 0.780859
vt 0.431641 0.780859
vt 0.509797 0.832158
vt 0.652344 0.632812
vt 0.519531 0.632812
vt 0.693381 0.832158
vt 0.652344 0.632812
vt 0.685547 0.632812
vt 0.693382 0.832158
vt 0.652344 0.621094
vt 0.685547 0.621094
vt 0.450919 0.220703
vt 0.453549 0.220703
vt 0.448705 0.215357
vt 0.453549 0.215357
vt 0.453549 0.226049
vt 0.448705 0.226049
vt 0.453549 0.226049
vt 0.443359 0.213143
vt 0.453549 0.220703
vt 0.438014 0.215357
vt 0.453549 0.215357
vt 0.435799 0.220703
vt 0.453549 0.220703
vt 0.443359 0.228263
vt 0.453549 0.220703
vt 0.438014 0.226049
vt 0.453549 0.215357
vt 0.453549 0.226049
vt 0.456573 0.220703
vt 0.456573 0.215357
vt 0.456573 0.226049
vt 0.456573 0.226049
vt 0.456573 0.220703
vt 0.456573 0.215357
vt 0.456573 0.220703
vt 0.456573 0.220703
vt 0.456573 0.215357
vt 0.456573 0.226049
vt 0.450919 0.220703
vt 0.453549 0.220703
vt 0.448705 0.215357
vt 0.453549 0.215357
vt 0.453549 0.226049
vt 0.448705 0.226049
vt 0.453549 0.226049
vt 0.443359 0.213143
vt 0.453549 0.220703
vt 0.438014 0.215357
vt 0.453549 0.215357
vt 0.435799 0.220703
vt 0.453549 0.220703
vt 0.443359 0.228263
vt 0.453549 0.220703
vt 0.438014 0.226049
vt 0.453549 0.215357
vt 0.453549 0.226049
vt 0.456573 0.220703
vt 0.456573 0.215357
vt 0.456573 0.226049
vt 0.456573 0.226049
vt 0.456573 0.220703
vt 0.456573 0.215357
vt 0.456573 0.220703
vt 0.456573 0.220703
vt 0.456573 0.215357
vt 0.456573 0.226049
vt 0.645710 0.848773
vt 0.645710 0.893239
vt 0.668823 0.893239
vt 0.668823 0.848773
vt 0.301965 0.885327
vt 0.301965 0.891994
vt 0.301965 0.898661
vt 0.301965 0.905327
vt 0.301965 0.911994
vt 0.301965 0.918661
vt 0.301965 0.925327
vt 0.301965 0.931994
vt 0.301965 0.938661
vt 0.301965 0.945327
vt 0.301965 0.865327
vt 0.301965 0.871994
vt 0.301965 0.878661
vt 0.297845 0.885327
vt 0.287464 0.901994
vt 0.290798 0.896220
vt 0.297845 0.891994
vt 0.296571 0.892887
vt 0.297845 0.898661
vt 0.303238 0.892887
vt 0.297845 0.905327
vt 0.309012 0.896220
vt 0.297845 0.911994
vt 0.297845 0.918661
vt 0.312345 0.901994
vt 0.297845 0.925327
vt 0.312345 0.908661
vt 0.309012 0.914434
vt 0.297845 0.931994
vt 0.303238 0.917767
vt 0.297845 0.938661
vt 0.297845 0.945327
vt 0.297845 0.865327
vt 0.296571 0.917767
vt 0.297845 0.871994
vt 0.290798 0.914434
vt 0.297845 0.878661
vt 0.287464 0.908661
vt 0.297519 0.919922
vt 0.297519 0.905327
vt 0.297519 0.890733
vt 0.297519 0.876138
vt 0.297519 0.934516
vt 0.303984 0.896537
vt 0.302291 0.919922
vt 0.308695 0.909407
vt 0.302291 0.905327
vt 0.295825 0.914118
vt 0.302291 0.890733
vt 0.302291 0.876138
vt 0.291114 0.901248
vt 0.302291 0.934516
vt 0.297519 0.912624
vt 0.297519 0.898030
vt 0.297519 0.883435
vt 0.297519 0.927219
vt 0.308695 0.902110
vt 0.302291 0.912624
vt 0.303122 0.914118
vt 0.302291 0.898030
vt 0.291114 0.908545
vt 0.302291 0.883435
vt 0.296687 0.896537
vt 0.302291 0.927219
vt 0.297845 0.925327
vt 0.297845 0.918661
vt 0.297845 0.911994
vt 0.297845 0.905327
vt 0.297845 0.898661
vt 0.297845 0.891994
vt 0.297845 0.885327
vt 0.297845 0.878661
vt 0.297845 0.871994
vt 0.297845 0.865327
vt 0.297845 0.945327
vt 0.297845 0.938661
vt 0.297845 0.931994
vt 0.301965 0.925327
vt 0.290798 0.914434
vt 0.287464 0.908661
vt 0.301965 0.918661
vt 0.287464 0.901994
vt 0.301965 0.911994
vt 0.290798 0.896220
vt 0.301965 0.905327
vt 0.296571 0.892887
vt 0.301965 0.898661
vt 0.301965 0.891994
vt 0.303238 0.892887
vt 0.301965 0.885327
vt 0.309012 0.896220
vt 0.312345 0.901994
vt 0.301965 0.878661
vt 0.312345 0.908660
vt 0.301965 0.871994
vt 0.301965 0.865327
vt 0.301965 0.945327
vt 0.309012 0.914434
vt 0.301965 0.938661
vt 0.303238 0.917767
vt 0.301965 0.931994
vt 0.296571 0.917767
vt 0.297519 0.919922
vt 0.297519 0.905327
vt 0.297519 0.890733
vt 0.297519 0.876138
vt 0.297519 0.934516
vt 0.295825 0.896537
vt 0.302291 0.919922
vt 0.308695 0.901248
vt 0.302291 0.905327
vt 0.303984 0.914118
vt 0.302291 0.890733
vt 0.302291 0.876138
vt 0.291114 0.909407
vt 0.302291 0.934516
vt 0.297519 0.912624
vt 0.297519 0.898030
vt 0.297519 0.883435
vt 0.297519 0.927219
vt 0.303122 0.896537
vt 0.302291 0.912624
vt 0.308695 0.908545
vt 0.302291 0.898030
vt 0.296687 0.914118
vt 0.302291 0.883435
vt 0.291114 0.902110
vt 0.302291 0.927219
vt 0.627477 0.743359
vt 0.638672 0.765625
vt 0.638672 0.750000
vt 0.631344 0.728927
vt 0.638672 0.750000
vt 0.638672 0.765625
vt 0.641909 0.718362
vt 0.638672 0.765625
vt 0.638672 0.750000
vt 0.641909 0.768357
vt 0.638672 0.765625
vt 0.638672 0.750000
vt 0.631344 0.757792
vt 0.638672 0.750000
vt 0.638672 0.765625
vt 0.640299 0.765625
vt 0.640299 0.750000
vt 0.640299 0.765625
vt 0.640299 0.750000
vt 0.640299 0.765625
vt 0.640299 0.750000
vt 0.640299 0.750000
vt 0.640299 0.765625
vt 0.640299 0.750000
vt 0.640299 0.765625
vt 0.656342 0.714495
vt 0.638672 0.750000
vt 0.638672 0.765625
vt 0.685206 0.743359
vt 0.638672 0.750000
vt 0.638672 0.765625
vt 0.638672 0.765625
vt 0.670774 0.718362
vt 0.638672 0.750000
vt 0.638672 0.750000
vt 0.681339 0.728927
vt 0.638672 0.765625
vt 0.656342 0.772224
vt 0.638672 0.765625
vt 0.638672 0.750000
vt 0.681339 0.757792
vt 0.638672 0.750000
vt 0.638672 0.765625
vt 0.670774 0.768357
vt 0.638672 0.765625
vt 0.638672 0.750000
vt 0.640299 0.750000
vt 0.640299 0.765625
vt 0.640299 0.750000
vt 0.640299 0.765625
vt 0.640299 0.750000
vt 0.640299 0.765625
vt 0.640299 0.765625
vt 0.640299 0.750000
vt 0.640299 0.750000
vt 0.640299 0.765625
vt 0.640299 0.765625
vt 0.640299 0.750000
vt 0.640299 0.765625
vt 0.640299 0.750000
vt 0.656250 0.765625
vt 0.656250 0.750000
vt 0.684225 0.759458
vt 0.656250 0.750000
vt 0.656250 0.765625
vt 0.688539 0.743359
vt 0.656250 0.765625
vt 0.656250 0.750000
vt 0.624144 0.743359
vt 0.656250 0.750000
vt 0.656250 0.765625
vt 0.628458 0.759458
vt 0.656250 0.750000
vt 0.656250 0.765625
vt 0.656342 0.711162
vt 0.656250 0.765625
vt 0.656250 0.750000
vt 0.640243 0.715476
vt 0.656250 0.750000
vt 0.656250 0.765625
vt 0.640243 0.771243
vt 0.656250 0.765625
vt 0.656250 0.750000
vt 0.656341 0.775557
vt 0.656250 0.765625
vt 0.656250 0.750000
vt 0.628458 0.727261
vt 0.656250 0.750000
vt 0.656250 0.765625
vt 0.672440 0.715475
vt 0.656250 0.750000
vt 0.656250 0.765625
vt 0.684225 0.727261
vt 0.656250 0.765625
vt 0.656250 0.750000
vt 0.672440 0.771243
vt 0.646484 0.750000
vt 0.646484 0.765625
vt 0.174225 0.765317
vt 0.646484 0.750000
vt 0.646484 0.765625
vt 0.186734 0.718634
vt 0.646484 0.765625
vt 0.646484 0.750000
vt 0.000000 0.718634
vt 0.646484 0.750000
vt 0.646484 0.765625
vt 0.012509 0.765317
vt 0.646484 0.750000
vt 0.646484 0.765625
vt 0.093367 0.625267
vt 0.646484 0.765625
vt 0.646484 0.750000
vt 0.046683 0.637776
vt 0.646484 0.765625
vt 0.646484 0.750000
vt 0.046683 0.799492
vt 0.646484 0.750000
vt 0.646484 0.765625
vt 0.012509 0.671950
vt 0.646484 0.765625
vt 0.646484 0.750000
vt 0.140051 0.637776
vt 0.646484 0.750000
vt 0.646484 0.765625
vt 0.174225 0.671950
vt 0.646484 0.765625
vt 0.646484 0.750000
vt 0.140051 0.799492
vt 0.646484 0.765625
vt 0.646484 0.750000
vt 0.093367 0.812001
vt 0.627477 0.743359
vt 0.638672 0.765625
vt 0.638672 0.750000
vt 0.631344 0.728927
vt 0.638672 0.750000
vt 0.638672 0.765625
vt 0.641909 0.718362
vt 0.638672 0.765625
vt 0.638672 0.750000
vt 0.641909 0.768357
vt 0.638672 0.765625
vt 0.638672 0.750000
vt 0.631344 0.757792
vt 0.638672 0.750000
vt 0.638672 0.765625
vt 0.640299 0.765625
vt 0.640299 0.750000
vt 0.640299 0.765625
vt 0.640299 0.750000
vt 0.640299 0.765625
vt 0.640299 0.750000
vt 0.640299 0.750000
vt 0.640299 0.765625
vt 0.640299 0.750000
vt 0.640299 0.765625
vt 0.656342 0.714495
vt 0.638672 0.750000
vt 0.638672 0.765625
vt 0.685206 0.743359
vt 0.638672 0.750000
vt 0.638672 0.765625
vt 0.638672 0.765625
vt 0.670774 0.718362
vt 0.638672 0.750000
vt 0.638672 0.750000
vt 0.681339 0.728927
vt 0.638672 0.765625
vt 0.656342 0.772224
vt 0.638672 0.765625
vt 0.638672 0.750000
vt 0.681339 0.757792
vt 0.638672 0.750000
vt 0.638672 0.765625
vt 0.670774 0.768357
vt 0.638672 0.765625
vt 0.638672 0.750000
vt 0.640299 0.750000
vt 0.640299 0.765625
vt 0.640299 0.750000
vt 0.640299 0.765625
vt 0.640299 0.750000
vt 0.640299 0.765625
vt 0.640299 0.765625
vt 0.640299 0.750000
vt 0.640299 0.750000
vt 0.640299 0.765625
vt 0.640299 0.765625
vt 0.640299 0.750000
vt 0.640299 0.765625
vt 0.640299 0.750000
vt 0.656250 0.765625
vt 0.656250 0.750000
vt 0.684225 0.759458
vt 0.656250 0.750000
vt 0.656250 0.765625
vt 0.688539 0.743359
vt 0.656250 0.765625
vt 0.656250 0.750000
vt 0.624144 0.743359
vt 0.656250 0.750000
vt 0.656250 0.765625
vt 0.628458 0.759458
vt 0.656250 0.750000
vt 0.656250 0.765625
vt 0.656342 0.711162
vt 0.656250 0.765625
vt 0.656250 0.750000
vt 0.640243 0.715476
vt 0.656250 0.750000
vt 0.656250 0.765625
vt 0.640243 0.771243
vt 0.656250 0.765625
vt 0.656250 0.750000
vt 0.656341 0.775557
vt 0.656250 0.765625
vt 0.656250 0.750000
vt 0.628458 0.727261
vt 0.656250 0.750000
vt 0.656250 0.765625
vt 0.672440 0.715475
vt 0.656250 0.750000
vt 0.656250 0.765625
vt 0.684225 0.727261
vt 0.656250 0.765625
vt 0.656250 0.750000
vt 0.672440 0.771243
vt 0.646484 0.750000
vt 0.646484 0.765625
vt 0.174225 0.765317
vt 0.646484 0.750000
vt 0.646484 0.765625
vt 0.186734 0.718634
vt 0.646484 0.765625
vt 0.646484 0.750000
vt 0.000000 0.718634
vt 0.646484 0.750000
vt 0.646484 0.765625
vt 0.012509 0.765317
vt 0.646484 0.750000
vt 0.646484 0.765625
vt 0.093367 0.625267
vt 0.646484 0.765625
vt 0.646484 0.750000
vt 0.046683 0.637776
vt 0.646484 0.765625
vt 0.646484 0.750000
vt 0.046683 0.799492
vt 0.646484 0.750000
vt 0.646484 0.765625
vt 0.012509 0.671950
vt 0.646484 0.765625
vt 0.646484 0.750000
vt 0.140051 0.637776
vt 0.646484 0.750000
vt 0.646484 0.765625
vt 0.174225 0.671950
vt 0.646484 0.765625
vt 0.646484 0.750000
vt 0.140051 0.799492
vt 0.646484 0.765625
vt 0.646484 0.750000
vt 0.093367 0.812001
vt 0.627477 0.743359
vt 0.638672 0.765625
vt 0.638672 0.750000
vt 0.631344 0.728927
vt 0.638672 0.750000
vt 0.638672 0.765625
vt 0.641909 0.718362
vt 0.638672 0.765625
vt 0.638672 0.750000
vt 0.641909 0.768357
vt 0.638672 0.765625
vt 0.638672 0.750000
vt 0.631344 0.757792
vt 0.638672 0.750000
vt 0.638672 0.765625
vt 0.640299 0.765625
vt 0.640299 0.750000
vt 0.640299 0.765625
vt 0.640299 0.750000
vt 0.640299 0.765625
vt 0.640299 0.750000
vt 0.640299 0.750000
vt 0.640299 0.765625
vt 0.640299 0.750000
vt 0.640299 0.765625
vt 0.656342 0.714495
vt 0.638672 0.750000
vt 0.638672 0.765625
vt 0.685206 0.743359
vt 0.638672 0.750000
vt 0.638672 0.765625
vt 0.638672 0.765625
vt 0.670774 0.718362
vt 0.638672 0.750000
vt 0.638672 0.750000
vt 0.681339 0.728927
vt 0.638672 0.765625
vt 0.656342 0.772224
vt 0.638672 0.765625
vt 0.638672 0.750000
vt 0.681339 0.757792
vt 0.638672 0.750000
vt 0.638672 0.765625
vt 0.670774 0.768357
vt 0.638672 0.765625
vt 0.638672 0.750000
vt 0.640299 0.750000
vt 0.640299 0.765625
vt 0.640299 0.750000
vt 0.640299 0.765625
vt 0.640299 0.750000
vt 0.640299 0.765625
vt 0.640299 0.765625
vt 0.640299 0.750000
vt 0.640299 0.750000
vt 0.640299 0.765625
vt 0.640299 0.765625
vt 0.640299 0.750000
vt 0.640299 0.765625
vt 0.640299 0.750000
vt 0.656250 0.765625
vt 0.656250 0.750000
vt 0.684225 0.759458
vt 0.656250 0.750000
vt 0.656250 0.765625
vt 0.688539 0.743359
vt 0.656250 0.765625
vt 0.656250 0.750000
vt 0.624144 0.743359
vt 0.656250 0.750000
vt 0.656250 0.765625
vt 0.628458 0.759458
vt 0.656250 0.750000
vt 0.656250 0.765625
vt 0.656342 0.711162
vt 0.656250 0.765625
vt 0.656250 0.750000
vt 0.640243 0.715476
vt 0.656250 0.750000
vt 0.656250 0.765625
vt 0.640243 0.771243
vt 0.656250 0.765625
vt 0.656250 0.750000
vt 0.656341 0.775557
vt 0.656250 0.765625
vt 0.656250 0.750000
vt 0.628458 0.727261
vt 0.656250 0.750000
vt 0.656250 0.765625
vt 0.672440 0.715475
vt 0.656250 0.750000
vt 0.656250 0.765625
vt 0.684225 0.727261
vt 0.656250 0.765625
vt 0.656250 0.750000
vt 0.672440 0.771243
vt 0.646484 0.750000
vt 0.646484 0.765625
vt 0.174225 0.765317
vt 0.646484 0.750000
vt 0.646484 0.765625
vt 0.186734 0.718634
vt 0.646484 0.765625
vt 0.646484 0.750000
vt 0.000000 0.718634
vt 0.646484 0.750000
vt 0.646484 0.765625
vt 0.012509 0.765317
vt 0.646484 0.750000
vt 0.646484 0.765625
vt 0.093367 0.625267
vt 0.646484 0.765625
vt 0.646484 0.750000
vt 0.046683 0.637776
vt 0.646484 0.765625
vt 0.646484 0.750000
vt 0.046683 0.799492
vt 0.646484 0.750000
vt 0.646484 0.765625
vt 0.012509 0.671950
vt 0.646484 0.765625
vt 0.646484 0.750000
vt 0.140051 0.637776
vt 0.646484 0.750000
vt 0.646484 0.765625
vt 0.174225 0.671950
vt 0.646484 0.765625
vt 0.646484 0.750000
vt 0.140051 0.799492
vt 0.646484 0.765625
vt 0.646484 0.750000
vt 0.093367 0.812001
s 0
usemtl electronics_etx_part_1
f 9/21/1 10/24/1 1/1/1 6/13/1
f 2/3/2 3/5/2 11/27/2 12/30/2
f 4/7/3 7/15/3 16/42/3 13/33/3
f 6/14/4 2/4/4 12/31/4 9/22/4
f 3/6/3 1/2/3 10/25/3 11/28/3
f 4/8/5 5/10/5 10/26/5 9/23/5
f 8/18/5 7/16/5 12/32/5 11/29/5
f 7/16/5 4/8/5 9/23/5 12/32/5
f 5/10/5 8/18/5 11/29/5 10/26/5
f 5/11/2 4/9/2 13/34/2 14/36/2
f 8/19/4 5/12/4 14/37/4 15/39/4
f 7/17/1 8/20/1 15/40/1 16/43/1
f 13/35/5 16/44/5 15/41/5 14/38/5
s 1
f 23/60/6 21/55/7 22/57/8 24/62/9 25/64/10 26/66/11 28/70/12 27/68/13
f 34/79/14 27/69/13 28/71/12 36/81/15
f 36/82/15 28/72/12 26/67/11 35/80/16
f 27/69/13 34/79/14 31/76/17 23/61/6
f 23/61/6 31/76/17 29/73/18 21/56/7
f 35/80/16 26/67/11 25/65/10 33/78/19
f 33/78/19 25/65/10 24/63/9 32/77/20
f 21/56/7 29/73/18 30/74/21 22/58/8
f 22/59/8 30/75/21 32/77/20 24/63/9
f 39/88/22 37/83/23 38/85/24 40/90/25 41/92/26 42/94/27 44/98/28 43/96/29
f 50/107/30 43/97/29 44/99/28 52/109/31
f 52/110/31 44/100/28 42/95/27 51/108/32
f 43/97/29 50/107/30 47/104/33 39/89/22
f 39/89/22 47/104/33 45/101/34 37/84/23
f 51/108/32 42/95/27 41/93/26 49/106/35
f 49/106/35 41/93/26 40/91/25 48/105/36
f 37/84/23 45/101/34 46/102/37 38/86/24
f 38/87/24 46/103/37 48/105/36 40/91/25
f 55/116/38 53/111/39 54/113/40 56/118/41 57/120/42 58/122/43 60/126/44 59/124/45
f 66/135/46 59/125/45 60/127/44 68/137/47
f 68/138/47 60/128/44 58/123/43 67/136/48
f 59/125/45 66/135/46 63/132/49 55/117/38
f 55/117/38 63/132/49 61/129/50 53/112/39
f 67/136/48 58/123/43 57/121/42 65/134/51
f 65/134/51 57/121/42 56/119/41 64/133/52
f 53/112/39 61/129/50 62/130/53 54/114/40
f 54/115/40 62/131/53 64/133/52 56/119/41
f 71/144/54 69/139/55 70/141/56 72/146/57 73/148/58 74/150/59 76/154/60 75/152/61
f 82/163/62 75/153/61 76/155/60 84/165/63
f 84/166/63 76/156/60 74/151/59 83/164/64
f 75/153/61 82/163/62 79/160/65 71/145/54
f 71/145/54 79/160/65 77/157/66 69/140/55
f 83/164/64 74/151/59 73/149/58 81/162/67
f 81/162/67 73/149/58 72/147/57 80/161/68
f 69/140/55 77/157/66 78/158/69 70/142/56
f 70/143/56 78/159/69 80/161/68 72/147/57
f 103/218/70 101/213/71 102/215/72 104/220/73 105/222/74 106/224/75 108/228/76 107/226/77
f 114/237/78 107/227/77 108/229/76 116/239/79
f 116/240/79 108/230/76 106/225/75 115/238/80
f 107/227/77 114/237/78 111/234/81 103/219/70
f 103/219/70 111/234/81 109/231/82 101/214/71
f 115/238/80 106/225/75 105/223/74 113/236/83
f 113/236/83 105/223/74 104/221/73 112/235/84
f 101/214/71 109/231/82 110/232/85 102/216/72
f 102/217/72 110/233/85 112/235/84 104/221/73
f 119/246/86 117/241/87 118/243/88 120/248/89 121/250/90 122/252/91 124/256/92 123/254/93
f 130/265/94 123/255/93 124/257/92 132/267/95
f 132/268/95 124/258/92 122/253/91 131/266/96
f 123/255/93 130/265/94 127/262/97 119/247/86
f 119/247/86 127/262/97 125/259/98 117/242/87
f 131/266/96 122/253/91 121/251/90 129/264/99
f 129/264/99 121/251/90 120/249/89 128/263/100
f 117/242/87 125/259/98 126/260/101 118/244/88
f 118/245/88 126/261/101 128/263/100 120/249/89
f 150/289/102 149/286/4 137/273/4 138/274/102
f 155/298/3 154/296/103 142/278/103 143/279/3
f 158/304/1 157/303/104 145/281/104 146/282/1
f 152/293/2 151/291/105 139/275/105 140/276/2
f 149/286/4 160/309/106 148/285/106 137/273/4
f 156/301/107 155/298/3 143/279/3 144/280/107
f 159/307/108 158/305/1 146/283/1 147/284/108
f 160/309/106 159/307/108 147/284/108 148/285/106
f 154/296/103 153/295/109 141/277/109 142/278/103
f 149/287/5 150/288/5 151/290/5 152/292/5 153/294/5 154/297/5 155/299/5 156/300/5 157/302/5 158/306/5 159/308/5 160/310/5
f 151/291/105 150/289/102 138/274/102 139/275/105
f 157/303/104 156/301/107 144/280/107 145/281/104
f 153/295/109 152/293/2 140/276/2 141/277/109
f 165/317/4 176/336/110 172/328/110 161/311/4
f 167/321/3 174/332/111 170/326/111 163/313/3
f 168/322/1 175/334/112 171/327/112 164/314/1
f 165/316/5 173/329/5 166/318/5 174/331/5 167/320/5 175/333/5 168/323/5 176/335/5
f 166/319/2 173/330/113 169/325/113 162/312/2
f 166/319/2 162/312/2 170/326/111 174/332/111
f 176/336/110 168/324/1 164/315/1 172/328/110
f 175/334/112 167/321/3 163/313/3 171/327/112
f 173/330/113 165/317/4 161/311/4 169/325/113
f 190/353/102 189/350/4 177/337/4 178/338/102
f 195/362/3 194/360/103 182/342/103 183/343/3
f 198/368/1 197/367/104 185/345/104 186/346/1
f 192/357/2 191/355/105 179/339/105 180/340/2
f 189/350/4 200/373/106 188/349/106 177/337/4
f 196/365/107 195/362/3 183/343/3 184/344/107
f 199/371/108 198/369/1 186/347/1 187/348/108
f 200/373/106 199/371/108 187/348/108 188/349/106
f 194/360/103 193/359/109 181/341/109 182/342/103
f 189/351/5 190/352/5 191/354/5 192/356/5 193/358/5 194/361/5 195/363/5 196/364/5 197/366/5 198/370/5 199/372/5 200/374/5
f 191/355/105 190/353/102 178/338/102 179/339/105
f 197/367/104 196/365/107 184/344/107 185/345/104
f 193/359/109 192/357/2 180/340/2 181/341/109
f 205/381/4 216/400/110 212/392/110 201/375/4
f 207/385/3 214/396/111 210/390/111 203/377/3
f 208/386/1 215/398/112 211/391/112 204/378/1
f 205/380/5 213/393/5 206/382/5 214/395/5 207/384/5 215/397/5 208/387/5 216/399/5
f 206/383/2 213/394/113 209/389/113 202/376/2
f 206/383/2 202/376/2 210/390/111 214/396/111
f 216/400/110 208/388/1 204/379/1 212/392/110
f 215/398/112 207/385/3 203/377/3 211/391/112
f 213/394/113 205/381/4 201/375/4 209/389/113
s 0
usemtl electronics_etx_part_2
f 88/176/2 20/53/2 19/51/2 86/170/2
f 19/52/3 94/194/3 92/188/3 96/200/3
f 18/48/2 17/45/2 90/182/2 91/185/2
f 98/204/5 17/46/5 86/171/5 85/167/5
f 18/49/5 99/207/5 87/173/5 88/177/5
f 99/207/5 98/204/5 85/167/5 87/173/5
f 17/46/5 18/49/5 88/177/5 86/171/5
f 136/272/5 100/210/5 91/186/5 135/271/5
f 135/271/5 91/186/5 90/183/5 89/179/5 100/210/5 136/272/5 133/269/5 134/270/5
f 99/208/4 18/50/4 91/187/4 100/211/4
f 17/47/3 98/205/3 89/180/3 90/184/3
f 85/168/1 96/198/1 97/201/1 87/174/1
f 97/202/5 96/199/5 92/189/5 93/191/5
f 92/190/1 94/195/1 95/196/1 93/192/1
f 99/209/1 100/212/1 89/181/1 98/206/1
f 85/169/3 86/172/3 19/52/3 96/200/3
f 87/175/4 97/203/4 20/54/4 88/178/4
f 93/193/4 95/197/4 20/54/4 97/203/4
s 1
f 229/432/109 230/435/103 262/524/103 261/521/109
f 234/447/1 245/473/1 246/476/104 223/418/104
f 223/419/104 246/477/104 249/485/107 224/420/107
f 224/421/107 249/486/107 243/467/3 222/416/3
f 248/482/2 237/453/2 226/424/109 247/479/109
f 247/480/109 226/425/109 225/422/103 244/470/103
f 244/471/103 225/423/103 222/417/3 243/468/3
f 245/474/1 234/448/1 236/451/108 250/488/108
f 250/489/108 236/452/108 235/449/106 251/491/106
f 251/492/106 235/450/106 238/455/4 242/464/4
f 237/454/2 248/483/2 252/494/105 239/457/105
f 239/458/105 252/495/105 241/461/102 240/459/102
f 240/460/102 241/462/102 242/465/4 238/456/4
f 232/441/5 228/429/5 242/466/5 241/463/5
f 217/401/5 221/413/5 244/472/5 243/469/5
f 227/426/5 219/407/5 246/478/5 245/475/5
f 220/410/5 231/438/5 248/484/5 247/481/5
f 219/407/5 218/404/5 249/487/5 246/478/5
f 218/404/5 217/401/5 243/469/5 249/487/5
f 221/413/5 220/410/5 247/481/5 244/472/5
f 229/433/5 227/426/5 245/475/5 250/490/5
f 230/436/5 229/433/5 250/490/5 251/493/5
f 228/429/5 230/436/5 251/493/5 242/466/5
f 231/438/5 233/444/5 252/496/5 248/484/5
f 233/444/5 232/441/5 241/463/5 252/496/5
f 217/402/4 218/405/102 260/518/102 255/503/4
f 219/408/105 227/427/2 257/509/2 258/512/105
f 230/437/103 228/430/3 254/500/3 262/525/103
f 220/411/108 221/414/106 256/506/106 259/515/108
f 231/439/1 220/412/108 259/516/108 264/530/1
f 233/445/104 231/440/1 264/531/1 263/527/104
f 228/431/3 232/442/107 253/497/107 254/501/3
f 227/428/2 229/434/109 261/522/109 257/510/2
f 218/406/102 219/409/105 258/513/105 260/519/102
f 232/443/107 233/446/104 263/528/104 253/498/107
f 221/415/106 217/403/4 255/504/4 256/507/106
f 257/511/5 261/523/5 262/526/5 254/502/5 253/499/5 263/529/5 264/532/5 259/517/5 256/508/5 255/505/5 260/520/5 258/514/5
f 277/564/109 278/567/103 310/656/103 309/653/109
f 282/579/1 293/605/1 294/608/104 271/550/104
f 271/551/104 294/609/104 297/617/107 272/552/107
f 272/553/107 297/618/107 291/599/3 270/548/3
f 296/614/2 285/585/2 274/556/109 295/611/109
f 295/612/109 274/557/109 273/554/103 292/602/103
f 292/603/103 273/555/103 270/549/3 291/600/3
f 293/606/1 282/580/1 284/583/108 298/620/108
f 298/621/108 284/584/108 283/581/106 299/623/106
f 299/624/106 283/582/106 286/587/4 290/596/4
f 285/586/2 296/615/2 300/626/105 287/589/105
f 287/590/105 300/627/105 289/593/102 288/591/102
f 288/592/102 289/594/102 290/597/4 286/588/4
f 280/573/5 276/561/5 290/598/5 289/595/5
f 265/533/5 269/545/5 292/604/5 291/601/5
f 275/558/5 267/539/5 294/610/5 293/607/5
f 268/542/5 279/570/5 296/616/5 295/613/5
f 267/539/5 266/536/5 297/619/5 294/610/5
f 266/536/5 265/533/5 291/601/5 297/619/5
f 269/545/5 268/542/5 295/613/5 292/604/5
f 277/565/5 275/558/5 293/607/5 298/622/5
f 278/568/5 277/565/5 298/622/5 299/625/5
f 276/561/5 278/568/5 299/625/5 290/598/5
f 279/570/5 281/576/5 300/628/5 296/616/5
f 281/576/5 280/573/5 289/595/5 300/628/5
f 265/534/4 266/537/102 308/650/102 303/635/4
f 267/540/105 275/559/2 305/641/2 306/644/105
f 278/569/103 276/562/3 302/632/3 310/657/103
f 268/543/108 269/546/106 304/638/106 307/647/108
f 279/571/1 268/544/108 307/648/108 312/662/1
f 281/577/104 279/572/1 312/663/1 311/659/104
f 276/563/3 280/574/107 301/629/107 302/633/3
f 275/560/2 277/566/109 309/654/109 305/642/2
f 266/538/102 267/541/105 306/645/105 308/651/102
f 280/575/107 281/578/104 311/660/104 301/630/107
f 269/547/106 265/535/4 303/636/4 304/639/106
f 305/643/5 309/655/5 310/658/5 302/634/5 301/631/5 311/661/5 312/664/5 307/649/5 304/640/5 303/637/5 308/652/5 306/646/5
f 325/696/109 326/699/103 358/788/103 357/785/109
f 330/711/1 341/737/1 342/740/104 319/682/104
f 319/683/104 342/741/104 345/749/107 320/684/107
f 320/685/107 345/750/107 339/731/3 318/680/3
f 344/746/2 333/717/2 322/688/109 343/743/109
f 343/744/109 322/689/109 321/686/103 340/734/103
f 340/735/103 321/687/103 318/681/3 339/732/3
f 341/738/1 330/712/1 332/715/108 346/752/108
f 346/753/108 332/716/108 331/713/106 347/755/106
f 347/756/106 331/714/106 334/719/4 338/728/4
f 333/718/2 344/747/2 348/758/105 335/721/105
f 335/722/105 348/759/105 337/725/102 336/723/102
f 336/724/102 337/726/102 338/729/4 334/720/4
f 328/705/5 324/693/5 338/730/5 337/727/5
f 313/665/5 317/677/5 340/736/5 339/733/5
f 323/690/5 315/671/5 342/742/5 341/739/5
f 316/674/5 327/702/5 344/748/5 343/745/5
f 315/671/5 314/668/5 345/751/5 342/742/5
f 314/668/5 313/665/5 339/733/5 345/751/5
f 317/677/5 316/674/5 343/745/5 340/736/5
f 325/697/5 323/690/5 341/739/5 346/754/5
f 326/700/5 325/697/5 346/754/5 347/757/5
f 324/693/5 326/700/5 347/757/5 338/730/5
f 327/702/5 329/708/5 348/760/5 344/748/5
f 329/708/5 328/705/5 337/727/5 348/760/5
f 313/666/4 314/669/102 356/782/102 351/767/4
f 315/672/105 323/691/2 353/773/2 354/776/105
f 326/701/103 324/694/3 350/764/3 358/789/103
f 316/675/108 317/678/106 352/770/106 355/779/108
f 327/703/1 316/676/108 355/780/108 360/794/1
f 329/709/104 327/704/1 360/795/1 359/791/104
f 324/695/3 328/706/107 349/761/107 350/765/3
f 323/692/2 325/698/109 357/786/109 353/774/2
f 314/670/102 315/673/105 354/777/105 356/783/102
f 328/707/107 329/710/104 359/792/104 349/762/107
f 317/679/106 313/667/4 351/768/4 352/771/106
f 353/775/5 357/787/5 358/790/5 350/766/5 349/763/5 359/793/5 360/796/5 355/781/5 352/772/5 351/769/5 356/784/5 354/778/5
o panel_etx_1_1_button_child
v 0.134601 0.012463 0.186627
v 0.091401 0.012463 0.186627
v 0.134601 -0.002592 0.163826
v 0.091401 -0.002592 0.163826
v 0.134601 0.079227 0.168737
v 0.091401 0.079227 0.168737
v 0.134601 0.080864 0.141464
v 0.091401 0.080864 0.141464
v 0.134601 0.039136 0.152645
v 0.091401 0.039136 0.152645
v 0.134601 0.043609 0.169337
v 0.091401 0.043609 0.169337
vn -0.0000 -0.8345 0.5510
vn -0.0000 0.9982 0.0599
vn -0.0000 0.4854 0.8743
vn 1.0000 -0.0000 -0.0000
vn -1.0000 -0.0000 -0.0000
vn -0.0000 0.0168 0.9999
vt 0.087891 0.359375
vt 0.121094 0.361328
vt 0.091720 0.357214
vt 0.087891 0.339844
vt 0.121094 0.341797
vt 0.091716 0.357135
vt 0.099609 0.359375
vt 0.087776 0.346288
vt 0.099609 0.339844
vt 0.087778 0.346319
vt 0.087891 0.359375
vt 0.123801 0.357214
vt 0.136719 0.361328
vt 0.087891 0.339844
vt 0.123805 0.357135
vt 0.136719 0.341797
vt 0.099609 0.359375
vt 0.127745 0.346288
vt 0.099609 0.339844
vt 0.127743 0.346319
vt 0.107778 0.346322
vt 0.107741 0.346356
vt 0.136719 0.361328
vt 0.107733 0.353457
vt 0.121094 0.361328
vt 0.136719 0.341797
vt 0.107791 0.353404
vt 0.121094 0.341797
s 0
usemtl electronics_etx_part_1
f 361/797/114 362/800/114 364/805/114 363/803/114
f 367/813/115 368/815/115 366/810/115 365/807/115
f 371/819/116 372/822/116 362/801/116 361/798/116
f 369/817/117 367/814/117 365/808/117 371/820/117
f 370/818/118 364/806/118 362/802/118 372/823/118
f 368/816/118 370/818/118 372/823/118 366/811/118
f 363/804/117 369/817/117 371/820/117 361/799/117
f 365/809/119 366/812/119 372/824/119 371/821/119
o panel_etx_1_1_switch_child_1
v -0.022682 -0.079333 0.148288
v -0.030771 -0.072327 0.144243
v -0.038860 -0.079333 0.148288
v -0.030771 -0.086338 0.152333
v -0.022682 -0.073645 0.158140
v -0.030771 -0.066639 0.154095
v -0.038860 -0.073645 0.158140
v -0.030771 -0.080650 0.162185
v -0.025246 -0.074548 0.145526
v -0.036296 -0.074548 0.145526
v -0.036296 -0.084118 0.151051
v -0.025246 -0.084118 0.151051
v -0.025246 -0.068860 0.155377
v -0.036296 -0.068860 0.155377
v -0.036296 -0.078430 0.160903
v -0.025246 -0.078430 0.160903
v -0.027084 -0.076838 0.159983
v -0.027084 -0.070452 0.156297
v -0.034458 -0.070452 0.156297
v -0.034458 -0.076838 0.159983
v -0.025444 -0.066944 0.180401
v -0.025444 -0.057716 0.175074
v -0.036099 -0.057716 0.175074
v -0.036099 -0.066944 0.180401
v -0.027504 -0.061714 0.185340
v -0.027504 -0.056055 0.182072
v -0.034038 -0.056055 0.182072
v -0.034038 -0.061714 0.185340
vn 0.9791 0.1016 0.1759
vn 0.7071 -0.6124 0.3536
vn 0.9791 -0.1016 -0.1759
vn -0.0000 0.5000 0.8660
vn -0.7071 0.6124 -0.3536
vn -0.0000 0.9495 -0.3136
vn -0.0000 0.7464 -0.6655
vn -0.9791 0.1016 0.1759
vn -0.9791 -0.1016 -0.1759
vn -0.7071 -0.6124 0.3536
vn -0.0000 -0.7464 0.6655
vn -0.0000 -0.9495 0.3136
vn 0.7071 0.6124 -0.3536
vn -0.0010 0.8264 -0.5631
vn -0.0000 0.8276 -0.5613
vn 0.0010 0.8264 -0.5631
vn 0.0012 -0.6850 0.7285
vn -0.0018 -0.6862 0.7274
vn -0.1389 -0.7506 0.6460
vn 0.1724 -0.6778 0.7148
vn -0.0885 0.6207 0.7791
vn -0.0915 0.3661 0.9261
vn 0.1470 0.4146 0.8981
vn 0.0018 0.6418 0.7669
vn 0.0023 -0.9003 0.4353
vn -0.0000 -0.8999 0.4361
vn -0.0007 -0.9006 0.4346
vn -0.9914 0.0221 0.1291
vn -0.9735 -0.0278 0.2269
vn -0.9575 0.1431 0.2503
vn -0.9579 0.1455 0.2474
vn -0.9973 -0.0385 -0.0622
vn -0.9974 -0.0362 -0.0626
vn -0.9972 -0.0364 -0.0650
vn 0.9900 0.1156 0.0802
vn 0.9576 0.1448 0.2489
vn 0.9575 0.1431 0.2503
vn 0.9896 0.0090 0.1436
vn 0.0022 0.9731 -0.2304
vn 0.0620 0.9213 -0.3840
vn -0.1362 0.9340 -0.3303
vn -0.0023 0.9731 -0.2304
vn 0.9973 -0.0350 -0.0640
vn 0.9974 -0.0362 -0.0626
vn 0.9973 -0.0385 -0.0622
vt 0.104223 0.248345
vt 0.110671 0.248345
vt 0.117120 0.248345
vt 0.123569 0.248345
vt 0.097774 0.248345
vt 0.102131 0.241285
vt 0.104223 0.254367
vt 0.108162 0.241824
vt 0.110671 0.254367
vt 0.107624 0.247855
vt 0.117120 0.254367
vt 0.101592 0.247317
vt 0.123569 0.254367
vt 0.097774 0.254367
vt 0.107447 0.248345
vt 0.113896 0.248345
vt 0.120344 0.248345
vt 0.100999 0.248345
vt 0.105245 0.240451
vt 0.107447 0.254367
vt 0.108997 0.244938
vt 0.113896 0.254367
vt 0.104509 0.248690
vt 0.120344 0.254367
vt 0.100757 0.244202
vt 0.100999 0.254367
vt 0.196042 0.241145
vt 0.194853 0.240934
vt 0.190733 0.240483
vt 0.191940 0.240510
vt 0.187789 0.240510
vt 0.186593 0.240668
vt 0.198856 0.242010
vt 0.183687 0.241145
vt 0.154366 0.232174
vt 0.198791 0.229432
vt 0.152232 0.234823
vt 0.197073 0.229127
vt 0.191120 0.228475
vt 0.148544 0.231584
vt 0.145954 0.229456
vt 0.192864 0.228513
vt 0.186865 0.228513
vt 0.151272 0.223068
vt 0.185136 0.228742
vt 0.149139 0.225717
vt 0.157550 0.228434
vt 0.202857 0.230682
vt 0.154960 0.226307
vt 0.180938 0.229432
vt 0.152506 0.229922
vt 0.152682 0.230161
vt 0.152372 0.230901
vt 0.150597 0.229950
vt 0.150817 0.229751
vt 0.149906 0.229584
vt 0.150822 0.227730
vt 0.151133 0.226990
vt 0.150998 0.227968
vt 0.153598 0.228306
vt 0.152907 0.227941
vt 0.152687 0.228139
s 1
usemtl electronics_etx_part_1
f 377/831/120 388/850/121 384/842/121 373/825/122
f 377/830/123 385/843/123 378/832/123 386/845/123 379/834/123 387/847/123 380/836/123 388/849/123
f 386/846/124 378/833/125 374/826/126 382/840/124
f 379/835/127 386/846/124 382/840/124 375/827/128
f 387/848/129 379/835/127 375/827/128 383/841/129
f 380/837/130 387/848/129 383/841/129 376/828/131
f 378/833/125 385/844/132 381/839/132 374/826/126
f 380/838/130 376/829/131 384/842/121 388/850/121
f 385/844/132 377/831/120 373/825/122 381/839/132
f 394/863/133 390/853/134 391/855/134 395/867/135
f 396/871/136 393/859/137 397/875/138 400/884/139
f 397/876/140 398/878/141 399/881/142 400/885/143
f 396/872/144 392/857/145 389/851/145 393/860/146
f 400/886/147 399/882/148 395/868/149 396/873/150
f 395/869/151 391/856/152 392/858/152 396/874/153
f 397/877/154 393/861/155 394/864/156 398/879/157
f 395/870/158 399/883/159 398/880/160 394/865/161
f 393/862/162 389/852/163 390/854/163 394/866/164
o panel_etx_1_1_switch_child_2
v 0.039863 -0.079333 0.148288
v 0.031774 -0.072327 0.144243
v 0.023684 -0.079333 0.148288
v 0.031774 -0.086338 0.152333
v 0.039863 -0.073645 0.158140
v 0.031774 -0.066639 0.154095
v 0.023684 -0.073645 0.158140
v 0.031774 -0.080650 0.162185
v 0.037299 -0.074548 0.145526
v 0.026249 -0.074548 0.145526
v 0.026249 -0.084118 0.151051
v 0.037299 -0.084118 0.151051
v 0.037299 -0.068860 0.155377
v 0.026249 -0.068860 0.155377
v 0.026249 -0.078430 0.160903
v 0.037299 -0.078430 0.160903
v 0.035460 -0.076838 0.159983
v 0.035460 -0.070452 0.156297
v 0.028087 -0.070452 0.156297
v 0.028087 -0.076838 0.159983
v 0.037101 -0.066944 0.180401
v 0.037101 -0.057716 0.175074
v 0.026446 -0.057716 0.175074
v 0.026446 -0.066944 0.180401
v 0.035041 -0.061714 0.185340
v 0.035041 -0.056055 0.182072
v 0.028506 -0.056055 0.182072
v 0.028506 -0.061714 0.185340
vn 0.9791 0.1016 0.1759
vn 0.7071 -0.6124 0.3536
vn 0.9791 -0.1016 -0.1759
vn -0.0000 0.5000 0.8660
vn -0.7071 0.6124 -0.3536
vn -0.0000 0.9495 -0.3136
vn -0.0000 0.7464 -0.6655
vn -0.9791 0.1016 0.1759
vn -0.9791 -0.1016 -0.1759
vn -0.7071 -0.6124 0.3536
vn -0.0000 -0.7464 0.6655
vn -0.0000 -0.9495 0.3136
vn 0.7071 0.6124 -0.3536
vn -0.0010 0.8264 -0.5631
vn -0.0000 0.8276 -0.5613
vn 0.0010 0.8264 -0.5631
vn 0.0012 -0.6850 0.7285
vn -0.0018 -0.6862 0.7274
vn -0.1389 -0.7506 0.6460
vn 0.1724 -0.6778 0.7148
vn -0.0885 0.6207 0.7791
vn -0.0915 0.3661 0.9261
vn 0.1470 0.4146 0.8981
vn 0.0018 0.6418 0.7669
vn 0.0023 -0.9003 0.4353
vn -0.0000 -0.8999 0.4361
vn -0.0007 -0.9006 0.4346
vn -0.9914 0.0221 0.1291
vn -0.9735 -0.0278 0.2269
vn -0.9575 0.1431 0.2503
vn -0.9579 0.1455 0.2474
vn -0.9973 -0.0385 -0.0622
vn -0.9974 -0.0362 -0.0626
vn -0.9972 -0.0364 -0.0650
vn 0.9900 0.1156 0.0802
vn 0.9576 0.1448 0.2489
vn 0.9575 0.1431 0.2503
vn 0.9896 0.0090 0.1436
vn 0.0022 0.9731 -0.2304
vn 0.0620 0.9213 -0.3840
vn -0.1362 0.9340 -0.3303
vn -0.0023 0.9731 -0.2304
vn 0.9973 -0.0350 -0.0640
vn 0.9974 -0.0362 -0.0626
vn 0.9973 -0.0385 -0.0622
vt 0.104223 0.248345
vt 0.110671 0.248345
vt 0.117120 0.248345
vt 0.123569 0.248345
vt 0.097774 0.248345
vt 0.102131 0.241285
vt 0.104223 0.254367
vt 0.108162 0.241824
vt 0.110671 0.254367
vt 0.107624 0.247855
vt 0.117120 0.254367
vt 0.101592 0.247317
vt 0.123569 0.254367
vt 0.097774 0.254367
vt 0.107447 0.248345
vt 0.113896 0.248345
vt 0.120344 0.248345
vt 0.100999 0.248345
vt 0.105245 0.240451
vt 0.107447 0.254367
vt 0.108997 0.244938
vt 0.113896 0.254367
vt 0.104509 0.248690
vt 0.120344 0.254367
vt 0.100757 0.244202
vt 0.100999 0.254367
vt 0.196042 0.241145
vt 0.194853 0.240934
vt 0.190733 0.240483
vt 0.191940 0.240510
vt 0.187789 0.240510
vt 0.186593 0.240668
vt 0.198856 0.242010
vt 0.183687 0.241145
vt 0.154366 0.232174
vt 0.198791 0.229432
vt 0.152232 0.234823
vt 0.197073 0.229127
vt 0.191120 0.228475
vt 0.148544 0.231584
vt 0.145954 0.229456
vt 0.192864 0.228513
vt 0.186865 0.228513
vt 0.151272 0.223068
vt 0.185136 0.228742
vt 0.149139 0.225717
vt 0.157550 0.228434
vt 0.202857 0.230682
vt 0.154960 0.226307
vt 0.180938 0.229432
vt 0.152506 0.229922
vt 0.152682 0.230161
vt 0.152372 0.230901
vt 0.150597 0.229950
vt 0.150817 0.229751
vt 0.149906 0.229584
vt 0.150822 0.227730
vt 0.151133 0.226990
vt 0.150998 0.227968
vt 0.153598 0.228306
vt 0.152907 0.227941
vt 0.152687 0.228139
s 1
usemtl electronics_etx_part_1
f 405/893/165 416/912/166 412/904/166 401/887/167
f 405/892/168 413/905/168 406/894/168 414/907/168 407/896/168 415/909/168 408/898/168 416/911/168
f 414/908/169 406/895/170 402/888/171 410/902/169
f 407/897/172 414/908/169 410/902/169 403/889/173
f 415/910/174 407/897/172 403/889/173 411/903/174
f 408/899/175 415/910/174 411/903/174 404/890/176
f 406/895/170 413/906/177 409/901/177 402/888/171
f 408/900/175 404/891/176 412/904/166 416/912/166
f 413/906/177 405/893/165 401/887/167 409/901/177
f 422/925/178 418/915/179 419/917/179 423/929/180
f 424/933/181 421/921/182 425/937/183 428/946/184
f 425/938/185 426/940/186 427/943/187 428/947/188
f 424/934/189 420/919/190 417/913/190 421/922/191
f 428/948/192 427/944/193 423/930/194 424/935/195
f 423/931/196 419/918/197 420/920/197 424/936/198
f 425/939/199 421/923/200 422/926/201 426/941/202
f 423/932/203 427/945/204 426/942/205 422/927/206
f 421/924/207 417/914/208 418/916/208 422/928/209
o panel_etx_1_1_pointer_child_1
v -0.004462 -0.234424 0.136000
v -0.004977 -0.238334 0.136000
v -0.001334 -0.232023 0.136000
v -0.002576 -0.241463 0.136000
v 0.001334 -0.241977 0.136000
v 0.004463 -0.239576 0.136000
v 0.002577 -0.232538 0.136000
v 0.004977 -0.235666 0.136000
v -0.004462 -0.234424 0.141400
v -0.001334 -0.232023 0.141400
v 0.004463 -0.239576 0.141400
v 0.001334 -0.241977 0.141400
v -0.004977 -0.238334 0.141400
v 0.004977 -0.235666 0.141400
v 0.002577 -0.232538 0.141400
v -0.002576 -0.241463 0.141400
v -0.006482 -0.255428 0.138400
v -0.012718 -0.251828 0.138400
v -0.006482 -0.255428 0.139600
v -0.012718 -0.251828 0.139600
v 0.017561 -0.204184 0.138400
v 0.019639 -0.205384 0.138400
v 0.017561 -0.204184 0.139600
v 0.019639 -0.205384 0.139600
vn 0.7934 0.6088 -0.0000
vn -0.0000 -0.0000 1.0000
vn 0.9914 -0.1305 -0.0000
vn 0.6088 -0.7934 -0.0000
vn -0.7934 -0.6088 -0.0000
vn 0.1305 0.9914 -0.0000
vn -0.9914 0.1305 -0.0000
vn -0.6088 0.7934 -0.0000
vn -0.1305 -0.9914 -0.0000
vn -0.8440 0.5364 -0.0000
vn -0.0000 -0.0000 -1.0000
vn 0.8865 -0.4627 -0.0000
vn -0.5000 -0.8660 -0.0000
vn 0.5000 0.8660 -0.0000
vt 0.184572 0.186206
vt 0.185430 0.185848
vt 0.185430 0.188681
vt 0.187500 0.189250
vt 0.189570 0.185848
vt 0.190428 0.186206
vt 0.187500 0.191099
vt 0.189570 0.188681
vt 0.184572 0.186206
vt 0.185430 0.188681
vt 0.190428 0.186206
vt 0.189570 0.185848
vt 0.185430 0.185848
vt 0.189570 0.188681
vt 0.187500 0.191099
vt 0.187500 0.189250
vt 0.189725 0.183054
vt 0.187841 0.183052
vt 0.189620 0.195653
vt 0.187841 0.183052
vt 0.185275 0.183054
vt 0.185380 0.195653
vt 0.186989 0.183052
vt 0.189586 0.183055
vt 0.189620 0.194801
vt 0.186989 0.183052
vt 0.185414 0.183055
vt 0.185381 0.194801
vt 0.187841 0.215064
vt 0.186574 0.215062
vt 0.186389 0.195653
vt 0.188426 0.215062
vt 0.187841 0.215064
vt 0.188611 0.195653
vt 0.186989 0.215064
vt 0.186450 0.215064
vt 0.186389 0.194801
vt 0.186989 0.215064
vt 0.188550 0.215064
vt 0.188611 0.194801
s 0
usemtl electronics_etx_part_1
f 436/956/210 435/955/210 443/963/210 442/962/210
f 444/964/211 440/960/211 439/959/211 442/962/211 443/963/211 438/958/211 437/957/211 441/961/211
f 434/954/212 436/956/212 442/962/212 439/959/212
f 433/953/213 434/954/213 439/959/213 440/960/213
f 430/950/214 432/952/214 444/964/214 441/961/214
f 435/955/215 431/951/215 438/958/215 443/963/215
f 429/949/216 430/950/216 441/961/216 437/957/216
f 431/951/217 429/949/217 437/957/217 438/958/217
f 432/952/218 433/953/218 440/960/218 444/964/218
f 446/968/219 448/974/219 451/983/219 449/977/219
f 445/965/220 446/969/220 449/978/220 450/980/220
f 445/966/221 450/981/221 452/986/221 447/971/221
f 451/984/211 448/975/211 447/972/211 452/987/211
f 445/967/222 447/973/222 448/976/222 446/970/222
f 450/982/223 449/979/223 451/985/223 452/988/223
o panel_etx_1_1_pointer_child_2
v 0.116126 -0.234410 0.133000
v 0.118258 -0.236736 0.133000
v 0.116264 -0.231258 0.133000
v 0.121410 -0.236874 0.133000
v 0.123736 -0.234742 0.133000
v 0.123874 -0.231590 0.133000
v 0.118590 -0.229126 0.133000
v 0.121742 -0.229264 0.133000
v 0.116126 -0.234410 0.137320
v 0.116264 -0.231258 0.137320
v 0.123874 -0.231590 0.137320
v 0.123736 -0.234742 0.137320
v 0.118258 -0.236736 0.137320
v 0.121742 -0.229264 0.137320
v 0.118590 -0.229126 0.137320
v 0.121410 -0.236874 0.137320
v 0.127960 -0.246449 0.134920
v 0.122547 -0.248419 0.134920
v 0.127960 -0.246449 0.135880
v 0.122547 -0.248419 0.135880
v 0.108920 -0.205363 0.134920
v 0.110724 -0.204707 0.134920
v 0.108920 -0.205363 0.135880
v 0.110724 -0.204707 0.135880
vn 0.0436 0.9990 -0.0000
vn -0.0000 -0.0000 1.0000
vn 0.7373 0.6756 -0.0000
vn 0.9990 -0.0436 -0.0000
vn -0.0436 -0.9990 -0.0000
vn -0.6756 0.7373 -0.0000
vn -0.7373 -0.6756 -0.0000
vn -0.9990 0.0436 -0.0000
vn 0.6756 -0.7373 -0.0000
vn -0.9534 -0.3018 -0.0000
vn -0.0000 -0.0000 -1.0000
vn 0.9243 0.3817 -0.0000
vn 0.3420 -0.9397 -0.0000
vn -0.3420 0.9397 -0.0000
vt 0.184572 0.186206
vt 0.185430 0.185848
vt 0.185430 0.188681
vt 0.187500 0.189250
vt 0.189570 0.185848
vt 0.190428 0.186206
vt 0.187500 0.191099
vt 0.189570 0.188681
vt 0.184572 0.186206
vt 0.185430 0.188681
vt 0.190428 0.186206
vt 0.189570 0.185848
vt 0.185430 0.185848
vt 0.189570 0.188681
vt 0.187500 0.191099
vt 0.187500 0.189250
vt 0.189725 0.183054
vt 0.187841 0.183052
vt 0.189620 0.195653
vt 0.187841 0.183052
vt 0.185275 0.183054
vt 0.185380 0.195653
vt 0.186989 0.183052
vt 0.189586 0.183055
vt 0.189620 0.194801
vt 0.186989 0.183052
vt 0.185414 0.183055
vt 0.185381 0.194801
vt 0.187841 0.215064
vt 0.186574 0.215062
vt 0.186389 0.195653
vt 0.188426 0.215062
vt 0.187841 0.215064
vt 0.188611 0.195653
vt 0.186989 0.215064
vt 0.186450 0.215064
vt 0.186389 0.194801
vt 0.186989 0.215064
vt 0.188550 0.215064
vt 0.188611 0.194801
s 0
usemtl electronics_etx_part_1
f 460/996/224 459/995/224 467/1003/224 466/1002/224
f 468/1004/225 464/1000/225 463/999/225 466/1002/225 467/1003/225 462/998/225 461/997/225 465/1001/225
f 458/994/226 460/996/226 466/1002/226 463/999/226
f 457/993/227 458/994/227 463/999/227 464/1000/227
f 454/990/228 456/992/228 468/1004/228 465/1001/228
f 459/995/229 455/991/229 462/998/229 467/1003/229
f 453/989/230 454/990/230 465/1001/230 461/997/230
f 455/991/231 453/989/231 461/997/231 462/998/231
f 456/992/232 457/993/232 464/1000/232 468/1004/232
f 470/1008/233 472/1014/233 475/1023/233 473/1017/233
f 469/1005/234 470/1009/234 473/1018/234 474/1020/234
f 469/1006/235 474/1021/235 476/1026/235 471/1011/235
f 475/1024/225 472/1015/225 471/1012/225 476/1027/225
f 469/1007/236 471/1013/236 472/1016/236 470/1010/236
f 474/1022/237 473/1019/237 475/1025/237 476/1028/237
o panel_etx_1_1_pointer_child
v -0.123158 -0.235650 0.133000
v -0.120359 -0.237106 0.133000
v -0.124106 -0.232641 0.133000
v -0.117350 -0.236158 0.133000
v -0.115893 -0.233359 0.133000
v -0.116842 -0.230350 0.133000
v -0.122649 -0.229842 0.133000
v -0.119640 -0.228893 0.133000
v -0.123158 -0.235650 0.137320
v -0.124106 -0.232641 0.137320
v -0.116842 -0.230350 0.137320
v -0.115893 -0.233359 0.137320
v -0.120359 -0.237106 0.137320
v -0.119640 -0.228893 0.137320
v -0.122649 -0.229842 0.137320
v -0.117350 -0.236158 0.137320
v -0.107920 -0.242915 0.134920
v -0.112333 -0.246618 0.134920
v -0.107920 -0.242915 0.135880
v -0.112333 -0.246618 0.135880
v -0.139864 -0.210820 0.134920
v -0.138393 -0.209586 0.134920
v -0.139864 -0.210820 0.135880
v -0.138393 -0.209586 0.135880
vn -0.3007 0.9537 -0.0000
vn -0.0000 -0.0000 1.0000
vn 0.4617 0.8870 -0.0000
vn 0.9537 0.3007 -0.0000
vn 0.3007 -0.9537 -0.0000
vn -0.8870 0.4617 -0.0000
vn -0.4617 -0.8870 -0.0000
vn -0.9537 -0.3007 -0.0000
vn 0.8870 -0.4617 -0.0000
vn -0.7927 -0.6096 -0.0000
vn -0.0000 -0.0000 -1.0000
vn 0.7380 0.6748 -0.0000
vn 0.6428 -0.7660 -0.0000
vn -0.6428 0.7660 -0.0000
vt 0.184572 0.186206
vt 0.185430 0.185848
vt 0.185430 0.188681
vt 0.187500 0.189250
vt 0.189570 0.185848
vt 0.190428 0.186206
vt 0.187500 0.191099
vt 0.189570 0.188681
vt 0.184572 0.186206
vt 0.185430 0.188681
vt 0.190428 0.186206
vt 0.189570 0.185848
vt 0.185430 0.185848
vt 0.189570 0.188681
vt 0.187500 0.191099
vt 0.187500 0.189250
vt 0.189725 0.183054
vt 0.187841 0.183052
vt 0.189620 0.195653
vt 0.187841 0.183052
vt 0.185275 0.183054
vt 0.185380 0.195653
vt 0.186989 0.183052
vt 0.189586 0.183055
vt 0.189620 0.194801
vt 0.186989 0.183052
vt 0.185414 0.183055
vt 0.185381 0.194801
vt 0.187841 0.215064
vt 0.186574 0.215062
vt 0.186389 0.195653
vt 0.188426 0.215062
vt 0.187841 0.215064
vt 0.188611 0.195653
vt 0.186989 0.215064
vt 0.186450 0.215064
vt 0.186389 0.194801
vt 0.186989 0.215064
vt 0.188550 0.215064
vt 0.188611 0.194801
s 0
usemtl electronics_etx_part_1
f 484/1036/238 483/1035/238 491/1043/238 490/1042/238
f 492/1044/239 488/1040/239 487/1039/239 490/1042/239 491/1043/239 486/1038/239 485/1037/239 489/1041/239
f 482/1034/240 484/1036/240 490/1042/240 487/1039/240
f 481/1033/241 482/1034/241 487/1039/241 488/1040/241
f 478/1030/242 480/1032/242 492/1044/242 489/1041/242
f 483/1035/243 479/1031/243 486/1038/243 491/1043/243
f 477/1029/244 478/1030/244 489/1041/244 485/1037/244
f 479/1031/245 477/1029/245 485/1037/245 486/1038/245
f 480/1032/246 481/1033/246 488/1040/246 492/1044/246
f 494/1048/247 496/1054/247 499/1063/247 497/1057/247
f 493/1045/248 494/1049/248 497/1058/248 498/1060/248
f 493/1046/249 498/1061/249 500/1066/249 495/1051/249
f 499/1064/239 496/1055/239 495/1052/239 500/1067/239
f 493/1047/250 495/1053/250 496/1056/250 494/1050/250
f 498/1062/251 497/1059/251 499/1065/251 500/1068/251
