# Blender 3.4.0
# www.blender.org
mtllib poop_etx_1.mtl
o poop_etx_1
v -0.040933 0.005617 0.007669
v -0.005436 0.004238 -0.034582
v 0.053497 0.065579 0.055655
v 0.091559 0.060737 0.043799
v 0.103277 0.007334 0.080025
v 0.095378 0.059895 0.069825
v -0.084635 0.060263 -0.014680
v -0.057149 0.004694 -0.050111
v 0.047180 0.030481 -0.028286
v -0.008170 0.032168 0.035371
v -0.124875 0.036239 -0.034906
v 0.017438 0.001078 0.016948
v -0.067638 0.003795 -0.017842
v -0.048044 0.035081 0.014941
v -0.045775 0.048478 0.015625
v -0.042403 0.058622 0.011243
v -0.014608 0.023228 -0.053032
v 0.013640 0.011347 -0.036065
v 0.054732 0.001678 0.052813
v 0.023383 0.003406 -0.010894
v 0.016937 0.069802 -0.014375
v 0.014017 0.071661 0.004445
v 0.013409 0.069501 0.020369
v 0.008896 0.015271 0.043762
v 0.006221 0.007512 0.033669
v -0.010382 0.002189 0.008301
v -0.044724 0.064744 0.002010
v 0.094079 0.024164 0.018110
v 0.078399 0.005882 0.026900
v 0.072140 0.003252 0.036386
v 0.043534 0.014687 0.067760
v 0.045920 0.006696 0.062054
v 0.013031 0.065926 0.033421
v 0.058817 0.007871 -0.006283
v 0.081363 0.063744 0.019647
v 0.046977 0.066580 -0.009674
v 0.107054 0.015484 0.094796
v 0.094190 0.010840 0.102799
v 0.096501 0.051501 0.101323
v 0.078464 0.056740 0.092274
v 0.079827 0.018681 0.111513
v 0.085652 0.011941 0.109731
v 0.104623 0.056605 0.063833
v 0.102875 0.010430 0.060257
v 0.073517 0.006769 0.090287
v -0.025232 0.001757 -0.022528
v -0.080475 0.043394 -0.002473
v -0.090639 0.053580 -0.013926
v -0.041987 0.066732 -0.006536
v -0.047417 0.068476 -0.026554
v -0.028322 0.068835 -0.031031
v -0.059663 0.031967 -0.066631
v -0.048734 0.017991 -0.061932
v -0.048272 0.008616 -0.054943
v -0.009247 0.065364 -0.036391
v -0.100091 0.004183 -0.049581
v -0.108099 0.007587 -0.040515
v -0.120609 0.048126 -0.039381
v -0.117195 0.051843 -0.049944
v -0.104825 0.055780 -0.057221
v -0.108627 0.019654 -0.069626
v -0.097706 0.010619 -0.064039
v -0.054381 0.061371 -0.049370
v -0.095530 0.059656 -0.029125
v -0.084070 0.004640 -0.018245
v -0.041980 0.009661 0.011753
v -0.031721 0.021487 0.021371
v 0.009579 0.053790 -0.039001
v -0.000354 0.041984 -0.049292
v 0.056371 0.041207 -0.020660
v 0.006602 0.056543 0.038822
v -0.012189 0.044277 0.032168
v 0.093323 0.055147 0.027448
v 0.101720 0.036842 0.029261
v 0.048047 0.055976 0.071168
v 0.045548 0.043677 0.072420
v 0.105332 0.042511 0.100593
v 0.111215 0.031359 0.099946
v 0.070831 0.048102 0.098223
v 0.079831 0.036402 0.111872
v -0.087778 0.009143 -0.012560
v -0.089481 0.017496 -0.007540
v -0.085584 0.038410 -0.003819
v -0.024778 0.057105 -0.050644
v -0.055061 0.045825 -0.063095
v -0.115590 0.013028 -0.028410
v -0.124833 0.020406 -0.035806
v -0.109015 0.046470 -0.068020
v -0.109314 0.034235 -0.071007
v -0.129244 0.033966 -0.047353
v -0.127473 0.033947 -0.057542
v -0.120656 0.033958 -0.065697
v -0.090188 0.031846 -0.071366
v 0.063744 0.028708 0.095814
v 0.112546 0.034799 0.063611
v 0.114828 0.034118 0.084761
v 0.106381 0.032211 0.106195
v 0.097812 0.032180 0.114908
v 0.088426 0.033219 0.115889
v 0.093080 0.031460 0.011452
v 0.020980 0.029681 0.050330
v 0.045657 0.029921 0.073784
v 0.030728 0.039193 -0.036545
v 0.071577 0.063299 0.066502
v 0.049478 0.070082 0.000301
v 0.056551 0.068327 0.040760
v 0.067016 0.058942 -0.006034
v 0.077154 0.051564 -0.002887
v 0.098004 0.045965 0.108116
v 0.082912 0.043752 0.111722
v 0.104244 0.051139 0.048504
v 0.108617 0.048379 0.073344
v 0.066735 0.016742 0.095354
v 0.070198 0.002256 0.070025
v 0.092043 0.003922 0.086907
v -0.095527 0.019271 -0.070568
v -0.017328 0.032316 -0.055648
v -0.123994 0.047227 -0.046435
v -0.123034 0.047132 -0.054050
v -0.117658 0.045536 -0.064573
v -0.114056 0.035575 -0.024718
v -0.082403 0.062548 -0.044744
v -0.116422 0.021651 -0.026369
v -0.126591 0.019471 -0.045326
v -0.117999 0.012932 -0.057186
v -0.125376 0.020191 -0.058275
v -0.121190 0.020617 -0.063939
v -0.085871 0.050354 -0.065517
v 0.060782 0.043046 0.091834
v 0.107433 0.025798 0.040788
v 0.112984 0.024042 0.075703
v 0.103415 0.018688 0.108676
v 0.096731 0.017008 0.111181
v 0.086613 0.020133 0.114585
v 0.071401 0.017082 -0.004123
v 0.074121 0.036852 -0.010647
v 0.021401 0.045537 0.048875
v -0.112226 0.053308 -0.060783
vn -0.6414 0.2366 0.7298
vn -0.8262 0.2114 0.5223
vn -0.8347 -0.3843 0.3943
vn -0.6500 -0.1529 0.7444
vn 0.1507 0.8439 -0.5149
vn 0.0443 0.8417 -0.5381
vn 0.0224 0.9719 -0.2344
vn 0.1293 0.9424 -0.3085
vn -0.7411 -0.0267 0.6708
vn -0.5758 0.1042 0.8109
vn -0.5560 0.5179 0.6501
vn -0.7289 0.1910 0.6575
vn 0.6141 -0.4203 0.6680
vn 0.3821 -0.5383 0.7512
vn 0.2734 -0.8787 0.3914
vn 0.4676 0.1412 -0.8726
vn 0.3237 0.6033 -0.7289
vn 0.5360 0.1899 -0.8226
vn -0.5618 0.5071 0.6537
vn -0.4237 0.8642 0.2714
vn -0.6635 0.6529 0.3653
vn -0.6772 -0.3980 0.6188
vn -0.5515 -0.3308 0.7658
vn 0.8047 0.5935 0.0128
vn 0.4361 0.8960 -0.0841
vn 0.3329 0.9301 0.1551
vn 0.8232 -0.0559 -0.5650
vn 0.7613 -0.4646 -0.4522
vn 0.6099 -0.5082 -0.6081
vn 0.6685 -0.0252 -0.7433
vn -0.4456 0.1614 0.8805
vn -0.4509 0.2396 0.8598
vn -0.4494 -0.0132 0.8933
vn -0.1627 0.4741 -0.8653
vn -0.5618 0.4768 -0.6760
vn -0.3981 0.7739 -0.4925
vn -0.3622 -0.9312 0.0400
vn -0.4752 -0.8259 -0.3033
vn -0.0922 -0.8169 -0.5694
vn -0.1549 -0.9774 -0.1441
vn 0.2187 -0.3811 -0.8983
vn 0.0362 -0.3603 -0.9321
vn 0.0821 0.0573 -0.9950
vn 0.1876 0.0273 -0.9819
vn -0.7102 0.1154 0.6945
vn -0.5376 0.5539 0.6358
vn 0.8901 0.1556 -0.4283
vn 0.8962 -0.2634 -0.3571
vn 0.1311 -0.9712 -0.1990
vn 0.1325 -0.9249 -0.3564
vn 0.3293 -0.6380 -0.6960
vn 0.3767 -0.7981 -0.4702
vn 0.5037 -0.1867 -0.8434
vn 0.3400 0.1675 -0.9254
vn 0.3241 0.7550 -0.5700
vn 0.4908 0.6181 -0.6140
vn -0.0271 0.9987 0.0423
vn -0.1063 0.9785 0.1767
vn 0.0675 0.9939 0.0873
vn -0.1466 0.9792 0.1404
vn -0.2760 0.8599 0.4294
vn -0.2460 0.8748 0.4174
vn 0.0126 -0.9997 0.0228
vn 0.4018 -0.8839 -0.2394
vn 0.1514 -0.9859 -0.0713
vn 0.9636 -0.2641 -0.0407
vn 0.6603 -0.7314 -0.1703
vn 0.9826 0.0838 -0.1660
vn 0.8459 0.4629 -0.2647
vn 0.6792 0.4045 -0.6124
vn 0.3183 -0.3133 -0.8947
vn -0.1000 0.9924 -0.0717
vn -0.1322 0.9672 -0.2171
vn -0.1544 0.9292 0.3358
vn 0.9826 0.1376 0.1249
vn 0.9325 0.0557 0.3569
vn 0.7615 -0.5848 0.2796
vn 0.2917 -0.0014 -0.9565
vn 0.0066 -0.9972 -0.0743
vn 0.7515 0.5361 0.3845
vn 0.7836 0.0927 0.6144
vn 0.3410 0.8477 0.4065
vn 0.4076 0.6182 0.6721
vn -0.5337 0.1046 0.8392
vn -0.4905 0.2771 0.8262
vn -0.1140 0.9015 0.4174
vn -0.2645 0.5283 0.8068
vn -0.4036 0.5438 0.7358
vn -0.3668 0.8311 0.4180
vn 0.1907 -0.9623 0.1939
vn 0.6069 -0.7944 0.0238
vn -0.7938 0.6032 0.0774
vn -0.9921 0.1101 0.0599
vn -0.3415 -0.7662 0.5443
vn -0.3347 -0.6704 0.6622
vn -0.1779 -0.9216 0.3450
vn -0.1034 -0.9733 0.2048
vn 0.0431 0.5936 -0.8036
vn -0.1747 0.9291 -0.3260
vn 0.8353 0.5428 0.0877
vn -0.4305 0.4942 0.7553
vn -0.2128 0.0859 -0.9733
vn -0.6271 0.0965 -0.7729
vn -0.8607 -0.5041 0.0715
vn -0.8258 -0.4506 -0.3391
vn -0.0947 -0.3171 0.9436
vn -0.1164 -0.7865 0.6065
vn -0.4838 0.8740 -0.0460
vn -0.0769 -0.9882 0.1326
vn -0.0703 -0.9908 0.1158
vn -0.2527 -0.4046 -0.8789
vn -0.7678 0.5766 -0.2793
vn -0.9191 0.1126 -0.3777
vn -0.4110 -0.6646 0.6240
vn -0.5833 -0.6618 0.4710
vn -0.2008 -0.9567 0.2108
vn -0.0763 -0.9945 0.0713
vn 0.2148 0.9565 -0.1973
vn 0.4714 0.8503 -0.2340
vn -0.5023 -0.2411 0.8304
vn 0.7585 0.5510 -0.3478
vn -0.4629 0.0033 0.8864
vn -0.4514 -0.2519 0.8561
vn -0.5031 -0.3373 0.7956
vn -0.5838 0.0229 0.8116
vn -0.3288 -0.8447 0.4223
vn 0.4181 0.1124 0.9014
vn 0.0579 -0.9202 -0.3871
vn -0.6229 -0.3854 0.6808
vn -0.3835 -0.8063 0.4504
vn 0.1866 -0.6968 -0.6926
vn -0.7271 -0.0318 0.6858
vn -0.5728 -0.3884 -0.7218
vn 0.1731 0.4138 -0.8938
vn 0.2289 0.5861 -0.7772
vn 0.0803 0.9819 0.1713
vn -0.0794 0.1259 0.9889
vn -0.5935 0.0721 0.8016
vt 0.024197 0.483796
vt 0.656145 0.667053
vt 0.427588 0.214971
vt 0.562255 0.213087
vt 0.781672 0.088374
vt 0.554517 0.129076
vt 0.193446 0.714310
vt 0.577986 0.852693
vt 0.611584 0.474075
vt 0.184673 0.359303
vt 0.066530 0.883864
vt 0.076802 0.960345
vt 0.844070 0.546907
vt 0.010159 0.241458
vt -0.049101 0.607285
vt 0.139207 0.527211
vt 0.189076 0.533140
vt 0.229547 0.541701
vt 0.555838 0.683335
vt 0.644249 0.598274
vt 0.127078 0.049938
vt 0.730852 0.552925
vt 0.447614 0.476695
vt 0.400673 0.435163
vt 0.368066 0.392518
vt 0.148196 0.260976
vt 0.095070 0.275065
vt 0.000448 0.363586
vt 0.254785 0.573661
vt 0.678688 0.297200
vt 0.768731 0.319422
vt 0.039784 -0.008274
vt 0.813789 0.313481
vt 0.221438 0.093915
vt 0.178961 0.080639
vt 0.339737 0.353811
vt 0.702877 0.432573
vt 0.700532 0.432037
vt 0.701582 0.431040
vt 0.701833 0.431690
vt 0.553661 0.290569
vt 0.511455 0.409374
vt 0.755551 0.009840
vt 0.707842 -0.107480
vt 0.833099 -0.019913
vt 0.309581 -0.169053
vt 0.664016 -0.171432
vt 0.547074 0.004853
vt 0.479939 0.057056
vt 0.374388 -0.106284
vt 0.567055 -0.189680
vt 0.347769 -0.137088
vt 0.613016 -0.194168
vt 0.588188 0.144140
vt 0.755695 0.163712
vt 0.269239 -0.067691
vt 0.705301 0.744857
vt -0.108213 0.450534
vt 0.135633 0.666482
vt 0.162977 0.726077
vt 0.283587 0.589038
vt 0.318251 0.650000
vt 0.375399 0.615083
vt 0.453280 0.818346
vt 0.519278 0.803496
vt 0.561842 0.814270
vt 0.433517 0.586119
vt 0.102258 1.194168
vt -0.135818 0.765987
vt 0.542338 1.028450
vt 0.055177 1.145985
vt -0.090065 0.788382
vt 0.125035 0.915613
vt 0.131388 0.893336
vt 0.181705 0.919001
vt 0.250215 0.898271
vt 0.406165 1.027579
vt 0.216980 1.112628
vt 0.188559 1.188741
vt 0.474417 1.001780
vt 0.361317 0.725533
vt 0.198449 0.781927
vt -0.033541 0.668224
vt 0.046986 0.485228
vt 0.107488 0.447269
vt 0.498471 0.558999
vt 0.519550 0.613880
vt 0.591783 0.431674
vt 0.294377 0.343321
vt 0.221901 0.395083
vt 0.588486 0.258408
vt 0.647353 0.250313
vt 0.382928 0.160931
vt 0.339414 0.138474
vt 0.602121 -0.010824
vt 0.656242 -0.041340
vt 0.668032 -0.012701
vt 0.437304 0.028179
vt 0.443195 -0.061707
vt 0.511534 -0.128183
vt -0.003595 0.677247
vt 0.033314 0.682574
vt 0.112955 0.680328
vt 0.438142 0.657902
vt 0.418396 0.775889
vt 0.002732 1.083192
vt -0.024896 0.807553
vt 0.054674 1.036465
vt -0.006518 0.868750
vt 0.264193 0.984911
vt 0.286904 0.961440
vt 0.339885 0.997119
vt 0.252696 1.047107
vt 0.124875 0.995768
vt 0.161676 1.011454
vt 0.199370 1.027060
vt 0.395535 0.926769
vt 0.355135 0.001204
vt 0.663827 0.136889
vt 0.663961 0.058695
vt 0.624198 -0.060890
vt 0.586267 -0.094079
vt 0.553449 -0.114261
vt 0.651988 0.309687
vt 0.226881 0.232877
vt 0.292393 0.105596
vt 0.568994 0.518959
vt 0.479239 0.158809
vt 0.497723 0.380744
vt 0.457463 0.260479
vt 0.557469 0.370910
vt 0.586174 0.352447
vt 0.553129 -0.034728
vt 0.477047 -0.045913
vt 0.502326 -0.090973
vt 0.608335 0.189053
vt 0.612477 0.107483
vt 0.315067 -0.034163
vt 0.184244 -0.033590
vt 0.234753 -0.144522
vt 0.844070 0.070976
vt 0.433358 0.973206
vt 0.522229 0.680527
vt 0.148292 0.942994
vt 0.176676 0.957784
vt 0.220815 0.982496
vt 0.075425 0.816561
vt 0.277505 0.788263
vt 0.013663 0.815192
vt 0.097669 1.048864
vt 0.138810 1.099138
vt 0.145874 1.059102
vt 0.169883 1.069686
vt 0.338318 0.865142
vt 0.391386 0.053245
vt 0.686048 0.215947
vt 0.703555 0.094094
vt 0.643874 -0.115467
vt 0.626778 -0.139923
vt 0.585031 -0.159400
vt 0.674938 0.389044
vt 0.677454 0.392426
vt 0.673029 0.391327
vt 0.678886 0.390026
vt 0.619332 0.381250
vt 0.284964 0.262506
vt 0.238850 0.937887
s 1
usemtl poop_etx_1
f 121/147/1 11/11/2 87/109/3 123/149/4
f 55/67/5 63/81/6 51/63/7 21/23/8
f 94/118/9 80/99/10 79/98/11 129/155/12
f 132/158/13 133/159/14 38/47/15
f 103/127/16 68/86/17 70/88/18
f 121/147/1 48/60/19 64/82/20 58/74/21
f 94/118/9 113/138/22 41/50/23 80/99/10
f 43/54/24 4/4/25 6/6/26
f 100/124/27 28/30/28 135/161/29 136/165/30
f 72/90/31 15/17/32 14/16/33
f 88/110/34 120/146/35 138/167/36
f 57/71/37 125/151/38 62/79/39 56/68/40
f 53/65/41 116/142/42 93/117/43 52/64/44
f 76/94/45 129/155/12 79/98/11 75/93/46
f 74/92/47 130/156/48 28/30/28
f 20/22/49 2/2/50 18/20/51 34/37/52
f 9/9/53 135/162/29 34/38/52 18/20/51
f 103/127/16 69/87/54 68/86/17
f 70/88/18 68/86/17 36/42/55 107/131/56
f 22/24/57 23/25/58 106/130/59
f 49/61/60 27/29/61 33/36/62 23/25/58
f 12/13/63 20/22/49 29/31/64 30/33/65
f 131/157/66 44/55/67 130/156/48 95/119/68
f 4/4/25 43/54/24 111/136/69
f 70/88/18 107/131/56 108/132/70
f 9/9/53 18/20/51 17/19/71 103/127/16
f 50/62/72 51/63/7 63/81/6 122/148/73
f 106/130/59 23/25/58 3/3/74
f 96/120/75 78/97/76 37/43/77 131/157/66
f 103/127/16 17/19/71 117/143/78 69/87/54
f 46/57/79 20/22/49 12/13/63
f 78/96/76 77/95/80 97/121/81
f 77/95/80 39/48/82 109/133/83
f 83/103/84 47/59/85 48/60/19 121/147/1
f 40/49/86 79/98/11 110/134/87
f 14/16/33 15/17/32 47/59/85 83/103/84
f 16/18/88 27/29/61 7/7/89 48/60/19
f 37/43/77 38/45/15 115/141/90 5/5/91
f 75/93/46 79/98/11 40/49/86 3/3/74
f 11/12/2 58/73/21 118/144/92 90/114/93
f 25/27/94 66/84/95 1/1/96 26/28/97
f 136/165/30 70/88/18 108/132/70 100/124/27
f 97/121/81 132/158/13 37/44/77 78/96/76
f 122/148/73 63/81/6 128/154/98 60/76/99
f 96/120/75 131/157/66 95/119/68 112/137/100
f 71/89/101 75/93/46 3/3/74 33/36/62
f 16/18/88 48/60/19 47/59/85 15/17/32
f 120/146/35 88/110/34 89/113/102 92/116/103
f 124/150/104 126/152/105 125/151/38 57/71/37
f 38/47/15 133/159/14 134/160/106 42/53/107
f 118/144/92 58/73/21 59/75/108
f 30/32/65 115/140/90 114/139/109 19/21/110
f 116/142/42 62/80/39 61/77/111
f 90/114/93 118/144/92 119/145/112 91/115/113
f 81/101/114 86/107/115 57/72/37 65/83/116
f 1/1/96 65/83/116 13/15/117 26/28/97
f 136/165/30 135/163/29 9/9/53 70/88/18
f 107/131/56 36/42/55 105/129/118 35/41/119
f 83/103/84 121/147/1 123/149/4 82/102/120
f 108/132/70 107/131/56 35/41/119 73/91/121
f 10/10/122 67/85/123 24/26/124 101/125/125
f 83/103/84 82/102/120 67/85/123 14/16/33
f 93/117/43 116/142/42 61/77/111 89/112/102
f 42/52/107 41/50/23 113/138/22 45/56/126
f 13/15/117 57/72/37 56/69/40 46/58/79
f 118/144/92 59/75/108 119/145/112
f 87/108/3 124/150/104 57/71/37 86/106/115
f 117/143/78 17/19/71 53/65/41 52/64/44
f 97/121/81 77/95/80 109/133/83 98/122/127
f 46/57/79 56/70/40 62/80/39 8/8/128
f 31/34/129 32/35/130 45/56/126 113/138/22
f 121/147/1 58/74/21 11/11/2
f 54/66/131 62/80/39 116/142/42 53/65/41
f 6/6/26 39/48/82 77/95/80 112/137/100
f 114/139/109 115/140/90 38/46/15 45/56/126
f 102/126/132 31/34/129 113/138/22 94/118/9
f 125/151/38 127/153/133 61/78/111 62/79/39
f 49/61/60 23/25/58 22/24/57 50/62/72
f 28/30/28 130/156/48 44/55/67 29/31/64
f 24/26/124 25/27/94 32/35/130 31/34/129
f 68/86/17 55/67/5 21/23/8 36/42/55
f 93/117/43 89/112/102 88/111/34 128/154/98
f 90/114/93 91/115/113 126/152/105 124/150/104
f 21/23/8 51/63/7 50/62/72 22/24/57
f 117/143/78 52/64/44 85/105/134 69/87/54
f 126/152/105 91/115/113 92/116/103 127/153/133
f 100/124/27 108/132/70 73/91/121 74/92/47
f 119/145/112 120/146/35 92/116/103 91/115/113
f 93/117/43 128/154/98 85/105/134 52/64/44
f 39/48/82 40/49/86 110/134/87 109/133/83
f 11/12/2 90/114/93 124/150/104 87/108/3
f 132/158/13 97/121/81 98/122/127 133/159/14
f 14/16/33 67/85/123 10/10/122 72/90/31
f 96/120/75 112/137/100 77/95/80 78/97/76
f 101/125/125 24/26/124 31/34/129 102/126/132
f 128/154/98 63/81/6 84/104/135 85/105/134
f 82/102/120 123/149/4 86/107/115 81/101/114
f 95/119/68 130/156/48 74/92/47 111/136/69
f 32/35/130 19/21/110 114/139/109 45/56/126
f 58/74/21 64/82/20 59/75/108
f 131/157/66 37/43/77 5/5/91 44/55/67
f 104/128/136 40/49/86 39/48/82 6/6/26
f 109/133/83 110/135/87 99/123/137 98/122/127
f 135/164/29 28/30/28 29/31/64 34/39/52
f 59/75/108 60/76/99 138/167/36
f 25/27/94 26/28/97 19/21/110 32/35/130
f 67/85/123 82/102/120 81/101/114 66/84/95
f 133/159/14 98/122/127 99/123/137 134/160/106
f 38/46/15 42/52/107 45/56/126
f 66/84/95 81/101/114 65/83/116 1/1/96
f 111/136/69 43/54/24 112/137/100
f 137/166/138 76/94/45 75/93/46 71/89/101
f 4/4/25 35/41/119 105/129/118 106/130/59
f 101/125/125 102/126/132 76/94/45 137/166/138
f 110/134/87 79/98/11 80/99/10
f 59/75/108 64/82/20 122/148/73 60/76/99
f 127/153/133 92/116/103 89/113/102 61/78/111
f 106/130/59 104/128/136 6/6/26 4/4/25
f 20/22/49 46/57/79 8/8/128 2/2/50
f 27/29/61 16/18/88 71/89/101 33/36/62
f 105/129/118 21/23/8 22/24/57 106/130/59
f 44/55/67 5/5/91 115/141/90 30/33/65
f 134/160/106 99/123/137 80/100/10 41/51/23
f 3/3/74 40/49/86 104/128/136
f 20/22/49 34/40/52 29/31/64
f 19/21/110 12/14/63 30/32/65
f 21/23/8 105/129/118 36/42/55
f 54/66/131 53/65/41 17/19/71 18/20/51
f 33/36/62 3/3/74 23/25/58
f 73/91/121 35/41/119 4/4/25
f 74/92/47 73/91/121 111/136/69
f 30/33/65 29/31/64 44/55/67
f 54/66/131 8/8/128 62/80/39
f 54/66/131 18/20/51 2/2/50 8/8/128
f 122/148/73 64/82/20 49/61/60 50/62/72
f 48/60/19 7/7/89 64/82/20
f 84/104/135 68/86/17 69/87/54 85/105/134
f 13/15/117 65/83/116 57/72/37
f 123/149/4 87/109/3 86/107/115
f 125/151/38 126/152/105 127/153/133
f 49/61/60 64/82/20 7/7/89 27/29/61
f 63/81/6 55/67/5 68/86/17 84/104/135
f 129/155/12 76/94/45 102/126/132 94/118/9
f 137/166/138 72/90/31 10/10/122 101/125/125
f 42/53/107 134/160/106 41/51/23
f 16/18/88 15/17/32 72/90/31 71/89/101
f 72/90/31 137/166/138 71/89/101
f 24/26/124 67/85/123 66/84/95 25/27/94
f 128/154/98 88/111/34 138/167/36 60/76/99
f 19/21/110 26/28/97 12/14/63
f 13/15/117 46/58/79 12/14/63 26/28/97
f 119/145/112 59/75/108 138/167/36 120/146/35
f 37/44/77 132/158/13 38/47/15
f 99/123/137 110/135/87 80/100/10
f 9/9/53 103/127/16 70/88/18
f 100/124/27 74/92/47 28/30/28
f 104/128/136 106/130/59 3/3/74
f 73/91/121 4/4/25 111/136/69
f 112/137/100 43/54/24 6/6/26
f 95/119/68 111/136/69 112/137/100
