# Blender 3.4.0
# www.blender.org
mtllib signal_receiver_etx_2.mtl
o signal_receiver_etx_2
v 0.092744 0.058648 0.138000
v 0.092744 0.000000 0.138000
v -0.092744 0.058648 0.138000
v -0.092744 0.000000 0.138000
v 0.092744 0.088648 -0.138667
v 0.092744 0.000000 -0.138329
v -0.092744 0.088648 -0.138667
v -0.092744 0.000000 -0.138329
v 0.092744 0.000000 0.055835
v 0.092744 0.088648 0.055667
v -0.092744 0.000000 0.055835
v -0.092744 0.088648 0.055666
v 0.076232 0.088648 0.014622
v 0.079811 0.088648 0.003886
v 0.065497 0.088648 0.018200
v 0.076232 0.098907 0.014622
v 0.065497 0.098907 0.018200
v 0.079811 0.098907 0.003886
v -0.077002 0.098907 0.014622
v -0.080581 0.098907 0.003886
v -0.066267 0.098907 0.018200
v -0.077002 0.088648 0.014622
v -0.066267 0.088648 0.018200
v -0.080581 0.088648 0.003886
v 0.076232 0.088648 -0.108708
v 0.065497 0.088648 -0.112286
v 0.079811 0.088648 -0.097972
v 0.076232 0.098907 -0.108708
v 0.079811 0.098907 -0.097972
v 0.065497 0.098907 -0.112286
v -0.077002 0.088648 -0.108708
v -0.080581 0.088648 -0.097972
v -0.066267 0.088648 -0.112286
v -0.077002 0.098907 -0.108708
v -0.066267 0.098907 -0.112286
v -0.080581 0.098907 -0.097972
v -0.066267 0.098907 0.003886
v 0.065497 0.098907 0.003886
v 0.065497 0.098907 -0.097972
v -0.066267 0.098907 -0.097972
v -0.054432 0.098907 -0.089834
v -0.041751 0.119776 -0.089834
v -0.022772 0.132457 -0.089834
v -0.000385 0.136910 -0.089834
v 0.022002 0.132457 -0.089834
v 0.040981 0.119776 -0.089834
v 0.053663 0.098907 -0.089834
v -0.039828 0.117853 -0.094879
v -0.021731 0.129945 -0.094879
v -0.000385 0.134191 -0.094879
v 0.020962 0.129945 -0.094879
v 0.039058 0.117853 -0.094879
v -0.032906 0.110931 -0.097972
v -0.017985 0.120900 -0.097972
v -0.000385 0.124401 -0.097972
v 0.017215 0.120900 -0.097972
v 0.032136 0.110931 -0.097972
v -0.051225 0.098907 -0.094879
v 0.050455 0.098907 -0.094879
v -0.039677 0.098907 -0.097972
v 0.038908 0.098907 -0.097972
v -0.048060 0.110334 -0.089834
v -0.045498 0.109367 -0.094879
v -0.036275 0.105889 -0.097972
v 0.035505 0.105889 -0.097972
v 0.044728 0.109367 -0.094879
v 0.047290 0.110334 -0.089834
v -0.039828 0.117853 -0.087774
v -0.045498 0.109367 -0.087774
v 0.044728 0.109367 -0.087774
v 0.039058 0.117853 -0.087774
v 0.020962 0.129944 -0.087774
v -0.000385 0.134190 -0.087774
v -0.021731 0.129945 -0.087774
v -0.048060 0.110334 -0.004252
v -0.054432 0.098907 -0.004252
v -0.021731 0.129945 -0.006312
v -0.039828 0.117853 -0.006312
v -0.000385 0.134190 -0.006312
v 0.020962 0.129944 -0.006312
v 0.039058 0.117853 -0.006312
v 0.044728 0.109367 -0.006312
v -0.041751 0.119776 -0.004252
v -0.022772 0.132457 -0.004252
v -0.021731 0.129945 0.000793
v -0.039828 0.117853 0.000793
v -0.000385 0.136910 -0.004252
v -0.000385 0.134191 0.000793
v 0.022002 0.132457 -0.004252
v 0.020962 0.129945 0.000793
v 0.040981 0.119776 -0.004252
v 0.039058 0.117853 0.000793
v 0.047290 0.110334 -0.004252
v 0.044728 0.109367 0.000793
v -0.017985 0.120900 0.003886
v -0.032906 0.110931 0.003886
v -0.000385 0.124401 0.003886
v 0.017215 0.120900 0.003886
v 0.032136 0.110931 0.003886
v 0.035505 0.105889 0.003886
v -0.045498 0.109367 0.000793
v -0.051225 0.098907 0.000793
v -0.036275 0.105889 0.003886
v -0.039677 0.098907 0.003886
v -0.045498 0.109367 -0.006312
v 0.053663 0.098907 -0.004252
v 0.050455 0.098907 0.000793
v 0.038908 0.098907 0.003886
v -0.061226 0.101580 -0.101736
v -0.064344 0.101580 -0.105791
v -0.061889 0.101580 -0.096665
v -0.069415 0.101580 -0.106453
v -0.073470 0.101580 -0.103336
v -0.074132 0.101580 -0.098264
v -0.065943 0.101580 -0.093547
v -0.071015 0.101580 -0.094210
v -0.061226 0.098907 -0.101736
v -0.064344 0.098907 -0.105791
v -0.061889 0.098907 -0.096665
v -0.069415 0.098907 -0.106453
v -0.073470 0.098907 -0.103336
v -0.065943 0.098907 -0.093547
v -0.074132 0.098907 -0.098264
v -0.071015 0.098907 -0.094210
v 0.070580 0.101580 -0.094430
v 0.073641 0.101580 -0.098528
v 0.065518 0.101580 -0.093697
v 0.072908 0.101580 -0.103590
v 0.068810 0.101580 -0.106650
v 0.063748 0.101580 -0.105917
v 0.061420 0.101580 -0.096758
v 0.060687 0.101580 -0.101820
v 0.070580 0.098907 -0.094430
v 0.073641 0.098907 -0.098528
v 0.065518 0.098907 -0.093697
v 0.072908 0.098907 -0.103590
v 0.068810 0.098907 -0.106650
v 0.061420 0.098907 -0.096758
v 0.063748 0.098907 -0.105917
v 0.060687 0.098907 -0.101820
v -0.062317 0.101580 0.008437
v -0.060980 0.101580 0.003500
v -0.066753 0.101580 0.010983
v -0.063526 0.101580 -0.000936
v -0.068463 0.101580 -0.002272
v -0.072899 0.101580 0.000274
v -0.071690 0.101580 0.009646
v -0.074235 0.101580 0.005211
v -0.062317 0.098907 0.008437
v -0.060980 0.098907 0.003500
v -0.066753 0.098907 0.010983
v -0.063526 0.098907 -0.000936
v -0.068463 0.098907 -0.002272
v -0.071690 0.098907 0.009646
v -0.072899 0.098907 0.000274
v -0.074235 0.098907 0.005211
v 0.069868 0.101580 -0.001443
v 0.064757 0.101580 -0.001621
v 0.073356 0.101580 0.002298
v 0.061016 0.101580 0.001867
v 0.060838 0.101580 0.006979
v 0.064326 0.101580 0.010719
v 0.073178 0.101580 0.007409
v 0.069438 0.101580 0.010897
v 0.069868 0.098907 -0.001443
v 0.064757 0.098907 -0.001621
v 0.073356 0.098907 0.002298
v 0.061016 0.098907 0.001867
v 0.060838 0.098907 0.006979
v 0.073178 0.098907 0.007409
v 0.064326 0.098907 0.010719
v 0.069438 0.098907 0.010897
v -0.045498 0.105889 -0.087774
v -0.039828 0.105889 -0.087774
v -0.045498 0.105889 -0.006312
v 0.039058 0.105889 -0.087774
v 0.044728 0.105889 -0.087774
v 0.020962 0.105889 -0.087774
v -0.000385 0.105889 -0.087774
v -0.021731 0.105889 -0.087774
v -0.039828 0.105889 -0.006312
v -0.021731 0.105889 -0.006312
v -0.000385 0.105889 -0.006312
v 0.020962 0.105889 -0.006312
v 0.039058 0.105889 -0.006312
v 0.044728 0.105889 -0.006312
v -0.039828 0.117853 -0.087774
v -0.045498 0.109367 -0.087774
v 0.044728 0.109367 -0.087774
v 0.039058 0.117853 -0.087774
v 0.020962 0.129944 -0.087774
v -0.000385 0.134190 -0.087774
v -0.021731 0.129945 -0.087774
v -0.021731 0.129945 -0.006312
v -0.039828 0.117853 -0.006312
v -0.000385 0.134190 -0.006312
v 0.020962 0.129944 -0.006312
v 0.039058 0.117853 -0.006312
v 0.044728 0.109367 -0.006312
v -0.045498 0.109367 -0.006312
v 0.035181 0.088648 0.036875
v 0.033539 0.088648 0.030746
v 0.029052 0.088648 0.026259
v 0.022923 0.088648 0.024617
v 0.016795 0.088648 0.026259
v 0.012308 0.088648 0.030746
v 0.010666 0.088648 0.036875
v 0.016795 0.088648 0.047490
v 0.022923 0.088648 0.049132
v 0.029052 0.088648 0.047490
v 0.012308 0.088648 0.043003
v 0.032147 0.095188 0.036875
v 0.027535 0.095188 0.028887
v 0.018312 0.095188 0.028887
v 0.013700 0.095188 0.036875
v 0.018312 0.095188 0.044862
v 0.027535 0.095188 0.044862
v 0.033539 0.088648 0.043003
v -0.011155 0.088648 0.036875
v -0.012797 0.088648 0.030746
v -0.017284 0.088648 0.026259
v -0.023413 0.088648 0.024617
v -0.029541 0.088648 0.026259
v -0.034028 0.088648 0.030746
v -0.035670 0.088648 0.036875
v -0.029541 0.088648 0.047490
v -0.023413 0.088648 0.049132
v -0.017284 0.088648 0.047490
v -0.034028 0.088648 0.043003
v -0.014189 0.095188 0.036875
v -0.018801 0.095188 0.028887
v -0.028024 0.095188 0.028887
v -0.032636 0.095188 0.036875
v -0.028024 0.095188 0.044862
v -0.018801 0.095188 0.044862
v -0.012797 0.088648 0.043003
v 0.106689 0.085531 -0.058154
v 0.106689 -0.007902 -0.058154
v 0.106689 0.103018 -0.151347
v 0.106689 -0.007902 -0.151347
v 0.092744 0.085531 -0.058154
v 0.092744 -0.007902 -0.058154
v 0.092744 -0.007902 -0.138667
v 0.092744 0.101228 -0.138667
v -0.106689 0.085531 -0.058154
v -0.092744 0.085531 -0.058154
v -0.106689 0.103018 -0.151347
v -0.106689 -0.007902 -0.058154
v -0.092744 -0.007902 -0.058154
v -0.092744 -0.007902 -0.138667
v -0.106689 -0.007902 -0.151347
v -0.092744 0.101228 -0.138667
v 0.106689 0.004091 -0.103493
v 0.106689 0.006924 -0.117738
v 0.106689 0.014993 -0.129814
v 0.106689 0.027070 -0.137883
v 0.106689 0.041315 -0.140717
v 0.106689 0.055560 -0.137883
v 0.106689 0.067636 -0.129814
v 0.106689 0.075706 -0.117738
v 0.106689 0.078539 -0.103493
v 0.106689 0.075706 -0.089248
v 0.106689 0.067636 -0.077171
v 0.106689 0.055560 -0.069102
v 0.106689 0.041315 -0.066268
v 0.106689 0.027070 -0.069102
v 0.106689 0.014993 -0.077171
v 0.106689 0.006924 -0.089248
v 0.110951 0.004091 -0.103493
v 0.110951 0.006924 -0.117738
v 0.110951 0.014993 -0.129814
v 0.110951 0.027070 -0.137883
v 0.110951 0.041315 -0.140717
v 0.110951 0.055560 -0.137883
v 0.110951 0.067636 -0.129814
v 0.110951 0.075706 -0.117738
v 0.110951 0.078539 -0.103493
v 0.110951 0.075706 -0.089248
v 0.110951 0.067636 -0.077171
v 0.110951 0.055560 -0.069102
v 0.110951 0.041315 -0.066268
v 0.110951 0.027070 -0.069102
v 0.110951 0.014993 -0.077171
v 0.110951 0.006924 -0.089248
v -0.106689 0.006924 -0.117738
v -0.106689 0.004091 -0.103493
v -0.106689 0.014993 -0.129814
v -0.106689 0.027070 -0.137883
v -0.106689 0.041315 -0.140717
v -0.106689 0.055560 -0.137883
v -0.106689 0.067636 -0.129814
v -0.106689 0.075706 -0.117738
v -0.106689 0.078539 -0.103493
v -0.106689 0.075706 -0.089248
v -0.106689 0.067636 -0.077171
v -0.106689 0.055560 -0.069102
v -0.106689 0.041315 -0.066269
v -0.106689 0.027070 -0.069102
v -0.106689 0.014993 -0.077171
v -0.106689 0.006924 -0.089248
v -0.111452 0.006924 -0.117738
v -0.111452 0.004091 -0.103493
v -0.111452 0.014993 -0.129814
v -0.111452 0.027070 -0.137883
v -0.111452 0.041315 -0.140717
v -0.111452 0.055560 -0.137883
v -0.111452 0.067636 -0.129814
v -0.111452 0.075706 -0.117738
v -0.111452 0.078539 -0.103493
v -0.111452 0.075706 -0.089248
v -0.111452 0.067636 -0.077171
v -0.111452 0.055560 -0.069102
v -0.111452 0.041315 -0.066269
v -0.111452 0.027070 -0.069102
v -0.111452 0.014993 -0.077171
v -0.111452 0.006924 -0.089248
v 0.029711 0.020337 -0.151347
v 0.010463 0.028310 -0.151347
v 0.002490 0.047558 -0.151347
v 0.010463 0.066806 -0.151347
v 0.029711 0.074779 -0.151347
v 0.048958 0.066806 -0.151347
v 0.056931 0.047558 -0.151347
v 0.048958 0.028310 -0.151347
v 0.029711 0.020337 -0.159404
v 0.010463 0.028310 -0.159404
v 0.002490 0.047558 -0.159404
v 0.010463 0.066806 -0.159404
v 0.029711 0.074779 -0.159404
v 0.048958 0.066806 -0.159404
v 0.056931 0.047558 -0.159404
v 0.048958 0.028310 -0.159404
v 0.029711 0.028721 -0.159404
v 0.016391 0.034238 -0.159404
v 0.010873 0.047558 -0.159404
v 0.016391 0.060878 -0.159404
v 0.029711 0.066395 -0.159404
v 0.043030 0.060878 -0.159404
v 0.048548 0.047558 -0.159404
v 0.043030 0.034238 -0.159404
v 0.029711 0.028721 -0.171957
v 0.016391 0.034238 -0.171957
v 0.010873 0.047558 -0.171957
v 0.016391 0.060878 -0.171957
v 0.029711 0.066395 -0.171957
v 0.043030 0.060878 -0.171957
v 0.048548 0.047558 -0.171957
v 0.043030 0.034238 -0.171957
v 0.029711 0.032736 -0.174492
v 0.019230 0.037077 -0.174492
v 0.014889 0.047558 -0.174492
v 0.019230 0.058039 -0.174492
v 0.029711 0.062380 -0.174492
v 0.040191 0.058039 -0.174492
v 0.044532 0.047558 -0.174492
v 0.040191 0.037077 -0.174492
v 0.029711 0.036323 -0.174492
v 0.021766 0.039614 -0.174492
v 0.018476 0.047558 -0.174492
v 0.021766 0.055502 -0.174492
v 0.029711 0.058793 -0.174492
v 0.037655 0.055502 -0.174492
v 0.040945 0.047558 -0.174492
v 0.037655 0.039614 -0.174492
v 0.029711 0.036323 -0.163900
v 0.021766 0.039614 -0.163900
v 0.018476 0.047558 -0.163900
v 0.021766 0.055502 -0.163900
v 0.029711 0.058793 -0.163900
v 0.037655 0.055502 -0.163900
v 0.040945 0.047558 -0.163900
v 0.037655 0.039614 -0.163900
v -0.030289 0.020337 -0.151347
v -0.049537 0.028310 -0.151347
v -0.057510 0.047558 -0.151347
v -0.049537 0.066806 -0.151347
v -0.030289 0.074779 -0.151347
v -0.011042 0.066806 -0.151347
v -0.003069 0.047558 -0.151347
v -0.011042 0.028310 -0.151347
v -0.030289 0.020337 -0.159404
v -0.049537 0.028310 -0.159404
v -0.057510 0.047558 -0.159404
v -0.049537 0.066806 -0.159404
v -0.030289 0.074779 -0.159404
v -0.011042 0.066806 -0.159404
v -0.003069 0.047558 -0.159404
v -0.011042 0.028310 -0.159404
v -0.030289 0.028721 -0.159404
v -0.043609 0.034238 -0.159404
v -0.049127 0.047558 -0.159404
v -0.043609 0.060878 -0.159404
v -0.030289 0.066395 -0.159404
v -0.016970 0.060878 -0.159404
v -0.011452 0.047558 -0.159404
v -0.016970 0.034238 -0.159404
v -0.030289 0.028721 -0.171957
v -0.043609 0.034238 -0.171957
v -0.049127 0.047558 -0.171957
v -0.043609 0.060878 -0.171957
v -0.030289 0.066395 -0.171957
v -0.016970 0.060878 -0.171957
v -0.011452 0.047558 -0.171957
v -0.016970 0.034238 -0.171957
v -0.030289 0.032736 -0.174492
v -0.040770 0.037077 -0.174492
v -0.045111 0.047558 -0.174492
v -0.040770 0.058039 -0.174492
v -0.030289 0.062380 -0.174492
v -0.019809 0.058039 -0.174492
v -0.015468 0.047558 -0.174492
v -0.019809 0.037077 -0.174492
v -0.030289 0.036323 -0.174492
v -0.038234 0.039614 -0.174492
v -0.041524 0.047558 -0.174492
v -0.038234 0.055502 -0.174492
v -0.030289 0.058793 -0.174492
v -0.022345 0.055502 -0.174492
v -0.019055 0.047558 -0.174492
v -0.022345 0.039614 -0.174492
v -0.030289 0.036323 -0.163900
v -0.038234 0.039614 -0.163900
v -0.041524 0.047558 -0.163900
v -0.038234 0.055502 -0.163900
v -0.030289 0.058793 -0.163900
v -0.022345 0.055502 -0.163900
v -0.019055 0.047558 -0.163900
v -0.022345 0.039614 -0.163900
v 0.124547 0.028458 -0.106658
v 0.124547 0.034693 -0.114767
v 0.124547 0.029783 -0.096515
v 0.124547 0.044836 -0.116092
v 0.124547 0.052945 -0.109857
v 0.124547 0.054270 -0.099714
v 0.124547 0.037892 -0.090280
v 0.124547 0.048035 -0.091605
v 0.119201 0.028458 -0.106658
v 0.119201 0.034693 -0.114767
v 0.119201 0.029783 -0.096515
v 0.119201 0.044836 -0.116092
v 0.119201 0.052945 -0.109857
v 0.119201 0.037892 -0.090280
v 0.119201 0.054270 -0.099714
v 0.119201 0.048035 -0.091605
v -0.125355 0.054190 -0.106658
v -0.125355 0.047955 -0.114767
v -0.125355 0.052865 -0.096515
v -0.125355 0.037812 -0.116092
v -0.125355 0.029703 -0.109857
v -0.125355 0.028378 -0.099714
v -0.125355 0.044756 -0.090280
v -0.125355 0.034613 -0.091605
v -0.120009 0.054190 -0.106658
v -0.120009 0.047955 -0.114767
v -0.120009 0.052865 -0.096515
v -0.120009 0.037812 -0.116092
v -0.120009 0.029703 -0.109857
v -0.120009 0.044756 -0.090280
v -0.120009 0.028378 -0.099714
v -0.120009 0.034613 -0.091605
v -0.001302 0.085616 0.066897
v -0.001302 0.089036 0.057500
v -0.001302 0.084676 0.066555
v -0.001302 0.088096 0.057158
v 0.000698 0.085616 0.066897
v 0.000698 0.089036 0.057500
v 0.000698 0.084676 0.066555
v 0.000698 0.088096 0.057158
v 0.022824 0.082096 0.076569
v 0.022824 0.081156 0.076227
v 0.025281 0.082096 0.076569
v 0.030824 0.084490 0.069991
v 0.025281 0.081156 0.076227
v 0.030824 0.083550 0.069649
v 0.029824 0.085174 0.068112
v 0.029824 0.084234 0.067770
v 0.039824 0.084490 0.069991
v 0.039824 0.083550 0.069649
v 0.039824 0.085174 0.068112
v 0.039824 0.084234 0.067770
v -0.023417 0.082096 0.076569
v -0.023417 0.081156 0.076227
v -0.025874 0.082096 0.076569
v -0.031417 0.084490 0.069991
v -0.025874 0.081156 0.076227
v -0.031417 0.083550 0.069649
v -0.030417 0.085174 0.068112
v -0.030417 0.084234 0.067770
v -0.040417 0.084490 0.069991
v -0.040417 0.083550 0.069649
v -0.040417 0.085174 0.068112
v -0.040417 0.084234 0.067770
vn -0.0000 0.9848 0.1738
vn -0.0000 0.9396 0.3424
vn 1.0000 -0.0000 -0.0000
vn -0.0000 -0.0000 1.0000
vn -0.0000 -1.0000 -0.0000
vn -1.0000 -0.0000 -0.0000
vn -0.0000 1.0000 -0.0000
vn -0.7071 -0.0000 0.7071
vn -0.9871 -0.0000 0.1602
vn 0.2540 0.6132 -0.7480
vn -0.0000 0.6637 -0.7480
vn -0.0000 0.8803 -0.4745
vn 0.3369 0.8133 -0.4745
vn -0.2540 0.6132 0.7480
vn -0.3369 0.8133 0.4745
vn -0.6224 0.6224 0.4745
vn -0.4693 0.4693 0.7480
vn 0.4693 0.4693 0.7480
vn 0.6224 0.6224 0.4745
vn 0.3369 0.8133 0.4745
vn 0.2540 0.6132 0.7480
vn -0.0000 0.8803 0.4745
vn -0.0000 0.6637 0.7480
vn -0.5504 0.3335 -0.7654
vn -0.8156 0.4796 -0.3236
vn -0.6224 0.6224 -0.4745
vn -0.4693 0.4693 -0.7480
vn -0.0654 0.1579 0.9853
vn -0.1209 0.1209 0.9853
vn 0.0654 0.1579 0.9853
vn -0.0000 0.1709 0.9853
vn 0.1209 0.1209 0.9853
vn -0.6217 0.3406 0.7053
vn -0.5504 0.3335 0.7654
vn -0.8156 0.4796 0.3236
vn -0.8518 0.4732 0.2248
vn -0.0000 0.1709 -0.9853
vn 0.0654 0.1579 -0.9853
vn -0.0654 0.1579 -0.9853
vn 0.6217 0.3406 0.7053
vn 0.8518 0.4732 0.2248
vn 0.8156 0.4796 0.3236
vn 0.5504 0.3335 0.7654
vn -0.1698 0.0889 0.9815
vn -0.1360 0.0818 0.9873
vn 0.3530 0.9356 -0.0000
vn 0.4270 0.4270 -0.7971
vn 0.5082 0.3396 -0.7914
vn -0.3530 0.9356 -0.0000
vn 0.1698 0.0889 0.9815
vn 0.1360 0.0818 0.9873
vn -0.0000 0.6038 -0.7971
vn 0.2311 0.5578 -0.7972
vn -0.2540 0.6132 -0.7480
vn -0.3369 0.8133 -0.4745
vn 0.4693 0.4693 -0.7480
vn 0.6224 0.6224 -0.4745
vn 0.5504 0.3335 -0.7654
vn 0.8156 0.4796 -0.3236
vn -0.1209 0.1209 -0.9853
vn 0.1360 0.0818 -0.9873
vn 0.1209 0.1209 -0.9853
vn -0.1698 0.0889 -0.9815
vn -0.6217 0.3406 -0.7053
vn -0.1360 0.0818 -0.9873
vn -0.8518 0.4732 -0.2248
vn 0.1698 0.0889 -0.9815
vn 0.6217 0.3406 -0.7053
vn -0.5082 0.3396 0.7914
vn -0.4270 0.4270 0.7971
vn 0.4270 0.4270 0.7971
vn 0.5082 0.3396 0.7914
vn 0.2311 0.5578 0.7972
vn -0.0000 0.6038 0.7971
vn -0.2311 0.5579 0.7971
vn -0.7071 -0.0000 -0.7071
vn -0.1602 -0.0000 -0.9871
vn -0.5241 -0.0000 -0.8517
vn -0.5241 -0.0000 0.8517
vn -0.2311 0.5579 -0.7971
vn -0.9871 -0.0000 -0.1602
vn 0.8518 0.4732 -0.2248
vn -0.4270 0.4270 -0.7971
vn -0.1602 -0.0000 0.9871
vn 0.1602 -0.0000 0.9871
vn 0.1602 -0.0000 -0.9871
vn 0.9871 -0.0000 0.1602
vn 0.9871 -0.0000 -0.1602
vn 0.7071 -0.0000 -0.7071
vn -0.5082 0.3396 -0.7914
vn 0.7071 -0.0000 0.7071
vn 0.5241 -0.0000 -0.8517
vn -0.0000 -0.0000 -1.0000
vn 0.6728 0.6303 0.3875
vn 0.7497 0.6303 -0.2017
vn 0.3875 0.6303 -0.6728
vn -0.2017 0.6303 -0.7497
vn -0.6728 0.6303 -0.3875
vn -0.7497 0.6303 0.2017
vn -0.3875 0.6303 0.6728
vn 0.2017 0.6303 0.7497
vn 0.2598 -0.0000 0.9657
vn -0.4991 -0.0000 0.8665
vn -0.9657 -0.0000 0.2598
vn 0.8665 -0.0000 0.4991
vn 0.9657 -0.0000 -0.2598
vn -0.8665 -0.0000 -0.4991
vn -0.2598 -0.0000 -0.9657
vn 0.4991 -0.0000 -0.8665
vn -0.1912 0.6303 0.7525
vn 0.3968 0.6303 0.6673
vn 0.7525 0.6303 0.1912
vn 0.6673 0.6303 -0.3968
vn 0.1912 0.6303 -0.7525
vn -0.3968 0.6303 -0.6673
vn -0.7525 0.6303 -0.1912
vn -0.6673 0.6303 0.3968
vn -0.8595 -0.0000 0.5111
vn -0.9692 -0.0000 -0.2463
vn -0.5111 -0.0000 -0.8595
vn -0.2463 -0.0000 0.9692
vn 0.5111 -0.0000 0.8595
vn 0.2463 -0.0000 -0.9692
vn 0.8595 -0.0000 -0.5111
vn 0.9692 -0.0000 0.2463
vn 0.0994 0.6303 0.7700
vn 0.6147 0.6303 0.4742
vn 0.7700 0.6303 -0.0994
vn 0.4742 0.6303 -0.6147
vn -0.0994 0.6303 -0.7700
vn -0.6147 0.6303 -0.4742
vn -0.7700 0.6303 0.0994
vn -0.4742 0.6303 0.6147
vn -0.6108 -0.0000 0.7918
vn -0.9918 -0.0000 0.1280
vn -0.7918 -0.0000 -0.6108
vn 0.1280 -0.0000 0.9918
vn 0.7918 -0.0000 0.6108
vn -0.1280 -0.0000 -0.9918
vn 0.6108 -0.0000 -0.7918
vn 0.9918 -0.0000 -0.1280
vn 0.7272 0.6303 -0.2719
vn 0.3219 0.6303 -0.7065
vn -0.2719 0.6303 -0.7272
vn -0.7065 0.6303 -0.3219
vn -0.7272 0.6303 0.2719
vn -0.3219 0.6303 0.7065
vn 0.2719 0.6303 0.7272
vn 0.7065 0.6303 0.3219
vn 0.9100 -0.0000 0.4146
vn 0.3503 -0.0000 0.9366
vn -0.4146 -0.0000 0.9100
vn 0.9366 -0.0000 -0.3503
vn 0.4146 -0.0000 -0.9100
vn -0.9366 -0.0000 0.3503
vn -0.9100 -0.0000 -0.4146
vn -0.3503 -0.0000 -0.9366
vn 0.5241 -0.0000 0.8517
vn 0.7071 0.7071 -0.0000
vn 0.8315 0.5556 -0.0000
vn -0.7071 0.7071 -0.0000
vn -0.8315 0.5556 -0.0000
vn -0.3827 0.9239 -0.0000
vn 0.3827 0.9239 -0.0000
vn 0.9071 0.4208 -0.0000
vn 0.8512 0.5248 -0.0000
vn 0.7647 0.4693 0.4415
vn 0.4535 0.4208 0.7856
vn 0.4256 0.5248 0.7372
vn -0.9071 0.4208 -0.0000
vn -0.7647 0.4693 0.4415
vn -0.8556 0.5169 -0.0289
vn -0.4911 0.4754 -0.7300
vn -0.7680 0.4756 -0.4289
vn -0.4272 0.5283 -0.7338
vn -0.4256 0.5248 0.7372
vn -0.0000 0.4693 -0.8830
vn -0.4536 0.4208 0.7856
vn -0.0000 0.4693 0.8830
vn 0.7647 0.4693 -0.4415
vn 0.4536 0.4208 -0.7856
vn 0.4256 0.5248 -0.7372
vn -0.0000 0.9902 0.1398
vn 0.0223 0.9820 0.1876
vn -0.0223 0.9820 0.1876
vn -0.0000 0.7071 0.7071
vn -0.0000 0.9239 0.3827
vn -0.0000 -0.7071 0.7071
vn -0.0000 -0.9239 0.3827
vn -0.0000 -0.7071 -0.7071
vn -0.0000 -0.9239 -0.3827
vn -0.0000 -0.3827 0.9239
vn -0.0000 0.3827 -0.9239
vn -0.0000 0.7071 -0.7071
vn -0.0000 -0.3827 -0.9239
vn -0.0000 0.9239 -0.3827
vn -0.0000 0.3827 0.9239
vn -0.9239 -0.3827 -0.0000
vn 0.3827 -0.9239 -0.0000
vn -0.3827 -0.9239 -0.0000
vn -0.9239 0.3827 -0.0000
vn 0.9239 0.3827 -0.0000
vn 0.9239 -0.3827 -0.0000
vn -0.0000 -0.3392 -0.9407
vn -0.2398 -0.2398 -0.9407
vn -0.3392 -0.0000 -0.9407
vn 0.2398 -0.2398 -0.9407
vn 0.3774 -0.3774 -0.8456
vn -0.0000 -0.5338 -0.8456
vn 0.3392 -0.0000 -0.9407
vn 0.5338 -0.0000 -0.8456
vn -0.3774 -0.3774 -0.8456
vn -0.5338 -0.0000 -0.8456
vn -0.2398 0.2398 -0.9407
vn -0.0000 0.3392 -0.9407
vn 0.2398 0.2398 -0.9407
vn -0.3774 0.3774 -0.8456
vn -0.0000 0.5338 -0.8456
vn 0.3774 0.3774 -0.8456
vn 0.6303 -0.6728 0.3875
vn 0.6303 -0.7497 -0.2017
vn 0.6303 -0.3875 -0.6728
vn 0.6303 0.2017 -0.7497
vn 0.6303 0.6728 -0.3875
vn 0.6303 0.7497 0.2017
vn 0.6303 0.3875 0.6728
vn 0.6303 -0.2017 0.7497
vn -0.0000 -0.2598 0.9657
vn -0.0000 0.4991 0.8665
vn -0.0000 0.9657 0.2598
vn -0.0000 -0.8665 0.4991
vn -0.0000 -0.9657 -0.2598
vn -0.0000 0.8665 -0.4991
vn -0.0000 0.2598 -0.9657
vn -0.0000 -0.4991 -0.8665
vn -0.6303 0.6728 0.3875
vn -0.6303 0.7497 -0.2017
vn -0.6303 0.3875 -0.6728
vn -0.6303 -0.2017 -0.7497
vn -0.6303 -0.6728 -0.3875
vn -0.6303 -0.7497 0.2017
vn -0.6303 -0.3875 0.6728
vn -0.6303 0.2017 0.7497
vn -0.0000 0.2598 0.9657
vn -0.0000 -0.4991 0.8665
vn -0.0000 -0.9657 0.2598
vn -0.0000 0.8665 0.4991
vn -0.0000 0.9657 -0.2598
vn -0.0000 -0.8665 -0.4991
vn -0.0000 -0.2598 -0.9657
vn -0.0000 0.4991 -0.8665
vn -0.0000 0.9397 0.3420
vn -0.0000 -0.3420 0.9397
vn -0.0000 0.3420 -0.9397
vn -0.7894 0.2100 -0.5769
vn 0.7840 -0.2123 0.5833
vn -0.0000 -0.9397 -0.3420
vn 0.7894 0.2100 -0.5769
vn -0.7840 -0.2123 0.5833
vt 0.820312 0.017578
vt 0.962527 0.177636
vt 0.962528 0.124631
vt 1.000000 0.177600
vt 1.000000 0.124631
vt 0.820312 0.138672
vt 0.820312 0.138672
vt 0.962528 0.242396
vt 0.962528 0.177636
vt 1.000000 0.242396
vt 0.820312 0.017578
vt 1.000000 0.177600
vt 0.943359 0.000000
vt 0.945312 0.017578
vt 0.945312 0.138672
vt 1.000000 0.000000
vt 0.943359 0.000000
vt 0.945312 0.138672
vt 1.000000 0.000000
vt 0.945312 0.017578
vt 0.873047 0.138672
vt 0.820312 0.138672
vt 1.000000 0.124768
vt 0.873047 0.017578
vt 0.943359 0.124808
vt 0.820312 0.017578
vt 0.873047 0.017578
vt 1.000000 0.124768
vt 0.820312 0.017578
vt 0.873047 0.138672
vt 0.943359 0.124808
vt 0.820312 0.138672
vt 0.666581 0.288316
vt 0.687338 0.370272
vt 0.687338 0.363004
vt 0.666581 0.295583
vt 0.573083 0.293757
vt 0.673169 0.288316
vt 0.693926 0.370272
vt 0.673169 0.295583
vt 0.570785 0.300652
vt 0.579977 0.291459
vt 0.693926 0.363004
vt 0.687338 0.369941
vt 0.573083 0.392165
vt 0.673169 0.387469
vt 0.579977 0.394463
vt 0.687338 0.362674
vt 0.570785 0.385270
vt 0.673169 0.380202
vt 0.693926 0.369941
vt 0.666581 0.387469
vt 0.666581 0.380202
vt 0.693926 0.362674
vt 0.673044 0.288316
vt 0.687338 0.290324
vt 0.673044 0.295583
vt 0.687338 0.297591
vt 0.652285 0.293757
vt 0.666456 0.288316
vt 0.693926 0.290324
vt 0.645391 0.291459
vt 0.693926 0.297591
vt 0.654583 0.300652
vt 0.666456 0.295583
vt 0.673044 0.387469
vt 0.693926 0.289993
vt 0.693926 0.297261
vt 0.673044 0.380202
vt 0.652285 0.392165
vt 0.666456 0.387469
vt 0.687338 0.289993
vt 0.666456 0.380202
vt 0.654583 0.385270
vt 0.645391 0.394463
vt 0.687338 0.297261
vt 0.579977 0.385270
vt 0.579977 0.300652
vt 0.645391 0.300652
vt 0.645391 0.385270
vt 0.604158 0.084074
vt 0.611623 0.087754
vt 0.590927 0.074540
vt 0.579379 0.019315
vt 0.582667 0.062009
vt 0.572761 0.032395
vt 0.579629 0.047151
vt 0.570481 0.046875
vt 0.582498 0.032189
vt 0.572761 0.061355
vt 0.590752 0.019361
vt 0.579379 0.074435
vt 0.604141 0.009676
vt 0.603221 0.087754
vt 0.593636 0.071968
vt 0.586149 0.060532
vt 0.583437 0.047090
vt 0.586060 0.033573
vt 0.593603 0.021976
vt 0.598359 0.067489
vt 0.592112 0.058037
vt 0.589921 0.047026
vt 0.592122 0.035969
vt 0.598367 0.026388
vt 0.605421 0.080278
vt 0.605419 0.013506
vt 0.606113 0.072211
vt 0.606113 0.021619
vt 0.607871 0.014283
vt 0.596861 0.079234
vt 0.584512 0.014134
vt 0.603221 0.087754
vt 0.598792 0.075976
vt 0.601583 0.069783
vt 0.601585 0.024068
vt 0.598753 0.017861
vt 0.755082 0.383634
vt 0.584512 0.079616
vt 0.596783 0.014567
vt 0.611623 0.087754
vt 0.581156 0.020596
vt 0.583145 0.485829
vt 0.585769 0.015940
vt 0.579375 0.491472
vt 0.606113 0.015606
vt 0.585769 0.077810
vt 0.753324 0.382311
vt 0.639375 0.491472
vt 0.581156 0.073154
vt 0.635605 0.485829
vt 0.574846 0.060682
vt 0.623570 0.477788
vt 0.572672 0.046875
vt 0.609375 0.474965
vt 0.574845 0.033068
vt 0.595180 0.477788
vt 0.597740 0.014516
vt 0.607871 0.069244
vt 0.603221 0.142715
vt 0.584512 0.079616
vt 0.605037 0.009676
vt 0.611623 0.142715
vt 0.574845 0.060682
vt 0.595180 0.477788
vt 0.581156 0.073154
vt 0.583145 0.485829
vt 0.572672 0.046875
vt 0.609375 0.474965
vt 0.574846 0.033068
vt 0.623570 0.477788
vt 0.581156 0.020596
vt 0.635605 0.485829
vt 0.585769 0.015940
vt 0.753324 0.329996
vt 0.639375 0.491472
vt 0.591806 0.019210
vt 0.579379 0.074435
vt 0.572761 0.061355
vt 0.583546 0.031741
vt 0.587028 0.033218
vt 0.594515 0.021782
vt 0.570481 0.046875
vt 0.580508 0.046599
vt 0.584316 0.046660
vt 0.583377 0.061561
vt 0.572761 0.032394
vt 0.586939 0.060177
vt 0.579379 0.019315
vt 0.591631 0.074389
vt 0.594482 0.071774
vt 0.584512 0.014134
vt 0.755082 0.328673
vt 0.597662 0.079183
vt 0.611623 0.142715
vt 0.599632 0.075889
vt 0.592992 0.035713
vt 0.599238 0.026261
vt 0.590801 0.046724
vt 0.593001 0.057781
vt 0.599246 0.067362
vt 0.602464 0.069682
vt 0.599671 0.017774
vt 0.606300 0.013472
vt 0.602462 0.023967
vt 0.606992 0.021539
vt 0.585769 0.077810
vt 0.579375 0.491472
vt 0.606113 0.067921
vt 0.605020 0.084074
vt 0.603221 0.142715
vt 0.606298 0.080244
vt 0.606992 0.072131
vt 0.450919 0.220703
vt 0.453549 0.220703
vt 0.448705 0.215357
vt 0.453549 0.215357
vt 0.453549 0.226049
vt 0.448705 0.226049
vt 0.453549 0.226049
vt 0.443359 0.213143
vt 0.453549 0.220703
vt 0.438014 0.215357
vt 0.453549 0.215357
vt 0.435799 0.220703
vt 0.453549 0.220703
vt 0.443359 0.228263
vt 0.453549 0.220703
vt 0.438014 0.226049
vt 0.453549 0.215357
vt 0.453549 0.226049
vt 0.456573 0.220703
vt 0.456573 0.215357
vt 0.456573 0.226049
vt 0.456573 0.226049
vt 0.456573 0.220703
vt 0.456573 0.215357
vt 0.456573 0.220703
vt 0.456573 0.220703
vt 0.456573 0.215357
vt 0.456573 0.226049
vt 0.450919 0.220703
vt 0.453549 0.220703
vt 0.448705 0.215357
vt 0.453549 0.215357
vt 0.453549 0.226049
vt 0.448705 0.226049
vt 0.453549 0.226049
vt 0.443359 0.213143
vt 0.453549 0.220703
vt 0.438014 0.215357
vt 0.453549 0.215357
vt 0.435799 0.220703
vt 0.453549 0.220703
vt 0.443359 0.228263
vt 0.453549 0.220703
vt 0.438014 0.226049
vt 0.453549 0.215357
vt 0.453549 0.226049
vt 0.456573 0.220703
vt 0.456573 0.215357
vt 0.456573 0.226049
vt 0.456573 0.226049
vt 0.456573 0.220703
vt 0.456573 0.215357
vt 0.456573 0.220703
vt 0.456573 0.220703
vt 0.456573 0.215357
vt 0.456573 0.226049
vt 0.450919 0.220703
vt 0.453549 0.220703
vt 0.448705 0.215357
vt 0.453549 0.215357
vt 0.453549 0.226049
vt 0.448705 0.226049
vt 0.453549 0.226049
vt 0.443359 0.213143
vt 0.453549 0.220703
vt 0.438014 0.215357
vt 0.453549 0.215357
vt 0.435799 0.220703
vt 0.453549 0.220703
vt 0.443359 0.228263
vt 0.453549 0.220703
vt 0.438014 0.226049
vt 0.453549 0.215357
vt 0.453549 0.226049
vt 0.456573 0.220703
vt 0.456573 0.215357
vt 0.456573 0.226049
vt 0.456573 0.226049
vt 0.456573 0.220703
vt 0.456573 0.215357
vt 0.456573 0.220703
vt 0.456573 0.220703
vt 0.456573 0.215357
vt 0.456573 0.226049
vt 0.450919 0.220703
vt 0.453549 0.220703
vt 0.448705 0.215357
vt 0.453549 0.215357
vt 0.453549 0.226049
vt 0.448705 0.226049
vt 0.453549 0.226049
vt 0.443359 0.213143
vt 0.453549 0.220703
vt 0.438014 0.215357
vt 0.453549 0.215357
vt 0.435799 0.220703
vt 0.453549 0.220703
vt 0.443359 0.228263
vt 0.453549 0.220703
vt 0.438014 0.226049
vt 0.453549 0.215357
vt 0.453549 0.226049
vt 0.456573 0.220703
vt 0.456573 0.215357
vt 0.456573 0.226049
vt 0.456573 0.226049
vt 0.456573 0.220703
vt 0.456573 0.215357
vt 0.456573 0.220703
vt 0.456573 0.220703
vt 0.456573 0.215357
vt 0.456573 0.226049
vt 0.941406 0.242188
vt 0.579375 0.493785
vt 0.606660 0.015606
vt 0.941406 0.238281
vt 0.583145 0.493785
vt 0.579375 0.493785
vt 0.886719 0.242188
vt 0.606660 0.067921
vt 0.941406 0.179688
vt 0.635605 0.493785
vt 0.753871 0.382311
vt 0.941406 0.173828
vt 0.639375 0.493785
vt 0.941406 0.191406
vt 0.623570 0.493785
vt 0.609375 0.493785
vt 0.941406 0.208984
vt 0.941406 0.224609
vt 0.595180 0.493785
vt 0.886719 0.238281
vt 0.583145 0.493785
vt 0.886719 0.224609
vt 0.595180 0.493785
vt 0.886719 0.208984
vt 0.609375 0.493785
vt 0.886719 0.191406
vt 0.623570 0.493785
vt 0.886719 0.179688
vt 0.635605 0.493785
vt 0.753871 0.329996
vt 0.639375 0.493785
vt 0.886719 0.173828
vt 0.617188 0.625000
vt 0.617188 0.648438
vt 0.617188 0.351562
vt 0.617188 0.375000
vt 0.617188 0.437500
vt 0.617188 0.500000
vt 0.617188 0.562500
vt 0.382812 0.562500
vt 0.382812 0.625000
vt 0.382812 0.500000
vt 0.382812 0.437500
vt 0.382812 0.375000
vt 0.382812 0.351562
vt 0.382812 0.648438
vt 0.632444 0.450540
vt 0.637540 0.450427
vt 0.641881 0.453108
vt 0.644657 0.457389
vt 0.644657 0.462486
vt 0.642307 0.467025
vt 0.637816 0.469484
vt 0.628293 0.466999
vt 0.625535 0.462665
vt 0.625598 0.457533
vt 0.632687 0.469660
vt 0.684071 0.453673
vt 0.633678 0.455138
vt 0.689201 0.456635
vt 0.638473 0.456592
vt 0.689201 0.462558
vt 0.640032 0.461353
vt 0.684071 0.465520
vt 0.636548 0.464836
vt 0.678941 0.462558
vt 0.631685 0.463532
vt 0.678941 0.456635
vt 0.630273 0.458699
vt 0.627958 0.452989
vt 0.632444 0.450540
vt 0.637540 0.450427
vt 0.641881 0.453108
vt 0.644657 0.457389
vt 0.644657 0.462486
vt 0.642307 0.467025
vt 0.637816 0.469484
vt 0.628293 0.466999
vt 0.625535 0.462665
vt 0.625598 0.457533
vt 0.632687 0.469660
vt 0.684071 0.453673
vt 0.633678 0.455138
vt 0.689201 0.456635
vt 0.638473 0.456592
vt 0.689201 0.462558
vt 0.640032 0.461353
vt 0.684071 0.465520
vt 0.636548 0.464836
vt 0.678941 0.462558
vt 0.631685 0.463532
vt 0.678941 0.456635
vt 0.630273 0.458699
vt 0.627958 0.452989
vt 0.764311 0.368745
vt 0.714574 0.190334
vt 0.761616 0.218549
vt 0.764311 0.308743
vt 0.761616 0.278552
vt 0.715486 0.190334
vt 0.701458 0.000000
vt 0.775467 0.190391
vt 0.701767 0.207319
vt 0.772691 0.000000
vt 0.701767 0.278552
vt 0.775335 0.190334
vt 0.755355 0.368745
vt 0.714564 0.199289
vt 0.675752 0.000000
vt 0.755355 0.308743
vt 0.615749 0.000000
vt 0.715486 0.199289
vt 0.615749 0.051705
vt 0.767192 0.199289
vt 0.767243 0.199346
vt 0.685833 0.051705
vt 0.710862 0.308934
vt 0.714516 0.327481
vt 0.761663 0.218550
vt 0.675752 0.275834
vt 0.701907 0.308934
vt 0.714506 0.318526
vt 0.701458 0.137031
vt 0.775409 0.327425
vt 0.701815 0.207319
vt 0.715486 0.327365
vt 0.710862 0.368937
vt 0.761663 0.278552
vt 0.715487 0.318410
vt 0.615749 0.275834
vt 0.701907 0.368937
vt 0.615749 0.224129
vt 0.615749 0.170826
vt 0.767192 0.318410
vt 0.772691 0.137031
vt 0.701815 0.278552
vt 0.775335 0.327365
vt 0.685833 0.224129
vt 0.685833 0.170826
vt 0.767185 0.318469
vt 0.564375 0.040000
vt 0.564375 0.050000
vt 0.564375 0.060000
vt 0.564375 0.070000
vt 0.564375 0.080000
vt 0.564375 0.090000
vt 0.564375 0.100000
vt 0.564375 0.110000
vt 0.564375 0.120000
vt 0.564375 0.130000
vt 0.564375 0.140000
vt 0.564375 0.150000
vt 0.564375 0.000000
vt 0.564375 0.160000
vt 0.564375 0.010000
vt 0.564375 0.020000
vt 0.564375 0.030000
vt 0.561440 0.040000
vt 0.610898 0.434512
vt 0.561440 0.050000
vt 0.607072 0.443751
vt 0.561440 0.060000
vt 0.600000 0.450822
vt 0.561440 0.070000
vt 0.590762 0.454648
vt 0.561440 0.080000
vt 0.580762 0.454648
vt 0.561440 0.090000
vt 0.571523 0.450822
vt 0.561440 0.100000
vt 0.564452 0.443750
vt 0.561440 0.110000
vt 0.560625 0.434512
vt 0.561440 0.120000
vt 0.560625 0.424512
vt 0.561440 0.130000
vt 0.564452 0.415273
vt 0.571523 0.408202
vt 0.561440 0.140000
vt 0.580762 0.404375
vt 0.561440 0.150000
vt 0.561440 0.000000
vt 0.561440 0.160000
vt 0.590762 0.404375
vt 0.561440 0.010000
vt 0.600001 0.408202
vt 0.561440 0.020000
vt 0.607072 0.415273
vt 0.561440 0.030000
vt 0.610898 0.424512
vt 0.564375 0.110000
vt 0.564375 0.120000
vt 0.564375 0.100000
vt 0.564375 0.090000
vt 0.564375 0.080000
vt 0.564375 0.070000
vt 0.564375 0.060000
vt 0.564375 0.050000
vt 0.564375 0.040000
vt 0.564375 0.030000
vt 0.564375 0.020000
vt 0.564375 0.010000
vt 0.564375 0.160000
vt 0.564375 0.000000
vt 0.564375 0.150000
vt 0.564375 0.140000
vt 0.564375 0.130000
vt 0.561095 0.110000
vt 0.610898 0.434512
vt 0.561095 0.120000
vt 0.607072 0.443750
vt 0.610898 0.424512
vt 0.561095 0.100000
vt 0.561095 0.090000
vt 0.607072 0.415273
vt 0.561095 0.080000
vt 0.600001 0.408202
vt 0.561095 0.070000
vt 0.590762 0.404375
vt 0.580762 0.404375
vt 0.561095 0.060000
vt 0.561095 0.050000
vt 0.571523 0.408202
vt 0.561095 0.040000
vt 0.564452 0.415273
vt 0.561095 0.030000
vt 0.560625 0.424512
vt 0.561095 0.020000
vt 0.560625 0.434512
vt 0.561095 0.010000
vt 0.564452 0.443750
vt 0.561095 0.160000
vt 0.561095 0.000000
vt 0.571523 0.450822
vt 0.561095 0.150000
vt 0.580762 0.454648
vt 0.561095 0.140000
vt 0.590762 0.454648
vt 0.561095 0.130000
vt 0.600001 0.450822
vt 0.772085 0.637242
vt 0.772085 0.690943
vt 0.772085 0.677564
vt 0.772085 0.664184
vt 0.772085 0.650805
vt 0.772085 0.690760
vt 0.772085 0.637425
vt 0.772085 0.677380
vt 0.772085 0.664001
vt 0.772085 0.650621
vt 0.777259 0.637242
vt 0.777259 0.690943
vt 0.750523 0.683224
vt 0.777259 0.677564
vt 0.741062 0.692685
vt 0.777259 0.664184
vt 0.727683 0.692685
vt 0.777259 0.650805
vt 0.718222 0.683224
vt 0.777259 0.690760
vt 0.777259 0.637425
vt 0.718222 0.669845
vt 0.777259 0.677380
vt 0.727683 0.660384
vt 0.777259 0.664001
vt 0.741062 0.660384
vt 0.777259 0.650621
vt 0.750523 0.669845
vt 0.772085 0.611103
vt 0.772085 0.537032
vt 0.745549 0.681164
vt 0.739002 0.687711
vt 0.772085 0.546291
vt 0.772085 0.555550
vt 0.729743 0.687711
vt 0.723196 0.681164
vt 0.772085 0.564809
vt 0.723196 0.671905
vt 0.772085 0.574068
vt 0.729743 0.665358
vt 0.772085 0.583326
vt 0.739002 0.665358
vt 0.772085 0.592585
vt 0.772085 0.601844
vt 0.745549 0.671905
vt 0.764023 0.611103
vt 0.764023 0.537032
vt 0.739601 0.556440
vt 0.764023 0.546291
vt 0.739601 0.546816
vt 0.764023 0.555550
vt 0.746406 0.540011
vt 0.756030 0.540011
vt 0.764023 0.564809
vt 0.762835 0.546816
vt 0.764023 0.574068
vt 0.762835 0.556440
vt 0.764023 0.583326
vt 0.756030 0.563245
vt 0.764023 0.592585
vt 0.764023 0.601844
vt 0.746406 0.563245
vt 0.742510 0.555187
vt 0.742544 0.547987
vt 0.747659 0.542920
vt 0.754859 0.542954
vt 0.759926 0.548069
vt 0.759892 0.555269
vt 0.754777 0.560337
vt 0.747577 0.560303
vt 0.744627 0.554319
vt 0.747438 0.549524
vt 0.744655 0.548871
vt 0.747417 0.552799
vt 0.748527 0.545038
vt 0.749306 0.555457
vt 0.752434 0.555753
vt 0.753975 0.545065
vt 0.754856 0.553644
vt 0.757808 0.548937
vt 0.757780 0.554386
vt 0.755109 0.550362
vt 0.753908 0.558219
vt 0.753020 0.547825
vt 0.748460 0.558191
vt 0.749832 0.547487
vt 0.739964 0.323470
vt 0.739575 0.546815
vt 0.739964 0.328993
vt 0.739739 0.556282
vt 0.736060 0.332897
vt 0.746342 0.563244
vt 0.730537 0.332897
vt 0.755978 0.563331
vt 0.726633 0.328993
vt 0.762783 0.556486
vt 0.726633 0.323470
vt 0.762783 0.546812
vt 0.730537 0.319566
vt 0.755970 0.539915
vt 0.736060 0.319566
vt 0.746279 0.539900
vt 0.772085 0.637242
vt 0.772085 0.690943
vt 0.772085 0.677564
vt 0.772085 0.664184
vt 0.772085 0.650805
vt 0.772085 0.690760
vt 0.772085 0.637425
vt 0.772085 0.677380
vt 0.772085 0.664001
vt 0.772085 0.650621
vt 0.777259 0.637242
vt 0.777259 0.690943
vt 0.750523 0.683224
vt 0.777259 0.677564
vt 0.741062 0.692685
vt 0.777259 0.664184
vt 0.727683 0.692685
vt 0.777259 0.650805
vt 0.718222 0.683224
vt 0.777259 0.690760
vt 0.777259 0.637425
vt 0.718222 0.669845
vt 0.777259 0.677380
vt 0.727683 0.660384
vt 0.777259 0.664001
vt 0.741062 0.660384
vt 0.777259 0.650621
vt 0.750523 0.669845
vt 0.772085 0.611103
vt 0.772085 0.537032
vt 0.745549 0.681164
vt 0.739002 0.687711
vt 0.772085 0.546291
vt 0.772085 0.555550
vt 0.729743 0.687711
vt 0.723196 0.681164
vt 0.772085 0.564809
vt 0.723196 0.671905
vt 0.772085 0.574068
vt 0.729743 0.665358
vt 0.772085 0.583326
vt 0.739002 0.665358
vt 0.772085 0.592585
vt 0.772085 0.601844
vt 0.745549 0.671905
vt 0.764023 0.611103
vt 0.764023 0.537032
vt 0.739601 0.556440
vt 0.764023 0.546291
vt 0.739601 0.546816
vt 0.764023 0.555550
vt 0.746406 0.540011
vt 0.756030 0.540011
vt 0.764023 0.564809
vt 0.762835 0.546816
vt 0.764023 0.574068
vt 0.762835 0.556440
vt 0.764023 0.583326
vt 0.756030 0.563245
vt 0.764023 0.592585
vt 0.764023 0.601844
vt 0.746406 0.563245
vt 0.742510 0.555187
vt 0.742544 0.547987
vt 0.747659 0.542920
vt 0.754859 0.542954
vt 0.759926 0.548069
vt 0.759892 0.555269
vt 0.754777 0.560337
vt 0.747577 0.560303
vt 0.744627 0.554319
vt 0.747438 0.549524
vt 0.744655 0.548871
vt 0.747417 0.552799
vt 0.748527 0.545038
vt 0.749306 0.555457
vt 0.752434 0.555753
vt 0.753975 0.545065
vt 0.754856 0.553644
vt 0.757808 0.548937
vt 0.757780 0.554386
vt 0.755109 0.550362
vt 0.753908 0.558219
vt 0.753020 0.547825
vt 0.748460 0.558191
vt 0.749832 0.547487
vt 0.739964 0.323470
vt 0.739575 0.546815
vt 0.739964 0.328993
vt 0.739739 0.556282
vt 0.736060 0.332897
vt 0.746342 0.563244
vt 0.730537 0.332897
vt 0.755978 0.563331
vt 0.726633 0.328993
vt 0.762783 0.556486
vt 0.726633 0.323470
vt 0.762783 0.546812
vt 0.730537 0.319566
vt 0.755970 0.539915
vt 0.736060 0.319566
vt 0.746279 0.539900
vt 0.450919 0.220703
vt 0.453549 0.220703
vt 0.448705 0.215357
vt 0.453549 0.215357
vt 0.453549 0.226049
vt 0.448705 0.226049
vt 0.453549 0.226049
vt 0.443359 0.213143
vt 0.453549 0.220703
vt 0.438014 0.215357
vt 0.453549 0.215357
vt 0.435799 0.220703
vt 0.453549 0.220703
vt 0.443359 0.228263
vt 0.453549 0.220703
vt 0.438014 0.226049
vt 0.453549 0.215357
vt 0.453549 0.226049
vt 0.456573 0.220703
vt 0.456573 0.215357
vt 0.456573 0.226049
vt 0.456573 0.226049
vt 0.456573 0.220703
vt 0.456573 0.215357
vt 0.456573 0.220703
vt 0.456573 0.220703
vt 0.456573 0.215357
vt 0.456573 0.226049
vt 0.450919 0.220703
vt 0.453549 0.220703
vt 0.448705 0.215357
vt 0.453549 0.215357
vt 0.453549 0.226049
vt 0.448705 0.226049
vt 0.453549 0.226049
vt 0.443359 0.213143
vt 0.453549 0.220703
vt 0.438014 0.215357
vt 0.453549 0.215357
vt 0.435799 0.220703
vt 0.453549 0.220703
vt 0.443359 0.228263
vt 0.453549 0.220703
vt 0.438014 0.226049
vt 0.453549 0.215357
vt 0.453549 0.226049
vt 0.456573 0.220703
vt 0.456573 0.215357
vt 0.456573 0.226049
vt 0.456573 0.226049
vt 0.456573 0.220703
vt 0.456573 0.215357
vt 0.456573 0.220703
vt 0.456573 0.220703
vt 0.456573 0.215357
vt 0.456573 0.226049
vt 0.702144 0.516637
vt 0.702144 0.517275
vt 0.702144 0.516637
vt 0.702144 0.516697
vt 0.702235 0.517275
vt 0.702144 0.516697
vt 0.702264 0.516637
vt 0.702264 0.517275
vt 0.702264 0.516637
vt 0.702264 0.516697
vt 0.702235 0.517275
vt 0.702264 0.516697
vt 0.702175 0.516058
vt 0.701639 0.516058
vt 0.701639 0.516637
vt 0.702235 0.516058
vt 0.701639 0.516697
vt 0.702175 0.516058
vt 0.701786 0.516058
vt 0.701786 0.516637
vt 0.702119 0.516637
vt 0.702119 0.516478
vt 0.702235 0.516058
vt 0.701786 0.516697
vt 0.702235 0.516478
vt 0.702119 0.516697
vt 0.702119 0.516478
vt 0.702175 0.516598
vt 0.702059 0.516637
vt 0.702235 0.516598
vt 0.702059 0.516697
vt 0.702659 0.516637
vt 0.702175 0.516478
vt 0.702659 0.516478
vt 0.702659 0.516697
vt 0.702235 0.516478
vt 0.702659 0.516478
vt 0.702175 0.516598
vt 0.702659 0.516637
vt 0.702235 0.516598
vt 0.702659 0.516697
vt 0.702175 0.516058
vt 0.702770 0.516058
vt 0.702770 0.516637
vt 0.702235 0.516058
vt 0.702770 0.516697
vt 0.702175 0.516058
vt 0.702623 0.516058
vt 0.702623 0.516637
vt 0.702175 0.516478
vt 0.702290 0.516637
vt 0.702290 0.516478
vt 0.702235 0.516058
vt 0.702623 0.516697
vt 0.702290 0.516697
vt 0.702290 0.516478
vt 0.702175 0.516598
vt 0.702350 0.516637
vt 0.702235 0.516598
vt 0.702350 0.516697
vt 0.701750 0.516637
vt 0.702175 0.516478
vt 0.701750 0.516478
vt 0.701750 0.516697
vt 0.702235 0.516478
vt 0.701750 0.516478
vt 0.702175 0.516598
vt 0.701750 0.516637
vt 0.702235 0.516598
vt 0.701750 0.516697
s 1
usemtl electronics_etx_part_1
f 111/198/94 109/193/95 110/195/96 112/200/97 113/202/98 114/204/99 116/208/100 115/206/101
f 122/217/102 115/207/101 116/209/100 124/219/103
f 124/220/103 116/210/100 114/205/99 123/218/104
f 115/207/101 122/217/102 119/214/105 111/199/94
f 111/199/94 119/214/105 117/211/106 109/194/95
f 123/218/104 114/205/99 113/203/98 121/216/107
f 121/216/107 113/203/98 112/201/97 120/215/108
f 109/194/95 117/211/106 118/212/109 110/196/96
f 110/197/96 118/213/109 120/215/108 112/201/97
f 127/226/110 125/221/111 126/223/112 128/228/113 129/230/114 130/232/115 132/236/116 131/234/117
f 138/245/118 131/235/117 132/237/116 140/247/119
f 140/248/119 132/238/116 130/233/115 139/246/120
f 131/235/117 138/245/118 135/242/121 127/227/110
f 127/227/110 135/242/121 133/239/122 125/222/111
f 139/246/120 130/233/115 129/231/114 137/244/123
f 137/244/123 129/231/114 128/229/113 136/243/124
f 125/222/111 133/239/122 134/240/125 126/224/112
f 126/225/112 134/241/125 136/243/124 128/229/113
f 143/254/126 141/249/127 142/251/128 144/256/129 145/258/130 146/260/131 148/264/132 147/262/133
f 154/273/134 147/263/133 148/265/132 156/275/135
f 156/276/135 148/266/132 146/261/131 155/274/136
f 147/263/133 154/273/134 151/270/137 143/255/126
f 143/255/126 151/270/137 149/267/138 141/250/127
f 155/274/136 146/261/131 145/259/130 153/272/139
f 153/272/139 145/259/130 144/257/129 152/271/140
f 141/250/127 149/267/138 150/268/141 142/252/128
f 142/253/128 150/269/141 152/271/140 144/257/129
f 159/282/142 157/277/143 158/279/144 160/284/145 161/286/146 162/288/147 164/292/148 163/290/149
f 170/301/150 163/291/149 164/293/148 172/303/151
f 172/304/151 164/294/148 162/289/147 171/302/152
f 163/291/149 170/301/150 167/298/153 159/283/142
f 159/283/142 167/298/153 165/295/154 157/278/143
f 171/302/152 162/289/147 161/287/146 169/300/155
f 169/300/155 161/287/146 160/285/145 168/299/156
f 157/278/143 165/295/154 166/296/157 158/280/144
f 158/281/144 166/297/157 168/299/156 160/285/145
f 431/754/220 429/749/221 430/751/222 432/756/223 433/758/224 434/760/225 436/764/226 435/762/227
f 442/773/228 435/763/227 436/765/226 444/775/229
f 444/776/229 436/766/226 434/761/225 443/774/230
f 435/763/227 442/773/228 439/770/231 431/755/220
f 431/755/220 439/770/231 437/767/232 429/750/221
f 443/774/230 434/761/225 433/759/224 441/772/233
f 441/772/233 433/759/224 432/757/223 440/771/234
f 429/750/221 437/767/232 438/768/235 430/752/222
f 430/753/222 438/769/235 440/771/234 432/757/223
f 447/782/236 445/777/237 446/779/238 448/784/239 449/786/240 450/788/241 452/792/242 451/790/243
f 458/801/244 451/791/243 452/793/242 460/803/245
f 460/804/245 452/794/242 450/789/241 459/802/246
f 451/791/243 458/801/244 455/798/247 447/783/236
f 447/783/236 455/798/247 453/795/248 445/778/237
f 459/802/246 450/789/241 449/787/240 457/800/249
f 457/800/249 449/787/240 448/785/239 456/799/250
f 445/778/237 453/795/248 454/796/251 446/780/238
f 446/781/238 454/797/251 456/799/250 448/785/239
usemtl electronics_etx_part_2
f 10/24/1 12/30/1 3/7/2 1/1/2
f 9/23/3 10/25/3 1/2/3 2/4/3
f 4/10/4 2/5/4 1/3/4 3/8/4
f 11/27/5 9/21/5 2/6/5 4/11/5
f 12/31/6 11/28/6 4/12/6 3/9/6
f 7/17/6 8/19/6 11/28/6 12/31/6
f 8/20/5 6/15/5 9/22/5 11/29/5
f 6/16/3 5/13/3 10/25/3 9/23/3
f 5/14/7 7/18/7 12/32/1 10/26/1
f 22/51/8 19/44/8 20/48/9 24/54/9
f 38/78/7 18/42/7 29/62/7 39/79/7
f 16/37/7 18/42/7 38/78/7 17/41/7
f 30/64/7 39/79/7 29/62/7 28/59/7
f 36/75/7 40/80/7 35/74/7 34/70/7
f 51/98/10 50/97/11 44/87/12 45/89/13
f 85/160/14 84/159/15 83/156/16 86/161/17
f 92/170/18 91/169/19 89/165/20 90/167/21
f 90/167/21 89/165/20 87/163/22 88/164/23
f 63/113/24 62/110/25 42/83/26 48/95/27
f 95/176/28 85/160/14 86/161/17 96/177/29
f 98/179/30 90/167/21 88/164/23 97/178/31
f 99/180/32 92/170/18 90/167/21 98/179/30
f 102/183/33 101/182/34 75/137/35 76/141/36
f 37/77/7 20/47/7 19/45/7 21/49/7
f 95/176/28 96/177/29 99/180/32 98/179/30
f 55/102/37 56/103/38 54/101/39
f 107/191/40 106/189/41 93/173/42 94/175/43
f 104/185/44 103/184/45 101/182/34 102/183/33
f 101/182/34 86/161/17 83/156/16 75/137/35
f 103/184/45 96/177/29 86/161/17 101/182/34
f 69/125/46 62/109/46 75/138/46 105/188/46
f 81/151/47 91/168/47 93/171/48 82/153/48
f 93/172/49 67/117/49 70/127/49 82/154/49
f 108/192/50 107/191/40 94/175/43 100/181/51
f 79/147/52 87/162/52 89/166/53 80/149/53
f 80/149/53 89/166/53 91/168/47 81/151/47
f 49/96/54 48/95/27 42/83/26 43/85/55
f 50/97/11 49/96/54 43/85/55 44/87/12
f 52/99/56 51/98/10 45/89/13 46/91/57
f 66/116/58 52/99/56 46/91/57 67/119/59
f 97/178/31 88/164/23 85/160/14 95/176/28
f 55/102/37 54/101/39 49/96/54 50/97/11
f 56/103/38 55/102/37 50/97/11 51/98/10
f 54/101/39 53/100/60 48/95/27 49/96/54
f 65/115/61 57/104/62 52/99/56 66/116/58
f 60/107/63 58/105/64 63/113/24 64/114/65
f 53/100/60 57/104/62 65/115/61 64/114/65
f 97/178/31 95/176/28 98/179/30
f 58/105/64 41/81/66 62/110/25 63/113/24
f 61/108/67 65/115/61 66/116/58 59/106/68
f 73/134/4 74/136/4 180/323/4 179/320/4
f 100/181/51 94/175/43 92/170/18 99/180/32
f 64/114/65 65/115/61 61/108/67 60/107/63
f 69/123/69 68/121/70 42/84/70 62/111/69
f 71/129/71 70/126/72 67/118/72 46/92/71
f 72/131/73 71/129/71 46/92/71 45/90/73
f 73/133/74 72/131/73 45/90/73 44/88/74
f 74/135/75 73/133/74 44/88/74 43/86/75
f 68/121/70 74/135/75 43/86/75 42/84/70
f 31/66/76 34/71/76 35/73/77 33/69/77
f 76/142/36 75/139/35 62/112/25 41/82/66
f 82/154/78 70/127/79 177/315/8 186/334/76
f 77/143/80 84/158/80 87/162/52 79/147/52
f 57/104/62 56/103/38 51/98/10 52/99/56
f 36/75/7 20/47/7 37/77/7 40/80/7
f 34/72/76 31/67/76 32/68/81 36/76/81
f 59/106/68 66/116/58 67/119/59 47/93/82
f 64/114/65 63/113/24 48/95/27 53/100/60
f 54/101/39 56/103/38 57/104/62 53/100/60
f 78/145/83 83/157/83 84/158/80 77/143/80
f 96/177/29 103/184/45 100/181/51 99/180/32
f 21/50/84 23/53/84 15/36/85 17/40/85
f 30/65/86 26/57/86 33/69/77 35/73/77
f 94/175/43 93/173/42 91/169/19 92/170/18
f 40/80/7 39/79/7 30/64/7 35/74/7
f 37/77/7 38/78/7 39/79/7 40/80/7
f 18/43/87 14/35/87 27/58/88 29/63/88
f 28/60/89 25/55/89 26/57/86 30/65/86
f 25/56/89 28/61/89 29/63/88 27/58/88
f 105/186/90 75/140/90 83/157/83 78/145/83
f 13/33/91 16/38/91 17/40/85 15/36/85
f 88/164/23 87/163/22 84/159/15 85/160/14
f 16/39/91 13/34/91 14/35/87 18/43/87
f 36/76/81 32/68/81 24/54/9 20/48/9
f 105/187/92 78/146/93 181/325/93 175/310/89
f 81/152/93 82/155/78 186/335/76 185/333/93
f 79/148/93 80/150/93 184/331/93 183/329/93
f 93/174/42 106/190/41 47/94/82 67/120/59
f 103/184/45 104/185/44 108/192/50 100/181/51
f 38/78/7 37/77/7 21/49/7 17/41/7
f 72/132/4 73/134/4 179/320/4 178/319/4
f 19/46/8 22/52/8 23/53/84 21/50/84
f 185/332/7 186/336/7 177/316/7 176/313/7
f 181/324/7 174/308/7 173/305/7 175/311/7
f 182/326/7 180/322/7 174/308/7 181/324/7
f 183/328/7 179/321/7 180/322/7 182/326/7
f 185/332/7 176/313/7 178/318/7 184/330/7
f 184/330/7 178/318/7 179/321/7 183/328/7
f 80/150/93 81/152/93 185/333/93 184/331/93
f 70/128/79 71/130/4 176/314/4 177/317/8
f 74/136/4 68/122/4 174/309/4 180/323/4
f 78/146/93 77/144/93 182/327/93 181/325/93
f 68/122/4 69/124/158 173/306/91 174/309/4
f 71/130/4 72/132/4 178/319/4 176/314/4
f 77/144/93 79/148/93 183/329/93 182/327/93
f 69/125/158 105/188/92 175/312/89 173/307/91
f 201/351/165 212/363/166 218/374/167
f 210/360/168 218/374/167 217/373/169
f 207/357/170 211/361/171 215/369/172
f 205/355/173 206/356/174 215/369/172 214/367/175
f 216/371/176 215/369/172 211/361/171
f 204/354/177 205/355/173 214/367/175
f 212/362/7 213/364/7 214/366/7 215/368/7
f 217/372/7 212/362/7 215/368/7 216/370/7
f 212/363/166 217/373/169 218/374/167
f 216/371/176 208/358/178 209/359/179
f 211/361/171 208/358/178 216/371/176
f 202/352/180 203/353/181 213/365/182
f 212/363/166 202/352/180 213/365/182
f 212/363/166 201/351/165 202/352/180
f 204/354/177 213/365/182 203/353/181
f 210/360/168 217/373/169 209/359/179
f 215/369/172 206/356/174 207/357/170
f 214/367/175 213/365/182 204/354/177
f 217/373/169 216/371/176 209/359/179
f 219/375/165 230/387/166 236/398/167
f 228/384/168 236/398/167 235/397/169
f 225/381/170 229/385/171 233/393/172
f 223/379/173 224/380/174 233/393/172 232/391/175
f 234/395/176 233/393/172 229/385/171
f 222/378/177 223/379/173 232/391/175
f 230/386/7 231/388/7 232/390/7 233/392/7
f 235/396/7 230/386/7 233/392/7 234/394/7
f 230/387/166 235/397/169 236/398/167
f 234/395/176 226/382/178 227/383/179
f 229/385/171 226/382/178 234/395/176
f 220/376/180 221/377/181 231/389/182
f 230/387/166 220/376/180 231/389/182
f 230/387/166 219/375/165 220/376/180
f 222/378/177 231/389/182 221/377/181
f 228/384/168 235/397/169 227/383/179
f 233/393/172 224/380/174 225/381/170
f 232/391/175 231/389/182 222/378/177
f 235/397/169 234/395/176 227/383/179
f 250/438/5 249/433/5 248/430/5 251/441/5
f 241/411/4 242/414/4 238/402/4 237/399/4
f 244/419/183 239/406/183 247/428/183 252/444/183
f 240/408/93 251/439/93 247/427/93 239/405/93
f 237/400/184 239/406/184 244/419/184 241/412/184
f 237/401/3 238/403/3 240/409/3 239/407/3
f 252/442/3 246/424/3 249/434/3 250/436/3
f 245/421/4 248/431/4 249/435/4 246/425/4
f 243/417/4 244/420/4 252/443/4 250/437/4
f 247/428/185 245/422/185 246/426/185 252/444/185
f 244/420/6 243/417/6 242/415/6 241/413/6
f 247/429/6 251/440/6 248/432/6 245/423/6
f 238/404/5 242/416/5 243/418/5 240/410/5
f 243/418/5 250/438/5 251/441/5 240/410/5
f 279/483/186 278/480/187 262/454/187 263/455/186
f 294/504/187 310/530/187 311/532/186 295/505/186
f 278/480/187 277/478/7 261/453/7 262/454/187
f 299/510/188 315/541/188 316/543/189 300/511/189
f 271/466/190 270/464/191 254/446/191 255/447/190
f 277/479/3 278/481/3 284/494/3 269/463/3
f 300/511/189 316/543/189 302/514/5 286/496/5
f 297/507/4 313/536/4 314/539/192 298/509/192
f 293/503/7 309/528/7 310/530/187 294/504/187
f 290/500/193 306/522/193 307/525/194 291/501/194
f 288/498/195 304/518/195 305/520/93 289/499/93
f 287/497/190 303/517/190 304/518/195 288/498/195
f 269/462/5 284/493/189 268/461/189 253/445/5
f 282/489/192 281/486/4 265/457/4 266/459/192
f 277/478/7 276/476/196 260/452/196 261/453/7
f 275/474/194 274/472/193 258/450/193 259/451/194
f 274/472/193 273/470/93 257/449/93 258/450/193
f 273/470/93 272/468/195 256/448/195 257/449/93
f 272/468/195 271/466/190 255/447/190 256/448/195
f 270/464/191 269/462/5 253/445/5 254/446/191
f 309/529/6 302/515/6 316/544/6 310/531/6
f 275/475/3 271/467/3 272/469/3 274/473/3
f 311/533/6 315/542/6 314/540/6 312/535/6
f 307/524/6 303/516/6 301/513/6 308/527/6
f 276/476/196 275/474/194 259/451/194 260/452/196
f 298/509/192 314/539/192 315/541/188 299/510/188
f 281/487/4 280/485/197 264/456/197 265/458/4
f 283/491/188 282/489/192 266/459/192 267/460/188
f 284/493/189 283/491/188 267/460/188 268/461/189
f 284/494/3 278/481/3 279/482/3 283/492/3
f 279/482/3 280/484/3 282/490/3 283/492/3
f 269/463/3 270/465/3 276/477/3 277/479/3
f 276/477/3 270/465/3 271/467/3 275/475/3
f 282/490/3 280/484/3 281/488/3
f 274/473/3 272/469/3 273/471/3
f 306/523/6 304/519/6 303/516/6 307/524/6
f 286/496/5 302/514/5 301/512/191 285/495/191
f 285/495/191 301/512/191 303/517/190 287/497/190
f 289/499/93 305/520/93 306/522/193 290/500/193
f 291/501/194 307/525/194 308/526/196 292/502/196
f 292/502/196 308/526/196 309/528/7 293/503/7
f 295/505/186 311/532/186 312/534/197 296/506/197
f 280/485/197 279/483/186 263/455/186 264/456/197
f 296/506/197 312/534/197 313/537/4 297/508/4
f 314/540/6 313/538/6 312/535/6
f 304/519/6 306/523/6 305/521/6
f 308/527/6 301/513/6 302/515/6 309/529/6
f 310/531/6 316/544/6 315/542/6 311/533/6
f 343/595/198 342/593/198 334/577/198 335/578/198
f 325/555/199 332/571/199 324/554/199 317/545/199
f 330/567/164 329/564/164 321/550/164 322/552/164
f 367/635/93 368/637/93 371/643/93 372/645/93
f 368/637/93 369/639/93 370/641/93 371/643/93
f 369/640/199 368/638/199 360/621/199 361/623/199
f 366/634/164 365/632/164 357/616/164 358/618/164
f 326/558/200 325/556/200 317/546/200 318/547/200
f 327/560/198 326/558/198 318/547/198 319/548/198
f 328/562/201 327/560/201 319/548/201 320/549/201
f 329/565/163 328/562/163 320/549/163 321/551/163
f 331/569/202 330/567/202 322/552/202 323/553/202
f 332/571/203 331/569/203 323/553/203 324/554/203
f 340/589/93 339/586/93 331/570/93 332/572/93
f 358/617/93 357/615/93 349/607/204 350/608/205
f 334/576/93 333/575/93 325/557/93 326/559/93
f 359/619/93 358/617/93 350/608/205 351/609/206
f 335/579/93 334/576/93 326/559/93 327/561/93
f 341/590/199 348/605/199 340/588/199 333/573/199
f 348/605/203 347/604/203 339/587/203 340/588/203
f 346/602/164 345/600/164 337/583/164 338/585/164
f 344/598/201 343/595/201 335/578/201 336/581/201
f 342/593/200 341/591/200 333/574/200 334/577/200
f 349/607/204 356/614/207 348/606/208 341/592/209
f 356/614/207 355/613/210 347/603/211 348/606/208
f 350/608/205 349/607/204 341/592/209 342/594/212
f 351/609/206 350/608/205 342/594/212 343/596/213
f 364/629/93 363/627/93 355/613/210 356/614/207
f 368/638/203 367/636/203 359/620/203 360/621/203
f 370/642/200 369/640/200 361/623/200 362/626/200
f 366/633/93 367/635/93 372/645/93 365/631/93
f 361/624/93 360/622/93 352/610/214 353/611/215
f 336/580/93 335/579/93 327/561/93 328/563/93
f 362/625/93 361/624/93 353/611/215 354/612/216
f 352/610/214 351/609/206 343/596/213 344/597/217
f 354/612/216 353/611/215 345/599/218 346/601/219
f 355/613/210 354/612/216 346/601/219 347/603/211
f 353/611/215 352/610/214 344/597/217 345/599/218
f 360/622/93 359/619/93 351/609/206 352/610/214
f 357/615/93 364/629/93 356/614/207 349/607/204
f 337/582/93 336/580/93 328/563/93 329/566/93
f 333/575/93 340/589/93 332/572/93 325/557/93
f 339/586/93 338/584/93 330/568/93 331/570/93
f 363/627/93 362/625/93 354/612/216 355/613/210
f 338/584/93 337/582/93 329/566/93 330/568/93
f 345/600/163 344/598/163 336/581/163 337/583/163
f 365/632/163 372/646/163 364/630/163 357/616/163
f 372/646/201 371/644/201 363/628/201 364/630/201
f 371/644/198 370/642/198 362/626/198 363/628/198
f 367/636/202 366/634/202 358/618/202 359/620/202
f 347/604/202 346/602/202 338/585/202 339/587/202
f 399/697/198 398/695/198 390/679/198 391/680/198
f 381/657/199 388/673/199 380/656/199 373/647/199
f 386/669/164 385/666/164 377/652/164 378/654/164
f 423/737/93 424/739/93 427/745/93 428/747/93
f 424/739/93 425/741/93 426/743/93 427/745/93
f 425/742/199 424/740/199 416/723/199 417/725/199
f 422/736/164 421/734/164 413/718/164 414/720/164
f 382/660/200 381/658/200 373/648/200 374/649/200
f 383/662/198 382/660/198 374/649/198 375/650/198
f 384/664/201 383/662/201 375/650/201 376/651/201
f 385/667/163 384/664/163 376/651/163 377/653/163
f 387/671/202 386/669/202 378/654/202 379/655/202
f 388/673/203 387/671/203 379/655/203 380/656/203
f 396/691/93 395/688/93 387/672/93 388/674/93
f 414/719/93 413/717/93 405/709/204 406/710/205
f 390/678/93 389/677/93 381/659/93 382/661/93
f 415/721/93 414/719/93 406/710/205 407/711/206
f 391/681/93 390/678/93 382/661/93 383/663/93
f 397/692/199 404/707/199 396/690/199 389/675/199
f 404/707/203 403/706/203 395/689/203 396/690/203
f 402/704/164 401/702/164 393/685/164 394/687/164
f 400/700/201 399/697/201 391/680/201 392/683/201
f 398/695/200 397/693/200 389/676/200 390/679/200
f 405/709/204 412/716/207 404/708/208 397/694/209
f 412/716/207 411/715/210 403/705/211 404/708/208
f 406/710/205 405/709/204 397/694/209 398/696/212
f 407/711/206 406/710/205 398/696/212 399/698/213
f 420/731/93 419/729/93 411/715/210 412/716/207
f 424/740/203 423/738/203 415/722/203 416/723/203
f 426/744/200 425/742/200 417/725/200 418/728/200
f 422/735/93 423/737/93 428/747/93 421/733/93
f 417/726/93 416/724/93 408/712/214 409/713/215
f 392/682/93 391/681/93 383/663/93 384/665/93
f 418/727/93 417/726/93 409/713/215 410/714/216
f 408/712/214 407/711/206 399/698/213 400/699/217
f 410/714/216 409/713/215 401/701/218 402/703/219
f 411/715/210 410/714/216 402/703/219 403/705/211
f 409/713/215 408/712/214 400/699/217 401/701/218
f 416/724/93 415/721/93 407/711/206 408/712/214
f 413/717/93 420/731/93 412/716/207 405/709/204
f 393/684/93 392/682/93 384/665/93 385/668/93
f 389/677/93 396/691/93 388/674/93 381/659/93
f 395/688/93 394/686/93 386/670/93 387/672/93
f 419/729/93 418/727/93 410/714/216 411/715/210
f 394/686/93 393/684/93 385/668/93 386/670/93
f 401/702/163 400/700/163 392/683/163 393/685/163
f 421/734/163 428/748/163 420/732/163 413/718/163
f 428/748/201 427/746/201 419/730/201 420/732/201
f 427/746/198 426/744/198 418/728/198 419/730/198
f 423/738/202 422/736/202 414/720/202 415/722/202
f 403/706/202 402/704/202 394/687/202 395/689/202
s 0
f 461/805/6 462/806/6 464/809/6 463/808/6
f 467/814/3 468/815/3 466/812/3 465/811/3
f 465/811/252 466/812/252 462/806/252 461/805/252
f 463/808/253 467/814/253 465/811/253 461/805/253
f 462/807/254 466/813/254 468/816/254 464/810/254
f 469/817/255 475/832/255 476/834/255 470/820/255
f 473/827/256 474/829/256 472/826/256 471/822/256
f 471/823/252 472/826/252 475/833/252 469/818/252
f 470/821/253 473/828/253 471/824/253 469/819/253
f 472/825/253 474/830/253 478/839/253 477/836/253
f 477/837/3 478/840/3 480/844/3 479/842/3
f 475/833/252 472/826/252 477/838/252 479/843/252
f 474/831/257 476/835/257 480/845/257 478/841/257
f 476/835/254 475/833/254 479/843/254 480/845/254
f 481/846/258 482/849/258 488/863/258 487/861/258
f 485/857/259 483/851/259 484/854/259 486/860/259
f 483/852/252 481/847/252 487/862/252 484/856/252
f 482/850/253 481/848/253 483/853/253 485/858/253
f 484/855/253 489/865/253 490/868/253 486/859/253
f 489/866/6 491/871/6 492/873/6 490/869/6
f 487/862/252 491/872/252 489/867/252 484/856/252
f 486/860/257 490/870/257 492/874/257 488/864/257
f 488/864/254 492/874/254 491/872/254 487/862/254
s 1
usemtl glass_etx_1
f 198/348/159 199/349/160 189/339/160 190/340/159
f 195/345/161 187/337/161 188/338/162 200/350/162
f 194/344/163 193/343/163 187/337/161 195/345/161
f 196/346/7 192/342/7 193/343/163 194/344/163
f 198/348/159 190/340/159 191/341/164 197/347/164
f 197/347/164 191/341/164 192/342/7 196/346/7
o radio_etx_2_pointer_child_1
v -0.001148 0.105886 -0.035842
v 0.001861 0.105886 -0.034893
v -0.002604 0.105886 -0.038640
v 0.004660 0.105886 -0.036350
v 0.005609 0.105886 -0.039359
v 0.004152 0.105886 -0.042158
v -0.001656 0.105886 -0.041649
v 0.001143 0.105886 -0.043106
v -0.001148 0.110206 -0.035842
v -0.002604 0.110206 -0.038640
v 0.004152 0.110206 -0.042158
v 0.005609 0.110206 -0.039359
v 0.001861 0.110206 -0.034893
v 0.001143 0.110206 -0.043106
v -0.001656 0.110206 -0.041649
v 0.004660 0.110206 -0.036350
v 0.015120 0.107806 -0.031333
v 0.011418 0.107806 -0.026920
v 0.015120 0.108766 -0.031333
v 0.011418 0.108766 -0.026920
v -0.021912 0.107806 -0.057393
v -0.020678 0.107806 -0.058864
v -0.021912 0.108766 -0.057393
v -0.020678 0.108766 -0.058864
vn -0.4617 -0.0000 -0.8870
vn -0.0000 1.0000 -0.0000
vn 0.3007 -0.0000 -0.9537
vn 0.8870 -0.0000 -0.4617
vn 0.4617 -0.0000 0.8870
vn -0.9537 -0.0000 -0.3007
vn -0.3007 -0.0000 0.9537
vn -0.8870 -0.0000 0.4617
vn 0.9537 -0.0000 0.3007
vn -0.6748 -0.0000 0.7380
vn -0.0000 -1.0000 -0.0000
vn 0.6096 -0.0000 -0.7927
vn 0.7660 -0.0000 0.6428
vn -0.7660 -0.0000 -0.6428
vt 0.184572 0.186206
vt 0.185430 0.185848
vt 0.185430 0.188681
vt 0.187500 0.189250
vt 0.189570 0.185848
vt 0.190428 0.186206
vt 0.187500 0.191099
vt 0.189570 0.188681
vt 0.184572 0.186206
vt 0.185430 0.188681
vt 0.190428 0.186206
vt 0.189570 0.185848
vt 0.185430 0.185848
vt 0.189570 0.188681
vt 0.187500 0.191099
vt 0.187500 0.189250
vt 0.189725 0.183054
vt 0.187841 0.183052
vt 0.189620 0.195653
vt 0.187841 0.183052
vt 0.185275 0.183054
vt 0.185380 0.195653
vt 0.186989 0.183052
vt 0.189586 0.183055
vt 0.189620 0.194801
vt 0.186989 0.183052
vt 0.185414 0.183055
vt 0.185381 0.194801
vt 0.187841 0.215064
vt 0.186574 0.215062
vt 0.186389 0.195653
vt 0.188426 0.215062
vt 0.187841 0.215064
vt 0.188611 0.195653
vt 0.186989 0.215064
vt 0.186450 0.215064
vt 0.186389 0.194801
vt 0.186989 0.215064
vt 0.188550 0.215064
vt 0.188611 0.194801
s 0
usemtl electronics_etx_part_1
f 500/882/260 499/881/260 507/889/260 506/888/260
f 508/890/261 504/886/261 503/885/261 506/888/261 507/889/261 502/884/261 501/883/261 505/887/261
f 498/880/262 500/882/262 506/888/262 503/885/262
f 497/879/263 498/880/263 503/885/263 504/886/263
f 494/876/264 496/878/264 508/890/264 505/887/264
f 499/881/265 495/877/265 502/884/265 507/889/265
f 493/875/266 494/876/266 505/887/266 501/883/266
f 495/877/267 493/875/267 501/883/267 502/884/267
f 496/878/268 497/879/268 504/886/268 508/890/268
f 510/894/269 512/900/269 515/909/269 513/903/269
f 509/891/270 510/895/270 513/904/270 514/906/270
f 509/892/271 514/907/271 516/912/271 511/897/271
f 515/910/261 512/901/261 511/898/261 516/913/261
f 509/893/272 511/899/272 512/902/272 510/896/272
f 514/908/273 513/905/273 515/911/273 516/914/273
o signal_receiver_etx_2_button_child_2
v -0.017750 0.095188 0.036875
v -0.020581 0.095188 0.031971
v -0.026244 0.095188 0.031971
v -0.029075 0.095188 0.036875
v -0.026244 0.095188 0.041778
v -0.020581 0.095188 0.041778
v -0.017750 0.099651 0.036875
v -0.020581 0.099651 0.031971
v -0.026244 0.099651 0.031971
v -0.029075 0.099651 0.036875
v -0.026244 0.099651 0.041778
v -0.020581 0.099651 0.041778
vn -0.0000 -0.0000 -1.0000
vn -0.0000 1.0000 -0.0000
vn -0.8660 -0.0000 -0.5000
vn -0.8660 -0.0000 0.5000
vn -0.0000 -0.0000 1.0000
vn 0.8660 -0.0000 0.5000
vn 0.8660 -0.0000 -0.5000
vt 0.718081 0.582242
vt 0.718081 0.585878
vt 0.718081 0.589515
vt 0.718081 0.593151
vt 0.718081 0.596788
vt 0.718081 0.574969
vt 0.718081 0.578605
vt 0.721947 0.586059
vt 0.715215 0.582242
vt 0.721947 0.582422
vt 0.715215 0.585878
vt 0.725096 0.580604
vt 0.715215 0.589515
vt 0.728246 0.582422
vt 0.715215 0.593151
vt 0.728246 0.586059
vt 0.715215 0.596788
vt 0.715215 0.574969
vt 0.725096 0.587877
vt 0.715215 0.578605
s 1
usemtl electronics_etx_part_2
f 525/927/274 524/925/274 518/916/274 519/917/274
f 523/922/275 524/924/275 525/926/275 526/928/275 527/930/275 528/933/275
f 525/927/276 519/917/276 520/918/276 526/929/276
f 527/931/277 526/929/277 520/918/277 521/919/277
f 527/932/278 521/920/278 522/921/278 528/934/278
f 523/923/279 528/934/279 522/921/279 517/915/279
f 524/925/280 523/923/280 517/915/280 518/916/280
o signal_receiver_etx_2_button_child_3
v 0.028586 0.095188 0.036875
v 0.025755 0.095188 0.031971
v 0.020092 0.095188 0.031971
v 0.017261 0.095188 0.036875
v 0.020092 0.095188 0.041778
v 0.025755 0.095188 0.041778
v 0.028586 0.099651 0.036875
v 0.025755 0.099651 0.031971
v 0.020092 0.099651 0.031971
v 0.017261 0.099651 0.036875
v 0.020092 0.099651 0.041778
v 0.025755 0.099651 0.041778
vn -0.0000 -0.0000 -1.0000
vn -0.0000 1.0000 -0.0000
vn -0.8660 -0.0000 -0.5000
vn -0.8660 -0.0000 0.5000
vn -0.0000 -0.0000 1.0000
vn 0.8660 -0.0000 0.5000
vn 0.8660 -0.0000 -0.5000
vt 0.718081 0.582242
vt 0.718081 0.585878
vt 0.718081 0.589515
vt 0.718081 0.593151
vt 0.718081 0.596788
vt 0.718081 0.574969
vt 0.718081 0.578605
vt 0.721947 0.586059
vt 0.715215 0.582242
vt 0.721947 0.582422
vt 0.715215 0.585878
vt 0.725096 0.580604
vt 0.715215 0.589515
vt 0.728246 0.582422
vt 0.715215 0.593151
vt 0.728246 0.586059
vt 0.715215 0.596788
vt 0.715215 0.574969
vt 0.725096 0.587877
vt 0.715215 0.578605
s 1
usemtl electronics_etx_part_2
f 537/947/281 536/945/281 530/936/281 531/937/281
f 535/942/282 536/944/282 537/946/282 538/948/282 539/950/282 540/953/282
f 537/947/283 531/937/283 532/938/283 538/949/283
f 539/951/284 538/949/284 532/938/284 533/939/284
f 539/952/285 533/940/285 534/941/285 540/954/285
f 535/943/286 540/954/286 534/941/286 529/935/286
f 536/945/287 535/943/287 529/935/287 530/936/287
o signal_receiver_etx_2_handle_child_4
v 0.079413 0.133393 -0.157910
v 0.079904 0.139931 -0.163395
v 0.079904 0.117302 -0.190364
v 0.079413 0.110764 -0.184878
v 0.093402 0.130936 -0.155848
v 0.097177 0.136845 -0.160806
v 0.097177 0.114216 -0.187775
v 0.093402 0.108307 -0.182816
v 0.107744 0.119949 -0.146629
v 0.115458 0.122841 -0.149055
v 0.115458 0.100212 -0.176023
v 0.107744 0.097320 -0.173597
v 0.110951 0.109233 -0.137637
v 0.119486 0.109609 -0.137953
v 0.119486 0.086980 -0.164921
v 0.110951 0.086604 -0.164605
v 0.110951 0.045164 -0.083877
v 0.119486 0.045164 -0.083877
v 0.119486 0.022535 -0.110845
v 0.110951 0.022535 -0.110845
v 0.119486 0.025581 -0.090052
v 0.110951 0.025581 -0.090052
v 0.119486 0.021468 -0.097986
v 0.110951 0.021468 -0.097986
v 0.119486 0.032860 -0.084408
v 0.110951 0.032860 -0.084408
v -0.079913 0.133393 -0.157910
v -0.080404 0.139931 -0.163395
v -0.080404 0.117302 -0.190364
v -0.079913 0.110764 -0.184878
v -0.093902 0.130936 -0.155848
v -0.097677 0.136845 -0.160806
v -0.097677 0.114216 -0.187775
v -0.093902 0.108307 -0.182816
v -0.108244 0.119949 -0.146629
v -0.115958 0.122841 -0.149055
v -0.115958 0.100212 -0.176024
v -0.108244 0.097320 -0.173597
v -0.111451 0.109233 -0.137637
v -0.119986 0.109609 -0.137953
v -0.119986 0.086980 -0.164921
v -0.111451 0.086604 -0.164605
v -0.111451 0.045164 -0.083877
v -0.119986 0.045164 -0.083877
v -0.119986 0.032860 -0.084408
v -0.119986 0.022535 -0.110845
v -0.111451 0.022535 -0.110845
v -0.111451 0.021468 -0.097986
v -0.119986 0.021468 -0.097986
v -0.119986 0.025581 -0.090052
v -0.111451 0.025581 -0.090052
v -0.111451 0.032860 -0.084408
v 0.107664 0.130875 -0.155797
v 0.101629 0.126252 -0.151917
v 0.101629 0.103623 -0.178886
v 0.107664 0.108246 -0.182765
v -0.102129 0.126252 -0.151917
v -0.108164 0.130874 -0.155797
v -0.108164 0.108246 -0.182765
v -0.102129 0.103623 -0.178886
vn -0.0000 0.6428 0.7660
vn -0.4206 0.6950 -0.5832
vn -0.7071 0.5417 -0.4545
vn -0.0000 -0.6428 -0.7660
vn 0.4189 -0.6956 0.5837
vn 0.1124 -0.7612 0.6387
vn -0.9934 0.0876 -0.0735
vn -0.9072 0.3222 -0.2704
vn 0.7071 0.5417 -0.4545
vn 0.9072 0.3222 -0.2704
vn 0.9934 0.0876 -0.0735
vn -0.0000 -0.3441 0.9389
vn -0.0000 0.3216 0.9469
vn 1.0000 -0.0000 -0.0000
vn -0.0000 -0.7682 0.6402
vn -0.9937 -0.0861 0.0723
vn -0.9080 -0.3209 0.2693
vn -0.7071 -0.5417 0.4545
vn -0.4189 -0.6956 0.5837
vn 0.7071 -0.5417 0.4545
vn 0.4206 0.6950 -0.5832
vn 0.1143 0.7610 -0.6386
vn -0.0000 -0.8880 -0.4598
vn -0.1124 -0.7612 0.6387
vn -1.0000 -0.0000 -0.0000
vn -0.0000 -0.9805 0.1964
vn 0.9080 -0.3209 0.2693
vn 0.9937 -0.0861 0.0723
vn -0.1143 0.7610 -0.6386
vt 0.847494 0.270130
vt 0.994279 0.338235
vt 0.798371 0.100674
vt 0.999760 0.337920
vt 0.999861 0.493851
vt 0.820979 0.100674
vt 0.994380 0.493536
vt 0.824886 0.270130
vt 0.847494 0.260914
vt 0.992220 0.329251
vt 0.798371 0.089284
vt 0.997173 0.326827
vt 0.820979 0.089284
vt 0.997274 0.504944
vt 0.824886 0.260914
vt 0.992321 0.502520
vt 0.847494 0.247747
vt 0.983009 0.320040
vt 0.798371 0.072502
vt 0.985433 0.315087
vt 0.820979 0.072502
vt 0.985534 0.516684
vt 0.983110 0.511730
vt 0.824886 0.247747
vt 0.974026 0.317981
vt 0.847494 0.238531
vt 0.974341 0.312500
vt 0.798371 0.061112
vt 0.974441 0.519271
vt 0.820979 0.061112
vt 0.974126 0.513790
vt 0.824886 0.238531
vt 0.920314 0.317981
vt 0.847494 0.184819
vt 0.798371 0.007085
vt 0.920314 0.312500
vt 0.820980 0.007085
vt 0.920415 0.519271
vt 0.920415 0.513790
vt 0.824886 0.184819
vt 0.906490 0.312500
vt 0.906389 0.519271
vt 0.809493 0.000000
vt 0.906490 0.317981
vt 0.836372 0.177734
vt 0.906389 0.513790
vt 0.912128 0.519271
vt 0.815094 0.001252
vt 0.912128 0.513790
vt 0.830772 0.178986
vt 0.912405 0.312500
vt 0.803712 0.001252
vt 0.912405 0.317981
vt 0.842154 0.178986
vt 0.847494 0.373790
vt 0.847494 0.372450
vt 0.994279 0.440554
vt 0.798371 0.203624
vt 0.798371 0.205009
vt 0.999760 0.440870
vt 0.999861 0.390901
vt 0.820979 0.203624
vt 0.820980 0.205009
vt 0.824886 0.373790
vt 0.994380 0.391216
vt 0.824886 0.372450
vt 0.847494 0.383006
vt 0.847494 0.392127
vt 0.992219 0.449538
vt 0.798371 0.225472
vt 0.798371 0.216399
vt 0.997173 0.451962
vt 0.820979 0.225472
vt 0.997274 0.379809
vt 0.820980 0.216399
vt 0.824886 0.383006
vt 0.992320 0.382233
vt 0.824886 0.392127
vt 0.847494 0.416209
vt 0.847494 0.435975
vt 0.983009 0.458748
vt 0.798371 0.272747
vt 0.798371 0.253175
vt 0.985433 0.463702
vt 0.820979 0.272747
vt 0.820979 0.253175
vt 0.985534 0.368068
vt 0.983110 0.373022
vt 0.824886 0.416209
vt 0.824886 0.435975
vt 0.974024 0.460807
vt 0.847494 0.457031
vt 0.847494 0.445192
vt 0.798371 0.284137
vt 0.974340 0.466289
vt 0.798371 0.296169
vt 0.820980 0.284137
vt 0.974442 0.365482
vt 0.820979 0.296169
vt 0.974126 0.370962
vt 0.824886 0.457031
vt 0.824886 0.445192
vt 0.920314 0.460808
vt 0.847494 0.510743
vt 0.920314 0.466289
vt 0.798371 0.350195
vt 0.912405 0.466289
vt 0.803712 0.356029
vt 0.920414 0.365482
vt 0.820979 0.350195
vt 0.920414 0.370962
vt 0.824886 0.510743
vt 0.912128 0.370962
vt 0.830771 0.516576
vt 0.912128 0.365482
vt 0.815094 0.356029
vt 0.906388 0.365482
vt 0.906489 0.466289
vt 0.809493 0.357280
vt 0.836372 0.517828
vt 0.906389 0.370963
vt 0.906490 0.460808
vt 0.912406 0.460808
vt 0.842154 0.516576
vt 0.798371 0.080893
vt 0.992168 0.320092
vt 0.847494 0.254331
vt 0.988293 0.323968
vt 0.824886 0.254331
vt 0.988393 0.507803
vt 0.820979 0.080893
vt 0.992269 0.511679
vt 0.847494 0.398710
vt 0.847494 0.409626
vt 0.988293 0.454821
vt 0.798371 0.233863
vt 0.798371 0.244784
vt 0.992168 0.458697
vt 0.820979 0.233863
vt 0.820980 0.244784
vt 0.992268 0.373074
vt 0.988393 0.376949
vt 0.824886 0.398710
vt 0.824886 0.409626
s 1
usemtl electronics_etx_part_2
f 576/1038/288 580/1049/288 579/1045/288 575/1035/288
f 572/1024/289 573/1027/289 599/1093/290 598/1090/290
f 570/1019/291 574/1031/291 573/1028/291 569/1015/291
f 574/1030/292 570/1018/293 567/1009/293 571/1021/292
f 581/1051/294 580/1048/294 576/1036/295 577/1039/295
f 596/1085/296 593/1079/296 550/973/297 551/975/297
f 545/964/288 594/1082/288 593/1080/288 546/966/288
f 555/984/298 551/975/297 550/973/297 554/982/298
f 592/1077/299 583/1057/300 584/1059/300 585/1061/299
f 563/1002/301 559/991/301 558/989/301 565/1006/301
f 592/1078/301 591/1074/301 588/1068/301
f 562/998/302 561/995/302 565/1005/299 566/1007/299
f 579/1045/288 580/1049/288 584/1059/300 583/1057/300
f 551/976/291 555/983/291 556/985/291 552/977/291
f 598/1091/290 599/1094/290 577/1040/295 576/1037/295
f 578/1042/291 582/1054/291 581/1052/291 577/1041/291
f 553/980/303 549/971/304 552/978/304 556/986/303
f 543/959/291 547/968/291 548/970/291 544/961/291
f 549/972/288 553/979/288 554/981/288 550/974/288
f 599/1095/291 600/1096/291 578/1042/291 577/1041/291
f 574/1031/291 600/1096/291 599/1095/291 573/1028/291
f 596/1086/291 551/976/291 552/977/291 595/1084/291
f 594/1081/305 545/963/306 548/969/306 595/1083/305
f 571/1022/292 597/1087/307 600/1097/307 574/1032/292
f 547/967/308 543/960/309 542/957/309 546/965/308
f 581/1052/291 582/1054/291 587/1065/310 586/1063/310
f 545/963/306 541/955/311 544/962/311 548/969/306
f 581/1053/294 586/1064/312 584/1060/312 580/1050/294
f 588/1067/313 591/1075/302 590/1071/302 589/1069/313
f 591/1076/302 592/1077/299 585/1061/299 590/1072/302
f 600/1098/307 597/1088/307 575/1033/314 578/1043/314
f 583/1058/301 587/1066/301 582/1055/315 579/1046/315
f 582/1056/315 578/1044/314 575/1034/314 579/1047/315
f 594/1081/305 595/1083/305 552/978/304 549/971/304
f 547/967/308 546/965/308 593/1079/296 596/1085/296
f 544/961/291 570/1019/291 569/1015/291 543/959/291
f 569/1016/316 568/1012/316 542/957/309 543/960/309
f 547/968/291 596/1086/291 595/1084/291 548/970/291
f 594/1082/288 549/972/288 550/974/288 593/1080/288
f 541/956/288 542/958/288 568/1014/288 567/1011/288
f 572/1025/289 568/1013/316 569/1017/316 573/1029/289
f 587/1065/310 588/1067/313 589/1069/313 586/1063/310
f 553/979/288 557/987/300 558/990/300 554/981/288
f 555/983/291 559/992/310 560/993/310 556/985/291
f 541/955/311 567/1010/293 570/1020/293 544/962/311
f 566/1008/312 564/1004/312 562/999/312
f 597/1089/288 598/1092/288 576/1038/288 575/1035/288
f 564/1003/313 563/1001/313 561/996/302 562/1000/302
f 558/989/301 559/991/301 555/984/298 554/982/298
f 566/1007/299 565/1005/299 558/990/300 557/987/300
f 557/988/312 553/980/303 556/986/303 560/994/312
f 560/993/310 559/992/310 563/1001/313 564/1003/313
f 541/956/288 545/964/288 546/966/288 542/958/288
f 568/1014/288 572/1026/288 571/1023/288 567/1011/288
f 585/1062/312 589/1070/312 590/1073/312
f 572/1026/288 598/1092/288 597/1089/288 571/1023/288
f 584/1060/312 586/1064/312 589/1070/312 585/1062/312
f 583/1058/301 592/1078/301 588/1068/301 587/1066/301
f 561/997/301 563/1002/301 565/1006/301
f 557/988/312 560/994/312 564/1004/312 566/1008/312
o signal_receiver_etx_2_knob_child
v 0.029190 0.073647 0.096516
v 0.026946 0.077507 0.085912
v 0.020553 0.080779 0.076922
v 0.010987 0.082965 0.070915
v -0.000298 0.083733 0.068806
v -0.011583 0.082965 0.070915
v -0.021149 0.080779 0.076922
v -0.027541 0.077507 0.085912
v -0.029786 0.073647 0.096516
v -0.027541 0.069788 0.107120
v -0.021149 0.066516 0.116110
v -0.011583 0.064330 0.122116
v -0.000298 0.063562 0.124226
v 0.010987 0.064330 0.122116
v 0.020553 0.066516 0.116110
v 0.026946 0.069788 0.107120
v 0.029190 0.079902 0.098792
v 0.026946 0.083762 0.088188
v 0.020553 0.087034 0.079198
v 0.010987 0.089220 0.073192
v -0.000298 0.089988 0.071082
v -0.011583 0.089220 0.073192
v -0.021149 0.087034 0.079198
v -0.027541 0.083762 0.088188
v -0.029786 0.079902 0.098792
v -0.027541 0.076042 0.109396
v -0.021149 0.072770 0.118386
v -0.011583 0.070584 0.124393
v -0.000298 0.069816 0.126502
v 0.010987 0.070584 0.124393
v 0.020553 0.072770 0.118386
v 0.026946 0.076042 0.109396
v 0.022020 0.084351 0.100411
v 0.020321 0.087272 0.092386
v 0.015483 0.089748 0.085582
v 0.008243 0.091403 0.081036
v -0.000298 0.091984 0.079439
v -0.008839 0.091403 0.081036
v -0.016079 0.089748 0.085582
v -0.020917 0.087272 0.092386
v -0.022616 0.084351 0.100411
v -0.020917 0.081429 0.108437
v -0.016079 0.078953 0.115241
v -0.008839 0.077298 0.119787
v -0.000298 0.076717 0.121384
v 0.008243 0.077298 0.119787
v 0.015483 0.078953 0.115241
v 0.020321 0.081429 0.108437
v 0.016703 0.102326 0.099460
v 0.006744 0.105732 0.090102
v -0.007340 0.105732 0.090102
v -0.017299 0.102326 0.099460
v -0.017299 0.097509 0.112694
v -0.007340 0.094103 0.122053
v 0.006744 0.094103 0.122053
v 0.016703 0.097509 0.112694
v -0.001228 0.092330 0.078785
v -0.001228 0.090794 0.072480
v -0.001228 0.091406 0.078449
v -0.001228 0.089870 0.072143
v 0.000572 0.092330 0.078785
v 0.000572 0.090794 0.072480
v 0.000572 0.091406 0.078449
v 0.000572 0.089870 0.072143
vn -0.3827 0.3160 -0.8682
vn -0.0000 0.3420 -0.9397
vn 0.3827 -0.3160 0.8682
vn -0.0000 -0.3420 0.9397
vn 0.9239 -0.1309 0.3596
vn 0.7071 -0.2418 0.6645
vn -0.3827 -0.3160 0.8682
vn 0.7071 0.2418 -0.6645
vn 0.9239 0.1309 -0.3596
vn -0.7071 0.2418 -0.6645
vn 1.0000 -0.0000 -0.0000
vn 0.3827 0.3160 -0.8682
vn -0.9239 0.1309 -0.3596
vn -0.2109 0.6101 0.7638
vn -0.3896 0.6509 0.6515
vn -0.0000 0.5957 0.8032
vn -0.5090 0.8563 0.0873
vn -0.3896 0.9174 -0.0807
vn 0.2109 0.9583 -0.1929
vn 0.3896 0.9174 -0.0807
vn 0.2109 0.6101 0.7638
vn -0.5510 0.7842 0.2854
vn -0.0000 0.9726 -0.2323
vn -0.2109 0.9583 -0.1929
vn 0.5090 0.7121 0.4836
vn 0.3896 0.6509 0.6515
vn -0.5090 0.7121 0.4836
vn 0.5510 0.7842 0.2854
vn 0.5090 0.8563 0.0873
vn -0.8816 0.4060 -0.2408
vn -0.3652 0.5826 -0.7261
vn -0.6847 0.4688 -0.5580
vn -0.9683 0.2346 0.0854
vn -0.8816 0.1562 0.4454
vn 0.8816 0.4060 -0.2408
vn 0.6847 0.4688 -0.5580
vn 0.3652 0.5826 -0.7261
vn -0.3652 -0.0205 0.9307
vn -0.6847 0.0004 0.7288
vn 0.8816 0.1562 0.4454
vn 0.3652 -0.0205 0.9307
vn 0.6847 0.0004 0.7288
vn -0.0000 0.5658 -0.8246
vn -0.0000 -0.0966 0.9953
vn -0.0000 0.9397 0.3420
vn -0.9239 -0.1309 0.3596
vn -1.0000 -0.0000 -0.0000
vn -0.7071 -0.2418 0.6645
vn 0.9683 0.2346 0.0854
vn 0.3724 0.5237 -0.7662
vn -0.3724 0.5237 -0.7662
vn -0.8991 0.3436 -0.2713
vn -0.8991 0.0888 0.4287
vn -0.3724 -0.0913 0.9236
vn 0.3724 -0.0913 0.9236
vn 0.8991 0.0888 0.4287
vn 0.8991 0.3436 -0.2713
vn -0.0000 0.9716 -0.2367
vt 0.560491 0.261510
vt 0.560491 0.253300
vt 0.560491 0.245090
vt 0.560491 0.236880
vt 0.560491 0.228670
vt 0.560491 0.220460
vt 0.560491 0.212250
vt 0.560491 0.204040
vt 0.560491 0.195830
vt 0.560491 0.187620
vt 0.560491 0.179410
vt 0.560491 0.171200
vt 0.560491 0.294350
vt 0.560491 0.162990
vt 0.560491 0.286140
vt 0.560491 0.277930
vt 0.560491 0.269720
vt 0.565241 0.261510
vt 0.722746 0.430308
vt 0.565241 0.253300
vt 0.714107 0.433923
vt 0.704720 0.433923
vt 0.565241 0.245090
vt 0.696041 0.430304
vt 0.565241 0.236880
vt 0.565241 0.228670
vt 0.689407 0.423623
vt 0.565241 0.220460
vt 0.685833 0.414908
vt 0.565241 0.212250
vt 0.685863 0.405491
vt 0.689487 0.396810
vt 0.565241 0.204040
vt 0.696148 0.390190
vt 0.565241 0.195830
vt 0.704821 0.386642
vt 0.565241 0.187620
vt 0.714168 0.386700
vt 0.565241 0.179410
vt 0.722764 0.390367
vt 0.565241 0.171200
vt 0.565241 0.294350
vt 0.565241 0.162990
vt 0.729278 0.397068
vt 0.732741 0.405735
vt 0.565241 0.286140
vt 0.732773 0.415018
vt 0.565241 0.277930
vt 0.565241 0.269720
vt 0.729298 0.423654
vt 0.719595 0.425230
vt 0.719025 0.425609
vt 0.753994 0.494820
vt 0.712485 0.428134
vt 0.713159 0.428004
vt 0.751370 0.489164
vt 0.705456 0.427940
vt 0.706129 0.428080
vt 0.749265 0.483295
vt 0.699593 0.425439
vt 0.699023 0.425051
vt 0.747786 0.477238
vt 0.694179 0.419907
vt 0.694557 0.420485
vt 0.746855 0.471073
vt 0.691793 0.413975
vt 0.691664 0.413296
vt 0.746575 0.464950
vt 0.746575 0.464844
vt 0.691863 0.406227
vt 0.691723 0.406903
vt 0.746855 0.471179
vt 0.694354 0.400348
vt 0.694741 0.399777
vt 0.747786 0.477344
vt 0.699282 0.395310
vt 0.699857 0.394932
vt 0.749265 0.483401
vt 0.706420 0.392428
vt 0.705747 0.392556
vt 0.751370 0.489270
vt 0.713410 0.392640
vt 0.712742 0.392498
vt 0.753994 0.494926
vt 0.719201 0.395162
vt 0.719762 0.395553
vt 0.757194 0.500277
vt 0.724132 0.400134
vt 0.724500 0.400713
vt 0.760862 0.505319
vt 0.726794 0.406652
vt 0.726922 0.407328
vt 0.765038 0.509950
vt 0.765038 0.509844
vt 0.726828 0.414353
vt 0.726958 0.413681
vt 0.760862 0.505213
vt 0.724442 0.420200
vt 0.724065 0.420769
vt 0.757194 0.500171
vt 0.725328 0.479795
vt 0.762647 0.484537
vt 0.735378 0.479795
vt 0.759744 0.474880
vt 0.742484 0.486901
vt 0.758764 0.464950
vt 0.758764 0.464844
vt 0.742484 0.496950
vt 0.759744 0.474986
vt 0.735378 0.504056
vt 0.762647 0.484644
vt 0.725328 0.504056
vt 0.767363 0.493557
vt 0.718222 0.496950
vt 0.773714 0.501390
vt 0.773714 0.501284
vt 0.718222 0.486901
vt 0.767363 0.493451
vt 0.708069 0.534241
vt 0.708069 0.534241
vt 0.708069 0.534241
vt 0.708069 0.534241
vt 0.708069 0.534241
vt 0.708069 0.534241
vt 0.708069 0.534241
vt 0.708069 0.534241
s 1
usemtl electronics_etx_part_2
f 622/1126/317 621/1124/318 605/1103/318 606/1104/317
f 630/1144/319 629/1140/320 613/1111/320 614/1113/319
f 632/1147/321 631/1146/322 615/1114/322 616/1115/321
f 629/1141/320 628/1139/323 612/1110/323 613/1112/320
f 619/1121/324 618/1118/325 602/1100/325 603/1101/324
f 623/1128/326 622/1126/317 606/1104/317 607/1105/326
f 617/1116/327 632/1147/321 616/1115/321 601/1099/327
f 621/1124/318 620/1123/328 604/1102/328 605/1103/318
f 624/1131/329 623/1128/326 607/1105/326 608/1106/329
f 644/1183/330 643/1180/331 627/1136/331 628/1138/330
f 645/1186/332 644/1184/330 628/1138/330 629/1142/332
f 640/1171/333 639/1168/334 623/1129/334 624/1130/333
f 636/1158/335 635/1155/336 619/1120/336 620/1122/335
f 646/1189/337 645/1187/332 629/1142/332 630/1143/337
f 641/1174/338 640/1172/333 624/1130/333 625/1132/338
f 621/1125/339 622/1127/340 638/1164/340 637/1161/339
f 648/1196/341 647/1193/342 631/1145/342 632/1148/341
f 643/1181/331 642/1177/343 626/1134/343 627/1136/331
f 642/1178/343 641/1175/338 625/1132/338 626/1134/343
f 633/1149/344 648/1197/341 632/1148/341 617/1117/344
f 647/1194/342 646/1190/337 630/1143/337 631/1145/342
f 637/1162/339 636/1159/335 620/1122/335 621/1125/339
f 635/1156/336 634/1152/345 618/1119/345 619/1120/336
f 639/1169/334 638/1165/340 622/1127/340 623/1129/334
f 652/1207/346 651/1204/347 639/1170/348
f 652/1207/346 641/1176/349 653/1209/350
f 649/1200/351 635/1157/352 650/1202/353
f 654/1211/354 653/1209/350 643/1182/355
f 656/1216/356 655/1214/357 647/1195/358
f 651/1205/347 650/1202/353 637/1163/359
f 655/1213/357 654/1211/354 645/1188/360
f 656/1215/361 649/1199/361 650/1201/361 651/1203/361 652/1206/361 653/1208/361 654/1210/361 655/1212/361
f 626/1135/362 625/1133/363 609/1107/363 610/1108/362
f 627/1137/364 626/1135/362 610/1108/362 611/1109/364
f 628/1139/323 627/1137/364 611/1109/364 612/1110/323
f 618/1118/325 617/1116/327 601/1099/327 602/1100/325
f 631/1146/322 630/1144/319 614/1113/319 615/1114/322
f 620/1123/328 619/1121/324 603/1101/324 604/1102/328
f 625/1133/363 624/1131/329 608/1106/329 609/1107/363
f 634/1153/345 633/1150/344 617/1117/344 618/1119/345
f 649/1200/351 656/1216/356 633/1151/365
f 637/1163/359 650/1202/353 636/1160/366
f 639/1170/348 651/1204/347 638/1166/367
f 637/1163/359 638/1167/367 651/1205/347
f 639/1170/348 640/1173/368 652/1207/346
f 641/1176/349 642/1179/369 653/1209/350
f 641/1176/349 652/1207/346 640/1173/368
f 643/1182/355 653/1209/350 642/1179/369
f 643/1182/355 644/1185/370 654/1211/354
f 645/1188/360 654/1211/354 644/1185/370
f 645/1188/360 646/1191/371 655/1213/357
f 647/1195/358 655/1214/357 646/1192/371
f 633/1151/365 656/1216/356 648/1198/372
f 647/1195/358 648/1198/372 656/1216/356
f 635/1157/352 636/1160/366 650/1202/353
f 633/1151/365 634/1154/373 649/1200/351
f 635/1157/352 649/1200/351 634/1154/373
s 0
f 657/1217/363 658/1218/363 660/1220/363 659/1219/363
f 663/1223/327 664/1224/327 662/1222/327 661/1221/327
f 661/1221/374 662/1222/374 658/1218/374 657/1217/374
f 659/1219/320 663/1223/320 661/1221/320 657/1217/320
f 664/1224/318 660/1220/318 658/1218/318 662/1222/318
